G04 #@! TF.GenerationSoftware,KiCad,Pcbnew,(5.1.2-1)-1*
G04 #@! TF.CreationDate,2020-07-05T12:12:15-04:00*
G04 #@! TF.ProjectId,ArcadeMain,41726361-6465-44d6-9169-6e2e6b696361,rev?*
G04 #@! TF.SameCoordinates,Original*
G04 #@! TF.FileFunction,Copper,L1,Top*
G04 #@! TF.FilePolarity,Positive*
%FSLAX46Y46*%
G04 Gerber Fmt 4.6, Leading zero omitted, Abs format (unit mm)*
G04 Created by KiCad (PCBNEW (5.1.2-1)-1) date 2020-07-05 12:12:15*
%MOMM*%
%LPD*%
G04 APERTURE LIST*
%ADD10O,1.000000X1.550000*%
%ADD11O,1.250000X0.950000*%
%ADD12R,0.400000X1.350000*%
%ADD13O,1.700000X1.700000*%
%ADD14R,1.700000X1.700000*%
%ADD15C,1.950000*%
%ADD16R,1.950000X1.950000*%
%ADD17C,0.800000*%
%ADD18C,0.381000*%
%ADD19C,0.254000*%
G04 APERTURE END LIST*
D10*
X127056000Y-54196000D03*
X134056000Y-54196000D03*
D11*
X133056000Y-56896000D03*
X128056000Y-56896000D03*
D12*
X131856000Y-56896000D03*
X131206000Y-56896000D03*
X129256000Y-56896000D03*
X129906000Y-56896000D03*
X130556000Y-56896000D03*
D13*
X177546000Y-117221000D03*
X177546000Y-114681000D03*
X175006000Y-117221000D03*
X175006000Y-114681000D03*
X172466000Y-117221000D03*
X172466000Y-114681000D03*
X169926000Y-117221000D03*
X169926000Y-114681000D03*
X167386000Y-117221000D03*
X167386000Y-114681000D03*
X164846000Y-117221000D03*
X164846000Y-114681000D03*
X162306000Y-117221000D03*
X162306000Y-114681000D03*
X159766000Y-117221000D03*
X159766000Y-114681000D03*
X157226000Y-117221000D03*
X157226000Y-114681000D03*
X154686000Y-117221000D03*
X154686000Y-114681000D03*
X152146000Y-117221000D03*
X152146000Y-114681000D03*
X149606000Y-117221000D03*
X149606000Y-114681000D03*
X147066000Y-117221000D03*
X147066000Y-114681000D03*
X144526000Y-117221000D03*
X144526000Y-114681000D03*
X141986000Y-117221000D03*
X141986000Y-114681000D03*
X139446000Y-117221000D03*
X139446000Y-114681000D03*
X136906000Y-117221000D03*
X136906000Y-114681000D03*
X134366000Y-117221000D03*
X134366000Y-114681000D03*
X131826000Y-117221000D03*
X131826000Y-114681000D03*
X129286000Y-117221000D03*
X129286000Y-114681000D03*
X126746000Y-117221000D03*
X126746000Y-114681000D03*
X124206000Y-117221000D03*
D14*
X124206000Y-114681000D03*
D10*
X180396000Y-54069000D03*
X187396000Y-54069000D03*
D11*
X186396000Y-56769000D03*
X181396000Y-56769000D03*
D12*
X185196000Y-56769000D03*
X184546000Y-56769000D03*
X182596000Y-56769000D03*
X183246000Y-56769000D03*
X183896000Y-56769000D03*
D13*
X153822400Y-93522800D03*
X153822400Y-90982800D03*
X153822400Y-88442800D03*
X153822400Y-85902800D03*
X153822400Y-83362800D03*
X153822400Y-80822800D03*
X153822400Y-78282800D03*
X153822400Y-75742800D03*
X153822400Y-73202800D03*
X153822400Y-70662800D03*
X153822400Y-68122800D03*
X153822400Y-65582800D03*
X153822400Y-63042800D03*
X153822400Y-60502800D03*
X153822400Y-57962800D03*
X153822400Y-55422800D03*
D14*
X153822400Y-52882800D03*
D13*
X138607800Y-52882800D03*
X138607800Y-55422800D03*
X138607800Y-57962800D03*
X138607800Y-60502800D03*
X138607800Y-63042800D03*
X138607800Y-65582800D03*
X138607800Y-68122800D03*
X138607800Y-70662800D03*
X138607800Y-73202800D03*
X138607800Y-75742800D03*
X138607800Y-78282800D03*
X138607800Y-80822800D03*
X138607800Y-83362800D03*
X138607800Y-85902800D03*
X138607800Y-88442800D03*
X138607800Y-90982800D03*
D14*
X138607800Y-93522800D03*
D13*
X176453800Y-93522800D03*
X176453800Y-90982800D03*
X176453800Y-88442800D03*
X176453800Y-85902800D03*
X176453800Y-83362800D03*
X176453800Y-80822800D03*
X176453800Y-78282800D03*
X176453800Y-75742800D03*
X176453800Y-73202800D03*
X176453800Y-70662800D03*
X176453800Y-68122800D03*
X176453800Y-65582800D03*
X176453800Y-63042800D03*
X176453800Y-60502800D03*
X176453800Y-57962800D03*
X176453800Y-55422800D03*
D14*
X176453800Y-52882800D03*
D13*
X161213800Y-52882800D03*
X161213800Y-55422800D03*
X161213800Y-57962800D03*
X161213800Y-60502800D03*
X161213800Y-63042800D03*
X161213800Y-65582800D03*
X161213800Y-68122800D03*
X161213800Y-70662800D03*
X161213800Y-73202800D03*
X161213800Y-75742800D03*
X161213800Y-78282800D03*
X161213800Y-80822800D03*
X161213800Y-83362800D03*
X161213800Y-85902800D03*
X161213800Y-88442800D03*
X161213800Y-90982800D03*
D14*
X161213800Y-93522800D03*
D15*
X117348000Y-58157000D03*
X117348000Y-63157000D03*
X117348000Y-68157000D03*
X117348000Y-73157000D03*
X117348000Y-78157000D03*
X117348000Y-83157000D03*
X117348000Y-88157000D03*
X117348000Y-93157000D03*
X117348000Y-98157000D03*
X117348000Y-103157000D03*
X117348000Y-108157000D03*
D16*
X117348000Y-113157000D03*
D17*
X142494000Y-56388000D03*
X125476000Y-97282000D03*
X181483000Y-106426000D03*
X181737000Y-104521000D03*
X181229000Y-101473000D03*
X181483000Y-102997000D03*
X133350000Y-58564015D03*
X131572000Y-58674000D03*
X127889000Y-58738000D03*
X130556000Y-59309000D03*
X167947990Y-98244010D03*
X156845000Y-100203000D03*
X134874000Y-104140000D03*
X153670000Y-103886000D03*
X145647699Y-74443301D03*
X145588701Y-71962299D03*
X145715701Y-69422299D03*
X145588701Y-66882299D03*
X145588701Y-64342299D03*
X145563301Y-61743301D03*
X165735000Y-94615000D03*
X165354000Y-101346000D03*
X161163000Y-105537000D03*
X157353000Y-108712000D03*
X164973000Y-93345000D03*
X164573001Y-99930001D03*
X159893000Y-104521000D03*
X156337000Y-107823000D03*
X163957000Y-91948000D03*
X163322000Y-98933000D03*
X159004000Y-103378000D03*
X155702000Y-106680000D03*
X158877000Y-59817000D03*
X162941000Y-104902000D03*
X137160000Y-113284000D03*
X135636000Y-115951000D03*
X147193000Y-103251000D03*
X134493000Y-113284000D03*
X144780000Y-102997000D03*
X163830000Y-104140000D03*
X147955000Y-110617000D03*
X140970000Y-101092000D03*
D18*
X185196000Y-57825000D02*
X185127010Y-57893990D01*
X185196000Y-56769000D02*
X185196000Y-57825000D01*
X181483000Y-106426000D02*
X181483000Y-106426000D01*
X186013501Y-58642501D02*
X185196000Y-57825000D01*
X186013501Y-101895499D02*
X186013501Y-58642501D01*
X181483000Y-106426000D02*
X186013501Y-101895499D01*
X181737000Y-104521000D02*
X181737000Y-104521000D01*
X184546000Y-58024000D02*
X184546000Y-57825000D01*
X181737000Y-104521000D02*
X183515000Y-102743000D01*
X183515000Y-70231000D02*
X182032499Y-68748499D01*
X182032499Y-60537501D02*
X184546000Y-58024000D01*
X184546000Y-57825000D02*
X184546000Y-56769000D01*
X182032499Y-68748499D02*
X182032499Y-60537501D01*
X183515000Y-102743000D02*
X183515000Y-70231000D01*
X181229000Y-101473000D02*
X181229000Y-101473000D01*
X181229000Y-101473000D02*
X181229000Y-70993000D01*
X181229000Y-70993000D02*
X179578000Y-69342000D01*
X179578000Y-60262000D02*
X182596000Y-57244000D01*
X182596000Y-57244000D02*
X182596000Y-56769000D01*
X179578000Y-69342000D02*
X179578000Y-60262000D01*
X181483000Y-102997000D02*
X181483000Y-102997000D01*
X181483000Y-102997000D02*
X182499000Y-101981000D01*
X182499000Y-101981000D02*
X182499000Y-70866000D01*
X182499000Y-70866000D02*
X180340000Y-68707000D01*
X180340000Y-68707000D02*
X180340000Y-61341000D01*
X183896000Y-57825000D02*
X183896000Y-56769000D01*
X180380000Y-61341000D02*
X183896000Y-57825000D01*
X180340000Y-61341000D02*
X180380000Y-61341000D01*
X131856000Y-57070015D02*
X133350000Y-58564015D01*
X131856000Y-56896000D02*
X131856000Y-57070015D01*
X133350000Y-58564015D02*
X133350000Y-58564015D01*
X131206000Y-56896000D02*
X131206000Y-58308000D01*
X131206000Y-58308000D02*
X131572000Y-58674000D01*
X131572000Y-58674000D02*
X131572000Y-58674000D01*
X129256000Y-57371000D02*
X127889000Y-58738000D01*
X129256000Y-56896000D02*
X129256000Y-57371000D01*
X127889000Y-58738000D02*
X127889000Y-58738000D01*
X130556000Y-56896000D02*
X130556000Y-59309000D01*
X130556000Y-59309000D02*
X130556000Y-59309000D01*
X167947990Y-59616990D02*
X167947990Y-97990010D01*
X161213800Y-52882800D02*
X167947990Y-59616990D01*
X167947990Y-97990010D02*
X167947990Y-98244010D01*
X167947990Y-98244010D02*
X167947990Y-98244010D01*
X124206000Y-113450000D02*
X133516000Y-104140000D01*
X124206000Y-114681000D02*
X124206000Y-113450000D01*
X133516000Y-104140000D02*
X134874000Y-104140000D01*
X134874000Y-104140000D02*
X134874000Y-104140000D01*
X156845000Y-100711000D02*
X156845000Y-100203000D01*
X153670000Y-103886000D02*
X156845000Y-100711000D01*
X145647699Y-75008986D02*
X145647699Y-74443301D01*
X145647699Y-83238843D02*
X145647699Y-75008986D01*
X139144243Y-89742299D02*
X145647699Y-83238843D01*
X138012359Y-89742299D02*
X139144243Y-89742299D01*
X137367299Y-90387359D02*
X138012359Y-89742299D01*
X128397000Y-104902000D02*
X137367299Y-90387359D01*
X118704000Y-113157000D02*
X128397000Y-104902000D01*
X117348000Y-113157000D02*
X118704000Y-113157000D01*
X145188702Y-72362298D02*
X145588701Y-71962299D01*
X144857198Y-72693802D02*
X145188702Y-72362298D01*
X144857198Y-81489344D02*
X144857198Y-72693802D01*
X139203241Y-87143301D02*
X144857198Y-81489344D01*
X138027699Y-87143301D02*
X139203241Y-87143301D01*
X118322999Y-106848001D02*
X138027699Y-87143301D01*
X118322999Y-107182001D02*
X118322999Y-106848001D01*
X117348000Y-108157000D02*
X118322999Y-107182001D01*
X145315702Y-69822298D02*
X145715701Y-69422299D01*
X144276188Y-70861812D02*
X145315702Y-69822298D01*
X144276188Y-79530354D02*
X144276188Y-70861812D01*
X139203241Y-84603301D02*
X144276188Y-79530354D01*
X135901699Y-84603301D02*
X139203241Y-84603301D01*
X117348000Y-103157000D02*
X135901699Y-84603301D01*
X145188702Y-67282298D02*
X145588701Y-66882299D01*
X143695178Y-68775822D02*
X145188702Y-67282298D01*
X143695178Y-77571364D02*
X143695178Y-68775822D01*
X139203241Y-82063301D02*
X143695178Y-77571364D01*
X133441699Y-82063301D02*
X139203241Y-82063301D01*
X117348000Y-98157000D02*
X133441699Y-82063301D01*
X143114168Y-75612374D02*
X143114168Y-66308832D01*
X130981699Y-79523301D02*
X139203241Y-79523301D01*
X139203241Y-79523301D02*
X143114168Y-75612374D01*
X117348000Y-93157000D02*
X130981699Y-79523301D01*
X143622168Y-66308832D02*
X145588701Y-64342299D01*
X143114168Y-66308832D02*
X143622168Y-66308832D01*
X145163302Y-62143300D02*
X145563301Y-61743301D01*
X142533158Y-64773444D02*
X145163302Y-62143300D01*
X142533158Y-73653384D02*
X142533158Y-64773444D01*
X139203241Y-76983301D02*
X142533158Y-73653384D01*
X128521699Y-76983301D02*
X139203241Y-76983301D01*
X117348000Y-88157000D02*
X128521699Y-76983301D01*
X177303799Y-91832799D02*
X176453800Y-90982800D01*
X177694301Y-92223301D02*
X177303799Y-91832799D01*
X177694301Y-94118241D02*
X177694301Y-92223301D01*
X177546000Y-94266542D02*
X177694301Y-94118241D01*
X177546000Y-114681000D02*
X177546000Y-94266542D01*
X165735000Y-94615000D02*
X165735000Y-100965000D01*
X165735000Y-100965000D02*
X165354000Y-101346000D01*
X165354000Y-101346000D02*
X165354000Y-101346000D01*
X161163000Y-105537000D02*
X161163000Y-105537000D01*
X157353000Y-108712000D02*
X161163000Y-105537000D01*
X164573001Y-93744999D02*
X164573001Y-99930001D01*
X164973000Y-93345000D02*
X164573001Y-93744999D01*
X164573001Y-99930001D02*
X164573001Y-99930001D01*
X159893000Y-104521000D02*
X159893000Y-104521000D01*
X159893000Y-105156000D02*
X159893000Y-104521000D01*
X156337000Y-107823000D02*
X159893000Y-105156000D01*
X163957000Y-91948000D02*
X163957000Y-98806000D01*
X163957000Y-98806000D02*
X163830000Y-98933000D01*
X163830000Y-98933000D02*
X163322000Y-98933000D01*
X163322000Y-98933000D02*
X163322000Y-98933000D01*
X159004000Y-103378000D02*
X159004000Y-103378000D01*
X155702000Y-106680000D02*
X159004000Y-103378000D01*
X175006000Y-77190600D02*
X176453800Y-75742800D01*
X175006000Y-114681000D02*
X175006000Y-77190600D01*
X175603801Y-74052799D02*
X176453800Y-73202800D01*
X174424990Y-75231610D02*
X175603801Y-74052799D01*
X174424990Y-112722010D02*
X174424990Y-75231610D01*
X172466000Y-114681000D02*
X174424990Y-112722010D01*
X170630058Y-114681000D02*
X173043058Y-112268000D01*
X169926000Y-114681000D02*
X170630058Y-114681000D01*
X173043058Y-74073542D02*
X176453800Y-70662800D01*
X173043058Y-112268000D02*
X173043058Y-74073542D01*
X168626501Y-113440499D02*
X168235999Y-113831001D01*
X168235999Y-113831001D02*
X167386000Y-114681000D01*
X172462048Y-72114552D02*
X172462048Y-111128952D01*
X170150501Y-113440499D02*
X168626501Y-113440499D01*
X172462048Y-111128952D02*
X170150501Y-113440499D01*
X176453800Y-68122800D02*
X172462048Y-72114552D01*
X171881038Y-70155562D02*
X171881038Y-97866962D01*
X176453800Y-65582800D02*
X171881038Y-70155562D01*
X171881038Y-97866962D02*
X171831000Y-97917000D01*
X171831000Y-97917000D02*
X171831000Y-108077000D01*
X171450000Y-108077000D02*
X164846000Y-114681000D01*
X171831000Y-108077000D02*
X171450000Y-108077000D01*
X176453800Y-63042800D02*
X171069000Y-68427600D01*
X171069000Y-68427600D02*
X171069000Y-106680000D01*
X170307000Y-106680000D02*
X162306000Y-114681000D01*
X171069000Y-106680000D02*
X170307000Y-106680000D01*
X170487990Y-103959010D02*
X159766000Y-114681000D01*
X170487990Y-66468610D02*
X170487990Y-103959010D01*
X176453800Y-60502800D02*
X170487990Y-66468610D01*
X169906980Y-64509620D02*
X169906980Y-102000020D01*
X169906980Y-102000020D02*
X157226000Y-114681000D01*
X176453800Y-57962800D02*
X169906980Y-64509620D01*
X168275000Y-101092000D02*
X154686000Y-114681000D01*
X169164000Y-100203000D02*
X168275000Y-101092000D01*
X169037000Y-63627000D02*
X169164000Y-100203000D01*
X176453800Y-55422800D02*
X169037000Y-63627000D01*
X178786501Y-115980499D02*
X178395999Y-116371001D01*
X177684800Y-52882800D02*
X178786501Y-53984501D01*
X178395999Y-116371001D02*
X177546000Y-117221000D01*
X178786501Y-53984501D02*
X178786501Y-115980499D01*
X176453800Y-52882800D02*
X177684800Y-52882800D01*
X138493600Y-63157000D02*
X138607800Y-63042800D01*
X137405719Y-65582800D02*
X138607800Y-65582800D01*
X125479386Y-65582800D02*
X137405719Y-65582800D01*
X122905186Y-68157000D02*
X125479386Y-65582800D01*
X117348000Y-68157000D02*
X122905186Y-68157000D01*
X123761058Y-68122800D02*
X137405719Y-68122800D01*
X137405719Y-68122800D02*
X138607800Y-68122800D01*
X118726858Y-73157000D02*
X123761058Y-68122800D01*
X117348000Y-73157000D02*
X118726858Y-73157000D01*
X137405719Y-70662800D02*
X138607800Y-70662800D01*
X129020528Y-70662800D02*
X137405719Y-70662800D01*
X122501327Y-77182001D02*
X129020528Y-70662800D01*
X118322999Y-77182001D02*
X122501327Y-77182001D01*
X117348000Y-78157000D02*
X118322999Y-77182001D01*
X127302200Y-73202800D02*
X138607800Y-73202800D01*
X117348000Y-83157000D02*
X127302200Y-73202800D01*
X158877000Y-59817000D02*
X158877000Y-74295000D01*
X159973299Y-75391299D02*
X159973299Y-101934299D01*
X158877000Y-74295000D02*
X159973299Y-75391299D01*
X159973299Y-101934299D02*
X162941000Y-104902000D01*
X162941000Y-104902000D02*
X162941000Y-104902000D01*
X152146000Y-92659200D02*
X153822400Y-90982800D01*
X152146000Y-114681000D02*
X152146000Y-92659200D01*
X136906000Y-117221000D02*
X135636000Y-115951000D01*
X135636000Y-115951000D02*
X135636000Y-115951000D01*
X137160000Y-113284000D02*
X147193000Y-103251000D01*
X147193000Y-103251000D02*
X147193000Y-103251000D01*
X134493000Y-113284000D02*
X144780000Y-102997000D01*
X144780000Y-102997000D02*
X144780000Y-102997000D01*
X151892000Y-77673200D02*
X151892000Y-92091528D01*
X151892000Y-92091528D02*
X151511000Y-92472528D01*
X153822400Y-75742800D02*
X151892000Y-77673200D01*
X151511000Y-112776000D02*
X149606000Y-114681000D01*
X151511000Y-92472528D02*
X151511000Y-112776000D01*
X152972401Y-74756857D02*
X150876000Y-76853258D01*
X152972401Y-74052799D02*
X152972401Y-74756857D01*
X153822400Y-73202800D02*
X152972401Y-74052799D01*
X150876000Y-110871000D02*
X147066000Y-114681000D01*
X150876000Y-76853258D02*
X150876000Y-110871000D01*
X151130000Y-75777586D02*
X150114000Y-76793586D01*
X151130000Y-73355200D02*
X151130000Y-75777586D01*
X153822400Y-70662800D02*
X151130000Y-73355200D01*
X145375999Y-113831001D02*
X144526000Y-114681000D01*
X150114000Y-110236000D02*
X146909501Y-113440499D01*
X145766501Y-113440499D02*
X145375999Y-113831001D01*
X146909501Y-113440499D02*
X145766501Y-113440499D01*
X150114000Y-76793586D02*
X150114000Y-110236000D01*
X149532990Y-73116268D02*
X149532990Y-107134010D01*
X149532990Y-107134010D02*
X141986000Y-114681000D01*
X153822400Y-68826858D02*
X149532990Y-73116268D01*
X153822400Y-68122800D02*
X153822400Y-68826858D01*
X152581899Y-69245687D02*
X148951980Y-72875606D01*
X152581899Y-66823301D02*
X152581899Y-69245687D01*
X153822400Y-65582800D02*
X152581899Y-66823301D01*
X148951980Y-105175020D02*
X139573000Y-114554000D01*
X148951980Y-72875606D02*
X148951980Y-105175020D01*
X139573000Y-114554000D02*
X139446000Y-114681000D01*
X148370970Y-68494230D02*
X148370970Y-104740030D01*
X153822400Y-63042800D02*
X148370970Y-68494230D01*
X146846970Y-104740030D02*
X136906000Y-114681000D01*
X148370970Y-104740030D02*
X146846970Y-104740030D01*
X147789960Y-66535240D02*
X147789960Y-102362000D01*
X146685000Y-102362000D02*
X134366000Y-114681000D01*
X147789960Y-102362000D02*
X146685000Y-102362000D01*
X153822400Y-60502800D02*
X147789960Y-66535240D01*
X148844000Y-64659528D02*
X147193000Y-66310528D01*
X148844000Y-62941200D02*
X148844000Y-64659528D01*
X153822400Y-57962800D02*
X148844000Y-62941200D01*
X147193000Y-99441000D02*
X147066000Y-99568000D01*
X147193000Y-66310528D02*
X147193000Y-99441000D01*
X146939000Y-99568000D02*
X131826000Y-114681000D01*
X147066000Y-99568000D02*
X146939000Y-99568000D01*
X146611990Y-97355010D02*
X129286000Y-114681000D01*
X146611990Y-62633210D02*
X146611990Y-97355010D01*
X153822400Y-55422800D02*
X146611990Y-62633210D01*
X161750243Y-56663301D02*
X166878000Y-61791058D01*
X158833901Y-56663301D02*
X161750243Y-56663301D01*
X155053400Y-52882800D02*
X158833901Y-56663301D01*
X153822400Y-52882800D02*
X155053400Y-52882800D01*
X166878000Y-61791058D02*
X166878000Y-100330000D01*
X166878000Y-100330000D02*
X166878000Y-101092000D01*
X166878000Y-101092000D02*
X163830000Y-104140000D01*
X163830000Y-104140000D02*
X163830000Y-104140000D01*
D19*
G36*
X188443001Y-53345066D02*
G01*
X188344284Y-53160377D01*
X188202449Y-52987551D01*
X188029623Y-52845716D01*
X187832447Y-52740324D01*
X187618499Y-52675423D01*
X187396000Y-52653509D01*
X187173502Y-52675423D01*
X186959554Y-52740324D01*
X186762378Y-52845716D01*
X186589552Y-52987551D01*
X186447717Y-53160377D01*
X186342324Y-53357553D01*
X186277423Y-53571501D01*
X186261000Y-53738248D01*
X186261000Y-54399751D01*
X186277423Y-54566498D01*
X186342324Y-54780446D01*
X186447716Y-54977623D01*
X186589551Y-55150449D01*
X186762377Y-55292284D01*
X186959553Y-55397676D01*
X187173501Y-55462577D01*
X187396000Y-55484491D01*
X187618498Y-55462577D01*
X187832446Y-55397676D01*
X188029623Y-55292284D01*
X188202449Y-55150449D01*
X188344284Y-54977623D01*
X188443001Y-54792935D01*
X188443000Y-117704000D01*
X179356419Y-117704000D01*
X179324000Y-117700807D01*
X179291581Y-117704000D01*
X179194617Y-117713550D01*
X179070207Y-117751290D01*
X178955550Y-117812575D01*
X178880853Y-117873878D01*
X178924599Y-117792034D01*
X179009513Y-117512111D01*
X179038185Y-117221000D01*
X179009513Y-116929889D01*
X179008356Y-116926077D01*
X179008390Y-116926043D01*
X179008395Y-116926037D01*
X179341535Y-116592897D01*
X179373042Y-116567040D01*
X179476200Y-116441341D01*
X179552854Y-116297933D01*
X179600057Y-116142325D01*
X179612001Y-116021052D01*
X179612001Y-116021050D01*
X179615995Y-115980500D01*
X179612001Y-115939949D01*
X179612001Y-110523872D01*
X182042000Y-110523872D01*
X182042000Y-110964128D01*
X182127890Y-111395925D01*
X182296369Y-111802669D01*
X182540962Y-112168729D01*
X182852271Y-112480038D01*
X183218331Y-112724631D01*
X183625075Y-112893110D01*
X184056872Y-112979000D01*
X184497128Y-112979000D01*
X184928925Y-112893110D01*
X185335669Y-112724631D01*
X185701729Y-112480038D01*
X186013038Y-112168729D01*
X186257631Y-111802669D01*
X186426110Y-111395925D01*
X186512000Y-110964128D01*
X186512000Y-110523872D01*
X186426110Y-110092075D01*
X186257631Y-109685331D01*
X186013038Y-109319271D01*
X185701729Y-109007962D01*
X185335669Y-108763369D01*
X184928925Y-108594890D01*
X184497128Y-108509000D01*
X184056872Y-108509000D01*
X183625075Y-108594890D01*
X183218331Y-108763369D01*
X182852271Y-109007962D01*
X182540962Y-109319271D01*
X182296369Y-109685331D01*
X182127890Y-110092075D01*
X182042000Y-110523872D01*
X179612001Y-110523872D01*
X179612001Y-70543434D01*
X180403501Y-71334935D01*
X180403500Y-100845497D01*
X180311795Y-100982744D01*
X180233774Y-101171102D01*
X180194000Y-101371061D01*
X180194000Y-101574939D01*
X180233774Y-101774898D01*
X180311795Y-101963256D01*
X180425063Y-102132774D01*
X180569226Y-102276937D01*
X180673011Y-102346284D01*
X180565795Y-102506744D01*
X180487774Y-102695102D01*
X180448000Y-102895061D01*
X180448000Y-103098939D01*
X180487774Y-103298898D01*
X180565795Y-103487256D01*
X180679063Y-103656774D01*
X180823226Y-103800937D01*
X180927011Y-103870284D01*
X180819795Y-104030744D01*
X180741774Y-104219102D01*
X180702000Y-104419061D01*
X180702000Y-104622939D01*
X180741774Y-104822898D01*
X180819795Y-105011256D01*
X180933063Y-105180774D01*
X181077226Y-105324937D01*
X181223116Y-105422417D01*
X181181102Y-105430774D01*
X180992744Y-105508795D01*
X180823226Y-105622063D01*
X180679063Y-105766226D01*
X180565795Y-105935744D01*
X180487774Y-106124102D01*
X180448000Y-106324061D01*
X180448000Y-106527939D01*
X180487774Y-106727898D01*
X180565795Y-106916256D01*
X180679063Y-107085774D01*
X180823226Y-107229937D01*
X180992744Y-107343205D01*
X181181102Y-107421226D01*
X181381061Y-107461000D01*
X181584939Y-107461000D01*
X181784898Y-107421226D01*
X181973256Y-107343205D01*
X182142774Y-107229937D01*
X182286937Y-107085774D01*
X182400205Y-106916256D01*
X182478226Y-106727898D01*
X182510429Y-106566004D01*
X186568542Y-102507891D01*
X186600042Y-102482040D01*
X186680002Y-102384608D01*
X186703200Y-102356342D01*
X186779854Y-102212933D01*
X186791211Y-102175494D01*
X186827057Y-102057325D01*
X186839001Y-101936052D01*
X186839001Y-101936050D01*
X186842995Y-101895499D01*
X186839001Y-101854949D01*
X186839001Y-58683051D01*
X186842995Y-58642500D01*
X186839001Y-58601948D01*
X186827057Y-58480675D01*
X186779854Y-58325067D01*
X186720037Y-58213158D01*
X186703200Y-58181658D01*
X186651744Y-58118959D01*
X186600042Y-58055960D01*
X186568540Y-58030107D01*
X186417433Y-57879000D01*
X186600521Y-57879000D01*
X186763598Y-57862938D01*
X186972834Y-57799468D01*
X187165666Y-57696396D01*
X187334686Y-57557686D01*
X187473396Y-57388666D01*
X187576468Y-57195834D01*
X187639938Y-56986598D01*
X187661370Y-56769000D01*
X187639938Y-56551402D01*
X187576468Y-56342166D01*
X187473396Y-56149334D01*
X187334686Y-55980314D01*
X187165666Y-55841604D01*
X186972834Y-55738532D01*
X186763598Y-55675062D01*
X186600521Y-55659000D01*
X186191479Y-55659000D01*
X186028402Y-55675062D01*
X185904495Y-55712648D01*
X185847185Y-55642815D01*
X185750494Y-55563463D01*
X185640180Y-55504498D01*
X185520482Y-55468188D01*
X185396000Y-55455928D01*
X184996000Y-55455928D01*
X184871518Y-55468188D01*
X184871000Y-55468345D01*
X184870482Y-55468188D01*
X184746000Y-55455928D01*
X184346000Y-55455928D01*
X184221518Y-55468188D01*
X184221000Y-55468345D01*
X184220482Y-55468188D01*
X184096000Y-55455928D01*
X183696000Y-55455928D01*
X183571518Y-55468188D01*
X183571000Y-55468345D01*
X183570482Y-55468188D01*
X183446000Y-55455928D01*
X183046000Y-55455928D01*
X182921518Y-55468188D01*
X182921000Y-55468345D01*
X182920482Y-55468188D01*
X182796000Y-55455928D01*
X182396000Y-55455928D01*
X182271518Y-55468188D01*
X182151820Y-55504498D01*
X182041506Y-55563463D01*
X181944815Y-55642815D01*
X181887505Y-55712648D01*
X181763598Y-55675062D01*
X181600521Y-55659000D01*
X181191479Y-55659000D01*
X181028402Y-55675062D01*
X180819166Y-55738532D01*
X180626334Y-55841604D01*
X180457314Y-55980314D01*
X180318604Y-56149334D01*
X180215532Y-56342166D01*
X180152062Y-56551402D01*
X180130630Y-56769000D01*
X180152062Y-56986598D01*
X180215532Y-57195834D01*
X180318604Y-57388666D01*
X180457314Y-57557686D01*
X180626334Y-57696396D01*
X180819166Y-57799468D01*
X180860546Y-57812020D01*
X179612001Y-59060567D01*
X179612001Y-55168873D01*
X179762377Y-55292284D01*
X179959553Y-55397676D01*
X180173501Y-55462577D01*
X180396000Y-55484491D01*
X180618498Y-55462577D01*
X180832446Y-55397676D01*
X181029623Y-55292284D01*
X181202449Y-55150449D01*
X181344284Y-54977623D01*
X181449676Y-54780447D01*
X181514577Y-54566499D01*
X181531000Y-54399752D01*
X181531000Y-53738249D01*
X181514577Y-53571502D01*
X181449676Y-53357554D01*
X181344284Y-53160377D01*
X181202449Y-52987551D01*
X181029623Y-52845716D01*
X180832447Y-52740324D01*
X180618499Y-52675423D01*
X180396000Y-52653509D01*
X180173502Y-52675423D01*
X179959554Y-52740324D01*
X179762378Y-52845716D01*
X179589552Y-52987551D01*
X179447717Y-53160377D01*
X179342324Y-53357553D01*
X179338754Y-53369321D01*
X178297198Y-52327766D01*
X178271341Y-52296259D01*
X178145642Y-52193101D01*
X178002234Y-52116447D01*
X177941872Y-52098136D01*
X177941872Y-52032800D01*
X177929612Y-51908318D01*
X177893302Y-51788620D01*
X177834337Y-51678306D01*
X177754985Y-51581615D01*
X177658294Y-51502263D01*
X177547980Y-51443298D01*
X177428282Y-51406988D01*
X177303800Y-51394728D01*
X175603800Y-51394728D01*
X175479318Y-51406988D01*
X175359620Y-51443298D01*
X175249306Y-51502263D01*
X175152615Y-51581615D01*
X175073263Y-51678306D01*
X175014298Y-51788620D01*
X174977988Y-51908318D01*
X174965728Y-52032800D01*
X174965728Y-53732800D01*
X174977988Y-53857282D01*
X175014298Y-53976980D01*
X175073263Y-54087294D01*
X175152615Y-54183985D01*
X175249306Y-54263337D01*
X175359620Y-54322302D01*
X175428487Y-54343193D01*
X175398666Y-54367666D01*
X175213094Y-54593786D01*
X175075201Y-54851766D01*
X174990287Y-55131689D01*
X174961615Y-55422800D01*
X174990287Y-55713911D01*
X175012276Y-55786399D01*
X168773490Y-62687522D01*
X168773490Y-59657540D01*
X168777484Y-59616990D01*
X168773490Y-59576437D01*
X168761546Y-59455164D01*
X168714343Y-59299556D01*
X168693488Y-59260540D01*
X168637689Y-59156147D01*
X168560382Y-59061948D01*
X168560379Y-59061945D01*
X168534531Y-59030449D01*
X168503036Y-59004602D01*
X162676156Y-53177724D01*
X162677313Y-53173911D01*
X162705985Y-52882800D01*
X162677313Y-52591689D01*
X162592399Y-52311766D01*
X162454506Y-52053786D01*
X162268934Y-51827666D01*
X162042814Y-51642094D01*
X161784834Y-51504201D01*
X161504911Y-51419287D01*
X161286750Y-51397800D01*
X161140850Y-51397800D01*
X160922689Y-51419287D01*
X160642766Y-51504201D01*
X160384786Y-51642094D01*
X160158666Y-51827666D01*
X159973094Y-52053786D01*
X159835201Y-52311766D01*
X159750287Y-52591689D01*
X159721615Y-52882800D01*
X159750287Y-53173911D01*
X159835201Y-53453834D01*
X159973094Y-53711814D01*
X160158666Y-53937934D01*
X160384786Y-54123506D01*
X160439591Y-54152800D01*
X160384786Y-54182094D01*
X160158666Y-54367666D01*
X159973094Y-54593786D01*
X159835201Y-54851766D01*
X159750287Y-55131689D01*
X159721615Y-55422800D01*
X159750287Y-55713911D01*
X159787869Y-55837801D01*
X159175835Y-55837801D01*
X155665798Y-52327766D01*
X155639941Y-52296259D01*
X155514242Y-52193101D01*
X155370834Y-52116447D01*
X155310472Y-52098136D01*
X155310472Y-52032800D01*
X155298212Y-51908318D01*
X155261902Y-51788620D01*
X155202937Y-51678306D01*
X155123585Y-51581615D01*
X155026894Y-51502263D01*
X154916580Y-51443298D01*
X154796882Y-51406988D01*
X154672400Y-51394728D01*
X152972400Y-51394728D01*
X152847918Y-51406988D01*
X152728220Y-51443298D01*
X152617906Y-51502263D01*
X152521215Y-51581615D01*
X152441863Y-51678306D01*
X152382898Y-51788620D01*
X152346588Y-51908318D01*
X152334328Y-52032800D01*
X152334328Y-53732800D01*
X152346588Y-53857282D01*
X152382898Y-53976980D01*
X152441863Y-54087294D01*
X152521215Y-54183985D01*
X152617906Y-54263337D01*
X152728220Y-54322302D01*
X152797087Y-54343193D01*
X152767266Y-54367666D01*
X152581694Y-54593786D01*
X152443801Y-54851766D01*
X152358887Y-55131689D01*
X152330215Y-55422800D01*
X152358887Y-55713911D01*
X152360043Y-55717723D01*
X146571441Y-61506327D01*
X146558527Y-61441403D01*
X146480506Y-61253045D01*
X146367238Y-61083527D01*
X146223075Y-60939364D01*
X146053557Y-60826096D01*
X145865199Y-60748075D01*
X145665240Y-60708301D01*
X145461362Y-60708301D01*
X145261403Y-60748075D01*
X145073045Y-60826096D01*
X144903527Y-60939364D01*
X144759364Y-61083527D01*
X144646096Y-61253045D01*
X144568075Y-61441403D01*
X144535873Y-61603296D01*
X141978119Y-64161051D01*
X141946618Y-64186903D01*
X141920767Y-64218403D01*
X141843459Y-64312602D01*
X141766805Y-64456011D01*
X141719603Y-64611618D01*
X141703664Y-64773444D01*
X141707659Y-64814004D01*
X141707658Y-73311450D01*
X139937962Y-75081147D01*
X139848506Y-74913786D01*
X139662934Y-74687666D01*
X139436814Y-74502094D01*
X139382009Y-74472800D01*
X139436814Y-74443506D01*
X139662934Y-74257934D01*
X139848506Y-74031814D01*
X139986399Y-73773834D01*
X140071313Y-73493911D01*
X140099985Y-73202800D01*
X140071313Y-72911689D01*
X139986399Y-72631766D01*
X139848506Y-72373786D01*
X139662934Y-72147666D01*
X139436814Y-71962094D01*
X139382009Y-71932800D01*
X139436814Y-71903506D01*
X139662934Y-71717934D01*
X139848506Y-71491814D01*
X139986399Y-71233834D01*
X140071313Y-70953911D01*
X140099985Y-70662800D01*
X140071313Y-70371689D01*
X139986399Y-70091766D01*
X139848506Y-69833786D01*
X139662934Y-69607666D01*
X139436814Y-69422094D01*
X139382009Y-69392800D01*
X139436814Y-69363506D01*
X139662934Y-69177934D01*
X139848506Y-68951814D01*
X139986399Y-68693834D01*
X140071313Y-68413911D01*
X140099985Y-68122800D01*
X140071313Y-67831689D01*
X139986399Y-67551766D01*
X139848506Y-67293786D01*
X139662934Y-67067666D01*
X139436814Y-66882094D01*
X139382009Y-66852800D01*
X139436814Y-66823506D01*
X139662934Y-66637934D01*
X139848506Y-66411814D01*
X139986399Y-66153834D01*
X140071313Y-65873911D01*
X140099985Y-65582800D01*
X140071313Y-65291689D01*
X139986399Y-65011766D01*
X139848506Y-64753786D01*
X139662934Y-64527666D01*
X139436814Y-64342094D01*
X139382009Y-64312800D01*
X139436814Y-64283506D01*
X139662934Y-64097934D01*
X139848506Y-63871814D01*
X139986399Y-63613834D01*
X140071313Y-63333911D01*
X140099985Y-63042800D01*
X140071313Y-62751689D01*
X139986399Y-62471766D01*
X139848506Y-62213786D01*
X139662934Y-61987666D01*
X139436814Y-61802094D01*
X139382009Y-61772800D01*
X139436814Y-61743506D01*
X139662934Y-61557934D01*
X139848506Y-61331814D01*
X139986399Y-61073834D01*
X140071313Y-60793911D01*
X140099985Y-60502800D01*
X140071313Y-60211689D01*
X139986399Y-59931766D01*
X139848506Y-59673786D01*
X139662934Y-59447666D01*
X139436814Y-59262094D01*
X139382009Y-59232800D01*
X139436814Y-59203506D01*
X139662934Y-59017934D01*
X139848506Y-58791814D01*
X139986399Y-58533834D01*
X140071313Y-58253911D01*
X140099985Y-57962800D01*
X140071313Y-57671689D01*
X139986399Y-57391766D01*
X139848506Y-57133786D01*
X139662934Y-56907666D01*
X139436814Y-56722094D01*
X139382009Y-56692800D01*
X139436814Y-56663506D01*
X139662934Y-56477934D01*
X139848506Y-56251814D01*
X139986399Y-55993834D01*
X140071313Y-55713911D01*
X140099985Y-55422800D01*
X140071313Y-55131689D01*
X139986399Y-54851766D01*
X139848506Y-54593786D01*
X139662934Y-54367666D01*
X139436814Y-54182094D01*
X139382009Y-54152800D01*
X139436814Y-54123506D01*
X139662934Y-53937934D01*
X139848506Y-53711814D01*
X139986399Y-53453834D01*
X140071313Y-53173911D01*
X140099985Y-52882800D01*
X140071313Y-52591689D01*
X139986399Y-52311766D01*
X139848506Y-52053786D01*
X139662934Y-51827666D01*
X139436814Y-51642094D01*
X139178834Y-51504201D01*
X138898911Y-51419287D01*
X138680750Y-51397800D01*
X138534850Y-51397800D01*
X138316689Y-51419287D01*
X138036766Y-51504201D01*
X137778786Y-51642094D01*
X137552666Y-51827666D01*
X137367094Y-52053786D01*
X137229201Y-52311766D01*
X137144287Y-52591689D01*
X137115615Y-52882800D01*
X137144287Y-53173911D01*
X137229201Y-53453834D01*
X137367094Y-53711814D01*
X137552666Y-53937934D01*
X137778786Y-54123506D01*
X137833591Y-54152800D01*
X137778786Y-54182094D01*
X137552666Y-54367666D01*
X137367094Y-54593786D01*
X137229201Y-54851766D01*
X137144287Y-55131689D01*
X137115615Y-55422800D01*
X137144287Y-55713911D01*
X137229201Y-55993834D01*
X137367094Y-56251814D01*
X137552666Y-56477934D01*
X137778786Y-56663506D01*
X137833591Y-56692800D01*
X137778786Y-56722094D01*
X137552666Y-56907666D01*
X137367094Y-57133786D01*
X137229201Y-57391766D01*
X137144287Y-57671689D01*
X137115615Y-57962800D01*
X137144287Y-58253911D01*
X137229201Y-58533834D01*
X137367094Y-58791814D01*
X137552666Y-59017934D01*
X137778786Y-59203506D01*
X137833591Y-59232800D01*
X137778786Y-59262094D01*
X137552666Y-59447666D01*
X137367094Y-59673786D01*
X137229201Y-59931766D01*
X137144287Y-60211689D01*
X137115615Y-60502800D01*
X137144287Y-60793911D01*
X137229201Y-61073834D01*
X137367094Y-61331814D01*
X137552666Y-61557934D01*
X137778786Y-61743506D01*
X137833591Y-61772800D01*
X137778786Y-61802094D01*
X137552666Y-61987666D01*
X137367094Y-62213786D01*
X137229201Y-62471766D01*
X137144287Y-62751689D01*
X137115615Y-63042800D01*
X137144287Y-63333911D01*
X137229201Y-63613834D01*
X137367094Y-63871814D01*
X137552666Y-64097934D01*
X137778786Y-64283506D01*
X137833591Y-64312800D01*
X137778786Y-64342094D01*
X137552666Y-64527666D01*
X137367094Y-64753786D01*
X137365216Y-64757300D01*
X125519936Y-64757300D01*
X125479386Y-64753306D01*
X125438835Y-64757300D01*
X125438833Y-64757300D01*
X125317560Y-64769244D01*
X125161952Y-64816447D01*
X125018543Y-64893101D01*
X124924344Y-64970408D01*
X124924343Y-64970409D01*
X124892845Y-64996259D01*
X124866997Y-65027755D01*
X122563254Y-67331500D01*
X118732749Y-67331500D01*
X118598569Y-67130685D01*
X118374315Y-66906431D01*
X118110621Y-66730237D01*
X117817620Y-66608871D01*
X117506571Y-66547000D01*
X117189429Y-66547000D01*
X116878380Y-66608871D01*
X116585379Y-66730237D01*
X116321685Y-66906431D01*
X116097431Y-67130685D01*
X115921237Y-67394379D01*
X115799871Y-67687380D01*
X115738000Y-67998429D01*
X115738000Y-68315571D01*
X115799871Y-68626620D01*
X115921237Y-68919621D01*
X116097431Y-69183315D01*
X116321685Y-69407569D01*
X116585379Y-69583763D01*
X116878380Y-69705129D01*
X117189429Y-69767000D01*
X117506571Y-69767000D01*
X117817620Y-69705129D01*
X118110621Y-69583763D01*
X118374315Y-69407569D01*
X118598569Y-69183315D01*
X118732749Y-68982500D01*
X121733925Y-68982500D01*
X118592155Y-72124271D01*
X118374315Y-71906431D01*
X118110621Y-71730237D01*
X117817620Y-71608871D01*
X117506571Y-71547000D01*
X117189429Y-71547000D01*
X116878380Y-71608871D01*
X116585379Y-71730237D01*
X116321685Y-71906431D01*
X116097431Y-72130685D01*
X115921237Y-72394379D01*
X115799871Y-72687380D01*
X115738000Y-72998429D01*
X115738000Y-73315571D01*
X115799871Y-73626620D01*
X115921237Y-73919621D01*
X116097431Y-74183315D01*
X116321685Y-74407569D01*
X116585379Y-74583763D01*
X116878380Y-74705129D01*
X117189429Y-74767000D01*
X117506571Y-74767000D01*
X117817620Y-74705129D01*
X118110621Y-74583763D01*
X118374315Y-74407569D01*
X118598569Y-74183315D01*
X118730307Y-73986154D01*
X118767408Y-73982500D01*
X118767411Y-73982500D01*
X118888684Y-73970556D01*
X119044292Y-73923353D01*
X119187700Y-73846699D01*
X119313399Y-73743541D01*
X119339256Y-73712034D01*
X124102992Y-68948300D01*
X137365216Y-68948300D01*
X137367094Y-68951814D01*
X137552666Y-69177934D01*
X137778786Y-69363506D01*
X137833591Y-69392800D01*
X137778786Y-69422094D01*
X137552666Y-69607666D01*
X137367094Y-69833786D01*
X137365216Y-69837300D01*
X129061070Y-69837300D01*
X129020527Y-69833307D01*
X128979984Y-69837300D01*
X128979975Y-69837300D01*
X128858702Y-69849244D01*
X128703094Y-69896447D01*
X128643051Y-69928541D01*
X128559684Y-69973102D01*
X128512238Y-70012040D01*
X128433987Y-70076259D01*
X128408135Y-70107760D01*
X122159395Y-76356501D01*
X118363549Y-76356501D01*
X118322999Y-76352507D01*
X118282448Y-76356501D01*
X118282446Y-76356501D01*
X118161173Y-76368445D01*
X118005565Y-76415648D01*
X117862156Y-76492302D01*
X117767957Y-76569609D01*
X117767954Y-76569612D01*
X117739138Y-76593260D01*
X117506571Y-76547000D01*
X117189429Y-76547000D01*
X116878380Y-76608871D01*
X116585379Y-76730237D01*
X116321685Y-76906431D01*
X116097431Y-77130685D01*
X115921237Y-77394379D01*
X115799871Y-77687380D01*
X115738000Y-77998429D01*
X115738000Y-78315571D01*
X115799871Y-78626620D01*
X115921237Y-78919621D01*
X116097431Y-79183315D01*
X116321685Y-79407569D01*
X116585379Y-79583763D01*
X116878380Y-79705129D01*
X117189429Y-79767000D01*
X117506571Y-79767000D01*
X117817620Y-79705129D01*
X118110621Y-79583763D01*
X118374315Y-79407569D01*
X118598569Y-79183315D01*
X118774763Y-78919621D01*
X118896129Y-78626620D01*
X118958000Y-78315571D01*
X118958000Y-78007501D01*
X121330066Y-78007501D01*
X117743450Y-81594118D01*
X117506571Y-81547000D01*
X117189429Y-81547000D01*
X116878380Y-81608871D01*
X116585379Y-81730237D01*
X116321685Y-81906431D01*
X116097431Y-82130685D01*
X115921237Y-82394379D01*
X115799871Y-82687380D01*
X115738000Y-82998429D01*
X115738000Y-83315571D01*
X115799871Y-83626620D01*
X115921237Y-83919621D01*
X116097431Y-84183315D01*
X116321685Y-84407569D01*
X116585379Y-84583763D01*
X116878380Y-84705129D01*
X117189429Y-84767000D01*
X117506571Y-84767000D01*
X117817620Y-84705129D01*
X118110621Y-84583763D01*
X118374315Y-84407569D01*
X118598569Y-84183315D01*
X118774763Y-83919621D01*
X118896129Y-83626620D01*
X118958000Y-83315571D01*
X118958000Y-82998429D01*
X118910882Y-82761550D01*
X127644134Y-74028300D01*
X137365216Y-74028300D01*
X137367094Y-74031814D01*
X137552666Y-74257934D01*
X137778786Y-74443506D01*
X137833591Y-74472800D01*
X137778786Y-74502094D01*
X137552666Y-74687666D01*
X137367094Y-74913786D01*
X137229201Y-75171766D01*
X137144287Y-75451689D01*
X137115615Y-75742800D01*
X137144287Y-76033911D01*
X137181869Y-76157801D01*
X128562249Y-76157801D01*
X128521699Y-76153807D01*
X128481148Y-76157801D01*
X128481146Y-76157801D01*
X128359873Y-76169745D01*
X128244134Y-76204854D01*
X128204265Y-76216948D01*
X128060856Y-76293602D01*
X127966657Y-76370909D01*
X127966654Y-76370912D01*
X127935158Y-76396760D01*
X127909310Y-76428256D01*
X117743450Y-86594118D01*
X117506571Y-86547000D01*
X117189429Y-86547000D01*
X116878380Y-86608871D01*
X116585379Y-86730237D01*
X116321685Y-86906431D01*
X116097431Y-87130685D01*
X115921237Y-87394379D01*
X115799871Y-87687380D01*
X115738000Y-87998429D01*
X115738000Y-88315571D01*
X115799871Y-88626620D01*
X115921237Y-88919621D01*
X116097431Y-89183315D01*
X116321685Y-89407569D01*
X116585379Y-89583763D01*
X116878380Y-89705129D01*
X117189429Y-89767000D01*
X117506571Y-89767000D01*
X117817620Y-89705129D01*
X118110621Y-89583763D01*
X118374315Y-89407569D01*
X118598569Y-89183315D01*
X118774763Y-88919621D01*
X118896129Y-88626620D01*
X118958000Y-88315571D01*
X118958000Y-87998429D01*
X118910882Y-87761550D01*
X128863633Y-77808801D01*
X137199766Y-77808801D01*
X137144287Y-77991689D01*
X137115615Y-78282800D01*
X137144287Y-78573911D01*
X137181869Y-78697801D01*
X131022249Y-78697801D01*
X130981698Y-78693807D01*
X130941148Y-78697801D01*
X130941146Y-78697801D01*
X130819873Y-78709745D01*
X130664265Y-78756948D01*
X130520856Y-78833602D01*
X130496204Y-78853834D01*
X130395158Y-78936760D01*
X130369307Y-78968260D01*
X117743450Y-91594118D01*
X117506571Y-91547000D01*
X117189429Y-91547000D01*
X116878380Y-91608871D01*
X116585379Y-91730237D01*
X116321685Y-91906431D01*
X116097431Y-92130685D01*
X115921237Y-92394379D01*
X115799871Y-92687380D01*
X115738000Y-92998429D01*
X115738000Y-93315571D01*
X115799871Y-93626620D01*
X115921237Y-93919621D01*
X116097431Y-94183315D01*
X116321685Y-94407569D01*
X116585379Y-94583763D01*
X116878380Y-94705129D01*
X117189429Y-94767000D01*
X117506571Y-94767000D01*
X117817620Y-94705129D01*
X118110621Y-94583763D01*
X118374315Y-94407569D01*
X118598569Y-94183315D01*
X118774763Y-93919621D01*
X118896129Y-93626620D01*
X118958000Y-93315571D01*
X118958000Y-92998429D01*
X118910882Y-92761550D01*
X131323632Y-80348801D01*
X137199766Y-80348801D01*
X137144287Y-80531689D01*
X137115615Y-80822800D01*
X137144287Y-81113911D01*
X137181869Y-81237801D01*
X133482241Y-81237801D01*
X133441698Y-81233808D01*
X133401155Y-81237801D01*
X133401146Y-81237801D01*
X133279873Y-81249745D01*
X133124265Y-81296948D01*
X132980857Y-81373602D01*
X132855158Y-81476760D01*
X132829307Y-81508260D01*
X117743450Y-96594118D01*
X117506571Y-96547000D01*
X117189429Y-96547000D01*
X116878380Y-96608871D01*
X116585379Y-96730237D01*
X116321685Y-96906431D01*
X116097431Y-97130685D01*
X115921237Y-97394379D01*
X115799871Y-97687380D01*
X115738000Y-97998429D01*
X115738000Y-98315571D01*
X115799871Y-98626620D01*
X115921237Y-98919621D01*
X116097431Y-99183315D01*
X116321685Y-99407569D01*
X116585379Y-99583763D01*
X116878380Y-99705129D01*
X117189429Y-99767000D01*
X117506571Y-99767000D01*
X117817620Y-99705129D01*
X118110621Y-99583763D01*
X118374315Y-99407569D01*
X118598569Y-99183315D01*
X118774763Y-98919621D01*
X118896129Y-98626620D01*
X118958000Y-98315571D01*
X118958000Y-97998429D01*
X118910882Y-97761550D01*
X133783632Y-82888801D01*
X137199766Y-82888801D01*
X137144287Y-83071689D01*
X137115615Y-83362800D01*
X137144287Y-83653911D01*
X137181869Y-83777801D01*
X135942249Y-83777801D01*
X135901699Y-83773807D01*
X135861148Y-83777801D01*
X135861146Y-83777801D01*
X135739873Y-83789745D01*
X135622387Y-83825384D01*
X135584265Y-83836948D01*
X135440856Y-83913602D01*
X135346657Y-83990909D01*
X135346654Y-83990912D01*
X135315158Y-84016760D01*
X135289310Y-84048256D01*
X117743450Y-101594118D01*
X117506571Y-101547000D01*
X117189429Y-101547000D01*
X116878380Y-101608871D01*
X116585379Y-101730237D01*
X116321685Y-101906431D01*
X116097431Y-102130685D01*
X115921237Y-102394379D01*
X115799871Y-102687380D01*
X115738000Y-102998429D01*
X115738000Y-103315571D01*
X115799871Y-103626620D01*
X115921237Y-103919621D01*
X116097431Y-104183315D01*
X116321685Y-104407569D01*
X116585379Y-104583763D01*
X116878380Y-104705129D01*
X117189429Y-104767000D01*
X117506571Y-104767000D01*
X117817620Y-104705129D01*
X118110621Y-104583763D01*
X118374315Y-104407569D01*
X118598569Y-104183315D01*
X118774763Y-103919621D01*
X118896129Y-103626620D01*
X118958000Y-103315571D01*
X118958000Y-102998429D01*
X118910882Y-102761550D01*
X136243633Y-85428801D01*
X137201845Y-85428801D01*
X137166324Y-85545910D01*
X137287645Y-85775800D01*
X138480800Y-85775800D01*
X138480800Y-85755800D01*
X138734800Y-85755800D01*
X138734800Y-85775800D01*
X138754800Y-85775800D01*
X138754800Y-86029800D01*
X138734800Y-86029800D01*
X138734800Y-86049800D01*
X138480800Y-86049800D01*
X138480800Y-86029800D01*
X137287645Y-86029800D01*
X137166324Y-86259690D01*
X137210975Y-86406899D01*
X137335413Y-86668154D01*
X117767964Y-106235604D01*
X117736458Y-106261460D01*
X117633300Y-106387159D01*
X117556646Y-106530567D01*
X117549095Y-106555459D01*
X117506571Y-106547000D01*
X117189429Y-106547000D01*
X116878380Y-106608871D01*
X116585379Y-106730237D01*
X116321685Y-106906431D01*
X116097431Y-107130685D01*
X115921237Y-107394379D01*
X115799871Y-107687380D01*
X115738000Y-107998429D01*
X115738000Y-108315571D01*
X115799871Y-108626620D01*
X115921237Y-108919621D01*
X116097431Y-109183315D01*
X116321685Y-109407569D01*
X116585379Y-109583763D01*
X116878380Y-109705129D01*
X117189429Y-109767000D01*
X117506571Y-109767000D01*
X117817620Y-109705129D01*
X118110621Y-109583763D01*
X118374315Y-109407569D01*
X118598569Y-109183315D01*
X118774763Y-108919621D01*
X118896129Y-108626620D01*
X118958000Y-108315571D01*
X118958000Y-107998429D01*
X118911740Y-107765862D01*
X118935388Y-107737046D01*
X118935391Y-107737043D01*
X119012698Y-107642844D01*
X119089352Y-107499435D01*
X119091136Y-107493555D01*
X119136555Y-107343827D01*
X119148499Y-107222554D01*
X119148499Y-107222552D01*
X119152063Y-107186369D01*
X124608424Y-101730008D01*
X124384369Y-102065331D01*
X124215890Y-102472075D01*
X124130000Y-102903872D01*
X124130000Y-103344128D01*
X124215890Y-103775925D01*
X124384369Y-104182669D01*
X124628962Y-104548729D01*
X124940271Y-104860038D01*
X125306331Y-105104631D01*
X125713075Y-105273110D01*
X126144872Y-105359000D01*
X126585128Y-105359000D01*
X126587844Y-105358460D01*
X118896822Y-111908485D01*
X118853537Y-111827506D01*
X118774185Y-111730815D01*
X118677494Y-111651463D01*
X118567180Y-111592498D01*
X118447482Y-111556188D01*
X118323000Y-111543928D01*
X116373000Y-111543928D01*
X116248518Y-111556188D01*
X116128820Y-111592498D01*
X116018506Y-111651463D01*
X115921815Y-111730815D01*
X115842463Y-111827506D01*
X115783498Y-111937820D01*
X115747188Y-112057518D01*
X115734928Y-112182000D01*
X115734928Y-114132000D01*
X115747188Y-114256482D01*
X115783498Y-114376180D01*
X115842463Y-114486494D01*
X115921815Y-114583185D01*
X116018506Y-114662537D01*
X116128820Y-114721502D01*
X116248518Y-114757812D01*
X116373000Y-114770072D01*
X118323000Y-114770072D01*
X118447482Y-114757812D01*
X118567180Y-114721502D01*
X118677494Y-114662537D01*
X118774185Y-114583185D01*
X118853537Y-114486494D01*
X118912502Y-114376180D01*
X118948812Y-114256482D01*
X118961072Y-114132000D01*
X118961072Y-113945447D01*
X118989651Y-113932994D01*
X119021434Y-113923353D01*
X119064023Y-113900588D01*
X119108288Y-113881301D01*
X119135557Y-113862352D01*
X119164842Y-113846699D01*
X119202174Y-113816061D01*
X119208360Y-113811763D01*
X119233485Y-113790366D01*
X119290541Y-113743541D01*
X119295358Y-113737672D01*
X128875805Y-105578527D01*
X128882022Y-105574915D01*
X128937653Y-105525855D01*
X128963107Y-105504177D01*
X128968066Y-105499034D01*
X129003981Y-105467361D01*
X129024360Y-105440650D01*
X129047690Y-105416454D01*
X129073573Y-105376147D01*
X129077897Y-105370479D01*
X129095442Y-105342090D01*
X129135553Y-105279625D01*
X129138185Y-105272929D01*
X137418600Y-91874574D01*
X137552666Y-92037934D01*
X137582487Y-92062407D01*
X137513620Y-92083298D01*
X137403306Y-92142263D01*
X137306615Y-92221615D01*
X137227263Y-92318306D01*
X137168298Y-92428620D01*
X137131988Y-92548318D01*
X137119728Y-92672800D01*
X137119728Y-94372800D01*
X137131988Y-94497282D01*
X137168298Y-94616980D01*
X137227263Y-94727294D01*
X137306615Y-94823985D01*
X137403306Y-94903337D01*
X137513620Y-94962302D01*
X137633318Y-94998612D01*
X137757800Y-95010872D01*
X139457800Y-95010872D01*
X139582282Y-94998612D01*
X139701980Y-94962302D01*
X139812294Y-94903337D01*
X139908985Y-94823985D01*
X139988337Y-94727294D01*
X140047302Y-94616980D01*
X140083612Y-94497282D01*
X140095872Y-94372800D01*
X140095872Y-92672800D01*
X140083612Y-92548318D01*
X140047302Y-92428620D01*
X139988337Y-92318306D01*
X139908985Y-92221615D01*
X139812294Y-92142263D01*
X139701980Y-92083298D01*
X139633113Y-92062407D01*
X139662934Y-92037934D01*
X139848506Y-91811814D01*
X139986399Y-91553834D01*
X140071313Y-91273911D01*
X140099985Y-90982800D01*
X140071313Y-90691689D01*
X139986399Y-90411766D01*
X139866508Y-90187466D01*
X145786491Y-84267485D01*
X145786491Y-97013076D01*
X129580924Y-113218644D01*
X129577111Y-113217487D01*
X129358950Y-113196000D01*
X129213050Y-113196000D01*
X128994889Y-113217487D01*
X128714966Y-113302401D01*
X128456986Y-113440294D01*
X128230866Y-113625866D01*
X128045294Y-113851986D01*
X128010799Y-113916523D01*
X127941178Y-113799645D01*
X127746269Y-113583412D01*
X127512920Y-113409359D01*
X127250099Y-113284175D01*
X127102890Y-113239524D01*
X126873000Y-113360845D01*
X126873000Y-114554000D01*
X126893000Y-114554000D01*
X126893000Y-114808000D01*
X126873000Y-114808000D01*
X126873000Y-114828000D01*
X126619000Y-114828000D01*
X126619000Y-114808000D01*
X126599000Y-114808000D01*
X126599000Y-114554000D01*
X126619000Y-114554000D01*
X126619000Y-113360845D01*
X126389110Y-113239524D01*
X126241901Y-113284175D01*
X125979080Y-113409359D01*
X125745731Y-113583412D01*
X125669966Y-113667466D01*
X125645502Y-113586820D01*
X125586537Y-113476506D01*
X125507185Y-113379815D01*
X125472271Y-113351162D01*
X133857933Y-104965500D01*
X134246497Y-104965500D01*
X134383744Y-105057205D01*
X134572102Y-105135226D01*
X134772061Y-105175000D01*
X134975939Y-105175000D01*
X135175898Y-105135226D01*
X135364256Y-105057205D01*
X135533774Y-104943937D01*
X135677937Y-104799774D01*
X135791205Y-104630256D01*
X135869226Y-104441898D01*
X135909000Y-104241939D01*
X135909000Y-104038061D01*
X135869226Y-103838102D01*
X135791205Y-103649744D01*
X135677937Y-103480226D01*
X135533774Y-103336063D01*
X135364256Y-103222795D01*
X135175898Y-103144774D01*
X134975939Y-103105000D01*
X134772061Y-103105000D01*
X134572102Y-103144774D01*
X134383744Y-103222795D01*
X134246497Y-103314500D01*
X133556550Y-103314500D01*
X133515999Y-103310506D01*
X133475449Y-103314500D01*
X133475447Y-103314500D01*
X133354174Y-103326444D01*
X133198566Y-103373647D01*
X133105111Y-103423601D01*
X133055157Y-103450301D01*
X133018694Y-103480226D01*
X132929459Y-103553459D01*
X132903608Y-103584959D01*
X123650961Y-112837607D01*
X123619460Y-112863459D01*
X123593609Y-112894959D01*
X123516301Y-112989158D01*
X123439647Y-113132567D01*
X123421337Y-113192928D01*
X123356000Y-113192928D01*
X123231518Y-113205188D01*
X123111820Y-113241498D01*
X123001506Y-113300463D01*
X122904815Y-113379815D01*
X122825463Y-113476506D01*
X122766498Y-113586820D01*
X122730188Y-113706518D01*
X122717928Y-113831000D01*
X122717928Y-115531000D01*
X122730188Y-115655482D01*
X122766498Y-115775180D01*
X122825463Y-115885494D01*
X122904815Y-115982185D01*
X123001506Y-116061537D01*
X123111820Y-116120502D01*
X123180687Y-116141393D01*
X123150866Y-116165866D01*
X122965294Y-116391986D01*
X122827401Y-116649966D01*
X122742487Y-116929889D01*
X122713815Y-117221000D01*
X122742487Y-117512111D01*
X122763642Y-117581848D01*
X122714419Y-117577000D01*
X122682000Y-117573807D01*
X122649581Y-117577000D01*
X108102000Y-117577000D01*
X108102000Y-62998429D01*
X115738000Y-62998429D01*
X115738000Y-63315571D01*
X115799871Y-63626620D01*
X115921237Y-63919621D01*
X116097431Y-64183315D01*
X116321685Y-64407569D01*
X116585379Y-64583763D01*
X116878380Y-64705129D01*
X117189429Y-64767000D01*
X117506571Y-64767000D01*
X117817620Y-64705129D01*
X118110621Y-64583763D01*
X118374315Y-64407569D01*
X118598569Y-64183315D01*
X118774763Y-63919621D01*
X118896129Y-63626620D01*
X118958000Y-63315571D01*
X118958000Y-62998429D01*
X118896129Y-62687380D01*
X118774763Y-62394379D01*
X118598569Y-62130685D01*
X118374315Y-61906431D01*
X118110621Y-61730237D01*
X117817620Y-61608871D01*
X117506571Y-61547000D01*
X117189429Y-61547000D01*
X116878380Y-61608871D01*
X116585379Y-61730237D01*
X116321685Y-61906431D01*
X116097431Y-62130685D01*
X115921237Y-62394379D01*
X115799871Y-62687380D01*
X115738000Y-62998429D01*
X108102000Y-62998429D01*
X108102000Y-61247872D01*
X122733000Y-61247872D01*
X122733000Y-61688128D01*
X122818890Y-62119925D01*
X122987369Y-62526669D01*
X123231962Y-62892729D01*
X123543271Y-63204038D01*
X123909331Y-63448631D01*
X124316075Y-63617110D01*
X124747872Y-63703000D01*
X125188128Y-63703000D01*
X125619925Y-63617110D01*
X126026669Y-63448631D01*
X126392729Y-63204038D01*
X126704038Y-62892729D01*
X126948631Y-62526669D01*
X127117110Y-62119925D01*
X127203000Y-61688128D01*
X127203000Y-61247872D01*
X127117110Y-60816075D01*
X126948631Y-60409331D01*
X126704038Y-60043271D01*
X126392729Y-59731962D01*
X126026669Y-59487369D01*
X125619925Y-59318890D01*
X125188128Y-59233000D01*
X124747872Y-59233000D01*
X124316075Y-59318890D01*
X123909331Y-59487369D01*
X123543271Y-59731962D01*
X123231962Y-60043271D01*
X122987369Y-60409331D01*
X122818890Y-60816075D01*
X122733000Y-61247872D01*
X108102000Y-61247872D01*
X108102000Y-57998429D01*
X115738000Y-57998429D01*
X115738000Y-58315571D01*
X115799871Y-58626620D01*
X115921237Y-58919621D01*
X116097431Y-59183315D01*
X116321685Y-59407569D01*
X116585379Y-59583763D01*
X116878380Y-59705129D01*
X117189429Y-59767000D01*
X117506571Y-59767000D01*
X117817620Y-59705129D01*
X118110621Y-59583763D01*
X118374315Y-59407569D01*
X118598569Y-59183315D01*
X118774763Y-58919621D01*
X118896129Y-58626620D01*
X118958000Y-58315571D01*
X118958000Y-57998429D01*
X118896129Y-57687380D01*
X118774763Y-57394379D01*
X118598569Y-57130685D01*
X118374315Y-56906431D01*
X118358704Y-56896000D01*
X126790630Y-56896000D01*
X126812062Y-57113598D01*
X126875532Y-57322834D01*
X126978604Y-57515666D01*
X127117314Y-57684686D01*
X127286334Y-57823396D01*
X127346623Y-57855621D01*
X127229226Y-57934063D01*
X127085063Y-58078226D01*
X126971795Y-58247744D01*
X126893774Y-58436102D01*
X126854000Y-58636061D01*
X126854000Y-58839939D01*
X126893774Y-59039898D01*
X126971795Y-59228256D01*
X127085063Y-59397774D01*
X127229226Y-59541937D01*
X127398744Y-59655205D01*
X127587102Y-59733226D01*
X127787061Y-59773000D01*
X127990939Y-59773000D01*
X128190898Y-59733226D01*
X128379256Y-59655205D01*
X128548774Y-59541937D01*
X128692937Y-59397774D01*
X128806205Y-59228256D01*
X128884226Y-59039898D01*
X128916428Y-58878004D01*
X129596177Y-58198256D01*
X129706000Y-58209072D01*
X129730501Y-58209072D01*
X129730501Y-58681496D01*
X129638795Y-58818744D01*
X129560774Y-59007102D01*
X129521000Y-59207061D01*
X129521000Y-59410939D01*
X129560774Y-59610898D01*
X129638795Y-59799256D01*
X129752063Y-59968774D01*
X129896226Y-60112937D01*
X130065744Y-60226205D01*
X130254102Y-60304226D01*
X130454061Y-60344000D01*
X130657939Y-60344000D01*
X130857898Y-60304226D01*
X131046256Y-60226205D01*
X131215774Y-60112937D01*
X131359937Y-59968774D01*
X131473205Y-59799256D01*
X131510591Y-59709000D01*
X131673939Y-59709000D01*
X131873898Y-59669226D01*
X132062256Y-59591205D01*
X132231774Y-59477937D01*
X132375937Y-59333774D01*
X132489205Y-59164256D01*
X132495741Y-59148477D01*
X132546063Y-59223789D01*
X132690226Y-59367952D01*
X132859744Y-59481220D01*
X133048102Y-59559241D01*
X133248061Y-59599015D01*
X133451939Y-59599015D01*
X133651898Y-59559241D01*
X133840256Y-59481220D01*
X134009774Y-59367952D01*
X134153937Y-59223789D01*
X134267205Y-59054271D01*
X134345226Y-58865913D01*
X134385000Y-58665954D01*
X134385000Y-58462076D01*
X134345226Y-58262117D01*
X134267205Y-58073759D01*
X134153937Y-57904241D01*
X134009774Y-57760078D01*
X133950820Y-57720686D01*
X133994686Y-57684686D01*
X134133396Y-57515666D01*
X134236468Y-57322834D01*
X134299938Y-57113598D01*
X134321370Y-56896000D01*
X134299938Y-56678402D01*
X134236468Y-56469166D01*
X134133396Y-56276334D01*
X133994686Y-56107314D01*
X133825666Y-55968604D01*
X133632834Y-55865532D01*
X133423598Y-55802062D01*
X133260521Y-55786000D01*
X132851479Y-55786000D01*
X132688402Y-55802062D01*
X132564495Y-55839648D01*
X132507185Y-55769815D01*
X132410494Y-55690463D01*
X132300180Y-55631498D01*
X132180482Y-55595188D01*
X132056000Y-55582928D01*
X131656000Y-55582928D01*
X131531518Y-55595188D01*
X131531000Y-55595345D01*
X131530482Y-55595188D01*
X131406000Y-55582928D01*
X131006000Y-55582928D01*
X130881518Y-55595188D01*
X130881000Y-55595345D01*
X130880482Y-55595188D01*
X130756000Y-55582928D01*
X130356000Y-55582928D01*
X130231518Y-55595188D01*
X130231000Y-55595345D01*
X130230482Y-55595188D01*
X130106000Y-55582928D01*
X129706000Y-55582928D01*
X129581518Y-55595188D01*
X129581000Y-55595345D01*
X129580482Y-55595188D01*
X129456000Y-55582928D01*
X129056000Y-55582928D01*
X128931518Y-55595188D01*
X128811820Y-55631498D01*
X128701506Y-55690463D01*
X128604815Y-55769815D01*
X128547505Y-55839648D01*
X128423598Y-55802062D01*
X128260521Y-55786000D01*
X127851479Y-55786000D01*
X127688402Y-55802062D01*
X127479166Y-55865532D01*
X127286334Y-55968604D01*
X127117314Y-56107314D01*
X126978604Y-56276334D01*
X126875532Y-56469166D01*
X126812062Y-56678402D01*
X126790630Y-56896000D01*
X118358704Y-56896000D01*
X118110621Y-56730237D01*
X117817620Y-56608871D01*
X117506571Y-56547000D01*
X117189429Y-56547000D01*
X116878380Y-56608871D01*
X116585379Y-56730237D01*
X116321685Y-56906431D01*
X116097431Y-57130685D01*
X115921237Y-57394379D01*
X115799871Y-57687380D01*
X115738000Y-57998429D01*
X108102000Y-57998429D01*
X108102000Y-53865248D01*
X125921000Y-53865248D01*
X125921000Y-54526751D01*
X125937423Y-54693498D01*
X126002324Y-54907446D01*
X126107716Y-55104623D01*
X126249551Y-55277449D01*
X126422377Y-55419284D01*
X126619553Y-55524676D01*
X126833501Y-55589577D01*
X127056000Y-55611491D01*
X127278498Y-55589577D01*
X127492446Y-55524676D01*
X127689623Y-55419284D01*
X127862449Y-55277449D01*
X128004284Y-55104623D01*
X128109676Y-54907447D01*
X128174577Y-54693499D01*
X128191000Y-54526752D01*
X128191000Y-53865249D01*
X128191000Y-53865248D01*
X132921000Y-53865248D01*
X132921000Y-54526751D01*
X132937423Y-54693498D01*
X133002324Y-54907446D01*
X133107716Y-55104623D01*
X133249551Y-55277449D01*
X133422377Y-55419284D01*
X133619553Y-55524676D01*
X133833501Y-55589577D01*
X134056000Y-55611491D01*
X134278498Y-55589577D01*
X134492446Y-55524676D01*
X134689623Y-55419284D01*
X134862449Y-55277449D01*
X135004284Y-55104623D01*
X135109676Y-54907447D01*
X135174577Y-54693499D01*
X135191000Y-54526752D01*
X135191000Y-53865249D01*
X135174577Y-53698502D01*
X135109676Y-53484554D01*
X135004284Y-53287377D01*
X134862449Y-53114551D01*
X134689623Y-52972716D01*
X134492447Y-52867324D01*
X134278499Y-52802423D01*
X134056000Y-52780509D01*
X133833502Y-52802423D01*
X133619554Y-52867324D01*
X133422378Y-52972716D01*
X133249552Y-53114551D01*
X133107717Y-53287377D01*
X133002324Y-53484553D01*
X132937423Y-53698501D01*
X132921000Y-53865248D01*
X128191000Y-53865248D01*
X128174577Y-53698502D01*
X128109676Y-53484554D01*
X128004284Y-53287377D01*
X127862449Y-53114551D01*
X127689623Y-52972716D01*
X127492447Y-52867324D01*
X127278499Y-52802423D01*
X127056000Y-52780509D01*
X126833502Y-52802423D01*
X126619554Y-52867324D01*
X126422378Y-52972716D01*
X126249552Y-53114551D01*
X126107717Y-53287377D01*
X126002324Y-53484553D01*
X125937423Y-53698501D01*
X125921000Y-53865248D01*
X108102000Y-53865248D01*
X108102000Y-50952000D01*
X188443001Y-50952000D01*
X188443001Y-53345066D01*
X188443001Y-53345066D01*
G37*
X188443001Y-53345066D02*
X188344284Y-53160377D01*
X188202449Y-52987551D01*
X188029623Y-52845716D01*
X187832447Y-52740324D01*
X187618499Y-52675423D01*
X187396000Y-52653509D01*
X187173502Y-52675423D01*
X186959554Y-52740324D01*
X186762378Y-52845716D01*
X186589552Y-52987551D01*
X186447717Y-53160377D01*
X186342324Y-53357553D01*
X186277423Y-53571501D01*
X186261000Y-53738248D01*
X186261000Y-54399751D01*
X186277423Y-54566498D01*
X186342324Y-54780446D01*
X186447716Y-54977623D01*
X186589551Y-55150449D01*
X186762377Y-55292284D01*
X186959553Y-55397676D01*
X187173501Y-55462577D01*
X187396000Y-55484491D01*
X187618498Y-55462577D01*
X187832446Y-55397676D01*
X188029623Y-55292284D01*
X188202449Y-55150449D01*
X188344284Y-54977623D01*
X188443001Y-54792935D01*
X188443000Y-117704000D01*
X179356419Y-117704000D01*
X179324000Y-117700807D01*
X179291581Y-117704000D01*
X179194617Y-117713550D01*
X179070207Y-117751290D01*
X178955550Y-117812575D01*
X178880853Y-117873878D01*
X178924599Y-117792034D01*
X179009513Y-117512111D01*
X179038185Y-117221000D01*
X179009513Y-116929889D01*
X179008356Y-116926077D01*
X179008390Y-116926043D01*
X179008395Y-116926037D01*
X179341535Y-116592897D01*
X179373042Y-116567040D01*
X179476200Y-116441341D01*
X179552854Y-116297933D01*
X179600057Y-116142325D01*
X179612001Y-116021052D01*
X179612001Y-116021050D01*
X179615995Y-115980500D01*
X179612001Y-115939949D01*
X179612001Y-110523872D01*
X182042000Y-110523872D01*
X182042000Y-110964128D01*
X182127890Y-111395925D01*
X182296369Y-111802669D01*
X182540962Y-112168729D01*
X182852271Y-112480038D01*
X183218331Y-112724631D01*
X183625075Y-112893110D01*
X184056872Y-112979000D01*
X184497128Y-112979000D01*
X184928925Y-112893110D01*
X185335669Y-112724631D01*
X185701729Y-112480038D01*
X186013038Y-112168729D01*
X186257631Y-111802669D01*
X186426110Y-111395925D01*
X186512000Y-110964128D01*
X186512000Y-110523872D01*
X186426110Y-110092075D01*
X186257631Y-109685331D01*
X186013038Y-109319271D01*
X185701729Y-109007962D01*
X185335669Y-108763369D01*
X184928925Y-108594890D01*
X184497128Y-108509000D01*
X184056872Y-108509000D01*
X183625075Y-108594890D01*
X183218331Y-108763369D01*
X182852271Y-109007962D01*
X182540962Y-109319271D01*
X182296369Y-109685331D01*
X182127890Y-110092075D01*
X182042000Y-110523872D01*
X179612001Y-110523872D01*
X179612001Y-70543434D01*
X180403501Y-71334935D01*
X180403500Y-100845497D01*
X180311795Y-100982744D01*
X180233774Y-101171102D01*
X180194000Y-101371061D01*
X180194000Y-101574939D01*
X180233774Y-101774898D01*
X180311795Y-101963256D01*
X180425063Y-102132774D01*
X180569226Y-102276937D01*
X180673011Y-102346284D01*
X180565795Y-102506744D01*
X180487774Y-102695102D01*
X180448000Y-102895061D01*
X180448000Y-103098939D01*
X180487774Y-103298898D01*
X180565795Y-103487256D01*
X180679063Y-103656774D01*
X180823226Y-103800937D01*
X180927011Y-103870284D01*
X180819795Y-104030744D01*
X180741774Y-104219102D01*
X180702000Y-104419061D01*
X180702000Y-104622939D01*
X180741774Y-104822898D01*
X180819795Y-105011256D01*
X180933063Y-105180774D01*
X181077226Y-105324937D01*
X181223116Y-105422417D01*
X181181102Y-105430774D01*
X180992744Y-105508795D01*
X180823226Y-105622063D01*
X180679063Y-105766226D01*
X180565795Y-105935744D01*
X180487774Y-106124102D01*
X180448000Y-106324061D01*
X180448000Y-106527939D01*
X180487774Y-106727898D01*
X180565795Y-106916256D01*
X180679063Y-107085774D01*
X180823226Y-107229937D01*
X180992744Y-107343205D01*
X181181102Y-107421226D01*
X181381061Y-107461000D01*
X181584939Y-107461000D01*
X181784898Y-107421226D01*
X181973256Y-107343205D01*
X182142774Y-107229937D01*
X182286937Y-107085774D01*
X182400205Y-106916256D01*
X182478226Y-106727898D01*
X182510429Y-106566004D01*
X186568542Y-102507891D01*
X186600042Y-102482040D01*
X186680002Y-102384608D01*
X186703200Y-102356342D01*
X186779854Y-102212933D01*
X186791211Y-102175494D01*
X186827057Y-102057325D01*
X186839001Y-101936052D01*
X186839001Y-101936050D01*
X186842995Y-101895499D01*
X186839001Y-101854949D01*
X186839001Y-58683051D01*
X186842995Y-58642500D01*
X186839001Y-58601948D01*
X186827057Y-58480675D01*
X186779854Y-58325067D01*
X186720037Y-58213158D01*
X186703200Y-58181658D01*
X186651744Y-58118959D01*
X186600042Y-58055960D01*
X186568540Y-58030107D01*
X186417433Y-57879000D01*
X186600521Y-57879000D01*
X186763598Y-57862938D01*
X186972834Y-57799468D01*
X187165666Y-57696396D01*
X187334686Y-57557686D01*
X187473396Y-57388666D01*
X187576468Y-57195834D01*
X187639938Y-56986598D01*
X187661370Y-56769000D01*
X187639938Y-56551402D01*
X187576468Y-56342166D01*
X187473396Y-56149334D01*
X187334686Y-55980314D01*
X187165666Y-55841604D01*
X186972834Y-55738532D01*
X186763598Y-55675062D01*
X186600521Y-55659000D01*
X186191479Y-55659000D01*
X186028402Y-55675062D01*
X185904495Y-55712648D01*
X185847185Y-55642815D01*
X185750494Y-55563463D01*
X185640180Y-55504498D01*
X185520482Y-55468188D01*
X185396000Y-55455928D01*
X184996000Y-55455928D01*
X184871518Y-55468188D01*
X184871000Y-55468345D01*
X184870482Y-55468188D01*
X184746000Y-55455928D01*
X184346000Y-55455928D01*
X184221518Y-55468188D01*
X184221000Y-55468345D01*
X184220482Y-55468188D01*
X184096000Y-55455928D01*
X183696000Y-55455928D01*
X183571518Y-55468188D01*
X183571000Y-55468345D01*
X183570482Y-55468188D01*
X183446000Y-55455928D01*
X183046000Y-55455928D01*
X182921518Y-55468188D01*
X182921000Y-55468345D01*
X182920482Y-55468188D01*
X182796000Y-55455928D01*
X182396000Y-55455928D01*
X182271518Y-55468188D01*
X182151820Y-55504498D01*
X182041506Y-55563463D01*
X181944815Y-55642815D01*
X181887505Y-55712648D01*
X181763598Y-55675062D01*
X181600521Y-55659000D01*
X181191479Y-55659000D01*
X181028402Y-55675062D01*
X180819166Y-55738532D01*
X180626334Y-55841604D01*
X180457314Y-55980314D01*
X180318604Y-56149334D01*
X180215532Y-56342166D01*
X180152062Y-56551402D01*
X180130630Y-56769000D01*
X180152062Y-56986598D01*
X180215532Y-57195834D01*
X180318604Y-57388666D01*
X180457314Y-57557686D01*
X180626334Y-57696396D01*
X180819166Y-57799468D01*
X180860546Y-57812020D01*
X179612001Y-59060567D01*
X179612001Y-55168873D01*
X179762377Y-55292284D01*
X179959553Y-55397676D01*
X180173501Y-55462577D01*
X180396000Y-55484491D01*
X180618498Y-55462577D01*
X180832446Y-55397676D01*
X181029623Y-55292284D01*
X181202449Y-55150449D01*
X181344284Y-54977623D01*
X181449676Y-54780447D01*
X181514577Y-54566499D01*
X181531000Y-54399752D01*
X181531000Y-53738249D01*
X181514577Y-53571502D01*
X181449676Y-53357554D01*
X181344284Y-53160377D01*
X181202449Y-52987551D01*
X181029623Y-52845716D01*
X180832447Y-52740324D01*
X180618499Y-52675423D01*
X180396000Y-52653509D01*
X180173502Y-52675423D01*
X179959554Y-52740324D01*
X179762378Y-52845716D01*
X179589552Y-52987551D01*
X179447717Y-53160377D01*
X179342324Y-53357553D01*
X179338754Y-53369321D01*
X178297198Y-52327766D01*
X178271341Y-52296259D01*
X178145642Y-52193101D01*
X178002234Y-52116447D01*
X177941872Y-52098136D01*
X177941872Y-52032800D01*
X177929612Y-51908318D01*
X177893302Y-51788620D01*
X177834337Y-51678306D01*
X177754985Y-51581615D01*
X177658294Y-51502263D01*
X177547980Y-51443298D01*
X177428282Y-51406988D01*
X177303800Y-51394728D01*
X175603800Y-51394728D01*
X175479318Y-51406988D01*
X175359620Y-51443298D01*
X175249306Y-51502263D01*
X175152615Y-51581615D01*
X175073263Y-51678306D01*
X175014298Y-51788620D01*
X174977988Y-51908318D01*
X174965728Y-52032800D01*
X174965728Y-53732800D01*
X174977988Y-53857282D01*
X175014298Y-53976980D01*
X175073263Y-54087294D01*
X175152615Y-54183985D01*
X175249306Y-54263337D01*
X175359620Y-54322302D01*
X175428487Y-54343193D01*
X175398666Y-54367666D01*
X175213094Y-54593786D01*
X175075201Y-54851766D01*
X174990287Y-55131689D01*
X174961615Y-55422800D01*
X174990287Y-55713911D01*
X175012276Y-55786399D01*
X168773490Y-62687522D01*
X168773490Y-59657540D01*
X168777484Y-59616990D01*
X168773490Y-59576437D01*
X168761546Y-59455164D01*
X168714343Y-59299556D01*
X168693488Y-59260540D01*
X168637689Y-59156147D01*
X168560382Y-59061948D01*
X168560379Y-59061945D01*
X168534531Y-59030449D01*
X168503036Y-59004602D01*
X162676156Y-53177724D01*
X162677313Y-53173911D01*
X162705985Y-52882800D01*
X162677313Y-52591689D01*
X162592399Y-52311766D01*
X162454506Y-52053786D01*
X162268934Y-51827666D01*
X162042814Y-51642094D01*
X161784834Y-51504201D01*
X161504911Y-51419287D01*
X161286750Y-51397800D01*
X161140850Y-51397800D01*
X160922689Y-51419287D01*
X160642766Y-51504201D01*
X160384786Y-51642094D01*
X160158666Y-51827666D01*
X159973094Y-52053786D01*
X159835201Y-52311766D01*
X159750287Y-52591689D01*
X159721615Y-52882800D01*
X159750287Y-53173911D01*
X159835201Y-53453834D01*
X159973094Y-53711814D01*
X160158666Y-53937934D01*
X160384786Y-54123506D01*
X160439591Y-54152800D01*
X160384786Y-54182094D01*
X160158666Y-54367666D01*
X159973094Y-54593786D01*
X159835201Y-54851766D01*
X159750287Y-55131689D01*
X159721615Y-55422800D01*
X159750287Y-55713911D01*
X159787869Y-55837801D01*
X159175835Y-55837801D01*
X155665798Y-52327766D01*
X155639941Y-52296259D01*
X155514242Y-52193101D01*
X155370834Y-52116447D01*
X155310472Y-52098136D01*
X155310472Y-52032800D01*
X155298212Y-51908318D01*
X155261902Y-51788620D01*
X155202937Y-51678306D01*
X155123585Y-51581615D01*
X155026894Y-51502263D01*
X154916580Y-51443298D01*
X154796882Y-51406988D01*
X154672400Y-51394728D01*
X152972400Y-51394728D01*
X152847918Y-51406988D01*
X152728220Y-51443298D01*
X152617906Y-51502263D01*
X152521215Y-51581615D01*
X152441863Y-51678306D01*
X152382898Y-51788620D01*
X152346588Y-51908318D01*
X152334328Y-52032800D01*
X152334328Y-53732800D01*
X152346588Y-53857282D01*
X152382898Y-53976980D01*
X152441863Y-54087294D01*
X152521215Y-54183985D01*
X152617906Y-54263337D01*
X152728220Y-54322302D01*
X152797087Y-54343193D01*
X152767266Y-54367666D01*
X152581694Y-54593786D01*
X152443801Y-54851766D01*
X152358887Y-55131689D01*
X152330215Y-55422800D01*
X152358887Y-55713911D01*
X152360043Y-55717723D01*
X146571441Y-61506327D01*
X146558527Y-61441403D01*
X146480506Y-61253045D01*
X146367238Y-61083527D01*
X146223075Y-60939364D01*
X146053557Y-60826096D01*
X145865199Y-60748075D01*
X145665240Y-60708301D01*
X145461362Y-60708301D01*
X145261403Y-60748075D01*
X145073045Y-60826096D01*
X144903527Y-60939364D01*
X144759364Y-61083527D01*
X144646096Y-61253045D01*
X144568075Y-61441403D01*
X144535873Y-61603296D01*
X141978119Y-64161051D01*
X141946618Y-64186903D01*
X141920767Y-64218403D01*
X141843459Y-64312602D01*
X141766805Y-64456011D01*
X141719603Y-64611618D01*
X141703664Y-64773444D01*
X141707659Y-64814004D01*
X141707658Y-73311450D01*
X139937962Y-75081147D01*
X139848506Y-74913786D01*
X139662934Y-74687666D01*
X139436814Y-74502094D01*
X139382009Y-74472800D01*
X139436814Y-74443506D01*
X139662934Y-74257934D01*
X139848506Y-74031814D01*
X139986399Y-73773834D01*
X140071313Y-73493911D01*
X140099985Y-73202800D01*
X140071313Y-72911689D01*
X139986399Y-72631766D01*
X139848506Y-72373786D01*
X139662934Y-72147666D01*
X139436814Y-71962094D01*
X139382009Y-71932800D01*
X139436814Y-71903506D01*
X139662934Y-71717934D01*
X139848506Y-71491814D01*
X139986399Y-71233834D01*
X140071313Y-70953911D01*
X140099985Y-70662800D01*
X140071313Y-70371689D01*
X139986399Y-70091766D01*
X139848506Y-69833786D01*
X139662934Y-69607666D01*
X139436814Y-69422094D01*
X139382009Y-69392800D01*
X139436814Y-69363506D01*
X139662934Y-69177934D01*
X139848506Y-68951814D01*
X139986399Y-68693834D01*
X140071313Y-68413911D01*
X140099985Y-68122800D01*
X140071313Y-67831689D01*
X139986399Y-67551766D01*
X139848506Y-67293786D01*
X139662934Y-67067666D01*
X139436814Y-66882094D01*
X139382009Y-66852800D01*
X139436814Y-66823506D01*
X139662934Y-66637934D01*
X139848506Y-66411814D01*
X139986399Y-66153834D01*
X140071313Y-65873911D01*
X140099985Y-65582800D01*
X140071313Y-65291689D01*
X139986399Y-65011766D01*
X139848506Y-64753786D01*
X139662934Y-64527666D01*
X139436814Y-64342094D01*
X139382009Y-64312800D01*
X139436814Y-64283506D01*
X139662934Y-64097934D01*
X139848506Y-63871814D01*
X139986399Y-63613834D01*
X140071313Y-63333911D01*
X140099985Y-63042800D01*
X140071313Y-62751689D01*
X139986399Y-62471766D01*
X139848506Y-62213786D01*
X139662934Y-61987666D01*
X139436814Y-61802094D01*
X139382009Y-61772800D01*
X139436814Y-61743506D01*
X139662934Y-61557934D01*
X139848506Y-61331814D01*
X139986399Y-61073834D01*
X140071313Y-60793911D01*
X140099985Y-60502800D01*
X140071313Y-60211689D01*
X139986399Y-59931766D01*
X139848506Y-59673786D01*
X139662934Y-59447666D01*
X139436814Y-59262094D01*
X139382009Y-59232800D01*
X139436814Y-59203506D01*
X139662934Y-59017934D01*
X139848506Y-58791814D01*
X139986399Y-58533834D01*
X140071313Y-58253911D01*
X140099985Y-57962800D01*
X140071313Y-57671689D01*
X139986399Y-57391766D01*
X139848506Y-57133786D01*
X139662934Y-56907666D01*
X139436814Y-56722094D01*
X139382009Y-56692800D01*
X139436814Y-56663506D01*
X139662934Y-56477934D01*
X139848506Y-56251814D01*
X139986399Y-55993834D01*
X140071313Y-55713911D01*
X140099985Y-55422800D01*
X140071313Y-55131689D01*
X139986399Y-54851766D01*
X139848506Y-54593786D01*
X139662934Y-54367666D01*
X139436814Y-54182094D01*
X139382009Y-54152800D01*
X139436814Y-54123506D01*
X139662934Y-53937934D01*
X139848506Y-53711814D01*
X139986399Y-53453834D01*
X140071313Y-53173911D01*
X140099985Y-52882800D01*
X140071313Y-52591689D01*
X139986399Y-52311766D01*
X139848506Y-52053786D01*
X139662934Y-51827666D01*
X139436814Y-51642094D01*
X139178834Y-51504201D01*
X138898911Y-51419287D01*
X138680750Y-51397800D01*
X138534850Y-51397800D01*
X138316689Y-51419287D01*
X138036766Y-51504201D01*
X137778786Y-51642094D01*
X137552666Y-51827666D01*
X137367094Y-52053786D01*
X137229201Y-52311766D01*
X137144287Y-52591689D01*
X137115615Y-52882800D01*
X137144287Y-53173911D01*
X137229201Y-53453834D01*
X137367094Y-53711814D01*
X137552666Y-53937934D01*
X137778786Y-54123506D01*
X137833591Y-54152800D01*
X137778786Y-54182094D01*
X137552666Y-54367666D01*
X137367094Y-54593786D01*
X137229201Y-54851766D01*
X137144287Y-55131689D01*
X137115615Y-55422800D01*
X137144287Y-55713911D01*
X137229201Y-55993834D01*
X137367094Y-56251814D01*
X137552666Y-56477934D01*
X137778786Y-56663506D01*
X137833591Y-56692800D01*
X137778786Y-56722094D01*
X137552666Y-56907666D01*
X137367094Y-57133786D01*
X137229201Y-57391766D01*
X137144287Y-57671689D01*
X137115615Y-57962800D01*
X137144287Y-58253911D01*
X137229201Y-58533834D01*
X137367094Y-58791814D01*
X137552666Y-59017934D01*
X137778786Y-59203506D01*
X137833591Y-59232800D01*
X137778786Y-59262094D01*
X137552666Y-59447666D01*
X137367094Y-59673786D01*
X137229201Y-59931766D01*
X137144287Y-60211689D01*
X137115615Y-60502800D01*
X137144287Y-60793911D01*
X137229201Y-61073834D01*
X137367094Y-61331814D01*
X137552666Y-61557934D01*
X137778786Y-61743506D01*
X137833591Y-61772800D01*
X137778786Y-61802094D01*
X137552666Y-61987666D01*
X137367094Y-62213786D01*
X137229201Y-62471766D01*
X137144287Y-62751689D01*
X137115615Y-63042800D01*
X137144287Y-63333911D01*
X137229201Y-63613834D01*
X137367094Y-63871814D01*
X137552666Y-64097934D01*
X137778786Y-64283506D01*
X137833591Y-64312800D01*
X137778786Y-64342094D01*
X137552666Y-64527666D01*
X137367094Y-64753786D01*
X137365216Y-64757300D01*
X125519936Y-64757300D01*
X125479386Y-64753306D01*
X125438835Y-64757300D01*
X125438833Y-64757300D01*
X125317560Y-64769244D01*
X125161952Y-64816447D01*
X125018543Y-64893101D01*
X124924344Y-64970408D01*
X124924343Y-64970409D01*
X124892845Y-64996259D01*
X124866997Y-65027755D01*
X122563254Y-67331500D01*
X118732749Y-67331500D01*
X118598569Y-67130685D01*
X118374315Y-66906431D01*
X118110621Y-66730237D01*
X117817620Y-66608871D01*
X117506571Y-66547000D01*
X117189429Y-66547000D01*
X116878380Y-66608871D01*
X116585379Y-66730237D01*
X116321685Y-66906431D01*
X116097431Y-67130685D01*
X115921237Y-67394379D01*
X115799871Y-67687380D01*
X115738000Y-67998429D01*
X115738000Y-68315571D01*
X115799871Y-68626620D01*
X115921237Y-68919621D01*
X116097431Y-69183315D01*
X116321685Y-69407569D01*
X116585379Y-69583763D01*
X116878380Y-69705129D01*
X117189429Y-69767000D01*
X117506571Y-69767000D01*
X117817620Y-69705129D01*
X118110621Y-69583763D01*
X118374315Y-69407569D01*
X118598569Y-69183315D01*
X118732749Y-68982500D01*
X121733925Y-68982500D01*
X118592155Y-72124271D01*
X118374315Y-71906431D01*
X118110621Y-71730237D01*
X117817620Y-71608871D01*
X117506571Y-71547000D01*
X117189429Y-71547000D01*
X116878380Y-71608871D01*
X116585379Y-71730237D01*
X116321685Y-71906431D01*
X116097431Y-72130685D01*
X115921237Y-72394379D01*
X115799871Y-72687380D01*
X115738000Y-72998429D01*
X115738000Y-73315571D01*
X115799871Y-73626620D01*
X115921237Y-73919621D01*
X116097431Y-74183315D01*
X116321685Y-74407569D01*
X116585379Y-74583763D01*
X116878380Y-74705129D01*
X117189429Y-74767000D01*
X117506571Y-74767000D01*
X117817620Y-74705129D01*
X118110621Y-74583763D01*
X118374315Y-74407569D01*
X118598569Y-74183315D01*
X118730307Y-73986154D01*
X118767408Y-73982500D01*
X118767411Y-73982500D01*
X118888684Y-73970556D01*
X119044292Y-73923353D01*
X119187700Y-73846699D01*
X119313399Y-73743541D01*
X119339256Y-73712034D01*
X124102992Y-68948300D01*
X137365216Y-68948300D01*
X137367094Y-68951814D01*
X137552666Y-69177934D01*
X137778786Y-69363506D01*
X137833591Y-69392800D01*
X137778786Y-69422094D01*
X137552666Y-69607666D01*
X137367094Y-69833786D01*
X137365216Y-69837300D01*
X129061070Y-69837300D01*
X129020527Y-69833307D01*
X128979984Y-69837300D01*
X128979975Y-69837300D01*
X128858702Y-69849244D01*
X128703094Y-69896447D01*
X128643051Y-69928541D01*
X128559684Y-69973102D01*
X128512238Y-70012040D01*
X128433987Y-70076259D01*
X128408135Y-70107760D01*
X122159395Y-76356501D01*
X118363549Y-76356501D01*
X118322999Y-76352507D01*
X118282448Y-76356501D01*
X118282446Y-76356501D01*
X118161173Y-76368445D01*
X118005565Y-76415648D01*
X117862156Y-76492302D01*
X117767957Y-76569609D01*
X117767954Y-76569612D01*
X117739138Y-76593260D01*
X117506571Y-76547000D01*
X117189429Y-76547000D01*
X116878380Y-76608871D01*
X116585379Y-76730237D01*
X116321685Y-76906431D01*
X116097431Y-77130685D01*
X115921237Y-77394379D01*
X115799871Y-77687380D01*
X115738000Y-77998429D01*
X115738000Y-78315571D01*
X115799871Y-78626620D01*
X115921237Y-78919621D01*
X116097431Y-79183315D01*
X116321685Y-79407569D01*
X116585379Y-79583763D01*
X116878380Y-79705129D01*
X117189429Y-79767000D01*
X117506571Y-79767000D01*
X117817620Y-79705129D01*
X118110621Y-79583763D01*
X118374315Y-79407569D01*
X118598569Y-79183315D01*
X118774763Y-78919621D01*
X118896129Y-78626620D01*
X118958000Y-78315571D01*
X118958000Y-78007501D01*
X121330066Y-78007501D01*
X117743450Y-81594118D01*
X117506571Y-81547000D01*
X117189429Y-81547000D01*
X116878380Y-81608871D01*
X116585379Y-81730237D01*
X116321685Y-81906431D01*
X116097431Y-82130685D01*
X115921237Y-82394379D01*
X115799871Y-82687380D01*
X115738000Y-82998429D01*
X115738000Y-83315571D01*
X115799871Y-83626620D01*
X115921237Y-83919621D01*
X116097431Y-84183315D01*
X116321685Y-84407569D01*
X116585379Y-84583763D01*
X116878380Y-84705129D01*
X117189429Y-84767000D01*
X117506571Y-84767000D01*
X117817620Y-84705129D01*
X118110621Y-84583763D01*
X118374315Y-84407569D01*
X118598569Y-84183315D01*
X118774763Y-83919621D01*
X118896129Y-83626620D01*
X118958000Y-83315571D01*
X118958000Y-82998429D01*
X118910882Y-82761550D01*
X127644134Y-74028300D01*
X137365216Y-74028300D01*
X137367094Y-74031814D01*
X137552666Y-74257934D01*
X137778786Y-74443506D01*
X137833591Y-74472800D01*
X137778786Y-74502094D01*
X137552666Y-74687666D01*
X137367094Y-74913786D01*
X137229201Y-75171766D01*
X137144287Y-75451689D01*
X137115615Y-75742800D01*
X137144287Y-76033911D01*
X137181869Y-76157801D01*
X128562249Y-76157801D01*
X128521699Y-76153807D01*
X128481148Y-76157801D01*
X128481146Y-76157801D01*
X128359873Y-76169745D01*
X128244134Y-76204854D01*
X128204265Y-76216948D01*
X128060856Y-76293602D01*
X127966657Y-76370909D01*
X127966654Y-76370912D01*
X127935158Y-76396760D01*
X127909310Y-76428256D01*
X117743450Y-86594118D01*
X117506571Y-86547000D01*
X117189429Y-86547000D01*
X116878380Y-86608871D01*
X116585379Y-86730237D01*
X116321685Y-86906431D01*
X116097431Y-87130685D01*
X115921237Y-87394379D01*
X115799871Y-87687380D01*
X115738000Y-87998429D01*
X115738000Y-88315571D01*
X115799871Y-88626620D01*
X115921237Y-88919621D01*
X116097431Y-89183315D01*
X116321685Y-89407569D01*
X116585379Y-89583763D01*
X116878380Y-89705129D01*
X117189429Y-89767000D01*
X117506571Y-89767000D01*
X117817620Y-89705129D01*
X118110621Y-89583763D01*
X118374315Y-89407569D01*
X118598569Y-89183315D01*
X118774763Y-88919621D01*
X118896129Y-88626620D01*
X118958000Y-88315571D01*
X118958000Y-87998429D01*
X118910882Y-87761550D01*
X128863633Y-77808801D01*
X137199766Y-77808801D01*
X137144287Y-77991689D01*
X137115615Y-78282800D01*
X137144287Y-78573911D01*
X137181869Y-78697801D01*
X131022249Y-78697801D01*
X130981698Y-78693807D01*
X130941148Y-78697801D01*
X130941146Y-78697801D01*
X130819873Y-78709745D01*
X130664265Y-78756948D01*
X130520856Y-78833602D01*
X130496204Y-78853834D01*
X130395158Y-78936760D01*
X130369307Y-78968260D01*
X117743450Y-91594118D01*
X117506571Y-91547000D01*
X117189429Y-91547000D01*
X116878380Y-91608871D01*
X116585379Y-91730237D01*
X116321685Y-91906431D01*
X116097431Y-92130685D01*
X115921237Y-92394379D01*
X115799871Y-92687380D01*
X115738000Y-92998429D01*
X115738000Y-93315571D01*
X115799871Y-93626620D01*
X115921237Y-93919621D01*
X116097431Y-94183315D01*
X116321685Y-94407569D01*
X116585379Y-94583763D01*
X116878380Y-94705129D01*
X117189429Y-94767000D01*
X117506571Y-94767000D01*
X117817620Y-94705129D01*
X118110621Y-94583763D01*
X118374315Y-94407569D01*
X118598569Y-94183315D01*
X118774763Y-93919621D01*
X118896129Y-93626620D01*
X118958000Y-93315571D01*
X118958000Y-92998429D01*
X118910882Y-92761550D01*
X131323632Y-80348801D01*
X137199766Y-80348801D01*
X137144287Y-80531689D01*
X137115615Y-80822800D01*
X137144287Y-81113911D01*
X137181869Y-81237801D01*
X133482241Y-81237801D01*
X133441698Y-81233808D01*
X133401155Y-81237801D01*
X133401146Y-81237801D01*
X133279873Y-81249745D01*
X133124265Y-81296948D01*
X132980857Y-81373602D01*
X132855158Y-81476760D01*
X132829307Y-81508260D01*
X117743450Y-96594118D01*
X117506571Y-96547000D01*
X117189429Y-96547000D01*
X116878380Y-96608871D01*
X116585379Y-96730237D01*
X116321685Y-96906431D01*
X116097431Y-97130685D01*
X115921237Y-97394379D01*
X115799871Y-97687380D01*
X115738000Y-97998429D01*
X115738000Y-98315571D01*
X115799871Y-98626620D01*
X115921237Y-98919621D01*
X116097431Y-99183315D01*
X116321685Y-99407569D01*
X116585379Y-99583763D01*
X116878380Y-99705129D01*
X117189429Y-99767000D01*
X117506571Y-99767000D01*
X117817620Y-99705129D01*
X118110621Y-99583763D01*
X118374315Y-99407569D01*
X118598569Y-99183315D01*
X118774763Y-98919621D01*
X118896129Y-98626620D01*
X118958000Y-98315571D01*
X118958000Y-97998429D01*
X118910882Y-97761550D01*
X133783632Y-82888801D01*
X137199766Y-82888801D01*
X137144287Y-83071689D01*
X137115615Y-83362800D01*
X137144287Y-83653911D01*
X137181869Y-83777801D01*
X135942249Y-83777801D01*
X135901699Y-83773807D01*
X135861148Y-83777801D01*
X135861146Y-83777801D01*
X135739873Y-83789745D01*
X135622387Y-83825384D01*
X135584265Y-83836948D01*
X135440856Y-83913602D01*
X135346657Y-83990909D01*
X135346654Y-83990912D01*
X135315158Y-84016760D01*
X135289310Y-84048256D01*
X117743450Y-101594118D01*
X117506571Y-101547000D01*
X117189429Y-101547000D01*
X116878380Y-101608871D01*
X116585379Y-101730237D01*
X116321685Y-101906431D01*
X116097431Y-102130685D01*
X115921237Y-102394379D01*
X115799871Y-102687380D01*
X115738000Y-102998429D01*
X115738000Y-103315571D01*
X115799871Y-103626620D01*
X115921237Y-103919621D01*
X116097431Y-104183315D01*
X116321685Y-104407569D01*
X116585379Y-104583763D01*
X116878380Y-104705129D01*
X117189429Y-104767000D01*
X117506571Y-104767000D01*
X117817620Y-104705129D01*
X118110621Y-104583763D01*
X118374315Y-104407569D01*
X118598569Y-104183315D01*
X118774763Y-103919621D01*
X118896129Y-103626620D01*
X118958000Y-103315571D01*
X118958000Y-102998429D01*
X118910882Y-102761550D01*
X136243633Y-85428801D01*
X137201845Y-85428801D01*
X137166324Y-85545910D01*
X137287645Y-85775800D01*
X138480800Y-85775800D01*
X138480800Y-85755800D01*
X138734800Y-85755800D01*
X138734800Y-85775800D01*
X138754800Y-85775800D01*
X138754800Y-86029800D01*
X138734800Y-86029800D01*
X138734800Y-86049800D01*
X138480800Y-86049800D01*
X138480800Y-86029800D01*
X137287645Y-86029800D01*
X137166324Y-86259690D01*
X137210975Y-86406899D01*
X137335413Y-86668154D01*
X117767964Y-106235604D01*
X117736458Y-106261460D01*
X117633300Y-106387159D01*
X117556646Y-106530567D01*
X117549095Y-106555459D01*
X117506571Y-106547000D01*
X117189429Y-106547000D01*
X116878380Y-106608871D01*
X116585379Y-106730237D01*
X116321685Y-106906431D01*
X116097431Y-107130685D01*
X115921237Y-107394379D01*
X115799871Y-107687380D01*
X115738000Y-107998429D01*
X115738000Y-108315571D01*
X115799871Y-108626620D01*
X115921237Y-108919621D01*
X116097431Y-109183315D01*
X116321685Y-109407569D01*
X116585379Y-109583763D01*
X116878380Y-109705129D01*
X117189429Y-109767000D01*
X117506571Y-109767000D01*
X117817620Y-109705129D01*
X118110621Y-109583763D01*
X118374315Y-109407569D01*
X118598569Y-109183315D01*
X118774763Y-108919621D01*
X118896129Y-108626620D01*
X118958000Y-108315571D01*
X118958000Y-107998429D01*
X118911740Y-107765862D01*
X118935388Y-107737046D01*
X118935391Y-107737043D01*
X119012698Y-107642844D01*
X119089352Y-107499435D01*
X119091136Y-107493555D01*
X119136555Y-107343827D01*
X119148499Y-107222554D01*
X119148499Y-107222552D01*
X119152063Y-107186369D01*
X124608424Y-101730008D01*
X124384369Y-102065331D01*
X124215890Y-102472075D01*
X124130000Y-102903872D01*
X124130000Y-103344128D01*
X124215890Y-103775925D01*
X124384369Y-104182669D01*
X124628962Y-104548729D01*
X124940271Y-104860038D01*
X125306331Y-105104631D01*
X125713075Y-105273110D01*
X126144872Y-105359000D01*
X126585128Y-105359000D01*
X126587844Y-105358460D01*
X118896822Y-111908485D01*
X118853537Y-111827506D01*
X118774185Y-111730815D01*
X118677494Y-111651463D01*
X118567180Y-111592498D01*
X118447482Y-111556188D01*
X118323000Y-111543928D01*
X116373000Y-111543928D01*
X116248518Y-111556188D01*
X116128820Y-111592498D01*
X116018506Y-111651463D01*
X115921815Y-111730815D01*
X115842463Y-111827506D01*
X115783498Y-111937820D01*
X115747188Y-112057518D01*
X115734928Y-112182000D01*
X115734928Y-114132000D01*
X115747188Y-114256482D01*
X115783498Y-114376180D01*
X115842463Y-114486494D01*
X115921815Y-114583185D01*
X116018506Y-114662537D01*
X116128820Y-114721502D01*
X116248518Y-114757812D01*
X116373000Y-114770072D01*
X118323000Y-114770072D01*
X118447482Y-114757812D01*
X118567180Y-114721502D01*
X118677494Y-114662537D01*
X118774185Y-114583185D01*
X118853537Y-114486494D01*
X118912502Y-114376180D01*
X118948812Y-114256482D01*
X118961072Y-114132000D01*
X118961072Y-113945447D01*
X118989651Y-113932994D01*
X119021434Y-113923353D01*
X119064023Y-113900588D01*
X119108288Y-113881301D01*
X119135557Y-113862352D01*
X119164842Y-113846699D01*
X119202174Y-113816061D01*
X119208360Y-113811763D01*
X119233485Y-113790366D01*
X119290541Y-113743541D01*
X119295358Y-113737672D01*
X128875805Y-105578527D01*
X128882022Y-105574915D01*
X128937653Y-105525855D01*
X128963107Y-105504177D01*
X128968066Y-105499034D01*
X129003981Y-105467361D01*
X129024360Y-105440650D01*
X129047690Y-105416454D01*
X129073573Y-105376147D01*
X129077897Y-105370479D01*
X129095442Y-105342090D01*
X129135553Y-105279625D01*
X129138185Y-105272929D01*
X137418600Y-91874574D01*
X137552666Y-92037934D01*
X137582487Y-92062407D01*
X137513620Y-92083298D01*
X137403306Y-92142263D01*
X137306615Y-92221615D01*
X137227263Y-92318306D01*
X137168298Y-92428620D01*
X137131988Y-92548318D01*
X137119728Y-92672800D01*
X137119728Y-94372800D01*
X137131988Y-94497282D01*
X137168298Y-94616980D01*
X137227263Y-94727294D01*
X137306615Y-94823985D01*
X137403306Y-94903337D01*
X137513620Y-94962302D01*
X137633318Y-94998612D01*
X137757800Y-95010872D01*
X139457800Y-95010872D01*
X139582282Y-94998612D01*
X139701980Y-94962302D01*
X139812294Y-94903337D01*
X139908985Y-94823985D01*
X139988337Y-94727294D01*
X140047302Y-94616980D01*
X140083612Y-94497282D01*
X140095872Y-94372800D01*
X140095872Y-92672800D01*
X140083612Y-92548318D01*
X140047302Y-92428620D01*
X139988337Y-92318306D01*
X139908985Y-92221615D01*
X139812294Y-92142263D01*
X139701980Y-92083298D01*
X139633113Y-92062407D01*
X139662934Y-92037934D01*
X139848506Y-91811814D01*
X139986399Y-91553834D01*
X140071313Y-91273911D01*
X140099985Y-90982800D01*
X140071313Y-90691689D01*
X139986399Y-90411766D01*
X139866508Y-90187466D01*
X145786491Y-84267485D01*
X145786491Y-97013076D01*
X129580924Y-113218644D01*
X129577111Y-113217487D01*
X129358950Y-113196000D01*
X129213050Y-113196000D01*
X128994889Y-113217487D01*
X128714966Y-113302401D01*
X128456986Y-113440294D01*
X128230866Y-113625866D01*
X128045294Y-113851986D01*
X128010799Y-113916523D01*
X127941178Y-113799645D01*
X127746269Y-113583412D01*
X127512920Y-113409359D01*
X127250099Y-113284175D01*
X127102890Y-113239524D01*
X126873000Y-113360845D01*
X126873000Y-114554000D01*
X126893000Y-114554000D01*
X126893000Y-114808000D01*
X126873000Y-114808000D01*
X126873000Y-114828000D01*
X126619000Y-114828000D01*
X126619000Y-114808000D01*
X126599000Y-114808000D01*
X126599000Y-114554000D01*
X126619000Y-114554000D01*
X126619000Y-113360845D01*
X126389110Y-113239524D01*
X126241901Y-113284175D01*
X125979080Y-113409359D01*
X125745731Y-113583412D01*
X125669966Y-113667466D01*
X125645502Y-113586820D01*
X125586537Y-113476506D01*
X125507185Y-113379815D01*
X125472271Y-113351162D01*
X133857933Y-104965500D01*
X134246497Y-104965500D01*
X134383744Y-105057205D01*
X134572102Y-105135226D01*
X134772061Y-105175000D01*
X134975939Y-105175000D01*
X135175898Y-105135226D01*
X135364256Y-105057205D01*
X135533774Y-104943937D01*
X135677937Y-104799774D01*
X135791205Y-104630256D01*
X135869226Y-104441898D01*
X135909000Y-104241939D01*
X135909000Y-104038061D01*
X135869226Y-103838102D01*
X135791205Y-103649744D01*
X135677937Y-103480226D01*
X135533774Y-103336063D01*
X135364256Y-103222795D01*
X135175898Y-103144774D01*
X134975939Y-103105000D01*
X134772061Y-103105000D01*
X134572102Y-103144774D01*
X134383744Y-103222795D01*
X134246497Y-103314500D01*
X133556550Y-103314500D01*
X133515999Y-103310506D01*
X133475449Y-103314500D01*
X133475447Y-103314500D01*
X133354174Y-103326444D01*
X133198566Y-103373647D01*
X133105111Y-103423601D01*
X133055157Y-103450301D01*
X133018694Y-103480226D01*
X132929459Y-103553459D01*
X132903608Y-103584959D01*
X123650961Y-112837607D01*
X123619460Y-112863459D01*
X123593609Y-112894959D01*
X123516301Y-112989158D01*
X123439647Y-113132567D01*
X123421337Y-113192928D01*
X123356000Y-113192928D01*
X123231518Y-113205188D01*
X123111820Y-113241498D01*
X123001506Y-113300463D01*
X122904815Y-113379815D01*
X122825463Y-113476506D01*
X122766498Y-113586820D01*
X122730188Y-113706518D01*
X122717928Y-113831000D01*
X122717928Y-115531000D01*
X122730188Y-115655482D01*
X122766498Y-115775180D01*
X122825463Y-115885494D01*
X122904815Y-115982185D01*
X123001506Y-116061537D01*
X123111820Y-116120502D01*
X123180687Y-116141393D01*
X123150866Y-116165866D01*
X122965294Y-116391986D01*
X122827401Y-116649966D01*
X122742487Y-116929889D01*
X122713815Y-117221000D01*
X122742487Y-117512111D01*
X122763642Y-117581848D01*
X122714419Y-117577000D01*
X122682000Y-117573807D01*
X122649581Y-117577000D01*
X108102000Y-117577000D01*
X108102000Y-62998429D01*
X115738000Y-62998429D01*
X115738000Y-63315571D01*
X115799871Y-63626620D01*
X115921237Y-63919621D01*
X116097431Y-64183315D01*
X116321685Y-64407569D01*
X116585379Y-64583763D01*
X116878380Y-64705129D01*
X117189429Y-64767000D01*
X117506571Y-64767000D01*
X117817620Y-64705129D01*
X118110621Y-64583763D01*
X118374315Y-64407569D01*
X118598569Y-64183315D01*
X118774763Y-63919621D01*
X118896129Y-63626620D01*
X118958000Y-63315571D01*
X118958000Y-62998429D01*
X118896129Y-62687380D01*
X118774763Y-62394379D01*
X118598569Y-62130685D01*
X118374315Y-61906431D01*
X118110621Y-61730237D01*
X117817620Y-61608871D01*
X117506571Y-61547000D01*
X117189429Y-61547000D01*
X116878380Y-61608871D01*
X116585379Y-61730237D01*
X116321685Y-61906431D01*
X116097431Y-62130685D01*
X115921237Y-62394379D01*
X115799871Y-62687380D01*
X115738000Y-62998429D01*
X108102000Y-62998429D01*
X108102000Y-61247872D01*
X122733000Y-61247872D01*
X122733000Y-61688128D01*
X122818890Y-62119925D01*
X122987369Y-62526669D01*
X123231962Y-62892729D01*
X123543271Y-63204038D01*
X123909331Y-63448631D01*
X124316075Y-63617110D01*
X124747872Y-63703000D01*
X125188128Y-63703000D01*
X125619925Y-63617110D01*
X126026669Y-63448631D01*
X126392729Y-63204038D01*
X126704038Y-62892729D01*
X126948631Y-62526669D01*
X127117110Y-62119925D01*
X127203000Y-61688128D01*
X127203000Y-61247872D01*
X127117110Y-60816075D01*
X126948631Y-60409331D01*
X126704038Y-60043271D01*
X126392729Y-59731962D01*
X126026669Y-59487369D01*
X125619925Y-59318890D01*
X125188128Y-59233000D01*
X124747872Y-59233000D01*
X124316075Y-59318890D01*
X123909331Y-59487369D01*
X123543271Y-59731962D01*
X123231962Y-60043271D01*
X122987369Y-60409331D01*
X122818890Y-60816075D01*
X122733000Y-61247872D01*
X108102000Y-61247872D01*
X108102000Y-57998429D01*
X115738000Y-57998429D01*
X115738000Y-58315571D01*
X115799871Y-58626620D01*
X115921237Y-58919621D01*
X116097431Y-59183315D01*
X116321685Y-59407569D01*
X116585379Y-59583763D01*
X116878380Y-59705129D01*
X117189429Y-59767000D01*
X117506571Y-59767000D01*
X117817620Y-59705129D01*
X118110621Y-59583763D01*
X118374315Y-59407569D01*
X118598569Y-59183315D01*
X118774763Y-58919621D01*
X118896129Y-58626620D01*
X118958000Y-58315571D01*
X118958000Y-57998429D01*
X118896129Y-57687380D01*
X118774763Y-57394379D01*
X118598569Y-57130685D01*
X118374315Y-56906431D01*
X118358704Y-56896000D01*
X126790630Y-56896000D01*
X126812062Y-57113598D01*
X126875532Y-57322834D01*
X126978604Y-57515666D01*
X127117314Y-57684686D01*
X127286334Y-57823396D01*
X127346623Y-57855621D01*
X127229226Y-57934063D01*
X127085063Y-58078226D01*
X126971795Y-58247744D01*
X126893774Y-58436102D01*
X126854000Y-58636061D01*
X126854000Y-58839939D01*
X126893774Y-59039898D01*
X126971795Y-59228256D01*
X127085063Y-59397774D01*
X127229226Y-59541937D01*
X127398744Y-59655205D01*
X127587102Y-59733226D01*
X127787061Y-59773000D01*
X127990939Y-59773000D01*
X128190898Y-59733226D01*
X128379256Y-59655205D01*
X128548774Y-59541937D01*
X128692937Y-59397774D01*
X128806205Y-59228256D01*
X128884226Y-59039898D01*
X128916428Y-58878004D01*
X129596177Y-58198256D01*
X129706000Y-58209072D01*
X129730501Y-58209072D01*
X129730501Y-58681496D01*
X129638795Y-58818744D01*
X129560774Y-59007102D01*
X129521000Y-59207061D01*
X129521000Y-59410939D01*
X129560774Y-59610898D01*
X129638795Y-59799256D01*
X129752063Y-59968774D01*
X129896226Y-60112937D01*
X130065744Y-60226205D01*
X130254102Y-60304226D01*
X130454061Y-60344000D01*
X130657939Y-60344000D01*
X130857898Y-60304226D01*
X131046256Y-60226205D01*
X131215774Y-60112937D01*
X131359937Y-59968774D01*
X131473205Y-59799256D01*
X131510591Y-59709000D01*
X131673939Y-59709000D01*
X131873898Y-59669226D01*
X132062256Y-59591205D01*
X132231774Y-59477937D01*
X132375937Y-59333774D01*
X132489205Y-59164256D01*
X132495741Y-59148477D01*
X132546063Y-59223789D01*
X132690226Y-59367952D01*
X132859744Y-59481220D01*
X133048102Y-59559241D01*
X133248061Y-59599015D01*
X133451939Y-59599015D01*
X133651898Y-59559241D01*
X133840256Y-59481220D01*
X134009774Y-59367952D01*
X134153937Y-59223789D01*
X134267205Y-59054271D01*
X134345226Y-58865913D01*
X134385000Y-58665954D01*
X134385000Y-58462076D01*
X134345226Y-58262117D01*
X134267205Y-58073759D01*
X134153937Y-57904241D01*
X134009774Y-57760078D01*
X133950820Y-57720686D01*
X133994686Y-57684686D01*
X134133396Y-57515666D01*
X134236468Y-57322834D01*
X134299938Y-57113598D01*
X134321370Y-56896000D01*
X134299938Y-56678402D01*
X134236468Y-56469166D01*
X134133396Y-56276334D01*
X133994686Y-56107314D01*
X133825666Y-55968604D01*
X133632834Y-55865532D01*
X133423598Y-55802062D01*
X133260521Y-55786000D01*
X132851479Y-55786000D01*
X132688402Y-55802062D01*
X132564495Y-55839648D01*
X132507185Y-55769815D01*
X132410494Y-55690463D01*
X132300180Y-55631498D01*
X132180482Y-55595188D01*
X132056000Y-55582928D01*
X131656000Y-55582928D01*
X131531518Y-55595188D01*
X131531000Y-55595345D01*
X131530482Y-55595188D01*
X131406000Y-55582928D01*
X131006000Y-55582928D01*
X130881518Y-55595188D01*
X130881000Y-55595345D01*
X130880482Y-55595188D01*
X130756000Y-55582928D01*
X130356000Y-55582928D01*
X130231518Y-55595188D01*
X130231000Y-55595345D01*
X130230482Y-55595188D01*
X130106000Y-55582928D01*
X129706000Y-55582928D01*
X129581518Y-55595188D01*
X129581000Y-55595345D01*
X129580482Y-55595188D01*
X129456000Y-55582928D01*
X129056000Y-55582928D01*
X128931518Y-55595188D01*
X128811820Y-55631498D01*
X128701506Y-55690463D01*
X128604815Y-55769815D01*
X128547505Y-55839648D01*
X128423598Y-55802062D01*
X128260521Y-55786000D01*
X127851479Y-55786000D01*
X127688402Y-55802062D01*
X127479166Y-55865532D01*
X127286334Y-55968604D01*
X127117314Y-56107314D01*
X126978604Y-56276334D01*
X126875532Y-56469166D01*
X126812062Y-56678402D01*
X126790630Y-56896000D01*
X118358704Y-56896000D01*
X118110621Y-56730237D01*
X117817620Y-56608871D01*
X117506571Y-56547000D01*
X117189429Y-56547000D01*
X116878380Y-56608871D01*
X116585379Y-56730237D01*
X116321685Y-56906431D01*
X116097431Y-57130685D01*
X115921237Y-57394379D01*
X115799871Y-57687380D01*
X115738000Y-57998429D01*
X108102000Y-57998429D01*
X108102000Y-53865248D01*
X125921000Y-53865248D01*
X125921000Y-54526751D01*
X125937423Y-54693498D01*
X126002324Y-54907446D01*
X126107716Y-55104623D01*
X126249551Y-55277449D01*
X126422377Y-55419284D01*
X126619553Y-55524676D01*
X126833501Y-55589577D01*
X127056000Y-55611491D01*
X127278498Y-55589577D01*
X127492446Y-55524676D01*
X127689623Y-55419284D01*
X127862449Y-55277449D01*
X128004284Y-55104623D01*
X128109676Y-54907447D01*
X128174577Y-54693499D01*
X128191000Y-54526752D01*
X128191000Y-53865249D01*
X128191000Y-53865248D01*
X132921000Y-53865248D01*
X132921000Y-54526751D01*
X132937423Y-54693498D01*
X133002324Y-54907446D01*
X133107716Y-55104623D01*
X133249551Y-55277449D01*
X133422377Y-55419284D01*
X133619553Y-55524676D01*
X133833501Y-55589577D01*
X134056000Y-55611491D01*
X134278498Y-55589577D01*
X134492446Y-55524676D01*
X134689623Y-55419284D01*
X134862449Y-55277449D01*
X135004284Y-55104623D01*
X135109676Y-54907447D01*
X135174577Y-54693499D01*
X135191000Y-54526752D01*
X135191000Y-53865249D01*
X135174577Y-53698502D01*
X135109676Y-53484554D01*
X135004284Y-53287377D01*
X134862449Y-53114551D01*
X134689623Y-52972716D01*
X134492447Y-52867324D01*
X134278499Y-52802423D01*
X134056000Y-52780509D01*
X133833502Y-52802423D01*
X133619554Y-52867324D01*
X133422378Y-52972716D01*
X133249552Y-53114551D01*
X133107717Y-53287377D01*
X133002324Y-53484553D01*
X132937423Y-53698501D01*
X132921000Y-53865248D01*
X128191000Y-53865248D01*
X128174577Y-53698502D01*
X128109676Y-53484554D01*
X128004284Y-53287377D01*
X127862449Y-53114551D01*
X127689623Y-52972716D01*
X127492447Y-52867324D01*
X127278499Y-52802423D01*
X127056000Y-52780509D01*
X126833502Y-52802423D01*
X126619554Y-52867324D01*
X126422378Y-52972716D01*
X126249552Y-53114551D01*
X126107717Y-53287377D01*
X126002324Y-53484553D01*
X125937423Y-53698501D01*
X125921000Y-53865248D01*
X108102000Y-53865248D01*
X108102000Y-50952000D01*
X188443001Y-50952000D01*
X188443001Y-53345066D01*
G36*
X149288501Y-109894066D02*
G01*
X146567569Y-112614999D01*
X145807051Y-112614999D01*
X145766500Y-112611005D01*
X145725950Y-112614999D01*
X145725948Y-112614999D01*
X145604675Y-112626943D01*
X145449067Y-112674146D01*
X145305659Y-112750800D01*
X145179960Y-112853958D01*
X145154103Y-112885465D01*
X144820963Y-113218605D01*
X144820957Y-113218610D01*
X144820923Y-113218644D01*
X144817111Y-113217487D01*
X144634893Y-113199540D01*
X149288501Y-108545933D01*
X149288501Y-109894066D01*
X149288501Y-109894066D01*
G37*
X149288501Y-109894066D02*
X146567569Y-112614999D01*
X145807051Y-112614999D01*
X145766500Y-112611005D01*
X145725950Y-112614999D01*
X145725948Y-112614999D01*
X145604675Y-112626943D01*
X145449067Y-112674146D01*
X145305659Y-112750800D01*
X145179960Y-112853958D01*
X145154103Y-112885465D01*
X144820963Y-113218605D01*
X144820957Y-113218610D01*
X144820923Y-113218644D01*
X144817111Y-113217487D01*
X144634893Y-113199540D01*
X149288501Y-108545933D01*
X149288501Y-109894066D01*
G36*
X166052500Y-62132991D02*
G01*
X166052501Y-93626237D01*
X166036898Y-93619774D01*
X165976030Y-93607667D01*
X166008000Y-93446939D01*
X166008000Y-93243061D01*
X165968226Y-93043102D01*
X165890205Y-92854744D01*
X165776937Y-92685226D01*
X165632774Y-92541063D01*
X165463256Y-92427795D01*
X165274898Y-92349774D01*
X165074939Y-92310000D01*
X164927331Y-92310000D01*
X164952226Y-92249898D01*
X164992000Y-92049939D01*
X164992000Y-91846061D01*
X164952226Y-91646102D01*
X164874205Y-91457744D01*
X164760937Y-91288226D01*
X164616774Y-91144063D01*
X164447256Y-91030795D01*
X164258898Y-90952774D01*
X164058939Y-90913000D01*
X163855061Y-90913000D01*
X163655102Y-90952774D01*
X163466744Y-91030795D01*
X163297226Y-91144063D01*
X163153063Y-91288226D01*
X163039795Y-91457744D01*
X162961774Y-91646102D01*
X162922000Y-91846061D01*
X162922000Y-92049939D01*
X162961774Y-92249898D01*
X163039795Y-92438256D01*
X163131500Y-92575503D01*
X163131501Y-97915616D01*
X163020102Y-97937774D01*
X162831744Y-98015795D01*
X162662226Y-98129063D01*
X162518063Y-98273226D01*
X162404795Y-98442744D01*
X162326774Y-98631102D01*
X162287000Y-98831061D01*
X162287000Y-99034939D01*
X162326774Y-99234898D01*
X162404795Y-99423256D01*
X162518063Y-99592774D01*
X162662226Y-99736937D01*
X162831744Y-99850205D01*
X163020102Y-99928226D01*
X163220061Y-99968000D01*
X163423939Y-99968000D01*
X163538001Y-99945312D01*
X163538001Y-100031940D01*
X163577775Y-100231899D01*
X163655796Y-100420257D01*
X163769064Y-100589775D01*
X163913227Y-100733938D01*
X164082745Y-100847206D01*
X164271103Y-100925227D01*
X164397592Y-100950387D01*
X164358774Y-101044102D01*
X164319000Y-101244061D01*
X164319000Y-101447939D01*
X164358774Y-101647898D01*
X164436795Y-101836256D01*
X164550063Y-102005774D01*
X164673428Y-102129139D01*
X163689996Y-103112571D01*
X163528102Y-103144774D01*
X163339744Y-103222795D01*
X163170226Y-103336063D01*
X163026063Y-103480226D01*
X162912795Y-103649744D01*
X162896212Y-103689779D01*
X160798799Y-101592367D01*
X160798799Y-95010872D01*
X162063800Y-95010872D01*
X162188282Y-94998612D01*
X162307980Y-94962302D01*
X162418294Y-94903337D01*
X162514985Y-94823985D01*
X162594337Y-94727294D01*
X162653302Y-94616980D01*
X162689612Y-94497282D01*
X162701872Y-94372800D01*
X162701872Y-92672800D01*
X162689612Y-92548318D01*
X162653302Y-92428620D01*
X162594337Y-92318306D01*
X162514985Y-92221615D01*
X162418294Y-92142263D01*
X162307980Y-92083298D01*
X162239113Y-92062407D01*
X162268934Y-92037934D01*
X162454506Y-91811814D01*
X162592399Y-91553834D01*
X162677313Y-91273911D01*
X162705985Y-90982800D01*
X162677313Y-90691689D01*
X162592399Y-90411766D01*
X162454506Y-90153786D01*
X162268934Y-89927666D01*
X162042814Y-89742094D01*
X161988009Y-89712800D01*
X162042814Y-89683506D01*
X162268934Y-89497934D01*
X162454506Y-89271814D01*
X162592399Y-89013834D01*
X162677313Y-88733911D01*
X162705985Y-88442800D01*
X162677313Y-88151689D01*
X162592399Y-87871766D01*
X162454506Y-87613786D01*
X162268934Y-87387666D01*
X162042814Y-87202094D01*
X161978277Y-87167599D01*
X162095155Y-87097978D01*
X162311388Y-86903069D01*
X162485441Y-86669720D01*
X162610625Y-86406899D01*
X162655276Y-86259690D01*
X162533955Y-86029800D01*
X161340800Y-86029800D01*
X161340800Y-86049800D01*
X161086800Y-86049800D01*
X161086800Y-86029800D01*
X161066800Y-86029800D01*
X161066800Y-85775800D01*
X161086800Y-85775800D01*
X161086800Y-85755800D01*
X161340800Y-85755800D01*
X161340800Y-85775800D01*
X162533955Y-85775800D01*
X162655276Y-85545910D01*
X162610625Y-85398701D01*
X162485441Y-85135880D01*
X162311388Y-84902531D01*
X162095155Y-84707622D01*
X161978277Y-84638001D01*
X162042814Y-84603506D01*
X162268934Y-84417934D01*
X162454506Y-84191814D01*
X162592399Y-83933834D01*
X162677313Y-83653911D01*
X162705985Y-83362800D01*
X162677313Y-83071689D01*
X162592399Y-82791766D01*
X162454506Y-82533786D01*
X162268934Y-82307666D01*
X162042814Y-82122094D01*
X161988009Y-82092800D01*
X162042814Y-82063506D01*
X162268934Y-81877934D01*
X162454506Y-81651814D01*
X162592399Y-81393834D01*
X162677313Y-81113911D01*
X162705985Y-80822800D01*
X162677313Y-80531689D01*
X162592399Y-80251766D01*
X162454506Y-79993786D01*
X162268934Y-79767666D01*
X162042814Y-79582094D01*
X161988009Y-79552800D01*
X162042814Y-79523506D01*
X162268934Y-79337934D01*
X162454506Y-79111814D01*
X162592399Y-78853834D01*
X162677313Y-78573911D01*
X162705985Y-78282800D01*
X162677313Y-77991689D01*
X162592399Y-77711766D01*
X162454506Y-77453786D01*
X162268934Y-77227666D01*
X162042814Y-77042094D01*
X161988009Y-77012800D01*
X162042814Y-76983506D01*
X162268934Y-76797934D01*
X162454506Y-76571814D01*
X162592399Y-76313834D01*
X162677313Y-76033911D01*
X162705985Y-75742800D01*
X162677313Y-75451689D01*
X162592399Y-75171766D01*
X162454506Y-74913786D01*
X162268934Y-74687666D01*
X162042814Y-74502094D01*
X161988009Y-74472800D01*
X162042814Y-74443506D01*
X162268934Y-74257934D01*
X162454506Y-74031814D01*
X162592399Y-73773834D01*
X162677313Y-73493911D01*
X162705985Y-73202800D01*
X162677313Y-72911689D01*
X162592399Y-72631766D01*
X162454506Y-72373786D01*
X162268934Y-72147666D01*
X162042814Y-71962094D01*
X161988009Y-71932800D01*
X162042814Y-71903506D01*
X162268934Y-71717934D01*
X162454506Y-71491814D01*
X162592399Y-71233834D01*
X162677313Y-70953911D01*
X162705985Y-70662800D01*
X162677313Y-70371689D01*
X162592399Y-70091766D01*
X162454506Y-69833786D01*
X162268934Y-69607666D01*
X162042814Y-69422094D01*
X161988009Y-69392800D01*
X162042814Y-69363506D01*
X162268934Y-69177934D01*
X162454506Y-68951814D01*
X162592399Y-68693834D01*
X162677313Y-68413911D01*
X162705985Y-68122800D01*
X162677313Y-67831689D01*
X162592399Y-67551766D01*
X162454506Y-67293786D01*
X162268934Y-67067666D01*
X162042814Y-66882094D01*
X161988009Y-66852800D01*
X162042814Y-66823506D01*
X162268934Y-66637934D01*
X162454506Y-66411814D01*
X162592399Y-66153834D01*
X162677313Y-65873911D01*
X162705985Y-65582800D01*
X162677313Y-65291689D01*
X162592399Y-65011766D01*
X162454506Y-64753786D01*
X162268934Y-64527666D01*
X162042814Y-64342094D01*
X161988009Y-64312800D01*
X162042814Y-64283506D01*
X162268934Y-64097934D01*
X162454506Y-63871814D01*
X162592399Y-63613834D01*
X162677313Y-63333911D01*
X162705985Y-63042800D01*
X162677313Y-62751689D01*
X162592399Y-62471766D01*
X162454506Y-62213786D01*
X162268934Y-61987666D01*
X162042814Y-61802094D01*
X161988009Y-61772800D01*
X162042814Y-61743506D01*
X162268934Y-61557934D01*
X162454506Y-61331814D01*
X162592399Y-61073834D01*
X162677313Y-60793911D01*
X162705985Y-60502800D01*
X162677313Y-60211689D01*
X162592399Y-59931766D01*
X162454506Y-59673786D01*
X162268934Y-59447666D01*
X162042814Y-59262094D01*
X161988009Y-59232800D01*
X162042814Y-59203506D01*
X162268934Y-59017934D01*
X162454506Y-58791814D01*
X162543962Y-58624453D01*
X166052500Y-62132991D01*
X166052500Y-62132991D01*
G37*
X166052500Y-62132991D02*
X166052501Y-93626237D01*
X166036898Y-93619774D01*
X165976030Y-93607667D01*
X166008000Y-93446939D01*
X166008000Y-93243061D01*
X165968226Y-93043102D01*
X165890205Y-92854744D01*
X165776937Y-92685226D01*
X165632774Y-92541063D01*
X165463256Y-92427795D01*
X165274898Y-92349774D01*
X165074939Y-92310000D01*
X164927331Y-92310000D01*
X164952226Y-92249898D01*
X164992000Y-92049939D01*
X164992000Y-91846061D01*
X164952226Y-91646102D01*
X164874205Y-91457744D01*
X164760937Y-91288226D01*
X164616774Y-91144063D01*
X164447256Y-91030795D01*
X164258898Y-90952774D01*
X164058939Y-90913000D01*
X163855061Y-90913000D01*
X163655102Y-90952774D01*
X163466744Y-91030795D01*
X163297226Y-91144063D01*
X163153063Y-91288226D01*
X163039795Y-91457744D01*
X162961774Y-91646102D01*
X162922000Y-91846061D01*
X162922000Y-92049939D01*
X162961774Y-92249898D01*
X163039795Y-92438256D01*
X163131500Y-92575503D01*
X163131501Y-97915616D01*
X163020102Y-97937774D01*
X162831744Y-98015795D01*
X162662226Y-98129063D01*
X162518063Y-98273226D01*
X162404795Y-98442744D01*
X162326774Y-98631102D01*
X162287000Y-98831061D01*
X162287000Y-99034939D01*
X162326774Y-99234898D01*
X162404795Y-99423256D01*
X162518063Y-99592774D01*
X162662226Y-99736937D01*
X162831744Y-99850205D01*
X163020102Y-99928226D01*
X163220061Y-99968000D01*
X163423939Y-99968000D01*
X163538001Y-99945312D01*
X163538001Y-100031940D01*
X163577775Y-100231899D01*
X163655796Y-100420257D01*
X163769064Y-100589775D01*
X163913227Y-100733938D01*
X164082745Y-100847206D01*
X164271103Y-100925227D01*
X164397592Y-100950387D01*
X164358774Y-101044102D01*
X164319000Y-101244061D01*
X164319000Y-101447939D01*
X164358774Y-101647898D01*
X164436795Y-101836256D01*
X164550063Y-102005774D01*
X164673428Y-102129139D01*
X163689996Y-103112571D01*
X163528102Y-103144774D01*
X163339744Y-103222795D01*
X163170226Y-103336063D01*
X163026063Y-103480226D01*
X162912795Y-103649744D01*
X162896212Y-103689779D01*
X160798799Y-101592367D01*
X160798799Y-95010872D01*
X162063800Y-95010872D01*
X162188282Y-94998612D01*
X162307980Y-94962302D01*
X162418294Y-94903337D01*
X162514985Y-94823985D01*
X162594337Y-94727294D01*
X162653302Y-94616980D01*
X162689612Y-94497282D01*
X162701872Y-94372800D01*
X162701872Y-92672800D01*
X162689612Y-92548318D01*
X162653302Y-92428620D01*
X162594337Y-92318306D01*
X162514985Y-92221615D01*
X162418294Y-92142263D01*
X162307980Y-92083298D01*
X162239113Y-92062407D01*
X162268934Y-92037934D01*
X162454506Y-91811814D01*
X162592399Y-91553834D01*
X162677313Y-91273911D01*
X162705985Y-90982800D01*
X162677313Y-90691689D01*
X162592399Y-90411766D01*
X162454506Y-90153786D01*
X162268934Y-89927666D01*
X162042814Y-89742094D01*
X161988009Y-89712800D01*
X162042814Y-89683506D01*
X162268934Y-89497934D01*
X162454506Y-89271814D01*
X162592399Y-89013834D01*
X162677313Y-88733911D01*
X162705985Y-88442800D01*
X162677313Y-88151689D01*
X162592399Y-87871766D01*
X162454506Y-87613786D01*
X162268934Y-87387666D01*
X162042814Y-87202094D01*
X161978277Y-87167599D01*
X162095155Y-87097978D01*
X162311388Y-86903069D01*
X162485441Y-86669720D01*
X162610625Y-86406899D01*
X162655276Y-86259690D01*
X162533955Y-86029800D01*
X161340800Y-86029800D01*
X161340800Y-86049800D01*
X161086800Y-86049800D01*
X161086800Y-86029800D01*
X161066800Y-86029800D01*
X161066800Y-85775800D01*
X161086800Y-85775800D01*
X161086800Y-85755800D01*
X161340800Y-85755800D01*
X161340800Y-85775800D01*
X162533955Y-85775800D01*
X162655276Y-85545910D01*
X162610625Y-85398701D01*
X162485441Y-85135880D01*
X162311388Y-84902531D01*
X162095155Y-84707622D01*
X161978277Y-84638001D01*
X162042814Y-84603506D01*
X162268934Y-84417934D01*
X162454506Y-84191814D01*
X162592399Y-83933834D01*
X162677313Y-83653911D01*
X162705985Y-83362800D01*
X162677313Y-83071689D01*
X162592399Y-82791766D01*
X162454506Y-82533786D01*
X162268934Y-82307666D01*
X162042814Y-82122094D01*
X161988009Y-82092800D01*
X162042814Y-82063506D01*
X162268934Y-81877934D01*
X162454506Y-81651814D01*
X162592399Y-81393834D01*
X162677313Y-81113911D01*
X162705985Y-80822800D01*
X162677313Y-80531689D01*
X162592399Y-80251766D01*
X162454506Y-79993786D01*
X162268934Y-79767666D01*
X162042814Y-79582094D01*
X161988009Y-79552800D01*
X162042814Y-79523506D01*
X162268934Y-79337934D01*
X162454506Y-79111814D01*
X162592399Y-78853834D01*
X162677313Y-78573911D01*
X162705985Y-78282800D01*
X162677313Y-77991689D01*
X162592399Y-77711766D01*
X162454506Y-77453786D01*
X162268934Y-77227666D01*
X162042814Y-77042094D01*
X161988009Y-77012800D01*
X162042814Y-76983506D01*
X162268934Y-76797934D01*
X162454506Y-76571814D01*
X162592399Y-76313834D01*
X162677313Y-76033911D01*
X162705985Y-75742800D01*
X162677313Y-75451689D01*
X162592399Y-75171766D01*
X162454506Y-74913786D01*
X162268934Y-74687666D01*
X162042814Y-74502094D01*
X161988009Y-74472800D01*
X162042814Y-74443506D01*
X162268934Y-74257934D01*
X162454506Y-74031814D01*
X162592399Y-73773834D01*
X162677313Y-73493911D01*
X162705985Y-73202800D01*
X162677313Y-72911689D01*
X162592399Y-72631766D01*
X162454506Y-72373786D01*
X162268934Y-72147666D01*
X162042814Y-71962094D01*
X161988009Y-71932800D01*
X162042814Y-71903506D01*
X162268934Y-71717934D01*
X162454506Y-71491814D01*
X162592399Y-71233834D01*
X162677313Y-70953911D01*
X162705985Y-70662800D01*
X162677313Y-70371689D01*
X162592399Y-70091766D01*
X162454506Y-69833786D01*
X162268934Y-69607666D01*
X162042814Y-69422094D01*
X161988009Y-69392800D01*
X162042814Y-69363506D01*
X162268934Y-69177934D01*
X162454506Y-68951814D01*
X162592399Y-68693834D01*
X162677313Y-68413911D01*
X162705985Y-68122800D01*
X162677313Y-67831689D01*
X162592399Y-67551766D01*
X162454506Y-67293786D01*
X162268934Y-67067666D01*
X162042814Y-66882094D01*
X161988009Y-66852800D01*
X162042814Y-66823506D01*
X162268934Y-66637934D01*
X162454506Y-66411814D01*
X162592399Y-66153834D01*
X162677313Y-65873911D01*
X162705985Y-65582800D01*
X162677313Y-65291689D01*
X162592399Y-65011766D01*
X162454506Y-64753786D01*
X162268934Y-64527666D01*
X162042814Y-64342094D01*
X161988009Y-64312800D01*
X162042814Y-64283506D01*
X162268934Y-64097934D01*
X162454506Y-63871814D01*
X162592399Y-63613834D01*
X162677313Y-63333911D01*
X162705985Y-63042800D01*
X162677313Y-62751689D01*
X162592399Y-62471766D01*
X162454506Y-62213786D01*
X162268934Y-61987666D01*
X162042814Y-61802094D01*
X161988009Y-61772800D01*
X162042814Y-61743506D01*
X162268934Y-61557934D01*
X162454506Y-61331814D01*
X162592399Y-61073834D01*
X162677313Y-60793911D01*
X162705985Y-60502800D01*
X162677313Y-60211689D01*
X162592399Y-59931766D01*
X162454506Y-59673786D01*
X162268934Y-59447666D01*
X162042814Y-59262094D01*
X161988009Y-59232800D01*
X162042814Y-59203506D01*
X162268934Y-59017934D01*
X162454506Y-58791814D01*
X162543962Y-58624453D01*
X166052500Y-62132991D01*
M02*
