M48
; DRILL file {KiCad (5.1.2-1)-1} date Sunday, July 05, 2020 at 12:12:17 PM
; FORMAT={-:-/ absolute / inch / decimal}
; #@! TF.CreationDate,2020-07-05T12:12:17-04:00
; #@! TF.GenerationSoftware,Kicad,Pcbnew,(5.1.2-1)-1
FMAT,2
INCH
T1C0.0157
T2C0.0197
T3C0.0217
T4C0.0394
T5C0.0512
T6C0.1260
%
G90
G05
T1
X4.94Y-3.83
X5.035Y-2.3125
X5.14Y-2.335
X5.18Y-2.31
X5.25Y-2.3057
X5.295Y-4.46
X5.31Y-4.1
X5.34Y-4.565
X5.4Y-4.46
X5.55Y-3.98
X5.61Y-2.22
X5.7Y-4.055
X5.7308Y-2.4308
X5.7318Y-2.5332
X5.7318Y-2.6332
X5.7318Y-2.8332
X5.7342Y-2.9308
X5.7368Y-2.7332
X5.795Y-4.065
X5.825Y-4.355
X6.05Y-4.09
X6.13Y-4.2
X6.155Y-4.245
X6.175Y-3.945
X6.195Y-4.28
X6.255Y-2.355
X6.26Y-4.07
X6.295Y-4.115
X6.345Y-4.155
X6.415Y-4.13
X6.43Y-3.895
X6.45Y-4.1
X6.455Y-3.62
X6.4793Y-3.9343
X6.495Y-3.675
X6.51Y-3.99
X6.525Y-3.725
X6.6121Y-3.8679
X7.135Y-3.995
X7.145Y-4.055
X7.145Y-4.19
X7.155Y-4.115
T4
X6.947Y-2.082
X6.947Y-2.182
X6.947Y-2.282
X6.947Y-2.382
X6.947Y-2.482
X6.947Y-2.582
X6.947Y-2.682
X6.947Y-2.782
X6.947Y-2.882
X6.947Y-2.982
X6.947Y-3.082
X6.947Y-3.182
X6.947Y-3.282
X6.947Y-3.382
X6.947Y-3.482
X6.947Y-3.582
X6.947Y-3.682
X4.89Y-4.515
X4.89Y-4.615
X4.99Y-4.515
X4.99Y-4.615
X5.09Y-4.515
X5.09Y-4.615
X5.19Y-4.515
X5.19Y-4.615
X5.29Y-4.515
X5.29Y-4.615
X5.39Y-4.515
X5.39Y-4.615
X5.49Y-4.515
X5.49Y-4.615
X5.59Y-4.515
X5.59Y-4.615
X5.69Y-4.515
X5.69Y-4.615
X5.79Y-4.515
X5.79Y-4.615
X5.89Y-4.515
X5.89Y-4.615
X5.99Y-4.515
X5.99Y-4.615
X6.09Y-4.515
X6.09Y-4.615
X6.19Y-4.515
X6.19Y-4.615
X6.29Y-4.515
X6.29Y-4.615
X6.39Y-4.515
X6.39Y-4.615
X6.49Y-4.515
X6.49Y-4.615
X6.59Y-4.515
X6.59Y-4.615
X6.69Y-4.515
X6.69Y-4.615
X6.79Y-4.515
X6.79Y-4.615
X6.89Y-4.515
X6.89Y-4.615
X6.99Y-4.515
X6.99Y-4.615
X5.457Y-2.082
X5.457Y-2.182
X5.457Y-2.282
X5.457Y-2.382
X5.457Y-2.482
X5.457Y-2.582
X5.457Y-2.682
X5.457Y-2.782
X5.457Y-2.882
X5.457Y-2.982
X5.457Y-3.082
X5.457Y-3.182
X5.457Y-3.282
X5.457Y-3.382
X5.457Y-3.482
X5.457Y-3.582
X5.457Y-3.682
X6.347Y-2.082
X6.347Y-2.182
X6.347Y-2.282
X6.347Y-2.382
X6.347Y-2.482
X6.347Y-2.582
X6.347Y-2.682
X6.347Y-2.782
X6.347Y-2.882
X6.347Y-2.982
X6.347Y-3.082
X6.347Y-3.182
X6.347Y-3.282
X6.347Y-3.382
X6.347Y-3.482
X6.347Y-3.582
X6.347Y-3.682
X6.056Y-2.082
X6.056Y-2.182
X6.056Y-2.282
X6.056Y-2.382
X6.056Y-2.482
X6.056Y-2.582
X6.056Y-2.682
X6.056Y-2.782
X6.056Y-2.882
X6.056Y-2.982
X6.056Y-3.082
X6.056Y-3.182
X6.056Y-3.282
X6.056Y-3.382
X6.056Y-3.482
X6.056Y-3.582
X6.056Y-3.682
T5
X4.62Y-2.2896
X4.62Y-2.4865
X4.62Y-2.6833
X4.62Y-2.8802
X4.62Y-3.077
X4.62Y-3.2739
X4.62Y-3.4707
X4.62Y-3.6676
X4.62Y-3.8644
X4.62Y-4.0613
X4.62Y-4.2581
X4.62Y-4.455
T6
X7.255Y-4.36
X4.92Y-2.42
X4.975Y-4.06
X7.245Y-2.55
T2
G00X5.0022Y-2.1465
M15
G01X5.0022Y-2.1209
M16
G05
G00X5.2778Y-2.1465
M15
G01X5.2778Y-2.1209
M16
G05
G00X7.1022Y-2.1415
M15
G01X7.1022Y-2.1159
M16
G05
G00X7.3778Y-2.1415
M15
G01X7.3778Y-2.1159
M16
G05
T3
G00X5.0475Y-2.24
M15
G01X5.0357Y-2.24
M16
G05
G00X5.2443Y-2.24
M15
G01X5.2325Y-2.24
M16
G05
G00X7.1475Y-2.235
M15
G01X7.1357Y-2.235
M16
G05
G00X7.3443Y-2.235
M15
G01X7.3325Y-2.235
M16
G05
T0
M30
