G04 #@! TF.GenerationSoftware,KiCad,Pcbnew,(5.1.2-1)-1*
G04 #@! TF.CreationDate,2020-07-05T12:12:15-04:00*
G04 #@! TF.ProjectId,ArcadeMain,41726361-6465-44d6-9169-6e2e6b696361,rev?*
G04 #@! TF.SameCoordinates,Original*
G04 #@! TF.FileFunction,Legend,Bot*
G04 #@! TF.FilePolarity,Positive*
%FSLAX46Y46*%
G04 Gerber Fmt 4.6, Leading zero omitted, Abs format (unit mm)*
G04 Created by KiCad (PCBNEW (5.1.2-1)-1) date 2020-07-05 12:12:15*
%MOMM*%
%LPD*%
G04 APERTURE LIST*
%ADD10C,0.150000*%
%ADD11C,0.040000*%
%ADD12C,0.120000*%
G04 APERTURE END LIST*
D10*
X125326666Y-112847428D02*
X124793333Y-112847428D01*
X125060000Y-113228380D02*
X125060000Y-112466476D01*
X124126666Y-112228380D02*
X124460000Y-112228380D01*
X124493333Y-112704571D01*
X124460000Y-112656952D01*
X124393333Y-112609333D01*
X124226666Y-112609333D01*
X124160000Y-112656952D01*
X124126666Y-112704571D01*
X124093333Y-112799809D01*
X124093333Y-113037904D01*
X124126666Y-113133142D01*
X124160000Y-113180761D01*
X124226666Y-113228380D01*
X124393333Y-113228380D01*
X124460000Y-113180761D01*
X124493333Y-113133142D01*
X123860000Y-112561714D02*
X123693333Y-113228380D01*
X123526666Y-112561714D01*
X127279333Y-112276000D02*
X127346000Y-112228380D01*
X127446000Y-112228380D01*
X127546000Y-112276000D01*
X127612666Y-112371238D01*
X127646000Y-112466476D01*
X127679333Y-112656952D01*
X127679333Y-112799809D01*
X127646000Y-112990285D01*
X127612666Y-113085523D01*
X127546000Y-113180761D01*
X127446000Y-113228380D01*
X127379333Y-113228380D01*
X127279333Y-113180761D01*
X127246000Y-113133142D01*
X127246000Y-112799809D01*
X127379333Y-112799809D01*
X126946000Y-113228380D02*
X126946000Y-112228380D01*
X126546000Y-113228380D01*
X126546000Y-112228380D01*
X126212666Y-113228380D02*
X126212666Y-112228380D01*
X126046000Y-112228380D01*
X125946000Y-112276000D01*
X125879333Y-112371238D01*
X125846000Y-112466476D01*
X125812666Y-112656952D01*
X125812666Y-112799809D01*
X125846000Y-112990285D01*
X125879333Y-113085523D01*
X125946000Y-113180761D01*
X126046000Y-113228380D01*
X126212666Y-113228380D01*
D11*
X157220622Y-80265521D02*
X157103300Y-82146055D01*
X157375545Y-79197791D02*
G75*
G03X157220622Y-80265521I7817245J-1679350D01*
G01*
X157598641Y-78569249D02*
G75*
G03X157375545Y-79197791I2302412J-1171087D01*
G01*
X157937222Y-78264207D02*
G75*
G03X157598641Y-78569249I227554J-592998D01*
G01*
X159050650Y-78329845D02*
G75*
G03X157937221Y-78264207I-629173J-1196309D01*
G01*
X160636200Y-79383966D02*
G75*
G03X159050650Y-78329845I-5913990J-7175983D01*
G01*
X161945938Y-80712316D02*
G75*
G03X160636199Y-79383967I-7069908J-5660987D01*
G01*
X162098683Y-81693818D02*
G75*
G03X161945938Y-80712315I-931914J357609D01*
G01*
X162010189Y-81825833D02*
G75*
G03X162098682Y-81693818I-245327J260114D01*
G01*
X161842390Y-81955506D02*
G75*
G03X162010190Y-81825834I-573996J916180D01*
G01*
X161629147Y-82063617D02*
G75*
G03X161842390Y-81955506I-489281J1229444D01*
G01*
X161400098Y-82131487D02*
G75*
G03X161629146Y-82063616I-258684J1293423D01*
G01*
X161178425Y-82177354D02*
X161400098Y-82131487D01*
X160988617Y-82220014D02*
X161178425Y-82177354D01*
X160825251Y-82259084D02*
X160988617Y-82220014D01*
X160825251Y-82259084D02*
G75*
G03X160806400Y-82271436I7920J-32648D01*
G01*
X160806400Y-82271437D02*
G75*
G03X160797503Y-82294280I35683J-27051D01*
G01*
X160717680Y-83140968D02*
X160797503Y-82294280D01*
X160630684Y-84082728D02*
X160717680Y-83140968D01*
X150094269Y-77685144D02*
G75*
G03X149351420Y-77069465I-5927652J-6396030D01*
G01*
X150544165Y-78335008D02*
G75*
G03X150094268Y-77685144I-1692803J-691254D01*
G01*
X150616332Y-79047944D02*
G75*
G03X150544165Y-78335009I-1244731J234121D01*
G01*
X150295421Y-79584984D02*
G75*
G03X150616332Y-79047944I-569034J704430D01*
G01*
X146728996Y-76585163D02*
G75*
G03X146541115Y-76946436I3186562J-1886673D01*
G01*
X146930531Y-76305670D02*
G75*
G03X146728996Y-76585163I1445034J-1254381D01*
G01*
X147134358Y-76118038D02*
G75*
G03X146930531Y-76305670I733296J-1001114D01*
G01*
X151794479Y-79783373D02*
X151725352Y-80996436D01*
X151882219Y-78704249D02*
X151794479Y-79783373D01*
X151976421Y-77801979D02*
X151882219Y-78704249D01*
X152055115Y-77546436D02*
G75*
G03X151976421Y-77801979I639767J-336904D01*
G01*
X154388794Y-77219129D02*
G75*
G03X153526197Y-76899394I-1887836J-3769652D01*
G01*
X153526196Y-76899393D02*
G75*
G03X152717096Y-76827898I-629626J-2511394D01*
G01*
X152717096Y-76827898D02*
G75*
G03X152075077Y-77006074I115477J-1661875D01*
G01*
X152075077Y-77006074D02*
G75*
G03X151684827Y-77407015I396197J-776025D01*
G01*
X151684827Y-77407015D02*
G75*
G03X151581658Y-77753897I1051621J-501553D01*
G01*
X151466440Y-78704503D02*
X151581658Y-77753897D01*
X151361611Y-79848209D02*
X151466440Y-78704503D01*
X161785716Y-79841934D02*
G75*
G03X160597828Y-78834448I-6546317J-6514468D01*
G01*
X160597828Y-78834447D02*
G75*
G03X159273889Y-78050230I-5306936J-7449659D01*
G01*
X159273889Y-78050230D02*
G75*
G03X158206350Y-77800829I-1088696J-2250613D01*
G01*
X158206350Y-77800829D02*
G75*
G03X157647051Y-77940983I-9709J-1147300D01*
G01*
X157647051Y-77940984D02*
G75*
G03X157247272Y-78332830I492263J-902086D01*
G01*
X157247271Y-78332829D02*
G75*
G03X156979049Y-79056847I2042863J-1168500D01*
G01*
X156979049Y-79056848D02*
G75*
G03X156808418Y-80244802I12450461J-2394544D01*
G01*
X156747006Y-80974443D02*
X156808418Y-80244802D01*
X156693207Y-81803026D02*
X156747006Y-80974443D01*
X156653895Y-82601562D02*
X156693207Y-81803026D01*
X156637937Y-83230079D02*
X156653895Y-82601562D01*
X156583484Y-84594382D02*
X156637937Y-83230079D01*
X156382813Y-85144053D02*
G75*
G03X156583484Y-84594382I-856535J624164D01*
G01*
X156130117Y-85117721D02*
G75*
G03X156382813Y-85144053I133990J60170D01*
G01*
X155849980Y-84311385D02*
G75*
G03X156130117Y-85117721I4725416J1189874D01*
G01*
X155756386Y-81022293D02*
X155715612Y-82102366D01*
X155807014Y-79216707D02*
X155756386Y-81022293D01*
X155807015Y-79216706D02*
G75*
G03X155655245Y-78340050I-2572886J6039D01*
G01*
X145933702Y-77753208D02*
G75*
G03X146007188Y-77796436I73486J40847D01*
G01*
X146007188Y-77796437D02*
G75*
G03X146083866Y-77757234I0J94589D01*
G01*
X146225776Y-77546749D02*
X146083866Y-77757234D01*
X146383026Y-77272133D02*
X146225776Y-77546749D01*
X146541115Y-76946436D02*
X146383026Y-77272133D01*
X160530991Y-85196436D02*
X160630684Y-84082728D01*
X160320889Y-87208272D02*
X160530991Y-85196436D01*
X160096786Y-88312142D02*
G75*
G03X160320889Y-87208272I-6739155J1942839D01*
G01*
X159786015Y-88977968D02*
G75*
G03X160096785Y-88312142I-1961213J1320820D01*
G01*
X159319224Y-89399717D02*
G75*
G03X159786016Y-88977969I-615976J1150963D01*
G01*
X158631796Y-89582014D02*
G75*
G03X159319224Y-89399716I-41793J1544859D01*
G01*
X157901174Y-89450322D02*
G75*
G03X158631796Y-89582014I681402J1687808D01*
G01*
X155762057Y-83787679D02*
G75*
G03X155849980Y-84311385I3296226J284154D01*
G01*
X155718723Y-83031184D02*
X155762057Y-83787679D01*
X155715612Y-82102366D02*
X155718723Y-83031184D01*
X143796300Y-75426815D02*
G75*
G03X143250514Y-75642810I357933J-1701995D01*
G01*
X144341100Y-75415818D02*
G75*
G03X143796300Y-75426815I-243353J-1444405D01*
G01*
X144859664Y-75603677D02*
G75*
G03X144341100Y-75415817I-773570J-1325702D01*
G01*
X145009969Y-75742174D02*
G75*
G03X144859664Y-75603676I-390259J-272722D01*
G01*
X145193226Y-76034859D02*
G75*
G03X145009969Y-75742174I-2985357J-1665493D01*
G01*
X145374168Y-76400916D02*
G75*
G03X145193226Y-76034859I-3762432J-1632017D01*
G01*
X145525737Y-76797595D02*
G75*
G03X145374168Y-76400916I-4550571J-1511457D01*
G01*
X145663716Y-77180392D02*
X145525737Y-76797595D01*
X145804015Y-77503027D02*
X145663716Y-77180392D01*
X145933702Y-77753208D02*
X145804015Y-77503027D01*
X150109254Y-84539825D02*
G75*
G03X149809854Y-84919987I539883J-733169D01*
G01*
X149809855Y-84919988D02*
G75*
G03X149711892Y-85466280I1168462J-491461D01*
G01*
X149711891Y-85466280D02*
G75*
G03X149829559Y-86109184I2377583J102937D01*
G01*
X149829559Y-86109184D02*
G75*
G03X150317199Y-86956927I2300745J759316D01*
G01*
X150317200Y-86956926D02*
G75*
G03X151303358Y-87909621I6632810J5879043D01*
G01*
X151303357Y-87909621D02*
G75*
G03X152419688Y-88695621I5635845J6818666D01*
G01*
X152419688Y-88695621D02*
G75*
G03X153325352Y-88998569I1151769J1937999D01*
G01*
X153325353Y-88998569D02*
G75*
G03X153815091Y-89018773I392867J3577340D01*
G01*
X153815091Y-89018773D02*
G75*
G03X154119195Y-88937136I-18173J674914D01*
G01*
X155655245Y-78340050D02*
G75*
G03X155240651Y-77762340I-1222215J-439501D01*
G01*
X155240652Y-77762340D02*
G75*
G03X154388794Y-77219129I-3043824J-3833744D01*
G01*
X143250514Y-75642811D02*
G75*
G03X142730302Y-76051487I1441666J-2370556D01*
G01*
X159122391Y-76550093D02*
G75*
G03X159775326Y-76778497I1299767J2668150D01*
G01*
X159775326Y-76778497D02*
G75*
G03X160487237Y-76854603I690655J3092792D01*
G01*
X160487237Y-76854604D02*
G75*
G03X161161582Y-76760911I-17434J2599108D01*
G01*
X161161582Y-76760911D02*
G75*
G03X161894948Y-76383074I-535859J1940718D01*
G01*
X163085212Y-75344676D02*
X161894948Y-76383074D01*
X164510323Y-73915724D02*
X163085212Y-75344676D01*
X166112732Y-72123937D02*
X164510323Y-73915724D01*
X167542769Y-70638111D02*
G75*
G03X166112732Y-72123937I12328124J-13296317D01*
G01*
X168818565Y-69724218D02*
G75*
G03X167542769Y-70638111I2968616J-5491641D01*
G01*
X170011182Y-69321548D02*
G75*
G03X168818565Y-69724218I576882J-3676058D01*
G01*
X171180618Y-69384391D02*
G75*
G03X170011182Y-69321548I-732613J-2720725D01*
G01*
X171832473Y-69631668D02*
G75*
G03X171180618Y-69384391I-1563923J-3139888D01*
G01*
X172521918Y-70034435D02*
G75*
G03X171832474Y-69631668I-3363964J-4966862D01*
G01*
X173140411Y-70516923D02*
G75*
G03X172521918Y-70034435I-3895139J-4355442D01*
G01*
X173574248Y-71005551D02*
G75*
G03X173140411Y-70516923I-2330921J-1632639D01*
G01*
X173957998Y-71829324D02*
G75*
G03X173574247Y-71005551I-2520602J-672939D01*
G01*
X118990859Y-80601283D02*
G75*
G03X117621506Y-80998399I350634J-3768563D01*
G01*
X120578144Y-80673504D02*
G75*
G03X118990859Y-80601283I-1053186J-5668179D01*
G01*
X122365462Y-81221458D02*
G75*
G03X120578144Y-80673504I-3291443J-7547127D01*
G01*
X124330851Y-82245045D02*
G75*
G03X122365463Y-81221458I-8398489J-13727263D01*
G01*
X126033108Y-83226956D02*
X124330851Y-82245045D01*
X126033107Y-83226955D02*
G75*
G03X126988063Y-83564960I1543895J2843918D01*
G01*
X126988063Y-83564960D02*
G75*
G03X127674580Y-83472869I202601J1094612D01*
G01*
X127674581Y-83472868D02*
G75*
G03X128307574Y-82981091I-832686J1725062D01*
G01*
X128506918Y-82735578D02*
X128307574Y-82981091D01*
X128677354Y-82506949D02*
X128506918Y-82735578D01*
X128810542Y-82311838D02*
X128677354Y-82506949D01*
X128810542Y-82311837D02*
G75*
G03X128839308Y-82231091I-151337J99412D01*
G01*
X174128548Y-72904134D02*
G75*
G03X173957998Y-71829324I-5257858J-283378D01*
G01*
X174058450Y-73751106D02*
G75*
G03X174128548Y-72904134I-3049995J678812D01*
G01*
X173731675Y-73926538D02*
G75*
G03X174058450Y-73751106I87735J228633D01*
G01*
X173731676Y-73926538D02*
G75*
G03X173315214Y-73923993I-211609J-551442D01*
G01*
X173315214Y-73923992D02*
G75*
G03X172607137Y-74242230I1975410J-5342128D01*
G01*
X172607137Y-74242230D02*
G75*
G03X171886814Y-74697566I2748016J-5144684D01*
G01*
X171886814Y-74697566D02*
G75*
G03X171357519Y-75194683I1845867J-2495686D01*
G01*
X171357518Y-75194682D02*
G75*
G03X170323816Y-76891648I5007878J-4213859D01*
G01*
X170323817Y-76891649D02*
G75*
G03X170016407Y-78618134I3733579J-1555393D01*
G01*
X170016407Y-78618134D02*
G75*
G03X170483616Y-80005242I2622355J111032D01*
G01*
X124711238Y-79209571D02*
X124043159Y-79040483D01*
X124711238Y-79209570D02*
G75*
G03X124949609Y-79138846I53987J255108D01*
G01*
X124949610Y-79138846D02*
G75*
G03X125010562Y-79016001I-151926J151925D01*
G01*
X125118833Y-78194589D02*
X125010562Y-79016001D01*
X125228926Y-77232348D02*
X125118833Y-78194589D01*
X125333500Y-76116544D02*
X125228926Y-77232348D01*
X125543325Y-74147624D02*
X125333500Y-76116544D01*
X125796765Y-73068922D02*
G75*
G03X125543325Y-74147624I5049028J-1755388D01*
G01*
X126168397Y-72451793D02*
G75*
G03X125796765Y-73068921I1280295J-1191451D01*
G01*
X126725353Y-72113150D02*
G75*
G03X126168398Y-72451793I321578J-1156215D01*
G01*
X163141691Y-66269567D02*
G75*
G03X162641426Y-66546436I511851J-1515233D01*
G01*
X163681717Y-66205506D02*
G75*
G03X163141691Y-66269567I-118017J-1313334D01*
G01*
X164192670Y-66364591D02*
G75*
G03X163681717Y-66205506I-624653J-1106195D01*
G01*
X164610837Y-66723408D02*
G75*
G03X164192671Y-66364590I-1116891J-878548D01*
G01*
X164902903Y-67207412D02*
G75*
G03X164610836Y-66723408I-2094435J-933742D01*
G01*
X165003514Y-67670764D02*
G75*
G03X164902904Y-67207412I-1161450J-9593D01*
G01*
X164913766Y-68165082D02*
G75*
G03X165003514Y-67670764I-1255256J483210D01*
G01*
X164627545Y-68746437D02*
G75*
G03X164913766Y-68165082I-3076720J1875914D01*
G01*
X164392454Y-69080802D02*
G75*
G03X164627544Y-68746436I-2440353J1965613D01*
G01*
X164174611Y-69270443D02*
G75*
G03X164392455Y-69080803I-422887J705724D01*
G01*
X163913566Y-69366152D02*
G75*
G03X164174610Y-69270443I-120439J732338D01*
G01*
X163542808Y-69396437D02*
G75*
G03X163913566Y-69366153I-1J2284725D01*
G01*
X162688675Y-69096805D02*
G75*
G03X163542808Y-69396436I854133J1067587D01*
G01*
X162150531Y-68312176D02*
G75*
G03X162688674Y-69096805I1560840J493652D01*
G01*
X162129333Y-67338037D02*
G75*
G03X162150532Y-68312176I1675793J-450832D01*
G01*
X162641426Y-66546436D02*
G75*
G03X162129333Y-67338037I973649J-1191302D01*
G01*
X122669741Y-60583845D02*
G75*
G03X122418318Y-60700074I1187445J-2898690D01*
G01*
X124316463Y-87065871D02*
G75*
G03X123334552Y-86361878I-3671583J-4084265D01*
G01*
X123334552Y-86361878D02*
G75*
G03X121804980Y-85634771I-6098848J-10857397D01*
G01*
X119285457Y-84693961D02*
X121804980Y-85634771D01*
X118307374Y-84339290D02*
X119285457Y-84693961D01*
X117437541Y-84002995D02*
X118307374Y-84339290D01*
X116714633Y-83706666D02*
X117437541Y-84002995D01*
X116505382Y-83579862D02*
G75*
G03X116714633Y-83706666I530136J638775D01*
G01*
X116239995Y-83044550D02*
G75*
G03X116505381Y-83579862I735570J31225D01*
G01*
X116376919Y-82304013D02*
G75*
G03X116239996Y-83044550I1547389J-669034D01*
G01*
X116877843Y-81550495D02*
G75*
G03X116376918Y-82304014I1836509J-1764136D01*
G01*
X117621507Y-80998398D02*
G75*
G03X116877843Y-81550494I1266997J-2483524D01*
G01*
X136215564Y-75421504D02*
G75*
G03X136295232Y-75229004I-1135743J582770D01*
G01*
X136295231Y-75229004D02*
G75*
G03X136354455Y-75000922I-1981214J636171D01*
G01*
X136678625Y-74323461D02*
G75*
G03X136354455Y-75000922I1170545J-976403D01*
G01*
X137238016Y-74034729D02*
G75*
G03X136678626Y-74323460I62627J-807583D01*
G01*
X138048996Y-74180909D02*
G75*
G03X137238016Y-74034729I-685041J-1477803D01*
G01*
X139111772Y-74787093D02*
G75*
G03X138048995Y-74180909I-4118860J-5986556D01*
G01*
X140241353Y-75706285D02*
G75*
G03X139111773Y-74787093I-6266797J-6547508D01*
G01*
X140871630Y-76589634D02*
G75*
G03X140241353Y-75706285I-2642226J-1218722D01*
G01*
X140868291Y-77215753D02*
G75*
G03X140871630Y-76589634I-667644J316629D01*
G01*
X140389989Y-77558309D02*
G75*
G03X140868291Y-77215752I-69621J602407D01*
G01*
X140389988Y-77558308D02*
G75*
G03X140168557Y-77601928I163255J-1412609D01*
G01*
X140168558Y-77601928D02*
G75*
G03X139945950Y-77681456I462485J-1645858D01*
G01*
X139945949Y-77681456D02*
G75*
G03X139754160Y-77782435I601099J-1374294D01*
G01*
X139754160Y-77782435D02*
G75*
G03X139630155Y-77890650I272077J-436933D01*
G01*
X139630155Y-77890651D02*
G75*
G03X139533542Y-78107604I337973J-280493D01*
G01*
X139410760Y-79010689D02*
X139533542Y-78107604D01*
X139294173Y-80092325D02*
X139410760Y-79010689D01*
X139198493Y-81323739D02*
X139294173Y-80092325D01*
X139105298Y-82561159D02*
X139198493Y-81323739D01*
X138996348Y-83661633D02*
X139105298Y-82561159D01*
X138884555Y-84581796D02*
X138996348Y-83661633D01*
X138801289Y-84841398D02*
G75*
G03X138884555Y-84581796I-667571J357274D01*
G01*
X138491569Y-85101731D02*
G75*
G03X138801290Y-84841398I-170635J517411D01*
G01*
X137951717Y-85183671D02*
G75*
G03X138491569Y-85101731I28238J1633298D01*
G01*
X137252411Y-85083017D02*
G75*
G03X137951717Y-85183671I748028J2717445D01*
G01*
X136473867Y-84801158D02*
G75*
G03X137252411Y-85083018I2175359J4792530D01*
G01*
X135784957Y-84367520D02*
G75*
G03X136473867Y-84801157I1932424J2305948D01*
G01*
X135424317Y-83842214D02*
G75*
G03X135784958Y-84367520I1123231J384689D01*
G01*
X135311141Y-83065086D02*
G75*
G03X135424316Y-83842214I2128910J-86769D01*
G01*
X135421892Y-81729561D02*
X135311142Y-83065086D01*
X135611568Y-79649118D02*
X135421892Y-81729561D01*
X135611569Y-79649118D02*
G75*
G03X135556131Y-78190389I-7675141J438734D01*
G01*
X135556131Y-78190389D02*
G75*
G03X135281956Y-77301062I-2791492J-373677D01*
G01*
X135281956Y-77301062D02*
G75*
G03X134788299Y-76996436I-493657J-247681D01*
G01*
X134788299Y-76996437D02*
G75*
G03X134444243Y-77172958I0J-423559D01*
G01*
X134444243Y-77172958D02*
G75*
G03X134219697Y-77666279I1132857J-813408D01*
G01*
X134219697Y-77666280D02*
G75*
G03X134071405Y-78629152I6025345J-1420822D01*
G01*
X133954163Y-80533803D02*
X134071405Y-78629152D01*
X133823081Y-82617897D02*
X133954163Y-80533803D01*
X133643909Y-83566323D02*
G75*
G03X133823081Y-82617897I-4204004J1285336D01*
G01*
X133333776Y-84021949D02*
G75*
G03X133643909Y-83566323I-578987J727465D01*
G01*
X132834350Y-84196437D02*
G75*
G03X133333776Y-84021950I0J801987D01*
G01*
X132112386Y-84105604D02*
G75*
G03X132834350Y-84196436I721964J2823801D01*
G01*
X131379376Y-83836462D02*
G75*
G03X132112386Y-84105605I1686669J3460890D01*
G01*
X130752447Y-83444082D02*
G75*
G03X131379376Y-83836462I2161712J2756862D01*
G01*
X130351148Y-82986247D02*
G75*
G03X130752447Y-83444081I1416326J836644D01*
G01*
X130165924Y-82564390D02*
G75*
G03X130351148Y-82986247I1844288J558174D01*
G01*
X130090843Y-82118837D02*
G75*
G03X130165924Y-82564390I1783034J71358D01*
G01*
X130105876Y-81454783D02*
G75*
G03X130090844Y-82118837I5286654J-451871D01*
G01*
X130235031Y-80084858D02*
X130105876Y-81454783D01*
X130368033Y-78460463D02*
X130235031Y-80084858D01*
X130368034Y-78460464D02*
G75*
G03X130354133Y-77412203I-7085085J430269D01*
G01*
X130354133Y-77412202D02*
G75*
G03X130202512Y-76688639I-3091803J-270212D01*
G01*
X130202513Y-76688640D02*
G75*
G03X129891980Y-76159560I-1428785J-482925D01*
G01*
X129891979Y-76159559D02*
G75*
G03X129413588Y-75938404I-499137J-451714D01*
G01*
X129413588Y-75938403D02*
G75*
G03X129047929Y-76178451I-11736J-380646D01*
G01*
X129047929Y-76178451D02*
G75*
G03X128804934Y-77176399I3437511J-1365574D01*
G01*
X128629946Y-79336430D02*
X128804934Y-77176399D01*
X128525965Y-80771598D02*
X128629946Y-79336430D01*
X128417975Y-81621619D02*
G75*
G03X128525965Y-80771598I-9636376J1656113D01*
G01*
X128278140Y-82181013D02*
G75*
G03X128417975Y-81621619I-3664515J1213218D01*
G01*
X128073379Y-82574891D02*
G75*
G03X128278140Y-82181013I-1120349J832585D01*
G01*
X127570774Y-83009816D02*
G75*
G03X128073379Y-82574891I-728698J1349964D01*
G01*
X127002319Y-83108447D02*
G75*
G03X127570774Y-83009816I136981J897965D01*
G01*
X126209634Y-82847813D02*
G75*
G03X127002319Y-83108447I1172798J2231175D01*
G01*
X124858664Y-82084500D02*
X126209634Y-82847813D01*
X123266468Y-81191003D02*
X124858664Y-82084500D01*
X123266468Y-81191003D02*
G75*
G03X121927752Y-80602573I-5260755J-10151505D01*
G01*
X121927753Y-80602574D02*
G75*
G03X120730875Y-80268796I-2728977J-7472906D01*
G01*
X120730875Y-80268796D02*
G75*
G03X119579812Y-80156752I-1152710J-5873530D01*
G01*
X119579812Y-80156752D02*
G75*
G03X118123685Y-80362627I-1443J-5242243D01*
G01*
X118123684Y-80362627D02*
G75*
G03X116911859Y-80964087I1051240J-3639570D01*
G01*
X116911860Y-80964087D02*
G75*
G03X116112297Y-81870019I1752166J-2352243D01*
G01*
X116112297Y-81870019D02*
G75*
G03X115826100Y-82952860I1914884J-1085349D01*
G01*
X115826100Y-82952860D02*
G75*
G03X116214605Y-84463521I3117463J-3552D01*
G01*
X116214605Y-84463520D02*
G75*
G03X117321146Y-85802073I4105794J2267487D01*
G01*
X117321146Y-85802073D02*
G75*
G03X119166014Y-86945965I5017574J6032696D01*
G01*
X119166015Y-86945964D02*
G75*
G03X121745706Y-87876370I7913988J17901242D01*
G01*
X121745706Y-87876371D02*
G75*
G03X124639914Y-88547295I8395928J29640117D01*
G01*
X127772797Y-88987442D02*
X124639914Y-88547295D01*
X132034609Y-89304307D02*
X127772797Y-88987442D01*
X138988306Y-89599517D02*
X132034609Y-89304307D01*
X144796281Y-89912500D02*
X138988306Y-89599517D01*
X149690535Y-90408130D02*
X144796281Y-89912500D01*
X154276488Y-91156504D02*
X149690535Y-90408130D01*
X159125352Y-92236473D02*
X154276488Y-91156504D01*
X163216288Y-93363610D02*
X159125352Y-92236473D01*
X166807488Y-94578184D02*
X163216288Y-93363610D01*
X169972901Y-95904050D02*
X166807488Y-94578184D01*
X172775678Y-97367424D02*
G75*
G03X169972901Y-95904050I-16822645J-28804389D01*
G01*
X175706276Y-99432720D02*
G75*
G03X172775678Y-97367425I-13541672J-16103396D01*
G01*
X177345705Y-101510659D02*
G75*
G03X175706275Y-99432720I-5851504J-2930958D01*
G01*
X177503547Y-103281636D02*
G75*
G03X177345705Y-101510659I-2325401J685267D01*
G01*
X176402469Y-104608110D02*
G75*
G03X177503547Y-103281635I-991282J1943069D01*
G01*
X175880990Y-104833638D02*
G75*
G03X176402469Y-104608111I-1511039J4209585D01*
G01*
X175415231Y-104947480D02*
G75*
G03X175880990Y-104833638I-307733J2268706D01*
G01*
X174846135Y-104980000D02*
G75*
G03X175415231Y-104947480I75817J3669099D01*
G01*
X173938001Y-104942399D02*
X174846135Y-104980000D01*
X172780846Y-104807573D02*
G75*
G03X173938001Y-104942399I1828282J10658270D01*
G01*
X171534478Y-104540513D02*
X172780846Y-104807573D01*
X170286900Y-104164481D02*
X171534478Y-104540513D01*
X169125353Y-103701858D02*
G75*
G03X170286900Y-104164481I5627718J12440471D01*
G01*
X168819855Y-103564583D02*
X169125352Y-103701858D01*
X168375102Y-103366532D02*
X168819855Y-103564583D01*
X167883399Y-103148577D02*
X168375102Y-103366532D01*
X167413862Y-102941472D02*
X167883399Y-103148577D01*
X166772111Y-102639916D02*
X167413862Y-102941472D01*
X148978693Y-81141057D02*
X149054857Y-80192295D01*
X148906585Y-82255480D02*
X148978693Y-81141057D01*
X148846902Y-83535731D02*
X148906585Y-82255480D01*
X148759531Y-85473742D02*
X148846902Y-83535731D01*
X148673699Y-86346578D02*
G75*
G03X148759531Y-85473742I-9174615J1342835D01*
G01*
X148544085Y-86836366D02*
G75*
G03X148673700Y-86346578I-2086013J814078D01*
G01*
X148321108Y-87128080D02*
G75*
G03X148544084Y-86836366I-394695J532764D01*
G01*
X147649187Y-87322587D02*
G75*
G03X148321109Y-87128080I74288J1001201D01*
G01*
X146659087Y-87118308D02*
G75*
G03X147649186Y-87322587I1279953J3702122D01*
G01*
X145666048Y-86632303D02*
G75*
G03X146659087Y-87118307I2474004J3797537D01*
G01*
X144965172Y-85967817D02*
G75*
G03X145666048Y-86632303I2162452J1579004D01*
G01*
X144753598Y-85565326D02*
G75*
G03X144965172Y-85967817I1467390J514496D01*
G01*
X144675130Y-85129865D02*
G75*
G03X144753598Y-85565326I1397515J27023D01*
G01*
X144704766Y-84425237D02*
G75*
G03X144675131Y-85129865I5718912J-593466D01*
G01*
X144900627Y-82629906D02*
X144704766Y-84425237D01*
X145063256Y-81038495D02*
X144900627Y-82629906D01*
X145112384Y-80007156D02*
X145063256Y-81038495D01*
X145112385Y-80007156D02*
G75*
G03X145080532Y-79342094I-6248006J34049D01*
G01*
X145080532Y-79342094D02*
G75*
G03X144919339Y-79196436I-161193J-16363D01*
G01*
X144919340Y-79196437D02*
G75*
G03X144878397Y-79211947I-1J-61791D01*
G01*
X144694348Y-79376780D02*
X144878397Y-79211947D01*
X144482059Y-79575071D02*
X144694348Y-79376780D01*
X144242185Y-79810373D02*
X144482059Y-79575071D01*
X143787868Y-80171245D02*
G75*
G03X144242185Y-79810373I-1346913J2162101D01*
G01*
X143365543Y-80307471D02*
G75*
G03X143787868Y-80171245I-61141J912300D01*
G01*
X142934575Y-80227632D02*
G75*
G03X143365543Y-80307471I371759J803645D01*
G01*
X142454517Y-79930178D02*
G75*
G03X142934575Y-80227632I1458632J1817964D01*
G01*
X141981316Y-79201187D02*
G75*
G03X142454517Y-79930178I1340663J352170D01*
G01*
X141878932Y-78102835D02*
G75*
G03X141981317Y-79201187I3371156J-239697D01*
G01*
X142141948Y-76947470D02*
G75*
G03X141878931Y-78102834I3618426J-1431349D01*
G01*
X142730302Y-76051487D02*
G75*
G03X142141948Y-76947470I1867413J-1867416D01*
G01*
X145001978Y-75322575D02*
G75*
G03X144397028Y-75042243I-1085753J-1550129D01*
G01*
X144397028Y-75042243D02*
G75*
G03X143753711Y-75002604I-421834J-1605973D01*
G01*
X143753711Y-75002604D02*
G75*
G03X143115359Y-75213064I244116J-1813771D01*
G01*
X143115360Y-75213064D02*
G75*
G03X142525968Y-75655821I1263588J-2295741D01*
G01*
X142525968Y-75655821D02*
G75*
G03X141724324Y-76876845I2543678J-2543677D01*
G01*
X141724324Y-76876845D02*
G75*
G03X141461929Y-78330530I3492919J-1381007D01*
G01*
X141461929Y-78330530D02*
G75*
G03X141784382Y-79645167I3084478J59694D01*
G01*
X141784383Y-79645167D02*
G75*
G03X142619593Y-80493458I1715220J853461D01*
G01*
X142619592Y-80493458D02*
G75*
G03X143107947Y-80670754I927563J1793705D01*
G01*
X143107946Y-80670755D02*
G75*
G03X143575336Y-80691351I291867J1309790D01*
G01*
X143575336Y-80691351D02*
G75*
G03X144026352Y-80549898I-179856J1363214D01*
G01*
X144026353Y-80549898D02*
G75*
G03X144466510Y-80249785I-1006084J1948397D01*
G01*
X144668959Y-80087893D02*
G75*
G03X144466510Y-80249785I1670344J-2296321D01*
G01*
X144741997Y-80100436D02*
G75*
G03X144668959Y-80087893I-42623J-29270D01*
G01*
X144769624Y-80207779D02*
G75*
G03X144741996Y-80100437I-160922J15808D01*
G01*
X144723103Y-80623441D02*
X144769624Y-80207779D01*
X144483370Y-82642233D02*
X144723103Y-80623441D01*
X144345343Y-84106952D02*
X144483370Y-82642233D01*
X144284223Y-85168610D02*
X144345343Y-84106952D01*
X144284223Y-85168610D02*
G75*
G03X144336279Y-85668768I1772828J-68273D01*
G01*
X144336280Y-85668769D02*
G75*
G03X144591976Y-86194150I1378488J345980D01*
G01*
X144591976Y-86194150D02*
G75*
G03X145089393Y-86698269I2361682J1832823D01*
G01*
X145089392Y-86698269D02*
G75*
G03X145783513Y-87144831I2535529J3178399D01*
G01*
X145783514Y-87144830D02*
G75*
G03X146628763Y-87497569I2780364J5473364D01*
G01*
X146628762Y-87497570D02*
G75*
G03X147914238Y-87721410I1391990J4190897D01*
G01*
X147914238Y-87721409D02*
G75*
G03X148694344Y-87365721I23678J981387D01*
G01*
X148694345Y-87365721D02*
G75*
G03X149116176Y-86368529I-1454421J1203065D01*
G01*
X149116176Y-86368529D02*
G75*
G03X149227091Y-84356368I-18480947J2027852D01*
G01*
X149237010Y-83490706D02*
X149227091Y-84356368D01*
X149265366Y-82593104D02*
X149237010Y-83490706D01*
X149306181Y-81787699D02*
X149265366Y-82593104D01*
X149354949Y-81246436D02*
X149306181Y-81787699D01*
X149438113Y-80677530D02*
X149354949Y-81246436D01*
X149533040Y-80391138D02*
G75*
G03X149438113Y-80677530I904553J-458750D01*
G01*
X149673924Y-80248716D02*
G75*
G03X149533040Y-80391138I151395J-290653D01*
G01*
X149887463Y-80196436D02*
G75*
G03X149673924Y-80248717I0J-462239D01*
G01*
X149887462Y-80196436D02*
G75*
G03X150339492Y-80092633I0J1036124D01*
G01*
X150339492Y-80092633D02*
G75*
G03X150706088Y-79801463I-468423J966131D01*
G01*
X150706088Y-79801463D02*
G75*
G03X150943806Y-79349581I-1022000J826102D01*
G01*
X150943805Y-79349580D02*
G75*
G03X151025352Y-78788711I-1888012J560867D01*
G01*
X151025353Y-78788711D02*
G75*
G03X150988077Y-78372734I-2339651J2D01*
G01*
X150988077Y-78372734D02*
G75*
G03X150874478Y-78049021I-1067765J-192915D01*
G01*
X150874478Y-78049020D02*
G75*
G03X150646947Y-77733418I-1336069J-723409D01*
G01*
X150234941Y-77328892D02*
X150646947Y-77733418D01*
X150234941Y-77328892D02*
G75*
G03X148805547Y-76168773I-11663939J-12910614D01*
G01*
X148805546Y-76168773D02*
G75*
G03X147751627Y-75677205I-1788407J-2458751D01*
G01*
X147751627Y-75677204D02*
G75*
G03X146972162Y-75772788I-265041J-1064626D01*
G01*
X146972162Y-75772788D02*
G75*
G03X146388420Y-76371289I642804J-1210876D01*
G01*
X146051488Y-77046141D02*
X146388420Y-76371289D01*
X145759547Y-76347427D02*
X146051488Y-77046141D01*
X145759546Y-76347427D02*
G75*
G03X145613659Y-76056008I-2201205J-919724D01*
G01*
X145613659Y-76056008D02*
G75*
G03X145416585Y-75758157I-2958348J-1743277D01*
G01*
X145416586Y-75758157D02*
G75*
G03X145201401Y-75497289I-2558180J-1891006D01*
G01*
X145201401Y-75497289D02*
G75*
G03X145001978Y-75322575I-902134J-828547D01*
G01*
X164533585Y-75179641D02*
G75*
G03X164122529Y-75401005I-13658J-466970D01*
G01*
X165406519Y-75295468D02*
G75*
G03X164533585Y-75179641I-998515J-4177982D01*
G01*
X166499885Y-75659385D02*
G75*
G03X165406519Y-75295468I-2639806J-6106697D01*
G01*
X167656759Y-76245665D02*
G75*
G03X166499885Y-75659385I-5375284J-9172221D01*
G01*
X168430843Y-76750508D02*
G75*
G03X167656759Y-76245665I-5661943J-7835660D01*
G01*
X168904664Y-77197733D02*
G75*
G03X168430843Y-76750508I-1936658J-1577218D01*
G01*
X169144020Y-77642501D02*
G75*
G03X168904665Y-77197733I-1277533J-400725D01*
G01*
X169190344Y-78128750D02*
G75*
G03X169144020Y-77642501I-1169617J133903D01*
G01*
X169134065Y-78417060D02*
G75*
G03X169190344Y-78128750I-1797653J500555D01*
G01*
X169037038Y-78584586D02*
G75*
G03X169134065Y-78417059I-274940J271099D01*
G01*
X168877508Y-78674238D02*
G75*
G03X169037038Y-78584586I-75865J321759D01*
G01*
X168620336Y-78706831D02*
G75*
G03X168877507Y-78674238I-25333J1230754D01*
G01*
X168620335Y-78706832D02*
G75*
G03X168410918Y-78720771I47088J-2287500D01*
G01*
X168199312Y-78753948D02*
X168410918Y-78720771D01*
X168199311Y-78753947D02*
G75*
G03X168014523Y-78799748I424615J-2108847D01*
G01*
X168014523Y-78799748D02*
G75*
G03X167896235Y-78852629I138217J-467915D01*
G01*
X167896234Y-78852629D02*
G75*
G03X167799219Y-78998448I110402J-178634D01*
G01*
X167700281Y-79691482D02*
X167799219Y-78998448D01*
X167610523Y-80565799D02*
X167700281Y-79691482D01*
X167540890Y-81642234D02*
X167610523Y-80565799D01*
X167281059Y-86123830D02*
X167540890Y-81642234D01*
X167034903Y-88681027D02*
X167281059Y-86123830D01*
X166759093Y-90272494D02*
G75*
G03X167034903Y-88681027I-17851436J3913385D01*
G01*
X166362840Y-90839303D02*
G75*
G03X166759093Y-90272494I-482963J759550D01*
G01*
X165265183Y-91011165D02*
G75*
G03X166362840Y-90839303I351688J1345035D01*
G01*
X163624405Y-90365927D02*
G75*
G03X165265183Y-91011166I3520236J6542814D01*
G01*
X162161936Y-89339577D02*
G75*
G03X163624406Y-90365927I5048090J5638013D01*
G01*
X161622039Y-88288612D02*
G75*
G03X162161936Y-89339577I1641056J178877D01*
G01*
X161583699Y-87696856D02*
G75*
G03X161622038Y-88288612I6758504J140745D01*
G01*
X161656122Y-87398034D02*
G75*
G03X161583700Y-87696856I528641J-286306D01*
G01*
X161848062Y-87245642D02*
G75*
G03X161656121Y-87398033I82559J-301058D01*
G01*
X162213549Y-87196437D02*
G75*
G03X161848062Y-87245642I-1J-1381973D01*
G01*
X162213549Y-87196436D02*
G75*
G03X162447480Y-87182208I0J1930189D01*
G01*
X162447480Y-87182208D02*
G75*
G03X162664074Y-87139626I-184334J1509744D01*
G01*
X162664074Y-87139626D02*
G75*
G03X162836310Y-87077651I-307093J1123773D01*
G01*
X162836310Y-87077651D02*
G75*
G03X162921273Y-87003038I-79594J176315D01*
G01*
X162921273Y-87003037D02*
G75*
G03X162975957Y-86845028I-325309J201051D01*
G01*
X163092164Y-85792323D02*
X162975957Y-86845028D01*
X163213713Y-84568465D02*
X163092164Y-85792323D01*
X163335184Y-83153038D02*
X163213713Y-84568465D01*
X163634736Y-79528967D02*
X163335184Y-83153038D01*
X163843529Y-77288195D02*
X163634736Y-79528967D01*
X164011107Y-75723293D02*
X163843529Y-77288195D01*
X164122528Y-75401004D02*
G75*
G03X164011107Y-75723293I662488J-409440D01*
G01*
X165825353Y-74938918D02*
G75*
G03X165335299Y-74827231I-672119J-1818137D01*
G01*
X165335298Y-74827231D02*
G75*
G03X164770988Y-74826286I-287256J-3044783D01*
G01*
X164770988Y-74826285D02*
G75*
G03X164258113Y-74922669I249070J-2738090D01*
G01*
X164258113Y-74922670D02*
G75*
G03X163939938Y-75110422I205073J-711000D01*
G01*
X163939939Y-75110422D02*
G75*
G03X163668701Y-75539592I816038J-816038D01*
G01*
X163668700Y-75539592D02*
G75*
G03X163506474Y-76193492I3221903J-1146397D01*
G01*
X163371942Y-77404145D02*
X163506474Y-76193492D01*
X163126991Y-80696436D02*
X163371942Y-77404145D01*
X162842193Y-84525844D02*
X163126991Y-80696436D01*
X162686675Y-85925201D02*
X162842193Y-84525844D01*
X162517448Y-86577570D02*
G75*
G03X162686675Y-85925201I-2890339J1097896D01*
G01*
X162251745Y-86706987D02*
G75*
G03X162517448Y-86577570I64019J206027D01*
G01*
X162251746Y-86706988D02*
G75*
G03X161735582Y-86776745I-183141J-589396D01*
G01*
X161735581Y-86776744D02*
G75*
G03X161331679Y-87239534I592846J-925060D01*
G01*
X161331679Y-87239534D02*
G75*
G03X161170061Y-87966849I1579739J-732651D01*
G01*
X161170061Y-87966850D02*
G75*
G03X161319973Y-88716076I1917820J-5876D01*
G01*
X161319972Y-88716076D02*
G75*
G03X161957495Y-89652381I2631068J1106279D01*
G01*
X161957496Y-89652381D02*
G75*
G03X163070730Y-90532826I4770666J4888019D01*
G01*
X163070730Y-90532827D02*
G75*
G03X164361194Y-91175070I3743461J5904169D01*
G01*
X164361194Y-91175070D02*
G75*
G03X165540490Y-91392044I1197685J3196311D01*
G01*
X165540490Y-91392043D02*
G75*
G03X166557327Y-91045493I8831J1639147D01*
G01*
X166557326Y-91045493D02*
G75*
G03X167177382Y-90133740I-1107027J1419572D01*
G01*
X167177382Y-90133740D02*
G75*
G03X167536809Y-88180068I-9176146J2698081D01*
G01*
X167847352Y-83546436D02*
X167536809Y-88180068D01*
X168090905Y-79196436D02*
X167847352Y-83546436D01*
X168618129Y-79196436D02*
X168090905Y-79196436D01*
X168618129Y-79196437D02*
G75*
G03X169079376Y-79125303I0J1530985D01*
G01*
X169079377Y-79125303D02*
G75*
G03X169391061Y-78916702I-201789J638660D01*
G01*
X169391061Y-78916702D02*
G75*
G03X169568724Y-78549138I-640091J536108D01*
G01*
X169568723Y-78549139D02*
G75*
G03X169625352Y-77993855I-2694150J555284D01*
G01*
X169625353Y-77993855D02*
G75*
G03X169594304Y-77626448I-2189314J1D01*
G01*
X169594304Y-77626448D02*
G75*
G03X169501006Y-77316073I-1297986J-220960D01*
G01*
X169501006Y-77316073D02*
G75*
G03X169332756Y-77032813I-1252906J-552601D01*
G01*
X169332756Y-77032813D02*
G75*
G03X169075352Y-76746849I-1998644J-1540198D01*
G01*
X169075353Y-76746849D02*
G75*
G03X168570071Y-76355596I-2150595J-2255476D01*
G01*
X167649003Y-75813550D02*
X168570071Y-76355596D01*
X166653245Y-75293423D02*
X167649003Y-75813550D01*
X166653244Y-75293422D02*
G75*
G03X165825352Y-74938917I-3921799J-8014801D01*
G01*
X169214809Y-106002441D02*
G75*
G03X169046678Y-106286397I1498928J-1079271D01*
G01*
X169405016Y-105812951D02*
G75*
G03X169214809Y-106002440I480111J-672135D01*
G01*
X169643535Y-105696508D02*
G75*
G03X169405015Y-105812951I228012J-769567D01*
G01*
X169958420Y-105635131D02*
G75*
G03X169643535Y-105696508I162775J-1673539D01*
G01*
X170981259Y-106006477D02*
G75*
G03X169958420Y-105635131I-900532J-886104D01*
G01*
X171643886Y-107168893D02*
G75*
G03X170981259Y-106006477I-2523003J-668150D01*
G01*
X171613801Y-108436753D02*
G75*
G03X171643886Y-107168893I-2168095J685734D01*
G01*
X170882624Y-109125033D02*
G75*
G03X171613801Y-108436754I-250690J998829D01*
G01*
X170062372Y-108994787D02*
G75*
G03X170882624Y-109125032I562717J895859D01*
G01*
X169319085Y-108261286D02*
G75*
G03X170062372Y-108994787I2027850J1311554D01*
G01*
X168916279Y-107229648D02*
G75*
G03X169319084Y-108261286I2722010J468357D01*
G01*
X169046678Y-106286397D02*
G75*
G03X168916279Y-107229648I1418508J-676739D01*
G01*
X122764675Y-93934981D02*
X121699714Y-95007870D01*
X123691892Y-93060369D02*
X122764675Y-93934981D01*
X124469347Y-92374130D02*
X123691892Y-93060369D01*
X124725352Y-92269047D02*
G75*
G03X124469347Y-92374130I29947J-437341D01*
G01*
X124942728Y-92268588D02*
G75*
G03X124725352Y-92269047I-105224J-1638357D01*
G01*
X125301602Y-92297409D02*
X124942728Y-92268588D01*
X125713165Y-92343903D02*
X125301602Y-92297409D01*
X126125352Y-92404059D02*
X125713165Y-92343903D01*
X126125353Y-92404059D02*
G75*
G03X126775811Y-92477689I1087189J6694454D01*
G01*
X128476602Y-92580626D02*
X126775811Y-92477689D01*
X130507639Y-92684561D02*
X128476602Y-92580626D01*
X132725352Y-92777084D02*
X130507639Y-92684561D01*
X136533094Y-92943565D02*
X132725352Y-92777084D01*
X139185990Y-93121796D02*
X136533094Y-92943565D01*
X141401994Y-93359556D02*
X139185990Y-93121796D01*
X143718256Y-93706774D02*
X141401994Y-93359556D01*
X146566608Y-94289807D02*
X143718256Y-93706774D01*
X149501104Y-95086418D02*
X146566608Y-94289807D01*
X152430521Y-96068864D02*
X149501104Y-95086418D01*
X155263871Y-97209372D02*
X152430521Y-96068864D01*
X157379593Y-98212808D02*
X155263871Y-97209372D01*
X160944501Y-100066946D02*
X157379593Y-98212808D01*
X164902026Y-102163162D02*
X160944501Y-100066946D01*
X165024236Y-102368409D02*
G75*
G03X164902026Y-102163162I-230089J2005D01*
G01*
X165015097Y-102450610D02*
G75*
G03X165024237Y-102368409I-396918J85739D01*
G01*
X164967083Y-102664453D02*
X165015098Y-102450610D01*
X164904808Y-102918997D02*
X164967083Y-102664453D01*
X164831236Y-103196436D02*
X164904808Y-102918997D01*
X164831235Y-103196437D02*
G75*
G03X164744987Y-103612093I3253825J-891942D01*
G01*
X164635901Y-104436210D02*
X164744987Y-103612093D01*
X164527753Y-105411125D02*
X164635901Y-104436210D01*
X164435722Y-106433964D02*
X164527753Y-105411125D01*
X164333624Y-107467849D02*
X164435722Y-106433964D01*
X164195982Y-108467537D02*
X164333624Y-107467849D01*
X164044695Y-109317585D02*
X164195982Y-108467537D01*
X163905179Y-109788531D02*
G75*
G03X164044695Y-109317585I-2465826J986626D01*
G01*
X163249808Y-110844404D02*
G75*
G03X163905180Y-109788531I-2660241J2382518D01*
G01*
X162239916Y-111678652D02*
G75*
G03X163249808Y-110844405I-2255433J3758681D01*
G01*
X160970342Y-112213811D02*
G75*
G03X162239916Y-111678652I-1243069J4722474D01*
G01*
X159559108Y-112396437D02*
G75*
G03X160970343Y-112213811I5J5543915D01*
G01*
X159057331Y-112366831D02*
G75*
G03X159559108Y-112396436I501778J4237601D01*
G01*
X158679487Y-112273486D02*
G75*
G03X159057330Y-112366832I562361J1464936D01*
G01*
X158331889Y-112088713D02*
G75*
G03X158679488Y-112273487I926983J1324511D01*
G01*
X157924667Y-111769006D02*
G75*
G03X158331889Y-112088713I3109850J3541923D01*
G01*
X157193498Y-110978069D02*
G75*
G03X157924667Y-111769006I4150344J3103295D01*
G01*
X156596291Y-110011109D02*
G75*
G03X157193498Y-110978070I5730625J2871407D01*
G01*
X155999635Y-108624320D02*
G75*
G03X156596291Y-110011109I12200187J4427301D01*
G01*
X155230614Y-106392333D02*
X155999634Y-108624320D01*
X154417517Y-104045492D02*
X155230614Y-106392333D01*
X154417517Y-104045491D02*
G75*
G03X153757415Y-102521229I-13653390J-5007716D01*
G01*
X153757416Y-102521230D02*
G75*
G03X153131221Y-101505994I-6142665J-3088040D01*
G01*
X153131221Y-101505994D02*
G75*
G03X152445776Y-100852796I-2245945J-1670583D01*
G01*
X152445775Y-100852797D02*
G75*
G03X151387049Y-100443194I-1435761J-2138026D01*
G01*
X151387049Y-100443193D02*
G75*
G03X150144798Y-100473479I-533594J-3605477D01*
G01*
X150144798Y-100473479D02*
G75*
G03X148859978Y-100940553I872039J-4399457D01*
G01*
X148859979Y-100940554D02*
G75*
G03X147682730Y-101796899I2759175J-5030512D01*
G01*
X147682730Y-101796899D02*
G75*
G03X147033204Y-102499847I4777079J-5065594D01*
G01*
X147033204Y-102499847D02*
G75*
G03X146397614Y-103373149I8772729J-7052739D01*
G01*
X145694320Y-104533087D02*
X146397614Y-103373149D01*
X144822051Y-106152334D02*
X145694320Y-104533087D01*
X143915918Y-107778423D02*
X144822051Y-106152334D01*
X143140669Y-108884096D02*
G75*
G03X143915918Y-107778423I-7070084J5781848D01*
G01*
X142373022Y-109652224D02*
G75*
G03X143140670Y-108884097I-3459881J4225369D01*
G01*
X141507912Y-110204879D02*
G75*
G03X142373022Y-109652224I-1905521J3936282D01*
G01*
X140068246Y-110568904D02*
G75*
G03X141507912Y-110204879I-163643J3676027D01*
G01*
X138343072Y-110420700D02*
G75*
G03X140068246Y-110568905I1428583J6514338D01*
G01*
X136779894Y-109850151D02*
G75*
G03X138343073Y-110420699I2896355J5508735D01*
G01*
X135831434Y-108960042D02*
G75*
G03X136779893Y-109850152I2084731J1271019D01*
G01*
X135507552Y-108081994D02*
G75*
G03X135831434Y-108960042I2395025J384684D01*
G01*
X135433912Y-106895649D02*
G75*
G03X135507553Y-108081994I6116208J-215803D01*
G01*
X135600271Y-105377946D02*
G75*
G03X135433912Y-106895649I10165584J-1882243D01*
G01*
X136025352Y-103464094D02*
X135600271Y-105377946D01*
X136254980Y-102511294D02*
X136025352Y-103464094D01*
X136448883Y-101559341D02*
X136254980Y-102511294D01*
X136587553Y-100728270D02*
X136448883Y-101559341D01*
X136587553Y-100728270D02*
G75*
G03X136624605Y-100224843I-3364325J500689D01*
G01*
X136624605Y-100224843D02*
G75*
G03X136272919Y-98769897I-3196086J-2572D01*
G01*
X136272920Y-98769896D02*
G75*
G03X135308380Y-97737051I-2293973J-1175466D01*
G01*
X135308380Y-97737051D02*
G75*
G03X133842500Y-97291169I-1618531J-2688521D01*
G01*
X133842500Y-97291169D02*
G75*
G03X132092217Y-97496279I-260455J-5347912D01*
G01*
X132092217Y-97496279D02*
G75*
G03X131482229Y-97720131I1297176J-4477776D01*
G01*
X130533744Y-98166079D02*
X131482229Y-97720131D01*
X129468079Y-98715187D02*
X130533744Y-98166079D01*
X128425352Y-99301766D02*
X129468079Y-98715187D01*
X126240920Y-100534474D02*
X128425352Y-99301766D01*
X124815155Y-101192737D02*
G75*
G03X126240920Y-100534474I-4406094J11416583D01*
G01*
X123691773Y-101500645D02*
G75*
G03X124815155Y-101192736I-960391J5707148D01*
G01*
X122590838Y-101553526D02*
G75*
G03X123691773Y-101500646I328807J4641230D01*
G01*
X121580270Y-101360663D02*
G75*
G03X122590838Y-101553526I1319726J4171094D01*
G01*
X120584833Y-100931153D02*
G75*
G03X121580270Y-101360663I2618579J4700585D01*
G01*
X119737180Y-100334911D02*
G75*
G03X120584833Y-100931154I3259490J3733221D01*
G01*
X119168497Y-99647028D02*
G75*
G03X119737179Y-100334911I2385885J1393431D01*
G01*
X118920227Y-98823199D02*
G75*
G03X119168497Y-99647027I1837852J104536D01*
G01*
X119098321Y-98031718D02*
G75*
G03X118920226Y-98823199I1296847J-707587D01*
G01*
X119840213Y-96989586D02*
G75*
G03X119098321Y-98031718I3979960J-3618470D01*
G01*
X121699714Y-95007870D02*
X119840213Y-96989586D01*
X182802606Y-85497843D02*
X181896042Y-86355514D01*
X183320504Y-85160552D02*
G75*
G03X182802606Y-85497843I806574J-1804716D01*
G01*
X183835689Y-85058139D02*
G75*
G03X183320504Y-85160552I-32897J-1181532D01*
G01*
X184625353Y-85135714D02*
G75*
G03X183835690Y-85058140I-947335J-5585409D01*
G01*
X186008184Y-85519885D02*
G75*
G03X184625352Y-85135714I-2550255J-6498840D01*
G01*
X186963391Y-86138989D02*
G75*
G03X186008185Y-85519885I-1996002J-2033162D01*
G01*
X187509403Y-87009531D02*
G75*
G03X186963391Y-86138989I-2095553J-707848D01*
G01*
X187680914Y-88135422D02*
G75*
G03X187509403Y-87009531I-3277514J76734D01*
G01*
X187555143Y-89080597D02*
G75*
G03X187680914Y-88135422I-4260382J1047867D01*
G01*
X187229057Y-89866873D02*
G75*
G03X187555143Y-89080597I-2404078J1457777D01*
G01*
X186694705Y-90497200D02*
G75*
G03X187229058Y-89866873I-1709809J1991132D01*
G01*
X185954666Y-90982246D02*
G75*
G03X186694704Y-90497200I-1494515J3087259D01*
G01*
X185139690Y-91339814D02*
X185954666Y-90982246D01*
X184722784Y-91381551D02*
G75*
G03X185139690Y-91339814I134856J756030D01*
G01*
X184499914Y-91186612D02*
G75*
G03X184722785Y-91381551I273258J87539D01*
G01*
X184425353Y-90709456D02*
G75*
G03X184499915Y-91186611I1564035J-1D01*
G01*
X184425352Y-90709457D02*
G75*
G03X184281712Y-89675140I-3795727J3D01*
G01*
X184281712Y-89675140D02*
G75*
G03X183859934Y-88875254I-2094107J-593074D01*
G01*
X183859934Y-88875254D02*
G75*
G03X183190512Y-88374288I-1386294J-1154707D01*
G01*
X183190512Y-88374287D02*
G75*
G03X182332141Y-88196436I-858369J-1982460D01*
G01*
X182332141Y-88196436D02*
G75*
G03X181638044Y-88277384I3J-3016320D01*
G01*
X181638044Y-88277383D02*
G75*
G03X181098797Y-88519003I361784J-1529989D01*
G01*
X181098797Y-88519003D02*
G75*
G03X180624458Y-88977732I1198945J-1714350D01*
G01*
X180624459Y-88977732D02*
G75*
G03X180120603Y-89743094I5957767J-4470663D01*
G01*
X179518159Y-90659952D02*
G75*
G03X180120603Y-89743094I-7244441J5416496D01*
G01*
X178832525Y-91455910D02*
G75*
G03X179518158Y-90659952I-5410771J5354088D01*
G01*
X178153638Y-92045839D02*
G75*
G03X178832525Y-91455909I-3572407J4796694D01*
G01*
X177585306Y-92305232D02*
G75*
G03X178153638Y-92045839I-318508J1450161D01*
G01*
X176705226Y-92221067D02*
G75*
G03X177585307Y-92305232I570717J1324357D01*
G01*
X176124588Y-91640263D02*
G75*
G03X176705225Y-92221067I1020246J439315D01*
G01*
X176072406Y-90772689D02*
G75*
G03X176124589Y-91640264I1227389J-361531D01*
G01*
X176575353Y-89959770D02*
G75*
G03X176072406Y-90772689I1231017J-1323664D01*
G01*
X176894556Y-89707531D02*
G75*
G03X176575352Y-89959769I1405530J-2106775D01*
G01*
X177463165Y-89343887D02*
X176894556Y-89707532D01*
X178134184Y-88950832D02*
X177463165Y-89343887D01*
X178825352Y-88581429D02*
X178134184Y-88950832D01*
X179679812Y-88106835D02*
X178825352Y-88581429D01*
X180447642Y-87598434D02*
X179679812Y-88106835D01*
X181172050Y-87025153D02*
X180447642Y-87598434D01*
X181896042Y-86355514D02*
X181172050Y-87025153D01*
X117133604Y-74490203D02*
G75*
G03X116018820Y-74846436I558728J-3670870D01*
G01*
X118283739Y-74507915D02*
G75*
G03X117133604Y-74490204I-627779J-3414229D01*
G01*
X119814832Y-74945849D02*
G75*
G03X118283739Y-74507914I-3021744J-7669081D01*
G01*
X122370175Y-76014275D02*
X119814832Y-74945849D01*
X124814997Y-77096436D02*
X122370175Y-76014275D01*
X124820175Y-77834633D02*
X124814997Y-77096436D01*
X124807055Y-78126580D02*
G75*
G03X124820175Y-77834633I-2802299J272198D01*
G01*
X124763360Y-78393357D02*
G75*
G03X124807055Y-78126580I-2011253J466385D01*
G01*
X124698833Y-78604244D02*
G75*
G03X124763360Y-78393358I-1491777J571773D01*
G01*
X124619494Y-78700058D02*
G75*
G03X124698833Y-78604244I-102226J165405D01*
G01*
X124469977Y-78720769D02*
G75*
G03X124619493Y-78700058I51313J179607D01*
G01*
X123961764Y-78565069D02*
X124469977Y-78720769D01*
X123352751Y-78345935D02*
X123961764Y-78565069D01*
X122669493Y-78061861D02*
X123352751Y-78345935D01*
X121564452Y-77605892D02*
X122669493Y-78061861D01*
X121564452Y-77605892D02*
G75*
G03X120861606Y-77403472I-1489108J-3849079D01*
G01*
X120861605Y-77403472D02*
G75*
G03X120100467Y-77318150I-912335J-4701132D01*
G01*
X118725352Y-77296436D02*
X120100467Y-77318150D01*
X117171719Y-77361580D02*
X118725352Y-77296436D01*
X117171719Y-77361580D02*
G75*
G03X116066401Y-77574913I441819J-5259243D01*
G01*
X116066401Y-77574913D02*
G75*
G03X115157879Y-77987627I1137929J-3711303D01*
G01*
X115157879Y-77987628D02*
G75*
G03X114248787Y-78669007I3411109J-5498220D01*
G01*
X113772221Y-79096436D02*
X114248787Y-78669007D01*
X113906172Y-78296436D02*
X113772221Y-79096436D01*
X113995269Y-77912751D02*
G75*
G03X113906172Y-78296436I3032292J-906327D01*
G01*
X114160488Y-77408311D02*
X113995269Y-77912751D01*
X114365829Y-76876181D02*
X114160488Y-77408311D01*
X114583827Y-76396436D02*
X114365829Y-76876181D01*
X114899323Y-75823481D02*
G75*
G03X114583827Y-76396436I6307597J-3846597D01*
G01*
X115198040Y-75428291D02*
G75*
G03X114899323Y-75823481I1827292J-1691711D01*
G01*
X115548053Y-75125473D02*
G75*
G03X115198040Y-75428291I1187458J-1726211D01*
G01*
X116018820Y-74846436D02*
G75*
G03X115548052Y-75125472I1828276J-3621163D01*
G01*
X172744622Y-74618908D02*
G75*
G03X172037615Y-75109151I1544665J-2982574D01*
G01*
X173473073Y-74398071D02*
G75*
G03X172744622Y-74618908I230712J-2072868D01*
G01*
X174171998Y-74463837D02*
G75*
G03X173473073Y-74398070I-507882J-1650681D01*
G01*
X174796293Y-74802105D02*
G75*
G03X174171998Y-74463837I-1154862J-1386148D01*
G01*
X174796293Y-74802105D02*
G75*
G03X175067988Y-74988168I1120959J1345456D01*
G01*
X175067987Y-74988168D02*
G75*
G03X175332176Y-75087006I462853J834684D01*
G01*
X175332177Y-75087006D02*
G75*
G03X175639653Y-75111855I249484J1172330D01*
G01*
X175639652Y-75111854D02*
G75*
G03X176051041Y-75069130I-181752J3752045D01*
G01*
X177607540Y-75104585D02*
G75*
G03X176051041Y-75069130I-874934J-4226800D01*
G01*
X179385359Y-75675906D02*
G75*
G03X177607541Y-75104585I-3552847J-8003888D01*
G01*
X181033485Y-76626701D02*
G75*
G03X179385359Y-75675907I-5313634J-7306918D01*
G01*
X182205775Y-77801150D02*
G75*
G03X181033484Y-76626701I-4282120J-3101957D01*
G01*
X183148922Y-79758240D02*
G75*
G03X182205775Y-77801150I-5915839J-1645116D01*
G01*
X183397305Y-81994320D02*
G75*
G03X183148922Y-79758240I-7025536J351439D01*
G01*
X182927266Y-84185851D02*
G75*
G03X183397305Y-81994320I-6499412J2540167D01*
G01*
X181794914Y-86014559D02*
G75*
G03X182927266Y-84185851I-4406421J3993428D01*
G01*
X181209332Y-86578106D02*
G75*
G03X181794914Y-86014559I-3826357J4561978D01*
G01*
X180479649Y-87133047D02*
G75*
G03X181209332Y-86578107I-5444679J7916342D01*
G01*
X179545943Y-87723775D02*
X180479649Y-87133046D01*
X178325352Y-88400843D02*
X179545943Y-87723775D01*
X178325352Y-88400843D02*
G75*
G03X176690656Y-89377494I8681681J-16387594D01*
G01*
X176690655Y-89377494D02*
G75*
G03X175822124Y-90224466I1854945J-2770967D01*
G01*
X175822124Y-90224466D02*
G75*
G03X175565740Y-91054586I1143509J-807827D01*
G01*
X175565741Y-91054586D02*
G75*
G03X175822517Y-91943694I1765018J28109D01*
G01*
X175822517Y-91943693D02*
G75*
G03X176036759Y-92236309I1811994J1101937D01*
G01*
X176036759Y-92236309D02*
G75*
G03X176278229Y-92454804I1044537J911693D01*
G01*
X176278229Y-92454804D02*
G75*
G03X176559307Y-92607361I770404J1084216D01*
G01*
X176559308Y-92607361D02*
G75*
G03X176891517Y-92703284I665997J1683309D01*
G01*
X176891517Y-92703284D02*
G75*
G03X177763442Y-92663971I352201J1877401D01*
G01*
X177763442Y-92663971D02*
G75*
G03X178604287Y-92245021I-688584J2435283D01*
G01*
X178604287Y-92245021D02*
G75*
G03X179469456Y-91391077I-2834897J3737406D01*
G01*
X179469457Y-91391077D02*
G75*
G03X180427455Y-90021208I-12754757J9939774D01*
G01*
X181015346Y-89230355D02*
G75*
G03X180427455Y-90021208I4597182J-4031312D01*
G01*
X181608954Y-88747541D02*
G75*
G03X181015346Y-89230355I1126138J-1990879D01*
G01*
X182222483Y-88558870D02*
G75*
G03X181608954Y-88747541I122266J-1489473D01*
G01*
X182867395Y-88641062D02*
G75*
G03X182222483Y-88558870I-516535J-1481735D01*
G01*
X183741788Y-89484883D02*
G75*
G03X182867395Y-88641062I-1351885J-525918D01*
G01*
X183976248Y-91032354D02*
G75*
G03X183741788Y-89484882I-3566848J251079D01*
G01*
X183518520Y-92865363D02*
G75*
G03X183976248Y-91032355I-4971885J2215204D01*
G01*
X182457431Y-94465086D02*
G75*
G03X183518520Y-92865363I-4228309J3956387D01*
G01*
X181625991Y-95173646D02*
G75*
G03X182457432Y-94465086I-2710718J4022917D01*
G01*
X180654624Y-95680737D02*
G75*
G03X181625990Y-95173646I-1772395J4579045D01*
G01*
X179492800Y-96002501D02*
G75*
G03X180654624Y-95680737I-1036663J6001613D01*
G01*
X178087945Y-96156370D02*
G75*
G03X179492801Y-96002501I-537817J11400655D01*
G01*
X175996527Y-96064679D02*
G75*
G03X178087945Y-96156369I1548378J11419901D01*
G01*
X174122052Y-95586667D02*
G75*
G03X175996527Y-96064680I3007738J7880243D01*
G01*
X172429912Y-94702611D02*
G75*
G03X174122052Y-95586667I4612326J6766825D01*
G01*
X170880161Y-93405298D02*
G75*
G03X172429912Y-94702611I7326337J7177621D01*
G01*
X169998921Y-92362826D02*
G75*
G03X170880161Y-93405298I7532754J5474004D01*
G01*
X169476158Y-91388490D02*
G75*
G03X169998921Y-92362825I3822123J1423287D01*
G01*
X169209056Y-90254802D02*
G75*
G03X169476158Y-91388490I4641428J495233D01*
G01*
X169126667Y-88696436D02*
G75*
G03X169209056Y-90254803I14597671J-9598D01*
G01*
X169146248Y-87630151D02*
X169126667Y-88696436D01*
X169211401Y-86910390D02*
G75*
G03X169146248Y-87630151I6599711J-960241D01*
G01*
X169338529Y-86339001D02*
G75*
G03X169211401Y-86910390I3767383J-1138036D01*
G01*
X169551212Y-85778558D02*
G75*
G03X169338529Y-86339001I3928437J-1811384D01*
G01*
X170297062Y-84579054D02*
G75*
G03X169551212Y-85778558I4429192J-3585700D01*
G01*
X171306977Y-83616502D02*
G75*
G03X170297061Y-84579054I3209123J-4378115D01*
G01*
X172771724Y-82745832D02*
G75*
G03X171306977Y-83616502I3777855J-8022985D01*
G01*
X174972561Y-81804746D02*
X172771724Y-82745832D01*
X174972561Y-81804746D02*
G75*
G03X176125478Y-81292314I-4525655J11735426D01*
G01*
X176125479Y-81292314D02*
G75*
G03X176865514Y-80783710I-1520490J3005054D01*
G01*
X176865513Y-80783710D02*
G75*
G03X177279331Y-80228239I-1201730J1327150D01*
G01*
X177279331Y-80228239D02*
G75*
G03X177425352Y-79583750I-1349266J644488D01*
G01*
X177425352Y-79583750D02*
G75*
G03X177173106Y-78785832I-1388129J0D01*
G01*
X177173106Y-78785832D02*
G75*
G03X176538196Y-78411971I-729120J-512180D01*
G01*
X176538196Y-78411971D02*
G75*
G03X175571375Y-78572401I-193986J-1824415D01*
G01*
X175571375Y-78572400D02*
G75*
G03X174437799Y-79266089I2453075J-5281687D01*
G01*
X173438019Y-80016147D02*
X174437799Y-79266089D01*
X172817996Y-80380226D02*
G75*
G03X173438019Y-80016147I-1645582J3512390D01*
G01*
X172324455Y-80520227D02*
G75*
G03X172817995Y-80380227I-182258J1582446D01*
G01*
X171816060Y-80494395D02*
G75*
G03X172324455Y-80520227I331555J1509557D01*
G01*
X170783888Y-79747557D02*
G75*
G03X171816059Y-80494395I1374874J813473D01*
G01*
X170428077Y-78333922D02*
G75*
G03X170783888Y-79747557I2566575J-105592D01*
G01*
X170882052Y-76612505D02*
G75*
G03X170428077Y-78333922I3681910J-1891571D01*
G01*
X172037615Y-75109151D02*
G75*
G03X170882053Y-76612505I3535479J-3913359D01*
G01*
X126901159Y-72070338D02*
X126725352Y-72113151D01*
X127098905Y-72033776D02*
X126901159Y-72070338D01*
X127288202Y-72008015D02*
X127098905Y-72033776D01*
X127435319Y-71999167D02*
G75*
G03X127288202Y-72008015I12671J-1438209D01*
G01*
X127921211Y-72125935D02*
G75*
G03X127435319Y-71999168I-477415J-835324D01*
G01*
X128641444Y-72597057D02*
G75*
G03X127921211Y-72125934I-4278423J-5754578D01*
G01*
X129363028Y-73207828D02*
G75*
G03X128641444Y-72597058I-5194135J-5404891D01*
G01*
X129908010Y-73837571D02*
G75*
G03X129363028Y-73207827I-3688664J-2641493D01*
G01*
X130277346Y-74336859D02*
X129908010Y-73837571D01*
X130277346Y-74336860D02*
G75*
G03X130445051Y-74476808I392352J299712D01*
G01*
X130445051Y-74476808D02*
G75*
G03X130586044Y-74461506I58831J115140D01*
G01*
X130586045Y-74461506D02*
G75*
G03X130761807Y-74273824I-632142J768135D01*
G01*
X131171758Y-73735562D02*
X130761807Y-74273824D01*
X131486069Y-73409329D02*
G75*
G03X131171758Y-73735562I1691504J-1944216D01*
G01*
X131787405Y-73206518D02*
G75*
G03X131486069Y-73409329I665578J-1314184D01*
G01*
X132139808Y-73074937D02*
G75*
G03X131787405Y-73206518I411685J-1640281D01*
G01*
X132750677Y-73069245D02*
G75*
G03X132139808Y-73074937I-293629J-1269675D01*
G01*
X133446932Y-73332515D02*
G75*
G03X132750677Y-73069245I-1322838J-2446128D01*
G01*
X134198077Y-73849474D02*
G75*
G03X133446932Y-73332514I-2781150J-3236830D01*
G01*
X134972838Y-74607007D02*
G75*
G03X134198077Y-73849475I-6266949J-5634526D01*
G01*
X135327211Y-74986088D02*
X134972838Y-74607007D01*
X135655880Y-75305792D02*
X135327211Y-74986088D01*
X135938579Y-75555860D02*
X135655880Y-75305792D01*
X135938579Y-75555860D02*
G75*
G03X136048886Y-75596436I110307J129648D01*
G01*
X136048886Y-75596437D02*
G75*
G03X136128661Y-75557518I0J101220D01*
G01*
X136128660Y-75557517D02*
G75*
G03X136215564Y-75421504I-674300J526601D01*
G01*
X127331416Y-88549581D02*
X130112245Y-88778382D01*
X125515446Y-88279545D02*
X127331416Y-88549581D01*
X124970353Y-87887290D02*
G75*
G03X125515446Y-88279545I688134J381391D01*
G01*
X124970351Y-87887292D02*
G75*
G03X124316463Y-87065871I-2774847J-1537933D01*
G01*
X172075352Y-82611188D02*
G75*
G03X171232224Y-83194915I3881694J-6507439D01*
G01*
X171232224Y-83194915D02*
G75*
G03X170448962Y-83903382I5313005J-6661128D01*
G01*
X170448961Y-83903382D02*
G75*
G03X169774759Y-84687300I5858002J-5720004D01*
G01*
X169774759Y-84687300D02*
G75*
G03X169258073Y-85496436I4864148J-3675615D01*
G01*
X169258072Y-85496436D02*
G75*
G03X168962907Y-86135994I5447592J-2902038D01*
G01*
X168962907Y-86135994D02*
G75*
G03X168810187Y-86687534I2536177J-999176D01*
G01*
X168810187Y-86687534D02*
G75*
G03X168742348Y-87395404I5056488J-841776D01*
G01*
X168725352Y-88696436D02*
X168742348Y-87395404D01*
X168742256Y-90033794D02*
X168725352Y-88696436D01*
X168742256Y-90033794D02*
G75*
G03X168812514Y-90724817I4569864J115546D01*
G01*
X168812515Y-90724818D02*
G75*
G03X168976265Y-91270932I2467898J442383D01*
G01*
X168976264Y-91270932D02*
G75*
G03X169308316Y-91948601I6890275J2955986D01*
G01*
X169308316Y-91948601D02*
G75*
G03X170303884Y-93350593I6757408J3744022D01*
G01*
X170303884Y-93350592D02*
G75*
G03X171632369Y-94577765I7034907J6283024D01*
G01*
X171632369Y-94577766D02*
G75*
G03X173222583Y-95568496I6130147J8067867D01*
G01*
X173222583Y-95568495D02*
G75*
G03X174994384Y-96269003I4852018J9681285D01*
G01*
X175564949Y-96482787D02*
G75*
G03X174994384Y-96269003I-1808171J-3957527D01*
G01*
X176103364Y-96775178D02*
G75*
G03X175564949Y-96482787I-2386875J-3753323D01*
G01*
X176664815Y-97180526D02*
G75*
G03X176103364Y-96775178I-3718255J-4558682D01*
G01*
X177309564Y-97741308D02*
X176664815Y-97180526D01*
X177860574Y-98242027D02*
X177309564Y-97741308D01*
X178486929Y-98792117D02*
X177860574Y-98242027D01*
X179091630Y-99308182D02*
X178486929Y-98792117D01*
X179567704Y-99696436D02*
X179091630Y-99308182D01*
X179986156Y-100047629D02*
X179567704Y-99696436D01*
X156068173Y-58680129D02*
X155517778Y-59239286D01*
X156558904Y-58259743D02*
G75*
G03X156068173Y-58680129I3618178J-4720236D01*
G01*
X156999041Y-57966682D02*
G75*
G03X156558903Y-58259743I1977977J-3447706D01*
G01*
X157392601Y-57802190D02*
G75*
G03X156999042Y-57966682I457912J-1648640D01*
G01*
X154180968Y-61079598D02*
X153401903Y-62515736D01*
X154825225Y-60086268D02*
G75*
G03X154180968Y-61079598I9895910J-7123914D01*
G01*
X155517778Y-59239286D02*
G75*
G03X154825225Y-60086268I6533695J-6049049D01*
G01*
X165545372Y-102019601D02*
X166772111Y-102639916D01*
X164107532Y-101277098D02*
X165545372Y-102019601D01*
X162613862Y-100489816D02*
X164107532Y-101277098D01*
X158539210Y-98353821D02*
X162613862Y-100489816D01*
X155799435Y-97007844D02*
X158539210Y-98353821D01*
X153576082Y-96045828D02*
X155799435Y-97007844D01*
X151308273Y-95213910D02*
X153576082Y-96045828D01*
X151308273Y-95213910D02*
G75*
G03X147113059Y-94017230I-15320264J-45756446D01*
G01*
X142598423Y-93129829D02*
X147113059Y-94017230D01*
X137945572Y-92580168D02*
X142598423Y-93129829D01*
X170483616Y-80005242D02*
G75*
G03X171595314Y-80811066I1709080J1188061D01*
G01*
X171942828Y-80942593D02*
G75*
G03X171595314Y-80811066I-1102088J-2387024D01*
G01*
X172235237Y-81112403D02*
G75*
G03X171942828Y-80942593I-1050779J-1472752D01*
G01*
X172459875Y-81311675D02*
G75*
G03X172235237Y-81112403I-1049516J-956860D01*
G01*
X172604879Y-81531370D02*
G75*
G03X172459875Y-81311675I-771563J-351547D01*
G01*
X172777725Y-81948638D02*
X172604879Y-81531370D01*
X172769334Y-82119734D02*
G75*
G03X172777725Y-81948638I-194305J95284D01*
G01*
X172639200Y-82264756D02*
G75*
G03X172769333Y-82119734I-191525J302758D01*
G01*
X172075352Y-82611188D02*
X172639200Y-82264756D01*
X121699451Y-62679732D02*
G75*
G03X122349223Y-63904568I2955107J782908D01*
G01*
X121734398Y-61502333D02*
G75*
G03X121699450Y-62679731I1965007J-647544D01*
G01*
X122418318Y-60700074D02*
G75*
G03X121734398Y-61502334I640574J-1238732D01*
G01*
X158146234Y-57641219D02*
G75*
G03X157392601Y-57802190I952083J-6302126D01*
G01*
X158753545Y-57623818D02*
G75*
G03X158146234Y-57641219I-232278J-2499856D01*
G01*
X159338634Y-57752584D02*
G75*
G03X158753545Y-57623818I-809202J-2283222D01*
G01*
X133561154Y-84486864D02*
G75*
G03X133741585Y-84299088I-279118J448774D01*
G01*
X133741584Y-84299088D02*
G75*
G03X133933034Y-83908900I-3132113J1778864D01*
G01*
X133933035Y-83908900D02*
G75*
G03X134051794Y-83506136I-1780095J743771D01*
G01*
X134169163Y-82760748D02*
X134051794Y-83506136D01*
X134268508Y-81878908D02*
X134169163Y-82760748D01*
X134332711Y-80958900D02*
X134268508Y-81878908D01*
X134434944Y-79182106D02*
X134332711Y-80958900D01*
X134539279Y-78156299D02*
X134434944Y-79182106D01*
X134657577Y-77528753D02*
G75*
G03X134539279Y-78156299I6351279J-1522197D01*
G01*
X134825352Y-77396437D02*
G75*
G03X134657577Y-77528753I0J-172526D01*
G01*
X135060684Y-77593834D02*
G75*
G03X134825352Y-77396436I-235332J-41579D01*
G01*
X135161555Y-78458248D02*
G75*
G03X135060684Y-77593834I-7404066J-425908D01*
G01*
X135165697Y-79676138D02*
G75*
G03X135161554Y-78458249I-11255991J570661D01*
G01*
X135046061Y-81233342D02*
X135165697Y-79676138D01*
X134914452Y-83046268D02*
X135046061Y-81233342D01*
X134914452Y-83046267D02*
G75*
G03X135039206Y-83999470I2799801J-118331D01*
G01*
X135039206Y-83999470D02*
G75*
G03X135450404Y-84621189I1279268J399255D01*
G01*
X135450404Y-84621189D02*
G75*
G03X136267090Y-85145685I2357484J2772734D01*
G01*
X137267374Y-85565918D02*
X136267090Y-85145685D01*
X137267374Y-85565918D02*
G75*
G03X137940941Y-85713921I854381J2281600D01*
G01*
X137940941Y-85713921D02*
G75*
G03X138451074Y-85635789I85365J1147069D01*
G01*
X138451074Y-85635790D02*
G75*
G03X138898458Y-85341513I-489057J1230720D01*
G01*
X138898458Y-85341512D02*
G75*
G03X139166137Y-84987660I-1142260J1142258D01*
G01*
X139166137Y-84987660D02*
G75*
G03X139323586Y-84578388I-1346471J752915D01*
G01*
X139323586Y-84578389D02*
G75*
G03X139420564Y-83945547I-4303341J983309D01*
G01*
X139507332Y-82676846D02*
X139420564Y-83945547D01*
X139565797Y-81754077D02*
X139507332Y-82676846D01*
X139638436Y-80784432D02*
X139565797Y-81754077D01*
X139713760Y-79905025D02*
X139638436Y-80784432D01*
X139778651Y-79296436D02*
X139713760Y-79905025D01*
X139882106Y-78566163D02*
X139778651Y-79296436D01*
X139986884Y-78265180D02*
G75*
G03X139882106Y-78566163I797841J-446472D01*
G01*
X140162712Y-78112214D02*
G75*
G03X139986883Y-78265180I125152J-321395D01*
G01*
X140486169Y-78032108D02*
G75*
G03X140162712Y-78112214I148088J-1291049D01*
G01*
X140486168Y-78032109D02*
G75*
G03X141160286Y-77654369I-113997J993828D01*
G01*
X141160285Y-77654369D02*
G75*
G03X141350320Y-76916850I-750381J586591D01*
G01*
X141350319Y-76916850D02*
G75*
G03X140931053Y-75925656I-2225786J-357218D01*
G01*
X140931053Y-75925656D02*
G75*
G03X139991144Y-74947672I-4382190J-3270934D01*
G01*
X139991144Y-74947672D02*
G75*
G03X138670297Y-74024190I-7176786J-8858544D01*
G01*
X138670297Y-74024190D02*
G75*
G03X137597666Y-73632766I-1556613J-2600237D01*
G01*
X137597666Y-73632765D02*
G75*
G03X136782785Y-73757798I-214033J-1323018D01*
G01*
X136782785Y-73757798D02*
G75*
G03X136206104Y-74335341I579392J-1155209D01*
G01*
X135886856Y-74974245D02*
X136206104Y-74335341D01*
X135006104Y-74069300D02*
X135886856Y-74974245D01*
X135006104Y-74069300D02*
G75*
G03X134189421Y-73304673I-8632064J-8401285D01*
G01*
X134189421Y-73304673D02*
G75*
G03X133521227Y-72862982I-2136053J-2505169D01*
G01*
X133521227Y-72862982D02*
G75*
G03X132890839Y-72668411I-907629J-1822145D01*
G01*
X132890839Y-72668411D02*
G75*
G03X132208723Y-72675897I-315881J-2297794D01*
G01*
X131804447Y-72725194D02*
X132208723Y-72675897D01*
X131575083Y-72703226D02*
G75*
G03X131804447Y-72725194I175182J620670D01*
G01*
X131432608Y-72609297D02*
G75*
G03X131575083Y-72703226I218984J177144D01*
G01*
X131335857Y-72429534D02*
G75*
G03X131432607Y-72609297I524931J166606D01*
G01*
X131335858Y-72429534D02*
G75*
G03X131232267Y-72194351I-1140756J-362061D01*
G01*
X130843264Y-71528902D02*
X131232267Y-72194351D01*
X130366112Y-70742245D02*
X130843264Y-71528902D01*
X129822646Y-69879336D02*
X130366112Y-70742245D01*
X128639498Y-67861171D02*
X129822646Y-69879336D01*
X128246475Y-66601350D02*
G75*
G03X128639498Y-67861171I3491055J397878D01*
G01*
X128454885Y-65659261D02*
G75*
G03X128246476Y-66601350I1265666J-774088D01*
G01*
X129244395Y-64805633D02*
G75*
G03X128454885Y-65659261I1738292J-2399644D01*
G01*
X130142789Y-64293511D02*
G75*
G03X129244395Y-64805634I1894744J-4367932D01*
G01*
X131159473Y-63967485D02*
G75*
G03X130142790Y-64293511I1133320J-5282387D01*
G01*
X132176566Y-63856651D02*
G75*
G03X131159472Y-63967485I28632J-4984964D01*
G01*
X133075030Y-63983782D02*
G75*
G03X132176566Y-63856651I-880593J-2984981D01*
G01*
X133929411Y-64410873D02*
G75*
G03X133075031Y-63983781I-1623227J-2179078D01*
G01*
X134893402Y-65250371D02*
G75*
G03X133929411Y-64410873I-5977020J-5890157D01*
G01*
X135957115Y-66470115D02*
G75*
G03X134893402Y-65250371I-10532943J-8111863D01*
G01*
X137125352Y-68093834D02*
X135957115Y-66470116D01*
X137125353Y-68093833D02*
G75*
G03X139402796Y-71001457I20921445J14041327D01*
G01*
X139402796Y-71001457D02*
G75*
G03X141673001Y-72878855I7700565J7000453D01*
G01*
X141673001Y-72878855D02*
G75*
G03X143874339Y-73702120I3228623J5278330D01*
G01*
X143874339Y-73702120D02*
G75*
G03X145956046Y-73495344I661095J3926599D01*
G01*
X145956045Y-73495344D02*
G75*
G03X147432716Y-72632191I-1867066J4888858D01*
G01*
X147432716Y-72632191D02*
G75*
G03X148723818Y-71258139I-4894031J5892189D01*
G01*
X148723818Y-71258139D02*
G75*
G03X150145816Y-68984152I-15041246J10987385D01*
G01*
X152188117Y-64963901D02*
X150145816Y-68984152D01*
X153401903Y-62515736D02*
X152188117Y-64963901D01*
X147329195Y-76038575D02*
G75*
G03X147134357Y-76118038I61533J-429468D01*
G01*
X147751648Y-76103775D02*
G75*
G03X147329195Y-76038575I-318342J-661437D01*
G01*
X148519228Y-76515989D02*
G75*
G03X147751648Y-76103775I-5036975J-8458553D01*
G01*
X149351420Y-77069465D02*
G75*
G03X148519228Y-76515989I-5967410J-8070063D01*
G01*
X129744012Y-80984367D02*
X129896585Y-79046436D01*
X129744012Y-80984366D02*
G75*
G03X129736881Y-82143546I9860681J-640273D01*
G01*
X129736881Y-82143546D02*
G75*
G03X129854888Y-82897754I3719071J195567D01*
G01*
X129854887Y-82897754D02*
G75*
G03X130125352Y-83396834I1160503J306080D01*
G01*
X130125353Y-83396835D02*
G75*
G03X130664081Y-83863014I2168936J1962102D01*
G01*
X130664081Y-83863014D02*
G75*
G03X131364297Y-84249658I2573792J3833797D01*
G01*
X131364298Y-84249657D02*
G75*
G03X132120670Y-84509638I1873294J4219794D01*
G01*
X132120670Y-84509638D02*
G75*
G03X132827590Y-84596436I706922J2835332D01*
G01*
X132827591Y-84596437D02*
G75*
G03X133305125Y-84573484I4J4978991D01*
G01*
X133305125Y-84573483D02*
G75*
G03X133561154Y-84486864I-56810J589610D01*
G01*
X129967817Y-77737532D02*
X129959746Y-77259479D01*
X129950430Y-78333051D02*
X129967817Y-77737532D01*
X129896585Y-79046436D02*
X129950430Y-78333051D01*
X160021266Y-58046437D02*
G75*
G03X159338634Y-57752584I-2567820J-5025339D01*
G01*
X160886404Y-58595839D02*
G75*
G03X160021266Y-58046436I-3365077J-4343083D01*
G01*
X161390754Y-59188156D02*
G75*
G03X160886404Y-58595839I-1667692J-909135D01*
G01*
X161645818Y-59974891D02*
G75*
G03X161390754Y-59188157I-2222627J-285874D01*
G01*
X149697157Y-79796437D02*
G75*
G03X150295422Y-79584984I-1J952068D01*
G01*
X149697156Y-79796436D02*
G75*
G03X149515619Y-79812729I0J-1019493D01*
G01*
X149515619Y-79812729D02*
G75*
G03X149340664Y-79861082I178585J-986878D01*
G01*
X149340664Y-79861082D02*
G75*
G03X149197043Y-79932060I286426J-760363D01*
G01*
X149197044Y-79932060D02*
G75*
G03X149112949Y-80016506I138495J-222014D01*
G01*
X149112949Y-80016506D02*
G75*
G03X149054857Y-80192295I339024J-209528D01*
G01*
X122939564Y-60485630D02*
X122669741Y-60583845D01*
X123188777Y-60416994D02*
X122939564Y-60485630D01*
X123368237Y-60396436D02*
G75*
G03X123188777Y-60416994I0J-793581D01*
G01*
X180406628Y-100441322D02*
X179986156Y-100047629D01*
X180771109Y-100818769D02*
X180406628Y-100441322D01*
X181002523Y-101108812D02*
G75*
G03X180771109Y-100818769I-2210099J-1526010D01*
G01*
X181421241Y-102436469D02*
G75*
G03X181002523Y-101108812I-2364517J-15868D01*
G01*
X181065481Y-103882127D02*
G75*
G03X181421241Y-102436470I-2676691J1425306D01*
G01*
X180062198Y-104989793D02*
G75*
G03X181065481Y-103882127I-1697676J2545894D01*
G01*
X178719418Y-105396436D02*
G75*
G03X180062198Y-104989793I-2J2420330D01*
G01*
X178347611Y-105379706D02*
G75*
G03X178719418Y-105396436I371804J4123117D01*
G01*
X177954212Y-105329429D02*
X178347611Y-105379707D01*
X177596455Y-105256061D02*
X177954212Y-105329429D01*
X177343527Y-105168326D02*
G75*
G03X177596455Y-105256061I593574J1302753D01*
G01*
X176842881Y-104940217D02*
X177343527Y-105168327D01*
X177327228Y-104559229D02*
X176842881Y-104940217D01*
X177327228Y-104559230D02*
G75*
G03X177719098Y-104113358I-1006961J1280143D01*
G01*
X177719098Y-104113358D02*
G75*
G03X177988618Y-103495441I-2295042J1368777D01*
G01*
X177988618Y-103495440D02*
G75*
G03X178098951Y-102815258I-2673147J782655D01*
G01*
X178098951Y-102815258D02*
G75*
G03X178022216Y-102185502I-2014044J74146D01*
G01*
X178022216Y-102185501D02*
G75*
G03X176214324Y-99376679I-5566005J-1596313D01*
G01*
X176214324Y-99376680D02*
G75*
G03X172201540Y-96604250I-15588420J-18272266D01*
G01*
X172201540Y-96604250D02*
G75*
G03X166453464Y-94024475I-18759857J-34105806D01*
G01*
X166453464Y-94024475D02*
G75*
G03X159164370Y-91812760I-27542200J-77653020D01*
G01*
X153903940Y-90647222D02*
X159164370Y-91812760D01*
X148890970Y-89882469D02*
X153903940Y-90647222D01*
X142965179Y-89369365D02*
X148890970Y-89882469D01*
X134625352Y-88977202D02*
X142965179Y-89369365D01*
X130112245Y-88778382D02*
X134625352Y-88977202D01*
X125166049Y-64899580D02*
G75*
G03X125652551Y-64348636I-551135J976941D01*
G01*
X124417607Y-65050870D02*
G75*
G03X125166049Y-64899580I141432J1227275D01*
G01*
X123500378Y-64784347D02*
G75*
G03X124417608Y-65050870I1244107J2569983D01*
G01*
X122349222Y-63904568D02*
G75*
G03X123500378Y-64784347I2726578J2374608D01*
G01*
X161719603Y-61161818D02*
G75*
G03X161645817Y-59974891I-9038658J33864D01*
G01*
X161624378Y-62447308D02*
G75*
G03X161719603Y-61161818I-9093887J1319921D01*
G01*
X161350199Y-63708269D02*
G75*
G03X161624378Y-62447308I-8859254J2586619D01*
G01*
X160777684Y-65413676D02*
X161350198Y-63708269D01*
X159578136Y-68496436D02*
X160777684Y-65413676D01*
X158456962Y-71574337D02*
X159578136Y-68496436D01*
X158456962Y-71574337D02*
G75*
G03X157986549Y-73660152I10333907J-3426556D01*
G01*
X157986549Y-73660151D02*
G75*
G03X158048002Y-75131954I4444973J-551591D01*
G01*
X158048002Y-75131954D02*
G75*
G03X158622915Y-76193999I2071904J434946D01*
G01*
X158622916Y-76193999D02*
G75*
G03X159122391Y-76550092I1312140J1312138D01*
G01*
X124147610Y-60657047D02*
G75*
G03X123368237Y-60396436I-779374J-1035079D01*
G01*
X124974974Y-61461105D02*
G75*
G03X124147609Y-60657047I-3594626J-2871117D01*
G01*
X125612266Y-62496278D02*
G75*
G03X124974974Y-61461105I-4535758J-2078630D01*
G01*
X125825353Y-63472730D02*
G75*
G03X125612266Y-62496278I-2343793J1D01*
G01*
X125652551Y-64348636D02*
G75*
G03X125825352Y-63472730I-2133520J875905D01*
G01*
X133335374Y-92395951D02*
X137945572Y-92580168D01*
X128394291Y-92194411D02*
X133335374Y-92395951D01*
X123884960Y-91589638D02*
G75*
G03X128394291Y-92194411I8063620J43010577D01*
G01*
X120012834Y-90627827D02*
G75*
G03X123884959Y-91589639I10198597J32782942D01*
G01*
X117025353Y-89338150D02*
G75*
G03X120012834Y-90627827I7558765J13404539D01*
G01*
X115790424Y-88518329D02*
G75*
G03X117025352Y-89338150I6253057J8079211D01*
G01*
X114661717Y-87513829D02*
G75*
G03X115790424Y-88518330I7877175J7714801D01*
G01*
X113762367Y-86451461D02*
G75*
G03X114661716Y-87513829I7763888J5660675D01*
G01*
X113229985Y-85462908D02*
G75*
G03X113762367Y-86451461I3878571J1451160D01*
G01*
X112815101Y-83128042D02*
G75*
G03X113229985Y-85462908I6544928J-41323D01*
G01*
X113279069Y-80861024D02*
G75*
G03X112815102Y-83128042I5490208J-2304611D01*
G01*
X114542719Y-79023885D02*
G75*
G03X113279069Y-80861024I3784147J-3956033D01*
G01*
X116403030Y-77903851D02*
G75*
G03X114542719Y-79023885I1559477J-4695151D01*
G01*
X117675050Y-77639446D02*
G75*
G03X116403029Y-77903851I501132J-5602875D01*
G01*
X119162598Y-77622128D02*
G75*
G03X117675050Y-77639447I-632354J-9578698D01*
G01*
X120675254Y-77838343D02*
G75*
G03X119162598Y-77622128I-2175017J-9817158D01*
G01*
X122025352Y-78275014D02*
G75*
G03X120675254Y-77838343I-2971578J-6882073D01*
G01*
X123156496Y-78738252D02*
X122025352Y-78275013D01*
X124043159Y-79040483D02*
X123156496Y-78738252D01*
X151283334Y-81107015D02*
X151361611Y-79848209D01*
X151125352Y-84296436D02*
X151283334Y-81107015D01*
X150564971Y-84360723D02*
X151125352Y-84296436D01*
X150564971Y-84360722D02*
G75*
G03X150109254Y-84539826I108435J-945228D01*
G01*
X129520833Y-77340012D02*
G75*
G03X129274940Y-77699060I519485J-619492D01*
G01*
X129896585Y-77199499D02*
G75*
G03X129520833Y-77340012I10757J-601430D01*
G01*
X129959746Y-77259479D02*
G75*
G03X129896585Y-77199499I-62051J-2096D01*
G01*
X154119195Y-88937135D02*
G75*
G03X154367086Y-88722144I-364042J670160D01*
G01*
X154367086Y-88722144D02*
G75*
G03X154667866Y-88269295I-4098060J3048225D01*
G01*
X155096890Y-87542154D02*
X154667866Y-88269295D01*
X155811121Y-88355698D02*
X155096890Y-87542154D01*
X155811121Y-88355698D02*
G75*
G03X157196615Y-89563093I5188154J4554814D01*
G01*
X157196615Y-89563092D02*
G75*
G03X158539798Y-89976989I1379498J2090359D01*
G01*
X158539798Y-89976989D02*
G75*
G03X159674546Y-89565689I24696J1702861D01*
G01*
X159674546Y-89565689D02*
G75*
G03X160491162Y-88423567I-1924123J2238747D01*
G01*
X160491162Y-88423567D02*
G75*
G03X160627202Y-87955388I-2317309J927201D01*
G01*
X160755373Y-87165017D02*
X160627202Y-87955388D01*
X160864876Y-86203309D02*
X160755373Y-87165017D01*
X160942524Y-85139193D02*
X160864876Y-86203309D01*
X161081649Y-82635177D02*
X160942524Y-85139193D01*
X161655712Y-82520364D02*
X161081649Y-82635177D01*
X161655713Y-82520365D02*
G75*
G03X162144028Y-82304874I-241785J1208924D01*
G01*
X162144029Y-82304875D02*
G75*
G03X162461937Y-81912862I-591057J804239D01*
G01*
X162461936Y-81912862D02*
G75*
G03X162561461Y-81390846I-1029067J466692D01*
G01*
X162561461Y-81390846D02*
G75*
G03X162431167Y-80810473I-1736998J-85147D01*
G01*
X162431166Y-80810473D02*
G75*
G03X161785716Y-79841934I-2772917J-1148580D01*
G01*
X155525863Y-84676104D02*
G75*
G03X155803561Y-85356718I1969250J406516D01*
G01*
X155803562Y-85356718D02*
G75*
G03X156242580Y-85596436I439018J282149D01*
G01*
X156242580Y-85596436D02*
G75*
G03X156607030Y-85426289I0J475393D01*
G01*
X156607029Y-85426289D02*
G75*
G03X156840890Y-84966864I-880404J737385D01*
G01*
X156840890Y-84966864D02*
G75*
G03X156988291Y-84045746I-5281609J1317533D01*
G01*
X157103300Y-82146055D02*
X156988291Y-84045746D01*
X152333810Y-77297837D02*
G75*
G03X152055115Y-77546436I193192J-497097D01*
G01*
X152795693Y-77213857D02*
G75*
G03X152333810Y-77297837I-13567J-1237530D01*
G01*
X153408149Y-77303995D02*
G75*
G03X152795692Y-77213857I-637636J-2206728D01*
G01*
X154125352Y-77569133D02*
G75*
G03X153408149Y-77303995I-2176088J-4783770D01*
G01*
X154907045Y-78026697D02*
G75*
G03X154125352Y-77569133I-2611429J-3564816D01*
G01*
X155262918Y-78518132D02*
G75*
G03X154907046Y-78026698I-940287J-306340D01*
G01*
X155394216Y-79326427D02*
G75*
G03X155262918Y-78518131I-2670625J-19002D01*
G01*
X155381265Y-81424053D02*
X155394217Y-79326427D01*
X155386114Y-83454533D02*
X155381265Y-81424053D01*
X155386114Y-83454533D02*
G75*
G03X155525863Y-84676104I6863405J166401D01*
G01*
X154710794Y-87284663D02*
G75*
G03X154601545Y-87450721I1537947J-1130768D01*
G01*
X154601545Y-87450720D02*
G75*
G03X154509201Y-87628549I1700775J-996088D01*
G01*
X154509201Y-87628550D02*
G75*
G03X154444488Y-87792698I1527088J-696859D01*
G01*
X154444488Y-87792697D02*
G75*
G03X154425352Y-87910173I351029J-117476D01*
G01*
X154332909Y-88180535D02*
G75*
G03X154425352Y-87910173I-349131J270361D01*
G01*
X154061051Y-88436497D02*
G75*
G03X154332909Y-88180536I-674711J988968D01*
G01*
X157095260Y-88976247D02*
G75*
G03X157901174Y-89450321I1992637J2465384D01*
G01*
X156176530Y-88130946D02*
G75*
G03X157095259Y-88976248I7049300J6739720D01*
G01*
X155426730Y-87361188D02*
X156176530Y-88130946D01*
X155426730Y-87361188D02*
G75*
G03X155123852Y-87127857I-1024786J-1016989D01*
G01*
X155123852Y-87127857D02*
G75*
G03X154916212Y-87117850I-113538J-196645D01*
G01*
X154916212Y-87117849D02*
G75*
G03X154710794Y-87284662I217581J-477821D01*
G01*
X151124571Y-84693624D02*
G75*
G03X151289673Y-84580369I-403333J764946D01*
G01*
X151289674Y-84580369D02*
G75*
G03X151395590Y-84446436I-306048J350874D01*
G01*
X151395590Y-84446437D02*
G75*
G03X151474284Y-84190894I-639767J336904D01*
G01*
X151568486Y-83288624D02*
X151474284Y-84190894D01*
X151656225Y-82209500D02*
X151568486Y-83288624D01*
X151725352Y-80996436D02*
X151656225Y-82209500D01*
X153706479Y-88607523D02*
G75*
G03X154061051Y-88436496I-391289J1264285D01*
G01*
X153370580Y-88629779D02*
G75*
G03X153706479Y-88607523I121260J715774D01*
G01*
X153158695Y-88567455D02*
G75*
G03X153370579Y-88629779I368230J860544D01*
G01*
X152805363Y-88405860D02*
X153158695Y-88567455D01*
X152402229Y-88196448D02*
X152805363Y-88405860D01*
X151998766Y-87961074D02*
X152402229Y-88196448D01*
X150929222Y-87073861D02*
G75*
G03X151998766Y-87961074I3662546J3326958D01*
G01*
X150249264Y-85987178D02*
G75*
G03X150929222Y-87073861I3354855J1343125D01*
G01*
X150221064Y-85168361D02*
G75*
G03X150249263Y-85987179I1148389J-370346D01*
G01*
X150731793Y-84796436D02*
G75*
G03X150221064Y-85168361I1J-536631D01*
G01*
X150731793Y-84796436D02*
G75*
G03X150928873Y-84770410I0J759194D01*
G01*
X150928873Y-84770410D02*
G75*
G03X151124571Y-84693624I-245637J913805D01*
G01*
X128848051Y-82129040D02*
X128839308Y-82231091D01*
X128892496Y-81470829D02*
X128848051Y-82129040D01*
X128943232Y-80709626D02*
X128892496Y-81470829D01*
X129000776Y-79832054D02*
X128943232Y-80709626D01*
X129119342Y-78412313D02*
X129000776Y-79832054D01*
X129274940Y-77699060D02*
G75*
G03X129119342Y-78412313I3059060J-1040940D01*
G01*
D10*
X177831380Y-112371142D02*
X177878999Y-112418761D01*
X178021857Y-112466380D01*
X178117095Y-112466380D01*
X178259952Y-112418761D01*
X178355190Y-112323523D01*
X178402809Y-112228285D01*
X178450428Y-112037809D01*
X178450428Y-111894952D01*
X178402809Y-111704476D01*
X178355190Y-111609238D01*
X178259952Y-111514000D01*
X178117095Y-111466380D01*
X178021857Y-111466380D01*
X177878999Y-111514000D01*
X177831380Y-111561619D01*
X177259952Y-112466380D02*
X177355190Y-112418761D01*
X177402809Y-112371142D01*
X177450428Y-112275904D01*
X177450428Y-111990190D01*
X177402809Y-111894952D01*
X177355190Y-111847333D01*
X177259952Y-111799714D01*
X177117095Y-111799714D01*
X177021857Y-111847333D01*
X176974238Y-111894952D01*
X176926619Y-111990190D01*
X176926619Y-112275904D01*
X176974238Y-112371142D01*
X177021857Y-112418761D01*
X177117095Y-112466380D01*
X177259952Y-112466380D01*
X176498047Y-111799714D02*
X176498047Y-112466380D01*
X176498047Y-111894952D02*
X176450428Y-111847333D01*
X176355190Y-111799714D01*
X176212333Y-111799714D01*
X176117095Y-111847333D01*
X176069476Y-111942571D01*
X176069476Y-112466380D01*
X175593285Y-111799714D02*
X175593285Y-112466380D01*
X175593285Y-111894952D02*
X175545666Y-111847333D01*
X175450428Y-111799714D01*
X175307571Y-111799714D01*
X175212333Y-111847333D01*
X175164714Y-111942571D01*
X175164714Y-112466380D01*
X174307571Y-112418761D02*
X174402809Y-112466380D01*
X174593285Y-112466380D01*
X174688523Y-112418761D01*
X174736142Y-112323523D01*
X174736142Y-111942571D01*
X174688523Y-111847333D01*
X174593285Y-111799714D01*
X174402809Y-111799714D01*
X174307571Y-111847333D01*
X174259952Y-111942571D01*
X174259952Y-112037809D01*
X174736142Y-112133047D01*
X173402809Y-112418761D02*
X173498047Y-112466380D01*
X173688523Y-112466380D01*
X173783761Y-112418761D01*
X173831380Y-112371142D01*
X173878999Y-112275904D01*
X173878999Y-111990190D01*
X173831380Y-111894952D01*
X173783761Y-111847333D01*
X173688523Y-111799714D01*
X173498047Y-111799714D01*
X173402809Y-111847333D01*
X173117095Y-111799714D02*
X172736142Y-111799714D01*
X172974238Y-111466380D02*
X172974238Y-112323523D01*
X172926619Y-112418761D01*
X172831380Y-112466380D01*
X172736142Y-112466380D01*
X172259952Y-112466380D02*
X172355190Y-112418761D01*
X172402809Y-112371142D01*
X172450428Y-112275904D01*
X172450428Y-111990190D01*
X172402809Y-111894952D01*
X172355190Y-111847333D01*
X172259952Y-111799714D01*
X172117095Y-111799714D01*
X172021857Y-111847333D01*
X171974238Y-111894952D01*
X171926619Y-111990190D01*
X171926619Y-112275904D01*
X171974238Y-112371142D01*
X172021857Y-112418761D01*
X172117095Y-112466380D01*
X172259952Y-112466380D01*
X171498047Y-112466380D02*
X171498047Y-111799714D01*
X171498047Y-111990190D02*
X171450428Y-111894952D01*
X171402809Y-111847333D01*
X171307571Y-111799714D01*
X171212333Y-111799714D01*
X187854619Y-51617571D02*
X187711761Y-51665190D01*
X187664142Y-51712809D01*
X187616523Y-51808047D01*
X187616523Y-51950904D01*
X187664142Y-52046142D01*
X187711761Y-52093761D01*
X187807000Y-52141380D01*
X188187952Y-52141380D01*
X188187952Y-51141380D01*
X187854619Y-51141380D01*
X187759380Y-51189000D01*
X187711761Y-51236619D01*
X187664142Y-51331857D01*
X187664142Y-51427095D01*
X187711761Y-51522333D01*
X187759380Y-51569952D01*
X187854619Y-51617571D01*
X188187952Y-51617571D01*
X187235571Y-51855666D02*
X186759380Y-51855666D01*
X187330809Y-52141380D02*
X186997476Y-51141380D01*
X186664142Y-52141380D01*
X186473666Y-51141380D02*
X185902238Y-51141380D01*
X186187952Y-52141380D02*
X186187952Y-51141380D01*
X185568904Y-51617571D02*
X185235571Y-51617571D01*
X185092714Y-52141380D02*
X185568904Y-52141380D01*
X185568904Y-51141380D01*
X185092714Y-51141380D01*
X184664142Y-52141380D02*
X184664142Y-51141380D01*
X184330809Y-51855666D01*
X183997476Y-51141380D01*
X183997476Y-52141380D01*
X183568904Y-51855666D02*
X183092714Y-51855666D01*
X183664142Y-52141380D02*
X183330809Y-51141380D01*
X182997476Y-52141380D01*
X182664142Y-52141380D02*
X182664142Y-51141380D01*
X182092714Y-52141380D01*
X182092714Y-51141380D01*
X180854619Y-51760428D02*
X180092714Y-51760428D01*
X178902238Y-51855666D02*
X178426047Y-51855666D01*
X178997476Y-52141380D02*
X178664142Y-51141380D01*
X178330809Y-52141380D01*
X177426047Y-52141380D02*
X177759380Y-51665190D01*
X177997476Y-52141380D02*
X177997476Y-51141380D01*
X177616523Y-51141380D01*
X177521285Y-51189000D01*
X177473666Y-51236619D01*
X177426047Y-51331857D01*
X177426047Y-51474714D01*
X177473666Y-51569952D01*
X177521285Y-51617571D01*
X177616523Y-51665190D01*
X177997476Y-51665190D01*
X176426047Y-52046142D02*
X176473666Y-52093761D01*
X176616523Y-52141380D01*
X176711761Y-52141380D01*
X176854619Y-52093761D01*
X176949857Y-51998523D01*
X176997476Y-51903285D01*
X177045095Y-51712809D01*
X177045095Y-51569952D01*
X176997476Y-51379476D01*
X176949857Y-51284238D01*
X176854619Y-51189000D01*
X176711761Y-51141380D01*
X176616523Y-51141380D01*
X176473666Y-51189000D01*
X176426047Y-51236619D01*
X176045095Y-51855666D02*
X175568904Y-51855666D01*
X176140333Y-52141380D02*
X175807000Y-51141380D01*
X175473666Y-52141380D01*
X175140333Y-52141380D02*
X175140333Y-51141380D01*
X174902238Y-51141380D01*
X174759380Y-51189000D01*
X174664142Y-51284238D01*
X174616523Y-51379476D01*
X174568904Y-51569952D01*
X174568904Y-51712809D01*
X174616523Y-51903285D01*
X174664142Y-51998523D01*
X174759380Y-52093761D01*
X174902238Y-52141380D01*
X175140333Y-52141380D01*
X174140333Y-51617571D02*
X173807000Y-51617571D01*
X173664142Y-52141380D02*
X174140333Y-52141380D01*
X174140333Y-51141380D01*
X173664142Y-51141380D01*
X172473666Y-52141380D02*
X172473666Y-51141380D01*
X172140333Y-51855666D01*
X171807000Y-51141380D01*
X171807000Y-52141380D01*
X171378428Y-51855666D02*
X170902238Y-51855666D01*
X171473666Y-52141380D02*
X171140333Y-51141380D01*
X170807000Y-52141380D01*
X170473666Y-52141380D02*
X170473666Y-51141380D01*
X169997476Y-52141380D02*
X169997476Y-51141380D01*
X169426047Y-52141380D01*
X169426047Y-51141380D01*
X168187952Y-52141380D02*
X168187952Y-51141380D01*
X167807000Y-51141380D01*
X167711761Y-51189000D01*
X167664142Y-51236619D01*
X167616523Y-51331857D01*
X167616523Y-51474714D01*
X167664142Y-51569952D01*
X167711761Y-51617571D01*
X167807000Y-51665190D01*
X168187952Y-51665190D01*
X167235571Y-51855666D02*
X166759380Y-51855666D01*
X167330809Y-52141380D02*
X166997476Y-51141380D01*
X166664142Y-52141380D01*
X166330809Y-52141380D02*
X166330809Y-51141380D01*
X165759380Y-52141380D01*
X165759380Y-51141380D01*
X165283190Y-51617571D02*
X164949857Y-51617571D01*
X164807000Y-52141380D02*
X165283190Y-52141380D01*
X165283190Y-51141380D01*
X164807000Y-51141380D01*
X163902238Y-52141380D02*
X164378428Y-52141380D01*
X164378428Y-51141380D01*
X162902238Y-51474714D02*
X162664142Y-52141380D01*
X162426047Y-51474714D01*
X161521285Y-52141380D02*
X162092714Y-52141380D01*
X161807000Y-52141380D02*
X161807000Y-51141380D01*
X161902238Y-51284238D01*
X161997476Y-51379476D01*
X162092714Y-51427095D01*
X161092714Y-52046142D02*
X161045095Y-52093761D01*
X161092714Y-52141380D01*
X161140333Y-52093761D01*
X161092714Y-52046142D01*
X161092714Y-52141380D01*
X160426047Y-51141380D02*
X160330809Y-51141380D01*
X160235571Y-51189000D01*
X160187952Y-51236619D01*
X160140333Y-51331857D01*
X160092714Y-51522333D01*
X160092714Y-51760428D01*
X160140333Y-51950904D01*
X160187952Y-52046142D01*
X160235571Y-52093761D01*
X160330809Y-52141380D01*
X160426047Y-52141380D01*
X160521285Y-52093761D01*
X160568904Y-52046142D01*
X160616523Y-51950904D01*
X160664142Y-51760428D01*
X160664142Y-51522333D01*
X160616523Y-51331857D01*
X160568904Y-51236619D01*
X160521285Y-51189000D01*
X160426047Y-51141380D01*
X158949857Y-51236619D02*
X158902238Y-51189000D01*
X158807000Y-51141380D01*
X158568904Y-51141380D01*
X158473666Y-51189000D01*
X158426047Y-51236619D01*
X158378428Y-51331857D01*
X158378428Y-51427095D01*
X158426047Y-51569952D01*
X158997476Y-52141380D01*
X158378428Y-52141380D01*
X157759380Y-51141380D02*
X157664142Y-51141380D01*
X157568904Y-51189000D01*
X157521285Y-51236619D01*
X157473666Y-51331857D01*
X157426047Y-51522333D01*
X157426047Y-51760428D01*
X157473666Y-51950904D01*
X157521285Y-52046142D01*
X157568904Y-52093761D01*
X157664142Y-52141380D01*
X157759380Y-52141380D01*
X157854619Y-52093761D01*
X157902238Y-52046142D01*
X157949857Y-51950904D01*
X157997476Y-51760428D01*
X157997476Y-51522333D01*
X157949857Y-51331857D01*
X157902238Y-51236619D01*
X157854619Y-51189000D01*
X157759380Y-51141380D01*
X157045095Y-51236619D02*
X156997476Y-51189000D01*
X156902238Y-51141380D01*
X156664142Y-51141380D01*
X156568904Y-51189000D01*
X156521285Y-51236619D01*
X156473666Y-51331857D01*
X156473666Y-51427095D01*
X156521285Y-51569952D01*
X157092714Y-52141380D01*
X156473666Y-52141380D01*
X155854619Y-51141380D02*
X155759380Y-51141380D01*
X155664142Y-51189000D01*
X155616523Y-51236619D01*
X155568904Y-51331857D01*
X155521285Y-51522333D01*
X155521285Y-51760428D01*
X155568904Y-51950904D01*
X155616523Y-52046142D01*
X155664142Y-52093761D01*
X155759380Y-52141380D01*
X155854619Y-52141380D01*
X155949857Y-52093761D01*
X155997476Y-52046142D01*
X156045095Y-51950904D01*
X156092714Y-51760428D01*
X156092714Y-51522333D01*
X156045095Y-51331857D01*
X155997476Y-51236619D01*
X155949857Y-51189000D01*
X155854619Y-51141380D01*
X155092714Y-51760428D02*
X154330809Y-51760428D01*
X153664142Y-51141380D02*
X153568904Y-51141380D01*
X153473666Y-51189000D01*
X153426047Y-51236619D01*
X153378428Y-51331857D01*
X153330809Y-51522333D01*
X153330809Y-51760428D01*
X153378428Y-51950904D01*
X153426047Y-52046142D01*
X153473666Y-52093761D01*
X153568904Y-52141380D01*
X153664142Y-52141380D01*
X153759380Y-52093761D01*
X153807000Y-52046142D01*
X153854619Y-51950904D01*
X153902238Y-51760428D01*
X153902238Y-51522333D01*
X153854619Y-51331857D01*
X153807000Y-51236619D01*
X153759380Y-51189000D01*
X153664142Y-51141380D01*
X152473666Y-51141380D02*
X152664142Y-51141380D01*
X152759380Y-51189000D01*
X152807000Y-51236619D01*
X152902238Y-51379476D01*
X152949857Y-51569952D01*
X152949857Y-51950904D01*
X152902238Y-52046142D01*
X152854619Y-52093761D01*
X152759380Y-52141380D01*
X152568904Y-52141380D01*
X152473666Y-52093761D01*
X152426047Y-52046142D01*
X152378428Y-51950904D01*
X152378428Y-51712809D01*
X152426047Y-51617571D01*
X152473666Y-51569952D01*
X152568904Y-51522333D01*
X152759380Y-51522333D01*
X152854619Y-51569952D01*
X152902238Y-51617571D01*
X152949857Y-51712809D01*
D12*
X122936000Y-113411000D02*
X122936000Y-114681000D01*
X124206000Y-113411000D02*
X122936000Y-113411000D01*
X177926000Y-115723929D02*
X177926000Y-116178071D01*
X177166000Y-115723929D02*
X177166000Y-116178071D01*
X177926000Y-118263929D02*
X177926000Y-118661000D01*
X177166000Y-118263929D02*
X177166000Y-118661000D01*
X177926000Y-127321000D02*
X177926000Y-121321000D01*
X177166000Y-127321000D02*
X177926000Y-127321000D01*
X177166000Y-121321000D02*
X177166000Y-127321000D01*
X176276000Y-118661000D02*
X176276000Y-121321000D01*
X175386000Y-115723929D02*
X175386000Y-116178071D01*
X174626000Y-115723929D02*
X174626000Y-116178071D01*
X175386000Y-118263929D02*
X175386000Y-118661000D01*
X174626000Y-118263929D02*
X174626000Y-118661000D01*
X175386000Y-127321000D02*
X175386000Y-121321000D01*
X174626000Y-127321000D02*
X175386000Y-127321000D01*
X174626000Y-121321000D02*
X174626000Y-127321000D01*
X173736000Y-118661000D02*
X173736000Y-121321000D01*
X172846000Y-115723929D02*
X172846000Y-116178071D01*
X172086000Y-115723929D02*
X172086000Y-116178071D01*
X172846000Y-118263929D02*
X172846000Y-118661000D01*
X172086000Y-118263929D02*
X172086000Y-118661000D01*
X172846000Y-127321000D02*
X172846000Y-121321000D01*
X172086000Y-127321000D02*
X172846000Y-127321000D01*
X172086000Y-121321000D02*
X172086000Y-127321000D01*
X171196000Y-118661000D02*
X171196000Y-121321000D01*
X170306000Y-115723929D02*
X170306000Y-116178071D01*
X169546000Y-115723929D02*
X169546000Y-116178071D01*
X170306000Y-118263929D02*
X170306000Y-118661000D01*
X169546000Y-118263929D02*
X169546000Y-118661000D01*
X170306000Y-127321000D02*
X170306000Y-121321000D01*
X169546000Y-127321000D02*
X170306000Y-127321000D01*
X169546000Y-121321000D02*
X169546000Y-127321000D01*
X168656000Y-118661000D02*
X168656000Y-121321000D01*
X167766000Y-115723929D02*
X167766000Y-116178071D01*
X167006000Y-115723929D02*
X167006000Y-116178071D01*
X167766000Y-118263929D02*
X167766000Y-118661000D01*
X167006000Y-118263929D02*
X167006000Y-118661000D01*
X167766000Y-127321000D02*
X167766000Y-121321000D01*
X167006000Y-127321000D02*
X167766000Y-127321000D01*
X167006000Y-121321000D02*
X167006000Y-127321000D01*
X166116000Y-118661000D02*
X166116000Y-121321000D01*
X165226000Y-115723929D02*
X165226000Y-116178071D01*
X164466000Y-115723929D02*
X164466000Y-116178071D01*
X165226000Y-118263929D02*
X165226000Y-118661000D01*
X164466000Y-118263929D02*
X164466000Y-118661000D01*
X165226000Y-127321000D02*
X165226000Y-121321000D01*
X164466000Y-127321000D02*
X165226000Y-127321000D01*
X164466000Y-121321000D02*
X164466000Y-127321000D01*
X163576000Y-118661000D02*
X163576000Y-121321000D01*
X162686000Y-115723929D02*
X162686000Y-116178071D01*
X161926000Y-115723929D02*
X161926000Y-116178071D01*
X162686000Y-118263929D02*
X162686000Y-118661000D01*
X161926000Y-118263929D02*
X161926000Y-118661000D01*
X162686000Y-127321000D02*
X162686000Y-121321000D01*
X161926000Y-127321000D02*
X162686000Y-127321000D01*
X161926000Y-121321000D02*
X161926000Y-127321000D01*
X161036000Y-118661000D02*
X161036000Y-121321000D01*
X160146000Y-115723929D02*
X160146000Y-116178071D01*
X159386000Y-115723929D02*
X159386000Y-116178071D01*
X160146000Y-118263929D02*
X160146000Y-118661000D01*
X159386000Y-118263929D02*
X159386000Y-118661000D01*
X160146000Y-127321000D02*
X160146000Y-121321000D01*
X159386000Y-127321000D02*
X160146000Y-127321000D01*
X159386000Y-121321000D02*
X159386000Y-127321000D01*
X158496000Y-118661000D02*
X158496000Y-121321000D01*
X157606000Y-115723929D02*
X157606000Y-116178071D01*
X156846000Y-115723929D02*
X156846000Y-116178071D01*
X157606000Y-118263929D02*
X157606000Y-118661000D01*
X156846000Y-118263929D02*
X156846000Y-118661000D01*
X157606000Y-127321000D02*
X157606000Y-121321000D01*
X156846000Y-127321000D02*
X157606000Y-127321000D01*
X156846000Y-121321000D02*
X156846000Y-127321000D01*
X155956000Y-118661000D02*
X155956000Y-121321000D01*
X155066000Y-115723929D02*
X155066000Y-116178071D01*
X154306000Y-115723929D02*
X154306000Y-116178071D01*
X155066000Y-118263929D02*
X155066000Y-118661000D01*
X154306000Y-118263929D02*
X154306000Y-118661000D01*
X155066000Y-127321000D02*
X155066000Y-121321000D01*
X154306000Y-127321000D02*
X155066000Y-127321000D01*
X154306000Y-121321000D02*
X154306000Y-127321000D01*
X153416000Y-118661000D02*
X153416000Y-121321000D01*
X152526000Y-115723929D02*
X152526000Y-116178071D01*
X151766000Y-115723929D02*
X151766000Y-116178071D01*
X152526000Y-118263929D02*
X152526000Y-118661000D01*
X151766000Y-118263929D02*
X151766000Y-118661000D01*
X152526000Y-127321000D02*
X152526000Y-121321000D01*
X151766000Y-127321000D02*
X152526000Y-127321000D01*
X151766000Y-121321000D02*
X151766000Y-127321000D01*
X150876000Y-118661000D02*
X150876000Y-121321000D01*
X149986000Y-115723929D02*
X149986000Y-116178071D01*
X149226000Y-115723929D02*
X149226000Y-116178071D01*
X149986000Y-118263929D02*
X149986000Y-118661000D01*
X149226000Y-118263929D02*
X149226000Y-118661000D01*
X149986000Y-127321000D02*
X149986000Y-121321000D01*
X149226000Y-127321000D02*
X149986000Y-127321000D01*
X149226000Y-121321000D02*
X149226000Y-127321000D01*
X148336000Y-118661000D02*
X148336000Y-121321000D01*
X147446000Y-115723929D02*
X147446000Y-116178071D01*
X146686000Y-115723929D02*
X146686000Y-116178071D01*
X147446000Y-118263929D02*
X147446000Y-118661000D01*
X146686000Y-118263929D02*
X146686000Y-118661000D01*
X147446000Y-127321000D02*
X147446000Y-121321000D01*
X146686000Y-127321000D02*
X147446000Y-127321000D01*
X146686000Y-121321000D02*
X146686000Y-127321000D01*
X145796000Y-118661000D02*
X145796000Y-121321000D01*
X144906000Y-115723929D02*
X144906000Y-116178071D01*
X144146000Y-115723929D02*
X144146000Y-116178071D01*
X144906000Y-118263929D02*
X144906000Y-118661000D01*
X144146000Y-118263929D02*
X144146000Y-118661000D01*
X144906000Y-127321000D02*
X144906000Y-121321000D01*
X144146000Y-127321000D02*
X144906000Y-127321000D01*
X144146000Y-121321000D02*
X144146000Y-127321000D01*
X143256000Y-118661000D02*
X143256000Y-121321000D01*
X142366000Y-115723929D02*
X142366000Y-116178071D01*
X141606000Y-115723929D02*
X141606000Y-116178071D01*
X142366000Y-118263929D02*
X142366000Y-118661000D01*
X141606000Y-118263929D02*
X141606000Y-118661000D01*
X142366000Y-127321000D02*
X142366000Y-121321000D01*
X141606000Y-127321000D02*
X142366000Y-127321000D01*
X141606000Y-121321000D02*
X141606000Y-127321000D01*
X140716000Y-118661000D02*
X140716000Y-121321000D01*
X139826000Y-115723929D02*
X139826000Y-116178071D01*
X139066000Y-115723929D02*
X139066000Y-116178071D01*
X139826000Y-118263929D02*
X139826000Y-118661000D01*
X139066000Y-118263929D02*
X139066000Y-118661000D01*
X139826000Y-127321000D02*
X139826000Y-121321000D01*
X139066000Y-127321000D02*
X139826000Y-127321000D01*
X139066000Y-121321000D02*
X139066000Y-127321000D01*
X138176000Y-118661000D02*
X138176000Y-121321000D01*
X137286000Y-115723929D02*
X137286000Y-116178071D01*
X136526000Y-115723929D02*
X136526000Y-116178071D01*
X137286000Y-118263929D02*
X137286000Y-118661000D01*
X136526000Y-118263929D02*
X136526000Y-118661000D01*
X137286000Y-127321000D02*
X137286000Y-121321000D01*
X136526000Y-127321000D02*
X137286000Y-127321000D01*
X136526000Y-121321000D02*
X136526000Y-127321000D01*
X135636000Y-118661000D02*
X135636000Y-121321000D01*
X134746000Y-115723929D02*
X134746000Y-116178071D01*
X133986000Y-115723929D02*
X133986000Y-116178071D01*
X134746000Y-118263929D02*
X134746000Y-118661000D01*
X133986000Y-118263929D02*
X133986000Y-118661000D01*
X134746000Y-127321000D02*
X134746000Y-121321000D01*
X133986000Y-127321000D02*
X134746000Y-127321000D01*
X133986000Y-121321000D02*
X133986000Y-127321000D01*
X133096000Y-118661000D02*
X133096000Y-121321000D01*
X132206000Y-115723929D02*
X132206000Y-116178071D01*
X131446000Y-115723929D02*
X131446000Y-116178071D01*
X132206000Y-118263929D02*
X132206000Y-118661000D01*
X131446000Y-118263929D02*
X131446000Y-118661000D01*
X132206000Y-127321000D02*
X132206000Y-121321000D01*
X131446000Y-127321000D02*
X132206000Y-127321000D01*
X131446000Y-121321000D02*
X131446000Y-127321000D01*
X130556000Y-118661000D02*
X130556000Y-121321000D01*
X129666000Y-115723929D02*
X129666000Y-116178071D01*
X128906000Y-115723929D02*
X128906000Y-116178071D01*
X129666000Y-118263929D02*
X129666000Y-118661000D01*
X128906000Y-118263929D02*
X128906000Y-118661000D01*
X129666000Y-127321000D02*
X129666000Y-121321000D01*
X128906000Y-127321000D02*
X129666000Y-127321000D01*
X128906000Y-121321000D02*
X128906000Y-127321000D01*
X128016000Y-118661000D02*
X128016000Y-121321000D01*
X127126000Y-115723929D02*
X127126000Y-116178071D01*
X126366000Y-115723929D02*
X126366000Y-116178071D01*
X127126000Y-118263929D02*
X127126000Y-118661000D01*
X126366000Y-118263929D02*
X126366000Y-118661000D01*
X127126000Y-127321000D02*
X127126000Y-121321000D01*
X126366000Y-127321000D02*
X127126000Y-127321000D01*
X126366000Y-121321000D02*
X126366000Y-127321000D01*
X125476000Y-118661000D02*
X125476000Y-121321000D01*
X124586000Y-115791000D02*
X124586000Y-116178071D01*
X123826000Y-115791000D02*
X123826000Y-116178071D01*
X124586000Y-118263929D02*
X124586000Y-118661000D01*
X123826000Y-118263929D02*
X123826000Y-118661000D01*
X124486000Y-121321000D02*
X124486000Y-127321000D01*
X124366000Y-121321000D02*
X124366000Y-127321000D01*
X124246000Y-121321000D02*
X124246000Y-127321000D01*
X124126000Y-121321000D02*
X124126000Y-127321000D01*
X124006000Y-121321000D02*
X124006000Y-127321000D01*
X123886000Y-121321000D02*
X123886000Y-127321000D01*
X124586000Y-127321000D02*
X124586000Y-121321000D01*
X123826000Y-127321000D02*
X124586000Y-127321000D01*
X123826000Y-121321000D02*
X123826000Y-127321000D01*
X122876000Y-121321000D02*
X122876000Y-118661000D01*
X178876000Y-121321000D02*
X122876000Y-121321000D01*
X178876000Y-118661000D02*
X178876000Y-121321000D01*
X122876000Y-118661000D02*
X178876000Y-118661000D01*
M02*
