G04 #@! TF.GenerationSoftware,KiCad,Pcbnew,(5.1.2-1)-1*
G04 #@! TF.CreationDate,2020-07-15T14:49:12-04:00*
G04 #@! TF.ProjectId,ArcadeMain,41726361-6465-44d6-9169-6e2e6b696361,rev?*
G04 #@! TF.SameCoordinates,Original*
G04 #@! TF.FileFunction,Profile,NP*
%FSLAX46Y46*%
G04 Gerber Fmt 4.6, Leading zero omitted, Abs format (unit mm)*
G04 Created by KiCad (PCBNEW (5.1.2-1)-1) date 2020-07-15 14:49:12*
%MOMM*%
%LPD*%
G04 APERTURE LIST*
%ADD10C,0.050000*%
%ADD11C,0.100000*%
G04 APERTURE END LIST*
D10*
X133350000Y-132588000D02*
X133350000Y-130810000D01*
X130810000Y-132588000D02*
X133350000Y-132588000D01*
X58420000Y-132588000D02*
X58420000Y-130810000D01*
X58420000Y-125984000D02*
X58420000Y-123190000D01*
X133350000Y-125984000D02*
X133350000Y-123190000D01*
X133350000Y-130810000D02*
X133350000Y-125984000D01*
X58420000Y-125984000D02*
X58420000Y-130810000D01*
X58420000Y-34290000D02*
X58420000Y-123190000D01*
X133350000Y-34290000D02*
X132080000Y-34290000D01*
X130810000Y-132588000D02*
X58420000Y-132588000D01*
X133350000Y-34290000D02*
X133350000Y-123190000D01*
X58420000Y-34290000D02*
X132080000Y-34290000D01*
D11*
X124235000Y-96274000D02*
G75*
G03X124060000Y-96099000I-175000J0D01*
G01*
X124060000Y-96099000D02*
G75*
G03X123885000Y-96274000I0J-175000D01*
G01*
X123885000Y-96274000D02*
X123885000Y-97274000D01*
X123885000Y-97274000D02*
G75*
G03X124060000Y-97449000I175000J0D01*
G01*
X124060000Y-97449000D02*
G75*
G03X124235000Y-97274000I0J175000D01*
G01*
X124235000Y-97274000D02*
X124235000Y-96274000D01*
X131385000Y-96274000D02*
G75*
G03X131210000Y-96099000I-175000J0D01*
G01*
X131210000Y-96099000D02*
G75*
G03X131035000Y-96274000I0J-175000D01*
G01*
X131035000Y-96274000D02*
X131035000Y-97274000D01*
X131035000Y-97274000D02*
G75*
G03X131210000Y-97449000I175000J0D01*
G01*
X131210000Y-97449000D02*
G75*
G03X131385000Y-97274000I0J175000D01*
G01*
X131385000Y-97274000D02*
X131385000Y-96274000D01*
X124235000Y-92210000D02*
G75*
G03X124060000Y-92035000I-175000J0D01*
G01*
X124060000Y-92035000D02*
G75*
G03X123885000Y-92210000I0J-175000D01*
G01*
X123885000Y-92210000D02*
X123885000Y-93210000D01*
X123885000Y-93210000D02*
G75*
G03X124060000Y-93385000I175000J0D01*
G01*
X124060000Y-93385000D02*
G75*
G03X124235000Y-93210000I0J175000D01*
G01*
X124235000Y-93210000D02*
X124235000Y-92210000D01*
X131385000Y-92210000D02*
G75*
G03X131210000Y-92035000I-175000J0D01*
G01*
X131210000Y-92035000D02*
G75*
G03X131035000Y-92210000I0J-175000D01*
G01*
X131035000Y-92210000D02*
X131035000Y-93210000D01*
X131035000Y-93210000D02*
G75*
G03X131210000Y-93385000I175000J0D01*
G01*
X131210000Y-93385000D02*
G75*
G03X131385000Y-93210000I0J175000D01*
G01*
X131385000Y-93210000D02*
X131385000Y-92210000D01*
M02*
