G04 #@! TF.GenerationSoftware,KiCad,Pcbnew,(5.1.2-1)-1*
G04 #@! TF.CreationDate,2020-07-15T14:49:12-04:00*
G04 #@! TF.ProjectId,ArcadeMain,41726361-6465-44d6-9169-6e2e6b696361,rev?*
G04 #@! TF.SameCoordinates,Original*
G04 #@! TF.FileFunction,Legend,Top*
G04 #@! TF.FilePolarity,Positive*
%FSLAX46Y46*%
G04 Gerber Fmt 4.6, Leading zero omitted, Abs format (unit mm)*
G04 Created by KiCad (PCBNEW (5.1.2-1)-1) date 2020-07-15 14:49:12*
%MOMM*%
%LPD*%
G04 APERTURE LIST*
%ADD10C,0.150000*%
%ADD11C,0.020000*%
%ADD12C,0.250000*%
%ADD13C,0.127000*%
%ADD14C,0.200000*%
%ADD15C,0.120000*%
%ADD16C,0.152400*%
G04 APERTURE END LIST*
D10*
X96806238Y-121991428D02*
X97568142Y-121991428D01*
X97187190Y-122372380D02*
X97187190Y-121610476D01*
X98520523Y-121372380D02*
X98044333Y-121372380D01*
X97996714Y-121848571D01*
X98044333Y-121800952D01*
X98139571Y-121753333D01*
X98377666Y-121753333D01*
X98472904Y-121800952D01*
X98520523Y-121848571D01*
X98568142Y-121943809D01*
X98568142Y-122181904D01*
X98520523Y-122277142D01*
X98472904Y-122324761D01*
X98377666Y-122372380D01*
X98139571Y-122372380D01*
X98044333Y-122324761D01*
X97996714Y-122277142D01*
X98901476Y-121705714D02*
X99139571Y-122372380D01*
X99377666Y-121705714D01*
X102568142Y-121420000D02*
X102472904Y-121372380D01*
X102330047Y-121372380D01*
X102187190Y-121420000D01*
X102091952Y-121515238D01*
X102044333Y-121610476D01*
X101996714Y-121800952D01*
X101996714Y-121943809D01*
X102044333Y-122134285D01*
X102091952Y-122229523D01*
X102187190Y-122324761D01*
X102330047Y-122372380D01*
X102425285Y-122372380D01*
X102568142Y-122324761D01*
X102615761Y-122277142D01*
X102615761Y-121943809D01*
X102425285Y-121943809D01*
X103044333Y-122372380D02*
X103044333Y-121372380D01*
X103615761Y-122372380D01*
X103615761Y-121372380D01*
X104091952Y-122372380D02*
X104091952Y-121372380D01*
X104330047Y-121372380D01*
X104472904Y-121420000D01*
X104568142Y-121515238D01*
X104615761Y-121610476D01*
X104663380Y-121800952D01*
X104663380Y-121943809D01*
X104615761Y-122134285D01*
X104568142Y-122229523D01*
X104472904Y-122324761D01*
X104330047Y-122372380D01*
X104091952Y-122372380D01*
X85122238Y-122118428D02*
X85884142Y-122118428D01*
X85503190Y-122499380D02*
X85503190Y-121737476D01*
X86836523Y-121499380D02*
X86360333Y-121499380D01*
X86312714Y-121975571D01*
X86360333Y-121927952D01*
X86455571Y-121880333D01*
X86693666Y-121880333D01*
X86788904Y-121927952D01*
X86836523Y-121975571D01*
X86884142Y-122070809D01*
X86884142Y-122308904D01*
X86836523Y-122404142D01*
X86788904Y-122451761D01*
X86693666Y-122499380D01*
X86455571Y-122499380D01*
X86360333Y-122451761D01*
X86312714Y-122404142D01*
X87217476Y-121832714D02*
X87455571Y-122499380D01*
X87693666Y-121832714D01*
X90884142Y-121547000D02*
X90788904Y-121499380D01*
X90646047Y-121499380D01*
X90503190Y-121547000D01*
X90407952Y-121642238D01*
X90360333Y-121737476D01*
X90312714Y-121927952D01*
X90312714Y-122070809D01*
X90360333Y-122261285D01*
X90407952Y-122356523D01*
X90503190Y-122451761D01*
X90646047Y-122499380D01*
X90741285Y-122499380D01*
X90884142Y-122451761D01*
X90931761Y-122404142D01*
X90931761Y-122070809D01*
X90741285Y-122070809D01*
X91360333Y-122499380D02*
X91360333Y-121499380D01*
X91931761Y-122499380D01*
X91931761Y-121499380D01*
X92407952Y-122499380D02*
X92407952Y-121499380D01*
X92646047Y-121499380D01*
X92788904Y-121547000D01*
X92884142Y-121642238D01*
X92931761Y-121737476D01*
X92979380Y-121927952D01*
X92979380Y-122070809D01*
X92931761Y-122261285D01*
X92884142Y-122356523D01*
X92788904Y-122451761D01*
X92646047Y-122499380D01*
X92407952Y-122499380D01*
D11*
X104430597Y-81858184D02*
G75*
G02X105066608Y-81990386I-250565J-2801437D01*
G01*
X103686824Y-81849524D02*
G75*
G02X104430598Y-81858184I316177J-4789349D01*
G01*
X102930496Y-81957631D02*
G75*
G02X103686824Y-81849524I1087508J-4908580D01*
G01*
X102255447Y-82175967D02*
G75*
G02X102930496Y-81957632I1485789J-3441037D01*
G01*
X86177639Y-73578259D02*
X86567171Y-74296328D01*
X85855510Y-73081594D02*
G75*
G02X86177639Y-73578259I-4947955J-3561957D01*
G01*
X85509233Y-72658103D02*
G75*
G02X85855510Y-73081594I-3266847J-3024525D01*
G01*
X85234036Y-72378525D02*
X85509234Y-72658103D01*
X84988671Y-72168332D02*
G75*
G02X85234036Y-72378525I-1809089J-2360118D01*
G01*
X92687980Y-81865644D02*
G75*
G02X92592963Y-81496885I375191J293295D01*
G01*
X92592962Y-81496885D02*
G75*
G02X92802596Y-81001288I1112894J-178609D01*
G01*
X92802597Y-81001288D02*
G75*
G02X93272551Y-80512296I2191094J-1635467D01*
G01*
X93272551Y-80512296D02*
G75*
G02X93932974Y-80050555I3588393J-4429272D01*
G01*
X93932974Y-80050555D02*
G75*
G02X94469290Y-79854843I778307J-1300119D01*
G01*
X94469289Y-79854843D02*
G75*
G02X94876730Y-79917359I107017J-661509D01*
G01*
X94876730Y-79917359D02*
G75*
G02X95165071Y-80206131I-289696J-577605D01*
G01*
X95324695Y-80525583D02*
X95165071Y-80206131D01*
X84768602Y-72021802D02*
G75*
G02X84988671Y-72168332I-988988J-1723852D01*
G01*
X84571822Y-71939555D02*
G75*
G02X84768602Y-72021801I-228956J-824320D01*
G01*
X87101218Y-81687379D02*
G75*
G02X87240565Y-81811678I-96596J-248548D01*
G01*
X86870277Y-81645389D02*
G75*
G02X87101218Y-81687379I6783J-618765D01*
G01*
X86564048Y-81690458D02*
G75*
G02X86870277Y-81645389I318818J-1103364D01*
G01*
X86205447Y-81823027D02*
G75*
G02X86564048Y-81690458I1088044J-2391885D01*
G01*
X85814600Y-82051809D02*
G75*
G02X86205447Y-81823027I1305715J-1782408D01*
G01*
X85636664Y-82297526D02*
G75*
G02X85814600Y-82051809I470143J-153170D01*
G01*
X85571015Y-82701674D02*
G75*
G02X85636664Y-82297526I1335312J-9501D01*
G01*
X85577490Y-83750487D02*
X85571014Y-82701674D01*
X85575066Y-84765727D02*
X85577490Y-83750487D01*
X85575066Y-84765726D02*
G75*
G02X85505191Y-85376512I-3431703J83200D01*
G01*
X85505190Y-85376512D02*
G75*
G02X85366342Y-85716819I-984624J203258D01*
G01*
X85366342Y-85716819D02*
G75*
G02X85146833Y-85836678I-219509J141074D01*
G01*
X85146833Y-85836679D02*
G75*
G02X84964608Y-85751605I0J237697D01*
G01*
X84964608Y-85751604D02*
G75*
G02X84847678Y-85521892I440202J368692D01*
G01*
X84847677Y-85521892D02*
G75*
G02X84773977Y-85061333I2640805J658766D01*
G01*
X84716473Y-84111488D02*
X84773977Y-85061333D01*
X84657812Y-83171221D02*
X84716473Y-84111488D01*
X84580351Y-82637356D02*
G75*
G02X84657812Y-83171221I-3908623J-839675D01*
G01*
X84468802Y-82323085D02*
G75*
G02X84580350Y-82637356I-1151206J-585543D01*
G01*
X84299512Y-82170565D02*
G75*
G02X84468802Y-82323085I-113777J-296498D01*
G01*
X83742798Y-82203383D02*
G75*
G02X84299512Y-82170564I314586J-598154D01*
G01*
X82950023Y-82730444D02*
G75*
G02X83742798Y-82203383I2956995J-3587991D01*
G01*
X82295154Y-83394619D02*
G75*
G02X82950023Y-82730444I3534954J-2830493D01*
G01*
X82218781Y-83885369D02*
G75*
G02X82295154Y-83394618I465957J178804D01*
G01*
X82263028Y-83951377D02*
G75*
G02X82218782Y-83885369I122664J130057D01*
G01*
X82346928Y-84016213D02*
G75*
G02X82263028Y-83951377I286998J458090D01*
G01*
X82453549Y-84070269D02*
G75*
G02X82346928Y-84016213I244641J614722D01*
G01*
X82568074Y-84104204D02*
G75*
G02X82453550Y-84070268I129342J646712D01*
G01*
X82678910Y-84127137D02*
X82568074Y-84104204D01*
X82773814Y-84148467D02*
X82678910Y-84127137D01*
X82855497Y-84168002D02*
X82773814Y-84148467D01*
X82855497Y-84168002D02*
G75*
G02X82864923Y-84174178I-3960J-16324D01*
G01*
X82864923Y-84174178D02*
G75*
G02X82869371Y-84185600I-17842J-13526D01*
G01*
X82909283Y-84608944D02*
X82869371Y-84185600D01*
X82952781Y-85079824D02*
X82909283Y-84608944D01*
X83002627Y-85636678D02*
X82952781Y-85079824D01*
X83107678Y-86642596D02*
X83002627Y-85636678D01*
X83219729Y-87194531D02*
G75*
G02X83107678Y-86642596I3369578J971419D01*
G01*
X83375115Y-87527444D02*
G75*
G02X83219730Y-87194531I980607J660410D01*
G01*
X83608511Y-87738319D02*
G75*
G02X83375115Y-87527445I307988J575482D01*
G01*
X83952225Y-87829466D02*
G75*
G02X83608511Y-87738318I20896J772428D01*
G01*
X84317536Y-87763621D02*
G75*
G02X83952225Y-87829467I-340701J843904D01*
G01*
X84720493Y-87526584D02*
G75*
G02X84317536Y-87763621I-996319J1232692D01*
G01*
X85179857Y-87103933D02*
G75*
G02X84720493Y-87526584I-3524649J3369860D01*
G01*
X85554758Y-86719054D02*
X85179858Y-87103933D01*
X85554758Y-86719055D02*
G75*
G02X85706197Y-86602389I512393J-508494D01*
G01*
X85706197Y-86602389D02*
G75*
G02X85810017Y-86597385I56769J-98322D01*
G01*
X85810017Y-86597385D02*
G75*
G02X85912726Y-86680791I-108791J-238910D01*
G01*
X85912726Y-86680792D02*
G75*
G02X85967350Y-86763821I-768974J-565384D01*
G01*
X85967350Y-86763821D02*
G75*
G02X86013522Y-86852735I-850387J-498043D01*
G01*
X86013523Y-86852735D02*
G75*
G02X86045879Y-86934809I-763545J-348430D01*
G01*
X86045879Y-86934809D02*
G75*
G02X86055447Y-86993547I-175515J-58738D01*
G01*
X86101669Y-87128728D02*
G75*
G02X86055447Y-86993547I174565J135181D01*
G01*
X86237597Y-87256709D02*
G75*
G02X86101668Y-87128728I337356J494484D01*
G01*
X86414883Y-87342222D02*
G75*
G02X86237597Y-87256708I195645J632143D01*
G01*
X86582833Y-87353351D02*
G75*
G02X86414883Y-87342222I-60630J357888D01*
G01*
X86688775Y-87322188D02*
G75*
G02X86582833Y-87353350I-184115J430272D01*
G01*
X86865441Y-87241390D02*
X86688775Y-87322188D01*
X87067008Y-87136684D02*
X86865441Y-87241390D01*
X87268740Y-87018997D02*
X87067008Y-87136684D01*
X87803512Y-86575390D02*
G75*
G02X87268740Y-87018997I-1831273J1663478D01*
G01*
X88143491Y-86032050D02*
G75*
G02X87803512Y-86575391I-1677428J671563D01*
G01*
X88157590Y-85622641D02*
G75*
G02X88143491Y-86032050I-574194J-185173D01*
G01*
X87902226Y-85436678D02*
G75*
G02X88157591Y-85622641I0J-268316D01*
G01*
X87902226Y-85436678D02*
G75*
G02X87803686Y-85423665I0J379597D01*
G01*
X87803686Y-85423666D02*
G75*
G02X87705837Y-85385272I122819J456903D01*
G01*
X87705837Y-85385272D02*
G75*
G02X87623286Y-85328645I201667J382473D01*
G01*
X87623286Y-85328645D02*
G75*
G02X87570328Y-85261678I153024J175437D01*
G01*
X87570328Y-85261678D02*
G75*
G02X87530981Y-85133907I319883J168451D01*
G01*
X87483880Y-84682772D02*
X87530981Y-85133907D01*
X87440010Y-84143210D02*
X87483880Y-84682772D01*
X87405447Y-83536678D02*
X87440010Y-84143210D01*
X87370883Y-82930147D02*
X87405447Y-83536678D01*
X87327013Y-82390585D02*
X87370883Y-82930147D01*
X87279912Y-81939450D02*
X87327013Y-82390585D01*
X87240565Y-81811679D02*
G75*
G02X87279912Y-81939450I-319883J-168451D01*
G01*
X86073725Y-81648024D02*
G75*
G02X86505024Y-81488157I943919J-1884827D01*
G01*
X86505025Y-81488157D02*
G75*
G02X86909575Y-81452409I314813J-1255697D01*
G01*
X86909574Y-81452410D02*
G75*
G02X87230584Y-81541497I-57738J-830937D01*
G01*
X87230584Y-81541498D02*
G75*
G02X87425709Y-81741968I-198098J-388012D01*
G01*
X87425710Y-81741968D02*
G75*
G02X87477294Y-81915409I-525811J-250776D01*
G01*
X87534903Y-82390712D02*
X87477294Y-81915409D01*
X87587317Y-82962565D02*
X87534903Y-82390712D01*
X87626456Y-83591968D02*
X87587317Y-82962565D01*
X87705447Y-85186678D02*
X87626456Y-83591968D01*
X87985637Y-85218822D02*
X87705447Y-85186678D01*
X87985638Y-85218821D02*
G75*
G02X88213496Y-85308373I-54218J-472614D01*
G01*
X88213496Y-85308373D02*
G75*
G02X88363196Y-85498454I-269942J-366584D01*
G01*
X88363195Y-85498454D02*
G75*
G02X88412177Y-85771600I-584231J-245731D01*
G01*
X88412176Y-85771600D02*
G75*
G02X88353343Y-86093052I-1188790J51468D01*
G01*
X88353343Y-86093053D02*
G75*
G02X88109523Y-86516924I-1150372J379659D01*
G01*
X88109523Y-86516923D02*
G75*
G02X87616444Y-86993271I-3316405J2939521D01*
G01*
X87616444Y-86993271D02*
G75*
G02X87058279Y-87386271I-2817922J3409333D01*
G01*
X87058279Y-87386271D02*
G75*
G02X86605447Y-87537745I-575885J969000D01*
G01*
X86605446Y-87537745D02*
G75*
G02X86360577Y-87547847I-196433J1788670D01*
G01*
X86360577Y-87547847D02*
G75*
G02X86208525Y-87507028I9087J337457D01*
G01*
X86208525Y-87507027D02*
G75*
G02X86084580Y-87399532I182021J335079D01*
G01*
X86084580Y-87399533D02*
G75*
G02X85934190Y-87173108I2049030J1524113D01*
G01*
X85719678Y-86809537D02*
X85934190Y-87173108D01*
X85362562Y-87216309D02*
X85719678Y-86809537D01*
X85362562Y-87216309D02*
G75*
G02X84669815Y-87820007I-2594077J2277407D01*
G01*
X84669816Y-87820007D02*
G75*
G02X83998224Y-88026955I-689750J1045180D01*
G01*
X83998224Y-88026954D02*
G75*
G02X83430850Y-87821305I-12348J851430D01*
G01*
X83430850Y-87821305D02*
G75*
G02X83022542Y-87250244I962061J1119374D01*
G01*
X83022542Y-87250243D02*
G75*
G02X82954522Y-87016154I1158654J463600D01*
G01*
X82890436Y-86620969D02*
X82954522Y-87016154D01*
X82835685Y-86140115D02*
X82890436Y-86620969D01*
X82796861Y-85608057D02*
X82835685Y-86140115D01*
X82727298Y-84356049D02*
X82796861Y-85608057D01*
X82440267Y-84298642D02*
X82727298Y-84356049D01*
X82440266Y-84298642D02*
G75*
G02X82196109Y-84190897I120893J604461D01*
G01*
X82196109Y-84190897D02*
G75*
G02X82037154Y-83994891I295528J402119D01*
G01*
X82037154Y-83994891D02*
G75*
G02X81987392Y-83733883I514534J233346D01*
G01*
X81987392Y-83733884D02*
G75*
G02X82052539Y-83443697I868499J-42573D01*
G01*
X82052540Y-83443696D02*
G75*
G02X82375265Y-82959427I1386458J-574291D01*
G01*
X82375265Y-82959427D02*
G75*
G02X82969209Y-82455684I3273158J-3257234D01*
G01*
X82969209Y-82455684D02*
G75*
G02X83631178Y-82063575I2653468J-3724829D01*
G01*
X83631178Y-82063575D02*
G75*
G02X84164948Y-81938875I544348J-1125307D01*
G01*
X84164947Y-81938875D02*
G75*
G02X84444597Y-82008952I4855J-573650D01*
G01*
X84444598Y-82008951D02*
G75*
G02X84644487Y-82204875I-246132J-451044D01*
G01*
X84644486Y-82204875D02*
G75*
G02X84778598Y-82566884I-1021430J-584250D01*
G01*
X84778598Y-82566884D02*
G75*
G02X84863914Y-83160861I-6225230J-1197272D01*
G01*
X84894620Y-83525682D02*
X84863914Y-83160861D01*
X84921519Y-83939973D02*
X84894620Y-83525682D01*
X84941175Y-84339241D02*
X84921519Y-83939973D01*
X84949154Y-84653500D02*
X84941175Y-84339241D01*
X84976381Y-85335651D02*
X84949154Y-84653500D01*
X85076716Y-85610487D02*
G75*
G02X84976381Y-85335651I428268J312082D01*
G01*
X85203064Y-85597321D02*
G75*
G02X85076716Y-85610487I-66995J30085D01*
G01*
X85343133Y-85194153D02*
G75*
G02X85203064Y-85597321I-2362708J594937D01*
G01*
X85387094Y-84932300D02*
G75*
G02X85343133Y-85194153I-1648113J142077D01*
G01*
X85408761Y-84554052D02*
X85387094Y-84932300D01*
X85410317Y-84089643D02*
X85408761Y-84554052D01*
X85389930Y-83549607D02*
X85410317Y-84089643D01*
X85364616Y-82646814D02*
X85389930Y-83549607D01*
X85364616Y-82646813D02*
G75*
G02X85440500Y-82208485I1286442J3019D01*
G01*
X85440500Y-82208485D02*
G75*
G02X85647797Y-81919630I611108J-219751D01*
G01*
X85647798Y-81919631D02*
G75*
G02X86073726Y-81648025I1521911J-1916871D01*
G01*
X91642866Y-80859866D02*
G75*
G02X91902972Y-81064204I-720833J-1185278D01*
G01*
X91369973Y-80751867D02*
G75*
G02X91642866Y-80859865I-178967J-850998D01*
G01*
X91097573Y-80746369D02*
G75*
G02X91369973Y-80751868I121676J-722203D01*
G01*
X90838291Y-80840298D02*
G75*
G02X91097573Y-80746369I386785J-662852D01*
G01*
X90763138Y-80909547D02*
G75*
G02X90838291Y-80840298I195130J-136361D01*
G01*
X90671509Y-81055890D02*
G75*
G02X90763138Y-80909547I1492679J-832746D01*
G01*
X90581039Y-81238919D02*
G75*
G02X90671510Y-81055890I1881216J-816008D01*
G01*
X90505255Y-81437257D02*
G75*
G02X90581039Y-81238918I2275285J-755729D01*
G01*
X90436265Y-81628656D02*
X90505254Y-81437258D01*
X90366115Y-81789974D02*
X90436265Y-81628656D01*
X90301272Y-81915064D02*
X90366115Y-81789974D01*
X90301271Y-81915064D02*
G75*
G02X90264529Y-81936678I-36742J20423D01*
G01*
X90264529Y-81936679D02*
G75*
G02X90226190Y-81917077I0J47295D01*
G01*
X90155235Y-81811835D02*
X90226190Y-81917077D01*
X90076610Y-81674527D02*
X90155235Y-81811835D01*
X89997565Y-81511678D02*
X90076610Y-81674527D01*
X89903624Y-81331042D02*
G75*
G02X89997565Y-81511678I-1593280J-943336D01*
G01*
X89802857Y-81191296D02*
G75*
G02X89903625Y-81331042I-722517J-627190D01*
G01*
X89700944Y-81097479D02*
G75*
G02X89802857Y-81191295I-366648J-500557D01*
G01*
X89603525Y-81057748D02*
G75*
G02X89700944Y-81097479I-30766J-214734D01*
G01*
X89392299Y-81090348D02*
G75*
G02X89603525Y-81057748I159171J-330718D01*
G01*
X89008509Y-81296455D02*
G75*
G02X89392299Y-81090348I2518487J-4229276D01*
G01*
X88592413Y-81573193D02*
G75*
G02X89008509Y-81296455I2983705J-4035031D01*
G01*
X88220989Y-81881033D02*
G75*
G02X88592413Y-81573193I2963825J-3198014D01*
G01*
X87996041Y-82205964D02*
G75*
G02X88220989Y-81881032I846401J-345627D01*
G01*
X87959956Y-82562433D02*
G75*
G02X87996040Y-82205965I622366J117061D01*
G01*
X88120412Y-82830952D02*
G75*
G02X87959957Y-82562432I284517J352215D01*
G01*
X88419544Y-82936678D02*
G75*
G02X88120412Y-82830952I1J476033D01*
G01*
X88419545Y-82936679D02*
G75*
G02X88510313Y-82944825I0J-509746D01*
G01*
X88510313Y-82944825D02*
G75*
G02X88597791Y-82969001I-89292J-493439D01*
G01*
X88597791Y-82969001D02*
G75*
G02X88669601Y-83004490I-143213J-380182D01*
G01*
X88669601Y-83004490D02*
G75*
G02X88711648Y-83046713I-69248J-111007D01*
G01*
X88711648Y-83046713D02*
G75*
G02X88740694Y-83134608I-169512J-104764D01*
G01*
X88778776Y-83608989D02*
X88740694Y-83134608D01*
X88814830Y-84166200D02*
X88778776Y-83608989D01*
X88844672Y-84806326D02*
X88814830Y-84166200D01*
X88888357Y-85775331D02*
X88844672Y-84806326D01*
X88931272Y-86211749D02*
G75*
G02X88888357Y-85775331I4587309J671417D01*
G01*
X88996081Y-86456643D02*
G75*
G02X88931273Y-86211749I1043006J407039D01*
G01*
X89107569Y-86602500D02*
G75*
G02X88996081Y-86456643I197347J266382D01*
G01*
X89443529Y-86699753D02*
G75*
G02X89107568Y-86602500I-37144J500600D01*
G01*
X89938580Y-86597614D02*
G75*
G02X89443530Y-86699754I-639977J1851061D01*
G01*
X90435098Y-86354612D02*
G75*
G02X89938579Y-86597614I-1237001J1898769D01*
G01*
X90785537Y-86022369D02*
G75*
G02X90435099Y-86354612I-1081226J789502D01*
G01*
X90891324Y-85821123D02*
G75*
G02X90785537Y-86022369I-733695J257248D01*
G01*
X90930557Y-85603392D02*
G75*
G02X90891324Y-85821123I-698757J13511D01*
G01*
X90915739Y-85251079D02*
G75*
G02X90930557Y-85603393I-2859455J-296733D01*
G01*
X90817809Y-84353413D02*
X90915740Y-85251079D01*
X90736495Y-83557708D02*
X90817809Y-84353413D01*
X90711931Y-83042038D02*
X90736495Y-83557708D01*
X90711930Y-83042038D02*
G75*
G02X90727857Y-82709507I3124003J17024D01*
G01*
X90727856Y-82709507D02*
G75*
G02X90808453Y-82636678I80597J-8182D01*
G01*
X90808453Y-82636679D02*
G75*
G02X90828924Y-82644434I0J-30895D01*
G01*
X90920949Y-82726850D02*
X90828924Y-82644434D01*
X91027093Y-82825996D02*
X90920949Y-82726850D01*
X91147030Y-82943647D02*
X91027093Y-82825996D01*
X91374189Y-83124083D02*
G75*
G02X91147030Y-82943647I673456J1081051D01*
G01*
X91585351Y-83192196D02*
G75*
G02X91374189Y-83124083I30571J456150D01*
G01*
X91800835Y-83152277D02*
G75*
G02X91585351Y-83192196I-185879J401823D01*
G01*
X92040864Y-83003549D02*
G75*
G02X91800835Y-83152276I-729316J908982D01*
G01*
X92277464Y-82639053D02*
G75*
G02X92040864Y-83003549I-670331J176084D01*
G01*
X92328657Y-82089878D02*
G75*
G02X92277464Y-82639054I-1685578J-119848D01*
G01*
X92197149Y-81512195D02*
G75*
G02X92328657Y-82089877I-1809213J-715675D01*
G01*
X91902972Y-81064203D02*
G75*
G02X92197149Y-81512195I-933707J-933709D01*
G01*
X90767134Y-80699748D02*
G75*
G02X91069609Y-80559582I542876J-775064D01*
G01*
X91069609Y-80559581D02*
G75*
G02X91391267Y-80539762I210917J-802987D01*
G01*
X91391267Y-80539762D02*
G75*
G02X91710443Y-80644992I-122058J-906886D01*
G01*
X91710443Y-80644992D02*
G75*
G02X92005139Y-80866371I-631794J-1147871D01*
G01*
X92005139Y-80866371D02*
G75*
G02X92405961Y-81476883I-1271839J-1271838D01*
G01*
X92405961Y-81476882D02*
G75*
G02X92537158Y-82203725I-1746460J-690504D01*
G01*
X92537158Y-82203725D02*
G75*
G02X92375932Y-82861044I-1542239J29847D01*
G01*
X92375931Y-82861043D02*
G75*
G02X91958326Y-83285189I-857610J426730D01*
G01*
X91958326Y-83285189D02*
G75*
G02X91714149Y-83373837I-463781J896852D01*
G01*
X91714150Y-83373837D02*
G75*
G02X91480455Y-83384136I-145934J654894D01*
G01*
X91480455Y-83384135D02*
G75*
G02X91254947Y-83313409I89928J681606D01*
G01*
X91254947Y-83313409D02*
G75*
G02X91034868Y-83163353I503041J974198D01*
G01*
X90933643Y-83082407D02*
G75*
G02X91034868Y-83163353I-835172J-1148160D01*
G01*
X90897125Y-83088679D02*
G75*
G02X90933643Y-83082407I21311J-14634D01*
G01*
X90883311Y-83142350D02*
G75*
G02X90897125Y-83088679I80461J7904D01*
G01*
X90906571Y-83350181D02*
X90883311Y-83142350D01*
X91026438Y-84359577D02*
X90906571Y-83350181D01*
X91095451Y-85091936D02*
X91026438Y-84359577D01*
X91126011Y-85622765D02*
X91095451Y-85091936D01*
X91126011Y-85622765D02*
G75*
G02X91099983Y-85872844I-886414J-34137D01*
G01*
X91099983Y-85872844D02*
G75*
G02X90972135Y-86135535I-689244J172989D01*
G01*
X90972134Y-86135535D02*
G75*
G02X90723426Y-86387595I-1180840J916411D01*
G01*
X90723426Y-86387595D02*
G75*
G02X90376366Y-86610876I-1267764J1589200D01*
G01*
X90376366Y-86610876D02*
G75*
G02X89953741Y-86787245I-1390182J2736683D01*
G01*
X89953742Y-86787244D02*
G75*
G02X89311004Y-86899165I-695995J2095447D01*
G01*
X89311004Y-86899165D02*
G75*
G02X88920951Y-86721321I-11839J490694D01*
G01*
X88920950Y-86721321D02*
G75*
G02X88710035Y-86222725I727211J601533D01*
G01*
X88710035Y-86222724D02*
G75*
G02X88654577Y-85216644I9240473J1013925D01*
G01*
X88649618Y-84783813D02*
X88654577Y-85216644D01*
X88635440Y-84335012D02*
X88649618Y-84783813D01*
X88615032Y-83932310D02*
X88635440Y-84335012D01*
X88590648Y-83661678D02*
X88615032Y-83932310D01*
X88549066Y-83377225D02*
X88590648Y-83661678D01*
X88501602Y-83234029D02*
G75*
G02X88549066Y-83377225I-452276J-229375D01*
G01*
X88431161Y-83162818D02*
G75*
G02X88501603Y-83234029I-75698J-145327D01*
G01*
X88324392Y-83136678D02*
G75*
G02X88431161Y-83162819I-1J-231120D01*
G01*
X88324392Y-83136679D02*
G75*
G02X88098377Y-83084777I0J518063D01*
G01*
X88098377Y-83084776D02*
G75*
G02X87915079Y-82939192I234211J483065D01*
G01*
X87915078Y-82939192D02*
G75*
G02X87796220Y-82713251I511001J413051D01*
G01*
X87796220Y-82713250D02*
G75*
G02X87755447Y-82432816I944006J280433D01*
G01*
X87755446Y-82432816D02*
G75*
G02X87774084Y-82224827I1169826J1D01*
G01*
X87774085Y-82224828D02*
G75*
G02X87830884Y-82062971I533882J-96457D01*
G01*
X87830884Y-82062970D02*
G75*
G02X87944649Y-81905169I668034J-361705D01*
G01*
X88150652Y-81702906D02*
X87944649Y-81905169D01*
X88150652Y-81702906D02*
G75*
G02X88865349Y-81122847I5831970J-6455307D01*
G01*
X88865350Y-81122847D02*
G75*
G02X89392309Y-80877063I894203J-1229375D01*
G01*
X89392310Y-80877063D02*
G75*
G02X89782042Y-80924854I132520J-532312D01*
G01*
X89782042Y-80924854D02*
G75*
G02X90073913Y-81224105I-321402J-605438D01*
G01*
X90242379Y-81561531D02*
X90073913Y-81224105D01*
X90388349Y-81212174D02*
X90242379Y-81561531D01*
X90388349Y-81212173D02*
G75*
G02X90461293Y-81066464I1100603J-459863D01*
G01*
X90461293Y-81066465D02*
G75*
G02X90559830Y-80917539I1479174J-871638D01*
G01*
X90559830Y-80917539D02*
G75*
G02X90667422Y-80787105I1279090J-945503D01*
G01*
X90667423Y-80787105D02*
G75*
G02X90767134Y-80699748I451066J-414273D01*
G01*
X81001330Y-80628281D02*
G75*
G02X81206858Y-80738963I6829J-233485D01*
G01*
X80564863Y-80686195D02*
G75*
G02X81001330Y-80628281I499258J-2088990D01*
G01*
X80018180Y-80868152D02*
G75*
G02X80564863Y-80686194I1319903J-3053349D01*
G01*
X79439743Y-81161293D02*
G75*
G02X80018180Y-80868153I2687642J-4586110D01*
G01*
X79052701Y-81413715D02*
G75*
G02X79439743Y-81161293I2830972J-3917829D01*
G01*
X78815790Y-81637327D02*
G75*
G02X79052701Y-81413714I968330J-788609D01*
G01*
X78696113Y-81859711D02*
G75*
G02X78815790Y-81637327I638766J-200362D01*
G01*
X78672951Y-82102835D02*
G75*
G02X78696113Y-81859711I584808J66951D01*
G01*
X78701090Y-82246990D02*
G75*
G02X78672951Y-82102835I898827J250277D01*
G01*
X78749604Y-82330754D02*
G75*
G02X78701090Y-82246990I137470J135550D01*
G01*
X78829369Y-82375579D02*
G75*
G02X78749604Y-82330753I37932J160879D01*
G01*
X78957955Y-82391876D02*
G75*
G02X78829369Y-82375579I12666J615377D01*
G01*
X78957955Y-82391876D02*
G75*
G02X79062664Y-82398846I-23544J-1143750D01*
G01*
X79168467Y-82415434D02*
X79062664Y-82398846D01*
X79168467Y-82415433D02*
G75*
G02X79260861Y-82438334I-212307J-1054424D01*
G01*
X79260861Y-82438334D02*
G75*
G02X79320005Y-82464775I-69108J-233958D01*
G01*
X79320005Y-82464775D02*
G75*
G02X79368513Y-82537684I-55200J-89317D01*
G01*
X79417982Y-82884201D02*
X79368513Y-82537684D01*
X79462861Y-83321360D02*
X79417982Y-82884201D01*
X79497678Y-83859577D02*
X79462861Y-83321360D01*
X79627593Y-86100375D02*
X79497678Y-83859577D01*
X79750671Y-87378974D02*
X79627593Y-86100375D01*
X79888576Y-88174708D02*
G75*
G02X79750671Y-87378974I8925718J1956693D01*
G01*
X80086702Y-88458112D02*
G75*
G02X79888576Y-88174707I241482J379775D01*
G01*
X80635532Y-88544043D02*
G75*
G02X80086703Y-88458112I-175845J672518D01*
G01*
X81455919Y-88221423D02*
G75*
G02X80635531Y-88544043I-1760117J3271406D01*
G01*
X82187155Y-87708249D02*
G75*
G02X81455920Y-88221424I-2524045J2819007D01*
G01*
X82457103Y-87182766D02*
G75*
G02X82187155Y-87708249I-820528J89438D01*
G01*
X82476273Y-86886888D02*
G75*
G02X82457104Y-87182766I-3379252J70372D01*
G01*
X82440062Y-86737477D02*
G75*
G02X82476273Y-86886888I-264321J-143153D01*
G01*
X82344092Y-86661281D02*
G75*
G02X82440062Y-86737477I-41280J-150529D01*
G01*
X82161348Y-86636678D02*
G75*
G02X82344092Y-86661281I1J-690987D01*
G01*
X82161348Y-86636678D02*
G75*
G02X82044383Y-86629564I0J965094D01*
G01*
X82044383Y-86629564D02*
G75*
G02X81936086Y-86608273I92167J754872D01*
G01*
X81936086Y-86608273D02*
G75*
G02X81849968Y-86577286I153546J561886D01*
G01*
X81849967Y-86577286D02*
G75*
G02X81807486Y-86539979I39798J88158D01*
G01*
X81807486Y-86539979D02*
G75*
G02X81780144Y-86460974I162655J100526D01*
G01*
X81722041Y-85934622D02*
X81780144Y-86460974D01*
X81661266Y-85322693D02*
X81722041Y-85934622D01*
X81600531Y-84614979D02*
X81661266Y-85322693D01*
X81450755Y-82802944D02*
X81600531Y-84614979D01*
X81346358Y-81682558D02*
X81450755Y-82802944D01*
X81262569Y-80900107D02*
X81346358Y-81682558D01*
X81206859Y-80738963D02*
G75*
G02X81262569Y-80900107I-331244J-204719D01*
G01*
X80355446Y-80507919D02*
G75*
G02X80600473Y-80452076I336060J-909069D01*
G01*
X80600474Y-80452075D02*
G75*
G02X80882629Y-80451603I143628J-1522392D01*
G01*
X80882628Y-80451603D02*
G75*
G02X81139066Y-80499795I-124534J-1369045D01*
G01*
X81139067Y-80499795D02*
G75*
G02X81298154Y-80593671I-102537J-355500D01*
G01*
X81298153Y-80593671D02*
G75*
G02X81433772Y-80808256I-408019J-408019D01*
G01*
X81433773Y-80808256D02*
G75*
G02X81514886Y-81135206I-1610952J-573199D01*
G01*
X81582152Y-81740533D02*
X81514886Y-81135206D01*
X73908414Y-95736679D02*
G75*
G02X73237024Y-95533357I1J1210166D01*
G01*
X74094317Y-95728313D02*
G75*
G02X73908414Y-95736678I-185902J2061558D01*
G01*
X74291017Y-95703175D02*
X74094317Y-95728314D01*
X74469895Y-95666491D02*
X74291017Y-95703175D01*
X74596359Y-95622624D02*
G75*
G02X74469895Y-95666491I-296787J651377D01*
G01*
X74846682Y-95508569D02*
X74596359Y-95622624D01*
X74105446Y-87238882D02*
G75*
G02X74922795Y-87727207I-4340840J-8193797D01*
G01*
X74922795Y-87727207D02*
G75*
G02X75357061Y-88150693I-927472J-1385484D01*
G01*
X75357061Y-88150693D02*
G75*
G02X75485253Y-88565753I-571755J-403914D01*
G01*
X75485252Y-88565753D02*
G75*
G02X75356864Y-89010307I-882509J14054D01*
G01*
X75356864Y-89010307D02*
G75*
G02X75249743Y-89156615I-905997J550969D01*
G01*
X75249743Y-89156614D02*
G75*
G02X75129008Y-89265862I-522268J455846D01*
G01*
X75129008Y-89265862D02*
G75*
G02X74988469Y-89342141I-385202J542108D01*
G01*
X74988468Y-89342140D02*
G75*
G02X74822364Y-89390102I-332998J841654D01*
G01*
X74822364Y-89390103D02*
G75*
G02X74386402Y-89370446I-176100J938701D01*
G01*
X74386402Y-89370446D02*
G75*
G02X73965979Y-89160971I344292J1217642D01*
G01*
X73965980Y-89160971D02*
G75*
G02X73533395Y-88733999I1417448J1868703D01*
G01*
X73533394Y-88733998D02*
G75*
G02X73054395Y-88049064I6377379J4969886D01*
G01*
X72760449Y-87653638D02*
G75*
G02X73054395Y-88049064I-2298590J-2015656D01*
G01*
X72463646Y-87412231D02*
G75*
G02X72760450Y-87653638I-563069J-995439D01*
G01*
X72156881Y-87317895D02*
G75*
G02X72463646Y-87412231I-61133J-744737D01*
G01*
X71834425Y-87358991D02*
G75*
G02X72156881Y-87317895I258268J-740868D01*
G01*
X71397228Y-87780901D02*
G75*
G02X71834425Y-87358991I675943J-262960D01*
G01*
X71279999Y-88554637D02*
G75*
G02X71397229Y-87780901I1783424J125539D01*
G01*
X71508863Y-89471141D02*
G75*
G02X71279999Y-88554638I2485942J1107601D01*
G01*
X72039407Y-90271004D02*
G75*
G02X71508863Y-89471142I2114155J1978194D01*
G01*
X72455128Y-90625283D02*
G75*
G02X72039407Y-90271003I1355358J2011458D01*
G01*
X72940811Y-90878828D02*
G75*
G02X72455128Y-90625283I886197J2289522D01*
G01*
X73521723Y-91039711D02*
G75*
G02X72940811Y-90878829I518331J3000807D01*
G01*
X74224150Y-91116646D02*
G75*
G02X73521722Y-91039711I268909J5700328D01*
G01*
X75269859Y-91070800D02*
G75*
G02X74224150Y-91116645I-774189J5709951D01*
G01*
X76207097Y-90831794D02*
G75*
G02X75269859Y-91070800I-1503869J3940122D01*
G01*
X77053167Y-90389766D02*
G75*
G02X76207097Y-90831794I-2306163J3383413D01*
G01*
X77828043Y-89741109D02*
G75*
G02X77053167Y-90389766I-3663169J3588810D01*
G01*
X78268662Y-89219873D02*
G75*
G02X77828042Y-89741109I-3766377J2737002D01*
G01*
X70906731Y-88729235D02*
G75*
G02X70698278Y-88708367I-67428J378014D01*
G01*
X71018165Y-88631767D02*
G75*
G02X70906730Y-88729236I-136628J43770D01*
G01*
X71055446Y-88393189D02*
G75*
G02X71018165Y-88631766I-782017J0D01*
G01*
X71055447Y-88393188D02*
G75*
G02X71127267Y-87876030I1897863J1D01*
G01*
X71127267Y-87876030D02*
G75*
G02X71338156Y-87476087I1047053J-296537D01*
G01*
X71338156Y-87476087D02*
G75*
G02X71672867Y-87225604I693147J-577354D01*
G01*
X71672866Y-87225604D02*
G75*
G02X72102052Y-87136678I429185J-991230D01*
G01*
X72102052Y-87136678D02*
G75*
G02X72449101Y-87177152I-1J-1508160D01*
G01*
X72449101Y-87177152D02*
G75*
G02X72718724Y-87297962I-180892J-764994D01*
G01*
X72718724Y-87297962D02*
G75*
G02X72955894Y-87527326I-599472J-857175D01*
G01*
X72955893Y-87527326D02*
G75*
G02X73207821Y-87910007I-2978883J-2235332D01*
G01*
X73509044Y-88368436D02*
G75*
G02X73207821Y-87910007I3622220J2708248D01*
G01*
X73851861Y-88766415D02*
G75*
G02X73509044Y-88368436I2705385J2677044D01*
G01*
X74191303Y-89061380D02*
G75*
G02X73851860Y-88766415I1786204J2398347D01*
G01*
X74475470Y-89191076D02*
G75*
G02X74191304Y-89061380I159254J725080D01*
G01*
X74915510Y-89148994D02*
G75*
G02X74475469Y-89191076I-285359J662179D01*
G01*
X75205829Y-88858592D02*
G75*
G02X74915510Y-89148994I-510123J219658D01*
G01*
X75231920Y-88424804D02*
G75*
G02X75205828Y-88858592I-613695J-180766D01*
G01*
X74980447Y-88018345D02*
G75*
G02X75231920Y-88424805I-615509J-661832D01*
G01*
X74820845Y-87892226D02*
G75*
G02X74980447Y-88018345I-702765J-1053387D01*
G01*
X74536540Y-87710404D02*
X74820845Y-87892226D01*
X74201031Y-87513876D02*
X74536540Y-87710404D01*
X73855447Y-87329175D02*
X74201031Y-87513876D01*
X73428217Y-87091878D02*
X73855447Y-87329175D01*
X73044302Y-86837677D02*
X73428217Y-87091878D01*
X72682098Y-86551037D02*
X73044302Y-86837677D01*
X72320102Y-86216217D02*
X72682098Y-86551037D01*
X104701321Y-80283562D02*
G75*
G02X105258713Y-80461678I-279364J-1835435D01*
G01*
X104126253Y-80292418D02*
G75*
G02X104701321Y-80283562I313890J-1707114D01*
G01*
X103360706Y-80511384D02*
G75*
G02X104126253Y-80292417I1510873J-3834541D01*
G01*
X102083035Y-81045598D02*
X103360707Y-80511385D01*
X100860624Y-81586678D02*
X102083035Y-81045598D01*
X100858035Y-81955777D02*
X100860624Y-81586678D01*
X100864594Y-82101751D02*
G75*
G02X100858035Y-81955777I1401151J136100D01*
G01*
X100886442Y-82235139D02*
G75*
G02X100864595Y-82101750I1005627J233193D01*
G01*
X100918707Y-82340582D02*
G75*
G02X100886443Y-82235139I745888J285886D01*
G01*
X100958375Y-82388490D02*
G75*
G02X100918706Y-82340582I51114J82703D01*
G01*
X101033134Y-82398845D02*
G75*
G02X100958376Y-82388489I-25656J89804D01*
G01*
X101287241Y-82320995D02*
X101033134Y-82398845D01*
X101591747Y-82211428D02*
X101287241Y-82320995D01*
X101933376Y-82069391D02*
X101591747Y-82211428D01*
X102485897Y-81841406D02*
X101933376Y-82069391D01*
X102485897Y-81841406D02*
G75*
G02X102837320Y-81740196I744554J-1924540D01*
G01*
X102837320Y-81740196D02*
G75*
G02X103217889Y-81697535I456168J-2350566D01*
G01*
X103905447Y-81686678D02*
X103217889Y-81697535D01*
X104682263Y-81719250D02*
X103905447Y-81686678D01*
X104682263Y-81719251D02*
G75*
G02X105234922Y-81825917I-220909J-2629621D01*
G01*
X105234922Y-81825917D02*
G75*
G02X105689183Y-82032274I-568964J-1855651D01*
G01*
X105689183Y-82032274D02*
G75*
G02X106143729Y-82372964I-1705554J-2749110D01*
G01*
X106382012Y-82586678D02*
X106143729Y-82372964D01*
X106315037Y-82186678D02*
X106382012Y-82586678D01*
X106270488Y-81994836D02*
G75*
G02X106315037Y-82186678I-1516146J-453163D01*
G01*
X106187879Y-81742616D02*
X106270488Y-81994836D01*
X106085208Y-81476551D02*
X106187879Y-81742616D01*
X105976209Y-81236678D02*
X106085208Y-81476551D01*
X105818461Y-80950201D02*
G75*
G02X105976209Y-81236678I-3153798J-1923298D01*
G01*
X105669103Y-80752606D02*
G75*
G02X105818461Y-80950201I-913646J-845855D01*
G01*
X105494097Y-80601197D02*
G75*
G02X105669103Y-80752606I-593730J-863105D01*
G01*
X105258713Y-80461678D02*
G75*
G02X105494097Y-80601196I-914138J-1810582D01*
G01*
X76895812Y-80347914D02*
G75*
G02X77249315Y-80593036I-772333J-1491287D01*
G01*
X76531586Y-80237495D02*
G75*
G02X76895812Y-80347914I-115356J-1036435D01*
G01*
X76182124Y-80270379D02*
G75*
G02X76531586Y-80237495I253941J-825340D01*
G01*
X75869977Y-80439513D02*
G75*
G02X76182124Y-80270379I577430J-693074D01*
G01*
X75869976Y-80439513D02*
G75*
G02X75734129Y-80532544I-560479J672728D01*
G01*
X75734129Y-80532544D02*
G75*
G02X75602035Y-80581963I-231426J417342D01*
G01*
X75602034Y-80581964D02*
G75*
G02X75448296Y-80594388I-124742J586166D01*
G01*
X75448296Y-80594387D02*
G75*
G02X75242602Y-80573025I90877J1876022D01*
G01*
X74464352Y-80590752D02*
G75*
G02X75242602Y-80573025I437468J-2113401D01*
G01*
X73575443Y-80876414D02*
G75*
G02X74464352Y-80590753I1776424J-4001943D01*
G01*
X72751380Y-81351811D02*
G75*
G02X73575443Y-80876414I2656817J-3653459D01*
G01*
X72165236Y-81939036D02*
G75*
G02X72751381Y-81351811I2141059J-1550978D01*
G01*
X71693662Y-82917580D02*
G75*
G02X72165235Y-81939035I2957919J-822558D01*
G01*
X71569470Y-84035620D02*
G75*
G02X71693662Y-82917580I3512768J175719D01*
G01*
X71804490Y-85131385D02*
G75*
G02X71569470Y-84035620I3249706J1270083D01*
G01*
X72370666Y-86045740D02*
G75*
G02X71804490Y-85131386I2203210J1996714D01*
G01*
X72663457Y-86327514D02*
G75*
G02X72370666Y-86045740I1913178J2280990D01*
G01*
X73028299Y-86604983D02*
G75*
G02X72663457Y-86327514I2722339J3958170D01*
G01*
X73495151Y-86900348D02*
X73028298Y-86604983D01*
X74105447Y-87238882D02*
X73495151Y-86900348D01*
X77038185Y-83694298D02*
G75*
G02X77150504Y-83594662I524758J-478430D01*
G01*
X76965684Y-83804146D02*
G75*
G02X77038185Y-83694298I385781J-175773D01*
G01*
X76879260Y-84012779D02*
X76965683Y-83804145D01*
X76883456Y-84098327D02*
G75*
G02X76879260Y-84012779I97152J47642D01*
G01*
X74273813Y-94786180D02*
G75*
G02X74218647Y-94446089I1336574J391327D01*
G01*
X74218648Y-94446089D02*
G75*
G02X74257015Y-94131211I1007021J37073D01*
G01*
X74257015Y-94131211D02*
G75*
G02X75160961Y-92726800I2783002J-798156D01*
G01*
X76549113Y-83046534D02*
X76049223Y-82671505D01*
X76859125Y-83228574D02*
G75*
G02X76549113Y-83046534I822791J1756196D01*
G01*
X77105895Y-83298574D02*
G75*
G02X76859125Y-83228574I91129J791223D01*
G01*
X93825845Y-85329358D02*
X93769949Y-84869277D01*
X93867478Y-85459159D02*
G75*
G02X93825845Y-85329358I333786J178637D01*
G01*
X94022338Y-85589326D02*
G75*
G02X93867478Y-85459159I85318J258706D01*
G01*
X94292264Y-85630296D02*
G75*
G02X94022338Y-85589326I-14119J816649D01*
G01*
X94641917Y-85579970D02*
G75*
G02X94292264Y-85630296I-374014J1358724D01*
G01*
X95031189Y-85439039D02*
G75*
G02X94641917Y-85579969I-1087679J2396265D01*
G01*
X95375644Y-85222220D02*
G75*
G02X95031189Y-85439039I-966212J1152974D01*
G01*
X95555965Y-84959567D02*
G75*
G02X95375644Y-85222220I-561616J192344D01*
G01*
X95612552Y-84571003D02*
G75*
G02X95555965Y-84959567I-1064455J-43385D01*
G01*
X95557177Y-83903241D02*
X95612552Y-84571003D01*
X95462339Y-82863019D02*
X95557177Y-83903241D01*
X95462339Y-82863020D02*
G75*
G02X95490057Y-82133655I3837570J219368D01*
G01*
X95490057Y-82133654D02*
G75*
G02X95627145Y-81688991I1395746J-186839D01*
G01*
X95627144Y-81688991D02*
G75*
G02X95873973Y-81536678I246829J-123841D01*
G01*
X95873973Y-81536678D02*
G75*
G02X96046001Y-81624939I0J-211780D01*
G01*
X96046001Y-81624940D02*
G75*
G02X96158274Y-81871600I-566428J-406703D01*
G01*
X96158274Y-81871600D02*
G75*
G02X96232420Y-82353036I-3012672J-710411D01*
G01*
X96291041Y-83305362D02*
X96232420Y-82353036D01*
X96356582Y-84347409D02*
X96291041Y-83305362D01*
X96446168Y-84821622D02*
G75*
G02X96356582Y-84347409I2102002J642668D01*
G01*
X96601235Y-85049435D02*
G75*
G02X96446168Y-84821622I289493J363733D01*
G01*
X77360093Y-83285658D02*
G75*
G02X77105895Y-83298574I-165778J754779D01*
G01*
X77876179Y-82912239D02*
G75*
G02X77360093Y-83285658I-687437J406737D01*
G01*
X78054084Y-82205421D02*
G75*
G02X77876179Y-82912239I-1283287J-52796D01*
G01*
X77827096Y-81344713D02*
G75*
G02X78054084Y-82205421I-1840954J-945785D01*
G01*
X77249316Y-80593036D02*
G75*
G02X77827096Y-81344713I-1767740J-1956679D01*
G01*
X99817543Y-79073629D02*
X99905447Y-79095036D01*
X99718670Y-79055348D02*
X99817543Y-79073629D01*
X99624022Y-79042468D02*
X99718670Y-79055348D01*
X99550464Y-79038044D02*
G75*
G02X99624022Y-79042468I-6336J-719104D01*
G01*
X99307517Y-79101428D02*
G75*
G02X99550463Y-79038044I238708J-417662D01*
G01*
X98947400Y-79336989D02*
G75*
G02X99307517Y-79101427I2139212J-2877289D01*
G01*
X98586609Y-79642373D02*
G75*
G02X98947401Y-79336989I2597067J-2702447D01*
G01*
X98314118Y-79957246D02*
G75*
G02X98586609Y-79642374I1844332J-1320746D01*
G01*
X98129450Y-80206890D02*
X98314118Y-79957246D01*
X98129450Y-80206890D02*
G75*
G02X98045597Y-80276864I-196176J149856D01*
G01*
X98045597Y-80276863D02*
G75*
G02X97975101Y-80269213I-29415J57569D01*
G01*
X97975100Y-80269213D02*
G75*
G02X97887219Y-80175372I316071J384067D01*
G01*
X97682244Y-79906241D02*
X97887219Y-80175372D01*
X97525088Y-79743125D02*
G75*
G02X97682244Y-79906241I-845752J-972108D01*
G01*
X97374420Y-79641720D02*
G75*
G02X97525088Y-79743125I-332789J-657091D01*
G01*
X97198219Y-79575928D02*
G75*
G02X97374420Y-79641719I-205843J-820141D01*
G01*
X96892785Y-79573082D02*
G75*
G02X97198219Y-79575929I146814J-634838D01*
G01*
X96544656Y-79704718D02*
G75*
G02X96892784Y-79573083I661420J-1223064D01*
G01*
X96169084Y-79963197D02*
G75*
G02X96544657Y-79704717I1390575J-1618415D01*
G01*
X95781704Y-80341964D02*
G75*
G02X96169084Y-79963198I3133474J-2817263D01*
G01*
X95604517Y-80531504D02*
X95781704Y-80341964D01*
X95440183Y-80691356D02*
X95604517Y-80531504D01*
X95298833Y-80816390D02*
X95440183Y-80691356D01*
X95298833Y-80816390D02*
G75*
G02X95243680Y-80836678I-55153J64824D01*
G01*
X95243679Y-80836679D02*
G75*
G02X95203792Y-80817219I1J50610D01*
G01*
X95203793Y-80817219D02*
G75*
G02X95160341Y-80749212I337150J263301D01*
G01*
X95160340Y-80749212D02*
G75*
G02X95120507Y-80652962I567872J291385D01*
G01*
X95120507Y-80652962D02*
G75*
G02X95090895Y-80538921I990607J318085D01*
G01*
X94928810Y-80200190D02*
G75*
G02X95090895Y-80538921I-585272J-488202D01*
G01*
X94649115Y-80055824D02*
G75*
G02X94928810Y-80200190I-31314J-403792D01*
G01*
X94243625Y-80128915D02*
G75*
G02X94649115Y-80055825I342520J-738901D01*
G01*
X93712236Y-80432007D02*
G75*
G02X94243625Y-80128915I2059431J-2993278D01*
G01*
X93147446Y-80891603D02*
G75*
G02X93712236Y-80432007I3133399J-3273754D01*
G01*
X92832307Y-81333278D02*
G75*
G02X93147446Y-80891603I1321114J-609360D01*
G01*
X92833978Y-81646336D02*
G75*
G02X92832308Y-81333277I333821J158314D01*
G01*
X93073128Y-81817615D02*
G75*
G02X92833977Y-81646336I34811J301204D01*
G01*
X93073128Y-81817614D02*
G75*
G02X93183844Y-81839424I-81627J-706305D01*
G01*
X93183844Y-81839423D02*
G75*
G02X93295148Y-81879188I-231243J-822930D01*
G01*
X93295148Y-81879189D02*
G75*
G02X93391043Y-81929678I-300549J-687146D01*
G01*
X93391042Y-81929677D02*
G75*
G02X93453045Y-81983785I-136038J-218467D01*
G01*
X93453045Y-81983785D02*
G75*
G02X93501352Y-82092262I-168986J-140247D01*
G01*
X93562743Y-82543805D02*
X93501352Y-82092262D01*
X93621036Y-83084623D02*
X93562743Y-82543805D01*
X101517934Y-75430633D02*
G75*
G02X101059319Y-75563895I-622054J1284991D01*
G01*
X102093512Y-74990745D02*
G75*
G02X101517934Y-75430634I-1363289J1187305D01*
G01*
X102418398Y-74378326D02*
G75*
G02X102093511Y-74990744I-1477554J391454D01*
G01*
X102400924Y-73789627D02*
G75*
G02X102418398Y-74378326I-982504J-323772D01*
G01*
X78662423Y-86493656D02*
G75*
G02X78694999Y-86853536I-3299856J-480120D01*
G01*
X78598858Y-86207961D02*
G75*
G02X78662422Y-86493655I-1883691J-569018D01*
G01*
X78492516Y-85927739D02*
G75*
G02X78598858Y-86207961I-1964218J-905692D01*
G01*
X78119592Y-85327987D02*
G75*
G02X78492517Y-85927739I-2214596J-1792850D01*
G01*
X77614634Y-84846711D02*
G75*
G02X78119592Y-85327987I-1604561J-2189058D01*
G01*
X76882261Y-84411376D02*
G75*
G02X77614634Y-84846711I-1888928J-4011493D01*
G01*
X75781842Y-83940833D02*
X76882261Y-84411376D01*
X75781843Y-83940833D02*
G75*
G02X75205384Y-83684617I2262827J5867713D01*
G01*
X75205384Y-83684616D02*
G75*
G02X74835366Y-83430315I760244J1502526D01*
G01*
X74835366Y-83430315D02*
G75*
G02X74628457Y-83152580I600865J663575D01*
G01*
X74628457Y-83152579D02*
G75*
G02X74555447Y-82830335I674633J322243D01*
G01*
X95765071Y-80073110D02*
X95324695Y-80525583D01*
X95765071Y-80073111D02*
G75*
G02X96173412Y-79690797I4316032J-4200642D01*
G01*
X96173412Y-79690797D02*
G75*
G02X96507509Y-79469951I1068027J-1252584D01*
G01*
X96507509Y-79469951D02*
G75*
G02X96822703Y-79372666I453815J-911073D01*
G01*
X96822703Y-79372666D02*
G75*
G02X97163761Y-79376409I157941J-1148897D01*
G01*
X97365899Y-79401057D02*
X97163761Y-79376409D01*
X97480581Y-79390073D02*
G75*
G02X97365899Y-79401057I-87591J310335D01*
G01*
X97551819Y-79343109D02*
G75*
G02X97480581Y-79390073I-109492J88572D01*
G01*
X97600194Y-79253228D02*
G75*
G02X97551819Y-79343109I-262465J83304D01*
G01*
X97600194Y-79253228D02*
G75*
G02X97651989Y-79135636I570378J-181030D01*
G01*
X97846491Y-78802911D02*
X97651989Y-79135636D01*
X98085067Y-78409583D02*
X97846491Y-78802911D01*
X98356800Y-77978128D02*
X98085067Y-78409583D01*
X98948374Y-76969046D02*
X98356800Y-77978128D01*
X99144886Y-76339135D02*
G75*
G02X98948374Y-76969046I-1745528J198939D01*
G01*
X99040680Y-75868090D02*
G75*
G02X99144885Y-76339135I-632833J-387045D01*
G01*
X98645925Y-75441277D02*
G75*
G02X99040680Y-75868091I-869146J-1199822D01*
G01*
X98196728Y-75185215D02*
G75*
G02X98645925Y-75441277I-947372J-2183967D01*
G01*
X97688387Y-75022203D02*
G75*
G02X98196728Y-75185216I-566661J-2641193D01*
G01*
X97179840Y-74966786D02*
G75*
G02X97688387Y-75022203I-14316J-2492482D01*
G01*
X96730608Y-75030351D02*
G75*
G02X97179840Y-74966786I440296J-1492491D01*
G01*
X96303417Y-75243897D02*
G75*
G02X96730607Y-75030351I811614J-1089539D01*
G01*
X78613965Y-89012761D02*
G75*
G02X78116181Y-89713757I-3378704J1872011D01*
G01*
X78116180Y-89713757D02*
G75*
G02X77451938Y-90327343I-3517453J3141513D01*
G01*
X77451938Y-90327343D02*
G75*
G02X76656831Y-90822708I-3065073J4033933D01*
G01*
X76656832Y-90822708D02*
G75*
G02X75770931Y-91172962I-2426010J4840643D01*
G01*
X75485648Y-91279854D02*
G75*
G02X75770931Y-91172962I904086J-1978763D01*
G01*
X75216441Y-91426050D02*
G75*
G02X75485648Y-91279854I1193437J-1876661D01*
G01*
X74935715Y-91628723D02*
G75*
G02X75216441Y-91426049I1859128J-2279341D01*
G01*
X74613341Y-91909114D02*
X74935715Y-91628723D01*
X74337836Y-92159474D02*
X74613341Y-91909114D01*
X74024658Y-92434519D02*
X74337836Y-92159474D01*
X73722308Y-92692551D02*
X74024658Y-92434519D01*
X73484271Y-92886678D02*
X73722308Y-92692551D01*
X73275045Y-93062275D02*
X73484271Y-92886678D01*
X73064809Y-93259121D02*
X73275045Y-93062275D01*
X72882568Y-93447845D02*
X73064809Y-93259121D01*
X72766861Y-93592867D02*
G75*
G02X72882568Y-93447845I1105050J-763004D01*
G01*
X72557502Y-94256695D02*
G75*
G02X72766861Y-93592866I1182259J-7934D01*
G01*
X72735382Y-94979524D02*
G75*
G02X72557502Y-94256695I1338346J712653D01*
G01*
X73237024Y-95533357D02*
G75*
G02X72735382Y-94979524I848838J1272947D01*
G01*
X78259920Y-82347527D02*
G75*
G02X78026315Y-83041081I-1311178J55516D01*
G01*
X78026315Y-83041081D02*
G75*
G02X77470466Y-83443993I-854540J594030D01*
G01*
X77296709Y-83509757D02*
G75*
G02X77470466Y-83443993I551044J-1193512D01*
G01*
X77150505Y-83594662D02*
G75*
G02X77296709Y-83509757I525389J-736376D01*
G01*
X99129053Y-84128967D02*
G75*
G02X99059135Y-83849270I1832257J606609D01*
G01*
X99231434Y-84325906D02*
G75*
G02X99129053Y-84128967I560174J416293D01*
G01*
X99482736Y-84543369D02*
G75*
G02X99231433Y-84325906I364349J674983D01*
G01*
X99766963Y-84592683D02*
G75*
G02X99482736Y-84543368I-68490J448982D01*
G01*
X100163306Y-84462368D02*
G75*
G02X99766963Y-84592684I-586399J1115589D01*
G01*
X100838791Y-84080710D02*
X100163306Y-84462367D01*
X101634889Y-83633962D02*
X100838791Y-84080710D01*
X101634889Y-83633962D02*
G75*
G02X102304247Y-83339747I2630377J-5075752D01*
G01*
X102304246Y-83339747D02*
G75*
G02X102902685Y-83172858I1364489J-3736453D01*
G01*
X102902686Y-83172858D02*
G75*
G02X103478217Y-83116836I576354J-2936765D01*
G01*
X103478217Y-83116837D02*
G75*
G02X104206280Y-83219774I721J-2621121D01*
G01*
X104206280Y-83219774D02*
G75*
G02X104812193Y-83520504I-525619J-1819785D01*
G01*
X83705447Y-89156697D02*
X86129879Y-88616712D01*
X81659979Y-89720265D02*
X83705447Y-89156697D01*
X79864379Y-90327552D02*
X81659979Y-89720265D01*
X78281672Y-90990485D02*
X79864379Y-90327552D01*
X76880283Y-91722172D02*
G75*
G02X78281672Y-90990485I8411323J-14402195D01*
G01*
X75414986Y-92754821D02*
G75*
G02X76880284Y-91722173I6770835J-8051697D01*
G01*
X74595269Y-93793789D02*
G75*
G02X75414985Y-92754820I2925753J-1465480D01*
G01*
X74516349Y-94679279D02*
G75*
G02X74595270Y-93793790I1162701J342634D01*
G01*
X75066888Y-95342516D02*
G75*
G02X74516349Y-94679278I495641J971535D01*
G01*
X75327627Y-95455280D02*
G75*
G02X75066888Y-95342516I755520J2104793D01*
G01*
X75560507Y-95512200D02*
G75*
G02X75327628Y-95455279I153867J1134353D01*
G01*
X75845055Y-95528459D02*
G75*
G02X75560507Y-95512200I-37908J1834548D01*
G01*
X81496719Y-77736679D02*
G75*
G02X81311340Y-77721537I0J1142363D01*
G01*
X81923786Y-77586862D02*
G75*
G02X81496719Y-77736678I-427067J533793D01*
G01*
X82192857Y-77194548D02*
G75*
G02X81923786Y-77586863I-780420J246826D01*
G01*
X82203456Y-76707479D02*
G75*
G02X82192857Y-77194548I-837896J-225416D01*
G01*
X105937265Y-86795374D02*
G75*
G02X105372911Y-87297625I-3938588J3857400D01*
G01*
X106386940Y-86264191D02*
G75*
G02X105937265Y-86795375I-3881945J2830338D01*
G01*
X106653130Y-85769914D02*
G75*
G02X106386939Y-86264191I-1939285J725580D01*
G01*
X106860572Y-84602481D02*
G75*
G02X106653130Y-85769914I-3272464J-20662D01*
G01*
X106628588Y-83468972D02*
G75*
G02X106860572Y-84602481I-2745104J-1152306D01*
G01*
X105996763Y-82550403D02*
G75*
G02X106628588Y-83468972I-1892073J-1978016D01*
G01*
X105066608Y-81990386D02*
G75*
G02X105996763Y-82550403I-779739J-2347575D01*
G01*
X93668876Y-83700330D02*
X93621036Y-83084623D01*
X93715474Y-84319040D02*
X93668876Y-83700330D01*
X93769949Y-84869277D02*
X93715474Y-84319040D01*
X84039642Y-78825629D02*
X83479055Y-77286678D01*
X84039641Y-78825629D02*
G75*
G02X84274848Y-79868536I-5166953J-1713278D01*
G01*
X84274848Y-79868536D02*
G75*
G02X84244122Y-80604437I-2222486J-275795D01*
G01*
X96850948Y-85136678D02*
G75*
G02X96601235Y-85049435I0J400993D01*
G01*
X97211930Y-85091262D02*
G75*
G02X96850948Y-85136678I-360982J1411900D01*
G01*
X97578435Y-84956692D02*
G75*
G02X97211930Y-85091263I-843335J1730446D01*
G01*
X97891900Y-84760501D02*
G75*
G02X97578435Y-84956691I-1080857J1378431D01*
G01*
X98092549Y-84531584D02*
G75*
G02X97891899Y-84760501I-708163J418322D01*
G01*
X98185161Y-84320655D02*
G75*
G02X98092549Y-84531584I-922144J279087D01*
G01*
X98222701Y-84097878D02*
G75*
G02X98185161Y-84320655I-891517J35678D01*
G01*
X98215185Y-83765852D02*
G75*
G02X98222701Y-84097879I-2643327J-225935D01*
G01*
X98150607Y-83080889D02*
X98215185Y-83765852D01*
X98084106Y-82268692D02*
X98150607Y-83080889D01*
X98084105Y-82268692D02*
G75*
G02X98091056Y-81744562I3542543J215134D01*
G01*
X98091057Y-81744562D02*
G75*
G02X98166867Y-81382780I1545901J-135105D01*
G01*
X98166867Y-81382780D02*
G75*
G02X98322133Y-81118240I714392J-241463D01*
G01*
X98322133Y-81118240D02*
G75*
G02X98561329Y-81007662I249569J-225857D01*
G01*
X98561329Y-81007662D02*
G75*
G02X98744158Y-81127686I5868J-190323D01*
G01*
X98744158Y-81127686D02*
G75*
G02X98865656Y-81626660I-1718755J-682787D01*
G01*
X98953150Y-82706675D02*
X98865656Y-81626660D01*
X99005140Y-83424259D02*
X98953150Y-82706675D01*
X99059135Y-83849270D02*
G75*
G02X99005140Y-83424259I4818188J828057D01*
G01*
X81050262Y-96255442D02*
X81004246Y-95744023D01*
X81101311Y-96772385D02*
X81050262Y-96255442D01*
X81170132Y-97272229D02*
X81101311Y-96772385D01*
X81245775Y-97697253D02*
X81170132Y-97272229D01*
X81315533Y-97932726D02*
G75*
G02X81245775Y-97697253I1232913J493313D01*
G01*
X81643219Y-98460662D02*
G75*
G02X81315533Y-97932726I1330120J1191259D01*
G01*
X82148165Y-98877786D02*
G75*
G02X81643219Y-98460663I1127716J1879340D01*
G01*
X82782952Y-99145366D02*
G75*
G02X82148165Y-98877786I621534J2361237D01*
G01*
X83488569Y-99236679D02*
G75*
G02X82782951Y-99145366I-3J2771958D01*
G01*
X83739458Y-99221876D02*
G75*
G02X83488569Y-99236678I-250890J2118801D01*
G01*
X83928379Y-99175203D02*
G75*
G02X83739458Y-99221876I-281180J732468D01*
G01*
X84102178Y-99082817D02*
G75*
G02X83928379Y-99175204I-463491J662256D01*
G01*
X84305789Y-98922964D02*
G75*
G02X84102178Y-99082817I-1554925J1770962D01*
G01*
X84671374Y-98527495D02*
G75*
G02X84305789Y-98922963I-2075172J1551648D01*
G01*
X84969978Y-98044015D02*
G75*
G02X84671374Y-98527495I-2865313J1435704D01*
G01*
X85268306Y-97350621D02*
G75*
G02X84969977Y-98044015I-6100094J2213651D01*
G01*
X85652816Y-96234627D02*
X85268306Y-97350620D01*
X86059364Y-95061206D02*
X85652816Y-96234627D01*
X86059364Y-95061206D02*
G75*
G02X86389415Y-94299075I6826695J-2503858D01*
G01*
X86389415Y-94299075D02*
G75*
G02X86702512Y-93791457I3071332J-1544020D01*
G01*
X86702513Y-93791457D02*
G75*
G02X87045235Y-93464858I1122972J-835292D01*
G01*
X87045235Y-93464859D02*
G75*
G02X87574598Y-93260057I717881J-1069013D01*
G01*
X87574599Y-93260057D02*
G75*
G02X88195724Y-93275200I266796J-1802738D01*
G01*
X88195724Y-93275200D02*
G75*
G02X88838134Y-93508737I-436020J-2199728D01*
G01*
X88838134Y-93508737D02*
G75*
G02X89426758Y-93936910I-1379588J-2515256D01*
G01*
X89426758Y-93936910D02*
G75*
G02X89751521Y-94288384I-2388540J-2532797D01*
G01*
X89751521Y-94288384D02*
G75*
G02X90069316Y-94725035I-4386365J-3526369D01*
G01*
X90420963Y-95305004D02*
X90069316Y-94725035D01*
X90857097Y-96114627D02*
X90420963Y-95305004D01*
X91310164Y-96927672D02*
X90857097Y-96114627D01*
X91697788Y-97480509D02*
G75*
G02X91310164Y-96927672I3535042J2890925D01*
G01*
X92081612Y-97864572D02*
G75*
G02X91697788Y-97480509I1729940J2112684D01*
G01*
X92514167Y-98140899D02*
G75*
G02X92081612Y-97864572I952760J1968140D01*
G01*
X93234000Y-98322913D02*
G75*
G02X92514167Y-98140900I81821J1838014D01*
G01*
X94096587Y-98248810D02*
G75*
G02X93234000Y-98322913I-714292J3257169D01*
G01*
X94878176Y-97963537D02*
G75*
G02X94096586Y-98248810I-1448178J2754369D01*
G01*
X95352405Y-97518481D02*
G75*
G02X94878176Y-97963536I-1042365J635509D01*
G01*
X95514347Y-97079457D02*
G75*
G02X95352406Y-97518481I-1197513J192342D01*
G01*
X95551166Y-96486284D02*
G75*
G02X95514346Y-97079457I-3058103J-107902D01*
G01*
X95467987Y-95727434D02*
G75*
G02X95551167Y-96486285I-5082792J-941121D01*
G01*
X95255447Y-94770507D02*
X95467987Y-95727433D01*
X95140633Y-94294107D02*
X95255447Y-94770507D01*
X95043681Y-93818131D02*
X95140633Y-94294107D01*
X94974346Y-93402595D02*
X95043681Y-93818131D01*
X94974346Y-93402596D02*
G75*
G02X94955820Y-93150882I1682163J250345D01*
G01*
X94955821Y-93150882D02*
G75*
G02X95131663Y-92423409I1598042J-1286D01*
G01*
X95131663Y-92423408D02*
G75*
G02X95613933Y-91906986I1146986J-587733D01*
G01*
X95613934Y-91906986D02*
G75*
G02X96346873Y-91684045I809264J-1344260D01*
G01*
X96346873Y-91684045D02*
G75*
G02X97222014Y-91786600I130227J-2673956D01*
G01*
X97222014Y-91786600D02*
G75*
G02X97527008Y-91898526I-648588J-2238888D01*
G01*
X98001251Y-92121500D02*
X97527008Y-91898526D01*
X98534083Y-92396054D02*
X98001251Y-92121500D01*
X99055447Y-92689343D02*
X98534083Y-92396054D01*
X100147663Y-93305697D02*
X99055447Y-92689343D01*
X100860545Y-93634828D02*
G75*
G02X100147663Y-93305697I2203047J5708291D01*
G01*
X101422236Y-93788783D02*
G75*
G02X100860545Y-93634828I480196J2853574D01*
G01*
X101972704Y-93815224D02*
G75*
G02X101422236Y-93788783I-164404J2320616D01*
G01*
X102477988Y-93718792D02*
G75*
G02X101972704Y-93815223I-659863J2085547D01*
G01*
X102975707Y-93504037D02*
G75*
G02X102477988Y-93718792I-1309290J2350293D01*
G01*
X103399532Y-93205915D02*
G75*
G02X102975706Y-93504037I-1629744J1866610D01*
G01*
X103683874Y-92861974D02*
G75*
G02X103399533Y-93205916I-1192942J696715D01*
G01*
X103808010Y-92450060D02*
G75*
G02X103683874Y-92861974I-918927J52268D01*
G01*
X103718963Y-92054319D02*
G75*
G02X103808010Y-92450060I-648424J-353794D01*
G01*
X103348016Y-91533253D02*
G75*
G02X103718962Y-92054319I-1989980J-1809235D01*
G01*
X102418266Y-90542395D02*
X103348016Y-91533253D01*
X71866820Y-85787382D02*
X72320102Y-86216217D01*
X71607871Y-85618737D02*
G75*
G02X71866820Y-85787382I-403287J-902357D01*
G01*
X71350278Y-85567530D02*
G75*
G02X71607871Y-85618736I16449J-590766D01*
G01*
X70955447Y-85606317D02*
G75*
G02X71350278Y-85567530I473667J-2792705D01*
G01*
X70264031Y-85798403D02*
G75*
G02X70955447Y-85606317I1275127J-3249420D01*
G01*
X69786427Y-86107955D02*
G75*
G02X70264030Y-85798403I998001J-1016581D01*
G01*
X69513421Y-86543226D02*
G75*
G02X69786427Y-86107955I1047777J-353924D01*
G01*
X69427666Y-87106172D02*
G75*
G02X69513421Y-86543226I1638757J38368D01*
G01*
X69490551Y-87578759D02*
G75*
G02X69427666Y-87106171I2130191J523934D01*
G01*
X69653594Y-87971897D02*
G75*
G02X69490551Y-87578759I1202039J728889D01*
G01*
X92567126Y-89718238D02*
X93675128Y-89599358D01*
X91408995Y-89891847D02*
X92567126Y-89718238D01*
X89984819Y-90183364D02*
X91408995Y-89891847D01*
X88517571Y-90581669D02*
X89984819Y-90183364D01*
X87052862Y-91072892D02*
X88517571Y-90581669D01*
X85636187Y-91643146D02*
X87052862Y-91072892D01*
X84578326Y-92144864D02*
X85636187Y-91643146D01*
X82795872Y-93071933D02*
X84578326Y-92144864D01*
X80817110Y-94120041D02*
X82795872Y-93071933D01*
X80756004Y-94222664D02*
G75*
G02X80817110Y-94120041I115045J1002D01*
G01*
X80760573Y-94263766D02*
G75*
G02X80756004Y-94222665I198460J42870D01*
G01*
X80784581Y-94370687D02*
X80760574Y-94263765D01*
X80815719Y-94497959D02*
X80784581Y-94370687D01*
X80852505Y-94636678D02*
X80815719Y-94497959D01*
X80852505Y-94636679D02*
G75*
G02X80895629Y-94844507I-1626912J-445971D01*
G01*
X80950172Y-95256565D02*
X80895629Y-94844507D01*
X81004246Y-95744023D02*
X80950172Y-95256565D01*
X98844097Y-84102980D02*
X98848469Y-84154006D01*
X98821875Y-83773875D02*
X98844097Y-84102980D01*
X98796507Y-83393273D02*
X98821875Y-83773875D01*
X98767735Y-82954487D02*
X98796507Y-83393273D01*
X100251569Y-84651938D02*
X101102697Y-84160983D01*
X100251569Y-84651938D02*
G75*
G02X99774091Y-84820940I-771947J1421959D01*
G01*
X99774092Y-84820940D02*
G75*
G02X99430833Y-84774895I-101301J547306D01*
G01*
X99430833Y-84774895D02*
G75*
G02X99114336Y-84529006I416342J862532D01*
G01*
X99014664Y-84406249D02*
X99114336Y-84529006D01*
X98929446Y-84291935D02*
X99014664Y-84406249D01*
X98862852Y-84194379D02*
X98929446Y-84291935D01*
X98862852Y-84194378D02*
G75*
G02X98848469Y-84154006I75668J49705D01*
G01*
X98708452Y-82244617D02*
X98767735Y-82954487D01*
X98630653Y-81887991D02*
G75*
G02X98708452Y-82244617I-1529530J-520469D01*
G01*
X98507706Y-81708466D02*
G75*
G02X98630653Y-81887990I-259742J-309746D01*
G01*
X78470971Y-81851684D02*
G75*
G02X78517620Y-81696497I648993J-110480D01*
G01*
X78517620Y-81696497D02*
G75*
G02X78601745Y-81554867I626453J-276300D01*
G01*
X78601746Y-81554867D02*
G75*
G02X78730447Y-81411885I999321J-770099D01*
G01*
X78730446Y-81411885D02*
G75*
G02X78983087Y-81216258I1075298J-1127738D01*
G01*
X79443621Y-80945235D02*
X78983087Y-81216258D01*
X79941500Y-80685172D02*
X79443621Y-80945235D01*
X79941501Y-80685172D02*
G75*
G02X80355447Y-80507919I1960899J-4007400D01*
G01*
X78660719Y-96039681D02*
G75*
G02X78744784Y-96181659I-749465J-539635D01*
G01*
X78565615Y-95944935D02*
G75*
G02X78660718Y-96039680I-240056J-336068D01*
G01*
X78446355Y-95886714D02*
G75*
G02X78565615Y-95944936I-114006J-384784D01*
G01*
X78288912Y-95856026D02*
G75*
G02X78446355Y-95886714I-81387J-836769D01*
G01*
X77777493Y-96041698D02*
G75*
G02X78288913Y-95856026I450266J-443053D01*
G01*
X77446179Y-96622907D02*
G75*
G02X77777493Y-96041699I1261502J-334075D01*
G01*
X76402286Y-80001729D02*
G75*
G02X76610516Y-80000457I105803J-275721D01*
G01*
X76610516Y-80000456D02*
G75*
G02X76964554Y-80159575I-987705J-2671064D01*
G01*
X76964554Y-80159575D02*
G75*
G02X77324716Y-80387243I-1374008J-2572342D01*
G01*
X81214357Y-93677009D02*
X80495437Y-94048261D01*
X81961192Y-93283368D02*
X81214357Y-93677009D01*
X83998518Y-92215371D02*
X81961192Y-93283368D01*
X85368405Y-91542382D02*
X83998518Y-92215371D01*
X86480082Y-91061374D02*
X85368405Y-91542382D01*
X87613986Y-90645415D02*
X86480082Y-91061374D01*
X95821422Y-75663646D02*
G75*
G02X96303417Y-75243897I2988510J-2945078D01*
G01*
X95289566Y-76273518D02*
G75*
G02X95821422Y-75663646I5266471J-4055931D01*
G01*
X94705447Y-77085377D02*
X95289565Y-76273518D01*
X94705447Y-77085378D02*
G75*
G02X93566725Y-78539189I-10460723J7020665D01*
G01*
X93566725Y-78539189D02*
G75*
G02X92431622Y-79477888I-3850283J3500227D01*
G01*
X92431622Y-79477888D02*
G75*
G02X91330953Y-79889520I-1614311J2639165D01*
G01*
X91330953Y-79889519D02*
G75*
G02X90290100Y-79786132I-330547J1963298D01*
G01*
X90290100Y-79786133D02*
G75*
G02X89551765Y-79354556I933533J2444430D01*
G01*
X89551765Y-79354556D02*
G75*
G02X88906214Y-78667530I2447015J2946095D01*
G01*
X88906214Y-78667529D02*
G75*
G02X88195215Y-77530536I7520623J5493692D01*
G01*
X87174064Y-75520411D02*
X88195215Y-77530536D01*
X86567171Y-74296328D02*
X87174064Y-75520411D01*
X93514457Y-84376883D02*
X93557841Y-85011234D01*
X93485224Y-83915499D02*
X93514457Y-84376883D01*
X93448905Y-83430676D02*
X93485224Y-83915499D01*
X93411243Y-82990973D02*
X93448905Y-83430676D01*
X93378797Y-82686678D02*
X93411243Y-82990973D01*
X93327070Y-82321542D02*
X93378797Y-82686678D01*
X93274681Y-82171050D02*
G75*
G02X93327070Y-82321542I-398921J-223236D01*
G01*
X78530044Y-88732706D02*
G75*
G02X78268662Y-89219873I-1911062J711644D01*
G01*
X78663595Y-88165861D02*
G75*
G02X78530044Y-88732705I-2320714J247616D01*
G01*
X78704789Y-87386679D02*
G75*
G02X78663595Y-88165862I-7298835J-4798D01*
G01*
X78694999Y-86853536D02*
X78704789Y-87386678D01*
X105160820Y-85270220D02*
G75*
G02X104607550Y-85939497I-2052897J1133743D01*
G01*
X104607550Y-85939497D02*
G75*
G02X103685116Y-86511443I-2508787J3016348D01*
G01*
X103685116Y-86511442D02*
G75*
G02X102395270Y-86976645I-3956995J8950621D01*
G01*
X102395270Y-86976646D02*
G75*
G02X100948166Y-87312108I-4197964J14820059D01*
G01*
X99381724Y-87532181D02*
X100948166Y-87312108D01*
X97250818Y-87690614D02*
X99381724Y-87532181D01*
X93773970Y-87838219D02*
X97250818Y-87690614D01*
X90869982Y-87994710D02*
X93773970Y-87838219D01*
X88422855Y-88242525D02*
X90869982Y-87994710D01*
X86129879Y-88616712D02*
X88422855Y-88242525D01*
X101689875Y-82407586D02*
X102255447Y-82175967D01*
X101246543Y-82558702D02*
X101689875Y-82407586D01*
X100912504Y-82643246D02*
X101246543Y-82558702D01*
X100912503Y-82643245D02*
G75*
G02X100793318Y-82607883I-26993J127554D01*
G01*
X100793318Y-82607884D02*
G75*
G02X100762842Y-82546461I75963J75963D01*
G01*
X100708706Y-82135755D02*
X100762842Y-82546461D01*
X95955447Y-87527061D02*
X91785533Y-87723143D01*
X98212000Y-87427651D02*
X95955447Y-87527061D01*
X99602415Y-87313251D02*
X98212000Y-87427651D01*
X100510400Y-87178233D02*
X99602415Y-87313251D01*
X100782946Y-86982105D02*
G75*
G02X100510400Y-87178233I-344067J190695D01*
G01*
X100782947Y-86982106D02*
G75*
G02X101109891Y-86571396I1387424J-768967D01*
G01*
X79561192Y-94509196D02*
X79326423Y-94612749D01*
X79882067Y-94358418D02*
X79561192Y-94509196D01*
X80495437Y-94048261D02*
X79882067Y-94358418D01*
X75160961Y-92726799D02*
G75*
G02X77167353Y-91340585I7794210J-9136134D01*
G01*
X77167353Y-91340585D02*
G75*
G02X80041391Y-90050698I9379928J-17052903D01*
G01*
X80041391Y-90050698D02*
G75*
G02X83685938Y-88944840I13771100J-38826509D01*
G01*
X81947410Y-76311678D02*
G75*
G02X82203456Y-76707479I-486825J-595651D01*
G01*
X101933252Y-73330383D02*
G75*
G02X102058964Y-73388497I-593722J-1449345D01*
G01*
X101798341Y-73281275D02*
X101933252Y-73330383D01*
X101673734Y-73246957D02*
X101798341Y-73281275D01*
X101584004Y-73236678D02*
G75*
G02X101673734Y-73246957I0J-396791D01*
G01*
X101194318Y-73366984D02*
G75*
G02X101584004Y-73236678I389687J-517539D01*
G01*
X100780636Y-73769013D02*
G75*
G02X101194318Y-73366984I1797313J-1435558D01*
G01*
X100461990Y-74286599D02*
G75*
G02X100780636Y-73769013I2267879J-1039315D01*
G01*
X100355446Y-74774825D02*
G75*
G02X100461990Y-74286599I1171897J0D01*
G01*
X100441847Y-75212778D02*
G75*
G02X100355447Y-74774825I1066760J437952D01*
G01*
X100685098Y-75488251D02*
G75*
G02X100441847Y-75212778I275568J488471D01*
G01*
X101059319Y-75563895D02*
G75*
G02X100685098Y-75488250I-70716J613637D01*
G01*
X105079664Y-84190467D02*
G75*
G02X105148125Y-84560735I-773695J-334517D01*
G01*
X104829202Y-83813707D02*
G75*
G02X105079664Y-84190467I-918255J-882069D01*
G01*
X104457369Y-83537659D02*
G75*
G02X104829201Y-83813707I-633498J-1241762D01*
G01*
X103772694Y-83339101D02*
G75*
G02X104457370Y-83537660I-175318J-1884282D01*
G01*
X100653660Y-81654634D02*
X100708706Y-82135755D01*
X100601373Y-81096732D02*
X100653660Y-81654634D01*
X100496460Y-80112272D02*
X100601373Y-81096732D01*
X100369740Y-79572921D02*
G75*
G02X100496460Y-80112272I-2524514J-877694D01*
G01*
X100183924Y-79264357D02*
G75*
G02X100369740Y-79572921I-640147J-595725D01*
G01*
X99905446Y-79095036D02*
G75*
G02X100183924Y-79264357I-160789J-578107D01*
G01*
X81697278Y-76173243D02*
G75*
G02X81947410Y-76311678I-255926J-757617D01*
G01*
X81427264Y-76141214D02*
G75*
G02X81697277Y-76173244I59009J-656666D01*
G01*
X81171787Y-76220755D02*
G75*
G02X81427264Y-76141213I312327J-553098D01*
G01*
X80962704Y-76400164D02*
G75*
G02X81171787Y-76220755I558446J-439274D01*
G01*
X80816671Y-76642166D02*
G75*
G02X80962705Y-76400164I1047218J-466871D01*
G01*
X80766366Y-76873842D02*
G75*
G02X80816671Y-76642166I580725J-4797D01*
G01*
X80811240Y-77121001D02*
G75*
G02X80766366Y-76873842I627628J241605D01*
G01*
X80954351Y-77411678D02*
G75*
G02X80811240Y-77121001I1538359J937956D01*
G01*
X81071896Y-77578861D02*
G75*
G02X80954351Y-77411678I1220176J982806D01*
G01*
X81180817Y-77673682D02*
G75*
G02X81071895Y-77578862I211444J352862D01*
G01*
X81311340Y-77721536D02*
G75*
G02X81180818Y-77673682I60219J366169D01*
G01*
X96600436Y-89236436D02*
X94295337Y-89328544D01*
X99070977Y-89135666D02*
X96600436Y-89236436D01*
X101325643Y-88833279D02*
G75*
G02X99070977Y-89135666I-4031810J21505288D01*
G01*
X103261706Y-88352374D02*
G75*
G02X101325643Y-88833280I-5099299J16391471D01*
G01*
X104755447Y-87707536D02*
G75*
G02X103261706Y-88352374I-3779383J6702270D01*
G01*
X105372911Y-87297624D02*
G75*
G02X104755447Y-87707535I-3126529J4039605D01*
G01*
X81704627Y-83386678D02*
X81582152Y-81740533D01*
X81847026Y-85301382D02*
X81704627Y-83386678D01*
X81924785Y-86001061D02*
X81847026Y-85301382D01*
X82009398Y-86327245D02*
G75*
G02X81924785Y-86001061I1445170J548948D01*
G01*
X82142250Y-86391953D02*
G75*
G02X82009399Y-86327245I-32009J103013D01*
G01*
X82142250Y-86391954D02*
G75*
G02X82400332Y-86426833I91570J-294698D01*
G01*
X82400332Y-86426833D02*
G75*
G02X82602283Y-86658227I-296423J-462529D01*
G01*
X82602283Y-86658227D02*
G75*
G02X82683092Y-87021885I-789869J-366326D01*
G01*
X82683091Y-87021885D02*
G75*
G02X82608136Y-87396498I-958909J-2938D01*
G01*
X82608136Y-87396499D02*
G75*
G02X82289375Y-87864651I-1315533J553140D01*
G01*
X82289375Y-87864650D02*
G75*
G02X81732758Y-88304873I-2385333J2444009D01*
G01*
X81732758Y-88304873D02*
G75*
G02X81087526Y-88625995I-1871731J2952084D01*
G01*
X81087526Y-88625995D02*
G75*
G02X80497878Y-88734482I-598843J1598155D01*
G01*
X80497878Y-88734482D02*
G75*
G02X79989459Y-88561207I-4416J819574D01*
G01*
X79989459Y-88561206D02*
G75*
G02X79679432Y-88105330I553514J709785D01*
G01*
X79679432Y-88105330D02*
G75*
G02X79499718Y-87128494I4588073J1349040D01*
G01*
X79344447Y-84811678D02*
X79499718Y-87128494D01*
X79222670Y-82636678D02*
X79344447Y-84811678D01*
X78959058Y-82636678D02*
X79222670Y-82636678D01*
X78959059Y-82636679D02*
G75*
G02X78728435Y-82601112I-1J765493D01*
G01*
X78728434Y-82601112D02*
G75*
G02X78572592Y-82496811I100895J319330D01*
G01*
X78572593Y-82496811D02*
G75*
G02X78483761Y-82313029I320045J268054D01*
G01*
X78483761Y-82313030D02*
G75*
G02X78455447Y-82035388I1347075J277642D01*
G01*
X78455447Y-82035387D02*
G75*
G02X78470971Y-81851684I1094656J0D01*
G01*
X97585974Y-85163289D02*
G75*
G02X97207788Y-85293279I-936647J2109897D01*
G01*
X97207788Y-85293279D02*
G75*
G02X96854328Y-85336678I-353461J1417666D01*
G01*
X96854327Y-85336678D02*
G75*
G02X96615560Y-85325202I-2J2489495D01*
G01*
X96615560Y-85325202D02*
G75*
G02X96487546Y-85281892I28405J294805D01*
G01*
X96487545Y-85281892D02*
G75*
G02X96397330Y-85188004I139560J224387D01*
G01*
X96397330Y-85188004D02*
G75*
G02X96301606Y-84992910I1566057J889432D01*
G01*
X93186766Y-82094567D02*
G75*
G02X93274681Y-82171050I-62575J-160698D01*
G01*
X93025038Y-82054514D02*
G75*
G02X93186767Y-82094567I-74044J-645525D01*
G01*
X93025039Y-82054515D02*
G75*
G02X92687980Y-81865645I56998J496914D01*
G01*
X77324716Y-80387243D02*
G75*
G02X77589363Y-80635802I-922934J-1247843D01*
G01*
X77589364Y-80635801D02*
G75*
G02X78106215Y-81484284I-2503939J-2106930D01*
G01*
X78106214Y-81484285D02*
G75*
G02X78259919Y-82347527I-1866789J-777696D01*
G01*
X76299122Y-95509660D02*
X75845055Y-95528460D01*
X76877700Y-95442247D02*
G75*
G02X76299122Y-95509660I-914141J5329135D01*
G01*
X77500884Y-95308717D02*
X76877700Y-95442247D01*
X78124673Y-95120701D02*
X77500884Y-95308717D01*
X78705447Y-94889389D02*
G75*
G02X78124673Y-95120701I-2813860J6220235D01*
G01*
X78858195Y-94820752D02*
X78705447Y-94889389D01*
X79080572Y-94721726D02*
X78858195Y-94820752D01*
X79326423Y-94612749D02*
X79080572Y-94721726D01*
X98292908Y-82204986D02*
X98284214Y-81907226D01*
X98319830Y-82561678D02*
X98292908Y-82204986D01*
X98396117Y-83530644D02*
X98319830Y-82561678D01*
X98396116Y-83530643D02*
G75*
G02X98399682Y-84110233I-4930340J-320137D01*
G01*
X69920771Y-88287060D02*
G75*
G02X69653594Y-87971897I854904J995566D01*
G01*
X70290790Y-88529583D02*
G75*
G02X69920771Y-88287060I747257J1543629D01*
G01*
X70698278Y-88708367D02*
X70290790Y-88529583D01*
X78639086Y-85786679D02*
G75*
G02X78786669Y-86106457I-2723795J-1451018D01*
G01*
X78786669Y-86106457D02*
G75*
G02X78863029Y-86382227I-1268088J-499588D01*
G01*
X78863030Y-86382227D02*
G75*
G02X78896949Y-86736162I-2528245J-420888D01*
G01*
X78905447Y-87386678D02*
X78896949Y-86736162D01*
X78896995Y-88055357D02*
X78905447Y-87386678D01*
X78896995Y-88055357D02*
G75*
G02X78861866Y-88400869I-2284932J57773D01*
G01*
X78861865Y-88400869D02*
G75*
G02X78779990Y-88673926I-1233949J221191D01*
G01*
X78779991Y-88673927D02*
G75*
G02X78613965Y-89012761I-3445138J1477994D01*
G01*
X96301606Y-84992910D02*
G75*
G02X96242226Y-84791528I890047J371885D01*
G01*
X96183541Y-84418834D02*
X96242226Y-84791528D01*
X96133869Y-83977914D02*
X96183541Y-84418834D01*
X96101767Y-83517910D02*
X96133869Y-83977914D01*
X96050651Y-82629513D02*
X96101767Y-83517910D01*
X95998483Y-82116610D02*
X96050651Y-82629513D01*
X101109891Y-86571395D02*
G75*
G02X101600847Y-86219399I1835792J-2042133D01*
G01*
X101600847Y-86219400D02*
G75*
G02X102365633Y-85855846I3049424J-5428698D01*
G01*
X103625394Y-85385441D02*
X102365633Y-85855846D01*
X104114436Y-85208105D02*
X103625394Y-85385441D01*
X104549352Y-85039958D02*
X104114436Y-85208105D01*
X95687346Y-82267584D02*
G75*
G02X95737781Y-81835377I3702032J-212954D01*
G01*
X95685274Y-82876530D02*
G75*
G02X95687346Y-82267585I5627996J285331D01*
G01*
X95745092Y-83655131D02*
X95685274Y-82876529D01*
X95810897Y-84561594D02*
X95745092Y-83655131D01*
X95810897Y-84561593D02*
G75*
G02X95748520Y-85038195I-1399901J-59166D01*
G01*
X95748520Y-85038196D02*
G75*
G02X95542921Y-85349055I-639634J199628D01*
G01*
X95542921Y-85349055D02*
G75*
G02X95134578Y-85611303I-1178742J1386367D01*
G01*
X94634436Y-85821419D02*
X95134578Y-85611303D01*
X76948522Y-84170838D02*
G75*
G02X76883456Y-84098327I95763J151379D01*
G01*
X77230447Y-84344054D02*
X76948523Y-84170838D01*
X77230447Y-84344055D02*
G75*
G02X77652011Y-84635918I-1940847J-3253719D01*
G01*
X77652011Y-84635917D02*
G75*
G02X78043642Y-84990151I-2656503J-3330565D01*
G01*
X78043642Y-84990151D02*
G75*
G02X78380743Y-85382110I-2929001J-2860002D01*
G01*
X78380743Y-85382110D02*
G75*
G02X78639086Y-85786678I-2432074J-1837808D01*
G01*
X94634435Y-85821419D02*
G75*
G02X94297652Y-85895421I-427190J1140800D01*
G01*
X94297652Y-85895421D02*
G75*
G02X94042586Y-85856355I-42682J573535D01*
G01*
X94042586Y-85856355D02*
G75*
G02X93818894Y-85709217I244528J615360D01*
G01*
X102058964Y-73388497D02*
G75*
G02X102400924Y-73789627I-320287J-619366D01*
G01*
X84195006Y-71859070D02*
G75*
G02X84571822Y-71939555I-476042J-3151063D01*
G01*
X83891351Y-71850369D02*
G75*
G02X84195006Y-71859070I116138J-1249928D01*
G01*
X83598805Y-71914752D02*
G75*
G02X83891350Y-71850369I404602J-1141611D01*
G01*
X83257490Y-72061678D02*
G75*
G02X83598806Y-71914752I1283910J-2512670D01*
G01*
X82824921Y-72336380D02*
G75*
G02X83257490Y-72061678I1682538J-2171541D01*
G01*
X82572746Y-72632539D02*
G75*
G02X82824921Y-72336380I833846J-454567D01*
G01*
X82445215Y-73025906D02*
G75*
G02X82572746Y-72632539I1111312J-142937D01*
G01*
X82408321Y-73619370D02*
G75*
G02X82445214Y-73025906I4519329J16933D01*
G01*
X82455934Y-74262114D02*
G75*
G02X82408321Y-73619369I4546943J659960D01*
G01*
X82593024Y-74892594D02*
G75*
G02X82455934Y-74262114I4429626J1293309D01*
G01*
X82879281Y-75745298D02*
X82593024Y-74892595D01*
X83479055Y-77286678D02*
X82879281Y-75745298D01*
X104812193Y-83520504D02*
G75*
G02X105211974Y-83973470I-876083J-1176121D01*
G01*
X105211975Y-83973469D02*
G75*
G02X105355073Y-84514890I-957443J-542675D01*
G01*
X105355073Y-84514891D02*
G75*
G02X105160820Y-85270221I-1558732J-1775D01*
G01*
X83380459Y-81427709D02*
G75*
G02X83024504Y-81465762I-345327J1546396D01*
G01*
X83024505Y-81465762D02*
G75*
G02X82687332Y-81418916I8716J1299554D01*
G01*
X82687332Y-81418915D02*
G75*
G02X82320649Y-81229997I267929J970358D01*
G01*
X81725517Y-80710798D02*
X82320649Y-81229997D01*
X81012961Y-79996322D02*
X81725517Y-80710798D01*
X80211757Y-79100429D02*
X81012961Y-79996322D01*
X79496739Y-78357516D02*
G75*
G02X80211757Y-79100429I-6164063J-6648158D01*
G01*
X78858840Y-77900569D02*
G75*
G02X79496738Y-78357516I-1484308J-2745821D01*
G01*
X78262531Y-77699234D02*
G75*
G02X78858840Y-77900569I-288440J-1838029D01*
G01*
X77677814Y-77730656D02*
G75*
G02X78262532Y-77699234I366306J-1360362D01*
G01*
X77351886Y-77854295D02*
G75*
G02X77677814Y-77730656I781962J-1569943D01*
G01*
X77007164Y-78055677D02*
G75*
G02X77351886Y-77854294I1681982J-2483432D01*
G01*
X76697917Y-78296922D02*
G75*
G02X77007164Y-78055678I1947570J-2177721D01*
G01*
X76480999Y-78541236D02*
G75*
G02X76697917Y-78296922I1165460J-816319D01*
G01*
X76289123Y-78953123D02*
G75*
G02X76480999Y-78541236I1260302J-336469D01*
G01*
X76203848Y-79490527D02*
G75*
G02X76289124Y-78953122I2628930J-141689D01*
G01*
X76238898Y-79914013D02*
G75*
G02X76203849Y-79490527I1524997J339406D01*
G01*
X76402285Y-80001729D02*
G75*
G02X76238898Y-79914013I-43867J114316D01*
G01*
X78809983Y-96653284D02*
G75*
G02X78608581Y-97169103I-1361005J234178D01*
G01*
X78744784Y-96181658D02*
G75*
G02X78809983Y-96653284I-709254J-338370D01*
G01*
X101885785Y-90005951D02*
X102418266Y-90542395D01*
X101422177Y-89568645D02*
X101885785Y-90005951D01*
X101033449Y-89225525D02*
X101422177Y-89568645D01*
X100905446Y-89172983D02*
G75*
G02X101033449Y-89225525I-14973J-218671D01*
G01*
X100796759Y-89172754D02*
G75*
G02X100905447Y-89172984I52612J-819179D01*
G01*
X100617322Y-89187165D02*
X100796759Y-89172754D01*
X100411540Y-89210412D02*
X100617322Y-89187165D01*
X100205447Y-89240490D02*
X100411540Y-89210412D01*
X100205446Y-89240490D02*
G75*
G02X99880217Y-89277305I-543594J3347227D01*
G01*
X99029822Y-89328773D02*
X99880217Y-89277305D01*
X98014303Y-89380741D02*
X99029822Y-89328773D01*
X96905447Y-89427002D02*
X98014303Y-89380741D01*
X95001576Y-89510243D02*
X96905447Y-89427002D01*
X93675128Y-89599358D02*
X95001576Y-89510243D01*
X74555447Y-82830335D02*
G75*
G02X74681570Y-82431376I694064J0D01*
G01*
X74681571Y-82431376D02*
G75*
G02X74999025Y-82244446I364559J-256090D01*
G01*
X74999025Y-82244446D02*
G75*
G02X75482435Y-82324661I96993J-912207D01*
G01*
X75482435Y-82324661D02*
G75*
G02X76049223Y-82671505I-1226537J-2640843D01*
G01*
X86316153Y-88362071D02*
X83685938Y-88944840D01*
X88822638Y-87979695D02*
X86316153Y-88362071D01*
X91785533Y-87723143D02*
X88822638Y-87979695D01*
X104910806Y-84891793D02*
X104549352Y-85039958D01*
X105015432Y-84828391D02*
G75*
G02X104910806Y-84891793I-265068J319387D01*
G01*
X105148124Y-84560735D02*
G75*
G02X105015432Y-84828391I-367784J15612D01*
G01*
X98319830Y-81638210D02*
G75*
G02X98507706Y-81708466I-5378J-300715D01*
G01*
X98288250Y-81668200D02*
G75*
G02X98319830Y-81638210I31025J-1048D01*
G01*
X98284214Y-81907226D02*
X98288250Y-81668200D01*
X87613986Y-90645415D02*
G75*
G02X89711593Y-90047075I7660132J-22878223D01*
G01*
X91968911Y-89603375D02*
X89711593Y-90047075D01*
X94295337Y-89328544D02*
X91968911Y-89603375D01*
X95939334Y-81802837D02*
G75*
G02X95998483Y-82116610I-3175639J-761098D01*
G01*
X95855447Y-81736679D02*
G75*
G02X95939334Y-81802837I0J-86263D01*
G01*
X95737780Y-81835378D02*
G75*
G02X95855447Y-81736678I117667J-20789D01*
G01*
X74604509Y-95318075D02*
X74846682Y-95508569D01*
X74604509Y-95318074D02*
G75*
G02X74408574Y-95095139I503480J640070D01*
G01*
X74408574Y-95095140D02*
G75*
G02X74273814Y-94786181I1147521J684389D01*
G01*
X98399682Y-84110233D02*
G75*
G02X98340679Y-84487337I-1859535J97783D01*
G01*
X98340679Y-84487337D02*
G75*
G02X98205447Y-84736877I-580251J153040D01*
G01*
X98205446Y-84736878D02*
G75*
G02X97936082Y-84969967I-1084468J981051D01*
G01*
X97936082Y-84969967D02*
G75*
G02X97585974Y-85163289I-1286896J1916898D01*
G01*
X77461223Y-97256837D02*
G75*
G02X77446180Y-96622907I1084047J342867D01*
G01*
X77826811Y-97600976D02*
G75*
G02X77461222Y-97256837I125345J499414D01*
G01*
X78236937Y-97535853D02*
G75*
G02X77826811Y-97600976I-281359J447929D01*
G01*
X78608581Y-97169103D02*
G75*
G02X78236937Y-97535854I-1013926J655777D01*
G01*
X84244121Y-80604438D02*
G75*
G02X83956665Y-81135460I-1035951J217474D01*
G01*
X83956665Y-81135460D02*
G75*
G02X83706927Y-81313506I-656070J656069D01*
G01*
X83706928Y-81313507D02*
G75*
G02X83380460Y-81427709I-649884J1334075D01*
G01*
X102979050Y-83375212D02*
G75*
G02X103772693Y-83339102I526594J-2834090D01*
G01*
X102085392Y-83649189D02*
G75*
G02X102979051Y-83375212I1645721J-3773564D01*
G01*
X101102697Y-84160983D02*
G75*
G02X102085391Y-83649189I4199245J-6863631D01*
G01*
X93818893Y-85709216D02*
G75*
G02X93685054Y-85532290I571131J571129D01*
G01*
X93685054Y-85532290D02*
G75*
G02X93606330Y-85327654I673236J376457D01*
G01*
X93606331Y-85327655D02*
G75*
G02X93557841Y-85011234I2151669J491655D01*
G01*
D10*
X88280333Y-47172619D02*
X88280333Y-48172619D01*
X87899380Y-48172619D01*
X87804142Y-48125000D01*
X87756523Y-48077380D01*
X87708904Y-47982142D01*
X87708904Y-47839285D01*
X87756523Y-47744047D01*
X87804142Y-47696428D01*
X87899380Y-47648809D01*
X88280333Y-47648809D01*
X86804142Y-47172619D02*
X87280333Y-47172619D01*
X87280333Y-48172619D01*
X86518428Y-47458333D02*
X86042238Y-47458333D01*
X86613666Y-47172619D02*
X86280333Y-48172619D01*
X85947000Y-47172619D01*
X85423190Y-47648809D02*
X85423190Y-47172619D01*
X85756523Y-48172619D02*
X85423190Y-47648809D01*
X85089857Y-48172619D01*
X84756523Y-47696428D02*
X84423190Y-47696428D01*
X84280333Y-47172619D02*
X84756523Y-47172619D01*
X84756523Y-48172619D01*
X84280333Y-48172619D01*
X83280333Y-47172619D02*
X83613666Y-47648809D01*
X83851761Y-47172619D02*
X83851761Y-48172619D01*
X83470809Y-48172619D01*
X83375571Y-48125000D01*
X83327952Y-48077380D01*
X83280333Y-47982142D01*
X83280333Y-47839285D01*
X83327952Y-47744047D01*
X83375571Y-47696428D01*
X83470809Y-47648809D01*
X83851761Y-47648809D01*
X82232714Y-48172619D02*
X81661285Y-48172619D01*
X81947000Y-47172619D02*
X81947000Y-48172619D01*
X81423190Y-48172619D02*
X81185095Y-47172619D01*
X80994619Y-47886904D01*
X80804142Y-47172619D01*
X80566047Y-48172619D01*
X79994619Y-48172619D02*
X79804142Y-48172619D01*
X79708904Y-48125000D01*
X79613666Y-48029761D01*
X79566047Y-47839285D01*
X79566047Y-47505952D01*
X79613666Y-47315476D01*
X79708904Y-47220238D01*
X79804142Y-47172619D01*
X79994619Y-47172619D01*
X80089857Y-47220238D01*
X80185095Y-47315476D01*
X80232714Y-47505952D01*
X80232714Y-47839285D01*
X80185095Y-48029761D01*
X80089857Y-48125000D01*
X79994619Y-48172619D01*
X113323142Y-47172619D02*
X113323142Y-48172619D01*
X112942190Y-48172619D01*
X112846952Y-48125000D01*
X112799333Y-48077380D01*
X112751714Y-47982142D01*
X112751714Y-47839285D01*
X112799333Y-47744047D01*
X112846952Y-47696428D01*
X112942190Y-47648809D01*
X113323142Y-47648809D01*
X111846952Y-47172619D02*
X112323142Y-47172619D01*
X112323142Y-48172619D01*
X111561238Y-47458333D02*
X111085047Y-47458333D01*
X111656476Y-47172619D02*
X111323142Y-48172619D01*
X110989809Y-47172619D01*
X110466000Y-47648809D02*
X110466000Y-47172619D01*
X110799333Y-48172619D02*
X110466000Y-47648809D01*
X110132666Y-48172619D01*
X109799333Y-47696428D02*
X109466000Y-47696428D01*
X109323142Y-47172619D02*
X109799333Y-47172619D01*
X109799333Y-48172619D01*
X109323142Y-48172619D01*
X108323142Y-47172619D02*
X108656476Y-47648809D01*
X108894571Y-47172619D02*
X108894571Y-48172619D01*
X108513619Y-48172619D01*
X108418380Y-48125000D01*
X108370761Y-48077380D01*
X108323142Y-47982142D01*
X108323142Y-47839285D01*
X108370761Y-47744047D01*
X108418380Y-47696428D01*
X108513619Y-47648809D01*
X108894571Y-47648809D01*
X106942190Y-48172619D02*
X106751714Y-48172619D01*
X106656476Y-48125000D01*
X106561238Y-48029761D01*
X106513619Y-47839285D01*
X106513619Y-47505952D01*
X106561238Y-47315476D01*
X106656476Y-47220238D01*
X106751714Y-47172619D01*
X106942190Y-47172619D01*
X107037428Y-47220238D01*
X107132666Y-47315476D01*
X107180285Y-47505952D01*
X107180285Y-47839285D01*
X107132666Y-48029761D01*
X107037428Y-48125000D01*
X106942190Y-48172619D01*
X106085047Y-47172619D02*
X106085047Y-48172619D01*
X105513619Y-47172619D01*
X105513619Y-48172619D01*
X105037428Y-47696428D02*
X104704095Y-47696428D01*
X104561238Y-47172619D02*
X105037428Y-47172619D01*
X105037428Y-48172619D01*
X104561238Y-48172619D01*
X75001285Y-45394619D02*
X75001285Y-46394619D01*
X74763190Y-46394619D01*
X74620333Y-46347000D01*
X74525095Y-46251761D01*
X74477476Y-46156523D01*
X74429857Y-45966047D01*
X74429857Y-45823190D01*
X74477476Y-45632714D01*
X74525095Y-45537476D01*
X74620333Y-45442238D01*
X74763190Y-45394619D01*
X75001285Y-45394619D01*
X74048904Y-46299380D02*
X74001285Y-46347000D01*
X73906047Y-46394619D01*
X73667952Y-46394619D01*
X73572714Y-46347000D01*
X73525095Y-46299380D01*
X73477476Y-46204142D01*
X73477476Y-46108904D01*
X73525095Y-45966047D01*
X74096523Y-45394619D01*
X73477476Y-45394619D01*
X73096523Y-46299380D02*
X73048904Y-46347000D01*
X72953666Y-46394619D01*
X72715571Y-46394619D01*
X72620333Y-46347000D01*
X72572714Y-46299380D01*
X72525095Y-46204142D01*
X72525095Y-46108904D01*
X72572714Y-45966047D01*
X73144142Y-45394619D01*
X72525095Y-45394619D01*
X94940285Y-45394619D02*
X94940285Y-46394619D01*
X94702190Y-46394619D01*
X94559333Y-46347000D01*
X94464095Y-46251761D01*
X94416476Y-46156523D01*
X94368857Y-45966047D01*
X94368857Y-45823190D01*
X94416476Y-45632714D01*
X94464095Y-45537476D01*
X94559333Y-45442238D01*
X94702190Y-45394619D01*
X94940285Y-45394619D01*
X93416476Y-45394619D02*
X93987904Y-45394619D01*
X93702190Y-45394619D02*
X93702190Y-46394619D01*
X93797428Y-46251761D01*
X93892666Y-46156523D01*
X93987904Y-46108904D01*
X92845047Y-45966047D02*
X92940285Y-46013666D01*
X92987904Y-46061285D01*
X93035523Y-46156523D01*
X93035523Y-46204142D01*
X92987904Y-46299380D01*
X92940285Y-46347000D01*
X92845047Y-46394619D01*
X92654571Y-46394619D01*
X92559333Y-46347000D01*
X92511714Y-46299380D01*
X92464095Y-46204142D01*
X92464095Y-46156523D01*
X92511714Y-46061285D01*
X92559333Y-46013666D01*
X92654571Y-45966047D01*
X92845047Y-45966047D01*
X92940285Y-45918428D01*
X92987904Y-45870809D01*
X93035523Y-45775571D01*
X93035523Y-45585095D01*
X92987904Y-45489857D01*
X92940285Y-45442238D01*
X92845047Y-45394619D01*
X92654571Y-45394619D01*
X92559333Y-45442238D01*
X92511714Y-45489857D01*
X92464095Y-45585095D01*
X92464095Y-45775571D01*
X92511714Y-45870809D01*
X92559333Y-45918428D01*
X92654571Y-45966047D01*
X85034285Y-45394619D02*
X85034285Y-46394619D01*
X84796190Y-46394619D01*
X84653333Y-46347000D01*
X84558095Y-46251761D01*
X84510476Y-46156523D01*
X84462857Y-45966047D01*
X84462857Y-45823190D01*
X84510476Y-45632714D01*
X84558095Y-45537476D01*
X84653333Y-45442238D01*
X84796190Y-45394619D01*
X85034285Y-45394619D01*
X84081904Y-46299380D02*
X84034285Y-46347000D01*
X83939047Y-46394619D01*
X83700952Y-46394619D01*
X83605714Y-46347000D01*
X83558095Y-46299380D01*
X83510476Y-46204142D01*
X83510476Y-46108904D01*
X83558095Y-45966047D01*
X84129523Y-45394619D01*
X83510476Y-45394619D01*
X82891428Y-46394619D02*
X82796190Y-46394619D01*
X82700952Y-46347000D01*
X82653333Y-46299380D01*
X82605714Y-46204142D01*
X82558095Y-46013666D01*
X82558095Y-45775571D01*
X82605714Y-45585095D01*
X82653333Y-45489857D01*
X82700952Y-45442238D01*
X82796190Y-45394619D01*
X82891428Y-45394619D01*
X82986666Y-45442238D01*
X83034285Y-45489857D01*
X83081904Y-45585095D01*
X83129523Y-45775571D01*
X83129523Y-46013666D01*
X83081904Y-46204142D01*
X83034285Y-46299380D01*
X82986666Y-46347000D01*
X82891428Y-46394619D01*
X89987285Y-45394619D02*
X89987285Y-46394619D01*
X89749190Y-46394619D01*
X89606333Y-46347000D01*
X89511095Y-46251761D01*
X89463476Y-46156523D01*
X89415857Y-45966047D01*
X89415857Y-45823190D01*
X89463476Y-45632714D01*
X89511095Y-45537476D01*
X89606333Y-45442238D01*
X89749190Y-45394619D01*
X89987285Y-45394619D01*
X88463476Y-45394619D02*
X89034904Y-45394619D01*
X88749190Y-45394619D02*
X88749190Y-46394619D01*
X88844428Y-46251761D01*
X88939666Y-46156523D01*
X89034904Y-46108904D01*
X87987285Y-45394619D02*
X87796809Y-45394619D01*
X87701571Y-45442238D01*
X87653952Y-45489857D01*
X87558714Y-45632714D01*
X87511095Y-45823190D01*
X87511095Y-46204142D01*
X87558714Y-46299380D01*
X87606333Y-46347000D01*
X87701571Y-46394619D01*
X87892047Y-46394619D01*
X87987285Y-46347000D01*
X88034904Y-46299380D01*
X88082523Y-46204142D01*
X88082523Y-45966047D01*
X88034904Y-45870809D01*
X87987285Y-45823190D01*
X87892047Y-45775571D01*
X87701571Y-45775571D01*
X87606333Y-45823190D01*
X87558714Y-45870809D01*
X87511095Y-45966047D01*
X79954285Y-45394619D02*
X79954285Y-46394619D01*
X79716190Y-46394619D01*
X79573333Y-46347000D01*
X79478095Y-46251761D01*
X79430476Y-46156523D01*
X79382857Y-45966047D01*
X79382857Y-45823190D01*
X79430476Y-45632714D01*
X79478095Y-45537476D01*
X79573333Y-45442238D01*
X79716190Y-45394619D01*
X79954285Y-45394619D01*
X79001904Y-46299380D02*
X78954285Y-46347000D01*
X78859047Y-46394619D01*
X78620952Y-46394619D01*
X78525714Y-46347000D01*
X78478095Y-46299380D01*
X78430476Y-46204142D01*
X78430476Y-46108904D01*
X78478095Y-45966047D01*
X79049523Y-45394619D01*
X78430476Y-45394619D01*
X77478095Y-45394619D02*
X78049523Y-45394619D01*
X77763809Y-45394619D02*
X77763809Y-46394619D01*
X77859047Y-46251761D01*
X77954285Y-46156523D01*
X78049523Y-46108904D01*
X100020285Y-45394619D02*
X100020285Y-46394619D01*
X99782190Y-46394619D01*
X99639333Y-46347000D01*
X99544095Y-46251761D01*
X99496476Y-46156523D01*
X99448857Y-45966047D01*
X99448857Y-45823190D01*
X99496476Y-45632714D01*
X99544095Y-45537476D01*
X99639333Y-45442238D01*
X99782190Y-45394619D01*
X100020285Y-45394619D01*
X99067904Y-46299380D02*
X99020285Y-46347000D01*
X98925047Y-46394619D01*
X98686952Y-46394619D01*
X98591714Y-46347000D01*
X98544095Y-46299380D01*
X98496476Y-46204142D01*
X98496476Y-46108904D01*
X98544095Y-45966047D01*
X99115523Y-45394619D01*
X98496476Y-45394619D01*
X98115523Y-46299380D02*
X98067904Y-46347000D01*
X97972666Y-46394619D01*
X97734571Y-46394619D01*
X97639333Y-46347000D01*
X97591714Y-46299380D01*
X97544095Y-46204142D01*
X97544095Y-46108904D01*
X97591714Y-45966047D01*
X98163142Y-45394619D01*
X97544095Y-45394619D01*
X104973285Y-45394619D02*
X104973285Y-46394619D01*
X104735190Y-46394619D01*
X104592333Y-46347000D01*
X104497095Y-46251761D01*
X104449476Y-46156523D01*
X104401857Y-45966047D01*
X104401857Y-45823190D01*
X104449476Y-45632714D01*
X104497095Y-45537476D01*
X104592333Y-45442238D01*
X104735190Y-45394619D01*
X104973285Y-45394619D01*
X104020904Y-46299380D02*
X103973285Y-46347000D01*
X103878047Y-46394619D01*
X103639952Y-46394619D01*
X103544714Y-46347000D01*
X103497095Y-46299380D01*
X103449476Y-46204142D01*
X103449476Y-46108904D01*
X103497095Y-45966047D01*
X104068523Y-45394619D01*
X103449476Y-45394619D01*
X102497095Y-45394619D02*
X103068523Y-45394619D01*
X102782809Y-45394619D02*
X102782809Y-46394619D01*
X102878047Y-46251761D01*
X102973285Y-46156523D01*
X103068523Y-46108904D01*
X110053285Y-45394619D02*
X110053285Y-46394619D01*
X109815190Y-46394619D01*
X109672333Y-46347000D01*
X109577095Y-46251761D01*
X109529476Y-46156523D01*
X109481857Y-45966047D01*
X109481857Y-45823190D01*
X109529476Y-45632714D01*
X109577095Y-45537476D01*
X109672333Y-45442238D01*
X109815190Y-45394619D01*
X110053285Y-45394619D01*
X109100904Y-46299380D02*
X109053285Y-46347000D01*
X108958047Y-46394619D01*
X108719952Y-46394619D01*
X108624714Y-46347000D01*
X108577095Y-46299380D01*
X108529476Y-46204142D01*
X108529476Y-46108904D01*
X108577095Y-45966047D01*
X109148523Y-45394619D01*
X108529476Y-45394619D01*
X107910428Y-46394619D02*
X107815190Y-46394619D01*
X107719952Y-46347000D01*
X107672333Y-46299380D01*
X107624714Y-46204142D01*
X107577095Y-46013666D01*
X107577095Y-45775571D01*
X107624714Y-45585095D01*
X107672333Y-45489857D01*
X107719952Y-45442238D01*
X107815190Y-45394619D01*
X107910428Y-45394619D01*
X108005666Y-45442238D01*
X108053285Y-45489857D01*
X108100904Y-45585095D01*
X108148523Y-45775571D01*
X108148523Y-46013666D01*
X108100904Y-46204142D01*
X108053285Y-46299380D01*
X108005666Y-46347000D01*
X107910428Y-46394619D01*
X115006285Y-45394619D02*
X115006285Y-46394619D01*
X114768190Y-46394619D01*
X114625333Y-46347000D01*
X114530095Y-46251761D01*
X114482476Y-46156523D01*
X114434857Y-45966047D01*
X114434857Y-45823190D01*
X114482476Y-45632714D01*
X114530095Y-45537476D01*
X114625333Y-45442238D01*
X114768190Y-45394619D01*
X115006285Y-45394619D01*
X113482476Y-45394619D02*
X114053904Y-45394619D01*
X113768190Y-45394619D02*
X113768190Y-46394619D01*
X113863428Y-46251761D01*
X113958666Y-46156523D01*
X114053904Y-46108904D01*
X113006285Y-45394619D02*
X112815809Y-45394619D01*
X112720571Y-45442238D01*
X112672952Y-45489857D01*
X112577714Y-45632714D01*
X112530095Y-45823190D01*
X112530095Y-46204142D01*
X112577714Y-46299380D01*
X112625333Y-46347000D01*
X112720571Y-46394619D01*
X112911047Y-46394619D01*
X113006285Y-46347000D01*
X113053904Y-46299380D01*
X113101523Y-46204142D01*
X113101523Y-45966047D01*
X113053904Y-45870809D01*
X113006285Y-45823190D01*
X112911047Y-45775571D01*
X112720571Y-45775571D01*
X112625333Y-45823190D01*
X112577714Y-45870809D01*
X112530095Y-45966047D01*
X119959285Y-45394619D02*
X119959285Y-46394619D01*
X119721190Y-46394619D01*
X119578333Y-46347000D01*
X119483095Y-46251761D01*
X119435476Y-46156523D01*
X119387857Y-45966047D01*
X119387857Y-45823190D01*
X119435476Y-45632714D01*
X119483095Y-45537476D01*
X119578333Y-45442238D01*
X119721190Y-45394619D01*
X119959285Y-45394619D01*
X118435476Y-45394619D02*
X119006904Y-45394619D01*
X118721190Y-45394619D02*
X118721190Y-46394619D01*
X118816428Y-46251761D01*
X118911666Y-46156523D01*
X119006904Y-46108904D01*
X117864047Y-45966047D02*
X117959285Y-46013666D01*
X118006904Y-46061285D01*
X118054523Y-46156523D01*
X118054523Y-46204142D01*
X118006904Y-46299380D01*
X117959285Y-46347000D01*
X117864047Y-46394619D01*
X117673571Y-46394619D01*
X117578333Y-46347000D01*
X117530714Y-46299380D01*
X117483095Y-46204142D01*
X117483095Y-46156523D01*
X117530714Y-46061285D01*
X117578333Y-46013666D01*
X117673571Y-45966047D01*
X117864047Y-45966047D01*
X117959285Y-45918428D01*
X118006904Y-45870809D01*
X118054523Y-45775571D01*
X118054523Y-45585095D01*
X118006904Y-45489857D01*
X117959285Y-45442238D01*
X117864047Y-45394619D01*
X117673571Y-45394619D01*
X117578333Y-45442238D01*
X117530714Y-45489857D01*
X117483095Y-45585095D01*
X117483095Y-45775571D01*
X117530714Y-45870809D01*
X117578333Y-45918428D01*
X117673571Y-45966047D01*
X118856714Y-74620380D02*
X118856714Y-73620380D01*
X119237666Y-73620380D01*
X119332904Y-73668000D01*
X119380523Y-73715619D01*
X119428142Y-73810857D01*
X119428142Y-73953714D01*
X119380523Y-74048952D01*
X119332904Y-74096571D01*
X119237666Y-74144190D01*
X118856714Y-74144190D01*
X120428142Y-74620380D02*
X120094809Y-74144190D01*
X119856714Y-74620380D02*
X119856714Y-73620380D01*
X120237666Y-73620380D01*
X120332904Y-73668000D01*
X120380523Y-73715619D01*
X120428142Y-73810857D01*
X120428142Y-73953714D01*
X120380523Y-74048952D01*
X120332904Y-74096571D01*
X120237666Y-74144190D01*
X119856714Y-74144190D01*
X121047190Y-73620380D02*
X121237666Y-73620380D01*
X121332904Y-73668000D01*
X121428142Y-73763238D01*
X121475761Y-73953714D01*
X121475761Y-74287047D01*
X121428142Y-74477523D01*
X121332904Y-74572761D01*
X121237666Y-74620380D01*
X121047190Y-74620380D01*
X120951952Y-74572761D01*
X120856714Y-74477523D01*
X120809095Y-74287047D01*
X120809095Y-73953714D01*
X120856714Y-73763238D01*
X120951952Y-73668000D01*
X121047190Y-73620380D01*
X122428142Y-73668000D02*
X122332904Y-73620380D01*
X122190047Y-73620380D01*
X122047190Y-73668000D01*
X121951952Y-73763238D01*
X121904333Y-73858476D01*
X121856714Y-74048952D01*
X121856714Y-74191809D01*
X121904333Y-74382285D01*
X121951952Y-74477523D01*
X122047190Y-74572761D01*
X122190047Y-74620380D01*
X122285285Y-74620380D01*
X122428142Y-74572761D01*
X122475761Y-74525142D01*
X122475761Y-74191809D01*
X122285285Y-74191809D01*
X123475761Y-74620380D02*
X123142428Y-74144190D01*
X122904333Y-74620380D02*
X122904333Y-73620380D01*
X123285285Y-73620380D01*
X123380523Y-73668000D01*
X123428142Y-73715619D01*
X123475761Y-73810857D01*
X123475761Y-73953714D01*
X123428142Y-74048952D01*
X123380523Y-74096571D01*
X123285285Y-74144190D01*
X122904333Y-74144190D01*
X123856714Y-74334666D02*
X124332904Y-74334666D01*
X123761476Y-74620380D02*
X124094809Y-73620380D01*
X124428142Y-74620380D01*
X124761476Y-74620380D02*
X124761476Y-73620380D01*
X125094809Y-74334666D01*
X125428142Y-73620380D01*
X125428142Y-74620380D01*
X126666238Y-74620380D02*
X126666238Y-73620380D01*
X127237666Y-74620380D01*
X127237666Y-73620380D01*
X127904333Y-73620380D02*
X128094809Y-73620380D01*
X128190047Y-73668000D01*
X128285285Y-73763238D01*
X128332904Y-73953714D01*
X128332904Y-74287047D01*
X128285285Y-74477523D01*
X128190047Y-74572761D01*
X128094809Y-74620380D01*
X127904333Y-74620380D01*
X127809095Y-74572761D01*
X127713857Y-74477523D01*
X127666238Y-74287047D01*
X127666238Y-73953714D01*
X127713857Y-73763238D01*
X127809095Y-73668000D01*
X127904333Y-73620380D01*
X87741666Y-101671380D02*
X87741666Y-100671380D01*
X88122619Y-100671380D01*
X88217857Y-100719000D01*
X88265476Y-100766619D01*
X88313095Y-100861857D01*
X88313095Y-101004714D01*
X88265476Y-101099952D01*
X88217857Y-101147571D01*
X88122619Y-101195190D01*
X87741666Y-101195190D01*
X89217857Y-101671380D02*
X88741666Y-101671380D01*
X88741666Y-100671380D01*
X89503571Y-101385666D02*
X89979761Y-101385666D01*
X89408333Y-101671380D02*
X89741666Y-100671380D01*
X90075000Y-101671380D01*
X90598809Y-101195190D02*
X90598809Y-101671380D01*
X90265476Y-100671380D02*
X90598809Y-101195190D01*
X90932142Y-100671380D01*
X91265476Y-101147571D02*
X91598809Y-101147571D01*
X91741666Y-101671380D02*
X91265476Y-101671380D01*
X91265476Y-100671380D01*
X91741666Y-100671380D01*
X92741666Y-101671380D02*
X92408333Y-101195190D01*
X92170238Y-101671380D02*
X92170238Y-100671380D01*
X92551190Y-100671380D01*
X92646428Y-100719000D01*
X92694047Y-100766619D01*
X92741666Y-100861857D01*
X92741666Y-101004714D01*
X92694047Y-101099952D01*
X92646428Y-101147571D01*
X92551190Y-101195190D01*
X92170238Y-101195190D01*
X93789285Y-100671380D02*
X94360714Y-100671380D01*
X94075000Y-101671380D02*
X94075000Y-100671380D01*
X94598809Y-100671380D02*
X94836904Y-101671380D01*
X95027380Y-100957095D01*
X95217857Y-101671380D01*
X95455952Y-100671380D01*
X96027380Y-100671380D02*
X96217857Y-100671380D01*
X96313095Y-100719000D01*
X96408333Y-100814238D01*
X96455952Y-101004714D01*
X96455952Y-101338047D01*
X96408333Y-101528523D01*
X96313095Y-101623761D01*
X96217857Y-101671380D01*
X96027380Y-101671380D01*
X95932142Y-101623761D01*
X95836904Y-101528523D01*
X95789285Y-101338047D01*
X95789285Y-101004714D01*
X95836904Y-100814238D01*
X95932142Y-100719000D01*
X96027380Y-100671380D01*
X87717857Y-72715380D02*
X87717857Y-71715380D01*
X88098809Y-71715380D01*
X88194047Y-71763000D01*
X88241666Y-71810619D01*
X88289285Y-71905857D01*
X88289285Y-72048714D01*
X88241666Y-72143952D01*
X88194047Y-72191571D01*
X88098809Y-72239190D01*
X87717857Y-72239190D01*
X89194047Y-72715380D02*
X88717857Y-72715380D01*
X88717857Y-71715380D01*
X89479761Y-72429666D02*
X89955952Y-72429666D01*
X89384523Y-72715380D02*
X89717857Y-71715380D01*
X90051190Y-72715380D01*
X90575000Y-72239190D02*
X90575000Y-72715380D01*
X90241666Y-71715380D02*
X90575000Y-72239190D01*
X90908333Y-71715380D01*
X91241666Y-72191571D02*
X91575000Y-72191571D01*
X91717857Y-72715380D02*
X91241666Y-72715380D01*
X91241666Y-71715380D01*
X91717857Y-71715380D01*
X92717857Y-72715380D02*
X92384523Y-72239190D01*
X92146428Y-72715380D02*
X92146428Y-71715380D01*
X92527380Y-71715380D01*
X92622619Y-71763000D01*
X92670238Y-71810619D01*
X92717857Y-71905857D01*
X92717857Y-72048714D01*
X92670238Y-72143952D01*
X92622619Y-72191571D01*
X92527380Y-72239190D01*
X92146428Y-72239190D01*
X94098809Y-71715380D02*
X94289285Y-71715380D01*
X94384523Y-71763000D01*
X94479761Y-71858238D01*
X94527380Y-72048714D01*
X94527380Y-72382047D01*
X94479761Y-72572523D01*
X94384523Y-72667761D01*
X94289285Y-72715380D01*
X94098809Y-72715380D01*
X94003571Y-72667761D01*
X93908333Y-72572523D01*
X93860714Y-72382047D01*
X93860714Y-72048714D01*
X93908333Y-71858238D01*
X94003571Y-71763000D01*
X94098809Y-71715380D01*
X94955952Y-72715380D02*
X94955952Y-71715380D01*
X95527380Y-72715380D01*
X95527380Y-71715380D01*
X96003571Y-72191571D02*
X96336904Y-72191571D01*
X96479761Y-72715380D02*
X96003571Y-72715380D01*
X96003571Y-71715380D01*
X96479761Y-71715380D01*
D12*
X90870857Y-62825142D02*
X90870857Y-59825142D01*
X93870857Y-61968000D01*
X96870857Y-59825142D01*
X96870857Y-62825142D01*
X101156571Y-62825142D02*
X101156571Y-59825142D01*
X110585142Y-62539428D02*
X110156571Y-62682285D01*
X108870857Y-62825142D01*
X108013714Y-62825142D01*
X106728000Y-62682285D01*
X105870857Y-62396571D01*
X105442285Y-62110857D01*
X105013714Y-61539428D01*
X105013714Y-61110857D01*
X105442285Y-60539428D01*
X105870857Y-60253714D01*
X106728000Y-59968000D01*
X108013714Y-59825142D01*
X108870857Y-59825142D01*
X110156571Y-59968000D01*
X110585142Y-60110857D01*
X119585142Y-62825142D02*
X116585142Y-61396571D01*
X114442285Y-62825142D02*
X114442285Y-59825142D01*
X117870857Y-59825142D01*
X118728000Y-59968000D01*
X119156571Y-60110857D01*
X119585142Y-60396571D01*
X119585142Y-60825142D01*
X119156571Y-61110857D01*
X118728000Y-61253714D01*
X117870857Y-61396571D01*
X114442285Y-61396571D01*
X125156571Y-59825142D02*
X126870857Y-59825142D01*
X127728000Y-59968000D01*
X128585142Y-60253714D01*
X129013714Y-60825142D01*
X129013714Y-61825142D01*
X128585142Y-62396571D01*
X127728000Y-62682285D01*
X126870857Y-62825142D01*
X125156571Y-62825142D01*
X124299428Y-62682285D01*
X123442285Y-62396571D01*
X123013714Y-61825142D01*
X123013714Y-60825142D01*
X123442285Y-60253714D01*
X124299428Y-59968000D01*
X125156571Y-59825142D01*
X90743857Y-112863142D02*
X90743857Y-109863142D01*
X93743857Y-112006000D01*
X96743857Y-109863142D01*
X96743857Y-112863142D01*
X101029571Y-112863142D02*
X101029571Y-109863142D01*
X110458142Y-112577428D02*
X110029571Y-112720285D01*
X108743857Y-112863142D01*
X107886714Y-112863142D01*
X106601000Y-112720285D01*
X105743857Y-112434571D01*
X105315285Y-112148857D01*
X104886714Y-111577428D01*
X104886714Y-111148857D01*
X105315285Y-110577428D01*
X105743857Y-110291714D01*
X106601000Y-110006000D01*
X107886714Y-109863142D01*
X108743857Y-109863142D01*
X110029571Y-110006000D01*
X110458142Y-110148857D01*
X119458142Y-112863142D02*
X116458142Y-111434571D01*
X114315285Y-112863142D02*
X114315285Y-109863142D01*
X117743857Y-109863142D01*
X118601000Y-110006000D01*
X119029571Y-110148857D01*
X119458142Y-110434571D01*
X119458142Y-110863142D01*
X119029571Y-111148857D01*
X118601000Y-111291714D01*
X117743857Y-111434571D01*
X114315285Y-111434571D01*
X125029571Y-109863142D02*
X126743857Y-109863142D01*
X127601000Y-110006000D01*
X128458142Y-110291714D01*
X128886714Y-110863142D01*
X128886714Y-111863142D01*
X128458142Y-112434571D01*
X127601000Y-112720285D01*
X126743857Y-112863142D01*
X125029571Y-112863142D01*
X124172428Y-112720285D01*
X123315285Y-112434571D01*
X122886714Y-111863142D01*
X122886714Y-110863142D01*
X123315285Y-110291714D01*
X124172428Y-110006000D01*
X125029571Y-109863142D01*
D13*
X95791000Y-131889000D02*
X95791000Y-122889000D01*
X105791000Y-122889000D02*
X105791000Y-131889000D01*
X95791000Y-122889000D02*
X105791000Y-122889000D01*
X105791000Y-131889000D02*
X95791000Y-131889000D01*
D14*
X98391000Y-132889000D02*
G75*
G03X98391000Y-132889000I-100000J0D01*
G01*
D13*
X84241000Y-131889000D02*
X84241000Y-122889000D01*
X94241000Y-122889000D02*
X94241000Y-131889000D01*
X84241000Y-122889000D02*
X94241000Y-122889000D01*
X94241000Y-131889000D02*
X84241000Y-131889000D01*
D14*
X86841000Y-132889000D02*
G75*
G03X86841000Y-132889000I-100000J0D01*
G01*
D15*
X123901000Y-81661000D02*
X122951000Y-81661000D01*
X118161000Y-81661000D02*
X119111000Y-81661000D01*
X122951000Y-80741000D02*
X119111000Y-80741000D01*
X122951000Y-82581000D02*
X122951000Y-80741000D01*
X119111000Y-82581000D02*
X122951000Y-82581000D01*
X119111000Y-80741000D02*
X119111000Y-82581000D01*
X126314000Y-83947000D02*
X125364000Y-83947000D01*
X120574000Y-83947000D02*
X121524000Y-83947000D01*
X125364000Y-83027000D02*
X121524000Y-83027000D01*
X125364000Y-84867000D02*
X125364000Y-83027000D01*
X121524000Y-84867000D02*
X125364000Y-84867000D01*
X121524000Y-83027000D02*
X121524000Y-84867000D01*
X128727000Y-86233000D02*
X127777000Y-86233000D01*
X122987000Y-86233000D02*
X123937000Y-86233000D01*
X127777000Y-85313000D02*
X123937000Y-85313000D01*
X127777000Y-87153000D02*
X127777000Y-85313000D01*
X123937000Y-87153000D02*
X127777000Y-87153000D01*
X123937000Y-85313000D02*
X123937000Y-87153000D01*
D14*
X123655000Y-98224000D02*
X131615000Y-98224000D01*
X131615000Y-98224000D02*
X131615000Y-97874000D01*
X123655000Y-98224000D02*
X123655000Y-97874000D01*
X123655000Y-95324000D02*
X131615000Y-95324000D01*
X131615000Y-95674000D02*
X131615000Y-95324000D01*
X123655000Y-95674000D02*
X123655000Y-95324000D01*
X123655000Y-94160000D02*
X131615000Y-94160000D01*
X131615000Y-94160000D02*
X131615000Y-93810000D01*
X123655000Y-94160000D02*
X123655000Y-93810000D01*
X123655000Y-91260000D02*
X131615000Y-91260000D01*
X131615000Y-91610000D02*
X131615000Y-91260000D01*
X123655000Y-91610000D02*
X123655000Y-91260000D01*
D16*
X60833000Y-52197000D02*
X60833000Y-121031000D01*
X60833000Y-121031000D02*
X66167000Y-121031000D01*
X66167000Y-121031000D02*
X66167000Y-52197000D01*
X66167000Y-52197000D02*
X60833000Y-52197000D01*
X60375800Y-56134000D02*
G75*
G03X60375800Y-56134000I-254000J0D01*
G01*
D14*
X73887000Y-45386000D02*
G75*
G03X73887000Y-45386000I-100000J0D01*
G01*
D13*
X121287000Y-44386000D02*
X71287000Y-44386000D01*
X71287000Y-35386000D02*
X121287000Y-35386000D01*
X121287000Y-35386000D02*
X121287000Y-44386000D01*
X71287000Y-44386000D02*
X71287000Y-35386000D01*
D15*
X119300000Y-76771000D02*
X119300000Y-76615000D01*
X119300000Y-79087000D02*
X119300000Y-78931000D01*
X116698870Y-76771163D02*
G75*
G02X118780961Y-76771000I1041130J-1079837D01*
G01*
X116698870Y-78930837D02*
G75*
G03X118780961Y-78931000I1041130J1079837D01*
G01*
X116067665Y-76772392D02*
G75*
G02X119300000Y-76615484I1672335J-1078608D01*
G01*
X116067665Y-78929608D02*
G75*
G03X119300000Y-79086516I1672335J1078608D01*
G01*
X125200000Y-76771000D02*
X125200000Y-76615000D01*
X125200000Y-79087000D02*
X125200000Y-78931000D01*
X122598870Y-76771163D02*
G75*
G02X124680961Y-76771000I1041130J-1079837D01*
G01*
X122598870Y-78930837D02*
G75*
G03X124680961Y-78931000I1041130J1079837D01*
G01*
X121967665Y-76772392D02*
G75*
G02X125200000Y-76615484I1672335J-1078608D01*
G01*
X121967665Y-78929608D02*
G75*
G03X125200000Y-79086516I1672335J1078608D01*
G01*
X131100000Y-76771000D02*
X131100000Y-76615000D01*
X131100000Y-79087000D02*
X131100000Y-78931000D01*
X128498870Y-76771163D02*
G75*
G02X130580961Y-76771000I1041130J-1079837D01*
G01*
X128498870Y-78930837D02*
G75*
G03X130580961Y-78931000I1041130J1079837D01*
G01*
X127867665Y-76772392D02*
G75*
G02X131100000Y-76615484I1672335J-1078608D01*
G01*
X127867665Y-78929608D02*
G75*
G03X131100000Y-79086516I1672335J1078608D01*
G01*
X131454200Y-118202400D02*
X131454200Y-119532400D01*
X130124200Y-118202400D02*
X131454200Y-118202400D01*
X128854200Y-118202400D02*
X128854200Y-120862400D01*
X128854200Y-120862400D02*
X88154200Y-120862400D01*
X128854200Y-118202400D02*
X88154200Y-118202400D01*
X88154200Y-118202400D02*
X88154200Y-120862400D01*
X88154200Y-105647800D02*
X88154200Y-104317800D01*
X89484200Y-105647800D02*
X88154200Y-105647800D01*
X90754200Y-105647800D02*
X90754200Y-102987800D01*
X90754200Y-102987800D02*
X131454200Y-102987800D01*
X90754200Y-105647800D02*
X131454200Y-105647800D01*
X131454200Y-105647800D02*
X131454200Y-102987800D01*
X131454200Y-67808800D02*
X131454200Y-69138800D01*
X130124200Y-67808800D02*
X131454200Y-67808800D01*
X128854200Y-67808800D02*
X128854200Y-70468800D01*
X128854200Y-70468800D02*
X88154200Y-70468800D01*
X128854200Y-67808800D02*
X88154200Y-67808800D01*
X88154200Y-67808800D02*
X88154200Y-70468800D01*
X88154200Y-55228800D02*
X88154200Y-53898800D01*
X89484200Y-55228800D02*
X88154200Y-55228800D01*
X90754200Y-55228800D02*
X90754200Y-52568800D01*
X90754200Y-52568800D02*
X131454200Y-52568800D01*
X90754200Y-55228800D02*
X131454200Y-55228800D01*
X131454200Y-55228800D02*
X131454200Y-52568800D01*
D10*
X120864333Y-80193380D02*
X120531000Y-79717190D01*
X120292904Y-80193380D02*
X120292904Y-79193380D01*
X120673857Y-79193380D01*
X120769095Y-79241000D01*
X120816714Y-79288619D01*
X120864333Y-79383857D01*
X120864333Y-79526714D01*
X120816714Y-79621952D01*
X120769095Y-79669571D01*
X120673857Y-79717190D01*
X120292904Y-79717190D01*
X121197666Y-79193380D02*
X121816714Y-79193380D01*
X121483380Y-79574333D01*
X121626238Y-79574333D01*
X121721476Y-79621952D01*
X121769095Y-79669571D01*
X121816714Y-79764809D01*
X121816714Y-80002904D01*
X121769095Y-80098142D01*
X121721476Y-80145761D01*
X121626238Y-80193380D01*
X121340523Y-80193380D01*
X121245285Y-80145761D01*
X121197666Y-80098142D01*
X123277333Y-82479380D02*
X122944000Y-82003190D01*
X122705904Y-82479380D02*
X122705904Y-81479380D01*
X123086857Y-81479380D01*
X123182095Y-81527000D01*
X123229714Y-81574619D01*
X123277333Y-81669857D01*
X123277333Y-81812714D01*
X123229714Y-81907952D01*
X123182095Y-81955571D01*
X123086857Y-82003190D01*
X122705904Y-82003190D01*
X123658285Y-81574619D02*
X123705904Y-81527000D01*
X123801142Y-81479380D01*
X124039238Y-81479380D01*
X124134476Y-81527000D01*
X124182095Y-81574619D01*
X124229714Y-81669857D01*
X124229714Y-81765095D01*
X124182095Y-81907952D01*
X123610666Y-82479380D01*
X124229714Y-82479380D01*
X125690333Y-84765380D02*
X125357000Y-84289190D01*
X125118904Y-84765380D02*
X125118904Y-83765380D01*
X125499857Y-83765380D01*
X125595095Y-83813000D01*
X125642714Y-83860619D01*
X125690333Y-83955857D01*
X125690333Y-84098714D01*
X125642714Y-84193952D01*
X125595095Y-84241571D01*
X125499857Y-84289190D01*
X125118904Y-84289190D01*
X126642714Y-84765380D02*
X126071285Y-84765380D01*
X126357000Y-84765380D02*
X126357000Y-83765380D01*
X126261761Y-83908238D01*
X126166523Y-84003476D01*
X126071285Y-84051095D01*
M02*
