M48
; DRILL file {KiCad (5.1.2-1)-1} date Wednesday, July 15, 2020 at 02:49:14 PM
; FORMAT={-:-/ absolute / inch / decimal}
; #@! TF.CreationDate,2020-07-15T14:49:14-04:00
; #@! TF.GenerationSoftware,Kicad,Pcbnew,(5.1.2-1)-1
FMAT,2
INCH
T1C0.0157
T2C0.0276
T3C0.0354
T4C0.0394
T5C0.0400
T6C0.0512
T7C0.0138
%
G90
G05
T1
X2.86Y-3.01
X2.91Y-3.41
X2.965Y-3.3
X2.985Y-2.81
X3.015Y-3.245
X3.05Y-2.91
X3.085Y-3.13
X3.14Y-3.08
X3.165Y-3.79
X3.365Y-4.615
X3.6122Y-2.2528
X4.22Y-2.23
X4.34Y-2.34
X4.42Y-2.31
X4.5178Y-2.4672
X4.625Y-2.41
X4.7228Y-2.5528
X4.815Y-4.27
X4.82Y-2.51
X5.02Y-2.605
X4.9738Y-3.8013
X4.9994Y-3.8407
X5.025Y-3.8013
X5.0506Y-3.8407
X5.0762Y-3.8013
X4.9738Y-3.6413
X4.9994Y-3.6807
X5.025Y-3.6413
X5.0506Y-3.6807
X5.0762Y-3.6413
T2
X4.615Y-3.215
X4.915Y-3.215
X4.805Y-3.395
X5.105Y-3.395
X4.71Y-3.305
X5.01Y-3.305
T3
X4.8177Y-3.065
X4.9177Y-3.065
X4.5854Y-3.065
X4.6854Y-3.065
X5.05Y-3.065
X5.15Y-3.065
T4
X3.523Y-2.722
X3.623Y-2.722
X3.723Y-2.722
X3.823Y-2.722
X3.923Y-2.722
X4.023Y-2.722
X4.123Y-2.722
X4.223Y-2.722
X4.323Y-2.722
X4.423Y-2.722
X4.523Y-2.722
X4.623Y-2.722
X4.723Y-2.722
X4.823Y-2.722
X4.923Y-2.722
X5.023Y-2.722
X5.123Y-2.722
X3.523Y-2.122
X3.623Y-2.122
X3.723Y-2.122
X3.823Y-2.122
X3.923Y-2.122
X4.023Y-2.122
X4.123Y-2.122
X4.223Y-2.122
X4.323Y-2.122
X4.423Y-2.122
X4.523Y-2.122
X4.623Y-2.122
X4.723Y-2.122
X4.823Y-2.122
X4.923Y-2.122
X5.023Y-2.122
X5.123Y-2.122
X3.523Y-4.107
X3.623Y-4.107
X3.723Y-4.107
X3.823Y-4.107
X3.923Y-4.107
X4.023Y-4.107
X4.123Y-4.107
X4.223Y-4.107
X4.323Y-4.107
X4.423Y-4.107
X4.523Y-4.107
X4.623Y-4.107
X4.723Y-4.107
X4.823Y-4.107
X4.923Y-4.107
X5.023Y-4.107
X5.123Y-4.107
X3.523Y-4.706
X3.623Y-4.706
X3.723Y-4.706
X3.823Y-4.706
X3.923Y-4.706
X4.023Y-4.706
X4.123Y-4.706
X4.223Y-4.706
X4.323Y-4.706
X4.423Y-4.706
X4.523Y-4.706
X4.623Y-4.706
X4.723Y-4.706
X4.823Y-4.706
X4.923Y-4.706
X5.023Y-4.706
X5.123Y-4.706
T5
X2.45Y-2.21
X2.45Y-2.31
X2.45Y-2.41
X2.45Y-2.51
X2.45Y-2.61
X2.45Y-2.71
X2.45Y-2.81
X2.45Y-2.91
X2.45Y-3.01
X2.45Y-3.11
X2.45Y-3.21
X2.45Y-3.31
X2.45Y-3.41
X2.45Y-3.51
X2.45Y-3.61
X2.45Y-3.71
X2.45Y-3.81
X2.45Y-3.91
X2.45Y-4.01
X2.45Y-4.11
X2.45Y-4.21
X2.45Y-4.31
X2.45Y-4.41
X2.45Y-4.51
X2.45Y-4.61
X2.55Y-2.21
X2.55Y-2.31
X2.55Y-2.41
X2.55Y-2.51
X2.55Y-2.61
X2.55Y-2.71
X2.55Y-2.81
X2.55Y-2.91
X2.55Y-3.01
X2.55Y-3.11
X2.55Y-3.21
X2.55Y-3.31
X2.55Y-3.41
X2.55Y-3.51
X2.55Y-3.61
X2.55Y-3.71
X2.55Y-3.81
X2.55Y-3.91
X2.55Y-4.01
X2.55Y-4.11
X2.55Y-4.21
X2.55Y-4.31
X2.55Y-4.41
X2.55Y-4.51
X2.55Y-4.61
T6
X3.8697Y-5.035
X4.0666Y-5.035
X3.415Y-5.035
X3.6119Y-5.035
X2.905Y-1.59
X3.1019Y-1.59
X3.2987Y-1.59
X3.4956Y-1.59
X3.6924Y-1.59
X3.8893Y-1.59
X4.0861Y-1.59
X4.283Y-1.59
X4.4798Y-1.59
X4.6767Y-1.59
T7
X4.8843Y-3.81
X5.1657Y-3.81
X4.8843Y-3.65
X5.1657Y-3.65
T0
M30
