G04 #@! TF.GenerationSoftware,KiCad,Pcbnew,(5.1.2-1)-1*
G04 #@! TF.CreationDate,2020-07-15T14:49:12-04:00*
G04 #@! TF.ProjectId,ArcadeMain,41726361-6465-44d6-9169-6e2e6b696361,rev?*
G04 #@! TF.SameCoordinates,Original*
G04 #@! TF.FileFunction,Soldermask,Bot*
G04 #@! TF.FilePolarity,Negative*
%FSLAX46Y46*%
G04 Gerber Fmt 4.6, Leading zero omitted, Abs format (unit mm)*
G04 Created by KiCad (PCBNEW (5.1.2-1)-1) date 2020-07-15 14:49:12*
%MOMM*%
%LPD*%
G04 APERTURE LIST*
%ADD10C,0.010000*%
%ADD11C,0.100000*%
G04 APERTURE END LIST*
D10*
G36*
X123530350Y-95749000D02*
G01*
X124585000Y-95749000D01*
X124585000Y-97800160D01*
X123530350Y-97800160D01*
X123530350Y-95749000D01*
G37*
X123530350Y-95749000D02*
X124585000Y-95749000D01*
X124585000Y-97800160D01*
X123530350Y-97800160D01*
X123530350Y-95749000D01*
G36*
X130689330Y-95749000D02*
G01*
X131735000Y-95749000D01*
X131735000Y-97800450D01*
X130689330Y-97800450D01*
X130689330Y-95749000D01*
G37*
X130689330Y-95749000D02*
X131735000Y-95749000D01*
X131735000Y-97800450D01*
X130689330Y-97800450D01*
X130689330Y-95749000D01*
G36*
X123530350Y-91685000D02*
G01*
X124585000Y-91685000D01*
X124585000Y-93736160D01*
X123530350Y-93736160D01*
X123530350Y-91685000D01*
G37*
X123530350Y-91685000D02*
X124585000Y-91685000D01*
X124585000Y-93736160D01*
X123530350Y-93736160D01*
X123530350Y-91685000D01*
G36*
X130689330Y-91685000D02*
G01*
X131735000Y-91685000D01*
X131735000Y-93736450D01*
X130689330Y-93736450D01*
X130689330Y-91685000D01*
G37*
X130689330Y-91685000D02*
X131735000Y-91685000D01*
X131735000Y-93736450D01*
X130689330Y-93736450D01*
X130689330Y-91685000D01*
D11*
G36*
X103590272Y-126902428D02*
G01*
X103776991Y-126979770D01*
X103776993Y-126979771D01*
X103945037Y-127092054D01*
X104087946Y-127234963D01*
X104200229Y-127403007D01*
X104200230Y-127403009D01*
X104277572Y-127589728D01*
X104317000Y-127787947D01*
X104317000Y-127990053D01*
X104277572Y-128188272D01*
X104200230Y-128374991D01*
X104200229Y-128374993D01*
X104087946Y-128543037D01*
X103945037Y-128685946D01*
X103776993Y-128798229D01*
X103776992Y-128798230D01*
X103776991Y-128798230D01*
X103590272Y-128875572D01*
X103392053Y-128915000D01*
X103189947Y-128915000D01*
X102991728Y-128875572D01*
X102805009Y-128798230D01*
X102805008Y-128798230D01*
X102805007Y-128798229D01*
X102636963Y-128685946D01*
X102494054Y-128543037D01*
X102381771Y-128374993D01*
X102381770Y-128374991D01*
X102304428Y-128188272D01*
X102265000Y-127990053D01*
X102265000Y-127787947D01*
X102304428Y-127589728D01*
X102381770Y-127403009D01*
X102381771Y-127403007D01*
X102494054Y-127234963D01*
X102636963Y-127092054D01*
X102805007Y-126979771D01*
X102805009Y-126979770D01*
X102991728Y-126902428D01*
X103189947Y-126863000D01*
X103392053Y-126863000D01*
X103590272Y-126902428D01*
X103590272Y-126902428D01*
G37*
G36*
X99317000Y-128915000D02*
G01*
X97265000Y-128915000D01*
X97265000Y-126863000D01*
X99317000Y-126863000D01*
X99317000Y-128915000D01*
X99317000Y-128915000D01*
G37*
G36*
X92040272Y-126902428D02*
G01*
X92226991Y-126979770D01*
X92226993Y-126979771D01*
X92395037Y-127092054D01*
X92537946Y-127234963D01*
X92650229Y-127403007D01*
X92650230Y-127403009D01*
X92727572Y-127589728D01*
X92767000Y-127787947D01*
X92767000Y-127990053D01*
X92727572Y-128188272D01*
X92650230Y-128374991D01*
X92650229Y-128374993D01*
X92537946Y-128543037D01*
X92395037Y-128685946D01*
X92226993Y-128798229D01*
X92226992Y-128798230D01*
X92226991Y-128798230D01*
X92040272Y-128875572D01*
X91842053Y-128915000D01*
X91639947Y-128915000D01*
X91441728Y-128875572D01*
X91255009Y-128798230D01*
X91255008Y-128798230D01*
X91255007Y-128798229D01*
X91086963Y-128685946D01*
X90944054Y-128543037D01*
X90831771Y-128374993D01*
X90831770Y-128374991D01*
X90754428Y-128188272D01*
X90715000Y-127990053D01*
X90715000Y-127787947D01*
X90754428Y-127589728D01*
X90831770Y-127403009D01*
X90831771Y-127403007D01*
X90944054Y-127234963D01*
X91086963Y-127092054D01*
X91255007Y-126979771D01*
X91255009Y-126979770D01*
X91441728Y-126902428D01*
X91639947Y-126863000D01*
X91842053Y-126863000D01*
X92040272Y-126902428D01*
X92040272Y-126902428D01*
G37*
G36*
X87767000Y-128915000D02*
G01*
X85715000Y-128915000D01*
X85715000Y-126863000D01*
X87767000Y-126863000D01*
X87767000Y-128915000D01*
X87767000Y-128915000D01*
G37*
G36*
X120074643Y-118637919D02*
G01*
X120140827Y-118644437D01*
X120310666Y-118695957D01*
X120467191Y-118779622D01*
X120502929Y-118808952D01*
X120604386Y-118892214D01*
X120687648Y-118993671D01*
X120716978Y-119029409D01*
X120800643Y-119185934D01*
X120852163Y-119355773D01*
X120869559Y-119532400D01*
X120852163Y-119709027D01*
X120800643Y-119878866D01*
X120716978Y-120035391D01*
X120687648Y-120071129D01*
X120604386Y-120172586D01*
X120502929Y-120255848D01*
X120467191Y-120285178D01*
X120310666Y-120368843D01*
X120140827Y-120420363D01*
X120074643Y-120426881D01*
X120008460Y-120433400D01*
X119919940Y-120433400D01*
X119853757Y-120426881D01*
X119787573Y-120420363D01*
X119617734Y-120368843D01*
X119461209Y-120285178D01*
X119425471Y-120255848D01*
X119324014Y-120172586D01*
X119240752Y-120071129D01*
X119211422Y-120035391D01*
X119127757Y-119878866D01*
X119076237Y-119709027D01*
X119058841Y-119532400D01*
X119076237Y-119355773D01*
X119127757Y-119185934D01*
X119211422Y-119029409D01*
X119240752Y-118993671D01*
X119324014Y-118892214D01*
X119425471Y-118808952D01*
X119461209Y-118779622D01*
X119617734Y-118695957D01*
X119787573Y-118644437D01*
X119853757Y-118637919D01*
X119919940Y-118631400D01*
X120008460Y-118631400D01*
X120074643Y-118637919D01*
X120074643Y-118637919D01*
G37*
G36*
X117534643Y-118637919D02*
G01*
X117600827Y-118644437D01*
X117770666Y-118695957D01*
X117927191Y-118779622D01*
X117962929Y-118808952D01*
X118064386Y-118892214D01*
X118147648Y-118993671D01*
X118176978Y-119029409D01*
X118260643Y-119185934D01*
X118312163Y-119355773D01*
X118329559Y-119532400D01*
X118312163Y-119709027D01*
X118260643Y-119878866D01*
X118176978Y-120035391D01*
X118147648Y-120071129D01*
X118064386Y-120172586D01*
X117962929Y-120255848D01*
X117927191Y-120285178D01*
X117770666Y-120368843D01*
X117600827Y-120420363D01*
X117534643Y-120426881D01*
X117468460Y-120433400D01*
X117379940Y-120433400D01*
X117313757Y-120426881D01*
X117247573Y-120420363D01*
X117077734Y-120368843D01*
X116921209Y-120285178D01*
X116885471Y-120255848D01*
X116784014Y-120172586D01*
X116700752Y-120071129D01*
X116671422Y-120035391D01*
X116587757Y-119878866D01*
X116536237Y-119709027D01*
X116518841Y-119532400D01*
X116536237Y-119355773D01*
X116587757Y-119185934D01*
X116671422Y-119029409D01*
X116700752Y-118993671D01*
X116784014Y-118892214D01*
X116885471Y-118808952D01*
X116921209Y-118779622D01*
X117077734Y-118695957D01*
X117247573Y-118644437D01*
X117313757Y-118637919D01*
X117379940Y-118631400D01*
X117468460Y-118631400D01*
X117534643Y-118637919D01*
X117534643Y-118637919D01*
G37*
G36*
X114994643Y-118637919D02*
G01*
X115060827Y-118644437D01*
X115230666Y-118695957D01*
X115387191Y-118779622D01*
X115422929Y-118808952D01*
X115524386Y-118892214D01*
X115607648Y-118993671D01*
X115636978Y-119029409D01*
X115720643Y-119185934D01*
X115772163Y-119355773D01*
X115789559Y-119532400D01*
X115772163Y-119709027D01*
X115720643Y-119878866D01*
X115636978Y-120035391D01*
X115607648Y-120071129D01*
X115524386Y-120172586D01*
X115422929Y-120255848D01*
X115387191Y-120285178D01*
X115230666Y-120368843D01*
X115060827Y-120420363D01*
X114994643Y-120426881D01*
X114928460Y-120433400D01*
X114839940Y-120433400D01*
X114773757Y-120426881D01*
X114707573Y-120420363D01*
X114537734Y-120368843D01*
X114381209Y-120285178D01*
X114345471Y-120255848D01*
X114244014Y-120172586D01*
X114160752Y-120071129D01*
X114131422Y-120035391D01*
X114047757Y-119878866D01*
X113996237Y-119709027D01*
X113978841Y-119532400D01*
X113996237Y-119355773D01*
X114047757Y-119185934D01*
X114131422Y-119029409D01*
X114160752Y-118993671D01*
X114244014Y-118892214D01*
X114345471Y-118808952D01*
X114381209Y-118779622D01*
X114537734Y-118695957D01*
X114707573Y-118644437D01*
X114773757Y-118637919D01*
X114839940Y-118631400D01*
X114928460Y-118631400D01*
X114994643Y-118637919D01*
X114994643Y-118637919D01*
G37*
G36*
X112454643Y-118637919D02*
G01*
X112520827Y-118644437D01*
X112690666Y-118695957D01*
X112847191Y-118779622D01*
X112882929Y-118808952D01*
X112984386Y-118892214D01*
X113067648Y-118993671D01*
X113096978Y-119029409D01*
X113180643Y-119185934D01*
X113232163Y-119355773D01*
X113249559Y-119532400D01*
X113232163Y-119709027D01*
X113180643Y-119878866D01*
X113096978Y-120035391D01*
X113067648Y-120071129D01*
X112984386Y-120172586D01*
X112882929Y-120255848D01*
X112847191Y-120285178D01*
X112690666Y-120368843D01*
X112520827Y-120420363D01*
X112454643Y-120426881D01*
X112388460Y-120433400D01*
X112299940Y-120433400D01*
X112233757Y-120426881D01*
X112167573Y-120420363D01*
X111997734Y-120368843D01*
X111841209Y-120285178D01*
X111805471Y-120255848D01*
X111704014Y-120172586D01*
X111620752Y-120071129D01*
X111591422Y-120035391D01*
X111507757Y-119878866D01*
X111456237Y-119709027D01*
X111438841Y-119532400D01*
X111456237Y-119355773D01*
X111507757Y-119185934D01*
X111591422Y-119029409D01*
X111620752Y-118993671D01*
X111704014Y-118892214D01*
X111805471Y-118808952D01*
X111841209Y-118779622D01*
X111997734Y-118695957D01*
X112167573Y-118644437D01*
X112233757Y-118637919D01*
X112299940Y-118631400D01*
X112388460Y-118631400D01*
X112454643Y-118637919D01*
X112454643Y-118637919D01*
G37*
G36*
X109914643Y-118637919D02*
G01*
X109980827Y-118644437D01*
X110150666Y-118695957D01*
X110307191Y-118779622D01*
X110342929Y-118808952D01*
X110444386Y-118892214D01*
X110527648Y-118993671D01*
X110556978Y-119029409D01*
X110640643Y-119185934D01*
X110692163Y-119355773D01*
X110709559Y-119532400D01*
X110692163Y-119709027D01*
X110640643Y-119878866D01*
X110556978Y-120035391D01*
X110527648Y-120071129D01*
X110444386Y-120172586D01*
X110342929Y-120255848D01*
X110307191Y-120285178D01*
X110150666Y-120368843D01*
X109980827Y-120420363D01*
X109914643Y-120426881D01*
X109848460Y-120433400D01*
X109759940Y-120433400D01*
X109693757Y-120426881D01*
X109627573Y-120420363D01*
X109457734Y-120368843D01*
X109301209Y-120285178D01*
X109265471Y-120255848D01*
X109164014Y-120172586D01*
X109080752Y-120071129D01*
X109051422Y-120035391D01*
X108967757Y-119878866D01*
X108916237Y-119709027D01*
X108898841Y-119532400D01*
X108916237Y-119355773D01*
X108967757Y-119185934D01*
X109051422Y-119029409D01*
X109080752Y-118993671D01*
X109164014Y-118892214D01*
X109265471Y-118808952D01*
X109301209Y-118779622D01*
X109457734Y-118695957D01*
X109627573Y-118644437D01*
X109693757Y-118637919D01*
X109759940Y-118631400D01*
X109848460Y-118631400D01*
X109914643Y-118637919D01*
X109914643Y-118637919D01*
G37*
G36*
X107374643Y-118637919D02*
G01*
X107440827Y-118644437D01*
X107610666Y-118695957D01*
X107767191Y-118779622D01*
X107802929Y-118808952D01*
X107904386Y-118892214D01*
X107987648Y-118993671D01*
X108016978Y-119029409D01*
X108100643Y-119185934D01*
X108152163Y-119355773D01*
X108169559Y-119532400D01*
X108152163Y-119709027D01*
X108100643Y-119878866D01*
X108016978Y-120035391D01*
X107987648Y-120071129D01*
X107904386Y-120172586D01*
X107802929Y-120255848D01*
X107767191Y-120285178D01*
X107610666Y-120368843D01*
X107440827Y-120420363D01*
X107374643Y-120426881D01*
X107308460Y-120433400D01*
X107219940Y-120433400D01*
X107153757Y-120426881D01*
X107087573Y-120420363D01*
X106917734Y-120368843D01*
X106761209Y-120285178D01*
X106725471Y-120255848D01*
X106624014Y-120172586D01*
X106540752Y-120071129D01*
X106511422Y-120035391D01*
X106427757Y-119878866D01*
X106376237Y-119709027D01*
X106358841Y-119532400D01*
X106376237Y-119355773D01*
X106427757Y-119185934D01*
X106511422Y-119029409D01*
X106540752Y-118993671D01*
X106624014Y-118892214D01*
X106725471Y-118808952D01*
X106761209Y-118779622D01*
X106917734Y-118695957D01*
X107087573Y-118644437D01*
X107153757Y-118637919D01*
X107219940Y-118631400D01*
X107308460Y-118631400D01*
X107374643Y-118637919D01*
X107374643Y-118637919D01*
G37*
G36*
X104834643Y-118637919D02*
G01*
X104900827Y-118644437D01*
X105070666Y-118695957D01*
X105227191Y-118779622D01*
X105262929Y-118808952D01*
X105364386Y-118892214D01*
X105447648Y-118993671D01*
X105476978Y-119029409D01*
X105560643Y-119185934D01*
X105612163Y-119355773D01*
X105629559Y-119532400D01*
X105612163Y-119709027D01*
X105560643Y-119878866D01*
X105476978Y-120035391D01*
X105447648Y-120071129D01*
X105364386Y-120172586D01*
X105262929Y-120255848D01*
X105227191Y-120285178D01*
X105070666Y-120368843D01*
X104900827Y-120420363D01*
X104834643Y-120426881D01*
X104768460Y-120433400D01*
X104679940Y-120433400D01*
X104613757Y-120426881D01*
X104547573Y-120420363D01*
X104377734Y-120368843D01*
X104221209Y-120285178D01*
X104185471Y-120255848D01*
X104084014Y-120172586D01*
X104000752Y-120071129D01*
X103971422Y-120035391D01*
X103887757Y-119878866D01*
X103836237Y-119709027D01*
X103818841Y-119532400D01*
X103836237Y-119355773D01*
X103887757Y-119185934D01*
X103971422Y-119029409D01*
X104000752Y-118993671D01*
X104084014Y-118892214D01*
X104185471Y-118808952D01*
X104221209Y-118779622D01*
X104377734Y-118695957D01*
X104547573Y-118644437D01*
X104613757Y-118637919D01*
X104679940Y-118631400D01*
X104768460Y-118631400D01*
X104834643Y-118637919D01*
X104834643Y-118637919D01*
G37*
G36*
X102294643Y-118637919D02*
G01*
X102360827Y-118644437D01*
X102530666Y-118695957D01*
X102687191Y-118779622D01*
X102722929Y-118808952D01*
X102824386Y-118892214D01*
X102907648Y-118993671D01*
X102936978Y-119029409D01*
X103020643Y-119185934D01*
X103072163Y-119355773D01*
X103089559Y-119532400D01*
X103072163Y-119709027D01*
X103020643Y-119878866D01*
X102936978Y-120035391D01*
X102907648Y-120071129D01*
X102824386Y-120172586D01*
X102722929Y-120255848D01*
X102687191Y-120285178D01*
X102530666Y-120368843D01*
X102360827Y-120420363D01*
X102294643Y-120426881D01*
X102228460Y-120433400D01*
X102139940Y-120433400D01*
X102073757Y-120426881D01*
X102007573Y-120420363D01*
X101837734Y-120368843D01*
X101681209Y-120285178D01*
X101645471Y-120255848D01*
X101544014Y-120172586D01*
X101460752Y-120071129D01*
X101431422Y-120035391D01*
X101347757Y-119878866D01*
X101296237Y-119709027D01*
X101278841Y-119532400D01*
X101296237Y-119355773D01*
X101347757Y-119185934D01*
X101431422Y-119029409D01*
X101460752Y-118993671D01*
X101544014Y-118892214D01*
X101645471Y-118808952D01*
X101681209Y-118779622D01*
X101837734Y-118695957D01*
X102007573Y-118644437D01*
X102073757Y-118637919D01*
X102139940Y-118631400D01*
X102228460Y-118631400D01*
X102294643Y-118637919D01*
X102294643Y-118637919D01*
G37*
G36*
X99754643Y-118637919D02*
G01*
X99820827Y-118644437D01*
X99990666Y-118695957D01*
X100147191Y-118779622D01*
X100182929Y-118808952D01*
X100284386Y-118892214D01*
X100367648Y-118993671D01*
X100396978Y-119029409D01*
X100480643Y-119185934D01*
X100532163Y-119355773D01*
X100549559Y-119532400D01*
X100532163Y-119709027D01*
X100480643Y-119878866D01*
X100396978Y-120035391D01*
X100367648Y-120071129D01*
X100284386Y-120172586D01*
X100182929Y-120255848D01*
X100147191Y-120285178D01*
X99990666Y-120368843D01*
X99820827Y-120420363D01*
X99754643Y-120426881D01*
X99688460Y-120433400D01*
X99599940Y-120433400D01*
X99533757Y-120426881D01*
X99467573Y-120420363D01*
X99297734Y-120368843D01*
X99141209Y-120285178D01*
X99105471Y-120255848D01*
X99004014Y-120172586D01*
X98920752Y-120071129D01*
X98891422Y-120035391D01*
X98807757Y-119878866D01*
X98756237Y-119709027D01*
X98738841Y-119532400D01*
X98756237Y-119355773D01*
X98807757Y-119185934D01*
X98891422Y-119029409D01*
X98920752Y-118993671D01*
X99004014Y-118892214D01*
X99105471Y-118808952D01*
X99141209Y-118779622D01*
X99297734Y-118695957D01*
X99467573Y-118644437D01*
X99533757Y-118637919D01*
X99599940Y-118631400D01*
X99688460Y-118631400D01*
X99754643Y-118637919D01*
X99754643Y-118637919D01*
G37*
G36*
X97214643Y-118637919D02*
G01*
X97280827Y-118644437D01*
X97450666Y-118695957D01*
X97607191Y-118779622D01*
X97642929Y-118808952D01*
X97744386Y-118892214D01*
X97827648Y-118993671D01*
X97856978Y-119029409D01*
X97940643Y-119185934D01*
X97992163Y-119355773D01*
X98009559Y-119532400D01*
X97992163Y-119709027D01*
X97940643Y-119878866D01*
X97856978Y-120035391D01*
X97827648Y-120071129D01*
X97744386Y-120172586D01*
X97642929Y-120255848D01*
X97607191Y-120285178D01*
X97450666Y-120368843D01*
X97280827Y-120420363D01*
X97214643Y-120426881D01*
X97148460Y-120433400D01*
X97059940Y-120433400D01*
X96993757Y-120426881D01*
X96927573Y-120420363D01*
X96757734Y-120368843D01*
X96601209Y-120285178D01*
X96565471Y-120255848D01*
X96464014Y-120172586D01*
X96380752Y-120071129D01*
X96351422Y-120035391D01*
X96267757Y-119878866D01*
X96216237Y-119709027D01*
X96198841Y-119532400D01*
X96216237Y-119355773D01*
X96267757Y-119185934D01*
X96351422Y-119029409D01*
X96380752Y-118993671D01*
X96464014Y-118892214D01*
X96565471Y-118808952D01*
X96601209Y-118779622D01*
X96757734Y-118695957D01*
X96927573Y-118644437D01*
X96993757Y-118637919D01*
X97059940Y-118631400D01*
X97148460Y-118631400D01*
X97214643Y-118637919D01*
X97214643Y-118637919D01*
G37*
G36*
X94674643Y-118637919D02*
G01*
X94740827Y-118644437D01*
X94910666Y-118695957D01*
X95067191Y-118779622D01*
X95102929Y-118808952D01*
X95204386Y-118892214D01*
X95287648Y-118993671D01*
X95316978Y-119029409D01*
X95400643Y-119185934D01*
X95452163Y-119355773D01*
X95469559Y-119532400D01*
X95452163Y-119709027D01*
X95400643Y-119878866D01*
X95316978Y-120035391D01*
X95287648Y-120071129D01*
X95204386Y-120172586D01*
X95102929Y-120255848D01*
X95067191Y-120285178D01*
X94910666Y-120368843D01*
X94740827Y-120420363D01*
X94674643Y-120426881D01*
X94608460Y-120433400D01*
X94519940Y-120433400D01*
X94453757Y-120426881D01*
X94387573Y-120420363D01*
X94217734Y-120368843D01*
X94061209Y-120285178D01*
X94025471Y-120255848D01*
X93924014Y-120172586D01*
X93840752Y-120071129D01*
X93811422Y-120035391D01*
X93727757Y-119878866D01*
X93676237Y-119709027D01*
X93658841Y-119532400D01*
X93676237Y-119355773D01*
X93727757Y-119185934D01*
X93811422Y-119029409D01*
X93840752Y-118993671D01*
X93924014Y-118892214D01*
X94025471Y-118808952D01*
X94061209Y-118779622D01*
X94217734Y-118695957D01*
X94387573Y-118644437D01*
X94453757Y-118637919D01*
X94519940Y-118631400D01*
X94608460Y-118631400D01*
X94674643Y-118637919D01*
X94674643Y-118637919D01*
G37*
G36*
X92134643Y-118637919D02*
G01*
X92200827Y-118644437D01*
X92370666Y-118695957D01*
X92527191Y-118779622D01*
X92562929Y-118808952D01*
X92664386Y-118892214D01*
X92747648Y-118993671D01*
X92776978Y-119029409D01*
X92860643Y-119185934D01*
X92912163Y-119355773D01*
X92929559Y-119532400D01*
X92912163Y-119709027D01*
X92860643Y-119878866D01*
X92776978Y-120035391D01*
X92747648Y-120071129D01*
X92664386Y-120172586D01*
X92562929Y-120255848D01*
X92527191Y-120285178D01*
X92370666Y-120368843D01*
X92200827Y-120420363D01*
X92134643Y-120426881D01*
X92068460Y-120433400D01*
X91979940Y-120433400D01*
X91913757Y-120426881D01*
X91847573Y-120420363D01*
X91677734Y-120368843D01*
X91521209Y-120285178D01*
X91485471Y-120255848D01*
X91384014Y-120172586D01*
X91300752Y-120071129D01*
X91271422Y-120035391D01*
X91187757Y-119878866D01*
X91136237Y-119709027D01*
X91118841Y-119532400D01*
X91136237Y-119355773D01*
X91187757Y-119185934D01*
X91271422Y-119029409D01*
X91300752Y-118993671D01*
X91384014Y-118892214D01*
X91485471Y-118808952D01*
X91521209Y-118779622D01*
X91677734Y-118695957D01*
X91847573Y-118644437D01*
X91913757Y-118637919D01*
X91979940Y-118631400D01*
X92068460Y-118631400D01*
X92134643Y-118637919D01*
X92134643Y-118637919D01*
G37*
G36*
X89594643Y-118637919D02*
G01*
X89660827Y-118644437D01*
X89830666Y-118695957D01*
X89987191Y-118779622D01*
X90022929Y-118808952D01*
X90124386Y-118892214D01*
X90207648Y-118993671D01*
X90236978Y-119029409D01*
X90320643Y-119185934D01*
X90372163Y-119355773D01*
X90389559Y-119532400D01*
X90372163Y-119709027D01*
X90320643Y-119878866D01*
X90236978Y-120035391D01*
X90207648Y-120071129D01*
X90124386Y-120172586D01*
X90022929Y-120255848D01*
X89987191Y-120285178D01*
X89830666Y-120368843D01*
X89660827Y-120420363D01*
X89594643Y-120426881D01*
X89528460Y-120433400D01*
X89439940Y-120433400D01*
X89373757Y-120426881D01*
X89307573Y-120420363D01*
X89137734Y-120368843D01*
X88981209Y-120285178D01*
X88945471Y-120255848D01*
X88844014Y-120172586D01*
X88760752Y-120071129D01*
X88731422Y-120035391D01*
X88647757Y-119878866D01*
X88596237Y-119709027D01*
X88578841Y-119532400D01*
X88596237Y-119355773D01*
X88647757Y-119185934D01*
X88731422Y-119029409D01*
X88760752Y-118993671D01*
X88844014Y-118892214D01*
X88945471Y-118808952D01*
X88981209Y-118779622D01*
X89137734Y-118695957D01*
X89307573Y-118644437D01*
X89373757Y-118637919D01*
X89439940Y-118631400D01*
X89528460Y-118631400D01*
X89594643Y-118637919D01*
X89594643Y-118637919D01*
G37*
G36*
X131025200Y-120433400D02*
G01*
X129223200Y-120433400D01*
X129223200Y-118631400D01*
X131025200Y-118631400D01*
X131025200Y-120433400D01*
X131025200Y-120433400D01*
G37*
G36*
X127694643Y-118637919D02*
G01*
X127760827Y-118644437D01*
X127930666Y-118695957D01*
X128087191Y-118779622D01*
X128122929Y-118808952D01*
X128224386Y-118892214D01*
X128307648Y-118993671D01*
X128336978Y-119029409D01*
X128420643Y-119185934D01*
X128472163Y-119355773D01*
X128489559Y-119532400D01*
X128472163Y-119709027D01*
X128420643Y-119878866D01*
X128336978Y-120035391D01*
X128307648Y-120071129D01*
X128224386Y-120172586D01*
X128122929Y-120255848D01*
X128087191Y-120285178D01*
X127930666Y-120368843D01*
X127760827Y-120420363D01*
X127694643Y-120426881D01*
X127628460Y-120433400D01*
X127539940Y-120433400D01*
X127473757Y-120426881D01*
X127407573Y-120420363D01*
X127237734Y-120368843D01*
X127081209Y-120285178D01*
X127045471Y-120255848D01*
X126944014Y-120172586D01*
X126860752Y-120071129D01*
X126831422Y-120035391D01*
X126747757Y-119878866D01*
X126696237Y-119709027D01*
X126678841Y-119532400D01*
X126696237Y-119355773D01*
X126747757Y-119185934D01*
X126831422Y-119029409D01*
X126860752Y-118993671D01*
X126944014Y-118892214D01*
X127045471Y-118808952D01*
X127081209Y-118779622D01*
X127237734Y-118695957D01*
X127407573Y-118644437D01*
X127473757Y-118637919D01*
X127539940Y-118631400D01*
X127628460Y-118631400D01*
X127694643Y-118637919D01*
X127694643Y-118637919D01*
G37*
G36*
X125154643Y-118637919D02*
G01*
X125220827Y-118644437D01*
X125390666Y-118695957D01*
X125547191Y-118779622D01*
X125582929Y-118808952D01*
X125684386Y-118892214D01*
X125767648Y-118993671D01*
X125796978Y-119029409D01*
X125880643Y-119185934D01*
X125932163Y-119355773D01*
X125949559Y-119532400D01*
X125932163Y-119709027D01*
X125880643Y-119878866D01*
X125796978Y-120035391D01*
X125767648Y-120071129D01*
X125684386Y-120172586D01*
X125582929Y-120255848D01*
X125547191Y-120285178D01*
X125390666Y-120368843D01*
X125220827Y-120420363D01*
X125154643Y-120426881D01*
X125088460Y-120433400D01*
X124999940Y-120433400D01*
X124933757Y-120426881D01*
X124867573Y-120420363D01*
X124697734Y-120368843D01*
X124541209Y-120285178D01*
X124505471Y-120255848D01*
X124404014Y-120172586D01*
X124320752Y-120071129D01*
X124291422Y-120035391D01*
X124207757Y-119878866D01*
X124156237Y-119709027D01*
X124138841Y-119532400D01*
X124156237Y-119355773D01*
X124207757Y-119185934D01*
X124291422Y-119029409D01*
X124320752Y-118993671D01*
X124404014Y-118892214D01*
X124505471Y-118808952D01*
X124541209Y-118779622D01*
X124697734Y-118695957D01*
X124867573Y-118644437D01*
X124933757Y-118637919D01*
X124999940Y-118631400D01*
X125088460Y-118631400D01*
X125154643Y-118637919D01*
X125154643Y-118637919D01*
G37*
G36*
X122614643Y-118637919D02*
G01*
X122680827Y-118644437D01*
X122850666Y-118695957D01*
X123007191Y-118779622D01*
X123042929Y-118808952D01*
X123144386Y-118892214D01*
X123227648Y-118993671D01*
X123256978Y-119029409D01*
X123340643Y-119185934D01*
X123392163Y-119355773D01*
X123409559Y-119532400D01*
X123392163Y-119709027D01*
X123340643Y-119878866D01*
X123256978Y-120035391D01*
X123227648Y-120071129D01*
X123144386Y-120172586D01*
X123042929Y-120255848D01*
X123007191Y-120285178D01*
X122850666Y-120368843D01*
X122680827Y-120420363D01*
X122614643Y-120426881D01*
X122548460Y-120433400D01*
X122459940Y-120433400D01*
X122393757Y-120426881D01*
X122327573Y-120420363D01*
X122157734Y-120368843D01*
X122001209Y-120285178D01*
X121965471Y-120255848D01*
X121864014Y-120172586D01*
X121780752Y-120071129D01*
X121751422Y-120035391D01*
X121667757Y-119878866D01*
X121616237Y-119709027D01*
X121598841Y-119532400D01*
X121616237Y-119355773D01*
X121667757Y-119185934D01*
X121751422Y-119029409D01*
X121780752Y-118993671D01*
X121864014Y-118892214D01*
X121965471Y-118808952D01*
X122001209Y-118779622D01*
X122157734Y-118695957D01*
X122327573Y-118644437D01*
X122393757Y-118637919D01*
X122459940Y-118631400D01*
X122548460Y-118631400D01*
X122614643Y-118637919D01*
X122614643Y-118637919D01*
G37*
G36*
X65007142Y-116312242D02*
G01*
X65155101Y-116373529D01*
X65288255Y-116462499D01*
X65401501Y-116575745D01*
X65490471Y-116708899D01*
X65551758Y-116856858D01*
X65583000Y-117013925D01*
X65583000Y-117174075D01*
X65551758Y-117331142D01*
X65490471Y-117479101D01*
X65401501Y-117612255D01*
X65288255Y-117725501D01*
X65155101Y-117814471D01*
X65007142Y-117875758D01*
X64850075Y-117907000D01*
X64689925Y-117907000D01*
X64532858Y-117875758D01*
X64384899Y-117814471D01*
X64251745Y-117725501D01*
X64138499Y-117612255D01*
X64049529Y-117479101D01*
X63988242Y-117331142D01*
X63957000Y-117174075D01*
X63957000Y-117013925D01*
X63988242Y-116856858D01*
X64049529Y-116708899D01*
X64138499Y-116575745D01*
X64251745Y-116462499D01*
X64384899Y-116373529D01*
X64532858Y-116312242D01*
X64689925Y-116281000D01*
X64850075Y-116281000D01*
X65007142Y-116312242D01*
X65007142Y-116312242D01*
G37*
G36*
X62467142Y-116312242D02*
G01*
X62615101Y-116373529D01*
X62748255Y-116462499D01*
X62861501Y-116575745D01*
X62950471Y-116708899D01*
X63011758Y-116856858D01*
X63043000Y-117013925D01*
X63043000Y-117174075D01*
X63011758Y-117331142D01*
X62950471Y-117479101D01*
X62861501Y-117612255D01*
X62748255Y-117725501D01*
X62615101Y-117814471D01*
X62467142Y-117875758D01*
X62310075Y-117907000D01*
X62149925Y-117907000D01*
X61992858Y-117875758D01*
X61844899Y-117814471D01*
X61711745Y-117725501D01*
X61598499Y-117612255D01*
X61509529Y-117479101D01*
X61448242Y-117331142D01*
X61417000Y-117174075D01*
X61417000Y-117013925D01*
X61448242Y-116856858D01*
X61509529Y-116708899D01*
X61598499Y-116575745D01*
X61711745Y-116462499D01*
X61844899Y-116373529D01*
X61992858Y-116312242D01*
X62149925Y-116281000D01*
X62310075Y-116281000D01*
X62467142Y-116312242D01*
X62467142Y-116312242D01*
G37*
G36*
X65007142Y-113772242D02*
G01*
X65155101Y-113833529D01*
X65288255Y-113922499D01*
X65401501Y-114035745D01*
X65490471Y-114168899D01*
X65551758Y-114316858D01*
X65583000Y-114473925D01*
X65583000Y-114634075D01*
X65551758Y-114791142D01*
X65490471Y-114939101D01*
X65401501Y-115072255D01*
X65288255Y-115185501D01*
X65155101Y-115274471D01*
X65007142Y-115335758D01*
X64850075Y-115367000D01*
X64689925Y-115367000D01*
X64532858Y-115335758D01*
X64384899Y-115274471D01*
X64251745Y-115185501D01*
X64138499Y-115072255D01*
X64049529Y-114939101D01*
X63988242Y-114791142D01*
X63957000Y-114634075D01*
X63957000Y-114473925D01*
X63988242Y-114316858D01*
X64049529Y-114168899D01*
X64138499Y-114035745D01*
X64251745Y-113922499D01*
X64384899Y-113833529D01*
X64532858Y-113772242D01*
X64689925Y-113741000D01*
X64850075Y-113741000D01*
X65007142Y-113772242D01*
X65007142Y-113772242D01*
G37*
G36*
X62467142Y-113772242D02*
G01*
X62615101Y-113833529D01*
X62748255Y-113922499D01*
X62861501Y-114035745D01*
X62950471Y-114168899D01*
X63011758Y-114316858D01*
X63043000Y-114473925D01*
X63043000Y-114634075D01*
X63011758Y-114791142D01*
X62950471Y-114939101D01*
X62861501Y-115072255D01*
X62748255Y-115185501D01*
X62615101Y-115274471D01*
X62467142Y-115335758D01*
X62310075Y-115367000D01*
X62149925Y-115367000D01*
X61992858Y-115335758D01*
X61844899Y-115274471D01*
X61711745Y-115185501D01*
X61598499Y-115072255D01*
X61509529Y-114939101D01*
X61448242Y-114791142D01*
X61417000Y-114634075D01*
X61417000Y-114473925D01*
X61448242Y-114316858D01*
X61509529Y-114168899D01*
X61598499Y-114035745D01*
X61711745Y-113922499D01*
X61844899Y-113833529D01*
X61992858Y-113772242D01*
X62149925Y-113741000D01*
X62310075Y-113741000D01*
X62467142Y-113772242D01*
X62467142Y-113772242D01*
G37*
G36*
X62467142Y-111232242D02*
G01*
X62615101Y-111293529D01*
X62748255Y-111382499D01*
X62861501Y-111495745D01*
X62950471Y-111628899D01*
X63011758Y-111776858D01*
X63043000Y-111933925D01*
X63043000Y-112094075D01*
X63011758Y-112251142D01*
X62950471Y-112399101D01*
X62861501Y-112532255D01*
X62748255Y-112645501D01*
X62615101Y-112734471D01*
X62467142Y-112795758D01*
X62310075Y-112827000D01*
X62149925Y-112827000D01*
X61992858Y-112795758D01*
X61844899Y-112734471D01*
X61711745Y-112645501D01*
X61598499Y-112532255D01*
X61509529Y-112399101D01*
X61448242Y-112251142D01*
X61417000Y-112094075D01*
X61417000Y-111933925D01*
X61448242Y-111776858D01*
X61509529Y-111628899D01*
X61598499Y-111495745D01*
X61711745Y-111382499D01*
X61844899Y-111293529D01*
X61992858Y-111232242D01*
X62149925Y-111201000D01*
X62310075Y-111201000D01*
X62467142Y-111232242D01*
X62467142Y-111232242D01*
G37*
G36*
X65007142Y-111232242D02*
G01*
X65155101Y-111293529D01*
X65288255Y-111382499D01*
X65401501Y-111495745D01*
X65490471Y-111628899D01*
X65551758Y-111776858D01*
X65583000Y-111933925D01*
X65583000Y-112094075D01*
X65551758Y-112251142D01*
X65490471Y-112399101D01*
X65401501Y-112532255D01*
X65288255Y-112645501D01*
X65155101Y-112734471D01*
X65007142Y-112795758D01*
X64850075Y-112827000D01*
X64689925Y-112827000D01*
X64532858Y-112795758D01*
X64384899Y-112734471D01*
X64251745Y-112645501D01*
X64138499Y-112532255D01*
X64049529Y-112399101D01*
X63988242Y-112251142D01*
X63957000Y-112094075D01*
X63957000Y-111933925D01*
X63988242Y-111776858D01*
X64049529Y-111628899D01*
X64138499Y-111495745D01*
X64251745Y-111382499D01*
X64384899Y-111293529D01*
X64532858Y-111232242D01*
X64689925Y-111201000D01*
X64850075Y-111201000D01*
X65007142Y-111232242D01*
X65007142Y-111232242D01*
G37*
G36*
X62467142Y-108692242D02*
G01*
X62615101Y-108753529D01*
X62748255Y-108842499D01*
X62861501Y-108955745D01*
X62950471Y-109088899D01*
X63011758Y-109236858D01*
X63043000Y-109393925D01*
X63043000Y-109554075D01*
X63011758Y-109711142D01*
X62950471Y-109859101D01*
X62861501Y-109992255D01*
X62748255Y-110105501D01*
X62615101Y-110194471D01*
X62467142Y-110255758D01*
X62310075Y-110287000D01*
X62149925Y-110287000D01*
X61992858Y-110255758D01*
X61844899Y-110194471D01*
X61711745Y-110105501D01*
X61598499Y-109992255D01*
X61509529Y-109859101D01*
X61448242Y-109711142D01*
X61417000Y-109554075D01*
X61417000Y-109393925D01*
X61448242Y-109236858D01*
X61509529Y-109088899D01*
X61598499Y-108955745D01*
X61711745Y-108842499D01*
X61844899Y-108753529D01*
X61992858Y-108692242D01*
X62149925Y-108661000D01*
X62310075Y-108661000D01*
X62467142Y-108692242D01*
X62467142Y-108692242D01*
G37*
G36*
X65007142Y-108692242D02*
G01*
X65155101Y-108753529D01*
X65288255Y-108842499D01*
X65401501Y-108955745D01*
X65490471Y-109088899D01*
X65551758Y-109236858D01*
X65583000Y-109393925D01*
X65583000Y-109554075D01*
X65551758Y-109711142D01*
X65490471Y-109859101D01*
X65401501Y-109992255D01*
X65288255Y-110105501D01*
X65155101Y-110194471D01*
X65007142Y-110255758D01*
X64850075Y-110287000D01*
X64689925Y-110287000D01*
X64532858Y-110255758D01*
X64384899Y-110194471D01*
X64251745Y-110105501D01*
X64138499Y-109992255D01*
X64049529Y-109859101D01*
X63988242Y-109711142D01*
X63957000Y-109554075D01*
X63957000Y-109393925D01*
X63988242Y-109236858D01*
X64049529Y-109088899D01*
X64138499Y-108955745D01*
X64251745Y-108842499D01*
X64384899Y-108753529D01*
X64532858Y-108692242D01*
X64689925Y-108661000D01*
X64850075Y-108661000D01*
X65007142Y-108692242D01*
X65007142Y-108692242D01*
G37*
G36*
X62467142Y-106152242D02*
G01*
X62615101Y-106213529D01*
X62748255Y-106302499D01*
X62861501Y-106415745D01*
X62950471Y-106548899D01*
X63011758Y-106696858D01*
X63043000Y-106853925D01*
X63043000Y-107014075D01*
X63011758Y-107171142D01*
X62950471Y-107319101D01*
X62861501Y-107452255D01*
X62748255Y-107565501D01*
X62615101Y-107654471D01*
X62467142Y-107715758D01*
X62310075Y-107747000D01*
X62149925Y-107747000D01*
X61992858Y-107715758D01*
X61844899Y-107654471D01*
X61711745Y-107565501D01*
X61598499Y-107452255D01*
X61509529Y-107319101D01*
X61448242Y-107171142D01*
X61417000Y-107014075D01*
X61417000Y-106853925D01*
X61448242Y-106696858D01*
X61509529Y-106548899D01*
X61598499Y-106415745D01*
X61711745Y-106302499D01*
X61844899Y-106213529D01*
X61992858Y-106152242D01*
X62149925Y-106121000D01*
X62310075Y-106121000D01*
X62467142Y-106152242D01*
X62467142Y-106152242D01*
G37*
G36*
X65007142Y-106152242D02*
G01*
X65155101Y-106213529D01*
X65288255Y-106302499D01*
X65401501Y-106415745D01*
X65490471Y-106548899D01*
X65551758Y-106696858D01*
X65583000Y-106853925D01*
X65583000Y-107014075D01*
X65551758Y-107171142D01*
X65490471Y-107319101D01*
X65401501Y-107452255D01*
X65288255Y-107565501D01*
X65155101Y-107654471D01*
X65007142Y-107715758D01*
X64850075Y-107747000D01*
X64689925Y-107747000D01*
X64532858Y-107715758D01*
X64384899Y-107654471D01*
X64251745Y-107565501D01*
X64138499Y-107452255D01*
X64049529Y-107319101D01*
X63988242Y-107171142D01*
X63957000Y-107014075D01*
X63957000Y-106853925D01*
X63988242Y-106696858D01*
X64049529Y-106548899D01*
X64138499Y-106415745D01*
X64251745Y-106302499D01*
X64384899Y-106213529D01*
X64532858Y-106152242D01*
X64689925Y-106121000D01*
X64850075Y-106121000D01*
X65007142Y-106152242D01*
X65007142Y-106152242D01*
G37*
G36*
X107374643Y-103423319D02*
G01*
X107440827Y-103429837D01*
X107610666Y-103481357D01*
X107767191Y-103565022D01*
X107786660Y-103581000D01*
X107904386Y-103677614D01*
X107974048Y-103762499D01*
X108016978Y-103814809D01*
X108100643Y-103971334D01*
X108152163Y-104141173D01*
X108169559Y-104317800D01*
X108152163Y-104494427D01*
X108100643Y-104664266D01*
X108016978Y-104820791D01*
X107987648Y-104856529D01*
X107904386Y-104957986D01*
X107802929Y-105041248D01*
X107767191Y-105070578D01*
X107610666Y-105154243D01*
X107440827Y-105205763D01*
X107374642Y-105212282D01*
X107308460Y-105218800D01*
X107219940Y-105218800D01*
X107153757Y-105212281D01*
X107087573Y-105205763D01*
X106917734Y-105154243D01*
X106761209Y-105070578D01*
X106725471Y-105041248D01*
X106624014Y-104957986D01*
X106540752Y-104856529D01*
X106511422Y-104820791D01*
X106427757Y-104664266D01*
X106376237Y-104494427D01*
X106358841Y-104317800D01*
X106376237Y-104141173D01*
X106427757Y-103971334D01*
X106511422Y-103814809D01*
X106554352Y-103762499D01*
X106624014Y-103677614D01*
X106741740Y-103581000D01*
X106761209Y-103565022D01*
X106917734Y-103481357D01*
X107087573Y-103429837D01*
X107153757Y-103423319D01*
X107219940Y-103416800D01*
X107308460Y-103416800D01*
X107374643Y-103423319D01*
X107374643Y-103423319D01*
G37*
G36*
X102294643Y-103423319D02*
G01*
X102360827Y-103429837D01*
X102530666Y-103481357D01*
X102687191Y-103565022D01*
X102706660Y-103581000D01*
X102824386Y-103677614D01*
X102894048Y-103762499D01*
X102936978Y-103814809D01*
X103020643Y-103971334D01*
X103072163Y-104141173D01*
X103089559Y-104317800D01*
X103072163Y-104494427D01*
X103020643Y-104664266D01*
X102936978Y-104820791D01*
X102907648Y-104856529D01*
X102824386Y-104957986D01*
X102722929Y-105041248D01*
X102687191Y-105070578D01*
X102530666Y-105154243D01*
X102360827Y-105205763D01*
X102294642Y-105212282D01*
X102228460Y-105218800D01*
X102139940Y-105218800D01*
X102073757Y-105212281D01*
X102007573Y-105205763D01*
X101837734Y-105154243D01*
X101681209Y-105070578D01*
X101645471Y-105041248D01*
X101544014Y-104957986D01*
X101460752Y-104856529D01*
X101431422Y-104820791D01*
X101347757Y-104664266D01*
X101296237Y-104494427D01*
X101278841Y-104317800D01*
X101296237Y-104141173D01*
X101347757Y-103971334D01*
X101431422Y-103814809D01*
X101474352Y-103762499D01*
X101544014Y-103677614D01*
X101661740Y-103581000D01*
X101681209Y-103565022D01*
X101837734Y-103481357D01*
X102007573Y-103429837D01*
X102073757Y-103423319D01*
X102139940Y-103416800D01*
X102228460Y-103416800D01*
X102294643Y-103423319D01*
X102294643Y-103423319D01*
G37*
G36*
X99754643Y-103423319D02*
G01*
X99820827Y-103429837D01*
X99990666Y-103481357D01*
X100147191Y-103565022D01*
X100166660Y-103581000D01*
X100284386Y-103677614D01*
X100354048Y-103762499D01*
X100396978Y-103814809D01*
X100480643Y-103971334D01*
X100532163Y-104141173D01*
X100549559Y-104317800D01*
X100532163Y-104494427D01*
X100480643Y-104664266D01*
X100396978Y-104820791D01*
X100367648Y-104856529D01*
X100284386Y-104957986D01*
X100182929Y-105041248D01*
X100147191Y-105070578D01*
X99990666Y-105154243D01*
X99820827Y-105205763D01*
X99754642Y-105212282D01*
X99688460Y-105218800D01*
X99599940Y-105218800D01*
X99533757Y-105212281D01*
X99467573Y-105205763D01*
X99297734Y-105154243D01*
X99141209Y-105070578D01*
X99105471Y-105041248D01*
X99004014Y-104957986D01*
X98920752Y-104856529D01*
X98891422Y-104820791D01*
X98807757Y-104664266D01*
X98756237Y-104494427D01*
X98738841Y-104317800D01*
X98756237Y-104141173D01*
X98807757Y-103971334D01*
X98891422Y-103814809D01*
X98934352Y-103762499D01*
X99004014Y-103677614D01*
X99121740Y-103581000D01*
X99141209Y-103565022D01*
X99297734Y-103481357D01*
X99467573Y-103429837D01*
X99533757Y-103423319D01*
X99599940Y-103416800D01*
X99688460Y-103416800D01*
X99754643Y-103423319D01*
X99754643Y-103423319D01*
G37*
G36*
X97214643Y-103423319D02*
G01*
X97280827Y-103429837D01*
X97450666Y-103481357D01*
X97607191Y-103565022D01*
X97626660Y-103581000D01*
X97744386Y-103677614D01*
X97814048Y-103762499D01*
X97856978Y-103814809D01*
X97940643Y-103971334D01*
X97992163Y-104141173D01*
X98009559Y-104317800D01*
X97992163Y-104494427D01*
X97940643Y-104664266D01*
X97856978Y-104820791D01*
X97827648Y-104856529D01*
X97744386Y-104957986D01*
X97642929Y-105041248D01*
X97607191Y-105070578D01*
X97450666Y-105154243D01*
X97280827Y-105205763D01*
X97214642Y-105212282D01*
X97148460Y-105218800D01*
X97059940Y-105218800D01*
X96993757Y-105212281D01*
X96927573Y-105205763D01*
X96757734Y-105154243D01*
X96601209Y-105070578D01*
X96565471Y-105041248D01*
X96464014Y-104957986D01*
X96380752Y-104856529D01*
X96351422Y-104820791D01*
X96267757Y-104664266D01*
X96216237Y-104494427D01*
X96198841Y-104317800D01*
X96216237Y-104141173D01*
X96267757Y-103971334D01*
X96351422Y-103814809D01*
X96394352Y-103762499D01*
X96464014Y-103677614D01*
X96581740Y-103581000D01*
X96601209Y-103565022D01*
X96757734Y-103481357D01*
X96927573Y-103429837D01*
X96993757Y-103423319D01*
X97059940Y-103416800D01*
X97148460Y-103416800D01*
X97214643Y-103423319D01*
X97214643Y-103423319D01*
G37*
G36*
X94674643Y-103423319D02*
G01*
X94740827Y-103429837D01*
X94910666Y-103481357D01*
X95067191Y-103565022D01*
X95086660Y-103581000D01*
X95204386Y-103677614D01*
X95274048Y-103762499D01*
X95316978Y-103814809D01*
X95400643Y-103971334D01*
X95452163Y-104141173D01*
X95469559Y-104317800D01*
X95452163Y-104494427D01*
X95400643Y-104664266D01*
X95316978Y-104820791D01*
X95287648Y-104856529D01*
X95204386Y-104957986D01*
X95102929Y-105041248D01*
X95067191Y-105070578D01*
X94910666Y-105154243D01*
X94740827Y-105205763D01*
X94674642Y-105212282D01*
X94608460Y-105218800D01*
X94519940Y-105218800D01*
X94453757Y-105212281D01*
X94387573Y-105205763D01*
X94217734Y-105154243D01*
X94061209Y-105070578D01*
X94025471Y-105041248D01*
X93924014Y-104957986D01*
X93840752Y-104856529D01*
X93811422Y-104820791D01*
X93727757Y-104664266D01*
X93676237Y-104494427D01*
X93658841Y-104317800D01*
X93676237Y-104141173D01*
X93727757Y-103971334D01*
X93811422Y-103814809D01*
X93854352Y-103762499D01*
X93924014Y-103677614D01*
X94041740Y-103581000D01*
X94061209Y-103565022D01*
X94217734Y-103481357D01*
X94387573Y-103429837D01*
X94453757Y-103423319D01*
X94519940Y-103416800D01*
X94608460Y-103416800D01*
X94674643Y-103423319D01*
X94674643Y-103423319D01*
G37*
G36*
X112454643Y-103423319D02*
G01*
X112520827Y-103429837D01*
X112690666Y-103481357D01*
X112847191Y-103565022D01*
X112866660Y-103581000D01*
X112984386Y-103677614D01*
X113054048Y-103762499D01*
X113096978Y-103814809D01*
X113180643Y-103971334D01*
X113232163Y-104141173D01*
X113249559Y-104317800D01*
X113232163Y-104494427D01*
X113180643Y-104664266D01*
X113096978Y-104820791D01*
X113067648Y-104856529D01*
X112984386Y-104957986D01*
X112882929Y-105041248D01*
X112847191Y-105070578D01*
X112690666Y-105154243D01*
X112520827Y-105205763D01*
X112454642Y-105212282D01*
X112388460Y-105218800D01*
X112299940Y-105218800D01*
X112233757Y-105212281D01*
X112167573Y-105205763D01*
X111997734Y-105154243D01*
X111841209Y-105070578D01*
X111805471Y-105041248D01*
X111704014Y-104957986D01*
X111620752Y-104856529D01*
X111591422Y-104820791D01*
X111507757Y-104664266D01*
X111456237Y-104494427D01*
X111438841Y-104317800D01*
X111456237Y-104141173D01*
X111507757Y-103971334D01*
X111591422Y-103814809D01*
X111634352Y-103762499D01*
X111704014Y-103677614D01*
X111821740Y-103581000D01*
X111841209Y-103565022D01*
X111997734Y-103481357D01*
X112167573Y-103429837D01*
X112233757Y-103423319D01*
X112299940Y-103416800D01*
X112388460Y-103416800D01*
X112454643Y-103423319D01*
X112454643Y-103423319D01*
G37*
G36*
X109914643Y-103423319D02*
G01*
X109980827Y-103429837D01*
X110150666Y-103481357D01*
X110307191Y-103565022D01*
X110326660Y-103581000D01*
X110444386Y-103677614D01*
X110514048Y-103762499D01*
X110556978Y-103814809D01*
X110640643Y-103971334D01*
X110692163Y-104141173D01*
X110709559Y-104317800D01*
X110692163Y-104494427D01*
X110640643Y-104664266D01*
X110556978Y-104820791D01*
X110527648Y-104856529D01*
X110444386Y-104957986D01*
X110342929Y-105041248D01*
X110307191Y-105070578D01*
X110150666Y-105154243D01*
X109980827Y-105205763D01*
X109914642Y-105212282D01*
X109848460Y-105218800D01*
X109759940Y-105218800D01*
X109693757Y-105212281D01*
X109627573Y-105205763D01*
X109457734Y-105154243D01*
X109301209Y-105070578D01*
X109265471Y-105041248D01*
X109164014Y-104957986D01*
X109080752Y-104856529D01*
X109051422Y-104820791D01*
X108967757Y-104664266D01*
X108916237Y-104494427D01*
X108898841Y-104317800D01*
X108916237Y-104141173D01*
X108967757Y-103971334D01*
X109051422Y-103814809D01*
X109094352Y-103762499D01*
X109164014Y-103677614D01*
X109281740Y-103581000D01*
X109301209Y-103565022D01*
X109457734Y-103481357D01*
X109627573Y-103429837D01*
X109693757Y-103423319D01*
X109759940Y-103416800D01*
X109848460Y-103416800D01*
X109914643Y-103423319D01*
X109914643Y-103423319D01*
G37*
G36*
X104834643Y-103423319D02*
G01*
X104900827Y-103429837D01*
X105070666Y-103481357D01*
X105227191Y-103565022D01*
X105246660Y-103581000D01*
X105364386Y-103677614D01*
X105434048Y-103762499D01*
X105476978Y-103814809D01*
X105560643Y-103971334D01*
X105612163Y-104141173D01*
X105629559Y-104317800D01*
X105612163Y-104494427D01*
X105560643Y-104664266D01*
X105476978Y-104820791D01*
X105447648Y-104856529D01*
X105364386Y-104957986D01*
X105262929Y-105041248D01*
X105227191Y-105070578D01*
X105070666Y-105154243D01*
X104900827Y-105205763D01*
X104834642Y-105212282D01*
X104768460Y-105218800D01*
X104679940Y-105218800D01*
X104613757Y-105212281D01*
X104547573Y-105205763D01*
X104377734Y-105154243D01*
X104221209Y-105070578D01*
X104185471Y-105041248D01*
X104084014Y-104957986D01*
X104000752Y-104856529D01*
X103971422Y-104820791D01*
X103887757Y-104664266D01*
X103836237Y-104494427D01*
X103818841Y-104317800D01*
X103836237Y-104141173D01*
X103887757Y-103971334D01*
X103971422Y-103814809D01*
X104014352Y-103762499D01*
X104084014Y-103677614D01*
X104201740Y-103581000D01*
X104221209Y-103565022D01*
X104377734Y-103481357D01*
X104547573Y-103429837D01*
X104613757Y-103423319D01*
X104679940Y-103416800D01*
X104768460Y-103416800D01*
X104834643Y-103423319D01*
X104834643Y-103423319D01*
G37*
G36*
X92134643Y-103423319D02*
G01*
X92200827Y-103429837D01*
X92370666Y-103481357D01*
X92527191Y-103565022D01*
X92546660Y-103581000D01*
X92664386Y-103677614D01*
X92734048Y-103762499D01*
X92776978Y-103814809D01*
X92860643Y-103971334D01*
X92912163Y-104141173D01*
X92929559Y-104317800D01*
X92912163Y-104494427D01*
X92860643Y-104664266D01*
X92776978Y-104820791D01*
X92747648Y-104856529D01*
X92664386Y-104957986D01*
X92562929Y-105041248D01*
X92527191Y-105070578D01*
X92370666Y-105154243D01*
X92200827Y-105205763D01*
X92134642Y-105212282D01*
X92068460Y-105218800D01*
X91979940Y-105218800D01*
X91913757Y-105212281D01*
X91847573Y-105205763D01*
X91677734Y-105154243D01*
X91521209Y-105070578D01*
X91485471Y-105041248D01*
X91384014Y-104957986D01*
X91300752Y-104856529D01*
X91271422Y-104820791D01*
X91187757Y-104664266D01*
X91136237Y-104494427D01*
X91118841Y-104317800D01*
X91136237Y-104141173D01*
X91187757Y-103971334D01*
X91271422Y-103814809D01*
X91314352Y-103762499D01*
X91384014Y-103677614D01*
X91501740Y-103581000D01*
X91521209Y-103565022D01*
X91677734Y-103481357D01*
X91847573Y-103429837D01*
X91913757Y-103423319D01*
X91979940Y-103416800D01*
X92068460Y-103416800D01*
X92134643Y-103423319D01*
X92134643Y-103423319D01*
G37*
G36*
X90385200Y-105218800D02*
G01*
X88583200Y-105218800D01*
X88583200Y-103416800D01*
X90385200Y-103416800D01*
X90385200Y-105218800D01*
X90385200Y-105218800D01*
G37*
G36*
X114994643Y-103423319D02*
G01*
X115060827Y-103429837D01*
X115230666Y-103481357D01*
X115387191Y-103565022D01*
X115406660Y-103581000D01*
X115524386Y-103677614D01*
X115594048Y-103762499D01*
X115636978Y-103814809D01*
X115720643Y-103971334D01*
X115772163Y-104141173D01*
X115789559Y-104317800D01*
X115772163Y-104494427D01*
X115720643Y-104664266D01*
X115636978Y-104820791D01*
X115607648Y-104856529D01*
X115524386Y-104957986D01*
X115422929Y-105041248D01*
X115387191Y-105070578D01*
X115230666Y-105154243D01*
X115060827Y-105205763D01*
X114994642Y-105212282D01*
X114928460Y-105218800D01*
X114839940Y-105218800D01*
X114773757Y-105212281D01*
X114707573Y-105205763D01*
X114537734Y-105154243D01*
X114381209Y-105070578D01*
X114345471Y-105041248D01*
X114244014Y-104957986D01*
X114160752Y-104856529D01*
X114131422Y-104820791D01*
X114047757Y-104664266D01*
X113996237Y-104494427D01*
X113978841Y-104317800D01*
X113996237Y-104141173D01*
X114047757Y-103971334D01*
X114131422Y-103814809D01*
X114174352Y-103762499D01*
X114244014Y-103677614D01*
X114361740Y-103581000D01*
X114381209Y-103565022D01*
X114537734Y-103481357D01*
X114707573Y-103429837D01*
X114773757Y-103423319D01*
X114839940Y-103416800D01*
X114928460Y-103416800D01*
X114994643Y-103423319D01*
X114994643Y-103423319D01*
G37*
G36*
X117534643Y-103423319D02*
G01*
X117600827Y-103429837D01*
X117770666Y-103481357D01*
X117927191Y-103565022D01*
X117946660Y-103581000D01*
X118064386Y-103677614D01*
X118134048Y-103762499D01*
X118176978Y-103814809D01*
X118260643Y-103971334D01*
X118312163Y-104141173D01*
X118329559Y-104317800D01*
X118312163Y-104494427D01*
X118260643Y-104664266D01*
X118176978Y-104820791D01*
X118147648Y-104856529D01*
X118064386Y-104957986D01*
X117962929Y-105041248D01*
X117927191Y-105070578D01*
X117770666Y-105154243D01*
X117600827Y-105205763D01*
X117534642Y-105212282D01*
X117468460Y-105218800D01*
X117379940Y-105218800D01*
X117313757Y-105212281D01*
X117247573Y-105205763D01*
X117077734Y-105154243D01*
X116921209Y-105070578D01*
X116885471Y-105041248D01*
X116784014Y-104957986D01*
X116700752Y-104856529D01*
X116671422Y-104820791D01*
X116587757Y-104664266D01*
X116536237Y-104494427D01*
X116518841Y-104317800D01*
X116536237Y-104141173D01*
X116587757Y-103971334D01*
X116671422Y-103814809D01*
X116714352Y-103762499D01*
X116784014Y-103677614D01*
X116901740Y-103581000D01*
X116921209Y-103565022D01*
X117077734Y-103481357D01*
X117247573Y-103429837D01*
X117313757Y-103423319D01*
X117379940Y-103416800D01*
X117468460Y-103416800D01*
X117534643Y-103423319D01*
X117534643Y-103423319D01*
G37*
G36*
X120074643Y-103423319D02*
G01*
X120140827Y-103429837D01*
X120310666Y-103481357D01*
X120467191Y-103565022D01*
X120486660Y-103581000D01*
X120604386Y-103677614D01*
X120674048Y-103762499D01*
X120716978Y-103814809D01*
X120800643Y-103971334D01*
X120852163Y-104141173D01*
X120869559Y-104317800D01*
X120852163Y-104494427D01*
X120800643Y-104664266D01*
X120716978Y-104820791D01*
X120687648Y-104856529D01*
X120604386Y-104957986D01*
X120502929Y-105041248D01*
X120467191Y-105070578D01*
X120310666Y-105154243D01*
X120140827Y-105205763D01*
X120074642Y-105212282D01*
X120008460Y-105218800D01*
X119919940Y-105218800D01*
X119853757Y-105212281D01*
X119787573Y-105205763D01*
X119617734Y-105154243D01*
X119461209Y-105070578D01*
X119425471Y-105041248D01*
X119324014Y-104957986D01*
X119240752Y-104856529D01*
X119211422Y-104820791D01*
X119127757Y-104664266D01*
X119076237Y-104494427D01*
X119058841Y-104317800D01*
X119076237Y-104141173D01*
X119127757Y-103971334D01*
X119211422Y-103814809D01*
X119254352Y-103762499D01*
X119324014Y-103677614D01*
X119441740Y-103581000D01*
X119461209Y-103565022D01*
X119617734Y-103481357D01*
X119787573Y-103429837D01*
X119853757Y-103423319D01*
X119919940Y-103416800D01*
X120008460Y-103416800D01*
X120074643Y-103423319D01*
X120074643Y-103423319D01*
G37*
G36*
X122614643Y-103423319D02*
G01*
X122680827Y-103429837D01*
X122850666Y-103481357D01*
X123007191Y-103565022D01*
X123026660Y-103581000D01*
X123144386Y-103677614D01*
X123214048Y-103762499D01*
X123256978Y-103814809D01*
X123340643Y-103971334D01*
X123392163Y-104141173D01*
X123409559Y-104317800D01*
X123392163Y-104494427D01*
X123340643Y-104664266D01*
X123256978Y-104820791D01*
X123227648Y-104856529D01*
X123144386Y-104957986D01*
X123042929Y-105041248D01*
X123007191Y-105070578D01*
X122850666Y-105154243D01*
X122680827Y-105205763D01*
X122614642Y-105212282D01*
X122548460Y-105218800D01*
X122459940Y-105218800D01*
X122393757Y-105212281D01*
X122327573Y-105205763D01*
X122157734Y-105154243D01*
X122001209Y-105070578D01*
X121965471Y-105041248D01*
X121864014Y-104957986D01*
X121780752Y-104856529D01*
X121751422Y-104820791D01*
X121667757Y-104664266D01*
X121616237Y-104494427D01*
X121598841Y-104317800D01*
X121616237Y-104141173D01*
X121667757Y-103971334D01*
X121751422Y-103814809D01*
X121794352Y-103762499D01*
X121864014Y-103677614D01*
X121981740Y-103581000D01*
X122001209Y-103565022D01*
X122157734Y-103481357D01*
X122327573Y-103429837D01*
X122393757Y-103423319D01*
X122459940Y-103416800D01*
X122548460Y-103416800D01*
X122614643Y-103423319D01*
X122614643Y-103423319D01*
G37*
G36*
X125154643Y-103423319D02*
G01*
X125220827Y-103429837D01*
X125390666Y-103481357D01*
X125547191Y-103565022D01*
X125566660Y-103581000D01*
X125684386Y-103677614D01*
X125754048Y-103762499D01*
X125796978Y-103814809D01*
X125880643Y-103971334D01*
X125932163Y-104141173D01*
X125949559Y-104317800D01*
X125932163Y-104494427D01*
X125880643Y-104664266D01*
X125796978Y-104820791D01*
X125767648Y-104856529D01*
X125684386Y-104957986D01*
X125582929Y-105041248D01*
X125547191Y-105070578D01*
X125390666Y-105154243D01*
X125220827Y-105205763D01*
X125154642Y-105212282D01*
X125088460Y-105218800D01*
X124999940Y-105218800D01*
X124933757Y-105212281D01*
X124867573Y-105205763D01*
X124697734Y-105154243D01*
X124541209Y-105070578D01*
X124505471Y-105041248D01*
X124404014Y-104957986D01*
X124320752Y-104856529D01*
X124291422Y-104820791D01*
X124207757Y-104664266D01*
X124156237Y-104494427D01*
X124138841Y-104317800D01*
X124156237Y-104141173D01*
X124207757Y-103971334D01*
X124291422Y-103814809D01*
X124334352Y-103762499D01*
X124404014Y-103677614D01*
X124521740Y-103581000D01*
X124541209Y-103565022D01*
X124697734Y-103481357D01*
X124867573Y-103429837D01*
X124933757Y-103423319D01*
X124999940Y-103416800D01*
X125088460Y-103416800D01*
X125154643Y-103423319D01*
X125154643Y-103423319D01*
G37*
G36*
X127694643Y-103423319D02*
G01*
X127760827Y-103429837D01*
X127930666Y-103481357D01*
X128087191Y-103565022D01*
X128106660Y-103581000D01*
X128224386Y-103677614D01*
X128294048Y-103762499D01*
X128336978Y-103814809D01*
X128420643Y-103971334D01*
X128472163Y-104141173D01*
X128489559Y-104317800D01*
X128472163Y-104494427D01*
X128420643Y-104664266D01*
X128336978Y-104820791D01*
X128307648Y-104856529D01*
X128224386Y-104957986D01*
X128122929Y-105041248D01*
X128087191Y-105070578D01*
X127930666Y-105154243D01*
X127760827Y-105205763D01*
X127694642Y-105212282D01*
X127628460Y-105218800D01*
X127539940Y-105218800D01*
X127473757Y-105212281D01*
X127407573Y-105205763D01*
X127237734Y-105154243D01*
X127081209Y-105070578D01*
X127045471Y-105041248D01*
X126944014Y-104957986D01*
X126860752Y-104856529D01*
X126831422Y-104820791D01*
X126747757Y-104664266D01*
X126696237Y-104494427D01*
X126678841Y-104317800D01*
X126696237Y-104141173D01*
X126747757Y-103971334D01*
X126831422Y-103814809D01*
X126874352Y-103762499D01*
X126944014Y-103677614D01*
X127061740Y-103581000D01*
X127081209Y-103565022D01*
X127237734Y-103481357D01*
X127407573Y-103429837D01*
X127473757Y-103423319D01*
X127539940Y-103416800D01*
X127628460Y-103416800D01*
X127694643Y-103423319D01*
X127694643Y-103423319D01*
G37*
G36*
X130234643Y-103423319D02*
G01*
X130300827Y-103429837D01*
X130470666Y-103481357D01*
X130627191Y-103565022D01*
X130646660Y-103581000D01*
X130764386Y-103677614D01*
X130834048Y-103762499D01*
X130876978Y-103814809D01*
X130960643Y-103971334D01*
X131012163Y-104141173D01*
X131029559Y-104317800D01*
X131012163Y-104494427D01*
X130960643Y-104664266D01*
X130876978Y-104820791D01*
X130847648Y-104856529D01*
X130764386Y-104957986D01*
X130662929Y-105041248D01*
X130627191Y-105070578D01*
X130470666Y-105154243D01*
X130300827Y-105205763D01*
X130234642Y-105212282D01*
X130168460Y-105218800D01*
X130079940Y-105218800D01*
X130013757Y-105212281D01*
X129947573Y-105205763D01*
X129777734Y-105154243D01*
X129621209Y-105070578D01*
X129585471Y-105041248D01*
X129484014Y-104957986D01*
X129400752Y-104856529D01*
X129371422Y-104820791D01*
X129287757Y-104664266D01*
X129236237Y-104494427D01*
X129218841Y-104317800D01*
X129236237Y-104141173D01*
X129287757Y-103971334D01*
X129371422Y-103814809D01*
X129414352Y-103762499D01*
X129484014Y-103677614D01*
X129601740Y-103581000D01*
X129621209Y-103565022D01*
X129777734Y-103481357D01*
X129947573Y-103429837D01*
X130013757Y-103423319D01*
X130079940Y-103416800D01*
X130168460Y-103416800D01*
X130234643Y-103423319D01*
X130234643Y-103423319D01*
G37*
G36*
X62467142Y-103612242D02*
G01*
X62615101Y-103673529D01*
X62748255Y-103762499D01*
X62861501Y-103875745D01*
X62950471Y-104008899D01*
X63011758Y-104156858D01*
X63043000Y-104313925D01*
X63043000Y-104474075D01*
X63011758Y-104631142D01*
X62950471Y-104779101D01*
X62861501Y-104912255D01*
X62748255Y-105025501D01*
X62615101Y-105114471D01*
X62467142Y-105175758D01*
X62310075Y-105207000D01*
X62149925Y-105207000D01*
X61992858Y-105175758D01*
X61844899Y-105114471D01*
X61711745Y-105025501D01*
X61598499Y-104912255D01*
X61509529Y-104779101D01*
X61448242Y-104631142D01*
X61417000Y-104474075D01*
X61417000Y-104313925D01*
X61448242Y-104156858D01*
X61509529Y-104008899D01*
X61598499Y-103875745D01*
X61711745Y-103762499D01*
X61844899Y-103673529D01*
X61992858Y-103612242D01*
X62149925Y-103581000D01*
X62310075Y-103581000D01*
X62467142Y-103612242D01*
X62467142Y-103612242D01*
G37*
G36*
X65007142Y-103612242D02*
G01*
X65155101Y-103673529D01*
X65288255Y-103762499D01*
X65401501Y-103875745D01*
X65490471Y-104008899D01*
X65551758Y-104156858D01*
X65583000Y-104313925D01*
X65583000Y-104474075D01*
X65551758Y-104631142D01*
X65490471Y-104779101D01*
X65401501Y-104912255D01*
X65288255Y-105025501D01*
X65155101Y-105114471D01*
X65007142Y-105175758D01*
X64850075Y-105207000D01*
X64689925Y-105207000D01*
X64532858Y-105175758D01*
X64384899Y-105114471D01*
X64251745Y-105025501D01*
X64138499Y-104912255D01*
X64049529Y-104779101D01*
X63988242Y-104631142D01*
X63957000Y-104474075D01*
X63957000Y-104313925D01*
X63988242Y-104156858D01*
X64049529Y-104008899D01*
X64138499Y-103875745D01*
X64251745Y-103762499D01*
X64384899Y-103673529D01*
X64532858Y-103612242D01*
X64689925Y-103581000D01*
X64850075Y-103581000D01*
X65007142Y-103612242D01*
X65007142Y-103612242D01*
G37*
G36*
X62467142Y-101072242D02*
G01*
X62615101Y-101133529D01*
X62748255Y-101222499D01*
X62861501Y-101335745D01*
X62950471Y-101468899D01*
X63011758Y-101616858D01*
X63043000Y-101773925D01*
X63043000Y-101934075D01*
X63011758Y-102091142D01*
X62950471Y-102239101D01*
X62861501Y-102372255D01*
X62748255Y-102485501D01*
X62615101Y-102574471D01*
X62467142Y-102635758D01*
X62310075Y-102667000D01*
X62149925Y-102667000D01*
X61992858Y-102635758D01*
X61844899Y-102574471D01*
X61711745Y-102485501D01*
X61598499Y-102372255D01*
X61509529Y-102239101D01*
X61448242Y-102091142D01*
X61417000Y-101934075D01*
X61417000Y-101773925D01*
X61448242Y-101616858D01*
X61509529Y-101468899D01*
X61598499Y-101335745D01*
X61711745Y-101222499D01*
X61844899Y-101133529D01*
X61992858Y-101072242D01*
X62149925Y-101041000D01*
X62310075Y-101041000D01*
X62467142Y-101072242D01*
X62467142Y-101072242D01*
G37*
G36*
X65007142Y-101072242D02*
G01*
X65155101Y-101133529D01*
X65288255Y-101222499D01*
X65401501Y-101335745D01*
X65490471Y-101468899D01*
X65551758Y-101616858D01*
X65583000Y-101773925D01*
X65583000Y-101934075D01*
X65551758Y-102091142D01*
X65490471Y-102239101D01*
X65401501Y-102372255D01*
X65288255Y-102485501D01*
X65155101Y-102574471D01*
X65007142Y-102635758D01*
X64850075Y-102667000D01*
X64689925Y-102667000D01*
X64532858Y-102635758D01*
X64384899Y-102574471D01*
X64251745Y-102485501D01*
X64138499Y-102372255D01*
X64049529Y-102239101D01*
X63988242Y-102091142D01*
X63957000Y-101934075D01*
X63957000Y-101773925D01*
X63988242Y-101616858D01*
X64049529Y-101468899D01*
X64138499Y-101335745D01*
X64251745Y-101222499D01*
X64384899Y-101133529D01*
X64532858Y-101072242D01*
X64689925Y-101041000D01*
X64850075Y-101041000D01*
X65007142Y-101072242D01*
X65007142Y-101072242D01*
G37*
G36*
X62467142Y-98532242D02*
G01*
X62615101Y-98593529D01*
X62748255Y-98682499D01*
X62861501Y-98795745D01*
X62950471Y-98928899D01*
X63011758Y-99076858D01*
X63043000Y-99233925D01*
X63043000Y-99394075D01*
X63011758Y-99551142D01*
X62950471Y-99699101D01*
X62861501Y-99832255D01*
X62748255Y-99945501D01*
X62615101Y-100034471D01*
X62467142Y-100095758D01*
X62310075Y-100127000D01*
X62149925Y-100127000D01*
X61992858Y-100095758D01*
X61844899Y-100034471D01*
X61711745Y-99945501D01*
X61598499Y-99832255D01*
X61509529Y-99699101D01*
X61448242Y-99551142D01*
X61417000Y-99394075D01*
X61417000Y-99233925D01*
X61448242Y-99076858D01*
X61509529Y-98928899D01*
X61598499Y-98795745D01*
X61711745Y-98682499D01*
X61844899Y-98593529D01*
X61992858Y-98532242D01*
X62149925Y-98501000D01*
X62310075Y-98501000D01*
X62467142Y-98532242D01*
X62467142Y-98532242D01*
G37*
G36*
X65007142Y-98532242D02*
G01*
X65155101Y-98593529D01*
X65288255Y-98682499D01*
X65401501Y-98795745D01*
X65490471Y-98928899D01*
X65551758Y-99076858D01*
X65583000Y-99233925D01*
X65583000Y-99394075D01*
X65551758Y-99551142D01*
X65490471Y-99699101D01*
X65401501Y-99832255D01*
X65288255Y-99945501D01*
X65155101Y-100034471D01*
X65007142Y-100095758D01*
X64850075Y-100127000D01*
X64689925Y-100127000D01*
X64532858Y-100095758D01*
X64384899Y-100034471D01*
X64251745Y-99945501D01*
X64138499Y-99832255D01*
X64049529Y-99699101D01*
X63988242Y-99551142D01*
X63957000Y-99394075D01*
X63957000Y-99233925D01*
X63988242Y-99076858D01*
X64049529Y-98928899D01*
X64138499Y-98795745D01*
X64251745Y-98682499D01*
X64384899Y-98593529D01*
X64532858Y-98532242D01*
X64689925Y-98501000D01*
X64850075Y-98501000D01*
X65007142Y-98532242D01*
X65007142Y-98532242D01*
G37*
G36*
X126432740Y-96062626D02*
G01*
X126481136Y-96072253D01*
X126518902Y-96087896D01*
X126572311Y-96110019D01*
X126572312Y-96110020D01*
X126654369Y-96164848D01*
X126724152Y-96234631D01*
X126724153Y-96234633D01*
X126778981Y-96316689D01*
X126801104Y-96370098D01*
X126816747Y-96407864D01*
X126836000Y-96504656D01*
X126836000Y-96603344D01*
X126816747Y-96700136D01*
X126795372Y-96751740D01*
X126778979Y-96791315D01*
X126720966Y-96878137D01*
X126709414Y-96899747D01*
X126702301Y-96923196D01*
X126699899Y-96947582D01*
X126702301Y-96971968D01*
X126709414Y-96995417D01*
X126720965Y-97017028D01*
X126736510Y-97035970D01*
X126755452Y-97051515D01*
X126777062Y-97063067D01*
X126800511Y-97070180D01*
X126824897Y-97072582D01*
X126849284Y-97070180D01*
X126935654Y-97053000D01*
X127034346Y-97053000D01*
X127120716Y-97070180D01*
X127145102Y-97072582D01*
X127169488Y-97070180D01*
X127192937Y-97063067D01*
X127214548Y-97051516D01*
X127233490Y-97035971D01*
X127249035Y-97017029D01*
X127260586Y-96995418D01*
X127267699Y-96971969D01*
X127270101Y-96947583D01*
X127267699Y-96923197D01*
X127260586Y-96899748D01*
X127249034Y-96878137D01*
X127191021Y-96791315D01*
X127174628Y-96751740D01*
X127153253Y-96700136D01*
X127134000Y-96603344D01*
X127134000Y-96504656D01*
X127153253Y-96407864D01*
X127168896Y-96370098D01*
X127191019Y-96316689D01*
X127245847Y-96234633D01*
X127245848Y-96234631D01*
X127315631Y-96164848D01*
X127397688Y-96110020D01*
X127397689Y-96110019D01*
X127451098Y-96087896D01*
X127488864Y-96072253D01*
X127537260Y-96062626D01*
X127585655Y-96053000D01*
X127684345Y-96053000D01*
X127732740Y-96062626D01*
X127781136Y-96072253D01*
X127818902Y-96087896D01*
X127872311Y-96110019D01*
X127872312Y-96110020D01*
X127954369Y-96164848D01*
X128024152Y-96234631D01*
X128024153Y-96234633D01*
X128078981Y-96316689D01*
X128101104Y-96370098D01*
X128116747Y-96407864D01*
X128136000Y-96504656D01*
X128136000Y-96603344D01*
X128116747Y-96700136D01*
X128095372Y-96751740D01*
X128078979Y-96791315D01*
X128020966Y-96878137D01*
X128009414Y-96899747D01*
X128002301Y-96923196D01*
X127999899Y-96947582D01*
X128002301Y-96971968D01*
X128009414Y-96995417D01*
X128020965Y-97017028D01*
X128036510Y-97035970D01*
X128055452Y-97051515D01*
X128077062Y-97063067D01*
X128100511Y-97070180D01*
X128124897Y-97072582D01*
X128149284Y-97070180D01*
X128235654Y-97053000D01*
X128334346Y-97053000D01*
X128420716Y-97070180D01*
X128445102Y-97072582D01*
X128469488Y-97070180D01*
X128492937Y-97063067D01*
X128514548Y-97051516D01*
X128533490Y-97035971D01*
X128549035Y-97017029D01*
X128560586Y-96995418D01*
X128567699Y-96971969D01*
X128570101Y-96947583D01*
X128567699Y-96923197D01*
X128560586Y-96899748D01*
X128549034Y-96878137D01*
X128491021Y-96791315D01*
X128474628Y-96751740D01*
X128453253Y-96700136D01*
X128434000Y-96603344D01*
X128434000Y-96504656D01*
X128453253Y-96407864D01*
X128468896Y-96370098D01*
X128491019Y-96316689D01*
X128545847Y-96234633D01*
X128545848Y-96234631D01*
X128615631Y-96164848D01*
X128697688Y-96110020D01*
X128697689Y-96110019D01*
X128751098Y-96087896D01*
X128788864Y-96072253D01*
X128837260Y-96062626D01*
X128885655Y-96053000D01*
X128984345Y-96053000D01*
X129032740Y-96062626D01*
X129081136Y-96072253D01*
X129118902Y-96087896D01*
X129172311Y-96110019D01*
X129172312Y-96110020D01*
X129254369Y-96164848D01*
X129324152Y-96234631D01*
X129324153Y-96234633D01*
X129378981Y-96316689D01*
X129416747Y-96407865D01*
X129436000Y-96504655D01*
X129436000Y-96603345D01*
X129416747Y-96700135D01*
X129378981Y-96791311D01*
X129378980Y-96791312D01*
X129324152Y-96873369D01*
X129254369Y-96943152D01*
X129213062Y-96970752D01*
X129172311Y-96997981D01*
X129118902Y-97020104D01*
X129081136Y-97035747D01*
X129034955Y-97044933D01*
X128984345Y-97055000D01*
X128885654Y-97055000D01*
X128799284Y-97037820D01*
X128774898Y-97035418D01*
X128750512Y-97037820D01*
X128727063Y-97044933D01*
X128705452Y-97056484D01*
X128686510Y-97072029D01*
X128670965Y-97090971D01*
X128659414Y-97112582D01*
X128652301Y-97136031D01*
X128649899Y-97160417D01*
X128652301Y-97184803D01*
X128659414Y-97208252D01*
X128670966Y-97229863D01*
X128728979Y-97316685D01*
X128766747Y-97407865D01*
X128786000Y-97504655D01*
X128786000Y-97603345D01*
X128766747Y-97700135D01*
X128728981Y-97791311D01*
X128728980Y-97791312D01*
X128674152Y-97873369D01*
X128604369Y-97943152D01*
X128563062Y-97970752D01*
X128522311Y-97997981D01*
X128468902Y-98020104D01*
X128431136Y-98035747D01*
X128382740Y-98045374D01*
X128334345Y-98055000D01*
X128235655Y-98055000D01*
X128187260Y-98045373D01*
X128138864Y-98035747D01*
X128101098Y-98020104D01*
X128047689Y-97997981D01*
X128006938Y-97970752D01*
X127965631Y-97943152D01*
X127895848Y-97873369D01*
X127841020Y-97791312D01*
X127841019Y-97791311D01*
X127803253Y-97700135D01*
X127784000Y-97603345D01*
X127784000Y-97504655D01*
X127803253Y-97407865D01*
X127841021Y-97316685D01*
X127899034Y-97229863D01*
X127910586Y-97208253D01*
X127917699Y-97184804D01*
X127920101Y-97160418D01*
X127917699Y-97136032D01*
X127910586Y-97112583D01*
X127899035Y-97090972D01*
X127883490Y-97072030D01*
X127864548Y-97056485D01*
X127842938Y-97044933D01*
X127819489Y-97037820D01*
X127795103Y-97035418D01*
X127770716Y-97037820D01*
X127684346Y-97055000D01*
X127585654Y-97055000D01*
X127499284Y-97037820D01*
X127474898Y-97035418D01*
X127450512Y-97037820D01*
X127427063Y-97044933D01*
X127405452Y-97056484D01*
X127386510Y-97072029D01*
X127370965Y-97090971D01*
X127359414Y-97112582D01*
X127352301Y-97136031D01*
X127349899Y-97160417D01*
X127352301Y-97184803D01*
X127359414Y-97208252D01*
X127370966Y-97229863D01*
X127428979Y-97316685D01*
X127466747Y-97407865D01*
X127486000Y-97504655D01*
X127486000Y-97603345D01*
X127466747Y-97700135D01*
X127428981Y-97791311D01*
X127428980Y-97791312D01*
X127374152Y-97873369D01*
X127304369Y-97943152D01*
X127263062Y-97970752D01*
X127222311Y-97997981D01*
X127168902Y-98020104D01*
X127131136Y-98035747D01*
X127082740Y-98045374D01*
X127034345Y-98055000D01*
X126935655Y-98055000D01*
X126887260Y-98045373D01*
X126838864Y-98035747D01*
X126801098Y-98020104D01*
X126747689Y-97997981D01*
X126706938Y-97970752D01*
X126665631Y-97943152D01*
X126595848Y-97873369D01*
X126541020Y-97791312D01*
X126541019Y-97791311D01*
X126503253Y-97700135D01*
X126484000Y-97603345D01*
X126484000Y-97504655D01*
X126503253Y-97407865D01*
X126541021Y-97316685D01*
X126599034Y-97229863D01*
X126610586Y-97208253D01*
X126617699Y-97184804D01*
X126620101Y-97160418D01*
X126617699Y-97136032D01*
X126610586Y-97112583D01*
X126599035Y-97090972D01*
X126583490Y-97072030D01*
X126564548Y-97056485D01*
X126542938Y-97044933D01*
X126519489Y-97037820D01*
X126495103Y-97035418D01*
X126470716Y-97037820D01*
X126384346Y-97055000D01*
X126285655Y-97055000D01*
X126235045Y-97044933D01*
X126188864Y-97035747D01*
X126151098Y-97020104D01*
X126097689Y-96997981D01*
X126056938Y-96970752D01*
X126015631Y-96943152D01*
X125945848Y-96873369D01*
X125891020Y-96791312D01*
X125891019Y-96791311D01*
X125853253Y-96700135D01*
X125834000Y-96603345D01*
X125834000Y-96504655D01*
X125853253Y-96407865D01*
X125891019Y-96316689D01*
X125945847Y-96234633D01*
X125945848Y-96234631D01*
X126015631Y-96164848D01*
X126097688Y-96110020D01*
X126097689Y-96110019D01*
X126151098Y-96087896D01*
X126188864Y-96072253D01*
X126237260Y-96062626D01*
X126285655Y-96053000D01*
X126384345Y-96053000D01*
X126432740Y-96062626D01*
X126432740Y-96062626D01*
G37*
G36*
X65007142Y-95992242D02*
G01*
X65155101Y-96053529D01*
X65288255Y-96142499D01*
X65401501Y-96255745D01*
X65490471Y-96388899D01*
X65551758Y-96536858D01*
X65583000Y-96693925D01*
X65583000Y-96854075D01*
X65551758Y-97011142D01*
X65490471Y-97159101D01*
X65401501Y-97292255D01*
X65288255Y-97405501D01*
X65155101Y-97494471D01*
X65007142Y-97555758D01*
X64850075Y-97587000D01*
X64689925Y-97587000D01*
X64532858Y-97555758D01*
X64384899Y-97494471D01*
X64251745Y-97405501D01*
X64138499Y-97292255D01*
X64049529Y-97159101D01*
X63988242Y-97011142D01*
X63957000Y-96854075D01*
X63957000Y-96693925D01*
X63988242Y-96536858D01*
X64049529Y-96388899D01*
X64138499Y-96255745D01*
X64251745Y-96142499D01*
X64384899Y-96053529D01*
X64532858Y-95992242D01*
X64689925Y-95961000D01*
X64850075Y-95961000D01*
X65007142Y-95992242D01*
X65007142Y-95992242D01*
G37*
G36*
X62467142Y-95992242D02*
G01*
X62615101Y-96053529D01*
X62748255Y-96142499D01*
X62861501Y-96255745D01*
X62950471Y-96388899D01*
X63011758Y-96536858D01*
X63043000Y-96693925D01*
X63043000Y-96854075D01*
X63011758Y-97011142D01*
X62950471Y-97159101D01*
X62861501Y-97292255D01*
X62748255Y-97405501D01*
X62615101Y-97494471D01*
X62467142Y-97555758D01*
X62310075Y-97587000D01*
X62149925Y-97587000D01*
X61992858Y-97555758D01*
X61844899Y-97494471D01*
X61711745Y-97405501D01*
X61598499Y-97292255D01*
X61509529Y-97159101D01*
X61448242Y-97011142D01*
X61417000Y-96854075D01*
X61417000Y-96693925D01*
X61448242Y-96536858D01*
X61509529Y-96388899D01*
X61598499Y-96255745D01*
X61711745Y-96142499D01*
X61844899Y-96053529D01*
X61992858Y-95992242D01*
X62149925Y-95961000D01*
X62310075Y-95961000D01*
X62467142Y-95992242D01*
X62467142Y-95992242D01*
G37*
G36*
X131254091Y-96552343D02*
G01*
X131275922Y-96556685D01*
X131317051Y-96573721D01*
X131354067Y-96598454D01*
X131385546Y-96629933D01*
X131410279Y-96666949D01*
X131427315Y-96708078D01*
X131436000Y-96751741D01*
X131436000Y-96796259D01*
X131427315Y-96839922D01*
X131410279Y-96881051D01*
X131385546Y-96918067D01*
X131354067Y-96949546D01*
X131317051Y-96974279D01*
X131275922Y-96991315D01*
X131255300Y-96995417D01*
X131232260Y-97000000D01*
X131187740Y-97000000D01*
X131164700Y-96995417D01*
X131144078Y-96991315D01*
X131102949Y-96974279D01*
X131065933Y-96949546D01*
X131034454Y-96918067D01*
X131009721Y-96881051D01*
X130992685Y-96839922D01*
X130984000Y-96796259D01*
X130984000Y-96751741D01*
X130992685Y-96708078D01*
X131009721Y-96666949D01*
X131034454Y-96629933D01*
X131065933Y-96598454D01*
X131102949Y-96573721D01*
X131144078Y-96556685D01*
X131165909Y-96552343D01*
X131187740Y-96548000D01*
X131232260Y-96548000D01*
X131254091Y-96552343D01*
X131254091Y-96552343D01*
G37*
G36*
X124104091Y-96552343D02*
G01*
X124125922Y-96556685D01*
X124167051Y-96573721D01*
X124204067Y-96598454D01*
X124235546Y-96629933D01*
X124260279Y-96666949D01*
X124277315Y-96708078D01*
X124286000Y-96751741D01*
X124286000Y-96796259D01*
X124277315Y-96839922D01*
X124260279Y-96881051D01*
X124235546Y-96918067D01*
X124204067Y-96949546D01*
X124167051Y-96974279D01*
X124125922Y-96991315D01*
X124105300Y-96995417D01*
X124082260Y-97000000D01*
X124037740Y-97000000D01*
X124014700Y-96995417D01*
X123994078Y-96991315D01*
X123952949Y-96974279D01*
X123915933Y-96949546D01*
X123884454Y-96918067D01*
X123859721Y-96881051D01*
X123842685Y-96839922D01*
X123834000Y-96796259D01*
X123834000Y-96751741D01*
X123842685Y-96708078D01*
X123859721Y-96666949D01*
X123884454Y-96629933D01*
X123915933Y-96598454D01*
X123952949Y-96573721D01*
X123994078Y-96556685D01*
X124015909Y-96552343D01*
X124037740Y-96548000D01*
X124082260Y-96548000D01*
X124104091Y-96552343D01*
X124104091Y-96552343D01*
G37*
G36*
X65007142Y-93452242D02*
G01*
X65155101Y-93513529D01*
X65288255Y-93602499D01*
X65401501Y-93715745D01*
X65490471Y-93848899D01*
X65551758Y-93996858D01*
X65583000Y-94153925D01*
X65583000Y-94314075D01*
X65551758Y-94471142D01*
X65490471Y-94619101D01*
X65401501Y-94752255D01*
X65288255Y-94865501D01*
X65155101Y-94954471D01*
X65007142Y-95015758D01*
X64850075Y-95047000D01*
X64689925Y-95047000D01*
X64532858Y-95015758D01*
X64384899Y-94954471D01*
X64251745Y-94865501D01*
X64138499Y-94752255D01*
X64049529Y-94619101D01*
X63988242Y-94471142D01*
X63957000Y-94314075D01*
X63957000Y-94153925D01*
X63988242Y-93996858D01*
X64049529Y-93848899D01*
X64138499Y-93715745D01*
X64251745Y-93602499D01*
X64384899Y-93513529D01*
X64532858Y-93452242D01*
X64689925Y-93421000D01*
X64850075Y-93421000D01*
X65007142Y-93452242D01*
X65007142Y-93452242D01*
G37*
G36*
X62467142Y-93452242D02*
G01*
X62615101Y-93513529D01*
X62748255Y-93602499D01*
X62861501Y-93715745D01*
X62950471Y-93848899D01*
X63011758Y-93996858D01*
X63043000Y-94153925D01*
X63043000Y-94314075D01*
X63011758Y-94471142D01*
X62950471Y-94619101D01*
X62861501Y-94752255D01*
X62748255Y-94865501D01*
X62615101Y-94954471D01*
X62467142Y-95015758D01*
X62310075Y-95047000D01*
X62149925Y-95047000D01*
X61992858Y-95015758D01*
X61844899Y-94954471D01*
X61711745Y-94865501D01*
X61598499Y-94752255D01*
X61509529Y-94619101D01*
X61448242Y-94471142D01*
X61417000Y-94314075D01*
X61417000Y-94153925D01*
X61448242Y-93996858D01*
X61509529Y-93848899D01*
X61598499Y-93715745D01*
X61711745Y-93602499D01*
X61844899Y-93513529D01*
X61992858Y-93452242D01*
X62149925Y-93421000D01*
X62310075Y-93421000D01*
X62467142Y-93452242D01*
X62467142Y-93452242D01*
G37*
G36*
X126432740Y-91998627D02*
G01*
X126481136Y-92008253D01*
X126518902Y-92023896D01*
X126572311Y-92046019D01*
X126572312Y-92046020D01*
X126654369Y-92100848D01*
X126724152Y-92170631D01*
X126724153Y-92170633D01*
X126778981Y-92252689D01*
X126801104Y-92306098D01*
X126816747Y-92343864D01*
X126836000Y-92440656D01*
X126836000Y-92539344D01*
X126816747Y-92636136D01*
X126795372Y-92687740D01*
X126778979Y-92727315D01*
X126720966Y-92814137D01*
X126709414Y-92835747D01*
X126702301Y-92859196D01*
X126699899Y-92883582D01*
X126702301Y-92907968D01*
X126709414Y-92931417D01*
X126720965Y-92953028D01*
X126736510Y-92971970D01*
X126755452Y-92987515D01*
X126777062Y-92999067D01*
X126800511Y-93006180D01*
X126824897Y-93008582D01*
X126849284Y-93006180D01*
X126935654Y-92989000D01*
X127034346Y-92989000D01*
X127120716Y-93006180D01*
X127145102Y-93008582D01*
X127169488Y-93006180D01*
X127192937Y-92999067D01*
X127214548Y-92987516D01*
X127233490Y-92971971D01*
X127249035Y-92953029D01*
X127260586Y-92931418D01*
X127267699Y-92907969D01*
X127270101Y-92883583D01*
X127267699Y-92859197D01*
X127260586Y-92835748D01*
X127249034Y-92814137D01*
X127191021Y-92727315D01*
X127174628Y-92687740D01*
X127153253Y-92636136D01*
X127134000Y-92539344D01*
X127134000Y-92440656D01*
X127153253Y-92343864D01*
X127168896Y-92306098D01*
X127191019Y-92252689D01*
X127245847Y-92170633D01*
X127245848Y-92170631D01*
X127315631Y-92100848D01*
X127397688Y-92046020D01*
X127397689Y-92046019D01*
X127451098Y-92023896D01*
X127488864Y-92008253D01*
X127537260Y-91998627D01*
X127585655Y-91989000D01*
X127684345Y-91989000D01*
X127732740Y-91998627D01*
X127781136Y-92008253D01*
X127818902Y-92023896D01*
X127872311Y-92046019D01*
X127872312Y-92046020D01*
X127954369Y-92100848D01*
X128024152Y-92170631D01*
X128024153Y-92170633D01*
X128078981Y-92252689D01*
X128101104Y-92306098D01*
X128116747Y-92343864D01*
X128136000Y-92440656D01*
X128136000Y-92539344D01*
X128116747Y-92636136D01*
X128095372Y-92687740D01*
X128078979Y-92727315D01*
X128020966Y-92814137D01*
X128009414Y-92835747D01*
X128002301Y-92859196D01*
X127999899Y-92883582D01*
X128002301Y-92907968D01*
X128009414Y-92931417D01*
X128020965Y-92953028D01*
X128036510Y-92971970D01*
X128055452Y-92987515D01*
X128077062Y-92999067D01*
X128100511Y-93006180D01*
X128124897Y-93008582D01*
X128149284Y-93006180D01*
X128235654Y-92989000D01*
X128334346Y-92989000D01*
X128420716Y-93006180D01*
X128445102Y-93008582D01*
X128469488Y-93006180D01*
X128492937Y-92999067D01*
X128514548Y-92987516D01*
X128533490Y-92971971D01*
X128549035Y-92953029D01*
X128560586Y-92931418D01*
X128567699Y-92907969D01*
X128570101Y-92883583D01*
X128567699Y-92859197D01*
X128560586Y-92835748D01*
X128549034Y-92814137D01*
X128491021Y-92727315D01*
X128474628Y-92687740D01*
X128453253Y-92636136D01*
X128434000Y-92539344D01*
X128434000Y-92440656D01*
X128453253Y-92343864D01*
X128468896Y-92306098D01*
X128491019Y-92252689D01*
X128545847Y-92170633D01*
X128545848Y-92170631D01*
X128615631Y-92100848D01*
X128697688Y-92046020D01*
X128697689Y-92046019D01*
X128751098Y-92023896D01*
X128788864Y-92008253D01*
X128837260Y-91998627D01*
X128885655Y-91989000D01*
X128984345Y-91989000D01*
X129032740Y-91998627D01*
X129081136Y-92008253D01*
X129118902Y-92023896D01*
X129172311Y-92046019D01*
X129172312Y-92046020D01*
X129254369Y-92100848D01*
X129324152Y-92170631D01*
X129324153Y-92170633D01*
X129378981Y-92252689D01*
X129401104Y-92306098D01*
X129409141Y-92325501D01*
X129416747Y-92343865D01*
X129436000Y-92440655D01*
X129436000Y-92539345D01*
X129416747Y-92636135D01*
X129378981Y-92727311D01*
X129378980Y-92727312D01*
X129324152Y-92809369D01*
X129254369Y-92879152D01*
X129213062Y-92906752D01*
X129172311Y-92933981D01*
X129118902Y-92956104D01*
X129081136Y-92971747D01*
X129034955Y-92980933D01*
X128984345Y-92991000D01*
X128885654Y-92991000D01*
X128799284Y-92973820D01*
X128774898Y-92971418D01*
X128750512Y-92973820D01*
X128727063Y-92980933D01*
X128705452Y-92992484D01*
X128686510Y-93008029D01*
X128670965Y-93026971D01*
X128659414Y-93048582D01*
X128652301Y-93072031D01*
X128649899Y-93096417D01*
X128652301Y-93120803D01*
X128659414Y-93144252D01*
X128670966Y-93165863D01*
X128728979Y-93252685D01*
X128766747Y-93343865D01*
X128786000Y-93440655D01*
X128786000Y-93539345D01*
X128766747Y-93636135D01*
X128728981Y-93727311D01*
X128728980Y-93727312D01*
X128674152Y-93809369D01*
X128604369Y-93879152D01*
X128563062Y-93906752D01*
X128522311Y-93933981D01*
X128468902Y-93956104D01*
X128431136Y-93971747D01*
X128382740Y-93981374D01*
X128334345Y-93991000D01*
X128235655Y-93991000D01*
X128187260Y-93981374D01*
X128138864Y-93971747D01*
X128101098Y-93956104D01*
X128047689Y-93933981D01*
X128006938Y-93906752D01*
X127965631Y-93879152D01*
X127895848Y-93809369D01*
X127841020Y-93727312D01*
X127841019Y-93727311D01*
X127803253Y-93636135D01*
X127784000Y-93539345D01*
X127784000Y-93440655D01*
X127803253Y-93343865D01*
X127841021Y-93252685D01*
X127899034Y-93165863D01*
X127910586Y-93144253D01*
X127917699Y-93120804D01*
X127920101Y-93096418D01*
X127917699Y-93072032D01*
X127910586Y-93048583D01*
X127899035Y-93026972D01*
X127883490Y-93008030D01*
X127864548Y-92992485D01*
X127842938Y-92980933D01*
X127819489Y-92973820D01*
X127795103Y-92971418D01*
X127770716Y-92973820D01*
X127684346Y-92991000D01*
X127585654Y-92991000D01*
X127499284Y-92973820D01*
X127474898Y-92971418D01*
X127450512Y-92973820D01*
X127427063Y-92980933D01*
X127405452Y-92992484D01*
X127386510Y-93008029D01*
X127370965Y-93026971D01*
X127359414Y-93048582D01*
X127352301Y-93072031D01*
X127349899Y-93096417D01*
X127352301Y-93120803D01*
X127359414Y-93144252D01*
X127370966Y-93165863D01*
X127428979Y-93252685D01*
X127466747Y-93343865D01*
X127486000Y-93440655D01*
X127486000Y-93539345D01*
X127466747Y-93636135D01*
X127428981Y-93727311D01*
X127428980Y-93727312D01*
X127374152Y-93809369D01*
X127304369Y-93879152D01*
X127263062Y-93906752D01*
X127222311Y-93933981D01*
X127168902Y-93956104D01*
X127131136Y-93971747D01*
X127082740Y-93981374D01*
X127034345Y-93991000D01*
X126935655Y-93991000D01*
X126887260Y-93981374D01*
X126838864Y-93971747D01*
X126801098Y-93956104D01*
X126747689Y-93933981D01*
X126706938Y-93906752D01*
X126665631Y-93879152D01*
X126595848Y-93809369D01*
X126541020Y-93727312D01*
X126541019Y-93727311D01*
X126503253Y-93636135D01*
X126484000Y-93539345D01*
X126484000Y-93440655D01*
X126503253Y-93343865D01*
X126541021Y-93252685D01*
X126599034Y-93165863D01*
X126610586Y-93144253D01*
X126617699Y-93120804D01*
X126620101Y-93096418D01*
X126617699Y-93072032D01*
X126610586Y-93048583D01*
X126599035Y-93026972D01*
X126583490Y-93008030D01*
X126564548Y-92992485D01*
X126542938Y-92980933D01*
X126519489Y-92973820D01*
X126495103Y-92971418D01*
X126470716Y-92973820D01*
X126384346Y-92991000D01*
X126285655Y-92991000D01*
X126235045Y-92980933D01*
X126188864Y-92971747D01*
X126151098Y-92956104D01*
X126097689Y-92933981D01*
X126056938Y-92906752D01*
X126015631Y-92879152D01*
X125945848Y-92809369D01*
X125891020Y-92727312D01*
X125891019Y-92727311D01*
X125853253Y-92636135D01*
X125834000Y-92539345D01*
X125834000Y-92440655D01*
X125853253Y-92343865D01*
X125860860Y-92325501D01*
X125868896Y-92306098D01*
X125891019Y-92252689D01*
X125945847Y-92170633D01*
X125945848Y-92170631D01*
X126015631Y-92100848D01*
X126097688Y-92046020D01*
X126097689Y-92046019D01*
X126151098Y-92023896D01*
X126188864Y-92008253D01*
X126237260Y-91998627D01*
X126285655Y-91989000D01*
X126384345Y-91989000D01*
X126432740Y-91998627D01*
X126432740Y-91998627D01*
G37*
G36*
X124104090Y-92488342D02*
G01*
X124125922Y-92492685D01*
X124167051Y-92509721D01*
X124204067Y-92534454D01*
X124235546Y-92565933D01*
X124260279Y-92602949D01*
X124277315Y-92644078D01*
X124286000Y-92687741D01*
X124286000Y-92732259D01*
X124277315Y-92775922D01*
X124260279Y-92817051D01*
X124235546Y-92854067D01*
X124204067Y-92885546D01*
X124167051Y-92910279D01*
X124125922Y-92927315D01*
X124105300Y-92931417D01*
X124082260Y-92936000D01*
X124037740Y-92936000D01*
X124014700Y-92931417D01*
X123994078Y-92927315D01*
X123952949Y-92910279D01*
X123915933Y-92885546D01*
X123884454Y-92854067D01*
X123859721Y-92817051D01*
X123842685Y-92775922D01*
X123834000Y-92732259D01*
X123834000Y-92687741D01*
X123842685Y-92644078D01*
X123859721Y-92602949D01*
X123884454Y-92565933D01*
X123915933Y-92534454D01*
X123952949Y-92509721D01*
X123994078Y-92492685D01*
X124015909Y-92488343D01*
X124037740Y-92484000D01*
X124082260Y-92484000D01*
X124104090Y-92488342D01*
X124104090Y-92488342D01*
G37*
G36*
X131254090Y-92488342D02*
G01*
X131275922Y-92492685D01*
X131317051Y-92509721D01*
X131354067Y-92534454D01*
X131385546Y-92565933D01*
X131410279Y-92602949D01*
X131427315Y-92644078D01*
X131436000Y-92687741D01*
X131436000Y-92732259D01*
X131427315Y-92775922D01*
X131410279Y-92817051D01*
X131385546Y-92854067D01*
X131354067Y-92885546D01*
X131317051Y-92910279D01*
X131275922Y-92927315D01*
X131255300Y-92931417D01*
X131232260Y-92936000D01*
X131187740Y-92936000D01*
X131164700Y-92931417D01*
X131144078Y-92927315D01*
X131102949Y-92910279D01*
X131065933Y-92885546D01*
X131034454Y-92854067D01*
X131009721Y-92817051D01*
X130992685Y-92775922D01*
X130984000Y-92732259D01*
X130984000Y-92687741D01*
X130992685Y-92644078D01*
X131009721Y-92602949D01*
X131034454Y-92565933D01*
X131065933Y-92534454D01*
X131102949Y-92509721D01*
X131144078Y-92492685D01*
X131165909Y-92488343D01*
X131187740Y-92484000D01*
X131232260Y-92484000D01*
X131254090Y-92488342D01*
X131254090Y-92488342D01*
G37*
G36*
X65007142Y-90912242D02*
G01*
X65155101Y-90973529D01*
X65288255Y-91062499D01*
X65401501Y-91175745D01*
X65490471Y-91308899D01*
X65551758Y-91456858D01*
X65583000Y-91613925D01*
X65583000Y-91774075D01*
X65551758Y-91931142D01*
X65490471Y-92079101D01*
X65401501Y-92212255D01*
X65288255Y-92325501D01*
X65155101Y-92414471D01*
X65007142Y-92475758D01*
X64850075Y-92507000D01*
X64689925Y-92507000D01*
X64532858Y-92475758D01*
X64384899Y-92414471D01*
X64251745Y-92325501D01*
X64138499Y-92212255D01*
X64049529Y-92079101D01*
X63988242Y-91931142D01*
X63957000Y-91774075D01*
X63957000Y-91613925D01*
X63988242Y-91456858D01*
X64049529Y-91308899D01*
X64138499Y-91175745D01*
X64251745Y-91062499D01*
X64384899Y-90973529D01*
X64532858Y-90912242D01*
X64689925Y-90881000D01*
X64850075Y-90881000D01*
X65007142Y-90912242D01*
X65007142Y-90912242D01*
G37*
G36*
X62467142Y-90912242D02*
G01*
X62615101Y-90973529D01*
X62748255Y-91062499D01*
X62861501Y-91175745D01*
X62950471Y-91308899D01*
X63011758Y-91456858D01*
X63043000Y-91613925D01*
X63043000Y-91774075D01*
X63011758Y-91931142D01*
X62950471Y-92079101D01*
X62861501Y-92212255D01*
X62748255Y-92325501D01*
X62615101Y-92414471D01*
X62467142Y-92475758D01*
X62310075Y-92507000D01*
X62149925Y-92507000D01*
X61992858Y-92475758D01*
X61844899Y-92414471D01*
X61711745Y-92325501D01*
X61598499Y-92212255D01*
X61509529Y-92079101D01*
X61448242Y-91931142D01*
X61417000Y-91774075D01*
X61417000Y-91613925D01*
X61448242Y-91456858D01*
X61509529Y-91308899D01*
X61598499Y-91175745D01*
X61711745Y-91062499D01*
X61844899Y-90973529D01*
X61992858Y-90912242D01*
X62149925Y-90881000D01*
X62310075Y-90881000D01*
X62467142Y-90912242D01*
X62467142Y-90912242D01*
G37*
G36*
X65007142Y-88372242D02*
G01*
X65155101Y-88433529D01*
X65288255Y-88522499D01*
X65401501Y-88635745D01*
X65490471Y-88768899D01*
X65551758Y-88916858D01*
X65583000Y-89073925D01*
X65583000Y-89234075D01*
X65551758Y-89391142D01*
X65490471Y-89539101D01*
X65401501Y-89672255D01*
X65288255Y-89785501D01*
X65155101Y-89874471D01*
X65007142Y-89935758D01*
X64850075Y-89967000D01*
X64689925Y-89967000D01*
X64532858Y-89935758D01*
X64384899Y-89874471D01*
X64251745Y-89785501D01*
X64138499Y-89672255D01*
X64049529Y-89539101D01*
X63988242Y-89391142D01*
X63957000Y-89234075D01*
X63957000Y-89073925D01*
X63988242Y-88916858D01*
X64049529Y-88768899D01*
X64138499Y-88635745D01*
X64251745Y-88522499D01*
X64384899Y-88433529D01*
X64532858Y-88372242D01*
X64689925Y-88341000D01*
X64850075Y-88341000D01*
X65007142Y-88372242D01*
X65007142Y-88372242D01*
G37*
G36*
X62467142Y-88372242D02*
G01*
X62615101Y-88433529D01*
X62748255Y-88522499D01*
X62861501Y-88635745D01*
X62950471Y-88768899D01*
X63011758Y-88916858D01*
X63043000Y-89073925D01*
X63043000Y-89234075D01*
X63011758Y-89391142D01*
X62950471Y-89539101D01*
X62861501Y-89672255D01*
X62748255Y-89785501D01*
X62615101Y-89874471D01*
X62467142Y-89935758D01*
X62310075Y-89967000D01*
X62149925Y-89967000D01*
X61992858Y-89935758D01*
X61844899Y-89874471D01*
X61711745Y-89785501D01*
X61598499Y-89672255D01*
X61509529Y-89539101D01*
X61448242Y-89391142D01*
X61417000Y-89234075D01*
X61417000Y-89073925D01*
X61448242Y-88916858D01*
X61509529Y-88768899D01*
X61598499Y-88635745D01*
X61711745Y-88522499D01*
X61844899Y-88433529D01*
X61992858Y-88372242D01*
X62149925Y-88341000D01*
X62310075Y-88341000D01*
X62467142Y-88372242D01*
X62467142Y-88372242D01*
G37*
G36*
X62467142Y-85832242D02*
G01*
X62615101Y-85893529D01*
X62748255Y-85982499D01*
X62861501Y-86095745D01*
X62950471Y-86228899D01*
X63011758Y-86376858D01*
X63043000Y-86533925D01*
X63043000Y-86694075D01*
X63011758Y-86851142D01*
X62950471Y-86999101D01*
X62861501Y-87132255D01*
X62748255Y-87245501D01*
X62615101Y-87334471D01*
X62467142Y-87395758D01*
X62310075Y-87427000D01*
X62149925Y-87427000D01*
X61992858Y-87395758D01*
X61844899Y-87334471D01*
X61711745Y-87245501D01*
X61598499Y-87132255D01*
X61509529Y-86999101D01*
X61448242Y-86851142D01*
X61417000Y-86694075D01*
X61417000Y-86533925D01*
X61448242Y-86376858D01*
X61509529Y-86228899D01*
X61598499Y-86095745D01*
X61711745Y-85982499D01*
X61844899Y-85893529D01*
X61992858Y-85832242D01*
X62149925Y-85801000D01*
X62310075Y-85801000D01*
X62467142Y-85832242D01*
X62467142Y-85832242D01*
G37*
G36*
X65007142Y-85832242D02*
G01*
X65155101Y-85893529D01*
X65288255Y-85982499D01*
X65401501Y-86095745D01*
X65490471Y-86228899D01*
X65551758Y-86376858D01*
X65583000Y-86533925D01*
X65583000Y-86694075D01*
X65551758Y-86851142D01*
X65490471Y-86999101D01*
X65401501Y-87132255D01*
X65288255Y-87245501D01*
X65155101Y-87334471D01*
X65007142Y-87395758D01*
X64850075Y-87427000D01*
X64689925Y-87427000D01*
X64532858Y-87395758D01*
X64384899Y-87334471D01*
X64251745Y-87245501D01*
X64138499Y-87132255D01*
X64049529Y-86999101D01*
X63988242Y-86851142D01*
X63957000Y-86694075D01*
X63957000Y-86533925D01*
X63988242Y-86376858D01*
X64049529Y-86228899D01*
X64138499Y-86095745D01*
X64251745Y-85982499D01*
X64384899Y-85893529D01*
X64532858Y-85832242D01*
X64689925Y-85801000D01*
X64850075Y-85801000D01*
X65007142Y-85832242D01*
X65007142Y-85832242D01*
G37*
G36*
X129740665Y-85485622D02*
G01*
X129814222Y-85492867D01*
X129955786Y-85535810D01*
X130086252Y-85605546D01*
X130116040Y-85629992D01*
X130200607Y-85699393D01*
X130270008Y-85783960D01*
X130294454Y-85813748D01*
X130364190Y-85944214D01*
X130407133Y-86085778D01*
X130421633Y-86233000D01*
X130407133Y-86380222D01*
X130364190Y-86521786D01*
X130294454Y-86652252D01*
X130270008Y-86682040D01*
X130200607Y-86766607D01*
X130140004Y-86816341D01*
X130086252Y-86860454D01*
X129955786Y-86930190D01*
X129814222Y-86973133D01*
X129740665Y-86980378D01*
X129703888Y-86984000D01*
X129630112Y-86984000D01*
X129593335Y-86980378D01*
X129519778Y-86973133D01*
X129378214Y-86930190D01*
X129247748Y-86860454D01*
X129193996Y-86816341D01*
X129133393Y-86766607D01*
X129063992Y-86682040D01*
X129039546Y-86652252D01*
X128969810Y-86521786D01*
X128926867Y-86380222D01*
X128912367Y-86233000D01*
X128926867Y-86085778D01*
X128969810Y-85944214D01*
X129039546Y-85813748D01*
X129063992Y-85783960D01*
X129133393Y-85699393D01*
X129217960Y-85629992D01*
X129247748Y-85605546D01*
X129378214Y-85535810D01*
X129519778Y-85492867D01*
X129593335Y-85485622D01*
X129630112Y-85482000D01*
X129703888Y-85482000D01*
X129740665Y-85485622D01*
X129740665Y-85485622D01*
G37*
G36*
X122266059Y-85510860D02*
G01*
X122326294Y-85535810D01*
X122402732Y-85567472D01*
X122525735Y-85649660D01*
X122630340Y-85754265D01*
X122682443Y-85832243D01*
X122712529Y-85877270D01*
X122769140Y-86013941D01*
X122798000Y-86159032D01*
X122798000Y-86306968D01*
X122769140Y-86452059D01*
X122735230Y-86533926D01*
X122712528Y-86588732D01*
X122630340Y-86711735D01*
X122525735Y-86816340D01*
X122402732Y-86898528D01*
X122402731Y-86898529D01*
X122402730Y-86898529D01*
X122266059Y-86955140D01*
X122120968Y-86984000D01*
X121973032Y-86984000D01*
X121827941Y-86955140D01*
X121691270Y-86898529D01*
X121691269Y-86898529D01*
X121691268Y-86898528D01*
X121568265Y-86816340D01*
X121463660Y-86711735D01*
X121381472Y-86588732D01*
X121358771Y-86533926D01*
X121324860Y-86452059D01*
X121296000Y-86306968D01*
X121296000Y-86159032D01*
X121324860Y-86013941D01*
X121381471Y-85877270D01*
X121411557Y-85832243D01*
X121463660Y-85754265D01*
X121568265Y-85649660D01*
X121691268Y-85567472D01*
X121767707Y-85535810D01*
X121827941Y-85510860D01*
X121973032Y-85482000D01*
X122120968Y-85482000D01*
X122266059Y-85510860D01*
X122266059Y-85510860D01*
G37*
G36*
X65007142Y-83292242D02*
G01*
X65155101Y-83353529D01*
X65288255Y-83442499D01*
X65401501Y-83555745D01*
X65490471Y-83688899D01*
X65551758Y-83836858D01*
X65583000Y-83993925D01*
X65583000Y-84154075D01*
X65551758Y-84311142D01*
X65490471Y-84459101D01*
X65401501Y-84592255D01*
X65288255Y-84705501D01*
X65155101Y-84794471D01*
X65007142Y-84855758D01*
X64850075Y-84887000D01*
X64689925Y-84887000D01*
X64532858Y-84855758D01*
X64384899Y-84794471D01*
X64251745Y-84705501D01*
X64138499Y-84592255D01*
X64049529Y-84459101D01*
X63988242Y-84311142D01*
X63957000Y-84154075D01*
X63957000Y-83993925D01*
X63988242Y-83836858D01*
X64049529Y-83688899D01*
X64138499Y-83555745D01*
X64251745Y-83442499D01*
X64384899Y-83353529D01*
X64532858Y-83292242D01*
X64689925Y-83261000D01*
X64850075Y-83261000D01*
X65007142Y-83292242D01*
X65007142Y-83292242D01*
G37*
G36*
X62467142Y-83292242D02*
G01*
X62615101Y-83353529D01*
X62748255Y-83442499D01*
X62861501Y-83555745D01*
X62950471Y-83688899D01*
X63011758Y-83836858D01*
X63043000Y-83993925D01*
X63043000Y-84154075D01*
X63011758Y-84311142D01*
X62950471Y-84459101D01*
X62861501Y-84592255D01*
X62748255Y-84705501D01*
X62615101Y-84794471D01*
X62467142Y-84855758D01*
X62310075Y-84887000D01*
X62149925Y-84887000D01*
X61992858Y-84855758D01*
X61844899Y-84794471D01*
X61711745Y-84705501D01*
X61598499Y-84592255D01*
X61509529Y-84459101D01*
X61448242Y-84311142D01*
X61417000Y-84154075D01*
X61417000Y-83993925D01*
X61448242Y-83836858D01*
X61509529Y-83688899D01*
X61598499Y-83555745D01*
X61711745Y-83442499D01*
X61844899Y-83353529D01*
X61992858Y-83292242D01*
X62149925Y-83261000D01*
X62310075Y-83261000D01*
X62467142Y-83292242D01*
X62467142Y-83292242D01*
G37*
G36*
X127327665Y-83199622D02*
G01*
X127401222Y-83206867D01*
X127542786Y-83249810D01*
X127673252Y-83319546D01*
X127703040Y-83343992D01*
X127787607Y-83413393D01*
X127857008Y-83497960D01*
X127881454Y-83527748D01*
X127951190Y-83658214D01*
X127994133Y-83799778D01*
X128008633Y-83947000D01*
X127994133Y-84094222D01*
X127951190Y-84235786D01*
X127881454Y-84366252D01*
X127857008Y-84396040D01*
X127787607Y-84480607D01*
X127727004Y-84530341D01*
X127673252Y-84574454D01*
X127542786Y-84644190D01*
X127401222Y-84687133D01*
X127327665Y-84694378D01*
X127290888Y-84698000D01*
X127217112Y-84698000D01*
X127180335Y-84694378D01*
X127106778Y-84687133D01*
X126965214Y-84644190D01*
X126834748Y-84574454D01*
X126780996Y-84530341D01*
X126720393Y-84480607D01*
X126650992Y-84396040D01*
X126626546Y-84366252D01*
X126556810Y-84235786D01*
X126513867Y-84094222D01*
X126499367Y-83947000D01*
X126513867Y-83799778D01*
X126556810Y-83658214D01*
X126626546Y-83527748D01*
X126650992Y-83497960D01*
X126720393Y-83413393D01*
X126804960Y-83343992D01*
X126834748Y-83319546D01*
X126965214Y-83249810D01*
X127106778Y-83206867D01*
X127180335Y-83199622D01*
X127217112Y-83196000D01*
X127290888Y-83196000D01*
X127327665Y-83199622D01*
X127327665Y-83199622D01*
G37*
G36*
X119853059Y-83224860D02*
G01*
X119940309Y-83261000D01*
X119989732Y-83281472D01*
X120112735Y-83363660D01*
X120217340Y-83468265D01*
X120275791Y-83555743D01*
X120299529Y-83591270D01*
X120356140Y-83727941D01*
X120377805Y-83836858D01*
X120385000Y-83873033D01*
X120385000Y-84020967D01*
X120356140Y-84166059D01*
X120299528Y-84302732D01*
X120217340Y-84425735D01*
X120112735Y-84530340D01*
X119989732Y-84612528D01*
X119989731Y-84612529D01*
X119989730Y-84612529D01*
X119853059Y-84669140D01*
X119707968Y-84698000D01*
X119560032Y-84698000D01*
X119414941Y-84669140D01*
X119278270Y-84612529D01*
X119278269Y-84612529D01*
X119278268Y-84612528D01*
X119155265Y-84530340D01*
X119050660Y-84425735D01*
X118968472Y-84302732D01*
X118911860Y-84166059D01*
X118883000Y-84020967D01*
X118883000Y-83873033D01*
X118890196Y-83836858D01*
X118911860Y-83727941D01*
X118968471Y-83591270D01*
X118992209Y-83555743D01*
X119050660Y-83468265D01*
X119155265Y-83363660D01*
X119278268Y-83281472D01*
X119327692Y-83261000D01*
X119414941Y-83224860D01*
X119560032Y-83196000D01*
X119707968Y-83196000D01*
X119853059Y-83224860D01*
X119853059Y-83224860D01*
G37*
G36*
X124914665Y-80913622D02*
G01*
X124988222Y-80920867D01*
X125129786Y-80963810D01*
X125260252Y-81033546D01*
X125290040Y-81057992D01*
X125374607Y-81127393D01*
X125444008Y-81211960D01*
X125468454Y-81241748D01*
X125538190Y-81372214D01*
X125581133Y-81513778D01*
X125595633Y-81661000D01*
X125581133Y-81808222D01*
X125538190Y-81949786D01*
X125468454Y-82080252D01*
X125444008Y-82110040D01*
X125374607Y-82194607D01*
X125290040Y-82264008D01*
X125260252Y-82288454D01*
X125129786Y-82358190D01*
X124988222Y-82401133D01*
X124914665Y-82408378D01*
X124877888Y-82412000D01*
X124804112Y-82412000D01*
X124767335Y-82408378D01*
X124693778Y-82401133D01*
X124552214Y-82358190D01*
X124421748Y-82288454D01*
X124391960Y-82264008D01*
X124307393Y-82194607D01*
X124237992Y-82110040D01*
X124213546Y-82080252D01*
X124143810Y-81949786D01*
X124100867Y-81808222D01*
X124086367Y-81661000D01*
X124100867Y-81513778D01*
X124143810Y-81372214D01*
X124213546Y-81241748D01*
X124237992Y-81211960D01*
X124307393Y-81127393D01*
X124391960Y-81057992D01*
X124421748Y-81033546D01*
X124552214Y-80963810D01*
X124693778Y-80920867D01*
X124767335Y-80913622D01*
X124804112Y-80910000D01*
X124877888Y-80910000D01*
X124914665Y-80913622D01*
X124914665Y-80913622D01*
G37*
G36*
X117440059Y-80938860D02*
G01*
X117500294Y-80963810D01*
X117576732Y-80995472D01*
X117699735Y-81077660D01*
X117804340Y-81182265D01*
X117886528Y-81305268D01*
X117886529Y-81305270D01*
X117943140Y-81441941D01*
X117972000Y-81587032D01*
X117972000Y-81734968D01*
X117964804Y-81771143D01*
X117943140Y-81880059D01*
X117886528Y-82016732D01*
X117804340Y-82139735D01*
X117699735Y-82244340D01*
X117576732Y-82326528D01*
X117576731Y-82326529D01*
X117576730Y-82326529D01*
X117440059Y-82383140D01*
X117294968Y-82412000D01*
X117147032Y-82412000D01*
X117001941Y-82383140D01*
X116865270Y-82326529D01*
X116865269Y-82326529D01*
X116865268Y-82326528D01*
X116742265Y-82244340D01*
X116637660Y-82139735D01*
X116555472Y-82016732D01*
X116498860Y-81880059D01*
X116477196Y-81771143D01*
X116470000Y-81734968D01*
X116470000Y-81587032D01*
X116498860Y-81441941D01*
X116555471Y-81305270D01*
X116555472Y-81305268D01*
X116637660Y-81182265D01*
X116742265Y-81077660D01*
X116865268Y-80995472D01*
X116941707Y-80963810D01*
X117001941Y-80938860D01*
X117147032Y-80910000D01*
X117294968Y-80910000D01*
X117440059Y-80938860D01*
X117440059Y-80938860D01*
G37*
G36*
X65007142Y-80752242D02*
G01*
X65155101Y-80813529D01*
X65288255Y-80902499D01*
X65401501Y-81015745D01*
X65490471Y-81148899D01*
X65551758Y-81296858D01*
X65583000Y-81453925D01*
X65583000Y-81614075D01*
X65551758Y-81771142D01*
X65490471Y-81919101D01*
X65401501Y-82052255D01*
X65288255Y-82165501D01*
X65155101Y-82254471D01*
X65007142Y-82315758D01*
X64850075Y-82347000D01*
X64689925Y-82347000D01*
X64532858Y-82315758D01*
X64384899Y-82254471D01*
X64251745Y-82165501D01*
X64138499Y-82052255D01*
X64049529Y-81919101D01*
X63988242Y-81771142D01*
X63957000Y-81614075D01*
X63957000Y-81453925D01*
X63988242Y-81296858D01*
X64049529Y-81148899D01*
X64138499Y-81015745D01*
X64251745Y-80902499D01*
X64384899Y-80813529D01*
X64532858Y-80752242D01*
X64689925Y-80721000D01*
X64850075Y-80721000D01*
X65007142Y-80752242D01*
X65007142Y-80752242D01*
G37*
G36*
X62467142Y-80752242D02*
G01*
X62615101Y-80813529D01*
X62748255Y-80902499D01*
X62861501Y-81015745D01*
X62950471Y-81148899D01*
X63011758Y-81296858D01*
X63043000Y-81453925D01*
X63043000Y-81614075D01*
X63011758Y-81771142D01*
X62950471Y-81919101D01*
X62861501Y-82052255D01*
X62748255Y-82165501D01*
X62615101Y-82254471D01*
X62467142Y-82315758D01*
X62310075Y-82347000D01*
X62149925Y-82347000D01*
X61992858Y-82315758D01*
X61844899Y-82254471D01*
X61711745Y-82165501D01*
X61598499Y-82052255D01*
X61509529Y-81919101D01*
X61448242Y-81771142D01*
X61417000Y-81614075D01*
X61417000Y-81453925D01*
X61448242Y-81296858D01*
X61509529Y-81148899D01*
X61598499Y-81015745D01*
X61711745Y-80902499D01*
X61844899Y-80813529D01*
X61992858Y-80752242D01*
X62149925Y-80721000D01*
X62310075Y-80721000D01*
X62467142Y-80752242D01*
X62467142Y-80752242D01*
G37*
G36*
X65007142Y-78212242D02*
G01*
X65155101Y-78273529D01*
X65288255Y-78362499D01*
X65401501Y-78475745D01*
X65490471Y-78608899D01*
X65551758Y-78756858D01*
X65583000Y-78913925D01*
X65583000Y-79074075D01*
X65551758Y-79231142D01*
X65490471Y-79379101D01*
X65401501Y-79512255D01*
X65288255Y-79625501D01*
X65155101Y-79714471D01*
X65007142Y-79775758D01*
X64850075Y-79807000D01*
X64689925Y-79807000D01*
X64532858Y-79775758D01*
X64384899Y-79714471D01*
X64251745Y-79625501D01*
X64138499Y-79512255D01*
X64049529Y-79379101D01*
X63988242Y-79231142D01*
X63957000Y-79074075D01*
X63957000Y-78913925D01*
X63988242Y-78756858D01*
X64049529Y-78608899D01*
X64138499Y-78475745D01*
X64251745Y-78362499D01*
X64384899Y-78273529D01*
X64532858Y-78212242D01*
X64689925Y-78181000D01*
X64850075Y-78181000D01*
X65007142Y-78212242D01*
X65007142Y-78212242D01*
G37*
G36*
X62467142Y-78212242D02*
G01*
X62615101Y-78273529D01*
X62748255Y-78362499D01*
X62861501Y-78475745D01*
X62950471Y-78608899D01*
X63011758Y-78756858D01*
X63043000Y-78913925D01*
X63043000Y-79074075D01*
X63011758Y-79231142D01*
X62950471Y-79379101D01*
X62861501Y-79512255D01*
X62748255Y-79625501D01*
X62615101Y-79714471D01*
X62467142Y-79775758D01*
X62310075Y-79807000D01*
X62149925Y-79807000D01*
X61992858Y-79775758D01*
X61844899Y-79714471D01*
X61711745Y-79625501D01*
X61598499Y-79512255D01*
X61509529Y-79379101D01*
X61448242Y-79231142D01*
X61417000Y-79074075D01*
X61417000Y-78913925D01*
X61448242Y-78756858D01*
X61509529Y-78608899D01*
X61598499Y-78475745D01*
X61711745Y-78362499D01*
X61844899Y-78273529D01*
X61992858Y-78212242D01*
X62149925Y-78181000D01*
X62310075Y-78181000D01*
X62467142Y-78212242D01*
X62467142Y-78212242D01*
G37*
G36*
X128547395Y-76936546D02*
G01*
X128720466Y-77008234D01*
X128720467Y-77008235D01*
X128876227Y-77112310D01*
X129008690Y-77244773D01*
X129061081Y-77323182D01*
X129112766Y-77400534D01*
X129184454Y-77573605D01*
X129221000Y-77757333D01*
X129221000Y-77944667D01*
X129184454Y-78128395D01*
X129112766Y-78301466D01*
X129112765Y-78301467D01*
X129008690Y-78457227D01*
X128876227Y-78589690D01*
X128847477Y-78608900D01*
X128720466Y-78693766D01*
X128547395Y-78765454D01*
X128363667Y-78802000D01*
X128176333Y-78802000D01*
X127992605Y-78765454D01*
X127819534Y-78693766D01*
X127692523Y-78608900D01*
X127663773Y-78589690D01*
X127531310Y-78457227D01*
X127427235Y-78301467D01*
X127427234Y-78301466D01*
X127355546Y-78128395D01*
X127319000Y-77944667D01*
X127319000Y-77757333D01*
X127355546Y-77573605D01*
X127427234Y-77400534D01*
X127478919Y-77323182D01*
X127531310Y-77244773D01*
X127663773Y-77112310D01*
X127819533Y-77008235D01*
X127819534Y-77008234D01*
X127992605Y-76936546D01*
X128176333Y-76900000D01*
X128363667Y-76900000D01*
X128547395Y-76936546D01*
X128547395Y-76936546D01*
G37*
G36*
X116747395Y-76936546D02*
G01*
X116920466Y-77008234D01*
X116920467Y-77008235D01*
X117076227Y-77112310D01*
X117208690Y-77244773D01*
X117261081Y-77323182D01*
X117312766Y-77400534D01*
X117384454Y-77573605D01*
X117421000Y-77757333D01*
X117421000Y-77944667D01*
X117384454Y-78128395D01*
X117312766Y-78301466D01*
X117312765Y-78301467D01*
X117208690Y-78457227D01*
X117076227Y-78589690D01*
X117047477Y-78608900D01*
X116920466Y-78693766D01*
X116747395Y-78765454D01*
X116563667Y-78802000D01*
X116376333Y-78802000D01*
X116192605Y-78765454D01*
X116019534Y-78693766D01*
X115892523Y-78608900D01*
X115863773Y-78589690D01*
X115731310Y-78457227D01*
X115627235Y-78301467D01*
X115627234Y-78301466D01*
X115555546Y-78128395D01*
X115519000Y-77944667D01*
X115519000Y-77757333D01*
X115555546Y-77573605D01*
X115627234Y-77400534D01*
X115678919Y-77323182D01*
X115731310Y-77244773D01*
X115863773Y-77112310D01*
X116019533Y-77008235D01*
X116019534Y-77008234D01*
X116192605Y-76936546D01*
X116376333Y-76900000D01*
X116563667Y-76900000D01*
X116747395Y-76936546D01*
X116747395Y-76936546D01*
G37*
G36*
X119961000Y-78802000D02*
G01*
X118059000Y-78802000D01*
X118059000Y-76900000D01*
X119961000Y-76900000D01*
X119961000Y-78802000D01*
X119961000Y-78802000D01*
G37*
G36*
X122647395Y-76936546D02*
G01*
X122820466Y-77008234D01*
X122820467Y-77008235D01*
X122976227Y-77112310D01*
X123108690Y-77244773D01*
X123161081Y-77323182D01*
X123212766Y-77400534D01*
X123284454Y-77573605D01*
X123321000Y-77757333D01*
X123321000Y-77944667D01*
X123284454Y-78128395D01*
X123212766Y-78301466D01*
X123212765Y-78301467D01*
X123108690Y-78457227D01*
X122976227Y-78589690D01*
X122947477Y-78608900D01*
X122820466Y-78693766D01*
X122647395Y-78765454D01*
X122463667Y-78802000D01*
X122276333Y-78802000D01*
X122092605Y-78765454D01*
X121919534Y-78693766D01*
X121792523Y-78608900D01*
X121763773Y-78589690D01*
X121631310Y-78457227D01*
X121527235Y-78301467D01*
X121527234Y-78301466D01*
X121455546Y-78128395D01*
X121419000Y-77944667D01*
X121419000Y-77757333D01*
X121455546Y-77573605D01*
X121527234Y-77400534D01*
X121578919Y-77323182D01*
X121631310Y-77244773D01*
X121763773Y-77112310D01*
X121919533Y-77008235D01*
X121919534Y-77008234D01*
X122092605Y-76936546D01*
X122276333Y-76900000D01*
X122463667Y-76900000D01*
X122647395Y-76936546D01*
X122647395Y-76936546D01*
G37*
G36*
X125861000Y-78802000D02*
G01*
X123959000Y-78802000D01*
X123959000Y-76900000D01*
X125861000Y-76900000D01*
X125861000Y-78802000D01*
X125861000Y-78802000D01*
G37*
G36*
X131761000Y-78802000D02*
G01*
X129859000Y-78802000D01*
X129859000Y-76900000D01*
X131761000Y-76900000D01*
X131761000Y-78802000D01*
X131761000Y-78802000D01*
G37*
G36*
X62467142Y-75672242D02*
G01*
X62615101Y-75733529D01*
X62748255Y-75822499D01*
X62861501Y-75935745D01*
X62950471Y-76068899D01*
X63011758Y-76216858D01*
X63043000Y-76373925D01*
X63043000Y-76534075D01*
X63011758Y-76691142D01*
X62950471Y-76839101D01*
X62861501Y-76972255D01*
X62748255Y-77085501D01*
X62615101Y-77174471D01*
X62467142Y-77235758D01*
X62310075Y-77267000D01*
X62149925Y-77267000D01*
X61992858Y-77235758D01*
X61844899Y-77174471D01*
X61711745Y-77085501D01*
X61598499Y-76972255D01*
X61509529Y-76839101D01*
X61448242Y-76691142D01*
X61417000Y-76534075D01*
X61417000Y-76373925D01*
X61448242Y-76216858D01*
X61509529Y-76068899D01*
X61598499Y-75935745D01*
X61711745Y-75822499D01*
X61844899Y-75733529D01*
X61992858Y-75672242D01*
X62149925Y-75641000D01*
X62310075Y-75641000D01*
X62467142Y-75672242D01*
X62467142Y-75672242D01*
G37*
G36*
X65007142Y-75672242D02*
G01*
X65155101Y-75733529D01*
X65288255Y-75822499D01*
X65401501Y-75935745D01*
X65490471Y-76068899D01*
X65551758Y-76216858D01*
X65583000Y-76373925D01*
X65583000Y-76534075D01*
X65551758Y-76691142D01*
X65490471Y-76839101D01*
X65401501Y-76972255D01*
X65288255Y-77085501D01*
X65155101Y-77174471D01*
X65007142Y-77235758D01*
X64850075Y-77267000D01*
X64689925Y-77267000D01*
X64532858Y-77235758D01*
X64384899Y-77174471D01*
X64251745Y-77085501D01*
X64138499Y-76972255D01*
X64049529Y-76839101D01*
X63988242Y-76691142D01*
X63957000Y-76534075D01*
X63957000Y-76373925D01*
X63988242Y-76216858D01*
X64049529Y-76068899D01*
X64138499Y-75935745D01*
X64251745Y-75822499D01*
X64384899Y-75733529D01*
X64532858Y-75672242D01*
X64689925Y-75641000D01*
X64850075Y-75641000D01*
X65007142Y-75672242D01*
X65007142Y-75672242D01*
G37*
G36*
X65007142Y-73132242D02*
G01*
X65155101Y-73193529D01*
X65288255Y-73282499D01*
X65401501Y-73395745D01*
X65490471Y-73528899D01*
X65551758Y-73676858D01*
X65583000Y-73833925D01*
X65583000Y-73994075D01*
X65551758Y-74151142D01*
X65490471Y-74299101D01*
X65401501Y-74432255D01*
X65288255Y-74545501D01*
X65155101Y-74634471D01*
X65007142Y-74695758D01*
X64850075Y-74727000D01*
X64689925Y-74727000D01*
X64532858Y-74695758D01*
X64384899Y-74634471D01*
X64251745Y-74545501D01*
X64138499Y-74432255D01*
X64049529Y-74299101D01*
X63988242Y-74151142D01*
X63957000Y-73994075D01*
X63957000Y-73833925D01*
X63988242Y-73676858D01*
X64049529Y-73528899D01*
X64138499Y-73395745D01*
X64251745Y-73282499D01*
X64384899Y-73193529D01*
X64532858Y-73132242D01*
X64689925Y-73101000D01*
X64850075Y-73101000D01*
X65007142Y-73132242D01*
X65007142Y-73132242D01*
G37*
G36*
X62467142Y-73132242D02*
G01*
X62615101Y-73193529D01*
X62748255Y-73282499D01*
X62861501Y-73395745D01*
X62950471Y-73528899D01*
X63011758Y-73676858D01*
X63043000Y-73833925D01*
X63043000Y-73994075D01*
X63011758Y-74151142D01*
X62950471Y-74299101D01*
X62861501Y-74432255D01*
X62748255Y-74545501D01*
X62615101Y-74634471D01*
X62467142Y-74695758D01*
X62310075Y-74727000D01*
X62149925Y-74727000D01*
X61992858Y-74695758D01*
X61844899Y-74634471D01*
X61711745Y-74545501D01*
X61598499Y-74432255D01*
X61509529Y-74299101D01*
X61448242Y-74151142D01*
X61417000Y-73994075D01*
X61417000Y-73833925D01*
X61448242Y-73676858D01*
X61509529Y-73528899D01*
X61598499Y-73395745D01*
X61711745Y-73282499D01*
X61844899Y-73193529D01*
X61992858Y-73132242D01*
X62149925Y-73101000D01*
X62310075Y-73101000D01*
X62467142Y-73132242D01*
X62467142Y-73132242D01*
G37*
G36*
X65007142Y-70592242D02*
G01*
X65155101Y-70653529D01*
X65288255Y-70742499D01*
X65401501Y-70855745D01*
X65490471Y-70988899D01*
X65551758Y-71136858D01*
X65583000Y-71293925D01*
X65583000Y-71454075D01*
X65551758Y-71611142D01*
X65490471Y-71759101D01*
X65401501Y-71892255D01*
X65288255Y-72005501D01*
X65155101Y-72094471D01*
X65007142Y-72155758D01*
X64850075Y-72187000D01*
X64689925Y-72187000D01*
X64532858Y-72155758D01*
X64384899Y-72094471D01*
X64251745Y-72005501D01*
X64138499Y-71892255D01*
X64049529Y-71759101D01*
X63988242Y-71611142D01*
X63957000Y-71454075D01*
X63957000Y-71293925D01*
X63988242Y-71136858D01*
X64049529Y-70988899D01*
X64138499Y-70855745D01*
X64251745Y-70742499D01*
X64384899Y-70653529D01*
X64532858Y-70592242D01*
X64689925Y-70561000D01*
X64850075Y-70561000D01*
X65007142Y-70592242D01*
X65007142Y-70592242D01*
G37*
G36*
X62467142Y-70592242D02*
G01*
X62615101Y-70653529D01*
X62748255Y-70742499D01*
X62861501Y-70855745D01*
X62950471Y-70988899D01*
X63011758Y-71136858D01*
X63043000Y-71293925D01*
X63043000Y-71454075D01*
X63011758Y-71611142D01*
X62950471Y-71759101D01*
X62861501Y-71892255D01*
X62748255Y-72005501D01*
X62615101Y-72094471D01*
X62467142Y-72155758D01*
X62310075Y-72187000D01*
X62149925Y-72187000D01*
X61992858Y-72155758D01*
X61844899Y-72094471D01*
X61711745Y-72005501D01*
X61598499Y-71892255D01*
X61509529Y-71759101D01*
X61448242Y-71611142D01*
X61417000Y-71454075D01*
X61417000Y-71293925D01*
X61448242Y-71136858D01*
X61509529Y-70988899D01*
X61598499Y-70855745D01*
X61711745Y-70742499D01*
X61844899Y-70653529D01*
X61992858Y-70592242D01*
X62149925Y-70561000D01*
X62310075Y-70561000D01*
X62467142Y-70592242D01*
X62467142Y-70592242D01*
G37*
G36*
X131025200Y-70039800D02*
G01*
X129223200Y-70039800D01*
X129223200Y-68237800D01*
X131025200Y-68237800D01*
X131025200Y-70039800D01*
X131025200Y-70039800D01*
G37*
G36*
X122614642Y-68244318D02*
G01*
X122680827Y-68250837D01*
X122850666Y-68302357D01*
X123007191Y-68386022D01*
X123042929Y-68415352D01*
X123144386Y-68498614D01*
X123225011Y-68596857D01*
X123256978Y-68635809D01*
X123340643Y-68792334D01*
X123392163Y-68962173D01*
X123409559Y-69138800D01*
X123392163Y-69315427D01*
X123340643Y-69485266D01*
X123256978Y-69641791D01*
X123252703Y-69647000D01*
X123144386Y-69778986D01*
X123042929Y-69862248D01*
X123007191Y-69891578D01*
X122850666Y-69975243D01*
X122680827Y-70026763D01*
X122614643Y-70033281D01*
X122548460Y-70039800D01*
X122459940Y-70039800D01*
X122393757Y-70033281D01*
X122327573Y-70026763D01*
X122157734Y-69975243D01*
X122001209Y-69891578D01*
X121965471Y-69862248D01*
X121864014Y-69778986D01*
X121755697Y-69647000D01*
X121751422Y-69641791D01*
X121667757Y-69485266D01*
X121616237Y-69315427D01*
X121598841Y-69138800D01*
X121616237Y-68962173D01*
X121667757Y-68792334D01*
X121751422Y-68635809D01*
X121783389Y-68596857D01*
X121864014Y-68498614D01*
X121965471Y-68415352D01*
X122001209Y-68386022D01*
X122157734Y-68302357D01*
X122327573Y-68250837D01*
X122393758Y-68244318D01*
X122459940Y-68237800D01*
X122548460Y-68237800D01*
X122614642Y-68244318D01*
X122614642Y-68244318D01*
G37*
G36*
X109914642Y-68244318D02*
G01*
X109980827Y-68250837D01*
X110150666Y-68302357D01*
X110307191Y-68386022D01*
X110342929Y-68415352D01*
X110444386Y-68498614D01*
X110525011Y-68596857D01*
X110556978Y-68635809D01*
X110640643Y-68792334D01*
X110692163Y-68962173D01*
X110709559Y-69138800D01*
X110692163Y-69315427D01*
X110640643Y-69485266D01*
X110556978Y-69641791D01*
X110552703Y-69647000D01*
X110444386Y-69778986D01*
X110342929Y-69862248D01*
X110307191Y-69891578D01*
X110150666Y-69975243D01*
X109980827Y-70026763D01*
X109914643Y-70033281D01*
X109848460Y-70039800D01*
X109759940Y-70039800D01*
X109693757Y-70033281D01*
X109627573Y-70026763D01*
X109457734Y-69975243D01*
X109301209Y-69891578D01*
X109265471Y-69862248D01*
X109164014Y-69778986D01*
X109055697Y-69647000D01*
X109051422Y-69641791D01*
X108967757Y-69485266D01*
X108916237Y-69315427D01*
X108898841Y-69138800D01*
X108916237Y-68962173D01*
X108967757Y-68792334D01*
X109051422Y-68635809D01*
X109083389Y-68596857D01*
X109164014Y-68498614D01*
X109265471Y-68415352D01*
X109301209Y-68386022D01*
X109457734Y-68302357D01*
X109627573Y-68250837D01*
X109693758Y-68244318D01*
X109759940Y-68237800D01*
X109848460Y-68237800D01*
X109914642Y-68244318D01*
X109914642Y-68244318D01*
G37*
G36*
X107374642Y-68244318D02*
G01*
X107440827Y-68250837D01*
X107610666Y-68302357D01*
X107767191Y-68386022D01*
X107802929Y-68415352D01*
X107904386Y-68498614D01*
X107985011Y-68596857D01*
X108016978Y-68635809D01*
X108100643Y-68792334D01*
X108152163Y-68962173D01*
X108169559Y-69138800D01*
X108152163Y-69315427D01*
X108100643Y-69485266D01*
X108016978Y-69641791D01*
X108012703Y-69647000D01*
X107904386Y-69778986D01*
X107802929Y-69862248D01*
X107767191Y-69891578D01*
X107610666Y-69975243D01*
X107440827Y-70026763D01*
X107374643Y-70033281D01*
X107308460Y-70039800D01*
X107219940Y-70039800D01*
X107153757Y-70033281D01*
X107087573Y-70026763D01*
X106917734Y-69975243D01*
X106761209Y-69891578D01*
X106725471Y-69862248D01*
X106624014Y-69778986D01*
X106515697Y-69647000D01*
X106511422Y-69641791D01*
X106427757Y-69485266D01*
X106376237Y-69315427D01*
X106358841Y-69138800D01*
X106376237Y-68962173D01*
X106427757Y-68792334D01*
X106511422Y-68635809D01*
X106543389Y-68596857D01*
X106624014Y-68498614D01*
X106725471Y-68415352D01*
X106761209Y-68386022D01*
X106917734Y-68302357D01*
X107087573Y-68250837D01*
X107153758Y-68244318D01*
X107219940Y-68237800D01*
X107308460Y-68237800D01*
X107374642Y-68244318D01*
X107374642Y-68244318D01*
G37*
G36*
X104834642Y-68244318D02*
G01*
X104900827Y-68250837D01*
X105070666Y-68302357D01*
X105227191Y-68386022D01*
X105262929Y-68415352D01*
X105364386Y-68498614D01*
X105445011Y-68596857D01*
X105476978Y-68635809D01*
X105560643Y-68792334D01*
X105612163Y-68962173D01*
X105629559Y-69138800D01*
X105612163Y-69315427D01*
X105560643Y-69485266D01*
X105476978Y-69641791D01*
X105472703Y-69647000D01*
X105364386Y-69778986D01*
X105262929Y-69862248D01*
X105227191Y-69891578D01*
X105070666Y-69975243D01*
X104900827Y-70026763D01*
X104834643Y-70033281D01*
X104768460Y-70039800D01*
X104679940Y-70039800D01*
X104613757Y-70033281D01*
X104547573Y-70026763D01*
X104377734Y-69975243D01*
X104221209Y-69891578D01*
X104185471Y-69862248D01*
X104084014Y-69778986D01*
X103975697Y-69647000D01*
X103971422Y-69641791D01*
X103887757Y-69485266D01*
X103836237Y-69315427D01*
X103818841Y-69138800D01*
X103836237Y-68962173D01*
X103887757Y-68792334D01*
X103971422Y-68635809D01*
X104003389Y-68596857D01*
X104084014Y-68498614D01*
X104185471Y-68415352D01*
X104221209Y-68386022D01*
X104377734Y-68302357D01*
X104547573Y-68250837D01*
X104613758Y-68244318D01*
X104679940Y-68237800D01*
X104768460Y-68237800D01*
X104834642Y-68244318D01*
X104834642Y-68244318D01*
G37*
G36*
X102294642Y-68244318D02*
G01*
X102360827Y-68250837D01*
X102530666Y-68302357D01*
X102687191Y-68386022D01*
X102722929Y-68415352D01*
X102824386Y-68498614D01*
X102905011Y-68596857D01*
X102936978Y-68635809D01*
X103020643Y-68792334D01*
X103072163Y-68962173D01*
X103089559Y-69138800D01*
X103072163Y-69315427D01*
X103020643Y-69485266D01*
X102936978Y-69641791D01*
X102932703Y-69647000D01*
X102824386Y-69778986D01*
X102722929Y-69862248D01*
X102687191Y-69891578D01*
X102530666Y-69975243D01*
X102360827Y-70026763D01*
X102294643Y-70033281D01*
X102228460Y-70039800D01*
X102139940Y-70039800D01*
X102073757Y-70033281D01*
X102007573Y-70026763D01*
X101837734Y-69975243D01*
X101681209Y-69891578D01*
X101645471Y-69862248D01*
X101544014Y-69778986D01*
X101435697Y-69647000D01*
X101431422Y-69641791D01*
X101347757Y-69485266D01*
X101296237Y-69315427D01*
X101278841Y-69138800D01*
X101296237Y-68962173D01*
X101347757Y-68792334D01*
X101431422Y-68635809D01*
X101463389Y-68596857D01*
X101544014Y-68498614D01*
X101645471Y-68415352D01*
X101681209Y-68386022D01*
X101837734Y-68302357D01*
X102007573Y-68250837D01*
X102073758Y-68244318D01*
X102139940Y-68237800D01*
X102228460Y-68237800D01*
X102294642Y-68244318D01*
X102294642Y-68244318D01*
G37*
G36*
X99754642Y-68244318D02*
G01*
X99820827Y-68250837D01*
X99990666Y-68302357D01*
X100147191Y-68386022D01*
X100182929Y-68415352D01*
X100284386Y-68498614D01*
X100365011Y-68596857D01*
X100396978Y-68635809D01*
X100480643Y-68792334D01*
X100532163Y-68962173D01*
X100549559Y-69138800D01*
X100532163Y-69315427D01*
X100480643Y-69485266D01*
X100396978Y-69641791D01*
X100392703Y-69647000D01*
X100284386Y-69778986D01*
X100182929Y-69862248D01*
X100147191Y-69891578D01*
X99990666Y-69975243D01*
X99820827Y-70026763D01*
X99754643Y-70033281D01*
X99688460Y-70039800D01*
X99599940Y-70039800D01*
X99533757Y-70033281D01*
X99467573Y-70026763D01*
X99297734Y-69975243D01*
X99141209Y-69891578D01*
X99105471Y-69862248D01*
X99004014Y-69778986D01*
X98895697Y-69647000D01*
X98891422Y-69641791D01*
X98807757Y-69485266D01*
X98756237Y-69315427D01*
X98738841Y-69138800D01*
X98756237Y-68962173D01*
X98807757Y-68792334D01*
X98891422Y-68635809D01*
X98923389Y-68596857D01*
X99004014Y-68498614D01*
X99105471Y-68415352D01*
X99141209Y-68386022D01*
X99297734Y-68302357D01*
X99467573Y-68250837D01*
X99533758Y-68244318D01*
X99599940Y-68237800D01*
X99688460Y-68237800D01*
X99754642Y-68244318D01*
X99754642Y-68244318D01*
G37*
G36*
X97214642Y-68244318D02*
G01*
X97280827Y-68250837D01*
X97450666Y-68302357D01*
X97607191Y-68386022D01*
X97642929Y-68415352D01*
X97744386Y-68498614D01*
X97825011Y-68596857D01*
X97856978Y-68635809D01*
X97940643Y-68792334D01*
X97992163Y-68962173D01*
X98009559Y-69138800D01*
X97992163Y-69315427D01*
X97940643Y-69485266D01*
X97856978Y-69641791D01*
X97852703Y-69647000D01*
X97744386Y-69778986D01*
X97642929Y-69862248D01*
X97607191Y-69891578D01*
X97450666Y-69975243D01*
X97280827Y-70026763D01*
X97214643Y-70033281D01*
X97148460Y-70039800D01*
X97059940Y-70039800D01*
X96993757Y-70033281D01*
X96927573Y-70026763D01*
X96757734Y-69975243D01*
X96601209Y-69891578D01*
X96565471Y-69862248D01*
X96464014Y-69778986D01*
X96355697Y-69647000D01*
X96351422Y-69641791D01*
X96267757Y-69485266D01*
X96216237Y-69315427D01*
X96198841Y-69138800D01*
X96216237Y-68962173D01*
X96267757Y-68792334D01*
X96351422Y-68635809D01*
X96383389Y-68596857D01*
X96464014Y-68498614D01*
X96565471Y-68415352D01*
X96601209Y-68386022D01*
X96757734Y-68302357D01*
X96927573Y-68250837D01*
X96993758Y-68244318D01*
X97059940Y-68237800D01*
X97148460Y-68237800D01*
X97214642Y-68244318D01*
X97214642Y-68244318D01*
G37*
G36*
X127694642Y-68244318D02*
G01*
X127760827Y-68250837D01*
X127930666Y-68302357D01*
X128087191Y-68386022D01*
X128122929Y-68415352D01*
X128224386Y-68498614D01*
X128305011Y-68596857D01*
X128336978Y-68635809D01*
X128420643Y-68792334D01*
X128472163Y-68962173D01*
X128489559Y-69138800D01*
X128472163Y-69315427D01*
X128420643Y-69485266D01*
X128336978Y-69641791D01*
X128332703Y-69647000D01*
X128224386Y-69778986D01*
X128122929Y-69862248D01*
X128087191Y-69891578D01*
X127930666Y-69975243D01*
X127760827Y-70026763D01*
X127694643Y-70033281D01*
X127628460Y-70039800D01*
X127539940Y-70039800D01*
X127473757Y-70033281D01*
X127407573Y-70026763D01*
X127237734Y-69975243D01*
X127081209Y-69891578D01*
X127045471Y-69862248D01*
X126944014Y-69778986D01*
X126835697Y-69647000D01*
X126831422Y-69641791D01*
X126747757Y-69485266D01*
X126696237Y-69315427D01*
X126678841Y-69138800D01*
X126696237Y-68962173D01*
X126747757Y-68792334D01*
X126831422Y-68635809D01*
X126863389Y-68596857D01*
X126944014Y-68498614D01*
X127045471Y-68415352D01*
X127081209Y-68386022D01*
X127237734Y-68302357D01*
X127407573Y-68250837D01*
X127473758Y-68244318D01*
X127539940Y-68237800D01*
X127628460Y-68237800D01*
X127694642Y-68244318D01*
X127694642Y-68244318D01*
G37*
G36*
X125154642Y-68244318D02*
G01*
X125220827Y-68250837D01*
X125390666Y-68302357D01*
X125547191Y-68386022D01*
X125582929Y-68415352D01*
X125684386Y-68498614D01*
X125765011Y-68596857D01*
X125796978Y-68635809D01*
X125880643Y-68792334D01*
X125932163Y-68962173D01*
X125949559Y-69138800D01*
X125932163Y-69315427D01*
X125880643Y-69485266D01*
X125796978Y-69641791D01*
X125792703Y-69647000D01*
X125684386Y-69778986D01*
X125582929Y-69862248D01*
X125547191Y-69891578D01*
X125390666Y-69975243D01*
X125220827Y-70026763D01*
X125154643Y-70033281D01*
X125088460Y-70039800D01*
X124999940Y-70039800D01*
X124933757Y-70033281D01*
X124867573Y-70026763D01*
X124697734Y-69975243D01*
X124541209Y-69891578D01*
X124505471Y-69862248D01*
X124404014Y-69778986D01*
X124295697Y-69647000D01*
X124291422Y-69641791D01*
X124207757Y-69485266D01*
X124156237Y-69315427D01*
X124138841Y-69138800D01*
X124156237Y-68962173D01*
X124207757Y-68792334D01*
X124291422Y-68635809D01*
X124323389Y-68596857D01*
X124404014Y-68498614D01*
X124505471Y-68415352D01*
X124541209Y-68386022D01*
X124697734Y-68302357D01*
X124867573Y-68250837D01*
X124933758Y-68244318D01*
X124999940Y-68237800D01*
X125088460Y-68237800D01*
X125154642Y-68244318D01*
X125154642Y-68244318D01*
G37*
G36*
X89594642Y-68244318D02*
G01*
X89660827Y-68250837D01*
X89830666Y-68302357D01*
X89987191Y-68386022D01*
X90022929Y-68415352D01*
X90124386Y-68498614D01*
X90205011Y-68596857D01*
X90236978Y-68635809D01*
X90320643Y-68792334D01*
X90372163Y-68962173D01*
X90389559Y-69138800D01*
X90372163Y-69315427D01*
X90320643Y-69485266D01*
X90236978Y-69641791D01*
X90232703Y-69647000D01*
X90124386Y-69778986D01*
X90022929Y-69862248D01*
X89987191Y-69891578D01*
X89830666Y-69975243D01*
X89660827Y-70026763D01*
X89594643Y-70033281D01*
X89528460Y-70039800D01*
X89439940Y-70039800D01*
X89373757Y-70033281D01*
X89307573Y-70026763D01*
X89137734Y-69975243D01*
X88981209Y-69891578D01*
X88945471Y-69862248D01*
X88844014Y-69778986D01*
X88735697Y-69647000D01*
X88731422Y-69641791D01*
X88647757Y-69485266D01*
X88596237Y-69315427D01*
X88578841Y-69138800D01*
X88596237Y-68962173D01*
X88647757Y-68792334D01*
X88731422Y-68635809D01*
X88763389Y-68596857D01*
X88844014Y-68498614D01*
X88945471Y-68415352D01*
X88981209Y-68386022D01*
X89137734Y-68302357D01*
X89307573Y-68250837D01*
X89373758Y-68244318D01*
X89439940Y-68237800D01*
X89528460Y-68237800D01*
X89594642Y-68244318D01*
X89594642Y-68244318D01*
G37*
G36*
X92134642Y-68244318D02*
G01*
X92200827Y-68250837D01*
X92370666Y-68302357D01*
X92527191Y-68386022D01*
X92562929Y-68415352D01*
X92664386Y-68498614D01*
X92745011Y-68596857D01*
X92776978Y-68635809D01*
X92860643Y-68792334D01*
X92912163Y-68962173D01*
X92929559Y-69138800D01*
X92912163Y-69315427D01*
X92860643Y-69485266D01*
X92776978Y-69641791D01*
X92772703Y-69647000D01*
X92664386Y-69778986D01*
X92562929Y-69862248D01*
X92527191Y-69891578D01*
X92370666Y-69975243D01*
X92200827Y-70026763D01*
X92134643Y-70033281D01*
X92068460Y-70039800D01*
X91979940Y-70039800D01*
X91913757Y-70033281D01*
X91847573Y-70026763D01*
X91677734Y-69975243D01*
X91521209Y-69891578D01*
X91485471Y-69862248D01*
X91384014Y-69778986D01*
X91275697Y-69647000D01*
X91271422Y-69641791D01*
X91187757Y-69485266D01*
X91136237Y-69315427D01*
X91118841Y-69138800D01*
X91136237Y-68962173D01*
X91187757Y-68792334D01*
X91271422Y-68635809D01*
X91303389Y-68596857D01*
X91384014Y-68498614D01*
X91485471Y-68415352D01*
X91521209Y-68386022D01*
X91677734Y-68302357D01*
X91847573Y-68250837D01*
X91913758Y-68244318D01*
X91979940Y-68237800D01*
X92068460Y-68237800D01*
X92134642Y-68244318D01*
X92134642Y-68244318D01*
G37*
G36*
X94674642Y-68244318D02*
G01*
X94740827Y-68250837D01*
X94910666Y-68302357D01*
X95067191Y-68386022D01*
X95102929Y-68415352D01*
X95204386Y-68498614D01*
X95285011Y-68596857D01*
X95316978Y-68635809D01*
X95400643Y-68792334D01*
X95452163Y-68962173D01*
X95469559Y-69138800D01*
X95452163Y-69315427D01*
X95400643Y-69485266D01*
X95316978Y-69641791D01*
X95312703Y-69647000D01*
X95204386Y-69778986D01*
X95102929Y-69862248D01*
X95067191Y-69891578D01*
X94910666Y-69975243D01*
X94740827Y-70026763D01*
X94674643Y-70033281D01*
X94608460Y-70039800D01*
X94519940Y-70039800D01*
X94453757Y-70033281D01*
X94387573Y-70026763D01*
X94217734Y-69975243D01*
X94061209Y-69891578D01*
X94025471Y-69862248D01*
X93924014Y-69778986D01*
X93815697Y-69647000D01*
X93811422Y-69641791D01*
X93727757Y-69485266D01*
X93676237Y-69315427D01*
X93658841Y-69138800D01*
X93676237Y-68962173D01*
X93727757Y-68792334D01*
X93811422Y-68635809D01*
X93843389Y-68596857D01*
X93924014Y-68498614D01*
X94025471Y-68415352D01*
X94061209Y-68386022D01*
X94217734Y-68302357D01*
X94387573Y-68250837D01*
X94453758Y-68244318D01*
X94519940Y-68237800D01*
X94608460Y-68237800D01*
X94674642Y-68244318D01*
X94674642Y-68244318D01*
G37*
G36*
X112454642Y-68244318D02*
G01*
X112520827Y-68250837D01*
X112690666Y-68302357D01*
X112847191Y-68386022D01*
X112882929Y-68415352D01*
X112984386Y-68498614D01*
X113065011Y-68596857D01*
X113096978Y-68635809D01*
X113180643Y-68792334D01*
X113232163Y-68962173D01*
X113249559Y-69138800D01*
X113232163Y-69315427D01*
X113180643Y-69485266D01*
X113096978Y-69641791D01*
X113092703Y-69647000D01*
X112984386Y-69778986D01*
X112882929Y-69862248D01*
X112847191Y-69891578D01*
X112690666Y-69975243D01*
X112520827Y-70026763D01*
X112454643Y-70033281D01*
X112388460Y-70039800D01*
X112299940Y-70039800D01*
X112233757Y-70033281D01*
X112167573Y-70026763D01*
X111997734Y-69975243D01*
X111841209Y-69891578D01*
X111805471Y-69862248D01*
X111704014Y-69778986D01*
X111595697Y-69647000D01*
X111591422Y-69641791D01*
X111507757Y-69485266D01*
X111456237Y-69315427D01*
X111438841Y-69138800D01*
X111456237Y-68962173D01*
X111507757Y-68792334D01*
X111591422Y-68635809D01*
X111623389Y-68596857D01*
X111704014Y-68498614D01*
X111805471Y-68415352D01*
X111841209Y-68386022D01*
X111997734Y-68302357D01*
X112167573Y-68250837D01*
X112233758Y-68244318D01*
X112299940Y-68237800D01*
X112388460Y-68237800D01*
X112454642Y-68244318D01*
X112454642Y-68244318D01*
G37*
G36*
X114994642Y-68244318D02*
G01*
X115060827Y-68250837D01*
X115230666Y-68302357D01*
X115387191Y-68386022D01*
X115422929Y-68415352D01*
X115524386Y-68498614D01*
X115605011Y-68596857D01*
X115636978Y-68635809D01*
X115720643Y-68792334D01*
X115772163Y-68962173D01*
X115789559Y-69138800D01*
X115772163Y-69315427D01*
X115720643Y-69485266D01*
X115636978Y-69641791D01*
X115632703Y-69647000D01*
X115524386Y-69778986D01*
X115422929Y-69862248D01*
X115387191Y-69891578D01*
X115230666Y-69975243D01*
X115060827Y-70026763D01*
X114994643Y-70033281D01*
X114928460Y-70039800D01*
X114839940Y-70039800D01*
X114773757Y-70033281D01*
X114707573Y-70026763D01*
X114537734Y-69975243D01*
X114381209Y-69891578D01*
X114345471Y-69862248D01*
X114244014Y-69778986D01*
X114135697Y-69647000D01*
X114131422Y-69641791D01*
X114047757Y-69485266D01*
X113996237Y-69315427D01*
X113978841Y-69138800D01*
X113996237Y-68962173D01*
X114047757Y-68792334D01*
X114131422Y-68635809D01*
X114163389Y-68596857D01*
X114244014Y-68498614D01*
X114345471Y-68415352D01*
X114381209Y-68386022D01*
X114537734Y-68302357D01*
X114707573Y-68250837D01*
X114773758Y-68244318D01*
X114839940Y-68237800D01*
X114928460Y-68237800D01*
X114994642Y-68244318D01*
X114994642Y-68244318D01*
G37*
G36*
X117534642Y-68244318D02*
G01*
X117600827Y-68250837D01*
X117770666Y-68302357D01*
X117927191Y-68386022D01*
X117962929Y-68415352D01*
X118064386Y-68498614D01*
X118145011Y-68596857D01*
X118176978Y-68635809D01*
X118260643Y-68792334D01*
X118312163Y-68962173D01*
X118329559Y-69138800D01*
X118312163Y-69315427D01*
X118260643Y-69485266D01*
X118176978Y-69641791D01*
X118172703Y-69647000D01*
X118064386Y-69778986D01*
X117962929Y-69862248D01*
X117927191Y-69891578D01*
X117770666Y-69975243D01*
X117600827Y-70026763D01*
X117534643Y-70033281D01*
X117468460Y-70039800D01*
X117379940Y-70039800D01*
X117313757Y-70033281D01*
X117247573Y-70026763D01*
X117077734Y-69975243D01*
X116921209Y-69891578D01*
X116885471Y-69862248D01*
X116784014Y-69778986D01*
X116675697Y-69647000D01*
X116671422Y-69641791D01*
X116587757Y-69485266D01*
X116536237Y-69315427D01*
X116518841Y-69138800D01*
X116536237Y-68962173D01*
X116587757Y-68792334D01*
X116671422Y-68635809D01*
X116703389Y-68596857D01*
X116784014Y-68498614D01*
X116885471Y-68415352D01*
X116921209Y-68386022D01*
X117077734Y-68302357D01*
X117247573Y-68250837D01*
X117313758Y-68244318D01*
X117379940Y-68237800D01*
X117468460Y-68237800D01*
X117534642Y-68244318D01*
X117534642Y-68244318D01*
G37*
G36*
X120074642Y-68244318D02*
G01*
X120140827Y-68250837D01*
X120310666Y-68302357D01*
X120467191Y-68386022D01*
X120502929Y-68415352D01*
X120604386Y-68498614D01*
X120685011Y-68596857D01*
X120716978Y-68635809D01*
X120800643Y-68792334D01*
X120852163Y-68962173D01*
X120869559Y-69138800D01*
X120852163Y-69315427D01*
X120800643Y-69485266D01*
X120716978Y-69641791D01*
X120712703Y-69647000D01*
X120604386Y-69778986D01*
X120502929Y-69862248D01*
X120467191Y-69891578D01*
X120310666Y-69975243D01*
X120140827Y-70026763D01*
X120074643Y-70033281D01*
X120008460Y-70039800D01*
X119919940Y-70039800D01*
X119853757Y-70033281D01*
X119787573Y-70026763D01*
X119617734Y-69975243D01*
X119461209Y-69891578D01*
X119425471Y-69862248D01*
X119324014Y-69778986D01*
X119215697Y-69647000D01*
X119211422Y-69641791D01*
X119127757Y-69485266D01*
X119076237Y-69315427D01*
X119058841Y-69138800D01*
X119076237Y-68962173D01*
X119127757Y-68792334D01*
X119211422Y-68635809D01*
X119243389Y-68596857D01*
X119324014Y-68498614D01*
X119425471Y-68415352D01*
X119461209Y-68386022D01*
X119617734Y-68302357D01*
X119787573Y-68250837D01*
X119853758Y-68244318D01*
X119919940Y-68237800D01*
X120008460Y-68237800D01*
X120074642Y-68244318D01*
X120074642Y-68244318D01*
G37*
G36*
X62467142Y-68052242D02*
G01*
X62615101Y-68113529D01*
X62748255Y-68202499D01*
X62861501Y-68315745D01*
X62950471Y-68448899D01*
X63011758Y-68596858D01*
X63043000Y-68753925D01*
X63043000Y-68914075D01*
X63011758Y-69071142D01*
X62950471Y-69219101D01*
X62861501Y-69352255D01*
X62748255Y-69465501D01*
X62615101Y-69554471D01*
X62467142Y-69615758D01*
X62310075Y-69647000D01*
X62149925Y-69647000D01*
X61992858Y-69615758D01*
X61844899Y-69554471D01*
X61711745Y-69465501D01*
X61598499Y-69352255D01*
X61509529Y-69219101D01*
X61448242Y-69071142D01*
X61417000Y-68914075D01*
X61417000Y-68753925D01*
X61448242Y-68596858D01*
X61509529Y-68448899D01*
X61598499Y-68315745D01*
X61711745Y-68202499D01*
X61844899Y-68113529D01*
X61992858Y-68052242D01*
X62149925Y-68021000D01*
X62310075Y-68021000D01*
X62467142Y-68052242D01*
X62467142Y-68052242D01*
G37*
G36*
X65007142Y-68052242D02*
G01*
X65155101Y-68113529D01*
X65288255Y-68202499D01*
X65401501Y-68315745D01*
X65490471Y-68448899D01*
X65551758Y-68596858D01*
X65583000Y-68753925D01*
X65583000Y-68914075D01*
X65551758Y-69071142D01*
X65490471Y-69219101D01*
X65401501Y-69352255D01*
X65288255Y-69465501D01*
X65155101Y-69554471D01*
X65007142Y-69615758D01*
X64850075Y-69647000D01*
X64689925Y-69647000D01*
X64532858Y-69615758D01*
X64384899Y-69554471D01*
X64251745Y-69465501D01*
X64138499Y-69352255D01*
X64049529Y-69219101D01*
X63988242Y-69071142D01*
X63957000Y-68914075D01*
X63957000Y-68753925D01*
X63988242Y-68596858D01*
X64049529Y-68448899D01*
X64138499Y-68315745D01*
X64251745Y-68202499D01*
X64384899Y-68113529D01*
X64532858Y-68052242D01*
X64689925Y-68021000D01*
X64850075Y-68021000D01*
X65007142Y-68052242D01*
X65007142Y-68052242D01*
G37*
G36*
X62467142Y-65512242D02*
G01*
X62615101Y-65573529D01*
X62748255Y-65662499D01*
X62861501Y-65775745D01*
X62950471Y-65908899D01*
X63011758Y-66056858D01*
X63043000Y-66213925D01*
X63043000Y-66374075D01*
X63011758Y-66531142D01*
X62950471Y-66679101D01*
X62861501Y-66812255D01*
X62748255Y-66925501D01*
X62615101Y-67014471D01*
X62467142Y-67075758D01*
X62310075Y-67107000D01*
X62149925Y-67107000D01*
X61992858Y-67075758D01*
X61844899Y-67014471D01*
X61711745Y-66925501D01*
X61598499Y-66812255D01*
X61509529Y-66679101D01*
X61448242Y-66531142D01*
X61417000Y-66374075D01*
X61417000Y-66213925D01*
X61448242Y-66056858D01*
X61509529Y-65908899D01*
X61598499Y-65775745D01*
X61711745Y-65662499D01*
X61844899Y-65573529D01*
X61992858Y-65512242D01*
X62149925Y-65481000D01*
X62310075Y-65481000D01*
X62467142Y-65512242D01*
X62467142Y-65512242D01*
G37*
G36*
X65007142Y-65512242D02*
G01*
X65155101Y-65573529D01*
X65288255Y-65662499D01*
X65401501Y-65775745D01*
X65490471Y-65908899D01*
X65551758Y-66056858D01*
X65583000Y-66213925D01*
X65583000Y-66374075D01*
X65551758Y-66531142D01*
X65490471Y-66679101D01*
X65401501Y-66812255D01*
X65288255Y-66925501D01*
X65155101Y-67014471D01*
X65007142Y-67075758D01*
X64850075Y-67107000D01*
X64689925Y-67107000D01*
X64532858Y-67075758D01*
X64384899Y-67014471D01*
X64251745Y-66925501D01*
X64138499Y-66812255D01*
X64049529Y-66679101D01*
X63988242Y-66531142D01*
X63957000Y-66374075D01*
X63957000Y-66213925D01*
X63988242Y-66056858D01*
X64049529Y-65908899D01*
X64138499Y-65775745D01*
X64251745Y-65662499D01*
X64384899Y-65573529D01*
X64532858Y-65512242D01*
X64689925Y-65481000D01*
X64850075Y-65481000D01*
X65007142Y-65512242D01*
X65007142Y-65512242D01*
G37*
G36*
X62467142Y-62972242D02*
G01*
X62615101Y-63033529D01*
X62748255Y-63122499D01*
X62861501Y-63235745D01*
X62950471Y-63368899D01*
X63011758Y-63516858D01*
X63043000Y-63673925D01*
X63043000Y-63834075D01*
X63011758Y-63991142D01*
X62950471Y-64139101D01*
X62861501Y-64272255D01*
X62748255Y-64385501D01*
X62615101Y-64474471D01*
X62467142Y-64535758D01*
X62310075Y-64567000D01*
X62149925Y-64567000D01*
X61992858Y-64535758D01*
X61844899Y-64474471D01*
X61711745Y-64385501D01*
X61598499Y-64272255D01*
X61509529Y-64139101D01*
X61448242Y-63991142D01*
X61417000Y-63834075D01*
X61417000Y-63673925D01*
X61448242Y-63516858D01*
X61509529Y-63368899D01*
X61598499Y-63235745D01*
X61711745Y-63122499D01*
X61844899Y-63033529D01*
X61992858Y-62972242D01*
X62149925Y-62941000D01*
X62310075Y-62941000D01*
X62467142Y-62972242D01*
X62467142Y-62972242D01*
G37*
G36*
X65007142Y-62972242D02*
G01*
X65155101Y-63033529D01*
X65288255Y-63122499D01*
X65401501Y-63235745D01*
X65490471Y-63368899D01*
X65551758Y-63516858D01*
X65583000Y-63673925D01*
X65583000Y-63834075D01*
X65551758Y-63991142D01*
X65490471Y-64139101D01*
X65401501Y-64272255D01*
X65288255Y-64385501D01*
X65155101Y-64474471D01*
X65007142Y-64535758D01*
X64850075Y-64567000D01*
X64689925Y-64567000D01*
X64532858Y-64535758D01*
X64384899Y-64474471D01*
X64251745Y-64385501D01*
X64138499Y-64272255D01*
X64049529Y-64139101D01*
X63988242Y-63991142D01*
X63957000Y-63834075D01*
X63957000Y-63673925D01*
X63988242Y-63516858D01*
X64049529Y-63368899D01*
X64138499Y-63235745D01*
X64251745Y-63122499D01*
X64384899Y-63033529D01*
X64532858Y-62972242D01*
X64689925Y-62941000D01*
X64850075Y-62941000D01*
X65007142Y-62972242D01*
X65007142Y-62972242D01*
G37*
G36*
X65007142Y-60432242D02*
G01*
X65155101Y-60493529D01*
X65288255Y-60582499D01*
X65401501Y-60695745D01*
X65490471Y-60828899D01*
X65551758Y-60976858D01*
X65583000Y-61133925D01*
X65583000Y-61294075D01*
X65551758Y-61451142D01*
X65490471Y-61599101D01*
X65401501Y-61732255D01*
X65288255Y-61845501D01*
X65155101Y-61934471D01*
X65007142Y-61995758D01*
X64850075Y-62027000D01*
X64689925Y-62027000D01*
X64532858Y-61995758D01*
X64384899Y-61934471D01*
X64251745Y-61845501D01*
X64138499Y-61732255D01*
X64049529Y-61599101D01*
X63988242Y-61451142D01*
X63957000Y-61294075D01*
X63957000Y-61133925D01*
X63988242Y-60976858D01*
X64049529Y-60828899D01*
X64138499Y-60695745D01*
X64251745Y-60582499D01*
X64384899Y-60493529D01*
X64532858Y-60432242D01*
X64689925Y-60401000D01*
X64850075Y-60401000D01*
X65007142Y-60432242D01*
X65007142Y-60432242D01*
G37*
G36*
X62467142Y-60432242D02*
G01*
X62615101Y-60493529D01*
X62748255Y-60582499D01*
X62861501Y-60695745D01*
X62950471Y-60828899D01*
X63011758Y-60976858D01*
X63043000Y-61133925D01*
X63043000Y-61294075D01*
X63011758Y-61451142D01*
X62950471Y-61599101D01*
X62861501Y-61732255D01*
X62748255Y-61845501D01*
X62615101Y-61934471D01*
X62467142Y-61995758D01*
X62310075Y-62027000D01*
X62149925Y-62027000D01*
X61992858Y-61995758D01*
X61844899Y-61934471D01*
X61711745Y-61845501D01*
X61598499Y-61732255D01*
X61509529Y-61599101D01*
X61448242Y-61451142D01*
X61417000Y-61294075D01*
X61417000Y-61133925D01*
X61448242Y-60976858D01*
X61509529Y-60828899D01*
X61598499Y-60695745D01*
X61711745Y-60582499D01*
X61844899Y-60493529D01*
X61992858Y-60432242D01*
X62149925Y-60401000D01*
X62310075Y-60401000D01*
X62467142Y-60432242D01*
X62467142Y-60432242D01*
G37*
G36*
X62467142Y-57892242D02*
G01*
X62615101Y-57953529D01*
X62748255Y-58042499D01*
X62861501Y-58155745D01*
X62950471Y-58288899D01*
X63011758Y-58436858D01*
X63043000Y-58593925D01*
X63043000Y-58754075D01*
X63011758Y-58911142D01*
X62950471Y-59059101D01*
X62861501Y-59192255D01*
X62748255Y-59305501D01*
X62615101Y-59394471D01*
X62467142Y-59455758D01*
X62310075Y-59487000D01*
X62149925Y-59487000D01*
X61992858Y-59455758D01*
X61844899Y-59394471D01*
X61711745Y-59305501D01*
X61598499Y-59192255D01*
X61509529Y-59059101D01*
X61448242Y-58911142D01*
X61417000Y-58754075D01*
X61417000Y-58593925D01*
X61448242Y-58436858D01*
X61509529Y-58288899D01*
X61598499Y-58155745D01*
X61711745Y-58042499D01*
X61844899Y-57953529D01*
X61992858Y-57892242D01*
X62149925Y-57861000D01*
X62310075Y-57861000D01*
X62467142Y-57892242D01*
X62467142Y-57892242D01*
G37*
G36*
X65007142Y-57892242D02*
G01*
X65155101Y-57953529D01*
X65288255Y-58042499D01*
X65401501Y-58155745D01*
X65490471Y-58288899D01*
X65551758Y-58436858D01*
X65583000Y-58593925D01*
X65583000Y-58754075D01*
X65551758Y-58911142D01*
X65490471Y-59059101D01*
X65401501Y-59192255D01*
X65288255Y-59305501D01*
X65155101Y-59394471D01*
X65007142Y-59455758D01*
X64850075Y-59487000D01*
X64689925Y-59487000D01*
X64532858Y-59455758D01*
X64384899Y-59394471D01*
X64251745Y-59305501D01*
X64138499Y-59192255D01*
X64049529Y-59059101D01*
X63988242Y-58911142D01*
X63957000Y-58754075D01*
X63957000Y-58593925D01*
X63988242Y-58436858D01*
X64049529Y-58288899D01*
X64138499Y-58155745D01*
X64251745Y-58042499D01*
X64384899Y-57953529D01*
X64532858Y-57892242D01*
X64689925Y-57861000D01*
X64850075Y-57861000D01*
X65007142Y-57892242D01*
X65007142Y-57892242D01*
G37*
G36*
X65007142Y-55352242D02*
G01*
X65155101Y-55413529D01*
X65288255Y-55502499D01*
X65401501Y-55615745D01*
X65490471Y-55748899D01*
X65551758Y-55896858D01*
X65583000Y-56053925D01*
X65583000Y-56214075D01*
X65551758Y-56371142D01*
X65490471Y-56519101D01*
X65401501Y-56652255D01*
X65288255Y-56765501D01*
X65155101Y-56854471D01*
X65007142Y-56915758D01*
X64850075Y-56947000D01*
X64689925Y-56947000D01*
X64532858Y-56915758D01*
X64384899Y-56854471D01*
X64251745Y-56765501D01*
X64138499Y-56652255D01*
X64049529Y-56519101D01*
X63988242Y-56371142D01*
X63957000Y-56214075D01*
X63957000Y-56053925D01*
X63988242Y-55896858D01*
X64049529Y-55748899D01*
X64138499Y-55615745D01*
X64251745Y-55502499D01*
X64384899Y-55413529D01*
X64532858Y-55352242D01*
X64689925Y-55321000D01*
X64850075Y-55321000D01*
X65007142Y-55352242D01*
X65007142Y-55352242D01*
G37*
G36*
X62467142Y-55352242D02*
G01*
X62615101Y-55413529D01*
X62748255Y-55502499D01*
X62861501Y-55615745D01*
X62950471Y-55748899D01*
X63011758Y-55896858D01*
X63043000Y-56053925D01*
X63043000Y-56214075D01*
X63011758Y-56371142D01*
X62950471Y-56519101D01*
X62861501Y-56652255D01*
X62748255Y-56765501D01*
X62615101Y-56854471D01*
X62467142Y-56915758D01*
X62310075Y-56947000D01*
X62149925Y-56947000D01*
X61992858Y-56915758D01*
X61844899Y-56854471D01*
X61711745Y-56765501D01*
X61598499Y-56652255D01*
X61509529Y-56519101D01*
X61448242Y-56371142D01*
X61417000Y-56214075D01*
X61417000Y-56053925D01*
X61448242Y-55896858D01*
X61509529Y-55748899D01*
X61598499Y-55615745D01*
X61711745Y-55502499D01*
X61844899Y-55413529D01*
X61992858Y-55352242D01*
X62149925Y-55321000D01*
X62310075Y-55321000D01*
X62467142Y-55352242D01*
X62467142Y-55352242D01*
G37*
G36*
X90385200Y-54799800D02*
G01*
X88583200Y-54799800D01*
X88583200Y-52997800D01*
X90385200Y-52997800D01*
X90385200Y-54799800D01*
X90385200Y-54799800D01*
G37*
G36*
X107374643Y-53004319D02*
G01*
X107440827Y-53010837D01*
X107610666Y-53062357D01*
X107767191Y-53146022D01*
X107802929Y-53175352D01*
X107904386Y-53258614D01*
X107987648Y-53360071D01*
X108016978Y-53395809D01*
X108100643Y-53552334D01*
X108152163Y-53722173D01*
X108169559Y-53898800D01*
X108152163Y-54075427D01*
X108100643Y-54245266D01*
X108016978Y-54401791D01*
X107987648Y-54437529D01*
X107904386Y-54538986D01*
X107802929Y-54622248D01*
X107767191Y-54651578D01*
X107610666Y-54735243D01*
X107440827Y-54786763D01*
X107374642Y-54793282D01*
X107308460Y-54799800D01*
X107219940Y-54799800D01*
X107153758Y-54793282D01*
X107087573Y-54786763D01*
X106917734Y-54735243D01*
X106761209Y-54651578D01*
X106725471Y-54622248D01*
X106624014Y-54538986D01*
X106540752Y-54437529D01*
X106511422Y-54401791D01*
X106427757Y-54245266D01*
X106376237Y-54075427D01*
X106358841Y-53898800D01*
X106376237Y-53722173D01*
X106427757Y-53552334D01*
X106511422Y-53395809D01*
X106540752Y-53360071D01*
X106624014Y-53258614D01*
X106725471Y-53175352D01*
X106761209Y-53146022D01*
X106917734Y-53062357D01*
X107087573Y-53010837D01*
X107153757Y-53004319D01*
X107219940Y-52997800D01*
X107308460Y-52997800D01*
X107374643Y-53004319D01*
X107374643Y-53004319D01*
G37*
G36*
X92134643Y-53004319D02*
G01*
X92200827Y-53010837D01*
X92370666Y-53062357D01*
X92527191Y-53146022D01*
X92562929Y-53175352D01*
X92664386Y-53258614D01*
X92747648Y-53360071D01*
X92776978Y-53395809D01*
X92860643Y-53552334D01*
X92912163Y-53722173D01*
X92929559Y-53898800D01*
X92912163Y-54075427D01*
X92860643Y-54245266D01*
X92776978Y-54401791D01*
X92747648Y-54437529D01*
X92664386Y-54538986D01*
X92562929Y-54622248D01*
X92527191Y-54651578D01*
X92370666Y-54735243D01*
X92200827Y-54786763D01*
X92134642Y-54793282D01*
X92068460Y-54799800D01*
X91979940Y-54799800D01*
X91913758Y-54793282D01*
X91847573Y-54786763D01*
X91677734Y-54735243D01*
X91521209Y-54651578D01*
X91485471Y-54622248D01*
X91384014Y-54538986D01*
X91300752Y-54437529D01*
X91271422Y-54401791D01*
X91187757Y-54245266D01*
X91136237Y-54075427D01*
X91118841Y-53898800D01*
X91136237Y-53722173D01*
X91187757Y-53552334D01*
X91271422Y-53395809D01*
X91300752Y-53360071D01*
X91384014Y-53258614D01*
X91485471Y-53175352D01*
X91521209Y-53146022D01*
X91677734Y-53062357D01*
X91847573Y-53010837D01*
X91913757Y-53004319D01*
X91979940Y-52997800D01*
X92068460Y-52997800D01*
X92134643Y-53004319D01*
X92134643Y-53004319D01*
G37*
G36*
X94674643Y-53004319D02*
G01*
X94740827Y-53010837D01*
X94910666Y-53062357D01*
X95067191Y-53146022D01*
X95102929Y-53175352D01*
X95204386Y-53258614D01*
X95287648Y-53360071D01*
X95316978Y-53395809D01*
X95400643Y-53552334D01*
X95452163Y-53722173D01*
X95469559Y-53898800D01*
X95452163Y-54075427D01*
X95400643Y-54245266D01*
X95316978Y-54401791D01*
X95287648Y-54437529D01*
X95204386Y-54538986D01*
X95102929Y-54622248D01*
X95067191Y-54651578D01*
X94910666Y-54735243D01*
X94740827Y-54786763D01*
X94674642Y-54793282D01*
X94608460Y-54799800D01*
X94519940Y-54799800D01*
X94453758Y-54793282D01*
X94387573Y-54786763D01*
X94217734Y-54735243D01*
X94061209Y-54651578D01*
X94025471Y-54622248D01*
X93924014Y-54538986D01*
X93840752Y-54437529D01*
X93811422Y-54401791D01*
X93727757Y-54245266D01*
X93676237Y-54075427D01*
X93658841Y-53898800D01*
X93676237Y-53722173D01*
X93727757Y-53552334D01*
X93811422Y-53395809D01*
X93840752Y-53360071D01*
X93924014Y-53258614D01*
X94025471Y-53175352D01*
X94061209Y-53146022D01*
X94217734Y-53062357D01*
X94387573Y-53010837D01*
X94453757Y-53004319D01*
X94519940Y-52997800D01*
X94608460Y-52997800D01*
X94674643Y-53004319D01*
X94674643Y-53004319D01*
G37*
G36*
X97214643Y-53004319D02*
G01*
X97280827Y-53010837D01*
X97450666Y-53062357D01*
X97607191Y-53146022D01*
X97642929Y-53175352D01*
X97744386Y-53258614D01*
X97827648Y-53360071D01*
X97856978Y-53395809D01*
X97940643Y-53552334D01*
X97992163Y-53722173D01*
X98009559Y-53898800D01*
X97992163Y-54075427D01*
X97940643Y-54245266D01*
X97856978Y-54401791D01*
X97827648Y-54437529D01*
X97744386Y-54538986D01*
X97642929Y-54622248D01*
X97607191Y-54651578D01*
X97450666Y-54735243D01*
X97280827Y-54786763D01*
X97214642Y-54793282D01*
X97148460Y-54799800D01*
X97059940Y-54799800D01*
X96993758Y-54793282D01*
X96927573Y-54786763D01*
X96757734Y-54735243D01*
X96601209Y-54651578D01*
X96565471Y-54622248D01*
X96464014Y-54538986D01*
X96380752Y-54437529D01*
X96351422Y-54401791D01*
X96267757Y-54245266D01*
X96216237Y-54075427D01*
X96198841Y-53898800D01*
X96216237Y-53722173D01*
X96267757Y-53552334D01*
X96351422Y-53395809D01*
X96380752Y-53360071D01*
X96464014Y-53258614D01*
X96565471Y-53175352D01*
X96601209Y-53146022D01*
X96757734Y-53062357D01*
X96927573Y-53010837D01*
X96993757Y-53004319D01*
X97059940Y-52997800D01*
X97148460Y-52997800D01*
X97214643Y-53004319D01*
X97214643Y-53004319D01*
G37*
G36*
X99754643Y-53004319D02*
G01*
X99820827Y-53010837D01*
X99990666Y-53062357D01*
X100147191Y-53146022D01*
X100182929Y-53175352D01*
X100284386Y-53258614D01*
X100367648Y-53360071D01*
X100396978Y-53395809D01*
X100480643Y-53552334D01*
X100532163Y-53722173D01*
X100549559Y-53898800D01*
X100532163Y-54075427D01*
X100480643Y-54245266D01*
X100396978Y-54401791D01*
X100367648Y-54437529D01*
X100284386Y-54538986D01*
X100182929Y-54622248D01*
X100147191Y-54651578D01*
X99990666Y-54735243D01*
X99820827Y-54786763D01*
X99754642Y-54793282D01*
X99688460Y-54799800D01*
X99599940Y-54799800D01*
X99533758Y-54793282D01*
X99467573Y-54786763D01*
X99297734Y-54735243D01*
X99141209Y-54651578D01*
X99105471Y-54622248D01*
X99004014Y-54538986D01*
X98920752Y-54437529D01*
X98891422Y-54401791D01*
X98807757Y-54245266D01*
X98756237Y-54075427D01*
X98738841Y-53898800D01*
X98756237Y-53722173D01*
X98807757Y-53552334D01*
X98891422Y-53395809D01*
X98920752Y-53360071D01*
X99004014Y-53258614D01*
X99105471Y-53175352D01*
X99141209Y-53146022D01*
X99297734Y-53062357D01*
X99467573Y-53010837D01*
X99533757Y-53004319D01*
X99599940Y-52997800D01*
X99688460Y-52997800D01*
X99754643Y-53004319D01*
X99754643Y-53004319D01*
G37*
G36*
X102294643Y-53004319D02*
G01*
X102360827Y-53010837D01*
X102530666Y-53062357D01*
X102687191Y-53146022D01*
X102722929Y-53175352D01*
X102824386Y-53258614D01*
X102907648Y-53360071D01*
X102936978Y-53395809D01*
X103020643Y-53552334D01*
X103072163Y-53722173D01*
X103089559Y-53898800D01*
X103072163Y-54075427D01*
X103020643Y-54245266D01*
X102936978Y-54401791D01*
X102907648Y-54437529D01*
X102824386Y-54538986D01*
X102722929Y-54622248D01*
X102687191Y-54651578D01*
X102530666Y-54735243D01*
X102360827Y-54786763D01*
X102294642Y-54793282D01*
X102228460Y-54799800D01*
X102139940Y-54799800D01*
X102073758Y-54793282D01*
X102007573Y-54786763D01*
X101837734Y-54735243D01*
X101681209Y-54651578D01*
X101645471Y-54622248D01*
X101544014Y-54538986D01*
X101460752Y-54437529D01*
X101431422Y-54401791D01*
X101347757Y-54245266D01*
X101296237Y-54075427D01*
X101278841Y-53898800D01*
X101296237Y-53722173D01*
X101347757Y-53552334D01*
X101431422Y-53395809D01*
X101460752Y-53360071D01*
X101544014Y-53258614D01*
X101645471Y-53175352D01*
X101681209Y-53146022D01*
X101837734Y-53062357D01*
X102007573Y-53010837D01*
X102073757Y-53004319D01*
X102139940Y-52997800D01*
X102228460Y-52997800D01*
X102294643Y-53004319D01*
X102294643Y-53004319D01*
G37*
G36*
X104834643Y-53004319D02*
G01*
X104900827Y-53010837D01*
X105070666Y-53062357D01*
X105227191Y-53146022D01*
X105262929Y-53175352D01*
X105364386Y-53258614D01*
X105447648Y-53360071D01*
X105476978Y-53395809D01*
X105560643Y-53552334D01*
X105612163Y-53722173D01*
X105629559Y-53898800D01*
X105612163Y-54075427D01*
X105560643Y-54245266D01*
X105476978Y-54401791D01*
X105447648Y-54437529D01*
X105364386Y-54538986D01*
X105262929Y-54622248D01*
X105227191Y-54651578D01*
X105070666Y-54735243D01*
X104900827Y-54786763D01*
X104834642Y-54793282D01*
X104768460Y-54799800D01*
X104679940Y-54799800D01*
X104613758Y-54793282D01*
X104547573Y-54786763D01*
X104377734Y-54735243D01*
X104221209Y-54651578D01*
X104185471Y-54622248D01*
X104084014Y-54538986D01*
X104000752Y-54437529D01*
X103971422Y-54401791D01*
X103887757Y-54245266D01*
X103836237Y-54075427D01*
X103818841Y-53898800D01*
X103836237Y-53722173D01*
X103887757Y-53552334D01*
X103971422Y-53395809D01*
X104000752Y-53360071D01*
X104084014Y-53258614D01*
X104185471Y-53175352D01*
X104221209Y-53146022D01*
X104377734Y-53062357D01*
X104547573Y-53010837D01*
X104613757Y-53004319D01*
X104679940Y-52997800D01*
X104768460Y-52997800D01*
X104834643Y-53004319D01*
X104834643Y-53004319D01*
G37*
G36*
X109914643Y-53004319D02*
G01*
X109980827Y-53010837D01*
X110150666Y-53062357D01*
X110307191Y-53146022D01*
X110342929Y-53175352D01*
X110444386Y-53258614D01*
X110527648Y-53360071D01*
X110556978Y-53395809D01*
X110640643Y-53552334D01*
X110692163Y-53722173D01*
X110709559Y-53898800D01*
X110692163Y-54075427D01*
X110640643Y-54245266D01*
X110556978Y-54401791D01*
X110527648Y-54437529D01*
X110444386Y-54538986D01*
X110342929Y-54622248D01*
X110307191Y-54651578D01*
X110150666Y-54735243D01*
X109980827Y-54786763D01*
X109914642Y-54793282D01*
X109848460Y-54799800D01*
X109759940Y-54799800D01*
X109693758Y-54793282D01*
X109627573Y-54786763D01*
X109457734Y-54735243D01*
X109301209Y-54651578D01*
X109265471Y-54622248D01*
X109164014Y-54538986D01*
X109080752Y-54437529D01*
X109051422Y-54401791D01*
X108967757Y-54245266D01*
X108916237Y-54075427D01*
X108898841Y-53898800D01*
X108916237Y-53722173D01*
X108967757Y-53552334D01*
X109051422Y-53395809D01*
X109080752Y-53360071D01*
X109164014Y-53258614D01*
X109265471Y-53175352D01*
X109301209Y-53146022D01*
X109457734Y-53062357D01*
X109627573Y-53010837D01*
X109693757Y-53004319D01*
X109759940Y-52997800D01*
X109848460Y-52997800D01*
X109914643Y-53004319D01*
X109914643Y-53004319D01*
G37*
G36*
X112454643Y-53004319D02*
G01*
X112520827Y-53010837D01*
X112690666Y-53062357D01*
X112847191Y-53146022D01*
X112882929Y-53175352D01*
X112984386Y-53258614D01*
X113067648Y-53360071D01*
X113096978Y-53395809D01*
X113180643Y-53552334D01*
X113232163Y-53722173D01*
X113249559Y-53898800D01*
X113232163Y-54075427D01*
X113180643Y-54245266D01*
X113096978Y-54401791D01*
X113067648Y-54437529D01*
X112984386Y-54538986D01*
X112882929Y-54622248D01*
X112847191Y-54651578D01*
X112690666Y-54735243D01*
X112520827Y-54786763D01*
X112454642Y-54793282D01*
X112388460Y-54799800D01*
X112299940Y-54799800D01*
X112233758Y-54793282D01*
X112167573Y-54786763D01*
X111997734Y-54735243D01*
X111841209Y-54651578D01*
X111805471Y-54622248D01*
X111704014Y-54538986D01*
X111620752Y-54437529D01*
X111591422Y-54401791D01*
X111507757Y-54245266D01*
X111456237Y-54075427D01*
X111438841Y-53898800D01*
X111456237Y-53722173D01*
X111507757Y-53552334D01*
X111591422Y-53395809D01*
X111620752Y-53360071D01*
X111704014Y-53258614D01*
X111805471Y-53175352D01*
X111841209Y-53146022D01*
X111997734Y-53062357D01*
X112167573Y-53010837D01*
X112233757Y-53004319D01*
X112299940Y-52997800D01*
X112388460Y-52997800D01*
X112454643Y-53004319D01*
X112454643Y-53004319D01*
G37*
G36*
X114994643Y-53004319D02*
G01*
X115060827Y-53010837D01*
X115230666Y-53062357D01*
X115387191Y-53146022D01*
X115422929Y-53175352D01*
X115524386Y-53258614D01*
X115607648Y-53360071D01*
X115636978Y-53395809D01*
X115720643Y-53552334D01*
X115772163Y-53722173D01*
X115789559Y-53898800D01*
X115772163Y-54075427D01*
X115720643Y-54245266D01*
X115636978Y-54401791D01*
X115607648Y-54437529D01*
X115524386Y-54538986D01*
X115422929Y-54622248D01*
X115387191Y-54651578D01*
X115230666Y-54735243D01*
X115060827Y-54786763D01*
X114994642Y-54793282D01*
X114928460Y-54799800D01*
X114839940Y-54799800D01*
X114773758Y-54793282D01*
X114707573Y-54786763D01*
X114537734Y-54735243D01*
X114381209Y-54651578D01*
X114345471Y-54622248D01*
X114244014Y-54538986D01*
X114160752Y-54437529D01*
X114131422Y-54401791D01*
X114047757Y-54245266D01*
X113996237Y-54075427D01*
X113978841Y-53898800D01*
X113996237Y-53722173D01*
X114047757Y-53552334D01*
X114131422Y-53395809D01*
X114160752Y-53360071D01*
X114244014Y-53258614D01*
X114345471Y-53175352D01*
X114381209Y-53146022D01*
X114537734Y-53062357D01*
X114707573Y-53010837D01*
X114773757Y-53004319D01*
X114839940Y-52997800D01*
X114928460Y-52997800D01*
X114994643Y-53004319D01*
X114994643Y-53004319D01*
G37*
G36*
X117534643Y-53004319D02*
G01*
X117600827Y-53010837D01*
X117770666Y-53062357D01*
X117927191Y-53146022D01*
X117962929Y-53175352D01*
X118064386Y-53258614D01*
X118147648Y-53360071D01*
X118176978Y-53395809D01*
X118260643Y-53552334D01*
X118312163Y-53722173D01*
X118329559Y-53898800D01*
X118312163Y-54075427D01*
X118260643Y-54245266D01*
X118176978Y-54401791D01*
X118147648Y-54437529D01*
X118064386Y-54538986D01*
X117962929Y-54622248D01*
X117927191Y-54651578D01*
X117770666Y-54735243D01*
X117600827Y-54786763D01*
X117534642Y-54793282D01*
X117468460Y-54799800D01*
X117379940Y-54799800D01*
X117313758Y-54793282D01*
X117247573Y-54786763D01*
X117077734Y-54735243D01*
X116921209Y-54651578D01*
X116885471Y-54622248D01*
X116784014Y-54538986D01*
X116700752Y-54437529D01*
X116671422Y-54401791D01*
X116587757Y-54245266D01*
X116536237Y-54075427D01*
X116518841Y-53898800D01*
X116536237Y-53722173D01*
X116587757Y-53552334D01*
X116671422Y-53395809D01*
X116700752Y-53360071D01*
X116784014Y-53258614D01*
X116885471Y-53175352D01*
X116921209Y-53146022D01*
X117077734Y-53062357D01*
X117247573Y-53010837D01*
X117313757Y-53004319D01*
X117379940Y-52997800D01*
X117468460Y-52997800D01*
X117534643Y-53004319D01*
X117534643Y-53004319D01*
G37*
G36*
X120074643Y-53004319D02*
G01*
X120140827Y-53010837D01*
X120310666Y-53062357D01*
X120467191Y-53146022D01*
X120502929Y-53175352D01*
X120604386Y-53258614D01*
X120687648Y-53360071D01*
X120716978Y-53395809D01*
X120800643Y-53552334D01*
X120852163Y-53722173D01*
X120869559Y-53898800D01*
X120852163Y-54075427D01*
X120800643Y-54245266D01*
X120716978Y-54401791D01*
X120687648Y-54437529D01*
X120604386Y-54538986D01*
X120502929Y-54622248D01*
X120467191Y-54651578D01*
X120310666Y-54735243D01*
X120140827Y-54786763D01*
X120074642Y-54793282D01*
X120008460Y-54799800D01*
X119919940Y-54799800D01*
X119853758Y-54793282D01*
X119787573Y-54786763D01*
X119617734Y-54735243D01*
X119461209Y-54651578D01*
X119425471Y-54622248D01*
X119324014Y-54538986D01*
X119240752Y-54437529D01*
X119211422Y-54401791D01*
X119127757Y-54245266D01*
X119076237Y-54075427D01*
X119058841Y-53898800D01*
X119076237Y-53722173D01*
X119127757Y-53552334D01*
X119211422Y-53395809D01*
X119240752Y-53360071D01*
X119324014Y-53258614D01*
X119425471Y-53175352D01*
X119461209Y-53146022D01*
X119617734Y-53062357D01*
X119787573Y-53010837D01*
X119853757Y-53004319D01*
X119919940Y-52997800D01*
X120008460Y-52997800D01*
X120074643Y-53004319D01*
X120074643Y-53004319D01*
G37*
G36*
X122614643Y-53004319D02*
G01*
X122680827Y-53010837D01*
X122850666Y-53062357D01*
X123007191Y-53146022D01*
X123042929Y-53175352D01*
X123144386Y-53258614D01*
X123227648Y-53360071D01*
X123256978Y-53395809D01*
X123340643Y-53552334D01*
X123392163Y-53722173D01*
X123409559Y-53898800D01*
X123392163Y-54075427D01*
X123340643Y-54245266D01*
X123256978Y-54401791D01*
X123227648Y-54437529D01*
X123144386Y-54538986D01*
X123042929Y-54622248D01*
X123007191Y-54651578D01*
X122850666Y-54735243D01*
X122680827Y-54786763D01*
X122614642Y-54793282D01*
X122548460Y-54799800D01*
X122459940Y-54799800D01*
X122393758Y-54793282D01*
X122327573Y-54786763D01*
X122157734Y-54735243D01*
X122001209Y-54651578D01*
X121965471Y-54622248D01*
X121864014Y-54538986D01*
X121780752Y-54437529D01*
X121751422Y-54401791D01*
X121667757Y-54245266D01*
X121616237Y-54075427D01*
X121598841Y-53898800D01*
X121616237Y-53722173D01*
X121667757Y-53552334D01*
X121751422Y-53395809D01*
X121780752Y-53360071D01*
X121864014Y-53258614D01*
X121965471Y-53175352D01*
X122001209Y-53146022D01*
X122157734Y-53062357D01*
X122327573Y-53010837D01*
X122393757Y-53004319D01*
X122459940Y-52997800D01*
X122548460Y-52997800D01*
X122614643Y-53004319D01*
X122614643Y-53004319D01*
G37*
G36*
X125154643Y-53004319D02*
G01*
X125220827Y-53010837D01*
X125390666Y-53062357D01*
X125547191Y-53146022D01*
X125582929Y-53175352D01*
X125684386Y-53258614D01*
X125767648Y-53360071D01*
X125796978Y-53395809D01*
X125880643Y-53552334D01*
X125932163Y-53722173D01*
X125949559Y-53898800D01*
X125932163Y-54075427D01*
X125880643Y-54245266D01*
X125796978Y-54401791D01*
X125767648Y-54437529D01*
X125684386Y-54538986D01*
X125582929Y-54622248D01*
X125547191Y-54651578D01*
X125390666Y-54735243D01*
X125220827Y-54786763D01*
X125154642Y-54793282D01*
X125088460Y-54799800D01*
X124999940Y-54799800D01*
X124933758Y-54793282D01*
X124867573Y-54786763D01*
X124697734Y-54735243D01*
X124541209Y-54651578D01*
X124505471Y-54622248D01*
X124404014Y-54538986D01*
X124320752Y-54437529D01*
X124291422Y-54401791D01*
X124207757Y-54245266D01*
X124156237Y-54075427D01*
X124138841Y-53898800D01*
X124156237Y-53722173D01*
X124207757Y-53552334D01*
X124291422Y-53395809D01*
X124320752Y-53360071D01*
X124404014Y-53258614D01*
X124505471Y-53175352D01*
X124541209Y-53146022D01*
X124697734Y-53062357D01*
X124867573Y-53010837D01*
X124933757Y-53004319D01*
X124999940Y-52997800D01*
X125088460Y-52997800D01*
X125154643Y-53004319D01*
X125154643Y-53004319D01*
G37*
G36*
X127694643Y-53004319D02*
G01*
X127760827Y-53010837D01*
X127930666Y-53062357D01*
X128087191Y-53146022D01*
X128122929Y-53175352D01*
X128224386Y-53258614D01*
X128307648Y-53360071D01*
X128336978Y-53395809D01*
X128420643Y-53552334D01*
X128472163Y-53722173D01*
X128489559Y-53898800D01*
X128472163Y-54075427D01*
X128420643Y-54245266D01*
X128336978Y-54401791D01*
X128307648Y-54437529D01*
X128224386Y-54538986D01*
X128122929Y-54622248D01*
X128087191Y-54651578D01*
X127930666Y-54735243D01*
X127760827Y-54786763D01*
X127694642Y-54793282D01*
X127628460Y-54799800D01*
X127539940Y-54799800D01*
X127473758Y-54793282D01*
X127407573Y-54786763D01*
X127237734Y-54735243D01*
X127081209Y-54651578D01*
X127045471Y-54622248D01*
X126944014Y-54538986D01*
X126860752Y-54437529D01*
X126831422Y-54401791D01*
X126747757Y-54245266D01*
X126696237Y-54075427D01*
X126678841Y-53898800D01*
X126696237Y-53722173D01*
X126747757Y-53552334D01*
X126831422Y-53395809D01*
X126860752Y-53360071D01*
X126944014Y-53258614D01*
X127045471Y-53175352D01*
X127081209Y-53146022D01*
X127237734Y-53062357D01*
X127407573Y-53010837D01*
X127473757Y-53004319D01*
X127539940Y-52997800D01*
X127628460Y-52997800D01*
X127694643Y-53004319D01*
X127694643Y-53004319D01*
G37*
G36*
X130234643Y-53004319D02*
G01*
X130300827Y-53010837D01*
X130470666Y-53062357D01*
X130627191Y-53146022D01*
X130662929Y-53175352D01*
X130764386Y-53258614D01*
X130847648Y-53360071D01*
X130876978Y-53395809D01*
X130960643Y-53552334D01*
X131012163Y-53722173D01*
X131029559Y-53898800D01*
X131012163Y-54075427D01*
X130960643Y-54245266D01*
X130876978Y-54401791D01*
X130847648Y-54437529D01*
X130764386Y-54538986D01*
X130662929Y-54622248D01*
X130627191Y-54651578D01*
X130470666Y-54735243D01*
X130300827Y-54786763D01*
X130234642Y-54793282D01*
X130168460Y-54799800D01*
X130079940Y-54799800D01*
X130013758Y-54793282D01*
X129947573Y-54786763D01*
X129777734Y-54735243D01*
X129621209Y-54651578D01*
X129585471Y-54622248D01*
X129484014Y-54538986D01*
X129400752Y-54437529D01*
X129371422Y-54401791D01*
X129287757Y-54245266D01*
X129236237Y-54075427D01*
X129218841Y-53898800D01*
X129236237Y-53722173D01*
X129287757Y-53552334D01*
X129371422Y-53395809D01*
X129400752Y-53360071D01*
X129484014Y-53258614D01*
X129585471Y-53175352D01*
X129621209Y-53146022D01*
X129777734Y-53062357D01*
X129947573Y-53010837D01*
X130013757Y-53004319D01*
X130079940Y-52997800D01*
X130168460Y-52997800D01*
X130234643Y-53004319D01*
X130234643Y-53004319D01*
G37*
G36*
X79086272Y-39399428D02*
G01*
X79272991Y-39476770D01*
X79272993Y-39476771D01*
X79441037Y-39589054D01*
X79583946Y-39731963D01*
X79696229Y-39900007D01*
X79696230Y-39900009D01*
X79773572Y-40086728D01*
X79813000Y-40284947D01*
X79813000Y-40487053D01*
X79773572Y-40685272D01*
X79696230Y-40871991D01*
X79696229Y-40871993D01*
X79583946Y-41040037D01*
X79441037Y-41182946D01*
X79272993Y-41295229D01*
X79272992Y-41295230D01*
X79272991Y-41295230D01*
X79086272Y-41372572D01*
X78888053Y-41412000D01*
X78685947Y-41412000D01*
X78487728Y-41372572D01*
X78301009Y-41295230D01*
X78301008Y-41295230D01*
X78301007Y-41295229D01*
X78132963Y-41182946D01*
X77990054Y-41040037D01*
X77877771Y-40871993D01*
X77877770Y-40871991D01*
X77800428Y-40685272D01*
X77761000Y-40487053D01*
X77761000Y-40284947D01*
X77800428Y-40086728D01*
X77877770Y-39900009D01*
X77877771Y-39900007D01*
X77990054Y-39731963D01*
X78132963Y-39589054D01*
X78301007Y-39476771D01*
X78301009Y-39476770D01*
X78487728Y-39399428D01*
X78685947Y-39360000D01*
X78888053Y-39360000D01*
X79086272Y-39399428D01*
X79086272Y-39399428D01*
G37*
G36*
X119086272Y-39399428D02*
G01*
X119272991Y-39476770D01*
X119272993Y-39476771D01*
X119441037Y-39589054D01*
X119583946Y-39731963D01*
X119696229Y-39900007D01*
X119696230Y-39900009D01*
X119773572Y-40086728D01*
X119813000Y-40284947D01*
X119813000Y-40487053D01*
X119773572Y-40685272D01*
X119696230Y-40871991D01*
X119696229Y-40871993D01*
X119583946Y-41040037D01*
X119441037Y-41182946D01*
X119272993Y-41295229D01*
X119272992Y-41295230D01*
X119272991Y-41295230D01*
X119086272Y-41372572D01*
X118888053Y-41412000D01*
X118685947Y-41412000D01*
X118487728Y-41372572D01*
X118301009Y-41295230D01*
X118301008Y-41295230D01*
X118301007Y-41295229D01*
X118132963Y-41182946D01*
X117990054Y-41040037D01*
X117877771Y-40871993D01*
X117877770Y-40871991D01*
X117800428Y-40685272D01*
X117761000Y-40487053D01*
X117761000Y-40284947D01*
X117800428Y-40086728D01*
X117877770Y-39900009D01*
X117877771Y-39900007D01*
X117990054Y-39731963D01*
X118132963Y-39589054D01*
X118301007Y-39476771D01*
X118301009Y-39476770D01*
X118487728Y-39399428D01*
X118685947Y-39360000D01*
X118888053Y-39360000D01*
X119086272Y-39399428D01*
X119086272Y-39399428D01*
G37*
G36*
X114086272Y-39399428D02*
G01*
X114272991Y-39476770D01*
X114272993Y-39476771D01*
X114441037Y-39589054D01*
X114583946Y-39731963D01*
X114696229Y-39900007D01*
X114696230Y-39900009D01*
X114773572Y-40086728D01*
X114813000Y-40284947D01*
X114813000Y-40487053D01*
X114773572Y-40685272D01*
X114696230Y-40871991D01*
X114696229Y-40871993D01*
X114583946Y-41040037D01*
X114441037Y-41182946D01*
X114272993Y-41295229D01*
X114272992Y-41295230D01*
X114272991Y-41295230D01*
X114086272Y-41372572D01*
X113888053Y-41412000D01*
X113685947Y-41412000D01*
X113487728Y-41372572D01*
X113301009Y-41295230D01*
X113301008Y-41295230D01*
X113301007Y-41295229D01*
X113132963Y-41182946D01*
X112990054Y-41040037D01*
X112877771Y-40871993D01*
X112877770Y-40871991D01*
X112800428Y-40685272D01*
X112761000Y-40487053D01*
X112761000Y-40284947D01*
X112800428Y-40086728D01*
X112877770Y-39900009D01*
X112877771Y-39900007D01*
X112990054Y-39731963D01*
X113132963Y-39589054D01*
X113301007Y-39476771D01*
X113301009Y-39476770D01*
X113487728Y-39399428D01*
X113685947Y-39360000D01*
X113888053Y-39360000D01*
X114086272Y-39399428D01*
X114086272Y-39399428D01*
G37*
G36*
X109086272Y-39399428D02*
G01*
X109272991Y-39476770D01*
X109272993Y-39476771D01*
X109441037Y-39589054D01*
X109583946Y-39731963D01*
X109696229Y-39900007D01*
X109696230Y-39900009D01*
X109773572Y-40086728D01*
X109813000Y-40284947D01*
X109813000Y-40487053D01*
X109773572Y-40685272D01*
X109696230Y-40871991D01*
X109696229Y-40871993D01*
X109583946Y-41040037D01*
X109441037Y-41182946D01*
X109272993Y-41295229D01*
X109272992Y-41295230D01*
X109272991Y-41295230D01*
X109086272Y-41372572D01*
X108888053Y-41412000D01*
X108685947Y-41412000D01*
X108487728Y-41372572D01*
X108301009Y-41295230D01*
X108301008Y-41295230D01*
X108301007Y-41295229D01*
X108132963Y-41182946D01*
X107990054Y-41040037D01*
X107877771Y-40871993D01*
X107877770Y-40871991D01*
X107800428Y-40685272D01*
X107761000Y-40487053D01*
X107761000Y-40284947D01*
X107800428Y-40086728D01*
X107877770Y-39900009D01*
X107877771Y-39900007D01*
X107990054Y-39731963D01*
X108132963Y-39589054D01*
X108301007Y-39476771D01*
X108301009Y-39476770D01*
X108487728Y-39399428D01*
X108685947Y-39360000D01*
X108888053Y-39360000D01*
X109086272Y-39399428D01*
X109086272Y-39399428D01*
G37*
G36*
X104086272Y-39399428D02*
G01*
X104272991Y-39476770D01*
X104272993Y-39476771D01*
X104441037Y-39589054D01*
X104583946Y-39731963D01*
X104696229Y-39900007D01*
X104696230Y-39900009D01*
X104773572Y-40086728D01*
X104813000Y-40284947D01*
X104813000Y-40487053D01*
X104773572Y-40685272D01*
X104696230Y-40871991D01*
X104696229Y-40871993D01*
X104583946Y-41040037D01*
X104441037Y-41182946D01*
X104272993Y-41295229D01*
X104272992Y-41295230D01*
X104272991Y-41295230D01*
X104086272Y-41372572D01*
X103888053Y-41412000D01*
X103685947Y-41412000D01*
X103487728Y-41372572D01*
X103301009Y-41295230D01*
X103301008Y-41295230D01*
X103301007Y-41295229D01*
X103132963Y-41182946D01*
X102990054Y-41040037D01*
X102877771Y-40871993D01*
X102877770Y-40871991D01*
X102800428Y-40685272D01*
X102761000Y-40487053D01*
X102761000Y-40284947D01*
X102800428Y-40086728D01*
X102877770Y-39900009D01*
X102877771Y-39900007D01*
X102990054Y-39731963D01*
X103132963Y-39589054D01*
X103301007Y-39476771D01*
X103301009Y-39476770D01*
X103487728Y-39399428D01*
X103685947Y-39360000D01*
X103888053Y-39360000D01*
X104086272Y-39399428D01*
X104086272Y-39399428D01*
G37*
G36*
X99086272Y-39399428D02*
G01*
X99272991Y-39476770D01*
X99272993Y-39476771D01*
X99441037Y-39589054D01*
X99583946Y-39731963D01*
X99696229Y-39900007D01*
X99696230Y-39900009D01*
X99773572Y-40086728D01*
X99813000Y-40284947D01*
X99813000Y-40487053D01*
X99773572Y-40685272D01*
X99696230Y-40871991D01*
X99696229Y-40871993D01*
X99583946Y-41040037D01*
X99441037Y-41182946D01*
X99272993Y-41295229D01*
X99272992Y-41295230D01*
X99272991Y-41295230D01*
X99086272Y-41372572D01*
X98888053Y-41412000D01*
X98685947Y-41412000D01*
X98487728Y-41372572D01*
X98301009Y-41295230D01*
X98301008Y-41295230D01*
X98301007Y-41295229D01*
X98132963Y-41182946D01*
X97990054Y-41040037D01*
X97877771Y-40871993D01*
X97877770Y-40871991D01*
X97800428Y-40685272D01*
X97761000Y-40487053D01*
X97761000Y-40284947D01*
X97800428Y-40086728D01*
X97877770Y-39900009D01*
X97877771Y-39900007D01*
X97990054Y-39731963D01*
X98132963Y-39589054D01*
X98301007Y-39476771D01*
X98301009Y-39476770D01*
X98487728Y-39399428D01*
X98685947Y-39360000D01*
X98888053Y-39360000D01*
X99086272Y-39399428D01*
X99086272Y-39399428D01*
G37*
G36*
X94086272Y-39399428D02*
G01*
X94272991Y-39476770D01*
X94272993Y-39476771D01*
X94441037Y-39589054D01*
X94583946Y-39731963D01*
X94696229Y-39900007D01*
X94696230Y-39900009D01*
X94773572Y-40086728D01*
X94813000Y-40284947D01*
X94813000Y-40487053D01*
X94773572Y-40685272D01*
X94696230Y-40871991D01*
X94696229Y-40871993D01*
X94583946Y-41040037D01*
X94441037Y-41182946D01*
X94272993Y-41295229D01*
X94272992Y-41295230D01*
X94272991Y-41295230D01*
X94086272Y-41372572D01*
X93888053Y-41412000D01*
X93685947Y-41412000D01*
X93487728Y-41372572D01*
X93301009Y-41295230D01*
X93301008Y-41295230D01*
X93301007Y-41295229D01*
X93132963Y-41182946D01*
X92990054Y-41040037D01*
X92877771Y-40871993D01*
X92877770Y-40871991D01*
X92800428Y-40685272D01*
X92761000Y-40487053D01*
X92761000Y-40284947D01*
X92800428Y-40086728D01*
X92877770Y-39900009D01*
X92877771Y-39900007D01*
X92990054Y-39731963D01*
X93132963Y-39589054D01*
X93301007Y-39476771D01*
X93301009Y-39476770D01*
X93487728Y-39399428D01*
X93685947Y-39360000D01*
X93888053Y-39360000D01*
X94086272Y-39399428D01*
X94086272Y-39399428D01*
G37*
G36*
X74813000Y-41412000D02*
G01*
X72761000Y-41412000D01*
X72761000Y-39360000D01*
X74813000Y-39360000D01*
X74813000Y-41412000D01*
X74813000Y-41412000D01*
G37*
G36*
X84086272Y-39399428D02*
G01*
X84272991Y-39476770D01*
X84272993Y-39476771D01*
X84441037Y-39589054D01*
X84583946Y-39731963D01*
X84696229Y-39900007D01*
X84696230Y-39900009D01*
X84773572Y-40086728D01*
X84813000Y-40284947D01*
X84813000Y-40487053D01*
X84773572Y-40685272D01*
X84696230Y-40871991D01*
X84696229Y-40871993D01*
X84583946Y-41040037D01*
X84441037Y-41182946D01*
X84272993Y-41295229D01*
X84272992Y-41295230D01*
X84272991Y-41295230D01*
X84086272Y-41372572D01*
X83888053Y-41412000D01*
X83685947Y-41412000D01*
X83487728Y-41372572D01*
X83301009Y-41295230D01*
X83301008Y-41295230D01*
X83301007Y-41295229D01*
X83132963Y-41182946D01*
X82990054Y-41040037D01*
X82877771Y-40871993D01*
X82877770Y-40871991D01*
X82800428Y-40685272D01*
X82761000Y-40487053D01*
X82761000Y-40284947D01*
X82800428Y-40086728D01*
X82877770Y-39900009D01*
X82877771Y-39900007D01*
X82990054Y-39731963D01*
X83132963Y-39589054D01*
X83301007Y-39476771D01*
X83301009Y-39476770D01*
X83487728Y-39399428D01*
X83685947Y-39360000D01*
X83888053Y-39360000D01*
X84086272Y-39399428D01*
X84086272Y-39399428D01*
G37*
G36*
X89086272Y-39399428D02*
G01*
X89272991Y-39476770D01*
X89272993Y-39476771D01*
X89441037Y-39589054D01*
X89583946Y-39731963D01*
X89696229Y-39900007D01*
X89696230Y-39900009D01*
X89773572Y-40086728D01*
X89813000Y-40284947D01*
X89813000Y-40487053D01*
X89773572Y-40685272D01*
X89696230Y-40871991D01*
X89696229Y-40871993D01*
X89583946Y-41040037D01*
X89441037Y-41182946D01*
X89272993Y-41295229D01*
X89272992Y-41295230D01*
X89272991Y-41295230D01*
X89086272Y-41372572D01*
X88888053Y-41412000D01*
X88685947Y-41412000D01*
X88487728Y-41372572D01*
X88301009Y-41295230D01*
X88301008Y-41295230D01*
X88301007Y-41295229D01*
X88132963Y-41182946D01*
X87990054Y-41040037D01*
X87877771Y-40871993D01*
X87877770Y-40871991D01*
X87800428Y-40685272D01*
X87761000Y-40487053D01*
X87761000Y-40284947D01*
X87800428Y-40086728D01*
X87877770Y-39900009D01*
X87877771Y-39900007D01*
X87990054Y-39731963D01*
X88132963Y-39589054D01*
X88301007Y-39476771D01*
X88301009Y-39476770D01*
X88487728Y-39399428D01*
X88685947Y-39360000D01*
X88888053Y-39360000D01*
X89086272Y-39399428D01*
X89086272Y-39399428D01*
G37*
M02*
