G04 #@! TF.GenerationSoftware,KiCad,Pcbnew,(5.1.2-1)-1*
G04 #@! TF.CreationDate,2020-07-15T14:49:12-04:00*
G04 #@! TF.ProjectId,ArcadeMain,41726361-6465-44d6-9169-6e2e6b696361,rev?*
G04 #@! TF.SameCoordinates,Original*
G04 #@! TF.FileFunction,Paste,Top*
G04 #@! TF.FilePolarity,Positive*
%FSLAX46Y46*%
G04 Gerber Fmt 4.6, Leading zero omitted, Abs format (unit mm)*
G04 Created by KiCad (PCBNEW (5.1.2-1)-1) date 2020-07-15 14:49:12*
%MOMM*%
%LPD*%
G04 APERTURE LIST*
%ADD10C,0.001000*%
G04 APERTURE END LIST*
D10*
G36*
X124235000Y-96774000D02*
G01*
X124485000Y-96774000D01*
X124485000Y-96274000D01*
X124484418Y-96251757D01*
X124482672Y-96229575D01*
X124479768Y-96207515D01*
X124475713Y-96185638D01*
X124470518Y-96164002D01*
X124464199Y-96142668D01*
X124456772Y-96121694D01*
X124448257Y-96101137D01*
X124438678Y-96081054D01*
X124428061Y-96061500D01*
X124416435Y-96042528D01*
X124403832Y-96024191D01*
X124390287Y-96006539D01*
X124375837Y-95989619D01*
X124360520Y-95973480D01*
X124344381Y-95958163D01*
X124327461Y-95943713D01*
X124309809Y-95930168D01*
X124291472Y-95917565D01*
X124272500Y-95905939D01*
X124252946Y-95895322D01*
X124232863Y-95885743D01*
X124212306Y-95877228D01*
X124191332Y-95869801D01*
X124169998Y-95863482D01*
X124148362Y-95858287D01*
X124126485Y-95854232D01*
X124104425Y-95851328D01*
X124082243Y-95849582D01*
X124060000Y-95849000D01*
X124037757Y-95849582D01*
X124015575Y-95851328D01*
X123993515Y-95854232D01*
X123971638Y-95858287D01*
X123950002Y-95863482D01*
X123928668Y-95869801D01*
X123907694Y-95877228D01*
X123887137Y-95885743D01*
X123867054Y-95895322D01*
X123847500Y-95905939D01*
X123828528Y-95917565D01*
X123810191Y-95930168D01*
X123792539Y-95943713D01*
X123775619Y-95958163D01*
X123759480Y-95973480D01*
X123744163Y-95989619D01*
X123729713Y-96006539D01*
X123716168Y-96024191D01*
X123703565Y-96042528D01*
X123691939Y-96061500D01*
X123681322Y-96081054D01*
X123671743Y-96101137D01*
X123663228Y-96121694D01*
X123655801Y-96142668D01*
X123649482Y-96164002D01*
X123644287Y-96185638D01*
X123640232Y-96207515D01*
X123637328Y-96229575D01*
X123635582Y-96251757D01*
X123635000Y-96274000D01*
X123635000Y-96774000D01*
X123885000Y-96774000D01*
X123885000Y-96274000D01*
X123885240Y-96264841D01*
X123885959Y-96255708D01*
X123887155Y-96246624D01*
X123888824Y-96237615D01*
X123890963Y-96228707D01*
X123893565Y-96219922D01*
X123896623Y-96211286D01*
X123900130Y-96202821D01*
X123904074Y-96194552D01*
X123908446Y-96186500D01*
X123913233Y-96178688D01*
X123918422Y-96171138D01*
X123923999Y-96163869D01*
X123929950Y-96156902D01*
X123936256Y-96150256D01*
X123942902Y-96143950D01*
X123949869Y-96137999D01*
X123957138Y-96132422D01*
X123964688Y-96127233D01*
X123972500Y-96122446D01*
X123980552Y-96118074D01*
X123988821Y-96114130D01*
X123997286Y-96110623D01*
X124005922Y-96107565D01*
X124014707Y-96104963D01*
X124023615Y-96102824D01*
X124032624Y-96101155D01*
X124041708Y-96099959D01*
X124050841Y-96099240D01*
X124060000Y-96099000D01*
X124069159Y-96099240D01*
X124078292Y-96099959D01*
X124087376Y-96101155D01*
X124096385Y-96102824D01*
X124105293Y-96104963D01*
X124114078Y-96107565D01*
X124122714Y-96110623D01*
X124131179Y-96114130D01*
X124139448Y-96118074D01*
X124147500Y-96122446D01*
X124155312Y-96127233D01*
X124162862Y-96132422D01*
X124170131Y-96137999D01*
X124177098Y-96143950D01*
X124183744Y-96150256D01*
X124190050Y-96156902D01*
X124196001Y-96163869D01*
X124201578Y-96171138D01*
X124206767Y-96178688D01*
X124211554Y-96186500D01*
X124215926Y-96194552D01*
X124219870Y-96202821D01*
X124223377Y-96211286D01*
X124226435Y-96219922D01*
X124229037Y-96228707D01*
X124231176Y-96237615D01*
X124232845Y-96246624D01*
X124234041Y-96255708D01*
X124234760Y-96264841D01*
X124235000Y-96274000D01*
X124235000Y-96774000D01*
X124235000Y-96774000D01*
G37*
X124235000Y-96774000D02*
X124485000Y-96774000D01*
X124485000Y-96274000D01*
X124484418Y-96251757D01*
X124482672Y-96229575D01*
X124479768Y-96207515D01*
X124475713Y-96185638D01*
X124470518Y-96164002D01*
X124464199Y-96142668D01*
X124456772Y-96121694D01*
X124448257Y-96101137D01*
X124438678Y-96081054D01*
X124428061Y-96061500D01*
X124416435Y-96042528D01*
X124403832Y-96024191D01*
X124390287Y-96006539D01*
X124375837Y-95989619D01*
X124360520Y-95973480D01*
X124344381Y-95958163D01*
X124327461Y-95943713D01*
X124309809Y-95930168D01*
X124291472Y-95917565D01*
X124272500Y-95905939D01*
X124252946Y-95895322D01*
X124232863Y-95885743D01*
X124212306Y-95877228D01*
X124191332Y-95869801D01*
X124169998Y-95863482D01*
X124148362Y-95858287D01*
X124126485Y-95854232D01*
X124104425Y-95851328D01*
X124082243Y-95849582D01*
X124060000Y-95849000D01*
X124037757Y-95849582D01*
X124015575Y-95851328D01*
X123993515Y-95854232D01*
X123971638Y-95858287D01*
X123950002Y-95863482D01*
X123928668Y-95869801D01*
X123907694Y-95877228D01*
X123887137Y-95885743D01*
X123867054Y-95895322D01*
X123847500Y-95905939D01*
X123828528Y-95917565D01*
X123810191Y-95930168D01*
X123792539Y-95943713D01*
X123775619Y-95958163D01*
X123759480Y-95973480D01*
X123744163Y-95989619D01*
X123729713Y-96006539D01*
X123716168Y-96024191D01*
X123703565Y-96042528D01*
X123691939Y-96061500D01*
X123681322Y-96081054D01*
X123671743Y-96101137D01*
X123663228Y-96121694D01*
X123655801Y-96142668D01*
X123649482Y-96164002D01*
X123644287Y-96185638D01*
X123640232Y-96207515D01*
X123637328Y-96229575D01*
X123635582Y-96251757D01*
X123635000Y-96274000D01*
X123635000Y-96774000D01*
X123885000Y-96774000D01*
X123885000Y-96274000D01*
X123885240Y-96264841D01*
X123885959Y-96255708D01*
X123887155Y-96246624D01*
X123888824Y-96237615D01*
X123890963Y-96228707D01*
X123893565Y-96219922D01*
X123896623Y-96211286D01*
X123900130Y-96202821D01*
X123904074Y-96194552D01*
X123908446Y-96186500D01*
X123913233Y-96178688D01*
X123918422Y-96171138D01*
X123923999Y-96163869D01*
X123929950Y-96156902D01*
X123936256Y-96150256D01*
X123942902Y-96143950D01*
X123949869Y-96137999D01*
X123957138Y-96132422D01*
X123964688Y-96127233D01*
X123972500Y-96122446D01*
X123980552Y-96118074D01*
X123988821Y-96114130D01*
X123997286Y-96110623D01*
X124005922Y-96107565D01*
X124014707Y-96104963D01*
X124023615Y-96102824D01*
X124032624Y-96101155D01*
X124041708Y-96099959D01*
X124050841Y-96099240D01*
X124060000Y-96099000D01*
X124069159Y-96099240D01*
X124078292Y-96099959D01*
X124087376Y-96101155D01*
X124096385Y-96102824D01*
X124105293Y-96104963D01*
X124114078Y-96107565D01*
X124122714Y-96110623D01*
X124131179Y-96114130D01*
X124139448Y-96118074D01*
X124147500Y-96122446D01*
X124155312Y-96127233D01*
X124162862Y-96132422D01*
X124170131Y-96137999D01*
X124177098Y-96143950D01*
X124183744Y-96150256D01*
X124190050Y-96156902D01*
X124196001Y-96163869D01*
X124201578Y-96171138D01*
X124206767Y-96178688D01*
X124211554Y-96186500D01*
X124215926Y-96194552D01*
X124219870Y-96202821D01*
X124223377Y-96211286D01*
X124226435Y-96219922D01*
X124229037Y-96228707D01*
X124231176Y-96237615D01*
X124232845Y-96246624D01*
X124234041Y-96255708D01*
X124234760Y-96264841D01*
X124235000Y-96274000D01*
X124235000Y-96774000D01*
G36*
X123885000Y-96774000D02*
G01*
X123635000Y-96774000D01*
X123635000Y-97274000D01*
X123635582Y-97296243D01*
X123637328Y-97318425D01*
X123640232Y-97340485D01*
X123644287Y-97362362D01*
X123649482Y-97383998D01*
X123655801Y-97405332D01*
X123663228Y-97426306D01*
X123671743Y-97446863D01*
X123681322Y-97466946D01*
X123691939Y-97486500D01*
X123703565Y-97505472D01*
X123716168Y-97523809D01*
X123729713Y-97541461D01*
X123744163Y-97558381D01*
X123759480Y-97574520D01*
X123775619Y-97589837D01*
X123792539Y-97604287D01*
X123810191Y-97617832D01*
X123828528Y-97630435D01*
X123847500Y-97642061D01*
X123867054Y-97652678D01*
X123887137Y-97662257D01*
X123907694Y-97670772D01*
X123928668Y-97678199D01*
X123950002Y-97684518D01*
X123971638Y-97689713D01*
X123993515Y-97693768D01*
X124015575Y-97696672D01*
X124037757Y-97698418D01*
X124060000Y-97699000D01*
X124082243Y-97698418D01*
X124104425Y-97696672D01*
X124126485Y-97693768D01*
X124148362Y-97689713D01*
X124169998Y-97684518D01*
X124191332Y-97678199D01*
X124212306Y-97670772D01*
X124232863Y-97662257D01*
X124252946Y-97652678D01*
X124272500Y-97642061D01*
X124291472Y-97630435D01*
X124309809Y-97617832D01*
X124327461Y-97604287D01*
X124344381Y-97589837D01*
X124360520Y-97574520D01*
X124375837Y-97558381D01*
X124390287Y-97541461D01*
X124403832Y-97523809D01*
X124416435Y-97505472D01*
X124428061Y-97486500D01*
X124438678Y-97466946D01*
X124448257Y-97446863D01*
X124456772Y-97426306D01*
X124464199Y-97405332D01*
X124470518Y-97383998D01*
X124475713Y-97362362D01*
X124479768Y-97340485D01*
X124482672Y-97318425D01*
X124484418Y-97296243D01*
X124485000Y-97274000D01*
X124485000Y-96774000D01*
X124235000Y-96774000D01*
X124235000Y-97274000D01*
X124234760Y-97283159D01*
X124234041Y-97292292D01*
X124232845Y-97301376D01*
X124231176Y-97310385D01*
X124229037Y-97319293D01*
X124226435Y-97328078D01*
X124223377Y-97336714D01*
X124219870Y-97345179D01*
X124215926Y-97353448D01*
X124211554Y-97361500D01*
X124206767Y-97369312D01*
X124201578Y-97376862D01*
X124196001Y-97384131D01*
X124190050Y-97391098D01*
X124183744Y-97397744D01*
X124177098Y-97404050D01*
X124170131Y-97410001D01*
X124162862Y-97415578D01*
X124155312Y-97420767D01*
X124147500Y-97425554D01*
X124139448Y-97429926D01*
X124131179Y-97433870D01*
X124122714Y-97437377D01*
X124114078Y-97440435D01*
X124105293Y-97443037D01*
X124096385Y-97445176D01*
X124087376Y-97446845D01*
X124078292Y-97448041D01*
X124069159Y-97448760D01*
X124060000Y-97449000D01*
X124050841Y-97448760D01*
X124041708Y-97448041D01*
X124032624Y-97446845D01*
X124023615Y-97445176D01*
X124014707Y-97443037D01*
X124005922Y-97440435D01*
X123997286Y-97437377D01*
X123988821Y-97433870D01*
X123980552Y-97429926D01*
X123972500Y-97425554D01*
X123964688Y-97420767D01*
X123957138Y-97415578D01*
X123949869Y-97410001D01*
X123942902Y-97404050D01*
X123936256Y-97397744D01*
X123929950Y-97391098D01*
X123923999Y-97384131D01*
X123918422Y-97376862D01*
X123913233Y-97369312D01*
X123908446Y-97361500D01*
X123904074Y-97353448D01*
X123900130Y-97345179D01*
X123896623Y-97336714D01*
X123893565Y-97328078D01*
X123890963Y-97319293D01*
X123888824Y-97310385D01*
X123887155Y-97301376D01*
X123885959Y-97292292D01*
X123885240Y-97283159D01*
X123885000Y-97274000D01*
X123885000Y-96774000D01*
X123885000Y-96774000D01*
G37*
X123885000Y-96774000D02*
X123635000Y-96774000D01*
X123635000Y-97274000D01*
X123635582Y-97296243D01*
X123637328Y-97318425D01*
X123640232Y-97340485D01*
X123644287Y-97362362D01*
X123649482Y-97383998D01*
X123655801Y-97405332D01*
X123663228Y-97426306D01*
X123671743Y-97446863D01*
X123681322Y-97466946D01*
X123691939Y-97486500D01*
X123703565Y-97505472D01*
X123716168Y-97523809D01*
X123729713Y-97541461D01*
X123744163Y-97558381D01*
X123759480Y-97574520D01*
X123775619Y-97589837D01*
X123792539Y-97604287D01*
X123810191Y-97617832D01*
X123828528Y-97630435D01*
X123847500Y-97642061D01*
X123867054Y-97652678D01*
X123887137Y-97662257D01*
X123907694Y-97670772D01*
X123928668Y-97678199D01*
X123950002Y-97684518D01*
X123971638Y-97689713D01*
X123993515Y-97693768D01*
X124015575Y-97696672D01*
X124037757Y-97698418D01*
X124060000Y-97699000D01*
X124082243Y-97698418D01*
X124104425Y-97696672D01*
X124126485Y-97693768D01*
X124148362Y-97689713D01*
X124169998Y-97684518D01*
X124191332Y-97678199D01*
X124212306Y-97670772D01*
X124232863Y-97662257D01*
X124252946Y-97652678D01*
X124272500Y-97642061D01*
X124291472Y-97630435D01*
X124309809Y-97617832D01*
X124327461Y-97604287D01*
X124344381Y-97589837D01*
X124360520Y-97574520D01*
X124375837Y-97558381D01*
X124390287Y-97541461D01*
X124403832Y-97523809D01*
X124416435Y-97505472D01*
X124428061Y-97486500D01*
X124438678Y-97466946D01*
X124448257Y-97446863D01*
X124456772Y-97426306D01*
X124464199Y-97405332D01*
X124470518Y-97383998D01*
X124475713Y-97362362D01*
X124479768Y-97340485D01*
X124482672Y-97318425D01*
X124484418Y-97296243D01*
X124485000Y-97274000D01*
X124485000Y-96774000D01*
X124235000Y-96774000D01*
X124235000Y-97274000D01*
X124234760Y-97283159D01*
X124234041Y-97292292D01*
X124232845Y-97301376D01*
X124231176Y-97310385D01*
X124229037Y-97319293D01*
X124226435Y-97328078D01*
X124223377Y-97336714D01*
X124219870Y-97345179D01*
X124215926Y-97353448D01*
X124211554Y-97361500D01*
X124206767Y-97369312D01*
X124201578Y-97376862D01*
X124196001Y-97384131D01*
X124190050Y-97391098D01*
X124183744Y-97397744D01*
X124177098Y-97404050D01*
X124170131Y-97410001D01*
X124162862Y-97415578D01*
X124155312Y-97420767D01*
X124147500Y-97425554D01*
X124139448Y-97429926D01*
X124131179Y-97433870D01*
X124122714Y-97437377D01*
X124114078Y-97440435D01*
X124105293Y-97443037D01*
X124096385Y-97445176D01*
X124087376Y-97446845D01*
X124078292Y-97448041D01*
X124069159Y-97448760D01*
X124060000Y-97449000D01*
X124050841Y-97448760D01*
X124041708Y-97448041D01*
X124032624Y-97446845D01*
X124023615Y-97445176D01*
X124014707Y-97443037D01*
X124005922Y-97440435D01*
X123997286Y-97437377D01*
X123988821Y-97433870D01*
X123980552Y-97429926D01*
X123972500Y-97425554D01*
X123964688Y-97420767D01*
X123957138Y-97415578D01*
X123949869Y-97410001D01*
X123942902Y-97404050D01*
X123936256Y-97397744D01*
X123929950Y-97391098D01*
X123923999Y-97384131D01*
X123918422Y-97376862D01*
X123913233Y-97369312D01*
X123908446Y-97361500D01*
X123904074Y-97353448D01*
X123900130Y-97345179D01*
X123896623Y-97336714D01*
X123893565Y-97328078D01*
X123890963Y-97319293D01*
X123888824Y-97310385D01*
X123887155Y-97301376D01*
X123885959Y-97292292D01*
X123885240Y-97283159D01*
X123885000Y-97274000D01*
X123885000Y-96774000D01*
G36*
X131385000Y-96774000D02*
G01*
X131635000Y-96774000D01*
X131635000Y-96274000D01*
X131634418Y-96251757D01*
X131632672Y-96229575D01*
X131629768Y-96207515D01*
X131625713Y-96185638D01*
X131620518Y-96164002D01*
X131614199Y-96142668D01*
X131606772Y-96121694D01*
X131598257Y-96101137D01*
X131588678Y-96081054D01*
X131578061Y-96061500D01*
X131566435Y-96042528D01*
X131553832Y-96024191D01*
X131540287Y-96006539D01*
X131525837Y-95989619D01*
X131510520Y-95973480D01*
X131494381Y-95958163D01*
X131477461Y-95943713D01*
X131459809Y-95930168D01*
X131441472Y-95917565D01*
X131422500Y-95905939D01*
X131402946Y-95895322D01*
X131382863Y-95885743D01*
X131362306Y-95877228D01*
X131341332Y-95869801D01*
X131319998Y-95863482D01*
X131298362Y-95858287D01*
X131276485Y-95854232D01*
X131254425Y-95851328D01*
X131232243Y-95849582D01*
X131210000Y-95849000D01*
X131187757Y-95849582D01*
X131165575Y-95851328D01*
X131143515Y-95854232D01*
X131121638Y-95858287D01*
X131100002Y-95863482D01*
X131078668Y-95869801D01*
X131057694Y-95877228D01*
X131037137Y-95885743D01*
X131017054Y-95895322D01*
X130997500Y-95905939D01*
X130978528Y-95917565D01*
X130960191Y-95930168D01*
X130942539Y-95943713D01*
X130925619Y-95958163D01*
X130909480Y-95973480D01*
X130894163Y-95989619D01*
X130879713Y-96006539D01*
X130866168Y-96024191D01*
X130853565Y-96042528D01*
X130841939Y-96061500D01*
X130831322Y-96081054D01*
X130821743Y-96101137D01*
X130813228Y-96121694D01*
X130805801Y-96142668D01*
X130799482Y-96164002D01*
X130794287Y-96185638D01*
X130790232Y-96207515D01*
X130787328Y-96229575D01*
X130785582Y-96251757D01*
X130785000Y-96274000D01*
X130785000Y-96774000D01*
X131035000Y-96774000D01*
X131035000Y-96274000D01*
X131035240Y-96264841D01*
X131035959Y-96255708D01*
X131037155Y-96246624D01*
X131038824Y-96237615D01*
X131040963Y-96228707D01*
X131043565Y-96219922D01*
X131046623Y-96211286D01*
X131050130Y-96202821D01*
X131054074Y-96194552D01*
X131058446Y-96186500D01*
X131063233Y-96178688D01*
X131068422Y-96171138D01*
X131073999Y-96163869D01*
X131079950Y-96156902D01*
X131086256Y-96150256D01*
X131092902Y-96143950D01*
X131099869Y-96137999D01*
X131107138Y-96132422D01*
X131114688Y-96127233D01*
X131122500Y-96122446D01*
X131130552Y-96118074D01*
X131138821Y-96114130D01*
X131147286Y-96110623D01*
X131155922Y-96107565D01*
X131164707Y-96104963D01*
X131173615Y-96102824D01*
X131182624Y-96101155D01*
X131191708Y-96099959D01*
X131200841Y-96099240D01*
X131210000Y-96099000D01*
X131219159Y-96099240D01*
X131228292Y-96099959D01*
X131237376Y-96101155D01*
X131246385Y-96102824D01*
X131255293Y-96104963D01*
X131264078Y-96107565D01*
X131272714Y-96110623D01*
X131281179Y-96114130D01*
X131289448Y-96118074D01*
X131297500Y-96122446D01*
X131305312Y-96127233D01*
X131312862Y-96132422D01*
X131320131Y-96137999D01*
X131327098Y-96143950D01*
X131333744Y-96150256D01*
X131340050Y-96156902D01*
X131346001Y-96163869D01*
X131351578Y-96171138D01*
X131356767Y-96178688D01*
X131361554Y-96186500D01*
X131365926Y-96194552D01*
X131369870Y-96202821D01*
X131373377Y-96211286D01*
X131376435Y-96219922D01*
X131379037Y-96228707D01*
X131381176Y-96237615D01*
X131382845Y-96246624D01*
X131384041Y-96255708D01*
X131384760Y-96264841D01*
X131385000Y-96274000D01*
X131385000Y-96774000D01*
X131385000Y-96774000D01*
G37*
X131385000Y-96774000D02*
X131635000Y-96774000D01*
X131635000Y-96274000D01*
X131634418Y-96251757D01*
X131632672Y-96229575D01*
X131629768Y-96207515D01*
X131625713Y-96185638D01*
X131620518Y-96164002D01*
X131614199Y-96142668D01*
X131606772Y-96121694D01*
X131598257Y-96101137D01*
X131588678Y-96081054D01*
X131578061Y-96061500D01*
X131566435Y-96042528D01*
X131553832Y-96024191D01*
X131540287Y-96006539D01*
X131525837Y-95989619D01*
X131510520Y-95973480D01*
X131494381Y-95958163D01*
X131477461Y-95943713D01*
X131459809Y-95930168D01*
X131441472Y-95917565D01*
X131422500Y-95905939D01*
X131402946Y-95895322D01*
X131382863Y-95885743D01*
X131362306Y-95877228D01*
X131341332Y-95869801D01*
X131319998Y-95863482D01*
X131298362Y-95858287D01*
X131276485Y-95854232D01*
X131254425Y-95851328D01*
X131232243Y-95849582D01*
X131210000Y-95849000D01*
X131187757Y-95849582D01*
X131165575Y-95851328D01*
X131143515Y-95854232D01*
X131121638Y-95858287D01*
X131100002Y-95863482D01*
X131078668Y-95869801D01*
X131057694Y-95877228D01*
X131037137Y-95885743D01*
X131017054Y-95895322D01*
X130997500Y-95905939D01*
X130978528Y-95917565D01*
X130960191Y-95930168D01*
X130942539Y-95943713D01*
X130925619Y-95958163D01*
X130909480Y-95973480D01*
X130894163Y-95989619D01*
X130879713Y-96006539D01*
X130866168Y-96024191D01*
X130853565Y-96042528D01*
X130841939Y-96061500D01*
X130831322Y-96081054D01*
X130821743Y-96101137D01*
X130813228Y-96121694D01*
X130805801Y-96142668D01*
X130799482Y-96164002D01*
X130794287Y-96185638D01*
X130790232Y-96207515D01*
X130787328Y-96229575D01*
X130785582Y-96251757D01*
X130785000Y-96274000D01*
X130785000Y-96774000D01*
X131035000Y-96774000D01*
X131035000Y-96274000D01*
X131035240Y-96264841D01*
X131035959Y-96255708D01*
X131037155Y-96246624D01*
X131038824Y-96237615D01*
X131040963Y-96228707D01*
X131043565Y-96219922D01*
X131046623Y-96211286D01*
X131050130Y-96202821D01*
X131054074Y-96194552D01*
X131058446Y-96186500D01*
X131063233Y-96178688D01*
X131068422Y-96171138D01*
X131073999Y-96163869D01*
X131079950Y-96156902D01*
X131086256Y-96150256D01*
X131092902Y-96143950D01*
X131099869Y-96137999D01*
X131107138Y-96132422D01*
X131114688Y-96127233D01*
X131122500Y-96122446D01*
X131130552Y-96118074D01*
X131138821Y-96114130D01*
X131147286Y-96110623D01*
X131155922Y-96107565D01*
X131164707Y-96104963D01*
X131173615Y-96102824D01*
X131182624Y-96101155D01*
X131191708Y-96099959D01*
X131200841Y-96099240D01*
X131210000Y-96099000D01*
X131219159Y-96099240D01*
X131228292Y-96099959D01*
X131237376Y-96101155D01*
X131246385Y-96102824D01*
X131255293Y-96104963D01*
X131264078Y-96107565D01*
X131272714Y-96110623D01*
X131281179Y-96114130D01*
X131289448Y-96118074D01*
X131297500Y-96122446D01*
X131305312Y-96127233D01*
X131312862Y-96132422D01*
X131320131Y-96137999D01*
X131327098Y-96143950D01*
X131333744Y-96150256D01*
X131340050Y-96156902D01*
X131346001Y-96163869D01*
X131351578Y-96171138D01*
X131356767Y-96178688D01*
X131361554Y-96186500D01*
X131365926Y-96194552D01*
X131369870Y-96202821D01*
X131373377Y-96211286D01*
X131376435Y-96219922D01*
X131379037Y-96228707D01*
X131381176Y-96237615D01*
X131382845Y-96246624D01*
X131384041Y-96255708D01*
X131384760Y-96264841D01*
X131385000Y-96274000D01*
X131385000Y-96774000D01*
G36*
X131035000Y-96774000D02*
G01*
X130785000Y-96774000D01*
X130785000Y-97274000D01*
X130785582Y-97296243D01*
X130787328Y-97318425D01*
X130790232Y-97340485D01*
X130794287Y-97362362D01*
X130799482Y-97383998D01*
X130805801Y-97405332D01*
X130813228Y-97426306D01*
X130821743Y-97446863D01*
X130831322Y-97466946D01*
X130841939Y-97486500D01*
X130853565Y-97505472D01*
X130866168Y-97523809D01*
X130879713Y-97541461D01*
X130894163Y-97558381D01*
X130909480Y-97574520D01*
X130925619Y-97589837D01*
X130942539Y-97604287D01*
X130960191Y-97617832D01*
X130978528Y-97630435D01*
X130997500Y-97642061D01*
X131017054Y-97652678D01*
X131037137Y-97662257D01*
X131057694Y-97670772D01*
X131078668Y-97678199D01*
X131100002Y-97684518D01*
X131121638Y-97689713D01*
X131143515Y-97693768D01*
X131165575Y-97696672D01*
X131187757Y-97698418D01*
X131210000Y-97699000D01*
X131232243Y-97698418D01*
X131254425Y-97696672D01*
X131276485Y-97693768D01*
X131298362Y-97689713D01*
X131319998Y-97684518D01*
X131341332Y-97678199D01*
X131362306Y-97670772D01*
X131382863Y-97662257D01*
X131402946Y-97652678D01*
X131422500Y-97642061D01*
X131441472Y-97630435D01*
X131459809Y-97617832D01*
X131477461Y-97604287D01*
X131494381Y-97589837D01*
X131510520Y-97574520D01*
X131525837Y-97558381D01*
X131540287Y-97541461D01*
X131553832Y-97523809D01*
X131566435Y-97505472D01*
X131578061Y-97486500D01*
X131588678Y-97466946D01*
X131598257Y-97446863D01*
X131606772Y-97426306D01*
X131614199Y-97405332D01*
X131620518Y-97383998D01*
X131625713Y-97362362D01*
X131629768Y-97340485D01*
X131632672Y-97318425D01*
X131634418Y-97296243D01*
X131635000Y-97274000D01*
X131635000Y-96774000D01*
X131385000Y-96774000D01*
X131385000Y-97274000D01*
X131384760Y-97283159D01*
X131384041Y-97292292D01*
X131382845Y-97301376D01*
X131381176Y-97310385D01*
X131379037Y-97319293D01*
X131376435Y-97328078D01*
X131373377Y-97336714D01*
X131369870Y-97345179D01*
X131365926Y-97353448D01*
X131361554Y-97361500D01*
X131356767Y-97369312D01*
X131351578Y-97376862D01*
X131346001Y-97384131D01*
X131340050Y-97391098D01*
X131333744Y-97397744D01*
X131327098Y-97404050D01*
X131320131Y-97410001D01*
X131312862Y-97415578D01*
X131305312Y-97420767D01*
X131297500Y-97425554D01*
X131289448Y-97429926D01*
X131281179Y-97433870D01*
X131272714Y-97437377D01*
X131264078Y-97440435D01*
X131255293Y-97443037D01*
X131246385Y-97445176D01*
X131237376Y-97446845D01*
X131228292Y-97448041D01*
X131219159Y-97448760D01*
X131210000Y-97449000D01*
X131200841Y-97448760D01*
X131191708Y-97448041D01*
X131182624Y-97446845D01*
X131173615Y-97445176D01*
X131164707Y-97443037D01*
X131155922Y-97440435D01*
X131147286Y-97437377D01*
X131138821Y-97433870D01*
X131130552Y-97429926D01*
X131122500Y-97425554D01*
X131114688Y-97420767D01*
X131107138Y-97415578D01*
X131099869Y-97410001D01*
X131092902Y-97404050D01*
X131086256Y-97397744D01*
X131079950Y-97391098D01*
X131073999Y-97384131D01*
X131068422Y-97376862D01*
X131063233Y-97369312D01*
X131058446Y-97361500D01*
X131054074Y-97353448D01*
X131050130Y-97345179D01*
X131046623Y-97336714D01*
X131043565Y-97328078D01*
X131040963Y-97319293D01*
X131038824Y-97310385D01*
X131037155Y-97301376D01*
X131035959Y-97292292D01*
X131035240Y-97283159D01*
X131035000Y-97274000D01*
X131035000Y-96774000D01*
X131035000Y-96774000D01*
G37*
X131035000Y-96774000D02*
X130785000Y-96774000D01*
X130785000Y-97274000D01*
X130785582Y-97296243D01*
X130787328Y-97318425D01*
X130790232Y-97340485D01*
X130794287Y-97362362D01*
X130799482Y-97383998D01*
X130805801Y-97405332D01*
X130813228Y-97426306D01*
X130821743Y-97446863D01*
X130831322Y-97466946D01*
X130841939Y-97486500D01*
X130853565Y-97505472D01*
X130866168Y-97523809D01*
X130879713Y-97541461D01*
X130894163Y-97558381D01*
X130909480Y-97574520D01*
X130925619Y-97589837D01*
X130942539Y-97604287D01*
X130960191Y-97617832D01*
X130978528Y-97630435D01*
X130997500Y-97642061D01*
X131017054Y-97652678D01*
X131037137Y-97662257D01*
X131057694Y-97670772D01*
X131078668Y-97678199D01*
X131100002Y-97684518D01*
X131121638Y-97689713D01*
X131143515Y-97693768D01*
X131165575Y-97696672D01*
X131187757Y-97698418D01*
X131210000Y-97699000D01*
X131232243Y-97698418D01*
X131254425Y-97696672D01*
X131276485Y-97693768D01*
X131298362Y-97689713D01*
X131319998Y-97684518D01*
X131341332Y-97678199D01*
X131362306Y-97670772D01*
X131382863Y-97662257D01*
X131402946Y-97652678D01*
X131422500Y-97642061D01*
X131441472Y-97630435D01*
X131459809Y-97617832D01*
X131477461Y-97604287D01*
X131494381Y-97589837D01*
X131510520Y-97574520D01*
X131525837Y-97558381D01*
X131540287Y-97541461D01*
X131553832Y-97523809D01*
X131566435Y-97505472D01*
X131578061Y-97486500D01*
X131588678Y-97466946D01*
X131598257Y-97446863D01*
X131606772Y-97426306D01*
X131614199Y-97405332D01*
X131620518Y-97383998D01*
X131625713Y-97362362D01*
X131629768Y-97340485D01*
X131632672Y-97318425D01*
X131634418Y-97296243D01*
X131635000Y-97274000D01*
X131635000Y-96774000D01*
X131385000Y-96774000D01*
X131385000Y-97274000D01*
X131384760Y-97283159D01*
X131384041Y-97292292D01*
X131382845Y-97301376D01*
X131381176Y-97310385D01*
X131379037Y-97319293D01*
X131376435Y-97328078D01*
X131373377Y-97336714D01*
X131369870Y-97345179D01*
X131365926Y-97353448D01*
X131361554Y-97361500D01*
X131356767Y-97369312D01*
X131351578Y-97376862D01*
X131346001Y-97384131D01*
X131340050Y-97391098D01*
X131333744Y-97397744D01*
X131327098Y-97404050D01*
X131320131Y-97410001D01*
X131312862Y-97415578D01*
X131305312Y-97420767D01*
X131297500Y-97425554D01*
X131289448Y-97429926D01*
X131281179Y-97433870D01*
X131272714Y-97437377D01*
X131264078Y-97440435D01*
X131255293Y-97443037D01*
X131246385Y-97445176D01*
X131237376Y-97446845D01*
X131228292Y-97448041D01*
X131219159Y-97448760D01*
X131210000Y-97449000D01*
X131200841Y-97448760D01*
X131191708Y-97448041D01*
X131182624Y-97446845D01*
X131173615Y-97445176D01*
X131164707Y-97443037D01*
X131155922Y-97440435D01*
X131147286Y-97437377D01*
X131138821Y-97433870D01*
X131130552Y-97429926D01*
X131122500Y-97425554D01*
X131114688Y-97420767D01*
X131107138Y-97415578D01*
X131099869Y-97410001D01*
X131092902Y-97404050D01*
X131086256Y-97397744D01*
X131079950Y-97391098D01*
X131073999Y-97384131D01*
X131068422Y-97376862D01*
X131063233Y-97369312D01*
X131058446Y-97361500D01*
X131054074Y-97353448D01*
X131050130Y-97345179D01*
X131046623Y-97336714D01*
X131043565Y-97328078D01*
X131040963Y-97319293D01*
X131038824Y-97310385D01*
X131037155Y-97301376D01*
X131035959Y-97292292D01*
X131035240Y-97283159D01*
X131035000Y-97274000D01*
X131035000Y-96774000D01*
G36*
X124235000Y-92710000D02*
G01*
X124485000Y-92710000D01*
X124485000Y-92210000D01*
X124484418Y-92187757D01*
X124482672Y-92165575D01*
X124479768Y-92143515D01*
X124475713Y-92121638D01*
X124470518Y-92100002D01*
X124464199Y-92078668D01*
X124456772Y-92057694D01*
X124448257Y-92037137D01*
X124438678Y-92017054D01*
X124428061Y-91997500D01*
X124416435Y-91978528D01*
X124403832Y-91960191D01*
X124390287Y-91942539D01*
X124375837Y-91925619D01*
X124360520Y-91909480D01*
X124344381Y-91894163D01*
X124327461Y-91879713D01*
X124309809Y-91866168D01*
X124291472Y-91853565D01*
X124272500Y-91841939D01*
X124252946Y-91831322D01*
X124232863Y-91821743D01*
X124212306Y-91813228D01*
X124191332Y-91805801D01*
X124169998Y-91799482D01*
X124148362Y-91794287D01*
X124126485Y-91790232D01*
X124104425Y-91787328D01*
X124082243Y-91785582D01*
X124060000Y-91785000D01*
X124037757Y-91785582D01*
X124015575Y-91787328D01*
X123993515Y-91790232D01*
X123971638Y-91794287D01*
X123950002Y-91799482D01*
X123928668Y-91805801D01*
X123907694Y-91813228D01*
X123887137Y-91821743D01*
X123867054Y-91831322D01*
X123847500Y-91841939D01*
X123828528Y-91853565D01*
X123810191Y-91866168D01*
X123792539Y-91879713D01*
X123775619Y-91894163D01*
X123759480Y-91909480D01*
X123744163Y-91925619D01*
X123729713Y-91942539D01*
X123716168Y-91960191D01*
X123703565Y-91978528D01*
X123691939Y-91997500D01*
X123681322Y-92017054D01*
X123671743Y-92037137D01*
X123663228Y-92057694D01*
X123655801Y-92078668D01*
X123649482Y-92100002D01*
X123644287Y-92121638D01*
X123640232Y-92143515D01*
X123637328Y-92165575D01*
X123635582Y-92187757D01*
X123635000Y-92210000D01*
X123635000Y-92710000D01*
X123885000Y-92710000D01*
X123885000Y-92210000D01*
X123885240Y-92200841D01*
X123885959Y-92191708D01*
X123887155Y-92182624D01*
X123888824Y-92173615D01*
X123890963Y-92164707D01*
X123893565Y-92155922D01*
X123896623Y-92147286D01*
X123900130Y-92138821D01*
X123904074Y-92130552D01*
X123908446Y-92122500D01*
X123913233Y-92114688D01*
X123918422Y-92107138D01*
X123923999Y-92099869D01*
X123929950Y-92092902D01*
X123936256Y-92086256D01*
X123942902Y-92079950D01*
X123949869Y-92073999D01*
X123957138Y-92068422D01*
X123964688Y-92063233D01*
X123972500Y-92058446D01*
X123980552Y-92054074D01*
X123988821Y-92050130D01*
X123997286Y-92046623D01*
X124005922Y-92043565D01*
X124014707Y-92040963D01*
X124023615Y-92038824D01*
X124032624Y-92037155D01*
X124041708Y-92035959D01*
X124050841Y-92035240D01*
X124060000Y-92035000D01*
X124069159Y-92035240D01*
X124078292Y-92035959D01*
X124087376Y-92037155D01*
X124096385Y-92038824D01*
X124105293Y-92040963D01*
X124114078Y-92043565D01*
X124122714Y-92046623D01*
X124131179Y-92050130D01*
X124139448Y-92054074D01*
X124147500Y-92058446D01*
X124155312Y-92063233D01*
X124162862Y-92068422D01*
X124170131Y-92073999D01*
X124177098Y-92079950D01*
X124183744Y-92086256D01*
X124190050Y-92092902D01*
X124196001Y-92099869D01*
X124201578Y-92107138D01*
X124206767Y-92114688D01*
X124211554Y-92122500D01*
X124215926Y-92130552D01*
X124219870Y-92138821D01*
X124223377Y-92147286D01*
X124226435Y-92155922D01*
X124229037Y-92164707D01*
X124231176Y-92173615D01*
X124232845Y-92182624D01*
X124234041Y-92191708D01*
X124234760Y-92200841D01*
X124235000Y-92210000D01*
X124235000Y-92710000D01*
X124235000Y-92710000D01*
G37*
X124235000Y-92710000D02*
X124485000Y-92710000D01*
X124485000Y-92210000D01*
X124484418Y-92187757D01*
X124482672Y-92165575D01*
X124479768Y-92143515D01*
X124475713Y-92121638D01*
X124470518Y-92100002D01*
X124464199Y-92078668D01*
X124456772Y-92057694D01*
X124448257Y-92037137D01*
X124438678Y-92017054D01*
X124428061Y-91997500D01*
X124416435Y-91978528D01*
X124403832Y-91960191D01*
X124390287Y-91942539D01*
X124375837Y-91925619D01*
X124360520Y-91909480D01*
X124344381Y-91894163D01*
X124327461Y-91879713D01*
X124309809Y-91866168D01*
X124291472Y-91853565D01*
X124272500Y-91841939D01*
X124252946Y-91831322D01*
X124232863Y-91821743D01*
X124212306Y-91813228D01*
X124191332Y-91805801D01*
X124169998Y-91799482D01*
X124148362Y-91794287D01*
X124126485Y-91790232D01*
X124104425Y-91787328D01*
X124082243Y-91785582D01*
X124060000Y-91785000D01*
X124037757Y-91785582D01*
X124015575Y-91787328D01*
X123993515Y-91790232D01*
X123971638Y-91794287D01*
X123950002Y-91799482D01*
X123928668Y-91805801D01*
X123907694Y-91813228D01*
X123887137Y-91821743D01*
X123867054Y-91831322D01*
X123847500Y-91841939D01*
X123828528Y-91853565D01*
X123810191Y-91866168D01*
X123792539Y-91879713D01*
X123775619Y-91894163D01*
X123759480Y-91909480D01*
X123744163Y-91925619D01*
X123729713Y-91942539D01*
X123716168Y-91960191D01*
X123703565Y-91978528D01*
X123691939Y-91997500D01*
X123681322Y-92017054D01*
X123671743Y-92037137D01*
X123663228Y-92057694D01*
X123655801Y-92078668D01*
X123649482Y-92100002D01*
X123644287Y-92121638D01*
X123640232Y-92143515D01*
X123637328Y-92165575D01*
X123635582Y-92187757D01*
X123635000Y-92210000D01*
X123635000Y-92710000D01*
X123885000Y-92710000D01*
X123885000Y-92210000D01*
X123885240Y-92200841D01*
X123885959Y-92191708D01*
X123887155Y-92182624D01*
X123888824Y-92173615D01*
X123890963Y-92164707D01*
X123893565Y-92155922D01*
X123896623Y-92147286D01*
X123900130Y-92138821D01*
X123904074Y-92130552D01*
X123908446Y-92122500D01*
X123913233Y-92114688D01*
X123918422Y-92107138D01*
X123923999Y-92099869D01*
X123929950Y-92092902D01*
X123936256Y-92086256D01*
X123942902Y-92079950D01*
X123949869Y-92073999D01*
X123957138Y-92068422D01*
X123964688Y-92063233D01*
X123972500Y-92058446D01*
X123980552Y-92054074D01*
X123988821Y-92050130D01*
X123997286Y-92046623D01*
X124005922Y-92043565D01*
X124014707Y-92040963D01*
X124023615Y-92038824D01*
X124032624Y-92037155D01*
X124041708Y-92035959D01*
X124050841Y-92035240D01*
X124060000Y-92035000D01*
X124069159Y-92035240D01*
X124078292Y-92035959D01*
X124087376Y-92037155D01*
X124096385Y-92038824D01*
X124105293Y-92040963D01*
X124114078Y-92043565D01*
X124122714Y-92046623D01*
X124131179Y-92050130D01*
X124139448Y-92054074D01*
X124147500Y-92058446D01*
X124155312Y-92063233D01*
X124162862Y-92068422D01*
X124170131Y-92073999D01*
X124177098Y-92079950D01*
X124183744Y-92086256D01*
X124190050Y-92092902D01*
X124196001Y-92099869D01*
X124201578Y-92107138D01*
X124206767Y-92114688D01*
X124211554Y-92122500D01*
X124215926Y-92130552D01*
X124219870Y-92138821D01*
X124223377Y-92147286D01*
X124226435Y-92155922D01*
X124229037Y-92164707D01*
X124231176Y-92173615D01*
X124232845Y-92182624D01*
X124234041Y-92191708D01*
X124234760Y-92200841D01*
X124235000Y-92210000D01*
X124235000Y-92710000D01*
G36*
X123885000Y-92710000D02*
G01*
X123635000Y-92710000D01*
X123635000Y-93210000D01*
X123635582Y-93232243D01*
X123637328Y-93254425D01*
X123640232Y-93276485D01*
X123644287Y-93298362D01*
X123649482Y-93319998D01*
X123655801Y-93341332D01*
X123663228Y-93362306D01*
X123671743Y-93382863D01*
X123681322Y-93402946D01*
X123691939Y-93422500D01*
X123703565Y-93441472D01*
X123716168Y-93459809D01*
X123729713Y-93477461D01*
X123744163Y-93494381D01*
X123759480Y-93510520D01*
X123775619Y-93525837D01*
X123792539Y-93540287D01*
X123810191Y-93553832D01*
X123828528Y-93566435D01*
X123847500Y-93578061D01*
X123867054Y-93588678D01*
X123887137Y-93598257D01*
X123907694Y-93606772D01*
X123928668Y-93614199D01*
X123950002Y-93620518D01*
X123971638Y-93625713D01*
X123993515Y-93629768D01*
X124015575Y-93632672D01*
X124037757Y-93634418D01*
X124060000Y-93635000D01*
X124082243Y-93634418D01*
X124104425Y-93632672D01*
X124126485Y-93629768D01*
X124148362Y-93625713D01*
X124169998Y-93620518D01*
X124191332Y-93614199D01*
X124212306Y-93606772D01*
X124232863Y-93598257D01*
X124252946Y-93588678D01*
X124272500Y-93578061D01*
X124291472Y-93566435D01*
X124309809Y-93553832D01*
X124327461Y-93540287D01*
X124344381Y-93525837D01*
X124360520Y-93510520D01*
X124375837Y-93494381D01*
X124390287Y-93477461D01*
X124403832Y-93459809D01*
X124416435Y-93441472D01*
X124428061Y-93422500D01*
X124438678Y-93402946D01*
X124448257Y-93382863D01*
X124456772Y-93362306D01*
X124464199Y-93341332D01*
X124470518Y-93319998D01*
X124475713Y-93298362D01*
X124479768Y-93276485D01*
X124482672Y-93254425D01*
X124484418Y-93232243D01*
X124485000Y-93210000D01*
X124485000Y-92710000D01*
X124235000Y-92710000D01*
X124235000Y-93210000D01*
X124234760Y-93219159D01*
X124234041Y-93228292D01*
X124232845Y-93237376D01*
X124231176Y-93246385D01*
X124229037Y-93255293D01*
X124226435Y-93264078D01*
X124223377Y-93272714D01*
X124219870Y-93281179D01*
X124215926Y-93289448D01*
X124211554Y-93297500D01*
X124206767Y-93305312D01*
X124201578Y-93312862D01*
X124196001Y-93320131D01*
X124190050Y-93327098D01*
X124183744Y-93333744D01*
X124177098Y-93340050D01*
X124170131Y-93346001D01*
X124162862Y-93351578D01*
X124155312Y-93356767D01*
X124147500Y-93361554D01*
X124139448Y-93365926D01*
X124131179Y-93369870D01*
X124122714Y-93373377D01*
X124114078Y-93376435D01*
X124105293Y-93379037D01*
X124096385Y-93381176D01*
X124087376Y-93382845D01*
X124078292Y-93384041D01*
X124069159Y-93384760D01*
X124060000Y-93385000D01*
X124050841Y-93384760D01*
X124041708Y-93384041D01*
X124032624Y-93382845D01*
X124023615Y-93381176D01*
X124014707Y-93379037D01*
X124005922Y-93376435D01*
X123997286Y-93373377D01*
X123988821Y-93369870D01*
X123980552Y-93365926D01*
X123972500Y-93361554D01*
X123964688Y-93356767D01*
X123957138Y-93351578D01*
X123949869Y-93346001D01*
X123942902Y-93340050D01*
X123936256Y-93333744D01*
X123929950Y-93327098D01*
X123923999Y-93320131D01*
X123918422Y-93312862D01*
X123913233Y-93305312D01*
X123908446Y-93297500D01*
X123904074Y-93289448D01*
X123900130Y-93281179D01*
X123896623Y-93272714D01*
X123893565Y-93264078D01*
X123890963Y-93255293D01*
X123888824Y-93246385D01*
X123887155Y-93237376D01*
X123885959Y-93228292D01*
X123885240Y-93219159D01*
X123885000Y-93210000D01*
X123885000Y-92710000D01*
X123885000Y-92710000D01*
G37*
X123885000Y-92710000D02*
X123635000Y-92710000D01*
X123635000Y-93210000D01*
X123635582Y-93232243D01*
X123637328Y-93254425D01*
X123640232Y-93276485D01*
X123644287Y-93298362D01*
X123649482Y-93319998D01*
X123655801Y-93341332D01*
X123663228Y-93362306D01*
X123671743Y-93382863D01*
X123681322Y-93402946D01*
X123691939Y-93422500D01*
X123703565Y-93441472D01*
X123716168Y-93459809D01*
X123729713Y-93477461D01*
X123744163Y-93494381D01*
X123759480Y-93510520D01*
X123775619Y-93525837D01*
X123792539Y-93540287D01*
X123810191Y-93553832D01*
X123828528Y-93566435D01*
X123847500Y-93578061D01*
X123867054Y-93588678D01*
X123887137Y-93598257D01*
X123907694Y-93606772D01*
X123928668Y-93614199D01*
X123950002Y-93620518D01*
X123971638Y-93625713D01*
X123993515Y-93629768D01*
X124015575Y-93632672D01*
X124037757Y-93634418D01*
X124060000Y-93635000D01*
X124082243Y-93634418D01*
X124104425Y-93632672D01*
X124126485Y-93629768D01*
X124148362Y-93625713D01*
X124169998Y-93620518D01*
X124191332Y-93614199D01*
X124212306Y-93606772D01*
X124232863Y-93598257D01*
X124252946Y-93588678D01*
X124272500Y-93578061D01*
X124291472Y-93566435D01*
X124309809Y-93553832D01*
X124327461Y-93540287D01*
X124344381Y-93525837D01*
X124360520Y-93510520D01*
X124375837Y-93494381D01*
X124390287Y-93477461D01*
X124403832Y-93459809D01*
X124416435Y-93441472D01*
X124428061Y-93422500D01*
X124438678Y-93402946D01*
X124448257Y-93382863D01*
X124456772Y-93362306D01*
X124464199Y-93341332D01*
X124470518Y-93319998D01*
X124475713Y-93298362D01*
X124479768Y-93276485D01*
X124482672Y-93254425D01*
X124484418Y-93232243D01*
X124485000Y-93210000D01*
X124485000Y-92710000D01*
X124235000Y-92710000D01*
X124235000Y-93210000D01*
X124234760Y-93219159D01*
X124234041Y-93228292D01*
X124232845Y-93237376D01*
X124231176Y-93246385D01*
X124229037Y-93255293D01*
X124226435Y-93264078D01*
X124223377Y-93272714D01*
X124219870Y-93281179D01*
X124215926Y-93289448D01*
X124211554Y-93297500D01*
X124206767Y-93305312D01*
X124201578Y-93312862D01*
X124196001Y-93320131D01*
X124190050Y-93327098D01*
X124183744Y-93333744D01*
X124177098Y-93340050D01*
X124170131Y-93346001D01*
X124162862Y-93351578D01*
X124155312Y-93356767D01*
X124147500Y-93361554D01*
X124139448Y-93365926D01*
X124131179Y-93369870D01*
X124122714Y-93373377D01*
X124114078Y-93376435D01*
X124105293Y-93379037D01*
X124096385Y-93381176D01*
X124087376Y-93382845D01*
X124078292Y-93384041D01*
X124069159Y-93384760D01*
X124060000Y-93385000D01*
X124050841Y-93384760D01*
X124041708Y-93384041D01*
X124032624Y-93382845D01*
X124023615Y-93381176D01*
X124014707Y-93379037D01*
X124005922Y-93376435D01*
X123997286Y-93373377D01*
X123988821Y-93369870D01*
X123980552Y-93365926D01*
X123972500Y-93361554D01*
X123964688Y-93356767D01*
X123957138Y-93351578D01*
X123949869Y-93346001D01*
X123942902Y-93340050D01*
X123936256Y-93333744D01*
X123929950Y-93327098D01*
X123923999Y-93320131D01*
X123918422Y-93312862D01*
X123913233Y-93305312D01*
X123908446Y-93297500D01*
X123904074Y-93289448D01*
X123900130Y-93281179D01*
X123896623Y-93272714D01*
X123893565Y-93264078D01*
X123890963Y-93255293D01*
X123888824Y-93246385D01*
X123887155Y-93237376D01*
X123885959Y-93228292D01*
X123885240Y-93219159D01*
X123885000Y-93210000D01*
X123885000Y-92710000D01*
G36*
X131385000Y-92710000D02*
G01*
X131635000Y-92710000D01*
X131635000Y-92210000D01*
X131634418Y-92187757D01*
X131632672Y-92165575D01*
X131629768Y-92143515D01*
X131625713Y-92121638D01*
X131620518Y-92100002D01*
X131614199Y-92078668D01*
X131606772Y-92057694D01*
X131598257Y-92037137D01*
X131588678Y-92017054D01*
X131578061Y-91997500D01*
X131566435Y-91978528D01*
X131553832Y-91960191D01*
X131540287Y-91942539D01*
X131525837Y-91925619D01*
X131510520Y-91909480D01*
X131494381Y-91894163D01*
X131477461Y-91879713D01*
X131459809Y-91866168D01*
X131441472Y-91853565D01*
X131422500Y-91841939D01*
X131402946Y-91831322D01*
X131382863Y-91821743D01*
X131362306Y-91813228D01*
X131341332Y-91805801D01*
X131319998Y-91799482D01*
X131298362Y-91794287D01*
X131276485Y-91790232D01*
X131254425Y-91787328D01*
X131232243Y-91785582D01*
X131210000Y-91785000D01*
X131187757Y-91785582D01*
X131165575Y-91787328D01*
X131143515Y-91790232D01*
X131121638Y-91794287D01*
X131100002Y-91799482D01*
X131078668Y-91805801D01*
X131057694Y-91813228D01*
X131037137Y-91821743D01*
X131017054Y-91831322D01*
X130997500Y-91841939D01*
X130978528Y-91853565D01*
X130960191Y-91866168D01*
X130942539Y-91879713D01*
X130925619Y-91894163D01*
X130909480Y-91909480D01*
X130894163Y-91925619D01*
X130879713Y-91942539D01*
X130866168Y-91960191D01*
X130853565Y-91978528D01*
X130841939Y-91997500D01*
X130831322Y-92017054D01*
X130821743Y-92037137D01*
X130813228Y-92057694D01*
X130805801Y-92078668D01*
X130799482Y-92100002D01*
X130794287Y-92121638D01*
X130790232Y-92143515D01*
X130787328Y-92165575D01*
X130785582Y-92187757D01*
X130785000Y-92210000D01*
X130785000Y-92710000D01*
X131035000Y-92710000D01*
X131035000Y-92210000D01*
X131035240Y-92200841D01*
X131035959Y-92191708D01*
X131037155Y-92182624D01*
X131038824Y-92173615D01*
X131040963Y-92164707D01*
X131043565Y-92155922D01*
X131046623Y-92147286D01*
X131050130Y-92138821D01*
X131054074Y-92130552D01*
X131058446Y-92122500D01*
X131063233Y-92114688D01*
X131068422Y-92107138D01*
X131073999Y-92099869D01*
X131079950Y-92092902D01*
X131086256Y-92086256D01*
X131092902Y-92079950D01*
X131099869Y-92073999D01*
X131107138Y-92068422D01*
X131114688Y-92063233D01*
X131122500Y-92058446D01*
X131130552Y-92054074D01*
X131138821Y-92050130D01*
X131147286Y-92046623D01*
X131155922Y-92043565D01*
X131164707Y-92040963D01*
X131173615Y-92038824D01*
X131182624Y-92037155D01*
X131191708Y-92035959D01*
X131200841Y-92035240D01*
X131210000Y-92035000D01*
X131219159Y-92035240D01*
X131228292Y-92035959D01*
X131237376Y-92037155D01*
X131246385Y-92038824D01*
X131255293Y-92040963D01*
X131264078Y-92043565D01*
X131272714Y-92046623D01*
X131281179Y-92050130D01*
X131289448Y-92054074D01*
X131297500Y-92058446D01*
X131305312Y-92063233D01*
X131312862Y-92068422D01*
X131320131Y-92073999D01*
X131327098Y-92079950D01*
X131333744Y-92086256D01*
X131340050Y-92092902D01*
X131346001Y-92099869D01*
X131351578Y-92107138D01*
X131356767Y-92114688D01*
X131361554Y-92122500D01*
X131365926Y-92130552D01*
X131369870Y-92138821D01*
X131373377Y-92147286D01*
X131376435Y-92155922D01*
X131379037Y-92164707D01*
X131381176Y-92173615D01*
X131382845Y-92182624D01*
X131384041Y-92191708D01*
X131384760Y-92200841D01*
X131385000Y-92210000D01*
X131385000Y-92710000D01*
X131385000Y-92710000D01*
G37*
X131385000Y-92710000D02*
X131635000Y-92710000D01*
X131635000Y-92210000D01*
X131634418Y-92187757D01*
X131632672Y-92165575D01*
X131629768Y-92143515D01*
X131625713Y-92121638D01*
X131620518Y-92100002D01*
X131614199Y-92078668D01*
X131606772Y-92057694D01*
X131598257Y-92037137D01*
X131588678Y-92017054D01*
X131578061Y-91997500D01*
X131566435Y-91978528D01*
X131553832Y-91960191D01*
X131540287Y-91942539D01*
X131525837Y-91925619D01*
X131510520Y-91909480D01*
X131494381Y-91894163D01*
X131477461Y-91879713D01*
X131459809Y-91866168D01*
X131441472Y-91853565D01*
X131422500Y-91841939D01*
X131402946Y-91831322D01*
X131382863Y-91821743D01*
X131362306Y-91813228D01*
X131341332Y-91805801D01*
X131319998Y-91799482D01*
X131298362Y-91794287D01*
X131276485Y-91790232D01*
X131254425Y-91787328D01*
X131232243Y-91785582D01*
X131210000Y-91785000D01*
X131187757Y-91785582D01*
X131165575Y-91787328D01*
X131143515Y-91790232D01*
X131121638Y-91794287D01*
X131100002Y-91799482D01*
X131078668Y-91805801D01*
X131057694Y-91813228D01*
X131037137Y-91821743D01*
X131017054Y-91831322D01*
X130997500Y-91841939D01*
X130978528Y-91853565D01*
X130960191Y-91866168D01*
X130942539Y-91879713D01*
X130925619Y-91894163D01*
X130909480Y-91909480D01*
X130894163Y-91925619D01*
X130879713Y-91942539D01*
X130866168Y-91960191D01*
X130853565Y-91978528D01*
X130841939Y-91997500D01*
X130831322Y-92017054D01*
X130821743Y-92037137D01*
X130813228Y-92057694D01*
X130805801Y-92078668D01*
X130799482Y-92100002D01*
X130794287Y-92121638D01*
X130790232Y-92143515D01*
X130787328Y-92165575D01*
X130785582Y-92187757D01*
X130785000Y-92210000D01*
X130785000Y-92710000D01*
X131035000Y-92710000D01*
X131035000Y-92210000D01*
X131035240Y-92200841D01*
X131035959Y-92191708D01*
X131037155Y-92182624D01*
X131038824Y-92173615D01*
X131040963Y-92164707D01*
X131043565Y-92155922D01*
X131046623Y-92147286D01*
X131050130Y-92138821D01*
X131054074Y-92130552D01*
X131058446Y-92122500D01*
X131063233Y-92114688D01*
X131068422Y-92107138D01*
X131073999Y-92099869D01*
X131079950Y-92092902D01*
X131086256Y-92086256D01*
X131092902Y-92079950D01*
X131099869Y-92073999D01*
X131107138Y-92068422D01*
X131114688Y-92063233D01*
X131122500Y-92058446D01*
X131130552Y-92054074D01*
X131138821Y-92050130D01*
X131147286Y-92046623D01*
X131155922Y-92043565D01*
X131164707Y-92040963D01*
X131173615Y-92038824D01*
X131182624Y-92037155D01*
X131191708Y-92035959D01*
X131200841Y-92035240D01*
X131210000Y-92035000D01*
X131219159Y-92035240D01*
X131228292Y-92035959D01*
X131237376Y-92037155D01*
X131246385Y-92038824D01*
X131255293Y-92040963D01*
X131264078Y-92043565D01*
X131272714Y-92046623D01*
X131281179Y-92050130D01*
X131289448Y-92054074D01*
X131297500Y-92058446D01*
X131305312Y-92063233D01*
X131312862Y-92068422D01*
X131320131Y-92073999D01*
X131327098Y-92079950D01*
X131333744Y-92086256D01*
X131340050Y-92092902D01*
X131346001Y-92099869D01*
X131351578Y-92107138D01*
X131356767Y-92114688D01*
X131361554Y-92122500D01*
X131365926Y-92130552D01*
X131369870Y-92138821D01*
X131373377Y-92147286D01*
X131376435Y-92155922D01*
X131379037Y-92164707D01*
X131381176Y-92173615D01*
X131382845Y-92182624D01*
X131384041Y-92191708D01*
X131384760Y-92200841D01*
X131385000Y-92210000D01*
X131385000Y-92710000D01*
G36*
X131035000Y-92710000D02*
G01*
X130785000Y-92710000D01*
X130785000Y-93210000D01*
X130785582Y-93232243D01*
X130787328Y-93254425D01*
X130790232Y-93276485D01*
X130794287Y-93298362D01*
X130799482Y-93319998D01*
X130805801Y-93341332D01*
X130813228Y-93362306D01*
X130821743Y-93382863D01*
X130831322Y-93402946D01*
X130841939Y-93422500D01*
X130853565Y-93441472D01*
X130866168Y-93459809D01*
X130879713Y-93477461D01*
X130894163Y-93494381D01*
X130909480Y-93510520D01*
X130925619Y-93525837D01*
X130942539Y-93540287D01*
X130960191Y-93553832D01*
X130978528Y-93566435D01*
X130997500Y-93578061D01*
X131017054Y-93588678D01*
X131037137Y-93598257D01*
X131057694Y-93606772D01*
X131078668Y-93614199D01*
X131100002Y-93620518D01*
X131121638Y-93625713D01*
X131143515Y-93629768D01*
X131165575Y-93632672D01*
X131187757Y-93634418D01*
X131210000Y-93635000D01*
X131232243Y-93634418D01*
X131254425Y-93632672D01*
X131276485Y-93629768D01*
X131298362Y-93625713D01*
X131319998Y-93620518D01*
X131341332Y-93614199D01*
X131362306Y-93606772D01*
X131382863Y-93598257D01*
X131402946Y-93588678D01*
X131422500Y-93578061D01*
X131441472Y-93566435D01*
X131459809Y-93553832D01*
X131477461Y-93540287D01*
X131494381Y-93525837D01*
X131510520Y-93510520D01*
X131525837Y-93494381D01*
X131540287Y-93477461D01*
X131553832Y-93459809D01*
X131566435Y-93441472D01*
X131578061Y-93422500D01*
X131588678Y-93402946D01*
X131598257Y-93382863D01*
X131606772Y-93362306D01*
X131614199Y-93341332D01*
X131620518Y-93319998D01*
X131625713Y-93298362D01*
X131629768Y-93276485D01*
X131632672Y-93254425D01*
X131634418Y-93232243D01*
X131635000Y-93210000D01*
X131635000Y-92710000D01*
X131385000Y-92710000D01*
X131385000Y-93210000D01*
X131384760Y-93219159D01*
X131384041Y-93228292D01*
X131382845Y-93237376D01*
X131381176Y-93246385D01*
X131379037Y-93255293D01*
X131376435Y-93264078D01*
X131373377Y-93272714D01*
X131369870Y-93281179D01*
X131365926Y-93289448D01*
X131361554Y-93297500D01*
X131356767Y-93305312D01*
X131351578Y-93312862D01*
X131346001Y-93320131D01*
X131340050Y-93327098D01*
X131333744Y-93333744D01*
X131327098Y-93340050D01*
X131320131Y-93346001D01*
X131312862Y-93351578D01*
X131305312Y-93356767D01*
X131297500Y-93361554D01*
X131289448Y-93365926D01*
X131281179Y-93369870D01*
X131272714Y-93373377D01*
X131264078Y-93376435D01*
X131255293Y-93379037D01*
X131246385Y-93381176D01*
X131237376Y-93382845D01*
X131228292Y-93384041D01*
X131219159Y-93384760D01*
X131210000Y-93385000D01*
X131200841Y-93384760D01*
X131191708Y-93384041D01*
X131182624Y-93382845D01*
X131173615Y-93381176D01*
X131164707Y-93379037D01*
X131155922Y-93376435D01*
X131147286Y-93373377D01*
X131138821Y-93369870D01*
X131130552Y-93365926D01*
X131122500Y-93361554D01*
X131114688Y-93356767D01*
X131107138Y-93351578D01*
X131099869Y-93346001D01*
X131092902Y-93340050D01*
X131086256Y-93333744D01*
X131079950Y-93327098D01*
X131073999Y-93320131D01*
X131068422Y-93312862D01*
X131063233Y-93305312D01*
X131058446Y-93297500D01*
X131054074Y-93289448D01*
X131050130Y-93281179D01*
X131046623Y-93272714D01*
X131043565Y-93264078D01*
X131040963Y-93255293D01*
X131038824Y-93246385D01*
X131037155Y-93237376D01*
X131035959Y-93228292D01*
X131035240Y-93219159D01*
X131035000Y-93210000D01*
X131035000Y-92710000D01*
X131035000Y-92710000D01*
G37*
X131035000Y-92710000D02*
X130785000Y-92710000D01*
X130785000Y-93210000D01*
X130785582Y-93232243D01*
X130787328Y-93254425D01*
X130790232Y-93276485D01*
X130794287Y-93298362D01*
X130799482Y-93319998D01*
X130805801Y-93341332D01*
X130813228Y-93362306D01*
X130821743Y-93382863D01*
X130831322Y-93402946D01*
X130841939Y-93422500D01*
X130853565Y-93441472D01*
X130866168Y-93459809D01*
X130879713Y-93477461D01*
X130894163Y-93494381D01*
X130909480Y-93510520D01*
X130925619Y-93525837D01*
X130942539Y-93540287D01*
X130960191Y-93553832D01*
X130978528Y-93566435D01*
X130997500Y-93578061D01*
X131017054Y-93588678D01*
X131037137Y-93598257D01*
X131057694Y-93606772D01*
X131078668Y-93614199D01*
X131100002Y-93620518D01*
X131121638Y-93625713D01*
X131143515Y-93629768D01*
X131165575Y-93632672D01*
X131187757Y-93634418D01*
X131210000Y-93635000D01*
X131232243Y-93634418D01*
X131254425Y-93632672D01*
X131276485Y-93629768D01*
X131298362Y-93625713D01*
X131319998Y-93620518D01*
X131341332Y-93614199D01*
X131362306Y-93606772D01*
X131382863Y-93598257D01*
X131402946Y-93588678D01*
X131422500Y-93578061D01*
X131441472Y-93566435D01*
X131459809Y-93553832D01*
X131477461Y-93540287D01*
X131494381Y-93525837D01*
X131510520Y-93510520D01*
X131525837Y-93494381D01*
X131540287Y-93477461D01*
X131553832Y-93459809D01*
X131566435Y-93441472D01*
X131578061Y-93422500D01*
X131588678Y-93402946D01*
X131598257Y-93382863D01*
X131606772Y-93362306D01*
X131614199Y-93341332D01*
X131620518Y-93319998D01*
X131625713Y-93298362D01*
X131629768Y-93276485D01*
X131632672Y-93254425D01*
X131634418Y-93232243D01*
X131635000Y-93210000D01*
X131635000Y-92710000D01*
X131385000Y-92710000D01*
X131385000Y-93210000D01*
X131384760Y-93219159D01*
X131384041Y-93228292D01*
X131382845Y-93237376D01*
X131381176Y-93246385D01*
X131379037Y-93255293D01*
X131376435Y-93264078D01*
X131373377Y-93272714D01*
X131369870Y-93281179D01*
X131365926Y-93289448D01*
X131361554Y-93297500D01*
X131356767Y-93305312D01*
X131351578Y-93312862D01*
X131346001Y-93320131D01*
X131340050Y-93327098D01*
X131333744Y-93333744D01*
X131327098Y-93340050D01*
X131320131Y-93346001D01*
X131312862Y-93351578D01*
X131305312Y-93356767D01*
X131297500Y-93361554D01*
X131289448Y-93365926D01*
X131281179Y-93369870D01*
X131272714Y-93373377D01*
X131264078Y-93376435D01*
X131255293Y-93379037D01*
X131246385Y-93381176D01*
X131237376Y-93382845D01*
X131228292Y-93384041D01*
X131219159Y-93384760D01*
X131210000Y-93385000D01*
X131200841Y-93384760D01*
X131191708Y-93384041D01*
X131182624Y-93382845D01*
X131173615Y-93381176D01*
X131164707Y-93379037D01*
X131155922Y-93376435D01*
X131147286Y-93373377D01*
X131138821Y-93369870D01*
X131130552Y-93365926D01*
X131122500Y-93361554D01*
X131114688Y-93356767D01*
X131107138Y-93351578D01*
X131099869Y-93346001D01*
X131092902Y-93340050D01*
X131086256Y-93333744D01*
X131079950Y-93327098D01*
X131073999Y-93320131D01*
X131068422Y-93312862D01*
X131063233Y-93305312D01*
X131058446Y-93297500D01*
X131054074Y-93289448D01*
X131050130Y-93281179D01*
X131046623Y-93272714D01*
X131043565Y-93264078D01*
X131040963Y-93255293D01*
X131038824Y-93246385D01*
X131037155Y-93237376D01*
X131035959Y-93228292D01*
X131035240Y-93219159D01*
X131035000Y-93210000D01*
X131035000Y-92710000D01*
M02*
