G04 #@! TF.GenerationSoftware,KiCad,Pcbnew,(5.1.2-1)-1*
G04 #@! TF.CreationDate,2020-07-05T12:12:15-04:00*
G04 #@! TF.ProjectId,ArcadeMain,41726361-6465-44d6-9169-6e2e6b696361,rev?*
G04 #@! TF.SameCoordinates,Original*
G04 #@! TF.FileFunction,Legend,Top*
G04 #@! TF.FilePolarity,Positive*
%FSLAX46Y46*%
G04 Gerber Fmt 4.6, Leading zero omitted, Abs format (unit mm)*
G04 Created by KiCad (PCBNEW (5.1.2-1)-1) date 2020-07-05 12:12:15*
%MOMM*%
%LPD*%
G04 APERTURE LIST*
%ADD10C,0.250000*%
%ADD11C,0.120000*%
%ADD12C,0.150000*%
%ADD13C,0.100000*%
%ADD14C,0.200000*%
%ADD15C,0.127000*%
G04 APERTURE END LIST*
D10*
X167425857Y-54421857D02*
X170425857Y-54421857D01*
X168283000Y-57421857D01*
X170425857Y-60421857D01*
X167425857Y-60421857D01*
X167425857Y-64707571D02*
X170425857Y-64707571D01*
X167711571Y-74136142D02*
X167568714Y-73707571D01*
X167425857Y-72421857D01*
X167425857Y-71564714D01*
X167568714Y-70279000D01*
X167854428Y-69421857D01*
X168140142Y-68993285D01*
X168711571Y-68564714D01*
X169140142Y-68564714D01*
X169711571Y-68993285D01*
X169997285Y-69421857D01*
X170283000Y-70279000D01*
X170425857Y-71564714D01*
X170425857Y-72421857D01*
X170283000Y-73707571D01*
X170140142Y-74136142D01*
X167425857Y-83136142D02*
X168854428Y-80136142D01*
X167425857Y-77993285D02*
X170425857Y-77993285D01*
X170425857Y-81421857D01*
X170283000Y-82279000D01*
X170140142Y-82707571D01*
X169854428Y-83136142D01*
X169425857Y-83136142D01*
X169140142Y-82707571D01*
X168997285Y-82279000D01*
X168854428Y-81421857D01*
X168854428Y-77993285D01*
X170425857Y-88707571D02*
X170425857Y-90421857D01*
X170283000Y-91279000D01*
X169997285Y-92136142D01*
X169425857Y-92564714D01*
X168425857Y-92564714D01*
X167854428Y-92136142D01*
X167568714Y-91279000D01*
X167425857Y-90421857D01*
X167425857Y-88707571D01*
X167568714Y-87850428D01*
X167854428Y-86993285D01*
X168425857Y-86564714D01*
X169425857Y-86564714D01*
X169997285Y-86993285D01*
X170283000Y-87850428D01*
X170425857Y-88707571D01*
X144438857Y-54548857D02*
X147438857Y-54548857D01*
X145296000Y-57548857D01*
X147438857Y-60548857D01*
X144438857Y-60548857D01*
X144438857Y-64834571D02*
X147438857Y-64834571D01*
X144724571Y-74263142D02*
X144581714Y-73834571D01*
X144438857Y-72548857D01*
X144438857Y-71691714D01*
X144581714Y-70406000D01*
X144867428Y-69548857D01*
X145153142Y-69120285D01*
X145724571Y-68691714D01*
X146153142Y-68691714D01*
X146724571Y-69120285D01*
X147010285Y-69548857D01*
X147296000Y-70406000D01*
X147438857Y-71691714D01*
X147438857Y-72548857D01*
X147296000Y-73834571D01*
X147153142Y-74263142D01*
X144438857Y-83263142D02*
X145867428Y-80263142D01*
X144438857Y-78120285D02*
X147438857Y-78120285D01*
X147438857Y-81548857D01*
X147296000Y-82406000D01*
X147153142Y-82834571D01*
X146867428Y-83263142D01*
X146438857Y-83263142D01*
X146153142Y-82834571D01*
X146010285Y-82406000D01*
X145867428Y-81548857D01*
X145867428Y-78120285D01*
X147438857Y-88834571D02*
X147438857Y-90548857D01*
X147296000Y-91406000D01*
X147010285Y-92263142D01*
X146438857Y-92691714D01*
X145438857Y-92691714D01*
X144867428Y-92263142D01*
X144581714Y-91406000D01*
X144438857Y-90548857D01*
X144438857Y-88834571D01*
X144581714Y-87977428D01*
X144867428Y-87120285D01*
X145438857Y-86691714D01*
X146438857Y-86691714D01*
X147010285Y-87120285D01*
X147296000Y-87977428D01*
X147438857Y-88834571D01*
D11*
X108585000Y-57404000D02*
X108585000Y-65659000D01*
X108585000Y-75692000D02*
X108585000Y-83947000D01*
X108585000Y-105791000D02*
X108585000Y-114046000D01*
X108585000Y-87249000D02*
X108585000Y-95504000D01*
D12*
X108132619Y-96226857D02*
X109132619Y-96226857D01*
X109132619Y-96607809D01*
X109085000Y-96703047D01*
X109037380Y-96750666D01*
X108942142Y-96798285D01*
X108799285Y-96798285D01*
X108704047Y-96750666D01*
X108656428Y-96703047D01*
X108608809Y-96607809D01*
X108608809Y-96226857D01*
X108132619Y-97703047D02*
X108132619Y-97226857D01*
X109132619Y-97226857D01*
X108418333Y-97988761D02*
X108418333Y-98464952D01*
X108132619Y-97893523D02*
X109132619Y-98226857D01*
X108132619Y-98560190D01*
X108608809Y-99084000D02*
X108132619Y-99084000D01*
X109132619Y-98750666D02*
X108608809Y-99084000D01*
X109132619Y-99417333D01*
X108656428Y-99750666D02*
X108656428Y-100084000D01*
X108132619Y-100226857D02*
X108132619Y-99750666D01*
X109132619Y-99750666D01*
X109132619Y-100226857D01*
X108132619Y-101226857D02*
X108608809Y-100893523D01*
X108132619Y-100655428D02*
X109132619Y-100655428D01*
X109132619Y-101036380D01*
X109085000Y-101131619D01*
X109037380Y-101179238D01*
X108942142Y-101226857D01*
X108799285Y-101226857D01*
X108704047Y-101179238D01*
X108656428Y-101131619D01*
X108608809Y-101036380D01*
X108608809Y-100655428D01*
X109132619Y-102607809D02*
X109132619Y-102798285D01*
X109085000Y-102893523D01*
X108989761Y-102988761D01*
X108799285Y-103036380D01*
X108465952Y-103036380D01*
X108275476Y-102988761D01*
X108180238Y-102893523D01*
X108132619Y-102798285D01*
X108132619Y-102607809D01*
X108180238Y-102512571D01*
X108275476Y-102417333D01*
X108465952Y-102369714D01*
X108799285Y-102369714D01*
X108989761Y-102417333D01*
X109085000Y-102512571D01*
X109132619Y-102607809D01*
X108132619Y-103464952D02*
X109132619Y-103464952D01*
X108132619Y-104036380D01*
X109132619Y-104036380D01*
X108656428Y-104512571D02*
X108656428Y-104845904D01*
X108132619Y-104988761D02*
X108132619Y-104512571D01*
X109132619Y-104512571D01*
X109132619Y-104988761D01*
X108132619Y-66405666D02*
X109132619Y-66405666D01*
X109132619Y-66786619D01*
X109085000Y-66881857D01*
X109037380Y-66929476D01*
X108942142Y-66977095D01*
X108799285Y-66977095D01*
X108704047Y-66929476D01*
X108656428Y-66881857D01*
X108608809Y-66786619D01*
X108608809Y-66405666D01*
X108132619Y-67881857D02*
X108132619Y-67405666D01*
X109132619Y-67405666D01*
X108418333Y-68167571D02*
X108418333Y-68643761D01*
X108132619Y-68072333D02*
X109132619Y-68405666D01*
X108132619Y-68739000D01*
X108608809Y-69262809D02*
X108132619Y-69262809D01*
X109132619Y-68929476D02*
X108608809Y-69262809D01*
X109132619Y-69596142D01*
X108656428Y-69929476D02*
X108656428Y-70262809D01*
X108132619Y-70405666D02*
X108132619Y-69929476D01*
X109132619Y-69929476D01*
X109132619Y-70405666D01*
X108132619Y-71405666D02*
X108608809Y-71072333D01*
X108132619Y-70834238D02*
X109132619Y-70834238D01*
X109132619Y-71215190D01*
X109085000Y-71310428D01*
X109037380Y-71358047D01*
X108942142Y-71405666D01*
X108799285Y-71405666D01*
X108704047Y-71358047D01*
X108656428Y-71310428D01*
X108608809Y-71215190D01*
X108608809Y-70834238D01*
X109132619Y-72453285D02*
X109132619Y-73024714D01*
X108132619Y-72739000D02*
X109132619Y-72739000D01*
X109132619Y-73262809D02*
X108132619Y-73500904D01*
X108846904Y-73691380D01*
X108132619Y-73881857D01*
X109132619Y-74119952D01*
X109132619Y-74691380D02*
X109132619Y-74881857D01*
X109085000Y-74977095D01*
X108989761Y-75072333D01*
X108799285Y-75119952D01*
X108465952Y-75119952D01*
X108275476Y-75072333D01*
X108180238Y-74977095D01*
X108132619Y-74881857D01*
X108132619Y-74691380D01*
X108180238Y-74596142D01*
X108275476Y-74500904D01*
X108465952Y-74453285D01*
X108799285Y-74453285D01*
X108989761Y-74500904D01*
X109085000Y-74596142D01*
X109132619Y-74691380D01*
X141970666Y-98496380D02*
X141970666Y-97496380D01*
X142351619Y-97496380D01*
X142446857Y-97544000D01*
X142494476Y-97591619D01*
X142542095Y-97686857D01*
X142542095Y-97829714D01*
X142494476Y-97924952D01*
X142446857Y-97972571D01*
X142351619Y-98020190D01*
X141970666Y-98020190D01*
X143446857Y-98496380D02*
X142970666Y-98496380D01*
X142970666Y-97496380D01*
X143732571Y-98210666D02*
X144208761Y-98210666D01*
X143637333Y-98496380D02*
X143970666Y-97496380D01*
X144304000Y-98496380D01*
X144827809Y-98020190D02*
X144827809Y-98496380D01*
X144494476Y-97496380D02*
X144827809Y-98020190D01*
X145161142Y-97496380D01*
X145494476Y-97972571D02*
X145827809Y-97972571D01*
X145970666Y-98496380D02*
X145494476Y-98496380D01*
X145494476Y-97496380D01*
X145970666Y-97496380D01*
X146970666Y-98496380D02*
X146637333Y-98020190D01*
X146399238Y-98496380D02*
X146399238Y-97496380D01*
X146780190Y-97496380D01*
X146875428Y-97544000D01*
X146923047Y-97591619D01*
X146970666Y-97686857D01*
X146970666Y-97829714D01*
X146923047Y-97924952D01*
X146875428Y-97972571D01*
X146780190Y-98020190D01*
X146399238Y-98020190D01*
X148018285Y-97496380D02*
X148589714Y-97496380D01*
X148304000Y-98496380D02*
X148304000Y-97496380D01*
X148827809Y-97496380D02*
X149065904Y-98496380D01*
X149256380Y-97782095D01*
X149446857Y-98496380D01*
X149684952Y-97496380D01*
X150256380Y-97496380D02*
X150446857Y-97496380D01*
X150542095Y-97544000D01*
X150637333Y-97639238D01*
X150684952Y-97829714D01*
X150684952Y-98163047D01*
X150637333Y-98353523D01*
X150542095Y-98448761D01*
X150446857Y-98496380D01*
X150256380Y-98496380D01*
X150161142Y-98448761D01*
X150065904Y-98353523D01*
X150018285Y-98163047D01*
X150018285Y-97829714D01*
X150065904Y-97639238D01*
X150161142Y-97544000D01*
X150256380Y-97496380D01*
X164552857Y-98623380D02*
X164552857Y-97623380D01*
X164933809Y-97623380D01*
X165029047Y-97671000D01*
X165076666Y-97718619D01*
X165124285Y-97813857D01*
X165124285Y-97956714D01*
X165076666Y-98051952D01*
X165029047Y-98099571D01*
X164933809Y-98147190D01*
X164552857Y-98147190D01*
X166029047Y-98623380D02*
X165552857Y-98623380D01*
X165552857Y-97623380D01*
X166314761Y-98337666D02*
X166790952Y-98337666D01*
X166219523Y-98623380D02*
X166552857Y-97623380D01*
X166886190Y-98623380D01*
X167410000Y-98147190D02*
X167410000Y-98623380D01*
X167076666Y-97623380D02*
X167410000Y-98147190D01*
X167743333Y-97623380D01*
X168076666Y-98099571D02*
X168410000Y-98099571D01*
X168552857Y-98623380D02*
X168076666Y-98623380D01*
X168076666Y-97623380D01*
X168552857Y-97623380D01*
X169552857Y-98623380D02*
X169219523Y-98147190D01*
X168981428Y-98623380D02*
X168981428Y-97623380D01*
X169362380Y-97623380D01*
X169457619Y-97671000D01*
X169505238Y-97718619D01*
X169552857Y-97813857D01*
X169552857Y-97956714D01*
X169505238Y-98051952D01*
X169457619Y-98099571D01*
X169362380Y-98147190D01*
X168981428Y-98147190D01*
X170933809Y-97623380D02*
X171124285Y-97623380D01*
X171219523Y-97671000D01*
X171314761Y-97766238D01*
X171362380Y-97956714D01*
X171362380Y-98290047D01*
X171314761Y-98480523D01*
X171219523Y-98575761D01*
X171124285Y-98623380D01*
X170933809Y-98623380D01*
X170838571Y-98575761D01*
X170743333Y-98480523D01*
X170695714Y-98290047D01*
X170695714Y-97956714D01*
X170743333Y-97766238D01*
X170838571Y-97671000D01*
X170933809Y-97623380D01*
X171790952Y-98623380D02*
X171790952Y-97623380D01*
X172362380Y-98623380D01*
X172362380Y-97623380D01*
X172838571Y-98099571D02*
X173171904Y-98099571D01*
X173314761Y-98623380D02*
X172838571Y-98623380D01*
X172838571Y-97623380D01*
X173314761Y-97623380D01*
X179943619Y-58634380D02*
X179943619Y-59443904D01*
X179991238Y-59539142D01*
X180038857Y-59586761D01*
X180134095Y-59634380D01*
X180324571Y-59634380D01*
X180419809Y-59586761D01*
X180467428Y-59539142D01*
X180515047Y-59443904D01*
X180515047Y-58634380D01*
X180943619Y-59586761D02*
X181086476Y-59634380D01*
X181324571Y-59634380D01*
X181419809Y-59586761D01*
X181467428Y-59539142D01*
X181515047Y-59443904D01*
X181515047Y-59348666D01*
X181467428Y-59253428D01*
X181419809Y-59205809D01*
X181324571Y-59158190D01*
X181134095Y-59110571D01*
X181038857Y-59062952D01*
X180991238Y-59015333D01*
X180943619Y-58920095D01*
X180943619Y-58824857D01*
X180991238Y-58729619D01*
X181038857Y-58682000D01*
X181134095Y-58634380D01*
X181372190Y-58634380D01*
X181515047Y-58682000D01*
X182276952Y-59110571D02*
X182419809Y-59158190D01*
X182467428Y-59205809D01*
X182515047Y-59301047D01*
X182515047Y-59443904D01*
X182467428Y-59539142D01*
X182419809Y-59586761D01*
X182324571Y-59634380D01*
X181943619Y-59634380D01*
X181943619Y-58634380D01*
X182276952Y-58634380D01*
X182372190Y-58682000D01*
X182419809Y-58729619D01*
X182467428Y-58824857D01*
X182467428Y-58920095D01*
X182419809Y-59015333D01*
X182372190Y-59062952D01*
X182276952Y-59110571D01*
X181943619Y-59110571D01*
X183562666Y-58634380D02*
X184134095Y-58634380D01*
X183848380Y-59634380D02*
X183848380Y-58634380D01*
X184467428Y-59634380D02*
X184467428Y-58634380D01*
X184467428Y-59110571D02*
X185038857Y-59110571D01*
X185038857Y-59634380D02*
X185038857Y-58634380D01*
X186086476Y-59634380D02*
X185753142Y-59158190D01*
X185515047Y-59634380D02*
X185515047Y-58634380D01*
X185896000Y-58634380D01*
X185991238Y-58682000D01*
X186038857Y-58729619D01*
X186086476Y-58824857D01*
X186086476Y-58967714D01*
X186038857Y-59062952D01*
X185991238Y-59110571D01*
X185896000Y-59158190D01*
X185515047Y-59158190D01*
X186515047Y-59110571D02*
X186848380Y-59110571D01*
X186991238Y-59634380D02*
X186515047Y-59634380D01*
X186515047Y-58634380D01*
X186991238Y-58634380D01*
X187419809Y-59110571D02*
X187753142Y-59110571D01*
X187896000Y-59634380D02*
X187419809Y-59634380D01*
X187419809Y-58634380D01*
X187896000Y-58634380D01*
X127063952Y-59142380D02*
X127063952Y-59951904D01*
X127111571Y-60047142D01*
X127159190Y-60094761D01*
X127254428Y-60142380D01*
X127444904Y-60142380D01*
X127540142Y-60094761D01*
X127587761Y-60047142D01*
X127635380Y-59951904D01*
X127635380Y-59142380D01*
X128063952Y-60094761D02*
X128206809Y-60142380D01*
X128444904Y-60142380D01*
X128540142Y-60094761D01*
X128587761Y-60047142D01*
X128635380Y-59951904D01*
X128635380Y-59856666D01*
X128587761Y-59761428D01*
X128540142Y-59713809D01*
X128444904Y-59666190D01*
X128254428Y-59618571D01*
X128159190Y-59570952D01*
X128111571Y-59523333D01*
X128063952Y-59428095D01*
X128063952Y-59332857D01*
X128111571Y-59237619D01*
X128159190Y-59190000D01*
X128254428Y-59142380D01*
X128492523Y-59142380D01*
X128635380Y-59190000D01*
X129397285Y-59618571D02*
X129540142Y-59666190D01*
X129587761Y-59713809D01*
X129635380Y-59809047D01*
X129635380Y-59951904D01*
X129587761Y-60047142D01*
X129540142Y-60094761D01*
X129444904Y-60142380D01*
X129063952Y-60142380D01*
X129063952Y-59142380D01*
X129397285Y-59142380D01*
X129492523Y-59190000D01*
X129540142Y-59237619D01*
X129587761Y-59332857D01*
X129587761Y-59428095D01*
X129540142Y-59523333D01*
X129492523Y-59570952D01*
X129397285Y-59618571D01*
X129063952Y-59618571D01*
X131159190Y-59618571D02*
X130825857Y-59618571D01*
X130825857Y-60142380D02*
X130825857Y-59142380D01*
X131302047Y-59142380D01*
X131873476Y-59142380D02*
X132063952Y-59142380D01*
X132159190Y-59190000D01*
X132254428Y-59285238D01*
X132302047Y-59475714D01*
X132302047Y-59809047D01*
X132254428Y-59999523D01*
X132159190Y-60094761D01*
X132063952Y-60142380D01*
X131873476Y-60142380D01*
X131778238Y-60094761D01*
X131683000Y-59999523D01*
X131635380Y-59809047D01*
X131635380Y-59475714D01*
X131683000Y-59285238D01*
X131778238Y-59190000D01*
X131873476Y-59142380D01*
X132730619Y-59142380D02*
X132730619Y-59951904D01*
X132778238Y-60047142D01*
X132825857Y-60094761D01*
X132921095Y-60142380D01*
X133111571Y-60142380D01*
X133206809Y-60094761D01*
X133254428Y-60047142D01*
X133302047Y-59951904D01*
X133302047Y-59142380D01*
X134349666Y-60142380D02*
X134016333Y-59666190D01*
X133778238Y-60142380D02*
X133778238Y-59142380D01*
X134159190Y-59142380D01*
X134254428Y-59190000D01*
X134302047Y-59237619D01*
X134349666Y-59332857D01*
X134349666Y-59475714D01*
X134302047Y-59570952D01*
X134254428Y-59618571D01*
X134159190Y-59666190D01*
X133778238Y-59666190D01*
X110450333Y-112442714D02*
X110450333Y-112918904D01*
X110164619Y-112347476D02*
X111164619Y-112680809D01*
X110164619Y-113014142D01*
X111164619Y-113823666D02*
X111164619Y-113347476D01*
X110688428Y-113299857D01*
X110736047Y-113347476D01*
X110783666Y-113442714D01*
X110783666Y-113680809D01*
X110736047Y-113776047D01*
X110688428Y-113823666D01*
X110593190Y-113871285D01*
X110355095Y-113871285D01*
X110259857Y-113823666D01*
X110212238Y-113776047D01*
X110164619Y-113680809D01*
X110164619Y-113442714D01*
X110212238Y-113347476D01*
X110259857Y-113299857D01*
X110450333Y-92376714D02*
X110450333Y-92852904D01*
X110164619Y-92281476D02*
X111164619Y-92614809D01*
X110164619Y-92948142D01*
X110164619Y-93805285D02*
X110164619Y-93233857D01*
X110164619Y-93519571D02*
X111164619Y-93519571D01*
X111021761Y-93424333D01*
X110926523Y-93329095D01*
X110878904Y-93233857D01*
X110450333Y-97456714D02*
X110450333Y-97932904D01*
X110164619Y-97361476D02*
X111164619Y-97694809D01*
X110164619Y-98028142D01*
X111069380Y-98313857D02*
X111117000Y-98361476D01*
X111164619Y-98456714D01*
X111164619Y-98694809D01*
X111117000Y-98790047D01*
X111069380Y-98837666D01*
X110974142Y-98885285D01*
X110878904Y-98885285D01*
X110736047Y-98837666D01*
X110164619Y-98266238D01*
X110164619Y-98885285D01*
X110450333Y-102409714D02*
X110450333Y-102885904D01*
X110164619Y-102314476D02*
X111164619Y-102647809D01*
X110164619Y-102981142D01*
X111164619Y-103219238D02*
X111164619Y-103838285D01*
X110783666Y-103504952D01*
X110783666Y-103647809D01*
X110736047Y-103743047D01*
X110688428Y-103790666D01*
X110593190Y-103838285D01*
X110355095Y-103838285D01*
X110259857Y-103790666D01*
X110212238Y-103743047D01*
X110164619Y-103647809D01*
X110164619Y-103362095D01*
X110212238Y-103266857D01*
X110259857Y-103219238D01*
X110450333Y-107362714D02*
X110450333Y-107838904D01*
X110164619Y-107267476D02*
X111164619Y-107600809D01*
X110164619Y-107934142D01*
X110831285Y-108696047D02*
X110164619Y-108696047D01*
X111212238Y-108457952D02*
X110497952Y-108219857D01*
X110497952Y-108838904D01*
X110450333Y-87423714D02*
X110450333Y-87899904D01*
X110164619Y-87328476D02*
X111164619Y-87661809D01*
X110164619Y-87995142D01*
X111164619Y-88518952D02*
X111164619Y-88614190D01*
X111117000Y-88709428D01*
X111069380Y-88757047D01*
X110974142Y-88804666D01*
X110783666Y-88852285D01*
X110545571Y-88852285D01*
X110355095Y-88804666D01*
X110259857Y-88757047D01*
X110212238Y-88709428D01*
X110164619Y-88614190D01*
X110164619Y-88518952D01*
X110212238Y-88423714D01*
X110259857Y-88376095D01*
X110355095Y-88328476D01*
X110545571Y-88280857D01*
X110783666Y-88280857D01*
X110974142Y-88328476D01*
X111069380Y-88376095D01*
X111117000Y-88423714D01*
X111164619Y-88518952D01*
X110450333Y-82470714D02*
X110450333Y-82946904D01*
X110164619Y-82375476D02*
X111164619Y-82708809D01*
X110164619Y-83042142D01*
X111164619Y-83851666D02*
X111164619Y-83375476D01*
X110688428Y-83327857D01*
X110736047Y-83375476D01*
X110783666Y-83470714D01*
X110783666Y-83708809D01*
X110736047Y-83804047D01*
X110688428Y-83851666D01*
X110593190Y-83899285D01*
X110355095Y-83899285D01*
X110259857Y-83851666D01*
X110212238Y-83804047D01*
X110164619Y-83708809D01*
X110164619Y-83470714D01*
X110212238Y-83375476D01*
X110259857Y-83327857D01*
X110450333Y-77390714D02*
X110450333Y-77866904D01*
X110164619Y-77295476D02*
X111164619Y-77628809D01*
X110164619Y-77962142D01*
X110831285Y-78724047D02*
X110164619Y-78724047D01*
X111212238Y-78485952D02*
X110497952Y-78247857D01*
X110497952Y-78866904D01*
X110450333Y-72437714D02*
X110450333Y-72913904D01*
X110164619Y-72342476D02*
X111164619Y-72675809D01*
X110164619Y-73009142D01*
X111164619Y-73247238D02*
X111164619Y-73866285D01*
X110783666Y-73532952D01*
X110783666Y-73675809D01*
X110736047Y-73771047D01*
X110688428Y-73818666D01*
X110593190Y-73866285D01*
X110355095Y-73866285D01*
X110259857Y-73818666D01*
X110212238Y-73771047D01*
X110164619Y-73675809D01*
X110164619Y-73390095D01*
X110212238Y-73294857D01*
X110259857Y-73247238D01*
X110450333Y-67484714D02*
X110450333Y-67960904D01*
X110164619Y-67389476D02*
X111164619Y-67722809D01*
X110164619Y-68056142D01*
X111069380Y-68341857D02*
X111117000Y-68389476D01*
X111164619Y-68484714D01*
X111164619Y-68722809D01*
X111117000Y-68818047D01*
X111069380Y-68865666D01*
X110974142Y-68913285D01*
X110878904Y-68913285D01*
X110736047Y-68865666D01*
X110164619Y-68294238D01*
X110164619Y-68913285D01*
X110450333Y-62404714D02*
X110450333Y-62880904D01*
X110164619Y-62309476D02*
X111164619Y-62642809D01*
X110164619Y-62976142D01*
X110164619Y-63833285D02*
X110164619Y-63261857D01*
X110164619Y-63547571D02*
X111164619Y-63547571D01*
X111021761Y-63452333D01*
X110926523Y-63357095D01*
X110878904Y-63261857D01*
X110450333Y-57451714D02*
X110450333Y-57927904D01*
X110164619Y-57356476D02*
X111164619Y-57689809D01*
X110164619Y-58023142D01*
X111164619Y-58546952D02*
X111164619Y-58642190D01*
X111117000Y-58737428D01*
X111069380Y-58785047D01*
X110974142Y-58832666D01*
X110783666Y-58880285D01*
X110545571Y-58880285D01*
X110355095Y-58832666D01*
X110259857Y-58785047D01*
X110212238Y-58737428D01*
X110164619Y-58642190D01*
X110164619Y-58546952D01*
X110212238Y-58451714D01*
X110259857Y-58404095D01*
X110355095Y-58356476D01*
X110545571Y-58308857D01*
X110783666Y-58308857D01*
X110974142Y-58356476D01*
X111069380Y-58404095D01*
X111117000Y-58451714D01*
X111164619Y-58546952D01*
D13*
X134656000Y-56496000D02*
X134806000Y-56496000D01*
X134656000Y-56796000D02*
X134656000Y-56496000D01*
X134356000Y-57146000D02*
X134656000Y-56796000D01*
X133906000Y-57146000D02*
X134356000Y-57146000D01*
X126456000Y-57146000D02*
X126456000Y-56446000D01*
X126956000Y-57146000D02*
X126456000Y-57146000D01*
X126456000Y-51446000D02*
X126856000Y-51446000D01*
X126456000Y-52046000D02*
X126456000Y-51446000D01*
X134656000Y-51446000D02*
X134006000Y-51446000D01*
X134656000Y-51996000D02*
X134656000Y-51446000D01*
X187996000Y-56369000D02*
X188146000Y-56369000D01*
X187996000Y-56669000D02*
X187996000Y-56369000D01*
X187696000Y-57019000D02*
X187996000Y-56669000D01*
X187246000Y-57019000D02*
X187696000Y-57019000D01*
X179796000Y-57019000D02*
X179796000Y-56319000D01*
X180296000Y-57019000D02*
X179796000Y-57019000D01*
X179796000Y-51319000D02*
X180196000Y-51319000D01*
X179796000Y-51919000D02*
X179796000Y-51319000D01*
X187996000Y-51319000D02*
X187346000Y-51319000D01*
X187996000Y-51869000D02*
X187996000Y-51319000D01*
D11*
X152492400Y-51552800D02*
X153822400Y-51552800D01*
X152492400Y-52882800D02*
X152492400Y-51552800D01*
X152492400Y-54152800D02*
X155152400Y-54152800D01*
X155152400Y-54152800D02*
X155152400Y-94852800D01*
X152492400Y-54152800D02*
X152492400Y-94852800D01*
X152492400Y-94852800D02*
X155152400Y-94852800D01*
X139937800Y-94852800D02*
X138607800Y-94852800D01*
X139937800Y-93522800D02*
X139937800Y-94852800D01*
X139937800Y-92252800D02*
X137277800Y-92252800D01*
X137277800Y-92252800D02*
X137277800Y-51552800D01*
X139937800Y-92252800D02*
X139937800Y-51552800D01*
X139937800Y-51552800D02*
X137277800Y-51552800D01*
X175123800Y-51552800D02*
X176453800Y-51552800D01*
X175123800Y-52882800D02*
X175123800Y-51552800D01*
X175123800Y-54152800D02*
X177783800Y-54152800D01*
X177783800Y-54152800D02*
X177783800Y-94852800D01*
X175123800Y-54152800D02*
X175123800Y-94852800D01*
X175123800Y-94852800D02*
X177783800Y-94852800D01*
X162543800Y-94852800D02*
X161213800Y-94852800D01*
X162543800Y-93522800D02*
X162543800Y-94852800D01*
X162543800Y-92252800D02*
X159883800Y-92252800D01*
X159883800Y-92252800D02*
X159883800Y-51552800D01*
X162543800Y-92252800D02*
X162543800Y-51552800D01*
X162543800Y-51552800D02*
X159883800Y-51552800D01*
D14*
X122448000Y-113157000D02*
G75*
G03X122448000Y-113157000I-100000J0D01*
G01*
D15*
X121348000Y-55657000D02*
X121348000Y-115657000D01*
X112348000Y-115657000D02*
X112348000Y-55657000D01*
X112348000Y-55657000D02*
X121348000Y-55657000D01*
X121348000Y-115657000D02*
X112348000Y-115657000D01*
M02*
