G04 #@! TF.GenerationSoftware,KiCad,Pcbnew,(5.1.2-1)-1*
G04 #@! TF.CreationDate,2020-07-15T14:49:12-04:00*
G04 #@! TF.ProjectId,ArcadeMain,41726361-6465-44d6-9169-6e2e6b696361,rev?*
G04 #@! TF.SameCoordinates,Original*
G04 #@! TF.FileFunction,Legend,Bot*
G04 #@! TF.FilePolarity,Positive*
%FSLAX46Y46*%
G04 Gerber Fmt 4.6, Leading zero omitted, Abs format (unit mm)*
G04 Created by KiCad (PCBNEW (5.1.2-1)-1) date 2020-07-15 14:49:12*
%MOMM*%
%LPD*%
G04 APERTURE LIST*
%ADD10C,0.150000*%
G04 APERTURE END LIST*
D10*
X111250142Y-128579571D02*
X111107285Y-128627190D01*
X111059666Y-128674809D01*
X111012047Y-128770047D01*
X111012047Y-128912904D01*
X111059666Y-129008142D01*
X111107285Y-129055761D01*
X111202523Y-129103380D01*
X111583476Y-129103380D01*
X111583476Y-128103380D01*
X111250142Y-128103380D01*
X111154904Y-128151000D01*
X111107285Y-128198619D01*
X111059666Y-128293857D01*
X111059666Y-128389095D01*
X111107285Y-128484333D01*
X111154904Y-128531952D01*
X111250142Y-128579571D01*
X111583476Y-128579571D01*
X110631095Y-128817666D02*
X110154904Y-128817666D01*
X110726333Y-129103380D02*
X110393000Y-128103380D01*
X110059666Y-129103380D01*
X109869190Y-128103380D02*
X109297761Y-128103380D01*
X109583476Y-129103380D02*
X109583476Y-128103380D01*
X108964428Y-128579571D02*
X108631095Y-128579571D01*
X108488238Y-129103380D02*
X108964428Y-129103380D01*
X108964428Y-128103380D01*
X108488238Y-128103380D01*
X108059666Y-129103380D02*
X108059666Y-128103380D01*
X107726333Y-128817666D01*
X107393000Y-128103380D01*
X107393000Y-129103380D01*
X106964428Y-128817666D02*
X106488238Y-128817666D01*
X107059666Y-129103380D02*
X106726333Y-128103380D01*
X106393000Y-129103380D01*
X106059666Y-129103380D02*
X106059666Y-128103380D01*
X105488238Y-129103380D01*
X105488238Y-128103380D01*
X104250142Y-128722428D02*
X103488238Y-128722428D01*
X102297761Y-128817666D02*
X101821571Y-128817666D01*
X102393000Y-129103380D02*
X102059666Y-128103380D01*
X101726333Y-129103380D01*
X100821571Y-129103380D02*
X101154904Y-128627190D01*
X101393000Y-129103380D02*
X101393000Y-128103380D01*
X101012047Y-128103380D01*
X100916809Y-128151000D01*
X100869190Y-128198619D01*
X100821571Y-128293857D01*
X100821571Y-128436714D01*
X100869190Y-128531952D01*
X100916809Y-128579571D01*
X101012047Y-128627190D01*
X101393000Y-128627190D01*
X99821571Y-129008142D02*
X99869190Y-129055761D01*
X100012047Y-129103380D01*
X100107285Y-129103380D01*
X100250142Y-129055761D01*
X100345380Y-128960523D01*
X100393000Y-128865285D01*
X100440619Y-128674809D01*
X100440619Y-128531952D01*
X100393000Y-128341476D01*
X100345380Y-128246238D01*
X100250142Y-128151000D01*
X100107285Y-128103380D01*
X100012047Y-128103380D01*
X99869190Y-128151000D01*
X99821571Y-128198619D01*
X99440619Y-128817666D02*
X98964428Y-128817666D01*
X99535857Y-129103380D02*
X99202523Y-128103380D01*
X98869190Y-129103380D01*
X98535857Y-129103380D02*
X98535857Y-128103380D01*
X98297761Y-128103380D01*
X98154904Y-128151000D01*
X98059666Y-128246238D01*
X98012047Y-128341476D01*
X97964428Y-128531952D01*
X97964428Y-128674809D01*
X98012047Y-128865285D01*
X98059666Y-128960523D01*
X98154904Y-129055761D01*
X98297761Y-129103380D01*
X98535857Y-129103380D01*
X97535857Y-128579571D02*
X97202523Y-128579571D01*
X97059666Y-129103380D02*
X97535857Y-129103380D01*
X97535857Y-128103380D01*
X97059666Y-128103380D01*
X95869190Y-129103380D02*
X95869190Y-128103380D01*
X95535857Y-128817666D01*
X95202523Y-128103380D01*
X95202523Y-129103380D01*
X94773952Y-128817666D02*
X94297761Y-128817666D01*
X94869190Y-129103380D02*
X94535857Y-128103380D01*
X94202523Y-129103380D01*
X93869190Y-129103380D02*
X93869190Y-128103380D01*
X93393000Y-129103380D02*
X93393000Y-128103380D01*
X92821571Y-129103380D01*
X92821571Y-128103380D01*
X91678714Y-128436714D02*
X91440619Y-129103380D01*
X91202523Y-128436714D01*
X90869190Y-128198619D02*
X90821571Y-128151000D01*
X90726333Y-128103380D01*
X90488238Y-128103380D01*
X90393000Y-128151000D01*
X90345380Y-128198619D01*
X90297761Y-128293857D01*
X90297761Y-128389095D01*
X90345380Y-128531952D01*
X90916809Y-129103380D01*
X90297761Y-129103380D01*
X89869190Y-129008142D02*
X89821571Y-129055761D01*
X89869190Y-129103380D01*
X89916809Y-129055761D01*
X89869190Y-129008142D01*
X89869190Y-129103380D01*
X89202523Y-128103380D02*
X89107285Y-128103380D01*
X89012047Y-128151000D01*
X88964428Y-128198619D01*
X88916809Y-128293857D01*
X88869190Y-128484333D01*
X88869190Y-128722428D01*
X88916809Y-128912904D01*
X88964428Y-129008142D01*
X89012047Y-129055761D01*
X89107285Y-129103380D01*
X89202523Y-129103380D01*
X89297761Y-129055761D01*
X89345380Y-129008142D01*
X89393000Y-128912904D01*
X89440619Y-128722428D01*
X89440619Y-128484333D01*
X89393000Y-128293857D01*
X89345380Y-128198619D01*
X89297761Y-128151000D01*
X89202523Y-128103380D01*
X87726333Y-128198619D02*
X87678714Y-128151000D01*
X87583476Y-128103380D01*
X87345380Y-128103380D01*
X87250142Y-128151000D01*
X87202523Y-128198619D01*
X87154904Y-128293857D01*
X87154904Y-128389095D01*
X87202523Y-128531952D01*
X87773952Y-129103380D01*
X87154904Y-129103380D01*
X86535857Y-128103380D02*
X86440619Y-128103380D01*
X86345380Y-128151000D01*
X86297761Y-128198619D01*
X86250142Y-128293857D01*
X86202523Y-128484333D01*
X86202523Y-128722428D01*
X86250142Y-128912904D01*
X86297761Y-129008142D01*
X86345380Y-129055761D01*
X86440619Y-129103380D01*
X86535857Y-129103380D01*
X86631095Y-129055761D01*
X86678714Y-129008142D01*
X86726333Y-128912904D01*
X86773952Y-128722428D01*
X86773952Y-128484333D01*
X86726333Y-128293857D01*
X86678714Y-128198619D01*
X86631095Y-128151000D01*
X86535857Y-128103380D01*
X85821571Y-128198619D02*
X85773952Y-128151000D01*
X85678714Y-128103380D01*
X85440619Y-128103380D01*
X85345380Y-128151000D01*
X85297761Y-128198619D01*
X85250142Y-128293857D01*
X85250142Y-128389095D01*
X85297761Y-128531952D01*
X85869190Y-129103380D01*
X85250142Y-129103380D01*
X84631095Y-128103380D02*
X84535857Y-128103380D01*
X84440619Y-128151000D01*
X84393000Y-128198619D01*
X84345380Y-128293857D01*
X84297761Y-128484333D01*
X84297761Y-128722428D01*
X84345380Y-128912904D01*
X84393000Y-129008142D01*
X84440619Y-129055761D01*
X84535857Y-129103380D01*
X84631095Y-129103380D01*
X84726333Y-129055761D01*
X84773952Y-129008142D01*
X84821571Y-128912904D01*
X84869190Y-128722428D01*
X84869190Y-128484333D01*
X84821571Y-128293857D01*
X84773952Y-128198619D01*
X84726333Y-128151000D01*
X84631095Y-128103380D01*
X83869190Y-128722428D02*
X83107285Y-128722428D01*
X82440619Y-128103380D02*
X82345380Y-128103380D01*
X82250142Y-128151000D01*
X82202523Y-128198619D01*
X82154904Y-128293857D01*
X82107285Y-128484333D01*
X82107285Y-128722428D01*
X82154904Y-128912904D01*
X82202523Y-129008142D01*
X82250142Y-129055761D01*
X82345380Y-129103380D01*
X82440619Y-129103380D01*
X82535857Y-129055761D01*
X82583476Y-129008142D01*
X82631095Y-128912904D01*
X82678714Y-128722428D01*
X82678714Y-128484333D01*
X82631095Y-128293857D01*
X82583476Y-128198619D01*
X82535857Y-128151000D01*
X82440619Y-128103380D01*
X81773952Y-128103380D02*
X81107285Y-128103380D01*
X81535857Y-129103380D01*
M02*
