G04 #@! TF.GenerationSoftware,KiCad,Pcbnew,(5.1.2-1)-1*
G04 #@! TF.CreationDate,2020-07-05T12:12:15-04:00*
G04 #@! TF.ProjectId,ArcadeMain,41726361-6465-44d6-9169-6e2e6b696361,rev?*
G04 #@! TF.SameCoordinates,Original*
G04 #@! TF.FileFunction,Copper,L4,Bot*
G04 #@! TF.FilePolarity,Positive*
%FSLAX46Y46*%
G04 Gerber Fmt 4.6, Leading zero omitted, Abs format (unit mm)*
G04 Created by KiCad (PCBNEW (5.1.2-1)-1) date 2020-07-05 12:12:15*
%MOMM*%
%LPD*%
G04 APERTURE LIST*
%ADD10O,1.000000X1.550000*%
%ADD11O,1.250000X0.950000*%
%ADD12O,1.700000X1.700000*%
%ADD13R,1.700000X1.700000*%
%ADD14C,1.950000*%
%ADD15R,1.950000X1.950000*%
%ADD16C,0.800000*%
%ADD17C,0.381000*%
%ADD18C,0.254000*%
G04 APERTURE END LIST*
D10*
X127056000Y-54196000D03*
X134056000Y-54196000D03*
D11*
X133056000Y-56896000D03*
X128056000Y-56896000D03*
D12*
X177546000Y-117221000D03*
X177546000Y-114681000D03*
X175006000Y-117221000D03*
X175006000Y-114681000D03*
X172466000Y-117221000D03*
X172466000Y-114681000D03*
X169926000Y-117221000D03*
X169926000Y-114681000D03*
X167386000Y-117221000D03*
X167386000Y-114681000D03*
X164846000Y-117221000D03*
X164846000Y-114681000D03*
X162306000Y-117221000D03*
X162306000Y-114681000D03*
X159766000Y-117221000D03*
X159766000Y-114681000D03*
X157226000Y-117221000D03*
X157226000Y-114681000D03*
X154686000Y-117221000D03*
X154686000Y-114681000D03*
X152146000Y-117221000D03*
X152146000Y-114681000D03*
X149606000Y-117221000D03*
X149606000Y-114681000D03*
X147066000Y-117221000D03*
X147066000Y-114681000D03*
X144526000Y-117221000D03*
X144526000Y-114681000D03*
X141986000Y-117221000D03*
X141986000Y-114681000D03*
X139446000Y-117221000D03*
X139446000Y-114681000D03*
X136906000Y-117221000D03*
X136906000Y-114681000D03*
X134366000Y-117221000D03*
X134366000Y-114681000D03*
X131826000Y-117221000D03*
X131826000Y-114681000D03*
X129286000Y-117221000D03*
X129286000Y-114681000D03*
X126746000Y-117221000D03*
X126746000Y-114681000D03*
X124206000Y-117221000D03*
D13*
X124206000Y-114681000D03*
D10*
X180396000Y-54069000D03*
X187396000Y-54069000D03*
D11*
X186396000Y-56769000D03*
X181396000Y-56769000D03*
D12*
X153822400Y-93522800D03*
X153822400Y-90982800D03*
X153822400Y-88442800D03*
X153822400Y-85902800D03*
X153822400Y-83362800D03*
X153822400Y-80822800D03*
X153822400Y-78282800D03*
X153822400Y-75742800D03*
X153822400Y-73202800D03*
X153822400Y-70662800D03*
X153822400Y-68122800D03*
X153822400Y-65582800D03*
X153822400Y-63042800D03*
X153822400Y-60502800D03*
X153822400Y-57962800D03*
X153822400Y-55422800D03*
D13*
X153822400Y-52882800D03*
D12*
X138607800Y-52882800D03*
X138607800Y-55422800D03*
X138607800Y-57962800D03*
X138607800Y-60502800D03*
X138607800Y-63042800D03*
X138607800Y-65582800D03*
X138607800Y-68122800D03*
X138607800Y-70662800D03*
X138607800Y-73202800D03*
X138607800Y-75742800D03*
X138607800Y-78282800D03*
X138607800Y-80822800D03*
X138607800Y-83362800D03*
X138607800Y-85902800D03*
X138607800Y-88442800D03*
X138607800Y-90982800D03*
D13*
X138607800Y-93522800D03*
D12*
X176453800Y-93522800D03*
X176453800Y-90982800D03*
X176453800Y-88442800D03*
X176453800Y-85902800D03*
X176453800Y-83362800D03*
X176453800Y-80822800D03*
X176453800Y-78282800D03*
X176453800Y-75742800D03*
X176453800Y-73202800D03*
X176453800Y-70662800D03*
X176453800Y-68122800D03*
X176453800Y-65582800D03*
X176453800Y-63042800D03*
X176453800Y-60502800D03*
X176453800Y-57962800D03*
X176453800Y-55422800D03*
D13*
X176453800Y-52882800D03*
D12*
X161213800Y-52882800D03*
X161213800Y-55422800D03*
X161213800Y-57962800D03*
X161213800Y-60502800D03*
X161213800Y-63042800D03*
X161213800Y-65582800D03*
X161213800Y-68122800D03*
X161213800Y-70662800D03*
X161213800Y-73202800D03*
X161213800Y-75742800D03*
X161213800Y-78282800D03*
X161213800Y-80822800D03*
X161213800Y-83362800D03*
X161213800Y-85902800D03*
X161213800Y-88442800D03*
X161213800Y-90982800D03*
D13*
X161213800Y-93522800D03*
D14*
X117348000Y-58157000D03*
X117348000Y-63157000D03*
X117348000Y-68157000D03*
X117348000Y-73157000D03*
X117348000Y-78157000D03*
X117348000Y-83157000D03*
X117348000Y-88157000D03*
X117348000Y-93157000D03*
X117348000Y-98157000D03*
X117348000Y-103157000D03*
X117348000Y-108157000D03*
D15*
X117348000Y-113157000D03*
D16*
X142494000Y-56388000D03*
X125476000Y-97282000D03*
X181483000Y-106426000D03*
X181737000Y-104521000D03*
X181229000Y-101473000D03*
X181483000Y-102997000D03*
X133350000Y-58564015D03*
X131572000Y-58674000D03*
X127889000Y-58738000D03*
X130556000Y-59309000D03*
X167947990Y-98244010D03*
X156845000Y-100203000D03*
X134874000Y-104140000D03*
X153670000Y-103886000D03*
X145647699Y-74443301D03*
X145588701Y-71962299D03*
X145715701Y-69422299D03*
X145588701Y-66882299D03*
X145588701Y-64342299D03*
X145563301Y-61743301D03*
X165735000Y-94615000D03*
X165354000Y-101346000D03*
X161163000Y-105537000D03*
X157353000Y-108712000D03*
X164973000Y-93345000D03*
X164573001Y-99930001D03*
X159893000Y-104521000D03*
X156337000Y-107823000D03*
X163957000Y-91948000D03*
X163322000Y-98933000D03*
X159004000Y-103378000D03*
X155702000Y-106680000D03*
X158877000Y-59817000D03*
X162941000Y-104902000D03*
X137160000Y-113284000D03*
X135636000Y-115951000D03*
X147193000Y-103251000D03*
X134493000Y-113284000D03*
X144780000Y-102997000D03*
X163830000Y-104140000D03*
X147955000Y-110617000D03*
X140970000Y-101092000D03*
D17*
X168347989Y-98644009D02*
X167947990Y-98244010D01*
X173706501Y-104002521D02*
X168347989Y-98644009D01*
X173706501Y-115921501D02*
X173706501Y-104002521D01*
X175006000Y-117221000D02*
X173706501Y-115921501D01*
X168685499Y-102225499D02*
X161213800Y-94753800D01*
X161213800Y-94753800D02*
X161213800Y-93522800D01*
X168685499Y-115980499D02*
X168685499Y-102225499D01*
X169926000Y-117221000D02*
X168685499Y-115980499D01*
X162063799Y-91832799D02*
X161213800Y-90982800D01*
X162454301Y-92223301D02*
X162063799Y-91832799D01*
X162454301Y-94382301D02*
X162454301Y-92223301D01*
X171166501Y-103094501D02*
X162454301Y-94382301D01*
X171166501Y-115921501D02*
X171166501Y-103094501D01*
X172466000Y-117221000D02*
X171166501Y-115921501D01*
X161213800Y-80822800D02*
X156845000Y-85191600D01*
X156845000Y-85191600D02*
X156845000Y-100203000D01*
X156845000Y-100203000D02*
X156845000Y-100203000D01*
X153670000Y-103886000D02*
X153670000Y-103886000D01*
X153289000Y-104140000D02*
X153670000Y-103886000D01*
X134874000Y-104140000D02*
X153289000Y-104140000D01*
X155658342Y-73202800D02*
X154417841Y-74443301D01*
X154417841Y-74443301D02*
X145647699Y-74443301D01*
X161213800Y-73202800D02*
X155658342Y-73202800D01*
X145647699Y-74443301D02*
X145647699Y-74443301D01*
X160011719Y-70662800D02*
X158712220Y-71962299D01*
X158712220Y-71962299D02*
X145588701Y-71962299D01*
X161213800Y-70662800D02*
X160011719Y-70662800D01*
X145588701Y-71962299D02*
X145588701Y-71962299D01*
X158712220Y-69422299D02*
X145715701Y-69422299D01*
X160011719Y-68122800D02*
X158712220Y-69422299D01*
X161213800Y-68122800D02*
X160011719Y-68122800D01*
X145715701Y-69422299D02*
X145715701Y-69422299D01*
X159914301Y-66882299D02*
X145588701Y-66882299D01*
X161213800Y-65582800D02*
X159914301Y-66882299D01*
X145588701Y-66882299D02*
X145588701Y-66882299D01*
X159914301Y-64342299D02*
X145749299Y-64342299D01*
X161213800Y-63042800D02*
X159914301Y-64342299D01*
X145749299Y-64342299D02*
X145588701Y-64342299D01*
X145588701Y-64342299D02*
X145588701Y-64342299D01*
X159973299Y-61743301D02*
X145563301Y-61743301D01*
X161213800Y-60502800D02*
X159973299Y-61743301D01*
X145563301Y-61743301D02*
X145563301Y-61743301D01*
X175251719Y-88442800D02*
X169079519Y-94615000D01*
X176453800Y-88442800D02*
X175251719Y-88442800D01*
X169079519Y-94615000D02*
X165735000Y-94615000D01*
X165735000Y-94615000D02*
X165735000Y-94615000D01*
X161562999Y-105137001D02*
X165354000Y-101346000D01*
X161163000Y-105537000D02*
X161562999Y-105137001D01*
X130585499Y-115921501D02*
X129286000Y-117221000D01*
X136017000Y-108712000D02*
X130585499Y-114085559D01*
X130585499Y-114085559D02*
X130585499Y-115921501D01*
X157353000Y-108712000D02*
X136017000Y-108712000D01*
X176453800Y-85902800D02*
X169011600Y-93345000D01*
X169011600Y-93345000D02*
X164973000Y-93345000D01*
X164973000Y-93345000D02*
X164973000Y-93345000D01*
X164483999Y-99930001D02*
X164573001Y-99930001D01*
X159893000Y-104521000D02*
X164483999Y-99930001D01*
X128045499Y-115921501D02*
X126746000Y-117221000D01*
X128045499Y-114085559D02*
X128045499Y-115921501D01*
X134493000Y-107696000D02*
X128045499Y-114085559D01*
X156337000Y-107823000D02*
X134493000Y-107696000D01*
X173863000Y-81577658D02*
X173863000Y-87671928D01*
X176453800Y-78986858D02*
X173863000Y-81577658D01*
X176453800Y-78282800D02*
X176453800Y-78986858D01*
X173863000Y-87671928D02*
X169586928Y-91948000D01*
X169586928Y-91948000D02*
X163957000Y-91948000D01*
X163957000Y-91948000D02*
X163957000Y-91948000D01*
X163322000Y-99060000D02*
X163322000Y-98933000D01*
X159004000Y-103378000D02*
X163322000Y-99060000D01*
X125505499Y-115921501D02*
X124206000Y-117221000D01*
X125505499Y-114085559D02*
X125505499Y-115921501D01*
X133096000Y-106680000D02*
X125505499Y-114085559D01*
X155702000Y-106680000D02*
X133096000Y-106680000D01*
X117348000Y-58157000D02*
X119761000Y-60570000D01*
X119828200Y-60502800D02*
X138607800Y-60502800D01*
X119761000Y-60570000D02*
X119828200Y-60502800D01*
X138493600Y-63157000D02*
X138607800Y-63042800D01*
X117348000Y-63157000D02*
X138493600Y-63157000D01*
X154050012Y-50707510D02*
X158877000Y-55534498D01*
X140783090Y-50707510D02*
X154050012Y-50707510D01*
X138607800Y-52882800D02*
X140783090Y-50707510D01*
X158877000Y-55534498D02*
X158877000Y-59817000D01*
X158877000Y-59817000D02*
X158877000Y-59944000D01*
X163996001Y-116371001D02*
X164846000Y-117221000D01*
X163605499Y-115980499D02*
X163996001Y-116371001D01*
X163605499Y-105566499D02*
X163605499Y-115980499D01*
X162941000Y-104902000D02*
X163605499Y-105566499D01*
X161006501Y-115921501D02*
X161006501Y-107031501D01*
X162306000Y-117221000D02*
X161006501Y-115921501D01*
X161006501Y-107031501D02*
X155067000Y-101092000D01*
X155067000Y-101092000D02*
X155067000Y-101092000D01*
X148717000Y-101092000D02*
X138607800Y-90982800D01*
X155067000Y-101092000D02*
X148717000Y-101092000D01*
X158466501Y-115921501D02*
X158466501Y-105888501D01*
X159766000Y-117221000D02*
X158466501Y-115921501D01*
X158466501Y-105888501D02*
X154559000Y-101981000D01*
X154559000Y-101981000D02*
X154559000Y-101981000D01*
X148297000Y-101981000D02*
X139838800Y-93522800D01*
X139838800Y-93522800D02*
X138607800Y-93522800D01*
X154559000Y-101981000D02*
X148297000Y-101981000D01*
X139203241Y-87202299D02*
X134666701Y-87202299D01*
X140443742Y-88442800D02*
X139203241Y-87202299D01*
X153822400Y-88442800D02*
X140443742Y-88442800D01*
X134666701Y-87202299D02*
X133731000Y-88138000D01*
X136594315Y-113284000D02*
X137160000Y-113284000D01*
X136467058Y-113284000D02*
X136594315Y-113284000D01*
X135636000Y-114115058D02*
X136467058Y-113284000D01*
X135636000Y-115951000D02*
X135636000Y-114115058D01*
X141488098Y-98806000D02*
X133731000Y-91048902D01*
X133731000Y-91048902D02*
X133731000Y-88138000D01*
X142748000Y-98806000D02*
X141488098Y-98806000D01*
X147193000Y-103251000D02*
X142748000Y-98806000D01*
X152522901Y-84603301D02*
X135106699Y-84603301D01*
X153822400Y-85902800D02*
X152522901Y-84603301D01*
X135106699Y-84603301D02*
X131699000Y-88011000D01*
X133927315Y-113284000D02*
X134493000Y-113284000D01*
X133927058Y-113284000D02*
X133927315Y-113284000D01*
X133125499Y-114085559D02*
X133927058Y-113284000D01*
X133125499Y-115980499D02*
X133125499Y-114085559D01*
X134366000Y-117221000D02*
X133125499Y-115980499D01*
X144780000Y-102997000D02*
X134620000Y-102997000D01*
X131699000Y-100076000D02*
X131699000Y-88011000D01*
X134620000Y-102997000D02*
X131699000Y-100076000D01*
X129159000Y-119888000D02*
X131826000Y-117221000D01*
X124920619Y-119888000D02*
X129159000Y-119888000D01*
X122965499Y-117932880D02*
X124920619Y-119888000D01*
X122965499Y-111222501D02*
X122965499Y-117932880D01*
X130048000Y-104140000D02*
X122965499Y-111222501D01*
X135741699Y-82063301D02*
X130048000Y-87757000D01*
X130048000Y-87757000D02*
X130048000Y-104140000D01*
X150041899Y-82063301D02*
X135741699Y-82063301D01*
X153822400Y-78282800D02*
X150041899Y-82063301D01*
X164229999Y-104539999D02*
X163830000Y-104140000D01*
X166086501Y-115921501D02*
X166086501Y-106396501D01*
X166086501Y-106396501D02*
X164229999Y-104539999D01*
X167386000Y-117221000D02*
X166086501Y-115921501D01*
D18*
G36*
X188443001Y-53345066D02*
G01*
X188344284Y-53160377D01*
X188202449Y-52987551D01*
X188029623Y-52845716D01*
X187832447Y-52740324D01*
X187618499Y-52675423D01*
X187396000Y-52653509D01*
X187173502Y-52675423D01*
X186959554Y-52740324D01*
X186762378Y-52845716D01*
X186589552Y-52987551D01*
X186447717Y-53160377D01*
X186342324Y-53357553D01*
X186277423Y-53571501D01*
X186261000Y-53738248D01*
X186261000Y-54399751D01*
X186277423Y-54566498D01*
X186342324Y-54780446D01*
X186447716Y-54977623D01*
X186589551Y-55150449D01*
X186762377Y-55292284D01*
X186959553Y-55397676D01*
X187173501Y-55462577D01*
X187396000Y-55484491D01*
X187618498Y-55462577D01*
X187832446Y-55397676D01*
X188029623Y-55292284D01*
X188202449Y-55150449D01*
X188344284Y-54977623D01*
X188443001Y-54792935D01*
X188443000Y-117704000D01*
X179356419Y-117704000D01*
X179324000Y-117700807D01*
X179291581Y-117704000D01*
X179194617Y-117713550D01*
X179070207Y-117751290D01*
X178955550Y-117812575D01*
X178880853Y-117873878D01*
X178924599Y-117792034D01*
X179009513Y-117512111D01*
X179038185Y-117221000D01*
X179009513Y-116929889D01*
X178924599Y-116649966D01*
X178786706Y-116391986D01*
X178601134Y-116165866D01*
X178375014Y-115980294D01*
X178320209Y-115951000D01*
X178375014Y-115921706D01*
X178601134Y-115736134D01*
X178786706Y-115510014D01*
X178924599Y-115252034D01*
X179009513Y-114972111D01*
X179038185Y-114681000D01*
X179009513Y-114389889D01*
X178924599Y-114109966D01*
X178786706Y-113851986D01*
X178601134Y-113625866D01*
X178375014Y-113440294D01*
X178117034Y-113302401D01*
X177837111Y-113217487D01*
X177618950Y-113196000D01*
X177473050Y-113196000D01*
X177254889Y-113217487D01*
X176974966Y-113302401D01*
X176716986Y-113440294D01*
X176490866Y-113625866D01*
X176305294Y-113851986D01*
X176276000Y-113906791D01*
X176246706Y-113851986D01*
X176061134Y-113625866D01*
X175835014Y-113440294D01*
X175577034Y-113302401D01*
X175297111Y-113217487D01*
X175078950Y-113196000D01*
X174933050Y-113196000D01*
X174714889Y-113217487D01*
X174532001Y-113272966D01*
X174532001Y-110523872D01*
X182042000Y-110523872D01*
X182042000Y-110964128D01*
X182127890Y-111395925D01*
X182296369Y-111802669D01*
X182540962Y-112168729D01*
X182852271Y-112480038D01*
X183218331Y-112724631D01*
X183625075Y-112893110D01*
X184056872Y-112979000D01*
X184497128Y-112979000D01*
X184928925Y-112893110D01*
X185335669Y-112724631D01*
X185701729Y-112480038D01*
X186013038Y-112168729D01*
X186257631Y-111802669D01*
X186426110Y-111395925D01*
X186512000Y-110964128D01*
X186512000Y-110523872D01*
X186426110Y-110092075D01*
X186257631Y-109685331D01*
X186013038Y-109319271D01*
X185701729Y-109007962D01*
X185335669Y-108763369D01*
X184928925Y-108594890D01*
X184497128Y-108509000D01*
X184056872Y-108509000D01*
X183625075Y-108594890D01*
X183218331Y-108763369D01*
X182852271Y-109007962D01*
X182540962Y-109319271D01*
X182296369Y-109685331D01*
X182127890Y-110092075D01*
X182042000Y-110523872D01*
X174532001Y-110523872D01*
X174532001Y-104043063D01*
X174535994Y-104002520D01*
X174532001Y-103961977D01*
X174532001Y-103961968D01*
X174520057Y-103840695D01*
X174472854Y-103685087D01*
X174396200Y-103541679D01*
X174293042Y-103415980D01*
X174261541Y-103390128D01*
X172242474Y-101371061D01*
X180194000Y-101371061D01*
X180194000Y-101574939D01*
X180233774Y-101774898D01*
X180311795Y-101963256D01*
X180425063Y-102132774D01*
X180569226Y-102276937D01*
X180673011Y-102346284D01*
X180565795Y-102506744D01*
X180487774Y-102695102D01*
X180448000Y-102895061D01*
X180448000Y-103098939D01*
X180487774Y-103298898D01*
X180565795Y-103487256D01*
X180679063Y-103656774D01*
X180823226Y-103800937D01*
X180927011Y-103870284D01*
X180819795Y-104030744D01*
X180741774Y-104219102D01*
X180702000Y-104419061D01*
X180702000Y-104622939D01*
X180741774Y-104822898D01*
X180819795Y-105011256D01*
X180933063Y-105180774D01*
X181077226Y-105324937D01*
X181223116Y-105422417D01*
X181181102Y-105430774D01*
X180992744Y-105508795D01*
X180823226Y-105622063D01*
X180679063Y-105766226D01*
X180565795Y-105935744D01*
X180487774Y-106124102D01*
X180448000Y-106324061D01*
X180448000Y-106527939D01*
X180487774Y-106727898D01*
X180565795Y-106916256D01*
X180679063Y-107085774D01*
X180823226Y-107229937D01*
X180992744Y-107343205D01*
X181181102Y-107421226D01*
X181381061Y-107461000D01*
X181584939Y-107461000D01*
X181784898Y-107421226D01*
X181973256Y-107343205D01*
X182142774Y-107229937D01*
X182286937Y-107085774D01*
X182400205Y-106916256D01*
X182478226Y-106727898D01*
X182518000Y-106527939D01*
X182518000Y-106324061D01*
X182478226Y-106124102D01*
X182400205Y-105935744D01*
X182286937Y-105766226D01*
X182142774Y-105622063D01*
X181996884Y-105524583D01*
X182038898Y-105516226D01*
X182227256Y-105438205D01*
X182396774Y-105324937D01*
X182540937Y-105180774D01*
X182654205Y-105011256D01*
X182732226Y-104822898D01*
X182772000Y-104622939D01*
X182772000Y-104419061D01*
X182732226Y-104219102D01*
X182654205Y-104030744D01*
X182540937Y-103861226D01*
X182396774Y-103717063D01*
X182292989Y-103647716D01*
X182400205Y-103487256D01*
X182478226Y-103298898D01*
X182518000Y-103098939D01*
X182518000Y-102895061D01*
X182478226Y-102695102D01*
X182400205Y-102506744D01*
X182286937Y-102337226D01*
X182142774Y-102193063D01*
X182038989Y-102123716D01*
X182146205Y-101963256D01*
X182224226Y-101774898D01*
X182264000Y-101574939D01*
X182264000Y-101371061D01*
X182224226Y-101171102D01*
X182146205Y-100982744D01*
X182032937Y-100813226D01*
X181888774Y-100669063D01*
X181719256Y-100555795D01*
X181530898Y-100477774D01*
X181330939Y-100438000D01*
X181127061Y-100438000D01*
X180927102Y-100477774D01*
X180738744Y-100555795D01*
X180569226Y-100669063D01*
X180425063Y-100813226D01*
X180311795Y-100982744D01*
X180233774Y-101171102D01*
X180194000Y-101371061D01*
X172242474Y-101371061D01*
X168975419Y-98104007D01*
X168943216Y-97942112D01*
X168865195Y-97753754D01*
X168751927Y-97584236D01*
X168607764Y-97440073D01*
X168438246Y-97326805D01*
X168249888Y-97248784D01*
X168049929Y-97209010D01*
X167846051Y-97209010D01*
X167646092Y-97248784D01*
X167457734Y-97326805D01*
X167288216Y-97440073D01*
X167144053Y-97584236D01*
X167030785Y-97753754D01*
X167019773Y-97780340D01*
X163279801Y-94040369D01*
X163279801Y-92734512D01*
X163297226Y-92751937D01*
X163466744Y-92865205D01*
X163655102Y-92943226D01*
X163855061Y-92983000D01*
X164002669Y-92983000D01*
X163977774Y-93043102D01*
X163938000Y-93243061D01*
X163938000Y-93446939D01*
X163977774Y-93646898D01*
X164055795Y-93835256D01*
X164169063Y-94004774D01*
X164313226Y-94148937D01*
X164482744Y-94262205D01*
X164671102Y-94340226D01*
X164731970Y-94352333D01*
X164700000Y-94513061D01*
X164700000Y-94716939D01*
X164739774Y-94916898D01*
X164817795Y-95105256D01*
X164931063Y-95274774D01*
X165075226Y-95418937D01*
X165244744Y-95532205D01*
X165433102Y-95610226D01*
X165633061Y-95650000D01*
X165836939Y-95650000D01*
X166036898Y-95610226D01*
X166225256Y-95532205D01*
X166362503Y-95440500D01*
X169038969Y-95440500D01*
X169079519Y-95444494D01*
X169120069Y-95440500D01*
X169120072Y-95440500D01*
X169241345Y-95428556D01*
X169396953Y-95381353D01*
X169540361Y-95304699D01*
X169666060Y-95201541D01*
X169691917Y-95170034D01*
X175383048Y-89478904D01*
X175398666Y-89497934D01*
X175624786Y-89683506D01*
X175679591Y-89712800D01*
X175624786Y-89742094D01*
X175398666Y-89927666D01*
X175213094Y-90153786D01*
X175075201Y-90411766D01*
X174990287Y-90691689D01*
X174961615Y-90982800D01*
X174990287Y-91273911D01*
X175075201Y-91553834D01*
X175213094Y-91811814D01*
X175398666Y-92037934D01*
X175624786Y-92223506D01*
X175679591Y-92252800D01*
X175624786Y-92282094D01*
X175398666Y-92467666D01*
X175213094Y-92693786D01*
X175075201Y-92951766D01*
X174990287Y-93231689D01*
X174961615Y-93522800D01*
X174990287Y-93813911D01*
X175075201Y-94093834D01*
X175213094Y-94351814D01*
X175398666Y-94577934D01*
X175624786Y-94763506D01*
X175882766Y-94901399D01*
X176162689Y-94986313D01*
X176380850Y-95007800D01*
X176526750Y-95007800D01*
X176744911Y-94986313D01*
X177024834Y-94901399D01*
X177282814Y-94763506D01*
X177508934Y-94577934D01*
X177694506Y-94351814D01*
X177832399Y-94093834D01*
X177917313Y-93813911D01*
X177945985Y-93522800D01*
X177917313Y-93231689D01*
X177832399Y-92951766D01*
X177694506Y-92693786D01*
X177508934Y-92467666D01*
X177282814Y-92282094D01*
X177228009Y-92252800D01*
X177282814Y-92223506D01*
X177508934Y-92037934D01*
X177694506Y-91811814D01*
X177832399Y-91553834D01*
X177917313Y-91273911D01*
X177945985Y-90982800D01*
X177917313Y-90691689D01*
X177832399Y-90411766D01*
X177694506Y-90153786D01*
X177508934Y-89927666D01*
X177282814Y-89742094D01*
X177228009Y-89712800D01*
X177282814Y-89683506D01*
X177508934Y-89497934D01*
X177694506Y-89271814D01*
X177832399Y-89013834D01*
X177917313Y-88733911D01*
X177945985Y-88442800D01*
X177917313Y-88151689D01*
X177832399Y-87871766D01*
X177694506Y-87613786D01*
X177508934Y-87387666D01*
X177282814Y-87202094D01*
X177228009Y-87172800D01*
X177282814Y-87143506D01*
X177508934Y-86957934D01*
X177694506Y-86731814D01*
X177832399Y-86473834D01*
X177917313Y-86193911D01*
X177945985Y-85902800D01*
X177917313Y-85611689D01*
X177832399Y-85331766D01*
X177694506Y-85073786D01*
X177508934Y-84847666D01*
X177282814Y-84662094D01*
X177228009Y-84632800D01*
X177282814Y-84603506D01*
X177508934Y-84417934D01*
X177694506Y-84191814D01*
X177832399Y-83933834D01*
X177917313Y-83653911D01*
X177945985Y-83362800D01*
X177917313Y-83071689D01*
X177832399Y-82791766D01*
X177694506Y-82533786D01*
X177508934Y-82307666D01*
X177282814Y-82122094D01*
X177228009Y-82092800D01*
X177282814Y-82063506D01*
X177508934Y-81877934D01*
X177694506Y-81651814D01*
X177832399Y-81393834D01*
X177917313Y-81113911D01*
X177945985Y-80822800D01*
X177917313Y-80531689D01*
X177832399Y-80251766D01*
X177694506Y-79993786D01*
X177508934Y-79767666D01*
X177282814Y-79582094D01*
X177228009Y-79552800D01*
X177282814Y-79523506D01*
X177508934Y-79337934D01*
X177694506Y-79111814D01*
X177832399Y-78853834D01*
X177917313Y-78573911D01*
X177945985Y-78282800D01*
X177917313Y-77991689D01*
X177832399Y-77711766D01*
X177694506Y-77453786D01*
X177508934Y-77227666D01*
X177282814Y-77042094D01*
X177228009Y-77012800D01*
X177282814Y-76983506D01*
X177508934Y-76797934D01*
X177694506Y-76571814D01*
X177832399Y-76313834D01*
X177917313Y-76033911D01*
X177945985Y-75742800D01*
X177917313Y-75451689D01*
X177832399Y-75171766D01*
X177694506Y-74913786D01*
X177508934Y-74687666D01*
X177282814Y-74502094D01*
X177228009Y-74472800D01*
X177282814Y-74443506D01*
X177508934Y-74257934D01*
X177694506Y-74031814D01*
X177832399Y-73773834D01*
X177917313Y-73493911D01*
X177945985Y-73202800D01*
X177917313Y-72911689D01*
X177832399Y-72631766D01*
X177694506Y-72373786D01*
X177508934Y-72147666D01*
X177282814Y-71962094D01*
X177228009Y-71932800D01*
X177282814Y-71903506D01*
X177508934Y-71717934D01*
X177694506Y-71491814D01*
X177832399Y-71233834D01*
X177917313Y-70953911D01*
X177945985Y-70662800D01*
X177917313Y-70371689D01*
X177832399Y-70091766D01*
X177694506Y-69833786D01*
X177508934Y-69607666D01*
X177282814Y-69422094D01*
X177228009Y-69392800D01*
X177282814Y-69363506D01*
X177508934Y-69177934D01*
X177694506Y-68951814D01*
X177832399Y-68693834D01*
X177917313Y-68413911D01*
X177945985Y-68122800D01*
X177917313Y-67831689D01*
X177832399Y-67551766D01*
X177694506Y-67293786D01*
X177508934Y-67067666D01*
X177282814Y-66882094D01*
X177228009Y-66852800D01*
X177282814Y-66823506D01*
X177508934Y-66637934D01*
X177694506Y-66411814D01*
X177832399Y-66153834D01*
X177917313Y-65873911D01*
X177945985Y-65582800D01*
X177917313Y-65291689D01*
X177832399Y-65011766D01*
X177694506Y-64753786D01*
X177527159Y-64549872D01*
X181788000Y-64549872D01*
X181788000Y-64990128D01*
X181873890Y-65421925D01*
X182042369Y-65828669D01*
X182286962Y-66194729D01*
X182598271Y-66506038D01*
X182964331Y-66750631D01*
X183371075Y-66919110D01*
X183802872Y-67005000D01*
X184243128Y-67005000D01*
X184674925Y-66919110D01*
X185081669Y-66750631D01*
X185447729Y-66506038D01*
X185759038Y-66194729D01*
X186003631Y-65828669D01*
X186172110Y-65421925D01*
X186258000Y-64990128D01*
X186258000Y-64549872D01*
X186172110Y-64118075D01*
X186003631Y-63711331D01*
X185759038Y-63345271D01*
X185447729Y-63033962D01*
X185081669Y-62789369D01*
X184674925Y-62620890D01*
X184243128Y-62535000D01*
X183802872Y-62535000D01*
X183371075Y-62620890D01*
X182964331Y-62789369D01*
X182598271Y-63033962D01*
X182286962Y-63345271D01*
X182042369Y-63711331D01*
X181873890Y-64118075D01*
X181788000Y-64549872D01*
X177527159Y-64549872D01*
X177508934Y-64527666D01*
X177282814Y-64342094D01*
X177228009Y-64312800D01*
X177282814Y-64283506D01*
X177508934Y-64097934D01*
X177694506Y-63871814D01*
X177832399Y-63613834D01*
X177917313Y-63333911D01*
X177945985Y-63042800D01*
X177917313Y-62751689D01*
X177832399Y-62471766D01*
X177694506Y-62213786D01*
X177508934Y-61987666D01*
X177282814Y-61802094D01*
X177228009Y-61772800D01*
X177282814Y-61743506D01*
X177508934Y-61557934D01*
X177694506Y-61331814D01*
X177832399Y-61073834D01*
X177917313Y-60793911D01*
X177945985Y-60502800D01*
X177917313Y-60211689D01*
X177832399Y-59931766D01*
X177694506Y-59673786D01*
X177508934Y-59447666D01*
X177282814Y-59262094D01*
X177228009Y-59232800D01*
X177282814Y-59203506D01*
X177508934Y-59017934D01*
X177694506Y-58791814D01*
X177832399Y-58533834D01*
X177917313Y-58253911D01*
X177945985Y-57962800D01*
X177917313Y-57671689D01*
X177832399Y-57391766D01*
X177694506Y-57133786D01*
X177508934Y-56907666D01*
X177339970Y-56769000D01*
X180130630Y-56769000D01*
X180152062Y-56986598D01*
X180215532Y-57195834D01*
X180318604Y-57388666D01*
X180457314Y-57557686D01*
X180626334Y-57696396D01*
X180819166Y-57799468D01*
X181028402Y-57862938D01*
X181191479Y-57879000D01*
X181600521Y-57879000D01*
X181763598Y-57862938D01*
X181972834Y-57799468D01*
X182165666Y-57696396D01*
X182334686Y-57557686D01*
X182473396Y-57388666D01*
X182576468Y-57195834D01*
X182639938Y-56986598D01*
X182661370Y-56769000D01*
X185130630Y-56769000D01*
X185152062Y-56986598D01*
X185215532Y-57195834D01*
X185318604Y-57388666D01*
X185457314Y-57557686D01*
X185626334Y-57696396D01*
X185819166Y-57799468D01*
X186028402Y-57862938D01*
X186191479Y-57879000D01*
X186600521Y-57879000D01*
X186763598Y-57862938D01*
X186972834Y-57799468D01*
X187165666Y-57696396D01*
X187334686Y-57557686D01*
X187473396Y-57388666D01*
X187576468Y-57195834D01*
X187639938Y-56986598D01*
X187661370Y-56769000D01*
X187639938Y-56551402D01*
X187576468Y-56342166D01*
X187473396Y-56149334D01*
X187334686Y-55980314D01*
X187165666Y-55841604D01*
X186972834Y-55738532D01*
X186763598Y-55675062D01*
X186600521Y-55659000D01*
X186191479Y-55659000D01*
X186028402Y-55675062D01*
X185819166Y-55738532D01*
X185626334Y-55841604D01*
X185457314Y-55980314D01*
X185318604Y-56149334D01*
X185215532Y-56342166D01*
X185152062Y-56551402D01*
X185130630Y-56769000D01*
X182661370Y-56769000D01*
X182639938Y-56551402D01*
X182576468Y-56342166D01*
X182473396Y-56149334D01*
X182334686Y-55980314D01*
X182165666Y-55841604D01*
X181972834Y-55738532D01*
X181763598Y-55675062D01*
X181600521Y-55659000D01*
X181191479Y-55659000D01*
X181028402Y-55675062D01*
X180819166Y-55738532D01*
X180626334Y-55841604D01*
X180457314Y-55980314D01*
X180318604Y-56149334D01*
X180215532Y-56342166D01*
X180152062Y-56551402D01*
X180130630Y-56769000D01*
X177339970Y-56769000D01*
X177282814Y-56722094D01*
X177228009Y-56692800D01*
X177282814Y-56663506D01*
X177508934Y-56477934D01*
X177694506Y-56251814D01*
X177832399Y-55993834D01*
X177917313Y-55713911D01*
X177945985Y-55422800D01*
X177917313Y-55131689D01*
X177832399Y-54851766D01*
X177694506Y-54593786D01*
X177508934Y-54367666D01*
X177479113Y-54343193D01*
X177547980Y-54322302D01*
X177658294Y-54263337D01*
X177754985Y-54183985D01*
X177834337Y-54087294D01*
X177893302Y-53976980D01*
X177929612Y-53857282D01*
X177941335Y-53738248D01*
X179261000Y-53738248D01*
X179261000Y-54399751D01*
X179277423Y-54566498D01*
X179342324Y-54780446D01*
X179447716Y-54977623D01*
X179589551Y-55150449D01*
X179762377Y-55292284D01*
X179959553Y-55397676D01*
X180173501Y-55462577D01*
X180396000Y-55484491D01*
X180618498Y-55462577D01*
X180832446Y-55397676D01*
X181029623Y-55292284D01*
X181202449Y-55150449D01*
X181344284Y-54977623D01*
X181449676Y-54780447D01*
X181514577Y-54566499D01*
X181531000Y-54399752D01*
X181531000Y-53738249D01*
X181514577Y-53571502D01*
X181449676Y-53357554D01*
X181344284Y-53160377D01*
X181202449Y-52987551D01*
X181029623Y-52845716D01*
X180832447Y-52740324D01*
X180618499Y-52675423D01*
X180396000Y-52653509D01*
X180173502Y-52675423D01*
X179959554Y-52740324D01*
X179762378Y-52845716D01*
X179589552Y-52987551D01*
X179447717Y-53160377D01*
X179342324Y-53357553D01*
X179277423Y-53571501D01*
X179261000Y-53738248D01*
X177941335Y-53738248D01*
X177941872Y-53732800D01*
X177941872Y-52032800D01*
X177929612Y-51908318D01*
X177893302Y-51788620D01*
X177834337Y-51678306D01*
X177754985Y-51581615D01*
X177658294Y-51502263D01*
X177547980Y-51443298D01*
X177428282Y-51406988D01*
X177303800Y-51394728D01*
X175603800Y-51394728D01*
X175479318Y-51406988D01*
X175359620Y-51443298D01*
X175249306Y-51502263D01*
X175152615Y-51581615D01*
X175073263Y-51678306D01*
X175014298Y-51788620D01*
X174977988Y-51908318D01*
X174965728Y-52032800D01*
X174965728Y-53732800D01*
X174977988Y-53857282D01*
X175014298Y-53976980D01*
X175073263Y-54087294D01*
X175152615Y-54183985D01*
X175249306Y-54263337D01*
X175359620Y-54322302D01*
X175428487Y-54343193D01*
X175398666Y-54367666D01*
X175213094Y-54593786D01*
X175075201Y-54851766D01*
X174990287Y-55131689D01*
X174961615Y-55422800D01*
X174990287Y-55713911D01*
X175075201Y-55993834D01*
X175213094Y-56251814D01*
X175398666Y-56477934D01*
X175624786Y-56663506D01*
X175679591Y-56692800D01*
X175624786Y-56722094D01*
X175398666Y-56907666D01*
X175213094Y-57133786D01*
X175075201Y-57391766D01*
X174990287Y-57671689D01*
X174961615Y-57962800D01*
X174990287Y-58253911D01*
X175075201Y-58533834D01*
X175213094Y-58791814D01*
X175398666Y-59017934D01*
X175624786Y-59203506D01*
X175679591Y-59232800D01*
X175624786Y-59262094D01*
X175398666Y-59447666D01*
X175213094Y-59673786D01*
X175075201Y-59931766D01*
X174990287Y-60211689D01*
X174961615Y-60502800D01*
X174990287Y-60793911D01*
X175075201Y-61073834D01*
X175213094Y-61331814D01*
X175398666Y-61557934D01*
X175624786Y-61743506D01*
X175679591Y-61772800D01*
X175624786Y-61802094D01*
X175398666Y-61987666D01*
X175213094Y-62213786D01*
X175075201Y-62471766D01*
X174990287Y-62751689D01*
X174961615Y-63042800D01*
X174990287Y-63333911D01*
X175075201Y-63613834D01*
X175213094Y-63871814D01*
X175398666Y-64097934D01*
X175624786Y-64283506D01*
X175679591Y-64312800D01*
X175624786Y-64342094D01*
X175398666Y-64527666D01*
X175213094Y-64753786D01*
X175075201Y-65011766D01*
X174990287Y-65291689D01*
X174961615Y-65582800D01*
X174990287Y-65873911D01*
X175075201Y-66153834D01*
X175213094Y-66411814D01*
X175398666Y-66637934D01*
X175624786Y-66823506D01*
X175679591Y-66852800D01*
X175624786Y-66882094D01*
X175398666Y-67067666D01*
X175213094Y-67293786D01*
X175075201Y-67551766D01*
X174990287Y-67831689D01*
X174961615Y-68122800D01*
X174990287Y-68413911D01*
X175075201Y-68693834D01*
X175213094Y-68951814D01*
X175398666Y-69177934D01*
X175624786Y-69363506D01*
X175679591Y-69392800D01*
X175624786Y-69422094D01*
X175398666Y-69607666D01*
X175213094Y-69833786D01*
X175075201Y-70091766D01*
X174990287Y-70371689D01*
X174961615Y-70662800D01*
X174990287Y-70953911D01*
X175075201Y-71233834D01*
X175213094Y-71491814D01*
X175398666Y-71717934D01*
X175624786Y-71903506D01*
X175679591Y-71932800D01*
X175624786Y-71962094D01*
X175398666Y-72147666D01*
X175213094Y-72373786D01*
X175075201Y-72631766D01*
X174990287Y-72911689D01*
X174961615Y-73202800D01*
X174990287Y-73493911D01*
X175075201Y-73773834D01*
X175213094Y-74031814D01*
X175398666Y-74257934D01*
X175624786Y-74443506D01*
X175679591Y-74472800D01*
X175624786Y-74502094D01*
X175398666Y-74687666D01*
X175213094Y-74913786D01*
X175075201Y-75171766D01*
X174990287Y-75451689D01*
X174961615Y-75742800D01*
X174990287Y-76033911D01*
X175075201Y-76313834D01*
X175213094Y-76571814D01*
X175398666Y-76797934D01*
X175624786Y-76983506D01*
X175679591Y-77012800D01*
X175624786Y-77042094D01*
X175398666Y-77227666D01*
X175213094Y-77453786D01*
X175075201Y-77711766D01*
X174990287Y-77991689D01*
X174961615Y-78282800D01*
X174990287Y-78573911D01*
X175075201Y-78853834D01*
X175195092Y-79078134D01*
X173307966Y-80965260D01*
X173276459Y-80991117D01*
X173207214Y-81075493D01*
X173173301Y-81116816D01*
X173160784Y-81140234D01*
X173096647Y-81260225D01*
X173049444Y-81415833D01*
X173040341Y-81508260D01*
X173033506Y-81577658D01*
X173037500Y-81618209D01*
X173037501Y-87329994D01*
X169244996Y-91122500D01*
X164584503Y-91122500D01*
X164447256Y-91030795D01*
X164258898Y-90952774D01*
X164058939Y-90913000D01*
X163855061Y-90913000D01*
X163655102Y-90952774D01*
X163466744Y-91030795D01*
X163297226Y-91144063D01*
X163153063Y-91288226D01*
X163039795Y-91457744D01*
X162986014Y-91587582D01*
X162676195Y-91277763D01*
X162676190Y-91277757D01*
X162676156Y-91277723D01*
X162677313Y-91273911D01*
X162705985Y-90982800D01*
X162677313Y-90691689D01*
X162592399Y-90411766D01*
X162454506Y-90153786D01*
X162268934Y-89927666D01*
X162042814Y-89742094D01*
X161988009Y-89712800D01*
X162042814Y-89683506D01*
X162268934Y-89497934D01*
X162454506Y-89271814D01*
X162592399Y-89013834D01*
X162677313Y-88733911D01*
X162705985Y-88442800D01*
X162677313Y-88151689D01*
X162592399Y-87871766D01*
X162454506Y-87613786D01*
X162268934Y-87387666D01*
X162042814Y-87202094D01*
X161978277Y-87167599D01*
X162095155Y-87097978D01*
X162311388Y-86903069D01*
X162485441Y-86669720D01*
X162610625Y-86406899D01*
X162655276Y-86259690D01*
X162533955Y-86029800D01*
X161340800Y-86029800D01*
X161340800Y-86049800D01*
X161086800Y-86049800D01*
X161086800Y-86029800D01*
X159893645Y-86029800D01*
X159772324Y-86259690D01*
X159816975Y-86406899D01*
X159942159Y-86669720D01*
X160116212Y-86903069D01*
X160332445Y-87097978D01*
X160449323Y-87167599D01*
X160384786Y-87202094D01*
X160158666Y-87387666D01*
X159973094Y-87613786D01*
X159835201Y-87871766D01*
X159750287Y-88151689D01*
X159721615Y-88442800D01*
X159750287Y-88733911D01*
X159835201Y-89013834D01*
X159973094Y-89271814D01*
X160158666Y-89497934D01*
X160384786Y-89683506D01*
X160439591Y-89712800D01*
X160384786Y-89742094D01*
X160158666Y-89927666D01*
X159973094Y-90153786D01*
X159835201Y-90411766D01*
X159750287Y-90691689D01*
X159721615Y-90982800D01*
X159750287Y-91273911D01*
X159835201Y-91553834D01*
X159973094Y-91811814D01*
X160158666Y-92037934D01*
X160188487Y-92062407D01*
X160119620Y-92083298D01*
X160009306Y-92142263D01*
X159912615Y-92221615D01*
X159833263Y-92318306D01*
X159774298Y-92428620D01*
X159737988Y-92548318D01*
X159725728Y-92672800D01*
X159725728Y-94372800D01*
X159737988Y-94497282D01*
X159774298Y-94616980D01*
X159833263Y-94727294D01*
X159912615Y-94823985D01*
X160009306Y-94903337D01*
X160119620Y-94962302D01*
X160239318Y-94998612D01*
X160363800Y-95010872D01*
X160429137Y-95010872D01*
X160447447Y-95071233D01*
X160524101Y-95214642D01*
X160558014Y-95255965D01*
X160627259Y-95340341D01*
X160658766Y-95366198D01*
X163195461Y-97902893D01*
X163020102Y-97937774D01*
X162831744Y-98015795D01*
X162662226Y-98129063D01*
X162518063Y-98273226D01*
X162404795Y-98442744D01*
X162326774Y-98631102D01*
X162287000Y-98831061D01*
X162287000Y-98927567D01*
X158863996Y-102350571D01*
X158702102Y-102382774D01*
X158513744Y-102460795D01*
X158344226Y-102574063D01*
X158200063Y-102718226D01*
X158086795Y-102887744D01*
X158070212Y-102927779D01*
X155679398Y-100536966D01*
X155653541Y-100505459D01*
X155527842Y-100402301D01*
X155384434Y-100325647D01*
X155228826Y-100278444D01*
X155107553Y-100266500D01*
X155107550Y-100266500D01*
X155067000Y-100262506D01*
X155026450Y-100266500D01*
X149058934Y-100266500D01*
X140070156Y-91277724D01*
X140071313Y-91273911D01*
X140099985Y-90982800D01*
X140071313Y-90691689D01*
X139986399Y-90411766D01*
X139848506Y-90153786D01*
X139662934Y-89927666D01*
X139436814Y-89742094D01*
X139382009Y-89712800D01*
X139436814Y-89683506D01*
X139662934Y-89497934D01*
X139848506Y-89271814D01*
X139941244Y-89098313D01*
X139982900Y-89132499D01*
X140126308Y-89209153D01*
X140281916Y-89256356D01*
X140403189Y-89268300D01*
X140403198Y-89268300D01*
X140443741Y-89272293D01*
X140484284Y-89268300D01*
X152579816Y-89268300D01*
X152581694Y-89271814D01*
X152767266Y-89497934D01*
X152993386Y-89683506D01*
X153048191Y-89712800D01*
X152993386Y-89742094D01*
X152767266Y-89927666D01*
X152581694Y-90153786D01*
X152443801Y-90411766D01*
X152358887Y-90691689D01*
X152330215Y-90982800D01*
X152358887Y-91273911D01*
X152443801Y-91553834D01*
X152581694Y-91811814D01*
X152767266Y-92037934D01*
X152993386Y-92223506D01*
X153048191Y-92252800D01*
X152993386Y-92282094D01*
X152767266Y-92467666D01*
X152581694Y-92693786D01*
X152443801Y-92951766D01*
X152358887Y-93231689D01*
X152330215Y-93522800D01*
X152358887Y-93813911D01*
X152443801Y-94093834D01*
X152581694Y-94351814D01*
X152767266Y-94577934D01*
X152993386Y-94763506D01*
X153251366Y-94901399D01*
X153531289Y-94986313D01*
X153749450Y-95007800D01*
X153895350Y-95007800D01*
X154113511Y-94986313D01*
X154393434Y-94901399D01*
X154651414Y-94763506D01*
X154877534Y-94577934D01*
X155063106Y-94351814D01*
X155200999Y-94093834D01*
X155285913Y-93813911D01*
X155314585Y-93522800D01*
X155285913Y-93231689D01*
X155200999Y-92951766D01*
X155063106Y-92693786D01*
X154877534Y-92467666D01*
X154651414Y-92282094D01*
X154596609Y-92252800D01*
X154651414Y-92223506D01*
X154877534Y-92037934D01*
X155063106Y-91811814D01*
X155200999Y-91553834D01*
X155285913Y-91273911D01*
X155314585Y-90982800D01*
X155285913Y-90691689D01*
X155200999Y-90411766D01*
X155063106Y-90153786D01*
X154877534Y-89927666D01*
X154651414Y-89742094D01*
X154596609Y-89712800D01*
X154651414Y-89683506D01*
X154877534Y-89497934D01*
X155063106Y-89271814D01*
X155200999Y-89013834D01*
X155285913Y-88733911D01*
X155314585Y-88442800D01*
X155285913Y-88151689D01*
X155200999Y-87871766D01*
X155063106Y-87613786D01*
X154877534Y-87387666D01*
X154651414Y-87202094D01*
X154596609Y-87172800D01*
X154651414Y-87143506D01*
X154877534Y-86957934D01*
X155063106Y-86731814D01*
X155200999Y-86473834D01*
X155285913Y-86193911D01*
X155314585Y-85902800D01*
X155285913Y-85611689D01*
X155200999Y-85331766D01*
X155063106Y-85073786D01*
X154877534Y-84847666D01*
X154651414Y-84662094D01*
X154596609Y-84632800D01*
X154651414Y-84603506D01*
X154877534Y-84417934D01*
X155063106Y-84191814D01*
X155200999Y-83933834D01*
X155285913Y-83653911D01*
X155314585Y-83362800D01*
X155285913Y-83071689D01*
X155200999Y-82791766D01*
X155063106Y-82533786D01*
X154877534Y-82307666D01*
X154651414Y-82122094D01*
X154596609Y-82092800D01*
X154651414Y-82063506D01*
X154877534Y-81877934D01*
X155063106Y-81651814D01*
X155200999Y-81393834D01*
X155285913Y-81113911D01*
X155314585Y-80822800D01*
X155285913Y-80531689D01*
X155200999Y-80251766D01*
X155063106Y-79993786D01*
X154877534Y-79767666D01*
X154651414Y-79582094D01*
X154596609Y-79552800D01*
X154651414Y-79523506D01*
X154877534Y-79337934D01*
X155063106Y-79111814D01*
X155200999Y-78853834D01*
X155285913Y-78573911D01*
X155314585Y-78282800D01*
X155285913Y-77991689D01*
X155200999Y-77711766D01*
X155063106Y-77453786D01*
X154877534Y-77227666D01*
X154651414Y-77042094D01*
X154596609Y-77012800D01*
X154651414Y-76983506D01*
X154877534Y-76797934D01*
X155063106Y-76571814D01*
X155200999Y-76313834D01*
X155285913Y-76033911D01*
X155314585Y-75742800D01*
X155285913Y-75451689D01*
X155200999Y-75171766D01*
X155081108Y-74947466D01*
X156000275Y-74028300D01*
X159971216Y-74028300D01*
X159973094Y-74031814D01*
X160158666Y-74257934D01*
X160384786Y-74443506D01*
X160439591Y-74472800D01*
X160384786Y-74502094D01*
X160158666Y-74687666D01*
X159973094Y-74913786D01*
X159835201Y-75171766D01*
X159750287Y-75451689D01*
X159721615Y-75742800D01*
X159750287Y-76033911D01*
X159835201Y-76313834D01*
X159973094Y-76571814D01*
X160158666Y-76797934D01*
X160384786Y-76983506D01*
X160439591Y-77012800D01*
X160384786Y-77042094D01*
X160158666Y-77227666D01*
X159973094Y-77453786D01*
X159835201Y-77711766D01*
X159750287Y-77991689D01*
X159721615Y-78282800D01*
X159750287Y-78573911D01*
X159835201Y-78853834D01*
X159973094Y-79111814D01*
X160158666Y-79337934D01*
X160384786Y-79523506D01*
X160439591Y-79552800D01*
X160384786Y-79582094D01*
X160158666Y-79767666D01*
X159973094Y-79993786D01*
X159835201Y-80251766D01*
X159750287Y-80531689D01*
X159721615Y-80822800D01*
X159750287Y-81113911D01*
X159751444Y-81117724D01*
X156289966Y-84579202D01*
X156258459Y-84605059D01*
X156189214Y-84689435D01*
X156155301Y-84730758D01*
X156104226Y-84826313D01*
X156078647Y-84874167D01*
X156031444Y-85029775D01*
X156025587Y-85089245D01*
X156015506Y-85191600D01*
X156019500Y-85232150D01*
X156019501Y-99575496D01*
X155927795Y-99712744D01*
X155849774Y-99901102D01*
X155810000Y-100101061D01*
X155810000Y-100304939D01*
X155849774Y-100504898D01*
X155927795Y-100693256D01*
X156041063Y-100862774D01*
X156185226Y-101006937D01*
X156354744Y-101120205D01*
X156543102Y-101198226D01*
X156743061Y-101238000D01*
X156946939Y-101238000D01*
X157146898Y-101198226D01*
X157335256Y-101120205D01*
X157504774Y-101006937D01*
X157648937Y-100862774D01*
X157762205Y-100693256D01*
X157840226Y-100504898D01*
X157880000Y-100304939D01*
X157880000Y-100101061D01*
X157840226Y-99901102D01*
X157762205Y-99712744D01*
X157670500Y-99575497D01*
X157670500Y-85533532D01*
X159732340Y-83471693D01*
X159750287Y-83653911D01*
X159835201Y-83933834D01*
X159973094Y-84191814D01*
X160158666Y-84417934D01*
X160384786Y-84603506D01*
X160449323Y-84638001D01*
X160332445Y-84707622D01*
X160116212Y-84902531D01*
X159942159Y-85135880D01*
X159816975Y-85398701D01*
X159772324Y-85545910D01*
X159893645Y-85775800D01*
X161086800Y-85775800D01*
X161086800Y-85755800D01*
X161340800Y-85755800D01*
X161340800Y-85775800D01*
X162533955Y-85775800D01*
X162655276Y-85545910D01*
X162610625Y-85398701D01*
X162485441Y-85135880D01*
X162311388Y-84902531D01*
X162095155Y-84707622D01*
X161978277Y-84638001D01*
X162042814Y-84603506D01*
X162268934Y-84417934D01*
X162454506Y-84191814D01*
X162592399Y-83933834D01*
X162677313Y-83653911D01*
X162705985Y-83362800D01*
X162677313Y-83071689D01*
X162592399Y-82791766D01*
X162454506Y-82533786D01*
X162268934Y-82307666D01*
X162042814Y-82122094D01*
X161988009Y-82092800D01*
X162042814Y-82063506D01*
X162268934Y-81877934D01*
X162454506Y-81651814D01*
X162592399Y-81393834D01*
X162677313Y-81113911D01*
X162705985Y-80822800D01*
X162677313Y-80531689D01*
X162592399Y-80251766D01*
X162454506Y-79993786D01*
X162268934Y-79767666D01*
X162042814Y-79582094D01*
X161988009Y-79552800D01*
X162042814Y-79523506D01*
X162268934Y-79337934D01*
X162454506Y-79111814D01*
X162592399Y-78853834D01*
X162677313Y-78573911D01*
X162705985Y-78282800D01*
X162677313Y-77991689D01*
X162592399Y-77711766D01*
X162454506Y-77453786D01*
X162268934Y-77227666D01*
X162042814Y-77042094D01*
X161988009Y-77012800D01*
X162042814Y-76983506D01*
X162268934Y-76797934D01*
X162454506Y-76571814D01*
X162592399Y-76313834D01*
X162677313Y-76033911D01*
X162705985Y-75742800D01*
X162677313Y-75451689D01*
X162592399Y-75171766D01*
X162454506Y-74913786D01*
X162268934Y-74687666D01*
X162042814Y-74502094D01*
X161988009Y-74472800D01*
X162042814Y-74443506D01*
X162268934Y-74257934D01*
X162454506Y-74031814D01*
X162592399Y-73773834D01*
X162677313Y-73493911D01*
X162705985Y-73202800D01*
X162677313Y-72911689D01*
X162592399Y-72631766D01*
X162454506Y-72373786D01*
X162268934Y-72147666D01*
X162042814Y-71962094D01*
X161988009Y-71932800D01*
X162042814Y-71903506D01*
X162268934Y-71717934D01*
X162454506Y-71491814D01*
X162592399Y-71233834D01*
X162677313Y-70953911D01*
X162705985Y-70662800D01*
X162677313Y-70371689D01*
X162592399Y-70091766D01*
X162454506Y-69833786D01*
X162268934Y-69607666D01*
X162042814Y-69422094D01*
X161988009Y-69392800D01*
X162042814Y-69363506D01*
X162268934Y-69177934D01*
X162454506Y-68951814D01*
X162592399Y-68693834D01*
X162677313Y-68413911D01*
X162705985Y-68122800D01*
X162677313Y-67831689D01*
X162592399Y-67551766D01*
X162454506Y-67293786D01*
X162268934Y-67067666D01*
X162042814Y-66882094D01*
X161988009Y-66852800D01*
X162042814Y-66823506D01*
X162268934Y-66637934D01*
X162454506Y-66411814D01*
X162592399Y-66153834D01*
X162677313Y-65873911D01*
X162705985Y-65582800D01*
X162677313Y-65291689D01*
X162592399Y-65011766D01*
X162454506Y-64753786D01*
X162268934Y-64527666D01*
X162042814Y-64342094D01*
X161988009Y-64312800D01*
X162042814Y-64283506D01*
X162268934Y-64097934D01*
X162454506Y-63871814D01*
X162592399Y-63613834D01*
X162677313Y-63333911D01*
X162705985Y-63042800D01*
X162677313Y-62751689D01*
X162592399Y-62471766D01*
X162454506Y-62213786D01*
X162268934Y-61987666D01*
X162042814Y-61802094D01*
X161988009Y-61772800D01*
X162042814Y-61743506D01*
X162268934Y-61557934D01*
X162454506Y-61331814D01*
X162592399Y-61073834D01*
X162677313Y-60793911D01*
X162705985Y-60502800D01*
X162677313Y-60211689D01*
X162592399Y-59931766D01*
X162454506Y-59673786D01*
X162268934Y-59447666D01*
X162042814Y-59262094D01*
X161988009Y-59232800D01*
X162042814Y-59203506D01*
X162268934Y-59017934D01*
X162454506Y-58791814D01*
X162592399Y-58533834D01*
X162677313Y-58253911D01*
X162705985Y-57962800D01*
X162677313Y-57671689D01*
X162592399Y-57391766D01*
X162454506Y-57133786D01*
X162268934Y-56907666D01*
X162042814Y-56722094D01*
X161988009Y-56692800D01*
X162042814Y-56663506D01*
X162268934Y-56477934D01*
X162454506Y-56251814D01*
X162592399Y-55993834D01*
X162677313Y-55713911D01*
X162705985Y-55422800D01*
X162677313Y-55131689D01*
X162592399Y-54851766D01*
X162454506Y-54593786D01*
X162268934Y-54367666D01*
X162042814Y-54182094D01*
X161988009Y-54152800D01*
X162042814Y-54123506D01*
X162268934Y-53937934D01*
X162454506Y-53711814D01*
X162592399Y-53453834D01*
X162677313Y-53173911D01*
X162705985Y-52882800D01*
X162677313Y-52591689D01*
X162592399Y-52311766D01*
X162454506Y-52053786D01*
X162268934Y-51827666D01*
X162042814Y-51642094D01*
X161784834Y-51504201D01*
X161504911Y-51419287D01*
X161286750Y-51397800D01*
X161140850Y-51397800D01*
X160922689Y-51419287D01*
X160642766Y-51504201D01*
X160384786Y-51642094D01*
X160158666Y-51827666D01*
X159973094Y-52053786D01*
X159835201Y-52311766D01*
X159750287Y-52591689D01*
X159721615Y-52882800D01*
X159750287Y-53173911D01*
X159835201Y-53453834D01*
X159973094Y-53711814D01*
X160158666Y-53937934D01*
X160384786Y-54123506D01*
X160439591Y-54152800D01*
X160384786Y-54182094D01*
X160158666Y-54367666D01*
X159973094Y-54593786D01*
X159835201Y-54851766D01*
X159750287Y-55131689D01*
X159721615Y-55422800D01*
X159750287Y-55713911D01*
X159835201Y-55993834D01*
X159973094Y-56251814D01*
X160158666Y-56477934D01*
X160384786Y-56663506D01*
X160439591Y-56692800D01*
X160384786Y-56722094D01*
X160158666Y-56907666D01*
X159973094Y-57133786D01*
X159835201Y-57391766D01*
X159750287Y-57671689D01*
X159721615Y-57962800D01*
X159750287Y-58253911D01*
X159835201Y-58533834D01*
X159973094Y-58791814D01*
X160158666Y-59017934D01*
X160384786Y-59203506D01*
X160439591Y-59232800D01*
X160384786Y-59262094D01*
X160158666Y-59447666D01*
X159973094Y-59673786D01*
X159912000Y-59788085D01*
X159912000Y-59715061D01*
X159872226Y-59515102D01*
X159794205Y-59326744D01*
X159702500Y-59189497D01*
X159702500Y-55575048D01*
X159706494Y-55534498D01*
X159701569Y-55484491D01*
X159690556Y-55372672D01*
X159643353Y-55217064D01*
X159597719Y-55131689D01*
X159566699Y-55073655D01*
X159489392Y-54979456D01*
X159489389Y-54979453D01*
X159463541Y-54947957D01*
X159432046Y-54922110D01*
X155461934Y-50952000D01*
X188443001Y-50952000D01*
X188443001Y-53345066D01*
X188443001Y-53345066D01*
G37*
X188443001Y-53345066D02*
X188344284Y-53160377D01*
X188202449Y-52987551D01*
X188029623Y-52845716D01*
X187832447Y-52740324D01*
X187618499Y-52675423D01*
X187396000Y-52653509D01*
X187173502Y-52675423D01*
X186959554Y-52740324D01*
X186762378Y-52845716D01*
X186589552Y-52987551D01*
X186447717Y-53160377D01*
X186342324Y-53357553D01*
X186277423Y-53571501D01*
X186261000Y-53738248D01*
X186261000Y-54399751D01*
X186277423Y-54566498D01*
X186342324Y-54780446D01*
X186447716Y-54977623D01*
X186589551Y-55150449D01*
X186762377Y-55292284D01*
X186959553Y-55397676D01*
X187173501Y-55462577D01*
X187396000Y-55484491D01*
X187618498Y-55462577D01*
X187832446Y-55397676D01*
X188029623Y-55292284D01*
X188202449Y-55150449D01*
X188344284Y-54977623D01*
X188443001Y-54792935D01*
X188443000Y-117704000D01*
X179356419Y-117704000D01*
X179324000Y-117700807D01*
X179291581Y-117704000D01*
X179194617Y-117713550D01*
X179070207Y-117751290D01*
X178955550Y-117812575D01*
X178880853Y-117873878D01*
X178924599Y-117792034D01*
X179009513Y-117512111D01*
X179038185Y-117221000D01*
X179009513Y-116929889D01*
X178924599Y-116649966D01*
X178786706Y-116391986D01*
X178601134Y-116165866D01*
X178375014Y-115980294D01*
X178320209Y-115951000D01*
X178375014Y-115921706D01*
X178601134Y-115736134D01*
X178786706Y-115510014D01*
X178924599Y-115252034D01*
X179009513Y-114972111D01*
X179038185Y-114681000D01*
X179009513Y-114389889D01*
X178924599Y-114109966D01*
X178786706Y-113851986D01*
X178601134Y-113625866D01*
X178375014Y-113440294D01*
X178117034Y-113302401D01*
X177837111Y-113217487D01*
X177618950Y-113196000D01*
X177473050Y-113196000D01*
X177254889Y-113217487D01*
X176974966Y-113302401D01*
X176716986Y-113440294D01*
X176490866Y-113625866D01*
X176305294Y-113851986D01*
X176276000Y-113906791D01*
X176246706Y-113851986D01*
X176061134Y-113625866D01*
X175835014Y-113440294D01*
X175577034Y-113302401D01*
X175297111Y-113217487D01*
X175078950Y-113196000D01*
X174933050Y-113196000D01*
X174714889Y-113217487D01*
X174532001Y-113272966D01*
X174532001Y-110523872D01*
X182042000Y-110523872D01*
X182042000Y-110964128D01*
X182127890Y-111395925D01*
X182296369Y-111802669D01*
X182540962Y-112168729D01*
X182852271Y-112480038D01*
X183218331Y-112724631D01*
X183625075Y-112893110D01*
X184056872Y-112979000D01*
X184497128Y-112979000D01*
X184928925Y-112893110D01*
X185335669Y-112724631D01*
X185701729Y-112480038D01*
X186013038Y-112168729D01*
X186257631Y-111802669D01*
X186426110Y-111395925D01*
X186512000Y-110964128D01*
X186512000Y-110523872D01*
X186426110Y-110092075D01*
X186257631Y-109685331D01*
X186013038Y-109319271D01*
X185701729Y-109007962D01*
X185335669Y-108763369D01*
X184928925Y-108594890D01*
X184497128Y-108509000D01*
X184056872Y-108509000D01*
X183625075Y-108594890D01*
X183218331Y-108763369D01*
X182852271Y-109007962D01*
X182540962Y-109319271D01*
X182296369Y-109685331D01*
X182127890Y-110092075D01*
X182042000Y-110523872D01*
X174532001Y-110523872D01*
X174532001Y-104043063D01*
X174535994Y-104002520D01*
X174532001Y-103961977D01*
X174532001Y-103961968D01*
X174520057Y-103840695D01*
X174472854Y-103685087D01*
X174396200Y-103541679D01*
X174293042Y-103415980D01*
X174261541Y-103390128D01*
X172242474Y-101371061D01*
X180194000Y-101371061D01*
X180194000Y-101574939D01*
X180233774Y-101774898D01*
X180311795Y-101963256D01*
X180425063Y-102132774D01*
X180569226Y-102276937D01*
X180673011Y-102346284D01*
X180565795Y-102506744D01*
X180487774Y-102695102D01*
X180448000Y-102895061D01*
X180448000Y-103098939D01*
X180487774Y-103298898D01*
X180565795Y-103487256D01*
X180679063Y-103656774D01*
X180823226Y-103800937D01*
X180927011Y-103870284D01*
X180819795Y-104030744D01*
X180741774Y-104219102D01*
X180702000Y-104419061D01*
X180702000Y-104622939D01*
X180741774Y-104822898D01*
X180819795Y-105011256D01*
X180933063Y-105180774D01*
X181077226Y-105324937D01*
X181223116Y-105422417D01*
X181181102Y-105430774D01*
X180992744Y-105508795D01*
X180823226Y-105622063D01*
X180679063Y-105766226D01*
X180565795Y-105935744D01*
X180487774Y-106124102D01*
X180448000Y-106324061D01*
X180448000Y-106527939D01*
X180487774Y-106727898D01*
X180565795Y-106916256D01*
X180679063Y-107085774D01*
X180823226Y-107229937D01*
X180992744Y-107343205D01*
X181181102Y-107421226D01*
X181381061Y-107461000D01*
X181584939Y-107461000D01*
X181784898Y-107421226D01*
X181973256Y-107343205D01*
X182142774Y-107229937D01*
X182286937Y-107085774D01*
X182400205Y-106916256D01*
X182478226Y-106727898D01*
X182518000Y-106527939D01*
X182518000Y-106324061D01*
X182478226Y-106124102D01*
X182400205Y-105935744D01*
X182286937Y-105766226D01*
X182142774Y-105622063D01*
X181996884Y-105524583D01*
X182038898Y-105516226D01*
X182227256Y-105438205D01*
X182396774Y-105324937D01*
X182540937Y-105180774D01*
X182654205Y-105011256D01*
X182732226Y-104822898D01*
X182772000Y-104622939D01*
X182772000Y-104419061D01*
X182732226Y-104219102D01*
X182654205Y-104030744D01*
X182540937Y-103861226D01*
X182396774Y-103717063D01*
X182292989Y-103647716D01*
X182400205Y-103487256D01*
X182478226Y-103298898D01*
X182518000Y-103098939D01*
X182518000Y-102895061D01*
X182478226Y-102695102D01*
X182400205Y-102506744D01*
X182286937Y-102337226D01*
X182142774Y-102193063D01*
X182038989Y-102123716D01*
X182146205Y-101963256D01*
X182224226Y-101774898D01*
X182264000Y-101574939D01*
X182264000Y-101371061D01*
X182224226Y-101171102D01*
X182146205Y-100982744D01*
X182032937Y-100813226D01*
X181888774Y-100669063D01*
X181719256Y-100555795D01*
X181530898Y-100477774D01*
X181330939Y-100438000D01*
X181127061Y-100438000D01*
X180927102Y-100477774D01*
X180738744Y-100555795D01*
X180569226Y-100669063D01*
X180425063Y-100813226D01*
X180311795Y-100982744D01*
X180233774Y-101171102D01*
X180194000Y-101371061D01*
X172242474Y-101371061D01*
X168975419Y-98104007D01*
X168943216Y-97942112D01*
X168865195Y-97753754D01*
X168751927Y-97584236D01*
X168607764Y-97440073D01*
X168438246Y-97326805D01*
X168249888Y-97248784D01*
X168049929Y-97209010D01*
X167846051Y-97209010D01*
X167646092Y-97248784D01*
X167457734Y-97326805D01*
X167288216Y-97440073D01*
X167144053Y-97584236D01*
X167030785Y-97753754D01*
X167019773Y-97780340D01*
X163279801Y-94040369D01*
X163279801Y-92734512D01*
X163297226Y-92751937D01*
X163466744Y-92865205D01*
X163655102Y-92943226D01*
X163855061Y-92983000D01*
X164002669Y-92983000D01*
X163977774Y-93043102D01*
X163938000Y-93243061D01*
X163938000Y-93446939D01*
X163977774Y-93646898D01*
X164055795Y-93835256D01*
X164169063Y-94004774D01*
X164313226Y-94148937D01*
X164482744Y-94262205D01*
X164671102Y-94340226D01*
X164731970Y-94352333D01*
X164700000Y-94513061D01*
X164700000Y-94716939D01*
X164739774Y-94916898D01*
X164817795Y-95105256D01*
X164931063Y-95274774D01*
X165075226Y-95418937D01*
X165244744Y-95532205D01*
X165433102Y-95610226D01*
X165633061Y-95650000D01*
X165836939Y-95650000D01*
X166036898Y-95610226D01*
X166225256Y-95532205D01*
X166362503Y-95440500D01*
X169038969Y-95440500D01*
X169079519Y-95444494D01*
X169120069Y-95440500D01*
X169120072Y-95440500D01*
X169241345Y-95428556D01*
X169396953Y-95381353D01*
X169540361Y-95304699D01*
X169666060Y-95201541D01*
X169691917Y-95170034D01*
X175383048Y-89478904D01*
X175398666Y-89497934D01*
X175624786Y-89683506D01*
X175679591Y-89712800D01*
X175624786Y-89742094D01*
X175398666Y-89927666D01*
X175213094Y-90153786D01*
X175075201Y-90411766D01*
X174990287Y-90691689D01*
X174961615Y-90982800D01*
X174990287Y-91273911D01*
X175075201Y-91553834D01*
X175213094Y-91811814D01*
X175398666Y-92037934D01*
X175624786Y-92223506D01*
X175679591Y-92252800D01*
X175624786Y-92282094D01*
X175398666Y-92467666D01*
X175213094Y-92693786D01*
X175075201Y-92951766D01*
X174990287Y-93231689D01*
X174961615Y-93522800D01*
X174990287Y-93813911D01*
X175075201Y-94093834D01*
X175213094Y-94351814D01*
X175398666Y-94577934D01*
X175624786Y-94763506D01*
X175882766Y-94901399D01*
X176162689Y-94986313D01*
X176380850Y-95007800D01*
X176526750Y-95007800D01*
X176744911Y-94986313D01*
X177024834Y-94901399D01*
X177282814Y-94763506D01*
X177508934Y-94577934D01*
X177694506Y-94351814D01*
X177832399Y-94093834D01*
X177917313Y-93813911D01*
X177945985Y-93522800D01*
X177917313Y-93231689D01*
X177832399Y-92951766D01*
X177694506Y-92693786D01*
X177508934Y-92467666D01*
X177282814Y-92282094D01*
X177228009Y-92252800D01*
X177282814Y-92223506D01*
X177508934Y-92037934D01*
X177694506Y-91811814D01*
X177832399Y-91553834D01*
X177917313Y-91273911D01*
X177945985Y-90982800D01*
X177917313Y-90691689D01*
X177832399Y-90411766D01*
X177694506Y-90153786D01*
X177508934Y-89927666D01*
X177282814Y-89742094D01*
X177228009Y-89712800D01*
X177282814Y-89683506D01*
X177508934Y-89497934D01*
X177694506Y-89271814D01*
X177832399Y-89013834D01*
X177917313Y-88733911D01*
X177945985Y-88442800D01*
X177917313Y-88151689D01*
X177832399Y-87871766D01*
X177694506Y-87613786D01*
X177508934Y-87387666D01*
X177282814Y-87202094D01*
X177228009Y-87172800D01*
X177282814Y-87143506D01*
X177508934Y-86957934D01*
X177694506Y-86731814D01*
X177832399Y-86473834D01*
X177917313Y-86193911D01*
X177945985Y-85902800D01*
X177917313Y-85611689D01*
X177832399Y-85331766D01*
X177694506Y-85073786D01*
X177508934Y-84847666D01*
X177282814Y-84662094D01*
X177228009Y-84632800D01*
X177282814Y-84603506D01*
X177508934Y-84417934D01*
X177694506Y-84191814D01*
X177832399Y-83933834D01*
X177917313Y-83653911D01*
X177945985Y-83362800D01*
X177917313Y-83071689D01*
X177832399Y-82791766D01*
X177694506Y-82533786D01*
X177508934Y-82307666D01*
X177282814Y-82122094D01*
X177228009Y-82092800D01*
X177282814Y-82063506D01*
X177508934Y-81877934D01*
X177694506Y-81651814D01*
X177832399Y-81393834D01*
X177917313Y-81113911D01*
X177945985Y-80822800D01*
X177917313Y-80531689D01*
X177832399Y-80251766D01*
X177694506Y-79993786D01*
X177508934Y-79767666D01*
X177282814Y-79582094D01*
X177228009Y-79552800D01*
X177282814Y-79523506D01*
X177508934Y-79337934D01*
X177694506Y-79111814D01*
X177832399Y-78853834D01*
X177917313Y-78573911D01*
X177945985Y-78282800D01*
X177917313Y-77991689D01*
X177832399Y-77711766D01*
X177694506Y-77453786D01*
X177508934Y-77227666D01*
X177282814Y-77042094D01*
X177228009Y-77012800D01*
X177282814Y-76983506D01*
X177508934Y-76797934D01*
X177694506Y-76571814D01*
X177832399Y-76313834D01*
X177917313Y-76033911D01*
X177945985Y-75742800D01*
X177917313Y-75451689D01*
X177832399Y-75171766D01*
X177694506Y-74913786D01*
X177508934Y-74687666D01*
X177282814Y-74502094D01*
X177228009Y-74472800D01*
X177282814Y-74443506D01*
X177508934Y-74257934D01*
X177694506Y-74031814D01*
X177832399Y-73773834D01*
X177917313Y-73493911D01*
X177945985Y-73202800D01*
X177917313Y-72911689D01*
X177832399Y-72631766D01*
X177694506Y-72373786D01*
X177508934Y-72147666D01*
X177282814Y-71962094D01*
X177228009Y-71932800D01*
X177282814Y-71903506D01*
X177508934Y-71717934D01*
X177694506Y-71491814D01*
X177832399Y-71233834D01*
X177917313Y-70953911D01*
X177945985Y-70662800D01*
X177917313Y-70371689D01*
X177832399Y-70091766D01*
X177694506Y-69833786D01*
X177508934Y-69607666D01*
X177282814Y-69422094D01*
X177228009Y-69392800D01*
X177282814Y-69363506D01*
X177508934Y-69177934D01*
X177694506Y-68951814D01*
X177832399Y-68693834D01*
X177917313Y-68413911D01*
X177945985Y-68122800D01*
X177917313Y-67831689D01*
X177832399Y-67551766D01*
X177694506Y-67293786D01*
X177508934Y-67067666D01*
X177282814Y-66882094D01*
X177228009Y-66852800D01*
X177282814Y-66823506D01*
X177508934Y-66637934D01*
X177694506Y-66411814D01*
X177832399Y-66153834D01*
X177917313Y-65873911D01*
X177945985Y-65582800D01*
X177917313Y-65291689D01*
X177832399Y-65011766D01*
X177694506Y-64753786D01*
X177527159Y-64549872D01*
X181788000Y-64549872D01*
X181788000Y-64990128D01*
X181873890Y-65421925D01*
X182042369Y-65828669D01*
X182286962Y-66194729D01*
X182598271Y-66506038D01*
X182964331Y-66750631D01*
X183371075Y-66919110D01*
X183802872Y-67005000D01*
X184243128Y-67005000D01*
X184674925Y-66919110D01*
X185081669Y-66750631D01*
X185447729Y-66506038D01*
X185759038Y-66194729D01*
X186003631Y-65828669D01*
X186172110Y-65421925D01*
X186258000Y-64990128D01*
X186258000Y-64549872D01*
X186172110Y-64118075D01*
X186003631Y-63711331D01*
X185759038Y-63345271D01*
X185447729Y-63033962D01*
X185081669Y-62789369D01*
X184674925Y-62620890D01*
X184243128Y-62535000D01*
X183802872Y-62535000D01*
X183371075Y-62620890D01*
X182964331Y-62789369D01*
X182598271Y-63033962D01*
X182286962Y-63345271D01*
X182042369Y-63711331D01*
X181873890Y-64118075D01*
X181788000Y-64549872D01*
X177527159Y-64549872D01*
X177508934Y-64527666D01*
X177282814Y-64342094D01*
X177228009Y-64312800D01*
X177282814Y-64283506D01*
X177508934Y-64097934D01*
X177694506Y-63871814D01*
X177832399Y-63613834D01*
X177917313Y-63333911D01*
X177945985Y-63042800D01*
X177917313Y-62751689D01*
X177832399Y-62471766D01*
X177694506Y-62213786D01*
X177508934Y-61987666D01*
X177282814Y-61802094D01*
X177228009Y-61772800D01*
X177282814Y-61743506D01*
X177508934Y-61557934D01*
X177694506Y-61331814D01*
X177832399Y-61073834D01*
X177917313Y-60793911D01*
X177945985Y-60502800D01*
X177917313Y-60211689D01*
X177832399Y-59931766D01*
X177694506Y-59673786D01*
X177508934Y-59447666D01*
X177282814Y-59262094D01*
X177228009Y-59232800D01*
X177282814Y-59203506D01*
X177508934Y-59017934D01*
X177694506Y-58791814D01*
X177832399Y-58533834D01*
X177917313Y-58253911D01*
X177945985Y-57962800D01*
X177917313Y-57671689D01*
X177832399Y-57391766D01*
X177694506Y-57133786D01*
X177508934Y-56907666D01*
X177339970Y-56769000D01*
X180130630Y-56769000D01*
X180152062Y-56986598D01*
X180215532Y-57195834D01*
X180318604Y-57388666D01*
X180457314Y-57557686D01*
X180626334Y-57696396D01*
X180819166Y-57799468D01*
X181028402Y-57862938D01*
X181191479Y-57879000D01*
X181600521Y-57879000D01*
X181763598Y-57862938D01*
X181972834Y-57799468D01*
X182165666Y-57696396D01*
X182334686Y-57557686D01*
X182473396Y-57388666D01*
X182576468Y-57195834D01*
X182639938Y-56986598D01*
X182661370Y-56769000D01*
X185130630Y-56769000D01*
X185152062Y-56986598D01*
X185215532Y-57195834D01*
X185318604Y-57388666D01*
X185457314Y-57557686D01*
X185626334Y-57696396D01*
X185819166Y-57799468D01*
X186028402Y-57862938D01*
X186191479Y-57879000D01*
X186600521Y-57879000D01*
X186763598Y-57862938D01*
X186972834Y-57799468D01*
X187165666Y-57696396D01*
X187334686Y-57557686D01*
X187473396Y-57388666D01*
X187576468Y-57195834D01*
X187639938Y-56986598D01*
X187661370Y-56769000D01*
X187639938Y-56551402D01*
X187576468Y-56342166D01*
X187473396Y-56149334D01*
X187334686Y-55980314D01*
X187165666Y-55841604D01*
X186972834Y-55738532D01*
X186763598Y-55675062D01*
X186600521Y-55659000D01*
X186191479Y-55659000D01*
X186028402Y-55675062D01*
X185819166Y-55738532D01*
X185626334Y-55841604D01*
X185457314Y-55980314D01*
X185318604Y-56149334D01*
X185215532Y-56342166D01*
X185152062Y-56551402D01*
X185130630Y-56769000D01*
X182661370Y-56769000D01*
X182639938Y-56551402D01*
X182576468Y-56342166D01*
X182473396Y-56149334D01*
X182334686Y-55980314D01*
X182165666Y-55841604D01*
X181972834Y-55738532D01*
X181763598Y-55675062D01*
X181600521Y-55659000D01*
X181191479Y-55659000D01*
X181028402Y-55675062D01*
X180819166Y-55738532D01*
X180626334Y-55841604D01*
X180457314Y-55980314D01*
X180318604Y-56149334D01*
X180215532Y-56342166D01*
X180152062Y-56551402D01*
X180130630Y-56769000D01*
X177339970Y-56769000D01*
X177282814Y-56722094D01*
X177228009Y-56692800D01*
X177282814Y-56663506D01*
X177508934Y-56477934D01*
X177694506Y-56251814D01*
X177832399Y-55993834D01*
X177917313Y-55713911D01*
X177945985Y-55422800D01*
X177917313Y-55131689D01*
X177832399Y-54851766D01*
X177694506Y-54593786D01*
X177508934Y-54367666D01*
X177479113Y-54343193D01*
X177547980Y-54322302D01*
X177658294Y-54263337D01*
X177754985Y-54183985D01*
X177834337Y-54087294D01*
X177893302Y-53976980D01*
X177929612Y-53857282D01*
X177941335Y-53738248D01*
X179261000Y-53738248D01*
X179261000Y-54399751D01*
X179277423Y-54566498D01*
X179342324Y-54780446D01*
X179447716Y-54977623D01*
X179589551Y-55150449D01*
X179762377Y-55292284D01*
X179959553Y-55397676D01*
X180173501Y-55462577D01*
X180396000Y-55484491D01*
X180618498Y-55462577D01*
X180832446Y-55397676D01*
X181029623Y-55292284D01*
X181202449Y-55150449D01*
X181344284Y-54977623D01*
X181449676Y-54780447D01*
X181514577Y-54566499D01*
X181531000Y-54399752D01*
X181531000Y-53738249D01*
X181514577Y-53571502D01*
X181449676Y-53357554D01*
X181344284Y-53160377D01*
X181202449Y-52987551D01*
X181029623Y-52845716D01*
X180832447Y-52740324D01*
X180618499Y-52675423D01*
X180396000Y-52653509D01*
X180173502Y-52675423D01*
X179959554Y-52740324D01*
X179762378Y-52845716D01*
X179589552Y-52987551D01*
X179447717Y-53160377D01*
X179342324Y-53357553D01*
X179277423Y-53571501D01*
X179261000Y-53738248D01*
X177941335Y-53738248D01*
X177941872Y-53732800D01*
X177941872Y-52032800D01*
X177929612Y-51908318D01*
X177893302Y-51788620D01*
X177834337Y-51678306D01*
X177754985Y-51581615D01*
X177658294Y-51502263D01*
X177547980Y-51443298D01*
X177428282Y-51406988D01*
X177303800Y-51394728D01*
X175603800Y-51394728D01*
X175479318Y-51406988D01*
X175359620Y-51443298D01*
X175249306Y-51502263D01*
X175152615Y-51581615D01*
X175073263Y-51678306D01*
X175014298Y-51788620D01*
X174977988Y-51908318D01*
X174965728Y-52032800D01*
X174965728Y-53732800D01*
X174977988Y-53857282D01*
X175014298Y-53976980D01*
X175073263Y-54087294D01*
X175152615Y-54183985D01*
X175249306Y-54263337D01*
X175359620Y-54322302D01*
X175428487Y-54343193D01*
X175398666Y-54367666D01*
X175213094Y-54593786D01*
X175075201Y-54851766D01*
X174990287Y-55131689D01*
X174961615Y-55422800D01*
X174990287Y-55713911D01*
X175075201Y-55993834D01*
X175213094Y-56251814D01*
X175398666Y-56477934D01*
X175624786Y-56663506D01*
X175679591Y-56692800D01*
X175624786Y-56722094D01*
X175398666Y-56907666D01*
X175213094Y-57133786D01*
X175075201Y-57391766D01*
X174990287Y-57671689D01*
X174961615Y-57962800D01*
X174990287Y-58253911D01*
X175075201Y-58533834D01*
X175213094Y-58791814D01*
X175398666Y-59017934D01*
X175624786Y-59203506D01*
X175679591Y-59232800D01*
X175624786Y-59262094D01*
X175398666Y-59447666D01*
X175213094Y-59673786D01*
X175075201Y-59931766D01*
X174990287Y-60211689D01*
X174961615Y-60502800D01*
X174990287Y-60793911D01*
X175075201Y-61073834D01*
X175213094Y-61331814D01*
X175398666Y-61557934D01*
X175624786Y-61743506D01*
X175679591Y-61772800D01*
X175624786Y-61802094D01*
X175398666Y-61987666D01*
X175213094Y-62213786D01*
X175075201Y-62471766D01*
X174990287Y-62751689D01*
X174961615Y-63042800D01*
X174990287Y-63333911D01*
X175075201Y-63613834D01*
X175213094Y-63871814D01*
X175398666Y-64097934D01*
X175624786Y-64283506D01*
X175679591Y-64312800D01*
X175624786Y-64342094D01*
X175398666Y-64527666D01*
X175213094Y-64753786D01*
X175075201Y-65011766D01*
X174990287Y-65291689D01*
X174961615Y-65582800D01*
X174990287Y-65873911D01*
X175075201Y-66153834D01*
X175213094Y-66411814D01*
X175398666Y-66637934D01*
X175624786Y-66823506D01*
X175679591Y-66852800D01*
X175624786Y-66882094D01*
X175398666Y-67067666D01*
X175213094Y-67293786D01*
X175075201Y-67551766D01*
X174990287Y-67831689D01*
X174961615Y-68122800D01*
X174990287Y-68413911D01*
X175075201Y-68693834D01*
X175213094Y-68951814D01*
X175398666Y-69177934D01*
X175624786Y-69363506D01*
X175679591Y-69392800D01*
X175624786Y-69422094D01*
X175398666Y-69607666D01*
X175213094Y-69833786D01*
X175075201Y-70091766D01*
X174990287Y-70371689D01*
X174961615Y-70662800D01*
X174990287Y-70953911D01*
X175075201Y-71233834D01*
X175213094Y-71491814D01*
X175398666Y-71717934D01*
X175624786Y-71903506D01*
X175679591Y-71932800D01*
X175624786Y-71962094D01*
X175398666Y-72147666D01*
X175213094Y-72373786D01*
X175075201Y-72631766D01*
X174990287Y-72911689D01*
X174961615Y-73202800D01*
X174990287Y-73493911D01*
X175075201Y-73773834D01*
X175213094Y-74031814D01*
X175398666Y-74257934D01*
X175624786Y-74443506D01*
X175679591Y-74472800D01*
X175624786Y-74502094D01*
X175398666Y-74687666D01*
X175213094Y-74913786D01*
X175075201Y-75171766D01*
X174990287Y-75451689D01*
X174961615Y-75742800D01*
X174990287Y-76033911D01*
X175075201Y-76313834D01*
X175213094Y-76571814D01*
X175398666Y-76797934D01*
X175624786Y-76983506D01*
X175679591Y-77012800D01*
X175624786Y-77042094D01*
X175398666Y-77227666D01*
X175213094Y-77453786D01*
X175075201Y-77711766D01*
X174990287Y-77991689D01*
X174961615Y-78282800D01*
X174990287Y-78573911D01*
X175075201Y-78853834D01*
X175195092Y-79078134D01*
X173307966Y-80965260D01*
X173276459Y-80991117D01*
X173207214Y-81075493D01*
X173173301Y-81116816D01*
X173160784Y-81140234D01*
X173096647Y-81260225D01*
X173049444Y-81415833D01*
X173040341Y-81508260D01*
X173033506Y-81577658D01*
X173037500Y-81618209D01*
X173037501Y-87329994D01*
X169244996Y-91122500D01*
X164584503Y-91122500D01*
X164447256Y-91030795D01*
X164258898Y-90952774D01*
X164058939Y-90913000D01*
X163855061Y-90913000D01*
X163655102Y-90952774D01*
X163466744Y-91030795D01*
X163297226Y-91144063D01*
X163153063Y-91288226D01*
X163039795Y-91457744D01*
X162986014Y-91587582D01*
X162676195Y-91277763D01*
X162676190Y-91277757D01*
X162676156Y-91277723D01*
X162677313Y-91273911D01*
X162705985Y-90982800D01*
X162677313Y-90691689D01*
X162592399Y-90411766D01*
X162454506Y-90153786D01*
X162268934Y-89927666D01*
X162042814Y-89742094D01*
X161988009Y-89712800D01*
X162042814Y-89683506D01*
X162268934Y-89497934D01*
X162454506Y-89271814D01*
X162592399Y-89013834D01*
X162677313Y-88733911D01*
X162705985Y-88442800D01*
X162677313Y-88151689D01*
X162592399Y-87871766D01*
X162454506Y-87613786D01*
X162268934Y-87387666D01*
X162042814Y-87202094D01*
X161978277Y-87167599D01*
X162095155Y-87097978D01*
X162311388Y-86903069D01*
X162485441Y-86669720D01*
X162610625Y-86406899D01*
X162655276Y-86259690D01*
X162533955Y-86029800D01*
X161340800Y-86029800D01*
X161340800Y-86049800D01*
X161086800Y-86049800D01*
X161086800Y-86029800D01*
X159893645Y-86029800D01*
X159772324Y-86259690D01*
X159816975Y-86406899D01*
X159942159Y-86669720D01*
X160116212Y-86903069D01*
X160332445Y-87097978D01*
X160449323Y-87167599D01*
X160384786Y-87202094D01*
X160158666Y-87387666D01*
X159973094Y-87613786D01*
X159835201Y-87871766D01*
X159750287Y-88151689D01*
X159721615Y-88442800D01*
X159750287Y-88733911D01*
X159835201Y-89013834D01*
X159973094Y-89271814D01*
X160158666Y-89497934D01*
X160384786Y-89683506D01*
X160439591Y-89712800D01*
X160384786Y-89742094D01*
X160158666Y-89927666D01*
X159973094Y-90153786D01*
X159835201Y-90411766D01*
X159750287Y-90691689D01*
X159721615Y-90982800D01*
X159750287Y-91273911D01*
X159835201Y-91553834D01*
X159973094Y-91811814D01*
X160158666Y-92037934D01*
X160188487Y-92062407D01*
X160119620Y-92083298D01*
X160009306Y-92142263D01*
X159912615Y-92221615D01*
X159833263Y-92318306D01*
X159774298Y-92428620D01*
X159737988Y-92548318D01*
X159725728Y-92672800D01*
X159725728Y-94372800D01*
X159737988Y-94497282D01*
X159774298Y-94616980D01*
X159833263Y-94727294D01*
X159912615Y-94823985D01*
X160009306Y-94903337D01*
X160119620Y-94962302D01*
X160239318Y-94998612D01*
X160363800Y-95010872D01*
X160429137Y-95010872D01*
X160447447Y-95071233D01*
X160524101Y-95214642D01*
X160558014Y-95255965D01*
X160627259Y-95340341D01*
X160658766Y-95366198D01*
X163195461Y-97902893D01*
X163020102Y-97937774D01*
X162831744Y-98015795D01*
X162662226Y-98129063D01*
X162518063Y-98273226D01*
X162404795Y-98442744D01*
X162326774Y-98631102D01*
X162287000Y-98831061D01*
X162287000Y-98927567D01*
X158863996Y-102350571D01*
X158702102Y-102382774D01*
X158513744Y-102460795D01*
X158344226Y-102574063D01*
X158200063Y-102718226D01*
X158086795Y-102887744D01*
X158070212Y-102927779D01*
X155679398Y-100536966D01*
X155653541Y-100505459D01*
X155527842Y-100402301D01*
X155384434Y-100325647D01*
X155228826Y-100278444D01*
X155107553Y-100266500D01*
X155107550Y-100266500D01*
X155067000Y-100262506D01*
X155026450Y-100266500D01*
X149058934Y-100266500D01*
X140070156Y-91277724D01*
X140071313Y-91273911D01*
X140099985Y-90982800D01*
X140071313Y-90691689D01*
X139986399Y-90411766D01*
X139848506Y-90153786D01*
X139662934Y-89927666D01*
X139436814Y-89742094D01*
X139382009Y-89712800D01*
X139436814Y-89683506D01*
X139662934Y-89497934D01*
X139848506Y-89271814D01*
X139941244Y-89098313D01*
X139982900Y-89132499D01*
X140126308Y-89209153D01*
X140281916Y-89256356D01*
X140403189Y-89268300D01*
X140403198Y-89268300D01*
X140443741Y-89272293D01*
X140484284Y-89268300D01*
X152579816Y-89268300D01*
X152581694Y-89271814D01*
X152767266Y-89497934D01*
X152993386Y-89683506D01*
X153048191Y-89712800D01*
X152993386Y-89742094D01*
X152767266Y-89927666D01*
X152581694Y-90153786D01*
X152443801Y-90411766D01*
X152358887Y-90691689D01*
X152330215Y-90982800D01*
X152358887Y-91273911D01*
X152443801Y-91553834D01*
X152581694Y-91811814D01*
X152767266Y-92037934D01*
X152993386Y-92223506D01*
X153048191Y-92252800D01*
X152993386Y-92282094D01*
X152767266Y-92467666D01*
X152581694Y-92693786D01*
X152443801Y-92951766D01*
X152358887Y-93231689D01*
X152330215Y-93522800D01*
X152358887Y-93813911D01*
X152443801Y-94093834D01*
X152581694Y-94351814D01*
X152767266Y-94577934D01*
X152993386Y-94763506D01*
X153251366Y-94901399D01*
X153531289Y-94986313D01*
X153749450Y-95007800D01*
X153895350Y-95007800D01*
X154113511Y-94986313D01*
X154393434Y-94901399D01*
X154651414Y-94763506D01*
X154877534Y-94577934D01*
X155063106Y-94351814D01*
X155200999Y-94093834D01*
X155285913Y-93813911D01*
X155314585Y-93522800D01*
X155285913Y-93231689D01*
X155200999Y-92951766D01*
X155063106Y-92693786D01*
X154877534Y-92467666D01*
X154651414Y-92282094D01*
X154596609Y-92252800D01*
X154651414Y-92223506D01*
X154877534Y-92037934D01*
X155063106Y-91811814D01*
X155200999Y-91553834D01*
X155285913Y-91273911D01*
X155314585Y-90982800D01*
X155285913Y-90691689D01*
X155200999Y-90411766D01*
X155063106Y-90153786D01*
X154877534Y-89927666D01*
X154651414Y-89742094D01*
X154596609Y-89712800D01*
X154651414Y-89683506D01*
X154877534Y-89497934D01*
X155063106Y-89271814D01*
X155200999Y-89013834D01*
X155285913Y-88733911D01*
X155314585Y-88442800D01*
X155285913Y-88151689D01*
X155200999Y-87871766D01*
X155063106Y-87613786D01*
X154877534Y-87387666D01*
X154651414Y-87202094D01*
X154596609Y-87172800D01*
X154651414Y-87143506D01*
X154877534Y-86957934D01*
X155063106Y-86731814D01*
X155200999Y-86473834D01*
X155285913Y-86193911D01*
X155314585Y-85902800D01*
X155285913Y-85611689D01*
X155200999Y-85331766D01*
X155063106Y-85073786D01*
X154877534Y-84847666D01*
X154651414Y-84662094D01*
X154596609Y-84632800D01*
X154651414Y-84603506D01*
X154877534Y-84417934D01*
X155063106Y-84191814D01*
X155200999Y-83933834D01*
X155285913Y-83653911D01*
X155314585Y-83362800D01*
X155285913Y-83071689D01*
X155200999Y-82791766D01*
X155063106Y-82533786D01*
X154877534Y-82307666D01*
X154651414Y-82122094D01*
X154596609Y-82092800D01*
X154651414Y-82063506D01*
X154877534Y-81877934D01*
X155063106Y-81651814D01*
X155200999Y-81393834D01*
X155285913Y-81113911D01*
X155314585Y-80822800D01*
X155285913Y-80531689D01*
X155200999Y-80251766D01*
X155063106Y-79993786D01*
X154877534Y-79767666D01*
X154651414Y-79582094D01*
X154596609Y-79552800D01*
X154651414Y-79523506D01*
X154877534Y-79337934D01*
X155063106Y-79111814D01*
X155200999Y-78853834D01*
X155285913Y-78573911D01*
X155314585Y-78282800D01*
X155285913Y-77991689D01*
X155200999Y-77711766D01*
X155063106Y-77453786D01*
X154877534Y-77227666D01*
X154651414Y-77042094D01*
X154596609Y-77012800D01*
X154651414Y-76983506D01*
X154877534Y-76797934D01*
X155063106Y-76571814D01*
X155200999Y-76313834D01*
X155285913Y-76033911D01*
X155314585Y-75742800D01*
X155285913Y-75451689D01*
X155200999Y-75171766D01*
X155081108Y-74947466D01*
X156000275Y-74028300D01*
X159971216Y-74028300D01*
X159973094Y-74031814D01*
X160158666Y-74257934D01*
X160384786Y-74443506D01*
X160439591Y-74472800D01*
X160384786Y-74502094D01*
X160158666Y-74687666D01*
X159973094Y-74913786D01*
X159835201Y-75171766D01*
X159750287Y-75451689D01*
X159721615Y-75742800D01*
X159750287Y-76033911D01*
X159835201Y-76313834D01*
X159973094Y-76571814D01*
X160158666Y-76797934D01*
X160384786Y-76983506D01*
X160439591Y-77012800D01*
X160384786Y-77042094D01*
X160158666Y-77227666D01*
X159973094Y-77453786D01*
X159835201Y-77711766D01*
X159750287Y-77991689D01*
X159721615Y-78282800D01*
X159750287Y-78573911D01*
X159835201Y-78853834D01*
X159973094Y-79111814D01*
X160158666Y-79337934D01*
X160384786Y-79523506D01*
X160439591Y-79552800D01*
X160384786Y-79582094D01*
X160158666Y-79767666D01*
X159973094Y-79993786D01*
X159835201Y-80251766D01*
X159750287Y-80531689D01*
X159721615Y-80822800D01*
X159750287Y-81113911D01*
X159751444Y-81117724D01*
X156289966Y-84579202D01*
X156258459Y-84605059D01*
X156189214Y-84689435D01*
X156155301Y-84730758D01*
X156104226Y-84826313D01*
X156078647Y-84874167D01*
X156031444Y-85029775D01*
X156025587Y-85089245D01*
X156015506Y-85191600D01*
X156019500Y-85232150D01*
X156019501Y-99575496D01*
X155927795Y-99712744D01*
X155849774Y-99901102D01*
X155810000Y-100101061D01*
X155810000Y-100304939D01*
X155849774Y-100504898D01*
X155927795Y-100693256D01*
X156041063Y-100862774D01*
X156185226Y-101006937D01*
X156354744Y-101120205D01*
X156543102Y-101198226D01*
X156743061Y-101238000D01*
X156946939Y-101238000D01*
X157146898Y-101198226D01*
X157335256Y-101120205D01*
X157504774Y-101006937D01*
X157648937Y-100862774D01*
X157762205Y-100693256D01*
X157840226Y-100504898D01*
X157880000Y-100304939D01*
X157880000Y-100101061D01*
X157840226Y-99901102D01*
X157762205Y-99712744D01*
X157670500Y-99575497D01*
X157670500Y-85533532D01*
X159732340Y-83471693D01*
X159750287Y-83653911D01*
X159835201Y-83933834D01*
X159973094Y-84191814D01*
X160158666Y-84417934D01*
X160384786Y-84603506D01*
X160449323Y-84638001D01*
X160332445Y-84707622D01*
X160116212Y-84902531D01*
X159942159Y-85135880D01*
X159816975Y-85398701D01*
X159772324Y-85545910D01*
X159893645Y-85775800D01*
X161086800Y-85775800D01*
X161086800Y-85755800D01*
X161340800Y-85755800D01*
X161340800Y-85775800D01*
X162533955Y-85775800D01*
X162655276Y-85545910D01*
X162610625Y-85398701D01*
X162485441Y-85135880D01*
X162311388Y-84902531D01*
X162095155Y-84707622D01*
X161978277Y-84638001D01*
X162042814Y-84603506D01*
X162268934Y-84417934D01*
X162454506Y-84191814D01*
X162592399Y-83933834D01*
X162677313Y-83653911D01*
X162705985Y-83362800D01*
X162677313Y-83071689D01*
X162592399Y-82791766D01*
X162454506Y-82533786D01*
X162268934Y-82307666D01*
X162042814Y-82122094D01*
X161988009Y-82092800D01*
X162042814Y-82063506D01*
X162268934Y-81877934D01*
X162454506Y-81651814D01*
X162592399Y-81393834D01*
X162677313Y-81113911D01*
X162705985Y-80822800D01*
X162677313Y-80531689D01*
X162592399Y-80251766D01*
X162454506Y-79993786D01*
X162268934Y-79767666D01*
X162042814Y-79582094D01*
X161988009Y-79552800D01*
X162042814Y-79523506D01*
X162268934Y-79337934D01*
X162454506Y-79111814D01*
X162592399Y-78853834D01*
X162677313Y-78573911D01*
X162705985Y-78282800D01*
X162677313Y-77991689D01*
X162592399Y-77711766D01*
X162454506Y-77453786D01*
X162268934Y-77227666D01*
X162042814Y-77042094D01*
X161988009Y-77012800D01*
X162042814Y-76983506D01*
X162268934Y-76797934D01*
X162454506Y-76571814D01*
X162592399Y-76313834D01*
X162677313Y-76033911D01*
X162705985Y-75742800D01*
X162677313Y-75451689D01*
X162592399Y-75171766D01*
X162454506Y-74913786D01*
X162268934Y-74687666D01*
X162042814Y-74502094D01*
X161988009Y-74472800D01*
X162042814Y-74443506D01*
X162268934Y-74257934D01*
X162454506Y-74031814D01*
X162592399Y-73773834D01*
X162677313Y-73493911D01*
X162705985Y-73202800D01*
X162677313Y-72911689D01*
X162592399Y-72631766D01*
X162454506Y-72373786D01*
X162268934Y-72147666D01*
X162042814Y-71962094D01*
X161988009Y-71932800D01*
X162042814Y-71903506D01*
X162268934Y-71717934D01*
X162454506Y-71491814D01*
X162592399Y-71233834D01*
X162677313Y-70953911D01*
X162705985Y-70662800D01*
X162677313Y-70371689D01*
X162592399Y-70091766D01*
X162454506Y-69833786D01*
X162268934Y-69607666D01*
X162042814Y-69422094D01*
X161988009Y-69392800D01*
X162042814Y-69363506D01*
X162268934Y-69177934D01*
X162454506Y-68951814D01*
X162592399Y-68693834D01*
X162677313Y-68413911D01*
X162705985Y-68122800D01*
X162677313Y-67831689D01*
X162592399Y-67551766D01*
X162454506Y-67293786D01*
X162268934Y-67067666D01*
X162042814Y-66882094D01*
X161988009Y-66852800D01*
X162042814Y-66823506D01*
X162268934Y-66637934D01*
X162454506Y-66411814D01*
X162592399Y-66153834D01*
X162677313Y-65873911D01*
X162705985Y-65582800D01*
X162677313Y-65291689D01*
X162592399Y-65011766D01*
X162454506Y-64753786D01*
X162268934Y-64527666D01*
X162042814Y-64342094D01*
X161988009Y-64312800D01*
X162042814Y-64283506D01*
X162268934Y-64097934D01*
X162454506Y-63871814D01*
X162592399Y-63613834D01*
X162677313Y-63333911D01*
X162705985Y-63042800D01*
X162677313Y-62751689D01*
X162592399Y-62471766D01*
X162454506Y-62213786D01*
X162268934Y-61987666D01*
X162042814Y-61802094D01*
X161988009Y-61772800D01*
X162042814Y-61743506D01*
X162268934Y-61557934D01*
X162454506Y-61331814D01*
X162592399Y-61073834D01*
X162677313Y-60793911D01*
X162705985Y-60502800D01*
X162677313Y-60211689D01*
X162592399Y-59931766D01*
X162454506Y-59673786D01*
X162268934Y-59447666D01*
X162042814Y-59262094D01*
X161988009Y-59232800D01*
X162042814Y-59203506D01*
X162268934Y-59017934D01*
X162454506Y-58791814D01*
X162592399Y-58533834D01*
X162677313Y-58253911D01*
X162705985Y-57962800D01*
X162677313Y-57671689D01*
X162592399Y-57391766D01*
X162454506Y-57133786D01*
X162268934Y-56907666D01*
X162042814Y-56722094D01*
X161988009Y-56692800D01*
X162042814Y-56663506D01*
X162268934Y-56477934D01*
X162454506Y-56251814D01*
X162592399Y-55993834D01*
X162677313Y-55713911D01*
X162705985Y-55422800D01*
X162677313Y-55131689D01*
X162592399Y-54851766D01*
X162454506Y-54593786D01*
X162268934Y-54367666D01*
X162042814Y-54182094D01*
X161988009Y-54152800D01*
X162042814Y-54123506D01*
X162268934Y-53937934D01*
X162454506Y-53711814D01*
X162592399Y-53453834D01*
X162677313Y-53173911D01*
X162705985Y-52882800D01*
X162677313Y-52591689D01*
X162592399Y-52311766D01*
X162454506Y-52053786D01*
X162268934Y-51827666D01*
X162042814Y-51642094D01*
X161784834Y-51504201D01*
X161504911Y-51419287D01*
X161286750Y-51397800D01*
X161140850Y-51397800D01*
X160922689Y-51419287D01*
X160642766Y-51504201D01*
X160384786Y-51642094D01*
X160158666Y-51827666D01*
X159973094Y-52053786D01*
X159835201Y-52311766D01*
X159750287Y-52591689D01*
X159721615Y-52882800D01*
X159750287Y-53173911D01*
X159835201Y-53453834D01*
X159973094Y-53711814D01*
X160158666Y-53937934D01*
X160384786Y-54123506D01*
X160439591Y-54152800D01*
X160384786Y-54182094D01*
X160158666Y-54367666D01*
X159973094Y-54593786D01*
X159835201Y-54851766D01*
X159750287Y-55131689D01*
X159721615Y-55422800D01*
X159750287Y-55713911D01*
X159835201Y-55993834D01*
X159973094Y-56251814D01*
X160158666Y-56477934D01*
X160384786Y-56663506D01*
X160439591Y-56692800D01*
X160384786Y-56722094D01*
X160158666Y-56907666D01*
X159973094Y-57133786D01*
X159835201Y-57391766D01*
X159750287Y-57671689D01*
X159721615Y-57962800D01*
X159750287Y-58253911D01*
X159835201Y-58533834D01*
X159973094Y-58791814D01*
X160158666Y-59017934D01*
X160384786Y-59203506D01*
X160439591Y-59232800D01*
X160384786Y-59262094D01*
X160158666Y-59447666D01*
X159973094Y-59673786D01*
X159912000Y-59788085D01*
X159912000Y-59715061D01*
X159872226Y-59515102D01*
X159794205Y-59326744D01*
X159702500Y-59189497D01*
X159702500Y-55575048D01*
X159706494Y-55534498D01*
X159701569Y-55484491D01*
X159690556Y-55372672D01*
X159643353Y-55217064D01*
X159597719Y-55131689D01*
X159566699Y-55073655D01*
X159489392Y-54979456D01*
X159489389Y-54979453D01*
X159463541Y-54947957D01*
X159432046Y-54922110D01*
X155461934Y-50952000D01*
X188443001Y-50952000D01*
X188443001Y-53345066D01*
G36*
X138902724Y-51420444D02*
G01*
X138898911Y-51419287D01*
X138680750Y-51397800D01*
X138534850Y-51397800D01*
X138316689Y-51419287D01*
X138036766Y-51504201D01*
X137778786Y-51642094D01*
X137552666Y-51827666D01*
X137367094Y-52053786D01*
X137229201Y-52311766D01*
X137144287Y-52591689D01*
X137115615Y-52882800D01*
X137144287Y-53173911D01*
X137229201Y-53453834D01*
X137367094Y-53711814D01*
X137552666Y-53937934D01*
X137778786Y-54123506D01*
X137833591Y-54152800D01*
X137778786Y-54182094D01*
X137552666Y-54367666D01*
X137367094Y-54593786D01*
X137229201Y-54851766D01*
X137144287Y-55131689D01*
X137115615Y-55422800D01*
X137144287Y-55713911D01*
X137229201Y-55993834D01*
X137367094Y-56251814D01*
X137552666Y-56477934D01*
X137778786Y-56663506D01*
X137833591Y-56692800D01*
X137778786Y-56722094D01*
X137552666Y-56907666D01*
X137367094Y-57133786D01*
X137229201Y-57391766D01*
X137144287Y-57671689D01*
X137115615Y-57962800D01*
X137144287Y-58253911D01*
X137229201Y-58533834D01*
X137367094Y-58791814D01*
X137552666Y-59017934D01*
X137778786Y-59203506D01*
X137833591Y-59232800D01*
X137778786Y-59262094D01*
X137552666Y-59447666D01*
X137367094Y-59673786D01*
X137365216Y-59677300D01*
X131833307Y-59677300D01*
X131873898Y-59669226D01*
X132062256Y-59591205D01*
X132231774Y-59477937D01*
X132375937Y-59333774D01*
X132489205Y-59164256D01*
X132495741Y-59148477D01*
X132546063Y-59223789D01*
X132690226Y-59367952D01*
X132859744Y-59481220D01*
X133048102Y-59559241D01*
X133248061Y-59599015D01*
X133451939Y-59599015D01*
X133651898Y-59559241D01*
X133840256Y-59481220D01*
X134009774Y-59367952D01*
X134153937Y-59223789D01*
X134267205Y-59054271D01*
X134345226Y-58865913D01*
X134385000Y-58665954D01*
X134385000Y-58462076D01*
X134345226Y-58262117D01*
X134267205Y-58073759D01*
X134153937Y-57904241D01*
X134009774Y-57760078D01*
X133950820Y-57720686D01*
X133994686Y-57684686D01*
X134133396Y-57515666D01*
X134236468Y-57322834D01*
X134299938Y-57113598D01*
X134321370Y-56896000D01*
X134299938Y-56678402D01*
X134236468Y-56469166D01*
X134133396Y-56276334D01*
X133994686Y-56107314D01*
X133825666Y-55968604D01*
X133632834Y-55865532D01*
X133423598Y-55802062D01*
X133260521Y-55786000D01*
X132851479Y-55786000D01*
X132688402Y-55802062D01*
X132479166Y-55865532D01*
X132286334Y-55968604D01*
X132117314Y-56107314D01*
X131978604Y-56276334D01*
X131875532Y-56469166D01*
X131812062Y-56678402D01*
X131790630Y-56896000D01*
X131812062Y-57113598D01*
X131875532Y-57322834D01*
X131978604Y-57515666D01*
X132117314Y-57684686D01*
X132286334Y-57823396D01*
X132479166Y-57926468D01*
X132522440Y-57939595D01*
X132432795Y-58073759D01*
X132426259Y-58089538D01*
X132375937Y-58014226D01*
X132231774Y-57870063D01*
X132062256Y-57756795D01*
X131873898Y-57678774D01*
X131673939Y-57639000D01*
X131470061Y-57639000D01*
X131270102Y-57678774D01*
X131081744Y-57756795D01*
X130912226Y-57870063D01*
X130768063Y-58014226D01*
X130654795Y-58183744D01*
X130617409Y-58274000D01*
X130454061Y-58274000D01*
X130254102Y-58313774D01*
X130065744Y-58391795D01*
X129896226Y-58505063D01*
X129752063Y-58649226D01*
X129638795Y-58818744D01*
X129560774Y-59007102D01*
X129521000Y-59207061D01*
X129521000Y-59410939D01*
X129560774Y-59610898D01*
X129588279Y-59677300D01*
X128325914Y-59677300D01*
X128379256Y-59655205D01*
X128548774Y-59541937D01*
X128692937Y-59397774D01*
X128806205Y-59228256D01*
X128884226Y-59039898D01*
X128924000Y-58839939D01*
X128924000Y-58636061D01*
X128884226Y-58436102D01*
X128806205Y-58247744D01*
X128692937Y-58078226D01*
X128562511Y-57947800D01*
X128632834Y-57926468D01*
X128825666Y-57823396D01*
X128994686Y-57684686D01*
X129133396Y-57515666D01*
X129236468Y-57322834D01*
X129299938Y-57113598D01*
X129321370Y-56896000D01*
X129299938Y-56678402D01*
X129236468Y-56469166D01*
X129133396Y-56276334D01*
X128994686Y-56107314D01*
X128825666Y-55968604D01*
X128632834Y-55865532D01*
X128423598Y-55802062D01*
X128260521Y-55786000D01*
X127851479Y-55786000D01*
X127688402Y-55802062D01*
X127479166Y-55865532D01*
X127286334Y-55968604D01*
X127117314Y-56107314D01*
X126978604Y-56276334D01*
X126875532Y-56469166D01*
X126812062Y-56678402D01*
X126790630Y-56896000D01*
X126812062Y-57113598D01*
X126875532Y-57322834D01*
X126978604Y-57515666D01*
X127117314Y-57684686D01*
X127286334Y-57823396D01*
X127346623Y-57855621D01*
X127229226Y-57934063D01*
X127085063Y-58078226D01*
X126971795Y-58247744D01*
X126893774Y-58436102D01*
X126854000Y-58636061D01*
X126854000Y-58839939D01*
X126893774Y-59039898D01*
X126971795Y-59228256D01*
X127085063Y-59397774D01*
X127229226Y-59541937D01*
X127398744Y-59655205D01*
X127452086Y-59677300D01*
X126310921Y-59677300D01*
X126026669Y-59487369D01*
X125619925Y-59318890D01*
X125188128Y-59233000D01*
X124747872Y-59233000D01*
X124316075Y-59318890D01*
X123909331Y-59487369D01*
X123625079Y-59677300D01*
X120035733Y-59677300D01*
X118910882Y-58552450D01*
X118958000Y-58315571D01*
X118958000Y-57998429D01*
X118896129Y-57687380D01*
X118774763Y-57394379D01*
X118598569Y-57130685D01*
X118374315Y-56906431D01*
X118110621Y-56730237D01*
X117817620Y-56608871D01*
X117506571Y-56547000D01*
X117189429Y-56547000D01*
X116878380Y-56608871D01*
X116585379Y-56730237D01*
X116321685Y-56906431D01*
X116097431Y-57130685D01*
X115921237Y-57394379D01*
X115799871Y-57687380D01*
X115738000Y-57998429D01*
X115738000Y-58315571D01*
X115799871Y-58626620D01*
X115921237Y-58919621D01*
X116097431Y-59183315D01*
X116321685Y-59407569D01*
X116585379Y-59583763D01*
X116878380Y-59705129D01*
X117189429Y-59767000D01*
X117506571Y-59767000D01*
X117743450Y-59719882D01*
X119148614Y-61125047D01*
X119174460Y-61156540D01*
X119205953Y-61182386D01*
X119205958Y-61182391D01*
X119284921Y-61247195D01*
X119300158Y-61259699D01*
X119443567Y-61336353D01*
X119551971Y-61369236D01*
X119599173Y-61383555D01*
X119760999Y-61399494D01*
X119761000Y-61399494D01*
X119922826Y-61383555D01*
X120078433Y-61336353D01*
X120093499Y-61328300D01*
X122733000Y-61328300D01*
X122733000Y-61688128D01*
X122818890Y-62119925D01*
X122906527Y-62331500D01*
X118732749Y-62331500D01*
X118598569Y-62130685D01*
X118374315Y-61906431D01*
X118110621Y-61730237D01*
X117817620Y-61608871D01*
X117506571Y-61547000D01*
X117189429Y-61547000D01*
X116878380Y-61608871D01*
X116585379Y-61730237D01*
X116321685Y-61906431D01*
X116097431Y-62130685D01*
X115921237Y-62394379D01*
X115799871Y-62687380D01*
X115738000Y-62998429D01*
X115738000Y-63315571D01*
X115799871Y-63626620D01*
X115921237Y-63919621D01*
X116097431Y-64183315D01*
X116321685Y-64407569D01*
X116585379Y-64583763D01*
X116878380Y-64705129D01*
X117189429Y-64767000D01*
X117506571Y-64767000D01*
X117817620Y-64705129D01*
X118110621Y-64583763D01*
X118374315Y-64407569D01*
X118598569Y-64183315D01*
X118732749Y-63982500D01*
X137457932Y-63982500D01*
X137552666Y-64097934D01*
X137778786Y-64283506D01*
X137833591Y-64312800D01*
X137778786Y-64342094D01*
X137552666Y-64527666D01*
X137367094Y-64753786D01*
X137229201Y-65011766D01*
X137144287Y-65291689D01*
X137115615Y-65582800D01*
X137144287Y-65873911D01*
X137229201Y-66153834D01*
X137367094Y-66411814D01*
X137552666Y-66637934D01*
X137778786Y-66823506D01*
X137833591Y-66852800D01*
X137778786Y-66882094D01*
X137552666Y-67067666D01*
X137367094Y-67293786D01*
X137229201Y-67551766D01*
X137144287Y-67831689D01*
X137115615Y-68122800D01*
X137144287Y-68413911D01*
X137229201Y-68693834D01*
X137367094Y-68951814D01*
X137552666Y-69177934D01*
X137778786Y-69363506D01*
X137833591Y-69392800D01*
X137778786Y-69422094D01*
X137552666Y-69607666D01*
X137367094Y-69833786D01*
X137229201Y-70091766D01*
X137144287Y-70371689D01*
X137115615Y-70662800D01*
X137144287Y-70953911D01*
X137229201Y-71233834D01*
X137367094Y-71491814D01*
X137552666Y-71717934D01*
X137778786Y-71903506D01*
X137833591Y-71932800D01*
X137778786Y-71962094D01*
X137552666Y-72147666D01*
X137367094Y-72373786D01*
X137229201Y-72631766D01*
X137144287Y-72911689D01*
X137115615Y-73202800D01*
X137144287Y-73493911D01*
X137229201Y-73773834D01*
X137367094Y-74031814D01*
X137552666Y-74257934D01*
X137778786Y-74443506D01*
X137833591Y-74472800D01*
X137778786Y-74502094D01*
X137552666Y-74687666D01*
X137367094Y-74913786D01*
X137229201Y-75171766D01*
X137144287Y-75451689D01*
X137115615Y-75742800D01*
X137144287Y-76033911D01*
X137229201Y-76313834D01*
X137367094Y-76571814D01*
X137552666Y-76797934D01*
X137778786Y-76983506D01*
X137833591Y-77012800D01*
X137778786Y-77042094D01*
X137552666Y-77227666D01*
X137367094Y-77453786D01*
X137229201Y-77711766D01*
X137144287Y-77991689D01*
X137115615Y-78282800D01*
X137144287Y-78573911D01*
X137229201Y-78853834D01*
X137367094Y-79111814D01*
X137552666Y-79337934D01*
X137778786Y-79523506D01*
X137833591Y-79552800D01*
X137778786Y-79582094D01*
X137552666Y-79767666D01*
X137367094Y-79993786D01*
X137229201Y-80251766D01*
X137144287Y-80531689D01*
X137115615Y-80822800D01*
X137144287Y-81113911D01*
X137181869Y-81237801D01*
X135782241Y-81237801D01*
X135741698Y-81233808D01*
X135701155Y-81237801D01*
X135701146Y-81237801D01*
X135579873Y-81249745D01*
X135424265Y-81296948D01*
X135280857Y-81373602D01*
X135155158Y-81476760D01*
X135129307Y-81508260D01*
X129492966Y-87144602D01*
X129461459Y-87170459D01*
X129400575Y-87244647D01*
X129358301Y-87296158D01*
X129317951Y-87371647D01*
X129281647Y-87439567D01*
X129234444Y-87595175D01*
X129226885Y-87671929D01*
X129218506Y-87757000D01*
X129222500Y-87797550D01*
X129222501Y-103798066D01*
X122410465Y-110610103D01*
X122378958Y-110635960D01*
X122309713Y-110720336D01*
X122275800Y-110761659D01*
X122199147Y-110905067D01*
X122199146Y-110905068D01*
X122151943Y-111060676D01*
X122139999Y-111181948D01*
X122136005Y-111222501D01*
X122139999Y-111263052D01*
X122140000Y-117577000D01*
X108102000Y-117577000D01*
X108102000Y-112182000D01*
X115734928Y-112182000D01*
X115734928Y-114132000D01*
X115747188Y-114256482D01*
X115783498Y-114376180D01*
X115842463Y-114486494D01*
X115921815Y-114583185D01*
X116018506Y-114662537D01*
X116128820Y-114721502D01*
X116248518Y-114757812D01*
X116373000Y-114770072D01*
X118323000Y-114770072D01*
X118447482Y-114757812D01*
X118567180Y-114721502D01*
X118677494Y-114662537D01*
X118774185Y-114583185D01*
X118853537Y-114486494D01*
X118912502Y-114376180D01*
X118948812Y-114256482D01*
X118961072Y-114132000D01*
X118961072Y-112182000D01*
X118948812Y-112057518D01*
X118912502Y-111937820D01*
X118853537Y-111827506D01*
X118774185Y-111730815D01*
X118677494Y-111651463D01*
X118567180Y-111592498D01*
X118447482Y-111556188D01*
X118323000Y-111543928D01*
X116373000Y-111543928D01*
X116248518Y-111556188D01*
X116128820Y-111592498D01*
X116018506Y-111651463D01*
X115921815Y-111730815D01*
X115842463Y-111827506D01*
X115783498Y-111937820D01*
X115747188Y-112057518D01*
X115734928Y-112182000D01*
X108102000Y-112182000D01*
X108102000Y-107998429D01*
X115738000Y-107998429D01*
X115738000Y-108315571D01*
X115799871Y-108626620D01*
X115921237Y-108919621D01*
X116097431Y-109183315D01*
X116321685Y-109407569D01*
X116585379Y-109583763D01*
X116878380Y-109705129D01*
X117189429Y-109767000D01*
X117506571Y-109767000D01*
X117817620Y-109705129D01*
X118110621Y-109583763D01*
X118374315Y-109407569D01*
X118598569Y-109183315D01*
X118774763Y-108919621D01*
X118896129Y-108626620D01*
X118958000Y-108315571D01*
X118958000Y-107998429D01*
X118896129Y-107687380D01*
X118774763Y-107394379D01*
X118598569Y-107130685D01*
X118374315Y-106906431D01*
X118110621Y-106730237D01*
X117817620Y-106608871D01*
X117506571Y-106547000D01*
X117189429Y-106547000D01*
X116878380Y-106608871D01*
X116585379Y-106730237D01*
X116321685Y-106906431D01*
X116097431Y-107130685D01*
X115921237Y-107394379D01*
X115799871Y-107687380D01*
X115738000Y-107998429D01*
X108102000Y-107998429D01*
X108102000Y-102998429D01*
X115738000Y-102998429D01*
X115738000Y-103315571D01*
X115799871Y-103626620D01*
X115921237Y-103919621D01*
X116097431Y-104183315D01*
X116321685Y-104407569D01*
X116585379Y-104583763D01*
X116878380Y-104705129D01*
X117189429Y-104767000D01*
X117506571Y-104767000D01*
X117817620Y-104705129D01*
X118110621Y-104583763D01*
X118374315Y-104407569D01*
X118598569Y-104183315D01*
X118774763Y-103919621D01*
X118896129Y-103626620D01*
X118958000Y-103315571D01*
X118958000Y-102998429D01*
X118939192Y-102903872D01*
X124130000Y-102903872D01*
X124130000Y-103344128D01*
X124215890Y-103775925D01*
X124384369Y-104182669D01*
X124628962Y-104548729D01*
X124940271Y-104860038D01*
X125306331Y-105104631D01*
X125713075Y-105273110D01*
X126144872Y-105359000D01*
X126585128Y-105359000D01*
X127016925Y-105273110D01*
X127423669Y-105104631D01*
X127789729Y-104860038D01*
X128101038Y-104548729D01*
X128345631Y-104182669D01*
X128514110Y-103775925D01*
X128600000Y-103344128D01*
X128600000Y-102903872D01*
X128514110Y-102472075D01*
X128345631Y-102065331D01*
X128101038Y-101699271D01*
X127789729Y-101387962D01*
X127423669Y-101143369D01*
X127016925Y-100974890D01*
X126585128Y-100889000D01*
X126144872Y-100889000D01*
X125713075Y-100974890D01*
X125306331Y-101143369D01*
X124940271Y-101387962D01*
X124628962Y-101699271D01*
X124384369Y-102065331D01*
X124215890Y-102472075D01*
X124130000Y-102903872D01*
X118939192Y-102903872D01*
X118896129Y-102687380D01*
X118774763Y-102394379D01*
X118598569Y-102130685D01*
X118374315Y-101906431D01*
X118110621Y-101730237D01*
X117817620Y-101608871D01*
X117506571Y-101547000D01*
X117189429Y-101547000D01*
X116878380Y-101608871D01*
X116585379Y-101730237D01*
X116321685Y-101906431D01*
X116097431Y-102130685D01*
X115921237Y-102394379D01*
X115799871Y-102687380D01*
X115738000Y-102998429D01*
X108102000Y-102998429D01*
X108102000Y-97998429D01*
X115738000Y-97998429D01*
X115738000Y-98315571D01*
X115799871Y-98626620D01*
X115921237Y-98919621D01*
X116097431Y-99183315D01*
X116321685Y-99407569D01*
X116585379Y-99583763D01*
X116878380Y-99705129D01*
X117189429Y-99767000D01*
X117506571Y-99767000D01*
X117817620Y-99705129D01*
X118110621Y-99583763D01*
X118374315Y-99407569D01*
X118598569Y-99183315D01*
X118774763Y-98919621D01*
X118896129Y-98626620D01*
X118958000Y-98315571D01*
X118958000Y-97998429D01*
X118896129Y-97687380D01*
X118774763Y-97394379D01*
X118598569Y-97130685D01*
X118374315Y-96906431D01*
X118110621Y-96730237D01*
X117817620Y-96608871D01*
X117506571Y-96547000D01*
X117189429Y-96547000D01*
X116878380Y-96608871D01*
X116585379Y-96730237D01*
X116321685Y-96906431D01*
X116097431Y-97130685D01*
X115921237Y-97394379D01*
X115799871Y-97687380D01*
X115738000Y-97998429D01*
X108102000Y-97998429D01*
X108102000Y-92998429D01*
X115738000Y-92998429D01*
X115738000Y-93315571D01*
X115799871Y-93626620D01*
X115921237Y-93919621D01*
X116097431Y-94183315D01*
X116321685Y-94407569D01*
X116585379Y-94583763D01*
X116878380Y-94705129D01*
X117189429Y-94767000D01*
X117506571Y-94767000D01*
X117817620Y-94705129D01*
X118110621Y-94583763D01*
X118374315Y-94407569D01*
X118598569Y-94183315D01*
X118774763Y-93919621D01*
X118896129Y-93626620D01*
X118958000Y-93315571D01*
X118958000Y-92998429D01*
X118896129Y-92687380D01*
X118774763Y-92394379D01*
X118598569Y-92130685D01*
X118374315Y-91906431D01*
X118110621Y-91730237D01*
X117817620Y-91608871D01*
X117506571Y-91547000D01*
X117189429Y-91547000D01*
X116878380Y-91608871D01*
X116585379Y-91730237D01*
X116321685Y-91906431D01*
X116097431Y-92130685D01*
X115921237Y-92394379D01*
X115799871Y-92687380D01*
X115738000Y-92998429D01*
X108102000Y-92998429D01*
X108102000Y-87998429D01*
X115738000Y-87998429D01*
X115738000Y-88315571D01*
X115799871Y-88626620D01*
X115921237Y-88919621D01*
X116097431Y-89183315D01*
X116321685Y-89407569D01*
X116585379Y-89583763D01*
X116878380Y-89705129D01*
X117189429Y-89767000D01*
X117506571Y-89767000D01*
X117817620Y-89705129D01*
X118110621Y-89583763D01*
X118374315Y-89407569D01*
X118598569Y-89183315D01*
X118774763Y-88919621D01*
X118896129Y-88626620D01*
X118958000Y-88315571D01*
X118958000Y-87998429D01*
X118896129Y-87687380D01*
X118774763Y-87394379D01*
X118598569Y-87130685D01*
X118374315Y-86906431D01*
X118110621Y-86730237D01*
X117817620Y-86608871D01*
X117506571Y-86547000D01*
X117189429Y-86547000D01*
X116878380Y-86608871D01*
X116585379Y-86730237D01*
X116321685Y-86906431D01*
X116097431Y-87130685D01*
X115921237Y-87394379D01*
X115799871Y-87687380D01*
X115738000Y-87998429D01*
X108102000Y-87998429D01*
X108102000Y-82998429D01*
X115738000Y-82998429D01*
X115738000Y-83315571D01*
X115799871Y-83626620D01*
X115921237Y-83919621D01*
X116097431Y-84183315D01*
X116321685Y-84407569D01*
X116585379Y-84583763D01*
X116878380Y-84705129D01*
X117189429Y-84767000D01*
X117506571Y-84767000D01*
X117817620Y-84705129D01*
X118110621Y-84583763D01*
X118374315Y-84407569D01*
X118598569Y-84183315D01*
X118774763Y-83919621D01*
X118896129Y-83626620D01*
X118958000Y-83315571D01*
X118958000Y-82998429D01*
X118896129Y-82687380D01*
X118774763Y-82394379D01*
X118598569Y-82130685D01*
X118374315Y-81906431D01*
X118110621Y-81730237D01*
X117817620Y-81608871D01*
X117506571Y-81547000D01*
X117189429Y-81547000D01*
X116878380Y-81608871D01*
X116585379Y-81730237D01*
X116321685Y-81906431D01*
X116097431Y-82130685D01*
X115921237Y-82394379D01*
X115799871Y-82687380D01*
X115738000Y-82998429D01*
X108102000Y-82998429D01*
X108102000Y-77998429D01*
X115738000Y-77998429D01*
X115738000Y-78315571D01*
X115799871Y-78626620D01*
X115921237Y-78919621D01*
X116097431Y-79183315D01*
X116321685Y-79407569D01*
X116585379Y-79583763D01*
X116878380Y-79705129D01*
X117189429Y-79767000D01*
X117506571Y-79767000D01*
X117817620Y-79705129D01*
X118110621Y-79583763D01*
X118374315Y-79407569D01*
X118598569Y-79183315D01*
X118774763Y-78919621D01*
X118896129Y-78626620D01*
X118958000Y-78315571D01*
X118958000Y-77998429D01*
X118896129Y-77687380D01*
X118774763Y-77394379D01*
X118598569Y-77130685D01*
X118374315Y-76906431D01*
X118110621Y-76730237D01*
X117817620Y-76608871D01*
X117506571Y-76547000D01*
X117189429Y-76547000D01*
X116878380Y-76608871D01*
X116585379Y-76730237D01*
X116321685Y-76906431D01*
X116097431Y-77130685D01*
X115921237Y-77394379D01*
X115799871Y-77687380D01*
X115738000Y-77998429D01*
X108102000Y-77998429D01*
X108102000Y-72998429D01*
X115738000Y-72998429D01*
X115738000Y-73315571D01*
X115799871Y-73626620D01*
X115921237Y-73919621D01*
X116097431Y-74183315D01*
X116321685Y-74407569D01*
X116585379Y-74583763D01*
X116878380Y-74705129D01*
X117189429Y-74767000D01*
X117506571Y-74767000D01*
X117817620Y-74705129D01*
X118110621Y-74583763D01*
X118374315Y-74407569D01*
X118598569Y-74183315D01*
X118774763Y-73919621D01*
X118896129Y-73626620D01*
X118958000Y-73315571D01*
X118958000Y-72998429D01*
X118896129Y-72687380D01*
X118774763Y-72394379D01*
X118598569Y-72130685D01*
X118374315Y-71906431D01*
X118110621Y-71730237D01*
X117817620Y-71608871D01*
X117506571Y-71547000D01*
X117189429Y-71547000D01*
X116878380Y-71608871D01*
X116585379Y-71730237D01*
X116321685Y-71906431D01*
X116097431Y-72130685D01*
X115921237Y-72394379D01*
X115799871Y-72687380D01*
X115738000Y-72998429D01*
X108102000Y-72998429D01*
X108102000Y-67998429D01*
X115738000Y-67998429D01*
X115738000Y-68315571D01*
X115799871Y-68626620D01*
X115921237Y-68919621D01*
X116097431Y-69183315D01*
X116321685Y-69407569D01*
X116585379Y-69583763D01*
X116878380Y-69705129D01*
X117189429Y-69767000D01*
X117506571Y-69767000D01*
X117817620Y-69705129D01*
X118110621Y-69583763D01*
X118374315Y-69407569D01*
X118598569Y-69183315D01*
X118774763Y-68919621D01*
X118896129Y-68626620D01*
X118958000Y-68315571D01*
X118958000Y-67998429D01*
X118896129Y-67687380D01*
X118774763Y-67394379D01*
X118598569Y-67130685D01*
X118374315Y-66906431D01*
X118110621Y-66730237D01*
X117817620Y-66608871D01*
X117506571Y-66547000D01*
X117189429Y-66547000D01*
X116878380Y-66608871D01*
X116585379Y-66730237D01*
X116321685Y-66906431D01*
X116097431Y-67130685D01*
X115921237Y-67394379D01*
X115799871Y-67687380D01*
X115738000Y-67998429D01*
X108102000Y-67998429D01*
X108102000Y-53865248D01*
X125921000Y-53865248D01*
X125921000Y-54526751D01*
X125937423Y-54693498D01*
X126002324Y-54907446D01*
X126107716Y-55104623D01*
X126249551Y-55277449D01*
X126422377Y-55419284D01*
X126619553Y-55524676D01*
X126833501Y-55589577D01*
X127056000Y-55611491D01*
X127278498Y-55589577D01*
X127492446Y-55524676D01*
X127689623Y-55419284D01*
X127862449Y-55277449D01*
X128004284Y-55104623D01*
X128109676Y-54907447D01*
X128174577Y-54693499D01*
X128191000Y-54526752D01*
X128191000Y-53865249D01*
X128191000Y-53865248D01*
X132921000Y-53865248D01*
X132921000Y-54526751D01*
X132937423Y-54693498D01*
X133002324Y-54907446D01*
X133107716Y-55104623D01*
X133249551Y-55277449D01*
X133422377Y-55419284D01*
X133619553Y-55524676D01*
X133833501Y-55589577D01*
X134056000Y-55611491D01*
X134278498Y-55589577D01*
X134492446Y-55524676D01*
X134689623Y-55419284D01*
X134862449Y-55277449D01*
X135004284Y-55104623D01*
X135109676Y-54907447D01*
X135174577Y-54693499D01*
X135191000Y-54526752D01*
X135191000Y-53865249D01*
X135174577Y-53698502D01*
X135109676Y-53484554D01*
X135004284Y-53287377D01*
X134862449Y-53114551D01*
X134689623Y-52972716D01*
X134492447Y-52867324D01*
X134278499Y-52802423D01*
X134056000Y-52780509D01*
X133833502Y-52802423D01*
X133619554Y-52867324D01*
X133422378Y-52972716D01*
X133249552Y-53114551D01*
X133107717Y-53287377D01*
X133002324Y-53484553D01*
X132937423Y-53698501D01*
X132921000Y-53865248D01*
X128191000Y-53865248D01*
X128174577Y-53698502D01*
X128109676Y-53484554D01*
X128004284Y-53287377D01*
X127862449Y-53114551D01*
X127689623Y-52972716D01*
X127492447Y-52867324D01*
X127278499Y-52802423D01*
X127056000Y-52780509D01*
X126833502Y-52802423D01*
X126619554Y-52867324D01*
X126422378Y-52972716D01*
X126249552Y-53114551D01*
X126107717Y-53287377D01*
X126002324Y-53484553D01*
X125937423Y-53698501D01*
X125921000Y-53865248D01*
X108102000Y-53865248D01*
X108102000Y-50952000D01*
X139371167Y-50952000D01*
X138902724Y-51420444D01*
X138902724Y-51420444D01*
G37*
X138902724Y-51420444D02*
X138898911Y-51419287D01*
X138680750Y-51397800D01*
X138534850Y-51397800D01*
X138316689Y-51419287D01*
X138036766Y-51504201D01*
X137778786Y-51642094D01*
X137552666Y-51827666D01*
X137367094Y-52053786D01*
X137229201Y-52311766D01*
X137144287Y-52591689D01*
X137115615Y-52882800D01*
X137144287Y-53173911D01*
X137229201Y-53453834D01*
X137367094Y-53711814D01*
X137552666Y-53937934D01*
X137778786Y-54123506D01*
X137833591Y-54152800D01*
X137778786Y-54182094D01*
X137552666Y-54367666D01*
X137367094Y-54593786D01*
X137229201Y-54851766D01*
X137144287Y-55131689D01*
X137115615Y-55422800D01*
X137144287Y-55713911D01*
X137229201Y-55993834D01*
X137367094Y-56251814D01*
X137552666Y-56477934D01*
X137778786Y-56663506D01*
X137833591Y-56692800D01*
X137778786Y-56722094D01*
X137552666Y-56907666D01*
X137367094Y-57133786D01*
X137229201Y-57391766D01*
X137144287Y-57671689D01*
X137115615Y-57962800D01*
X137144287Y-58253911D01*
X137229201Y-58533834D01*
X137367094Y-58791814D01*
X137552666Y-59017934D01*
X137778786Y-59203506D01*
X137833591Y-59232800D01*
X137778786Y-59262094D01*
X137552666Y-59447666D01*
X137367094Y-59673786D01*
X137365216Y-59677300D01*
X131833307Y-59677300D01*
X131873898Y-59669226D01*
X132062256Y-59591205D01*
X132231774Y-59477937D01*
X132375937Y-59333774D01*
X132489205Y-59164256D01*
X132495741Y-59148477D01*
X132546063Y-59223789D01*
X132690226Y-59367952D01*
X132859744Y-59481220D01*
X133048102Y-59559241D01*
X133248061Y-59599015D01*
X133451939Y-59599015D01*
X133651898Y-59559241D01*
X133840256Y-59481220D01*
X134009774Y-59367952D01*
X134153937Y-59223789D01*
X134267205Y-59054271D01*
X134345226Y-58865913D01*
X134385000Y-58665954D01*
X134385000Y-58462076D01*
X134345226Y-58262117D01*
X134267205Y-58073759D01*
X134153937Y-57904241D01*
X134009774Y-57760078D01*
X133950820Y-57720686D01*
X133994686Y-57684686D01*
X134133396Y-57515666D01*
X134236468Y-57322834D01*
X134299938Y-57113598D01*
X134321370Y-56896000D01*
X134299938Y-56678402D01*
X134236468Y-56469166D01*
X134133396Y-56276334D01*
X133994686Y-56107314D01*
X133825666Y-55968604D01*
X133632834Y-55865532D01*
X133423598Y-55802062D01*
X133260521Y-55786000D01*
X132851479Y-55786000D01*
X132688402Y-55802062D01*
X132479166Y-55865532D01*
X132286334Y-55968604D01*
X132117314Y-56107314D01*
X131978604Y-56276334D01*
X131875532Y-56469166D01*
X131812062Y-56678402D01*
X131790630Y-56896000D01*
X131812062Y-57113598D01*
X131875532Y-57322834D01*
X131978604Y-57515666D01*
X132117314Y-57684686D01*
X132286334Y-57823396D01*
X132479166Y-57926468D01*
X132522440Y-57939595D01*
X132432795Y-58073759D01*
X132426259Y-58089538D01*
X132375937Y-58014226D01*
X132231774Y-57870063D01*
X132062256Y-57756795D01*
X131873898Y-57678774D01*
X131673939Y-57639000D01*
X131470061Y-57639000D01*
X131270102Y-57678774D01*
X131081744Y-57756795D01*
X130912226Y-57870063D01*
X130768063Y-58014226D01*
X130654795Y-58183744D01*
X130617409Y-58274000D01*
X130454061Y-58274000D01*
X130254102Y-58313774D01*
X130065744Y-58391795D01*
X129896226Y-58505063D01*
X129752063Y-58649226D01*
X129638795Y-58818744D01*
X129560774Y-59007102D01*
X129521000Y-59207061D01*
X129521000Y-59410939D01*
X129560774Y-59610898D01*
X129588279Y-59677300D01*
X128325914Y-59677300D01*
X128379256Y-59655205D01*
X128548774Y-59541937D01*
X128692937Y-59397774D01*
X128806205Y-59228256D01*
X128884226Y-59039898D01*
X128924000Y-58839939D01*
X128924000Y-58636061D01*
X128884226Y-58436102D01*
X128806205Y-58247744D01*
X128692937Y-58078226D01*
X128562511Y-57947800D01*
X128632834Y-57926468D01*
X128825666Y-57823396D01*
X128994686Y-57684686D01*
X129133396Y-57515666D01*
X129236468Y-57322834D01*
X129299938Y-57113598D01*
X129321370Y-56896000D01*
X129299938Y-56678402D01*
X129236468Y-56469166D01*
X129133396Y-56276334D01*
X128994686Y-56107314D01*
X128825666Y-55968604D01*
X128632834Y-55865532D01*
X128423598Y-55802062D01*
X128260521Y-55786000D01*
X127851479Y-55786000D01*
X127688402Y-55802062D01*
X127479166Y-55865532D01*
X127286334Y-55968604D01*
X127117314Y-56107314D01*
X126978604Y-56276334D01*
X126875532Y-56469166D01*
X126812062Y-56678402D01*
X126790630Y-56896000D01*
X126812062Y-57113598D01*
X126875532Y-57322834D01*
X126978604Y-57515666D01*
X127117314Y-57684686D01*
X127286334Y-57823396D01*
X127346623Y-57855621D01*
X127229226Y-57934063D01*
X127085063Y-58078226D01*
X126971795Y-58247744D01*
X126893774Y-58436102D01*
X126854000Y-58636061D01*
X126854000Y-58839939D01*
X126893774Y-59039898D01*
X126971795Y-59228256D01*
X127085063Y-59397774D01*
X127229226Y-59541937D01*
X127398744Y-59655205D01*
X127452086Y-59677300D01*
X126310921Y-59677300D01*
X126026669Y-59487369D01*
X125619925Y-59318890D01*
X125188128Y-59233000D01*
X124747872Y-59233000D01*
X124316075Y-59318890D01*
X123909331Y-59487369D01*
X123625079Y-59677300D01*
X120035733Y-59677300D01*
X118910882Y-58552450D01*
X118958000Y-58315571D01*
X118958000Y-57998429D01*
X118896129Y-57687380D01*
X118774763Y-57394379D01*
X118598569Y-57130685D01*
X118374315Y-56906431D01*
X118110621Y-56730237D01*
X117817620Y-56608871D01*
X117506571Y-56547000D01*
X117189429Y-56547000D01*
X116878380Y-56608871D01*
X116585379Y-56730237D01*
X116321685Y-56906431D01*
X116097431Y-57130685D01*
X115921237Y-57394379D01*
X115799871Y-57687380D01*
X115738000Y-57998429D01*
X115738000Y-58315571D01*
X115799871Y-58626620D01*
X115921237Y-58919621D01*
X116097431Y-59183315D01*
X116321685Y-59407569D01*
X116585379Y-59583763D01*
X116878380Y-59705129D01*
X117189429Y-59767000D01*
X117506571Y-59767000D01*
X117743450Y-59719882D01*
X119148614Y-61125047D01*
X119174460Y-61156540D01*
X119205953Y-61182386D01*
X119205958Y-61182391D01*
X119284921Y-61247195D01*
X119300158Y-61259699D01*
X119443567Y-61336353D01*
X119551971Y-61369236D01*
X119599173Y-61383555D01*
X119760999Y-61399494D01*
X119761000Y-61399494D01*
X119922826Y-61383555D01*
X120078433Y-61336353D01*
X120093499Y-61328300D01*
X122733000Y-61328300D01*
X122733000Y-61688128D01*
X122818890Y-62119925D01*
X122906527Y-62331500D01*
X118732749Y-62331500D01*
X118598569Y-62130685D01*
X118374315Y-61906431D01*
X118110621Y-61730237D01*
X117817620Y-61608871D01*
X117506571Y-61547000D01*
X117189429Y-61547000D01*
X116878380Y-61608871D01*
X116585379Y-61730237D01*
X116321685Y-61906431D01*
X116097431Y-62130685D01*
X115921237Y-62394379D01*
X115799871Y-62687380D01*
X115738000Y-62998429D01*
X115738000Y-63315571D01*
X115799871Y-63626620D01*
X115921237Y-63919621D01*
X116097431Y-64183315D01*
X116321685Y-64407569D01*
X116585379Y-64583763D01*
X116878380Y-64705129D01*
X117189429Y-64767000D01*
X117506571Y-64767000D01*
X117817620Y-64705129D01*
X118110621Y-64583763D01*
X118374315Y-64407569D01*
X118598569Y-64183315D01*
X118732749Y-63982500D01*
X137457932Y-63982500D01*
X137552666Y-64097934D01*
X137778786Y-64283506D01*
X137833591Y-64312800D01*
X137778786Y-64342094D01*
X137552666Y-64527666D01*
X137367094Y-64753786D01*
X137229201Y-65011766D01*
X137144287Y-65291689D01*
X137115615Y-65582800D01*
X137144287Y-65873911D01*
X137229201Y-66153834D01*
X137367094Y-66411814D01*
X137552666Y-66637934D01*
X137778786Y-66823506D01*
X137833591Y-66852800D01*
X137778786Y-66882094D01*
X137552666Y-67067666D01*
X137367094Y-67293786D01*
X137229201Y-67551766D01*
X137144287Y-67831689D01*
X137115615Y-68122800D01*
X137144287Y-68413911D01*
X137229201Y-68693834D01*
X137367094Y-68951814D01*
X137552666Y-69177934D01*
X137778786Y-69363506D01*
X137833591Y-69392800D01*
X137778786Y-69422094D01*
X137552666Y-69607666D01*
X137367094Y-69833786D01*
X137229201Y-70091766D01*
X137144287Y-70371689D01*
X137115615Y-70662800D01*
X137144287Y-70953911D01*
X137229201Y-71233834D01*
X137367094Y-71491814D01*
X137552666Y-71717934D01*
X137778786Y-71903506D01*
X137833591Y-71932800D01*
X137778786Y-71962094D01*
X137552666Y-72147666D01*
X137367094Y-72373786D01*
X137229201Y-72631766D01*
X137144287Y-72911689D01*
X137115615Y-73202800D01*
X137144287Y-73493911D01*
X137229201Y-73773834D01*
X137367094Y-74031814D01*
X137552666Y-74257934D01*
X137778786Y-74443506D01*
X137833591Y-74472800D01*
X137778786Y-74502094D01*
X137552666Y-74687666D01*
X137367094Y-74913786D01*
X137229201Y-75171766D01*
X137144287Y-75451689D01*
X137115615Y-75742800D01*
X137144287Y-76033911D01*
X137229201Y-76313834D01*
X137367094Y-76571814D01*
X137552666Y-76797934D01*
X137778786Y-76983506D01*
X137833591Y-77012800D01*
X137778786Y-77042094D01*
X137552666Y-77227666D01*
X137367094Y-77453786D01*
X137229201Y-77711766D01*
X137144287Y-77991689D01*
X137115615Y-78282800D01*
X137144287Y-78573911D01*
X137229201Y-78853834D01*
X137367094Y-79111814D01*
X137552666Y-79337934D01*
X137778786Y-79523506D01*
X137833591Y-79552800D01*
X137778786Y-79582094D01*
X137552666Y-79767666D01*
X137367094Y-79993786D01*
X137229201Y-80251766D01*
X137144287Y-80531689D01*
X137115615Y-80822800D01*
X137144287Y-81113911D01*
X137181869Y-81237801D01*
X135782241Y-81237801D01*
X135741698Y-81233808D01*
X135701155Y-81237801D01*
X135701146Y-81237801D01*
X135579873Y-81249745D01*
X135424265Y-81296948D01*
X135280857Y-81373602D01*
X135155158Y-81476760D01*
X135129307Y-81508260D01*
X129492966Y-87144602D01*
X129461459Y-87170459D01*
X129400575Y-87244647D01*
X129358301Y-87296158D01*
X129317951Y-87371647D01*
X129281647Y-87439567D01*
X129234444Y-87595175D01*
X129226885Y-87671929D01*
X129218506Y-87757000D01*
X129222500Y-87797550D01*
X129222501Y-103798066D01*
X122410465Y-110610103D01*
X122378958Y-110635960D01*
X122309713Y-110720336D01*
X122275800Y-110761659D01*
X122199147Y-110905067D01*
X122199146Y-110905068D01*
X122151943Y-111060676D01*
X122139999Y-111181948D01*
X122136005Y-111222501D01*
X122139999Y-111263052D01*
X122140000Y-117577000D01*
X108102000Y-117577000D01*
X108102000Y-112182000D01*
X115734928Y-112182000D01*
X115734928Y-114132000D01*
X115747188Y-114256482D01*
X115783498Y-114376180D01*
X115842463Y-114486494D01*
X115921815Y-114583185D01*
X116018506Y-114662537D01*
X116128820Y-114721502D01*
X116248518Y-114757812D01*
X116373000Y-114770072D01*
X118323000Y-114770072D01*
X118447482Y-114757812D01*
X118567180Y-114721502D01*
X118677494Y-114662537D01*
X118774185Y-114583185D01*
X118853537Y-114486494D01*
X118912502Y-114376180D01*
X118948812Y-114256482D01*
X118961072Y-114132000D01*
X118961072Y-112182000D01*
X118948812Y-112057518D01*
X118912502Y-111937820D01*
X118853537Y-111827506D01*
X118774185Y-111730815D01*
X118677494Y-111651463D01*
X118567180Y-111592498D01*
X118447482Y-111556188D01*
X118323000Y-111543928D01*
X116373000Y-111543928D01*
X116248518Y-111556188D01*
X116128820Y-111592498D01*
X116018506Y-111651463D01*
X115921815Y-111730815D01*
X115842463Y-111827506D01*
X115783498Y-111937820D01*
X115747188Y-112057518D01*
X115734928Y-112182000D01*
X108102000Y-112182000D01*
X108102000Y-107998429D01*
X115738000Y-107998429D01*
X115738000Y-108315571D01*
X115799871Y-108626620D01*
X115921237Y-108919621D01*
X116097431Y-109183315D01*
X116321685Y-109407569D01*
X116585379Y-109583763D01*
X116878380Y-109705129D01*
X117189429Y-109767000D01*
X117506571Y-109767000D01*
X117817620Y-109705129D01*
X118110621Y-109583763D01*
X118374315Y-109407569D01*
X118598569Y-109183315D01*
X118774763Y-108919621D01*
X118896129Y-108626620D01*
X118958000Y-108315571D01*
X118958000Y-107998429D01*
X118896129Y-107687380D01*
X118774763Y-107394379D01*
X118598569Y-107130685D01*
X118374315Y-106906431D01*
X118110621Y-106730237D01*
X117817620Y-106608871D01*
X117506571Y-106547000D01*
X117189429Y-106547000D01*
X116878380Y-106608871D01*
X116585379Y-106730237D01*
X116321685Y-106906431D01*
X116097431Y-107130685D01*
X115921237Y-107394379D01*
X115799871Y-107687380D01*
X115738000Y-107998429D01*
X108102000Y-107998429D01*
X108102000Y-102998429D01*
X115738000Y-102998429D01*
X115738000Y-103315571D01*
X115799871Y-103626620D01*
X115921237Y-103919621D01*
X116097431Y-104183315D01*
X116321685Y-104407569D01*
X116585379Y-104583763D01*
X116878380Y-104705129D01*
X117189429Y-104767000D01*
X117506571Y-104767000D01*
X117817620Y-104705129D01*
X118110621Y-104583763D01*
X118374315Y-104407569D01*
X118598569Y-104183315D01*
X118774763Y-103919621D01*
X118896129Y-103626620D01*
X118958000Y-103315571D01*
X118958000Y-102998429D01*
X118939192Y-102903872D01*
X124130000Y-102903872D01*
X124130000Y-103344128D01*
X124215890Y-103775925D01*
X124384369Y-104182669D01*
X124628962Y-104548729D01*
X124940271Y-104860038D01*
X125306331Y-105104631D01*
X125713075Y-105273110D01*
X126144872Y-105359000D01*
X126585128Y-105359000D01*
X127016925Y-105273110D01*
X127423669Y-105104631D01*
X127789729Y-104860038D01*
X128101038Y-104548729D01*
X128345631Y-104182669D01*
X128514110Y-103775925D01*
X128600000Y-103344128D01*
X128600000Y-102903872D01*
X128514110Y-102472075D01*
X128345631Y-102065331D01*
X128101038Y-101699271D01*
X127789729Y-101387962D01*
X127423669Y-101143369D01*
X127016925Y-100974890D01*
X126585128Y-100889000D01*
X126144872Y-100889000D01*
X125713075Y-100974890D01*
X125306331Y-101143369D01*
X124940271Y-101387962D01*
X124628962Y-101699271D01*
X124384369Y-102065331D01*
X124215890Y-102472075D01*
X124130000Y-102903872D01*
X118939192Y-102903872D01*
X118896129Y-102687380D01*
X118774763Y-102394379D01*
X118598569Y-102130685D01*
X118374315Y-101906431D01*
X118110621Y-101730237D01*
X117817620Y-101608871D01*
X117506571Y-101547000D01*
X117189429Y-101547000D01*
X116878380Y-101608871D01*
X116585379Y-101730237D01*
X116321685Y-101906431D01*
X116097431Y-102130685D01*
X115921237Y-102394379D01*
X115799871Y-102687380D01*
X115738000Y-102998429D01*
X108102000Y-102998429D01*
X108102000Y-97998429D01*
X115738000Y-97998429D01*
X115738000Y-98315571D01*
X115799871Y-98626620D01*
X115921237Y-98919621D01*
X116097431Y-99183315D01*
X116321685Y-99407569D01*
X116585379Y-99583763D01*
X116878380Y-99705129D01*
X117189429Y-99767000D01*
X117506571Y-99767000D01*
X117817620Y-99705129D01*
X118110621Y-99583763D01*
X118374315Y-99407569D01*
X118598569Y-99183315D01*
X118774763Y-98919621D01*
X118896129Y-98626620D01*
X118958000Y-98315571D01*
X118958000Y-97998429D01*
X118896129Y-97687380D01*
X118774763Y-97394379D01*
X118598569Y-97130685D01*
X118374315Y-96906431D01*
X118110621Y-96730237D01*
X117817620Y-96608871D01*
X117506571Y-96547000D01*
X117189429Y-96547000D01*
X116878380Y-96608871D01*
X116585379Y-96730237D01*
X116321685Y-96906431D01*
X116097431Y-97130685D01*
X115921237Y-97394379D01*
X115799871Y-97687380D01*
X115738000Y-97998429D01*
X108102000Y-97998429D01*
X108102000Y-92998429D01*
X115738000Y-92998429D01*
X115738000Y-93315571D01*
X115799871Y-93626620D01*
X115921237Y-93919621D01*
X116097431Y-94183315D01*
X116321685Y-94407569D01*
X116585379Y-94583763D01*
X116878380Y-94705129D01*
X117189429Y-94767000D01*
X117506571Y-94767000D01*
X117817620Y-94705129D01*
X118110621Y-94583763D01*
X118374315Y-94407569D01*
X118598569Y-94183315D01*
X118774763Y-93919621D01*
X118896129Y-93626620D01*
X118958000Y-93315571D01*
X118958000Y-92998429D01*
X118896129Y-92687380D01*
X118774763Y-92394379D01*
X118598569Y-92130685D01*
X118374315Y-91906431D01*
X118110621Y-91730237D01*
X117817620Y-91608871D01*
X117506571Y-91547000D01*
X117189429Y-91547000D01*
X116878380Y-91608871D01*
X116585379Y-91730237D01*
X116321685Y-91906431D01*
X116097431Y-92130685D01*
X115921237Y-92394379D01*
X115799871Y-92687380D01*
X115738000Y-92998429D01*
X108102000Y-92998429D01*
X108102000Y-87998429D01*
X115738000Y-87998429D01*
X115738000Y-88315571D01*
X115799871Y-88626620D01*
X115921237Y-88919621D01*
X116097431Y-89183315D01*
X116321685Y-89407569D01*
X116585379Y-89583763D01*
X116878380Y-89705129D01*
X117189429Y-89767000D01*
X117506571Y-89767000D01*
X117817620Y-89705129D01*
X118110621Y-89583763D01*
X118374315Y-89407569D01*
X118598569Y-89183315D01*
X118774763Y-88919621D01*
X118896129Y-88626620D01*
X118958000Y-88315571D01*
X118958000Y-87998429D01*
X118896129Y-87687380D01*
X118774763Y-87394379D01*
X118598569Y-87130685D01*
X118374315Y-86906431D01*
X118110621Y-86730237D01*
X117817620Y-86608871D01*
X117506571Y-86547000D01*
X117189429Y-86547000D01*
X116878380Y-86608871D01*
X116585379Y-86730237D01*
X116321685Y-86906431D01*
X116097431Y-87130685D01*
X115921237Y-87394379D01*
X115799871Y-87687380D01*
X115738000Y-87998429D01*
X108102000Y-87998429D01*
X108102000Y-82998429D01*
X115738000Y-82998429D01*
X115738000Y-83315571D01*
X115799871Y-83626620D01*
X115921237Y-83919621D01*
X116097431Y-84183315D01*
X116321685Y-84407569D01*
X116585379Y-84583763D01*
X116878380Y-84705129D01*
X117189429Y-84767000D01*
X117506571Y-84767000D01*
X117817620Y-84705129D01*
X118110621Y-84583763D01*
X118374315Y-84407569D01*
X118598569Y-84183315D01*
X118774763Y-83919621D01*
X118896129Y-83626620D01*
X118958000Y-83315571D01*
X118958000Y-82998429D01*
X118896129Y-82687380D01*
X118774763Y-82394379D01*
X118598569Y-82130685D01*
X118374315Y-81906431D01*
X118110621Y-81730237D01*
X117817620Y-81608871D01*
X117506571Y-81547000D01*
X117189429Y-81547000D01*
X116878380Y-81608871D01*
X116585379Y-81730237D01*
X116321685Y-81906431D01*
X116097431Y-82130685D01*
X115921237Y-82394379D01*
X115799871Y-82687380D01*
X115738000Y-82998429D01*
X108102000Y-82998429D01*
X108102000Y-77998429D01*
X115738000Y-77998429D01*
X115738000Y-78315571D01*
X115799871Y-78626620D01*
X115921237Y-78919621D01*
X116097431Y-79183315D01*
X116321685Y-79407569D01*
X116585379Y-79583763D01*
X116878380Y-79705129D01*
X117189429Y-79767000D01*
X117506571Y-79767000D01*
X117817620Y-79705129D01*
X118110621Y-79583763D01*
X118374315Y-79407569D01*
X118598569Y-79183315D01*
X118774763Y-78919621D01*
X118896129Y-78626620D01*
X118958000Y-78315571D01*
X118958000Y-77998429D01*
X118896129Y-77687380D01*
X118774763Y-77394379D01*
X118598569Y-77130685D01*
X118374315Y-76906431D01*
X118110621Y-76730237D01*
X117817620Y-76608871D01*
X117506571Y-76547000D01*
X117189429Y-76547000D01*
X116878380Y-76608871D01*
X116585379Y-76730237D01*
X116321685Y-76906431D01*
X116097431Y-77130685D01*
X115921237Y-77394379D01*
X115799871Y-77687380D01*
X115738000Y-77998429D01*
X108102000Y-77998429D01*
X108102000Y-72998429D01*
X115738000Y-72998429D01*
X115738000Y-73315571D01*
X115799871Y-73626620D01*
X115921237Y-73919621D01*
X116097431Y-74183315D01*
X116321685Y-74407569D01*
X116585379Y-74583763D01*
X116878380Y-74705129D01*
X117189429Y-74767000D01*
X117506571Y-74767000D01*
X117817620Y-74705129D01*
X118110621Y-74583763D01*
X118374315Y-74407569D01*
X118598569Y-74183315D01*
X118774763Y-73919621D01*
X118896129Y-73626620D01*
X118958000Y-73315571D01*
X118958000Y-72998429D01*
X118896129Y-72687380D01*
X118774763Y-72394379D01*
X118598569Y-72130685D01*
X118374315Y-71906431D01*
X118110621Y-71730237D01*
X117817620Y-71608871D01*
X117506571Y-71547000D01*
X117189429Y-71547000D01*
X116878380Y-71608871D01*
X116585379Y-71730237D01*
X116321685Y-71906431D01*
X116097431Y-72130685D01*
X115921237Y-72394379D01*
X115799871Y-72687380D01*
X115738000Y-72998429D01*
X108102000Y-72998429D01*
X108102000Y-67998429D01*
X115738000Y-67998429D01*
X115738000Y-68315571D01*
X115799871Y-68626620D01*
X115921237Y-68919621D01*
X116097431Y-69183315D01*
X116321685Y-69407569D01*
X116585379Y-69583763D01*
X116878380Y-69705129D01*
X117189429Y-69767000D01*
X117506571Y-69767000D01*
X117817620Y-69705129D01*
X118110621Y-69583763D01*
X118374315Y-69407569D01*
X118598569Y-69183315D01*
X118774763Y-68919621D01*
X118896129Y-68626620D01*
X118958000Y-68315571D01*
X118958000Y-67998429D01*
X118896129Y-67687380D01*
X118774763Y-67394379D01*
X118598569Y-67130685D01*
X118374315Y-66906431D01*
X118110621Y-66730237D01*
X117817620Y-66608871D01*
X117506571Y-66547000D01*
X117189429Y-66547000D01*
X116878380Y-66608871D01*
X116585379Y-66730237D01*
X116321685Y-66906431D01*
X116097431Y-67130685D01*
X115921237Y-67394379D01*
X115799871Y-67687380D01*
X115738000Y-67998429D01*
X108102000Y-67998429D01*
X108102000Y-53865248D01*
X125921000Y-53865248D01*
X125921000Y-54526751D01*
X125937423Y-54693498D01*
X126002324Y-54907446D01*
X126107716Y-55104623D01*
X126249551Y-55277449D01*
X126422377Y-55419284D01*
X126619553Y-55524676D01*
X126833501Y-55589577D01*
X127056000Y-55611491D01*
X127278498Y-55589577D01*
X127492446Y-55524676D01*
X127689623Y-55419284D01*
X127862449Y-55277449D01*
X128004284Y-55104623D01*
X128109676Y-54907447D01*
X128174577Y-54693499D01*
X128191000Y-54526752D01*
X128191000Y-53865249D01*
X128191000Y-53865248D01*
X132921000Y-53865248D01*
X132921000Y-54526751D01*
X132937423Y-54693498D01*
X133002324Y-54907446D01*
X133107716Y-55104623D01*
X133249551Y-55277449D01*
X133422377Y-55419284D01*
X133619553Y-55524676D01*
X133833501Y-55589577D01*
X134056000Y-55611491D01*
X134278498Y-55589577D01*
X134492446Y-55524676D01*
X134689623Y-55419284D01*
X134862449Y-55277449D01*
X135004284Y-55104623D01*
X135109676Y-54907447D01*
X135174577Y-54693499D01*
X135191000Y-54526752D01*
X135191000Y-53865249D01*
X135174577Y-53698502D01*
X135109676Y-53484554D01*
X135004284Y-53287377D01*
X134862449Y-53114551D01*
X134689623Y-52972716D01*
X134492447Y-52867324D01*
X134278499Y-52802423D01*
X134056000Y-52780509D01*
X133833502Y-52802423D01*
X133619554Y-52867324D01*
X133422378Y-52972716D01*
X133249552Y-53114551D01*
X133107717Y-53287377D01*
X133002324Y-53484553D01*
X132937423Y-53698501D01*
X132921000Y-53865248D01*
X128191000Y-53865248D01*
X128174577Y-53698502D01*
X128109676Y-53484554D01*
X128004284Y-53287377D01*
X127862449Y-53114551D01*
X127689623Y-52972716D01*
X127492447Y-52867324D01*
X127278499Y-52802423D01*
X127056000Y-52780509D01*
X126833502Y-52802423D01*
X126619554Y-52867324D01*
X126422378Y-52972716D01*
X126249552Y-53114551D01*
X126107717Y-53287377D01*
X126002324Y-53484553D01*
X125937423Y-53698501D01*
X125921000Y-53865248D01*
X108102000Y-53865248D01*
X108102000Y-50952000D01*
X139371167Y-50952000D01*
X138902724Y-51420444D01*
G36*
X126873000Y-114554000D02*
G01*
X126893000Y-114554000D01*
X126893000Y-114808000D01*
X126873000Y-114808000D01*
X126873000Y-114828000D01*
X126619000Y-114828000D01*
X126619000Y-114808000D01*
X126599000Y-114808000D01*
X126599000Y-114554000D01*
X126619000Y-114554000D01*
X126619000Y-114534000D01*
X126873000Y-114534000D01*
X126873000Y-114554000D01*
X126873000Y-114554000D01*
G37*
X126873000Y-114554000D02*
X126893000Y-114554000D01*
X126893000Y-114808000D01*
X126873000Y-114808000D01*
X126873000Y-114828000D01*
X126619000Y-114828000D01*
X126619000Y-114808000D01*
X126599000Y-114808000D01*
X126599000Y-114554000D01*
X126619000Y-114554000D01*
X126619000Y-114534000D01*
X126873000Y-114534000D01*
X126873000Y-114554000D01*
G36*
X156862744Y-109629205D02*
G01*
X157051102Y-109707226D01*
X157251061Y-109747000D01*
X157454939Y-109747000D01*
X157641002Y-109709990D01*
X157641001Y-113255069D01*
X157517111Y-113217487D01*
X157298950Y-113196000D01*
X157153050Y-113196000D01*
X156934889Y-113217487D01*
X156654966Y-113302401D01*
X156396986Y-113440294D01*
X156170866Y-113625866D01*
X155985294Y-113851986D01*
X155956000Y-113906791D01*
X155926706Y-113851986D01*
X155741134Y-113625866D01*
X155515014Y-113440294D01*
X155257034Y-113302401D01*
X154977111Y-113217487D01*
X154758950Y-113196000D01*
X154613050Y-113196000D01*
X154394889Y-113217487D01*
X154114966Y-113302401D01*
X153856986Y-113440294D01*
X153630866Y-113625866D01*
X153445294Y-113851986D01*
X153416000Y-113906791D01*
X153386706Y-113851986D01*
X153201134Y-113625866D01*
X152975014Y-113440294D01*
X152717034Y-113302401D01*
X152437111Y-113217487D01*
X152218950Y-113196000D01*
X152073050Y-113196000D01*
X151854889Y-113217487D01*
X151574966Y-113302401D01*
X151316986Y-113440294D01*
X151090866Y-113625866D01*
X150905294Y-113851986D01*
X150876000Y-113906791D01*
X150846706Y-113851986D01*
X150661134Y-113625866D01*
X150435014Y-113440294D01*
X150177034Y-113302401D01*
X149897111Y-113217487D01*
X149678950Y-113196000D01*
X149533050Y-113196000D01*
X149314889Y-113217487D01*
X149034966Y-113302401D01*
X148776986Y-113440294D01*
X148550866Y-113625866D01*
X148365294Y-113851986D01*
X148336000Y-113906791D01*
X148306706Y-113851986D01*
X148121134Y-113625866D01*
X147895014Y-113440294D01*
X147637034Y-113302401D01*
X147357111Y-113217487D01*
X147138950Y-113196000D01*
X146993050Y-113196000D01*
X146774889Y-113217487D01*
X146494966Y-113302401D01*
X146236986Y-113440294D01*
X146010866Y-113625866D01*
X145825294Y-113851986D01*
X145796000Y-113906791D01*
X145766706Y-113851986D01*
X145581134Y-113625866D01*
X145355014Y-113440294D01*
X145097034Y-113302401D01*
X144817111Y-113217487D01*
X144598950Y-113196000D01*
X144453050Y-113196000D01*
X144234889Y-113217487D01*
X143954966Y-113302401D01*
X143696986Y-113440294D01*
X143470866Y-113625866D01*
X143285294Y-113851986D01*
X143256000Y-113906791D01*
X143226706Y-113851986D01*
X143041134Y-113625866D01*
X142815014Y-113440294D01*
X142557034Y-113302401D01*
X142277111Y-113217487D01*
X142058950Y-113196000D01*
X141913050Y-113196000D01*
X141694889Y-113217487D01*
X141414966Y-113302401D01*
X141156986Y-113440294D01*
X140930866Y-113625866D01*
X140745294Y-113851986D01*
X140716000Y-113906791D01*
X140686706Y-113851986D01*
X140501134Y-113625866D01*
X140275014Y-113440294D01*
X140017034Y-113302401D01*
X139737111Y-113217487D01*
X139518950Y-113196000D01*
X139373050Y-113196000D01*
X139154889Y-113217487D01*
X138874966Y-113302401D01*
X138616986Y-113440294D01*
X138390866Y-113625866D01*
X138205294Y-113851986D01*
X138176000Y-113906791D01*
X138146706Y-113851986D01*
X138079120Y-113769632D01*
X138155226Y-113585898D01*
X138195000Y-113385939D01*
X138195000Y-113182061D01*
X138155226Y-112982102D01*
X138077205Y-112793744D01*
X137963937Y-112624226D01*
X137819774Y-112480063D01*
X137650256Y-112366795D01*
X137461898Y-112288774D01*
X137261939Y-112249000D01*
X137058061Y-112249000D01*
X136858102Y-112288774D01*
X136669744Y-112366795D01*
X136532497Y-112458500D01*
X136507597Y-112458500D01*
X136467057Y-112454507D01*
X136426517Y-112458500D01*
X136426505Y-112458500D01*
X136305232Y-112470444D01*
X136149624Y-112517647D01*
X136024736Y-112584402D01*
X136006214Y-112594302D01*
X135969752Y-112624226D01*
X135880517Y-112697459D01*
X135854664Y-112728961D01*
X135507023Y-113076602D01*
X135488226Y-112982102D01*
X135410205Y-112793744D01*
X135296937Y-112624226D01*
X135152774Y-112480063D01*
X134983256Y-112366795D01*
X134794898Y-112288774D01*
X134594939Y-112249000D01*
X134391061Y-112249000D01*
X134191102Y-112288774D01*
X134002744Y-112366795D01*
X133861866Y-112460927D01*
X133765232Y-112470444D01*
X133609624Y-112517647D01*
X133466215Y-112594301D01*
X133372016Y-112671608D01*
X133372015Y-112671609D01*
X133340517Y-112697459D01*
X133314669Y-112728956D01*
X132621334Y-113422292D01*
X132496894Y-113355777D01*
X136356343Y-109537500D01*
X156725497Y-109537500D01*
X156862744Y-109629205D01*
X156862744Y-109629205D01*
G37*
X156862744Y-109629205D02*
X157051102Y-109707226D01*
X157251061Y-109747000D01*
X157454939Y-109747000D01*
X157641002Y-109709990D01*
X157641001Y-113255069D01*
X157517111Y-113217487D01*
X157298950Y-113196000D01*
X157153050Y-113196000D01*
X156934889Y-113217487D01*
X156654966Y-113302401D01*
X156396986Y-113440294D01*
X156170866Y-113625866D01*
X155985294Y-113851986D01*
X155956000Y-113906791D01*
X155926706Y-113851986D01*
X155741134Y-113625866D01*
X155515014Y-113440294D01*
X155257034Y-113302401D01*
X154977111Y-113217487D01*
X154758950Y-113196000D01*
X154613050Y-113196000D01*
X154394889Y-113217487D01*
X154114966Y-113302401D01*
X153856986Y-113440294D01*
X153630866Y-113625866D01*
X153445294Y-113851986D01*
X153416000Y-113906791D01*
X153386706Y-113851986D01*
X153201134Y-113625866D01*
X152975014Y-113440294D01*
X152717034Y-113302401D01*
X152437111Y-113217487D01*
X152218950Y-113196000D01*
X152073050Y-113196000D01*
X151854889Y-113217487D01*
X151574966Y-113302401D01*
X151316986Y-113440294D01*
X151090866Y-113625866D01*
X150905294Y-113851986D01*
X150876000Y-113906791D01*
X150846706Y-113851986D01*
X150661134Y-113625866D01*
X150435014Y-113440294D01*
X150177034Y-113302401D01*
X149897111Y-113217487D01*
X149678950Y-113196000D01*
X149533050Y-113196000D01*
X149314889Y-113217487D01*
X149034966Y-113302401D01*
X148776986Y-113440294D01*
X148550866Y-113625866D01*
X148365294Y-113851986D01*
X148336000Y-113906791D01*
X148306706Y-113851986D01*
X148121134Y-113625866D01*
X147895014Y-113440294D01*
X147637034Y-113302401D01*
X147357111Y-113217487D01*
X147138950Y-113196000D01*
X146993050Y-113196000D01*
X146774889Y-113217487D01*
X146494966Y-113302401D01*
X146236986Y-113440294D01*
X146010866Y-113625866D01*
X145825294Y-113851986D01*
X145796000Y-113906791D01*
X145766706Y-113851986D01*
X145581134Y-113625866D01*
X145355014Y-113440294D01*
X145097034Y-113302401D01*
X144817111Y-113217487D01*
X144598950Y-113196000D01*
X144453050Y-113196000D01*
X144234889Y-113217487D01*
X143954966Y-113302401D01*
X143696986Y-113440294D01*
X143470866Y-113625866D01*
X143285294Y-113851986D01*
X143256000Y-113906791D01*
X143226706Y-113851986D01*
X143041134Y-113625866D01*
X142815014Y-113440294D01*
X142557034Y-113302401D01*
X142277111Y-113217487D01*
X142058950Y-113196000D01*
X141913050Y-113196000D01*
X141694889Y-113217487D01*
X141414966Y-113302401D01*
X141156986Y-113440294D01*
X140930866Y-113625866D01*
X140745294Y-113851986D01*
X140716000Y-113906791D01*
X140686706Y-113851986D01*
X140501134Y-113625866D01*
X140275014Y-113440294D01*
X140017034Y-113302401D01*
X139737111Y-113217487D01*
X139518950Y-113196000D01*
X139373050Y-113196000D01*
X139154889Y-113217487D01*
X138874966Y-113302401D01*
X138616986Y-113440294D01*
X138390866Y-113625866D01*
X138205294Y-113851986D01*
X138176000Y-113906791D01*
X138146706Y-113851986D01*
X138079120Y-113769632D01*
X138155226Y-113585898D01*
X138195000Y-113385939D01*
X138195000Y-113182061D01*
X138155226Y-112982102D01*
X138077205Y-112793744D01*
X137963937Y-112624226D01*
X137819774Y-112480063D01*
X137650256Y-112366795D01*
X137461898Y-112288774D01*
X137261939Y-112249000D01*
X137058061Y-112249000D01*
X136858102Y-112288774D01*
X136669744Y-112366795D01*
X136532497Y-112458500D01*
X136507597Y-112458500D01*
X136467057Y-112454507D01*
X136426517Y-112458500D01*
X136426505Y-112458500D01*
X136305232Y-112470444D01*
X136149624Y-112517647D01*
X136024736Y-112584402D01*
X136006214Y-112594302D01*
X135969752Y-112624226D01*
X135880517Y-112697459D01*
X135854664Y-112728961D01*
X135507023Y-113076602D01*
X135488226Y-112982102D01*
X135410205Y-112793744D01*
X135296937Y-112624226D01*
X135152774Y-112480063D01*
X134983256Y-112366795D01*
X134794898Y-112288774D01*
X134594939Y-112249000D01*
X134391061Y-112249000D01*
X134191102Y-112288774D01*
X134002744Y-112366795D01*
X133861866Y-112460927D01*
X133765232Y-112470444D01*
X133609624Y-112517647D01*
X133466215Y-112594301D01*
X133372016Y-112671608D01*
X133372015Y-112671609D01*
X133340517Y-112697459D01*
X133314669Y-112728956D01*
X132621334Y-113422292D01*
X132496894Y-113355777D01*
X136356343Y-109537500D01*
X156725497Y-109537500D01*
X156862744Y-109629205D01*
G36*
X132917445Y-87976174D02*
G01*
X132901506Y-88138000D01*
X132905501Y-88178560D01*
X132905500Y-91008351D01*
X132901506Y-91048902D01*
X132905500Y-91089452D01*
X132905500Y-91089454D01*
X132917444Y-91210727D01*
X132963168Y-91361459D01*
X132964647Y-91366335D01*
X133041301Y-91509744D01*
X133060881Y-91533602D01*
X133144459Y-91635443D01*
X133175966Y-91661300D01*
X140875705Y-99361040D01*
X140901557Y-99392541D01*
X140938984Y-99423256D01*
X141027255Y-99495699D01*
X141074293Y-99520841D01*
X141170664Y-99572353D01*
X141326272Y-99619556D01*
X141447545Y-99631500D01*
X141447547Y-99631500D01*
X141488097Y-99635494D01*
X141528648Y-99631500D01*
X142406068Y-99631500D01*
X144736567Y-101962000D01*
X144678061Y-101962000D01*
X144478102Y-102001774D01*
X144289744Y-102079795D01*
X144152497Y-102171500D01*
X134961934Y-102171500D01*
X132524500Y-99734068D01*
X132524500Y-88352932D01*
X132924493Y-87952939D01*
X132917445Y-87976174D01*
X132917445Y-87976174D01*
G37*
X132917445Y-87976174D02*
X132901506Y-88138000D01*
X132905501Y-88178560D01*
X132905500Y-91008351D01*
X132901506Y-91048902D01*
X132905500Y-91089452D01*
X132905500Y-91089454D01*
X132917444Y-91210727D01*
X132963168Y-91361459D01*
X132964647Y-91366335D01*
X133041301Y-91509744D01*
X133060881Y-91533602D01*
X133144459Y-91635443D01*
X133175966Y-91661300D01*
X140875705Y-99361040D01*
X140901557Y-99392541D01*
X140938984Y-99423256D01*
X141027255Y-99495699D01*
X141074293Y-99520841D01*
X141170664Y-99572353D01*
X141326272Y-99619556D01*
X141447545Y-99631500D01*
X141447547Y-99631500D01*
X141488097Y-99635494D01*
X141528648Y-99631500D01*
X142406068Y-99631500D01*
X144736567Y-101962000D01*
X144678061Y-101962000D01*
X144478102Y-102001774D01*
X144289744Y-102079795D01*
X144152497Y-102171500D01*
X134961934Y-102171500D01*
X132524500Y-99734068D01*
X132524500Y-88352932D01*
X132924493Y-87952939D01*
X132917445Y-87976174D01*
G36*
X137166324Y-85545910D02*
G01*
X137287645Y-85775800D01*
X138480800Y-85775800D01*
X138480800Y-85755800D01*
X138734800Y-85755800D01*
X138734800Y-85775800D01*
X139927955Y-85775800D01*
X140049276Y-85545910D01*
X140013755Y-85428801D01*
X152180969Y-85428801D01*
X152360044Y-85607876D01*
X152358887Y-85611689D01*
X152330215Y-85902800D01*
X152358887Y-86193911D01*
X152443801Y-86473834D01*
X152581694Y-86731814D01*
X152767266Y-86957934D01*
X152993386Y-87143506D01*
X153048191Y-87172800D01*
X152993386Y-87202094D01*
X152767266Y-87387666D01*
X152581694Y-87613786D01*
X152579816Y-87617300D01*
X140785675Y-87617300D01*
X139861776Y-86693402D01*
X139879441Y-86669720D01*
X140004625Y-86406899D01*
X140049276Y-86259690D01*
X139927955Y-86029800D01*
X138734800Y-86029800D01*
X138734800Y-86049800D01*
X138480800Y-86049800D01*
X138480800Y-86029800D01*
X137287645Y-86029800D01*
X137166324Y-86259690D01*
X137201845Y-86376799D01*
X134707251Y-86376799D01*
X134666700Y-86372805D01*
X134626150Y-86376799D01*
X134626148Y-86376799D01*
X134504875Y-86388743D01*
X134481642Y-86395791D01*
X135448632Y-85428801D01*
X137201845Y-85428801D01*
X137166324Y-85545910D01*
X137166324Y-85545910D01*
G37*
X137166324Y-85545910D02*
X137287645Y-85775800D01*
X138480800Y-85775800D01*
X138480800Y-85755800D01*
X138734800Y-85755800D01*
X138734800Y-85775800D01*
X139927955Y-85775800D01*
X140049276Y-85545910D01*
X140013755Y-85428801D01*
X152180969Y-85428801D01*
X152360044Y-85607876D01*
X152358887Y-85611689D01*
X152330215Y-85902800D01*
X152358887Y-86193911D01*
X152443801Y-86473834D01*
X152581694Y-86731814D01*
X152767266Y-86957934D01*
X152993386Y-87143506D01*
X153048191Y-87172800D01*
X152993386Y-87202094D01*
X152767266Y-87387666D01*
X152581694Y-87613786D01*
X152579816Y-87617300D01*
X140785675Y-87617300D01*
X139861776Y-86693402D01*
X139879441Y-86669720D01*
X140004625Y-86406899D01*
X140049276Y-86259690D01*
X139927955Y-86029800D01*
X138734800Y-86029800D01*
X138734800Y-86049800D01*
X138480800Y-86049800D01*
X138480800Y-86029800D01*
X137287645Y-86029800D01*
X137166324Y-86259690D01*
X137201845Y-86376799D01*
X134707251Y-86376799D01*
X134666700Y-86372805D01*
X134626150Y-86376799D01*
X134626148Y-86376799D01*
X134504875Y-86388743D01*
X134481642Y-86395791D01*
X135448632Y-85428801D01*
X137201845Y-85428801D01*
X137166324Y-85545910D01*
G36*
X152521215Y-51581615D02*
G01*
X152441863Y-51678306D01*
X152382898Y-51788620D01*
X152346588Y-51908318D01*
X152334328Y-52032800D01*
X152334328Y-53732800D01*
X152346588Y-53857282D01*
X152382898Y-53976980D01*
X152441863Y-54087294D01*
X152521215Y-54183985D01*
X152617906Y-54263337D01*
X152728220Y-54322302D01*
X152797087Y-54343193D01*
X152767266Y-54367666D01*
X152581694Y-54593786D01*
X152443801Y-54851766D01*
X152358887Y-55131689D01*
X152330215Y-55422800D01*
X152358887Y-55713911D01*
X152443801Y-55993834D01*
X152581694Y-56251814D01*
X152767266Y-56477934D01*
X152993386Y-56663506D01*
X153048191Y-56692800D01*
X152993386Y-56722094D01*
X152767266Y-56907666D01*
X152581694Y-57133786D01*
X152443801Y-57391766D01*
X152358887Y-57671689D01*
X152330215Y-57962800D01*
X152358887Y-58253911D01*
X152443801Y-58533834D01*
X152581694Y-58791814D01*
X152767266Y-59017934D01*
X152993386Y-59203506D01*
X153048191Y-59232800D01*
X152993386Y-59262094D01*
X152767266Y-59447666D01*
X152581694Y-59673786D01*
X152443801Y-59931766D01*
X152358887Y-60211689D01*
X152330215Y-60502800D01*
X152358887Y-60793911D01*
X152396469Y-60917801D01*
X146190804Y-60917801D01*
X146053557Y-60826096D01*
X145865199Y-60748075D01*
X145665240Y-60708301D01*
X145461362Y-60708301D01*
X145261403Y-60748075D01*
X145073045Y-60826096D01*
X144903527Y-60939364D01*
X144759364Y-61083527D01*
X144646096Y-61253045D01*
X144568075Y-61441403D01*
X144528301Y-61641362D01*
X144528301Y-61845240D01*
X144568075Y-62045199D01*
X144646096Y-62233557D01*
X144759364Y-62403075D01*
X144903527Y-62547238D01*
X145073045Y-62660506D01*
X145261403Y-62738527D01*
X145461362Y-62778301D01*
X145665240Y-62778301D01*
X145865199Y-62738527D01*
X146053557Y-62660506D01*
X146190804Y-62568801D01*
X152414366Y-62568801D01*
X152358887Y-62751689D01*
X152330215Y-63042800D01*
X152358887Y-63333911D01*
X152414366Y-63516799D01*
X146216204Y-63516799D01*
X146078957Y-63425094D01*
X145890599Y-63347073D01*
X145690640Y-63307299D01*
X145486762Y-63307299D01*
X145286803Y-63347073D01*
X145098445Y-63425094D01*
X144928927Y-63538362D01*
X144784764Y-63682525D01*
X144671496Y-63852043D01*
X144593475Y-64040401D01*
X144553701Y-64240360D01*
X144553701Y-64444238D01*
X144593475Y-64644197D01*
X144671496Y-64832555D01*
X144784764Y-65002073D01*
X144928927Y-65146236D01*
X145098445Y-65259504D01*
X145286803Y-65337525D01*
X145486762Y-65377299D01*
X145690640Y-65377299D01*
X145890599Y-65337525D01*
X146078957Y-65259504D01*
X146216204Y-65167799D01*
X152396469Y-65167799D01*
X152358887Y-65291689D01*
X152330215Y-65582800D01*
X152358887Y-65873911D01*
X152414366Y-66056799D01*
X146216204Y-66056799D01*
X146078957Y-65965094D01*
X145890599Y-65887073D01*
X145690640Y-65847299D01*
X145486762Y-65847299D01*
X145286803Y-65887073D01*
X145098445Y-65965094D01*
X144928927Y-66078362D01*
X144784764Y-66222525D01*
X144671496Y-66392043D01*
X144593475Y-66580401D01*
X144553701Y-66780360D01*
X144553701Y-66984238D01*
X144593475Y-67184197D01*
X144671496Y-67372555D01*
X144784764Y-67542073D01*
X144928927Y-67686236D01*
X145098445Y-67799504D01*
X145286803Y-67877525D01*
X145486762Y-67917299D01*
X145690640Y-67917299D01*
X145890599Y-67877525D01*
X146078957Y-67799504D01*
X146216204Y-67707799D01*
X152396469Y-67707799D01*
X152358887Y-67831689D01*
X152330215Y-68122800D01*
X152358887Y-68413911D01*
X152414366Y-68596799D01*
X146343204Y-68596799D01*
X146205957Y-68505094D01*
X146017599Y-68427073D01*
X145817640Y-68387299D01*
X145613762Y-68387299D01*
X145413803Y-68427073D01*
X145225445Y-68505094D01*
X145055927Y-68618362D01*
X144911764Y-68762525D01*
X144798496Y-68932043D01*
X144720475Y-69120401D01*
X144680701Y-69320360D01*
X144680701Y-69524238D01*
X144720475Y-69724197D01*
X144798496Y-69912555D01*
X144911764Y-70082073D01*
X145055927Y-70226236D01*
X145225445Y-70339504D01*
X145413803Y-70417525D01*
X145613762Y-70457299D01*
X145817640Y-70457299D01*
X146017599Y-70417525D01*
X146205957Y-70339504D01*
X146343204Y-70247799D01*
X152396469Y-70247799D01*
X152358887Y-70371689D01*
X152330215Y-70662800D01*
X152358887Y-70953911D01*
X152414366Y-71136799D01*
X146216204Y-71136799D01*
X146078957Y-71045094D01*
X145890599Y-70967073D01*
X145690640Y-70927299D01*
X145486762Y-70927299D01*
X145286803Y-70967073D01*
X145098445Y-71045094D01*
X144928927Y-71158362D01*
X144784764Y-71302525D01*
X144671496Y-71472043D01*
X144593475Y-71660401D01*
X144553701Y-71860360D01*
X144553701Y-72064238D01*
X144593475Y-72264197D01*
X144671496Y-72452555D01*
X144784764Y-72622073D01*
X144928927Y-72766236D01*
X145098445Y-72879504D01*
X145286803Y-72957525D01*
X145486762Y-72997299D01*
X145690640Y-72997299D01*
X145890599Y-72957525D01*
X146078957Y-72879504D01*
X146216204Y-72787799D01*
X152396469Y-72787799D01*
X152358887Y-72911689D01*
X152330215Y-73202800D01*
X152358887Y-73493911D01*
X152396469Y-73617801D01*
X146275202Y-73617801D01*
X146137955Y-73526096D01*
X145949597Y-73448075D01*
X145749638Y-73408301D01*
X145545760Y-73408301D01*
X145345801Y-73448075D01*
X145157443Y-73526096D01*
X144987925Y-73639364D01*
X144843762Y-73783527D01*
X144730494Y-73953045D01*
X144652473Y-74141403D01*
X144612699Y-74341362D01*
X144612699Y-74545240D01*
X144652473Y-74745199D01*
X144730494Y-74933557D01*
X144843762Y-75103075D01*
X144987925Y-75247238D01*
X145157443Y-75360506D01*
X145345801Y-75438527D01*
X145545760Y-75478301D01*
X145749638Y-75478301D01*
X145949597Y-75438527D01*
X146137955Y-75360506D01*
X146275202Y-75268801D01*
X152414366Y-75268801D01*
X152358887Y-75451689D01*
X152330215Y-75742800D01*
X152358887Y-76033911D01*
X152443801Y-76313834D01*
X152581694Y-76571814D01*
X152767266Y-76797934D01*
X152993386Y-76983506D01*
X153048191Y-77012800D01*
X152993386Y-77042094D01*
X152767266Y-77227666D01*
X152581694Y-77453786D01*
X152443801Y-77711766D01*
X152358887Y-77991689D01*
X152330215Y-78282800D01*
X152358887Y-78573911D01*
X152360043Y-78577723D01*
X149699967Y-81237801D01*
X140033731Y-81237801D01*
X140071313Y-81113911D01*
X140099985Y-80822800D01*
X140071313Y-80531689D01*
X139986399Y-80251766D01*
X139848506Y-79993786D01*
X139662934Y-79767666D01*
X139436814Y-79582094D01*
X139382009Y-79552800D01*
X139436814Y-79523506D01*
X139662934Y-79337934D01*
X139848506Y-79111814D01*
X139986399Y-78853834D01*
X140071313Y-78573911D01*
X140099985Y-78282800D01*
X140071313Y-77991689D01*
X139986399Y-77711766D01*
X139848506Y-77453786D01*
X139662934Y-77227666D01*
X139436814Y-77042094D01*
X139382009Y-77012800D01*
X139436814Y-76983506D01*
X139662934Y-76797934D01*
X139848506Y-76571814D01*
X139986399Y-76313834D01*
X140071313Y-76033911D01*
X140099985Y-75742800D01*
X140071313Y-75451689D01*
X139986399Y-75171766D01*
X139848506Y-74913786D01*
X139662934Y-74687666D01*
X139436814Y-74502094D01*
X139382009Y-74472800D01*
X139436814Y-74443506D01*
X139662934Y-74257934D01*
X139848506Y-74031814D01*
X139986399Y-73773834D01*
X140071313Y-73493911D01*
X140099985Y-73202800D01*
X140071313Y-72911689D01*
X139986399Y-72631766D01*
X139848506Y-72373786D01*
X139662934Y-72147666D01*
X139436814Y-71962094D01*
X139382009Y-71932800D01*
X139436814Y-71903506D01*
X139662934Y-71717934D01*
X139848506Y-71491814D01*
X139986399Y-71233834D01*
X140071313Y-70953911D01*
X140099985Y-70662800D01*
X140071313Y-70371689D01*
X139986399Y-70091766D01*
X139848506Y-69833786D01*
X139662934Y-69607666D01*
X139436814Y-69422094D01*
X139382009Y-69392800D01*
X139436814Y-69363506D01*
X139662934Y-69177934D01*
X139848506Y-68951814D01*
X139986399Y-68693834D01*
X140071313Y-68413911D01*
X140099985Y-68122800D01*
X140071313Y-67831689D01*
X139986399Y-67551766D01*
X139848506Y-67293786D01*
X139662934Y-67067666D01*
X139436814Y-66882094D01*
X139382009Y-66852800D01*
X139436814Y-66823506D01*
X139662934Y-66637934D01*
X139848506Y-66411814D01*
X139986399Y-66153834D01*
X140071313Y-65873911D01*
X140099985Y-65582800D01*
X140071313Y-65291689D01*
X139986399Y-65011766D01*
X139848506Y-64753786D01*
X139662934Y-64527666D01*
X139436814Y-64342094D01*
X139382009Y-64312800D01*
X139436814Y-64283506D01*
X139662934Y-64097934D01*
X139848506Y-63871814D01*
X139986399Y-63613834D01*
X140071313Y-63333911D01*
X140099985Y-63042800D01*
X140071313Y-62751689D01*
X139986399Y-62471766D01*
X139848506Y-62213786D01*
X139662934Y-61987666D01*
X139436814Y-61802094D01*
X139382009Y-61772800D01*
X139436814Y-61743506D01*
X139662934Y-61557934D01*
X139848506Y-61331814D01*
X139986399Y-61073834D01*
X140071313Y-60793911D01*
X140099985Y-60502800D01*
X140071313Y-60211689D01*
X139986399Y-59931766D01*
X139848506Y-59673786D01*
X139662934Y-59447666D01*
X139436814Y-59262094D01*
X139382009Y-59232800D01*
X139436814Y-59203506D01*
X139662934Y-59017934D01*
X139848506Y-58791814D01*
X139986399Y-58533834D01*
X140071313Y-58253911D01*
X140099985Y-57962800D01*
X140071313Y-57671689D01*
X139986399Y-57391766D01*
X139848506Y-57133786D01*
X139662934Y-56907666D01*
X139436814Y-56722094D01*
X139382009Y-56692800D01*
X139436814Y-56663506D01*
X139662934Y-56477934D01*
X139848506Y-56251814D01*
X139986399Y-55993834D01*
X140071313Y-55713911D01*
X140099985Y-55422800D01*
X140071313Y-55131689D01*
X139986399Y-54851766D01*
X139848506Y-54593786D01*
X139662934Y-54367666D01*
X139436814Y-54182094D01*
X139382009Y-54152800D01*
X139436814Y-54123506D01*
X139662934Y-53937934D01*
X139848506Y-53711814D01*
X139986399Y-53453834D01*
X140071313Y-53173911D01*
X140099985Y-52882800D01*
X140071313Y-52591689D01*
X140070156Y-52587876D01*
X141125024Y-51533010D01*
X152580441Y-51533010D01*
X152521215Y-51581615D01*
X152521215Y-51581615D01*
G37*
X152521215Y-51581615D02*
X152441863Y-51678306D01*
X152382898Y-51788620D01*
X152346588Y-51908318D01*
X152334328Y-52032800D01*
X152334328Y-53732800D01*
X152346588Y-53857282D01*
X152382898Y-53976980D01*
X152441863Y-54087294D01*
X152521215Y-54183985D01*
X152617906Y-54263337D01*
X152728220Y-54322302D01*
X152797087Y-54343193D01*
X152767266Y-54367666D01*
X152581694Y-54593786D01*
X152443801Y-54851766D01*
X152358887Y-55131689D01*
X152330215Y-55422800D01*
X152358887Y-55713911D01*
X152443801Y-55993834D01*
X152581694Y-56251814D01*
X152767266Y-56477934D01*
X152993386Y-56663506D01*
X153048191Y-56692800D01*
X152993386Y-56722094D01*
X152767266Y-56907666D01*
X152581694Y-57133786D01*
X152443801Y-57391766D01*
X152358887Y-57671689D01*
X152330215Y-57962800D01*
X152358887Y-58253911D01*
X152443801Y-58533834D01*
X152581694Y-58791814D01*
X152767266Y-59017934D01*
X152993386Y-59203506D01*
X153048191Y-59232800D01*
X152993386Y-59262094D01*
X152767266Y-59447666D01*
X152581694Y-59673786D01*
X152443801Y-59931766D01*
X152358887Y-60211689D01*
X152330215Y-60502800D01*
X152358887Y-60793911D01*
X152396469Y-60917801D01*
X146190804Y-60917801D01*
X146053557Y-60826096D01*
X145865199Y-60748075D01*
X145665240Y-60708301D01*
X145461362Y-60708301D01*
X145261403Y-60748075D01*
X145073045Y-60826096D01*
X144903527Y-60939364D01*
X144759364Y-61083527D01*
X144646096Y-61253045D01*
X144568075Y-61441403D01*
X144528301Y-61641362D01*
X144528301Y-61845240D01*
X144568075Y-62045199D01*
X144646096Y-62233557D01*
X144759364Y-62403075D01*
X144903527Y-62547238D01*
X145073045Y-62660506D01*
X145261403Y-62738527D01*
X145461362Y-62778301D01*
X145665240Y-62778301D01*
X145865199Y-62738527D01*
X146053557Y-62660506D01*
X146190804Y-62568801D01*
X152414366Y-62568801D01*
X152358887Y-62751689D01*
X152330215Y-63042800D01*
X152358887Y-63333911D01*
X152414366Y-63516799D01*
X146216204Y-63516799D01*
X146078957Y-63425094D01*
X145890599Y-63347073D01*
X145690640Y-63307299D01*
X145486762Y-63307299D01*
X145286803Y-63347073D01*
X145098445Y-63425094D01*
X144928927Y-63538362D01*
X144784764Y-63682525D01*
X144671496Y-63852043D01*
X144593475Y-64040401D01*
X144553701Y-64240360D01*
X144553701Y-64444238D01*
X144593475Y-64644197D01*
X144671496Y-64832555D01*
X144784764Y-65002073D01*
X144928927Y-65146236D01*
X145098445Y-65259504D01*
X145286803Y-65337525D01*
X145486762Y-65377299D01*
X145690640Y-65377299D01*
X145890599Y-65337525D01*
X146078957Y-65259504D01*
X146216204Y-65167799D01*
X152396469Y-65167799D01*
X152358887Y-65291689D01*
X152330215Y-65582800D01*
X152358887Y-65873911D01*
X152414366Y-66056799D01*
X146216204Y-66056799D01*
X146078957Y-65965094D01*
X145890599Y-65887073D01*
X145690640Y-65847299D01*
X145486762Y-65847299D01*
X145286803Y-65887073D01*
X145098445Y-65965094D01*
X144928927Y-66078362D01*
X144784764Y-66222525D01*
X144671496Y-66392043D01*
X144593475Y-66580401D01*
X144553701Y-66780360D01*
X144553701Y-66984238D01*
X144593475Y-67184197D01*
X144671496Y-67372555D01*
X144784764Y-67542073D01*
X144928927Y-67686236D01*
X145098445Y-67799504D01*
X145286803Y-67877525D01*
X145486762Y-67917299D01*
X145690640Y-67917299D01*
X145890599Y-67877525D01*
X146078957Y-67799504D01*
X146216204Y-67707799D01*
X152396469Y-67707799D01*
X152358887Y-67831689D01*
X152330215Y-68122800D01*
X152358887Y-68413911D01*
X152414366Y-68596799D01*
X146343204Y-68596799D01*
X146205957Y-68505094D01*
X146017599Y-68427073D01*
X145817640Y-68387299D01*
X145613762Y-68387299D01*
X145413803Y-68427073D01*
X145225445Y-68505094D01*
X145055927Y-68618362D01*
X144911764Y-68762525D01*
X144798496Y-68932043D01*
X144720475Y-69120401D01*
X144680701Y-69320360D01*
X144680701Y-69524238D01*
X144720475Y-69724197D01*
X144798496Y-69912555D01*
X144911764Y-70082073D01*
X145055927Y-70226236D01*
X145225445Y-70339504D01*
X145413803Y-70417525D01*
X145613762Y-70457299D01*
X145817640Y-70457299D01*
X146017599Y-70417525D01*
X146205957Y-70339504D01*
X146343204Y-70247799D01*
X152396469Y-70247799D01*
X152358887Y-70371689D01*
X152330215Y-70662800D01*
X152358887Y-70953911D01*
X152414366Y-71136799D01*
X146216204Y-71136799D01*
X146078957Y-71045094D01*
X145890599Y-70967073D01*
X145690640Y-70927299D01*
X145486762Y-70927299D01*
X145286803Y-70967073D01*
X145098445Y-71045094D01*
X144928927Y-71158362D01*
X144784764Y-71302525D01*
X144671496Y-71472043D01*
X144593475Y-71660401D01*
X144553701Y-71860360D01*
X144553701Y-72064238D01*
X144593475Y-72264197D01*
X144671496Y-72452555D01*
X144784764Y-72622073D01*
X144928927Y-72766236D01*
X145098445Y-72879504D01*
X145286803Y-72957525D01*
X145486762Y-72997299D01*
X145690640Y-72997299D01*
X145890599Y-72957525D01*
X146078957Y-72879504D01*
X146216204Y-72787799D01*
X152396469Y-72787799D01*
X152358887Y-72911689D01*
X152330215Y-73202800D01*
X152358887Y-73493911D01*
X152396469Y-73617801D01*
X146275202Y-73617801D01*
X146137955Y-73526096D01*
X145949597Y-73448075D01*
X145749638Y-73408301D01*
X145545760Y-73408301D01*
X145345801Y-73448075D01*
X145157443Y-73526096D01*
X144987925Y-73639364D01*
X144843762Y-73783527D01*
X144730494Y-73953045D01*
X144652473Y-74141403D01*
X144612699Y-74341362D01*
X144612699Y-74545240D01*
X144652473Y-74745199D01*
X144730494Y-74933557D01*
X144843762Y-75103075D01*
X144987925Y-75247238D01*
X145157443Y-75360506D01*
X145345801Y-75438527D01*
X145545760Y-75478301D01*
X145749638Y-75478301D01*
X145949597Y-75438527D01*
X146137955Y-75360506D01*
X146275202Y-75268801D01*
X152414366Y-75268801D01*
X152358887Y-75451689D01*
X152330215Y-75742800D01*
X152358887Y-76033911D01*
X152443801Y-76313834D01*
X152581694Y-76571814D01*
X152767266Y-76797934D01*
X152993386Y-76983506D01*
X153048191Y-77012800D01*
X152993386Y-77042094D01*
X152767266Y-77227666D01*
X152581694Y-77453786D01*
X152443801Y-77711766D01*
X152358887Y-77991689D01*
X152330215Y-78282800D01*
X152358887Y-78573911D01*
X152360043Y-78577723D01*
X149699967Y-81237801D01*
X140033731Y-81237801D01*
X140071313Y-81113911D01*
X140099985Y-80822800D01*
X140071313Y-80531689D01*
X139986399Y-80251766D01*
X139848506Y-79993786D01*
X139662934Y-79767666D01*
X139436814Y-79582094D01*
X139382009Y-79552800D01*
X139436814Y-79523506D01*
X139662934Y-79337934D01*
X139848506Y-79111814D01*
X139986399Y-78853834D01*
X140071313Y-78573911D01*
X140099985Y-78282800D01*
X140071313Y-77991689D01*
X139986399Y-77711766D01*
X139848506Y-77453786D01*
X139662934Y-77227666D01*
X139436814Y-77042094D01*
X139382009Y-77012800D01*
X139436814Y-76983506D01*
X139662934Y-76797934D01*
X139848506Y-76571814D01*
X139986399Y-76313834D01*
X140071313Y-76033911D01*
X140099985Y-75742800D01*
X140071313Y-75451689D01*
X139986399Y-75171766D01*
X139848506Y-74913786D01*
X139662934Y-74687666D01*
X139436814Y-74502094D01*
X139382009Y-74472800D01*
X139436814Y-74443506D01*
X139662934Y-74257934D01*
X139848506Y-74031814D01*
X139986399Y-73773834D01*
X140071313Y-73493911D01*
X140099985Y-73202800D01*
X140071313Y-72911689D01*
X139986399Y-72631766D01*
X139848506Y-72373786D01*
X139662934Y-72147666D01*
X139436814Y-71962094D01*
X139382009Y-71932800D01*
X139436814Y-71903506D01*
X139662934Y-71717934D01*
X139848506Y-71491814D01*
X139986399Y-71233834D01*
X140071313Y-70953911D01*
X140099985Y-70662800D01*
X140071313Y-70371689D01*
X139986399Y-70091766D01*
X139848506Y-69833786D01*
X139662934Y-69607666D01*
X139436814Y-69422094D01*
X139382009Y-69392800D01*
X139436814Y-69363506D01*
X139662934Y-69177934D01*
X139848506Y-68951814D01*
X139986399Y-68693834D01*
X140071313Y-68413911D01*
X140099985Y-68122800D01*
X140071313Y-67831689D01*
X139986399Y-67551766D01*
X139848506Y-67293786D01*
X139662934Y-67067666D01*
X139436814Y-66882094D01*
X139382009Y-66852800D01*
X139436814Y-66823506D01*
X139662934Y-66637934D01*
X139848506Y-66411814D01*
X139986399Y-66153834D01*
X140071313Y-65873911D01*
X140099985Y-65582800D01*
X140071313Y-65291689D01*
X139986399Y-65011766D01*
X139848506Y-64753786D01*
X139662934Y-64527666D01*
X139436814Y-64342094D01*
X139382009Y-64312800D01*
X139436814Y-64283506D01*
X139662934Y-64097934D01*
X139848506Y-63871814D01*
X139986399Y-63613834D01*
X140071313Y-63333911D01*
X140099985Y-63042800D01*
X140071313Y-62751689D01*
X139986399Y-62471766D01*
X139848506Y-62213786D01*
X139662934Y-61987666D01*
X139436814Y-61802094D01*
X139382009Y-61772800D01*
X139436814Y-61743506D01*
X139662934Y-61557934D01*
X139848506Y-61331814D01*
X139986399Y-61073834D01*
X140071313Y-60793911D01*
X140099985Y-60502800D01*
X140071313Y-60211689D01*
X139986399Y-59931766D01*
X139848506Y-59673786D01*
X139662934Y-59447666D01*
X139436814Y-59262094D01*
X139382009Y-59232800D01*
X139436814Y-59203506D01*
X139662934Y-59017934D01*
X139848506Y-58791814D01*
X139986399Y-58533834D01*
X140071313Y-58253911D01*
X140099985Y-57962800D01*
X140071313Y-57671689D01*
X139986399Y-57391766D01*
X139848506Y-57133786D01*
X139662934Y-56907666D01*
X139436814Y-56722094D01*
X139382009Y-56692800D01*
X139436814Y-56663506D01*
X139662934Y-56477934D01*
X139848506Y-56251814D01*
X139986399Y-55993834D01*
X140071313Y-55713911D01*
X140099985Y-55422800D01*
X140071313Y-55131689D01*
X139986399Y-54851766D01*
X139848506Y-54593786D01*
X139662934Y-54367666D01*
X139436814Y-54182094D01*
X139382009Y-54152800D01*
X139436814Y-54123506D01*
X139662934Y-53937934D01*
X139848506Y-53711814D01*
X139986399Y-53453834D01*
X140071313Y-53173911D01*
X140099985Y-52882800D01*
X140071313Y-52591689D01*
X140070156Y-52587876D01*
X141125024Y-51533010D01*
X152580441Y-51533010D01*
X152521215Y-51581615D01*
M02*
