G04 #@! TF.GenerationSoftware,KiCad,Pcbnew,(5.1.2-1)-1*
G04 #@! TF.CreationDate,2020-06-13T21:23:10-04:00*
G04 #@! TF.ProjectId,ArcadePanel,41726361-6465-4506-916e-656c2e6b6963,rev?*
G04 #@! TF.SameCoordinates,Original*
G04 #@! TF.FileFunction,Soldermask,Bot*
G04 #@! TF.FilePolarity,Negative*
%FSLAX46Y46*%
G04 Gerber Fmt 4.6, Leading zero omitted, Abs format (unit mm)*
G04 Created by KiCad (PCBNEW (5.1.2-1)-1) date 2020-06-13 21:23:10*
%MOMM*%
%LPD*%
G04 APERTURE LIST*
%ADD10C,0.100000*%
G04 APERTURE END LIST*
D10*
G36*
X207010000Y-59817000D02*
G01*
X151130000Y-59817000D01*
X151130000Y-53340000D01*
X207010000Y-53340000D01*
X207010000Y-59817000D01*
G37*
X207010000Y-59817000D02*
X151130000Y-59817000D01*
X151130000Y-53340000D01*
X207010000Y-53340000D01*
X207010000Y-59817000D01*
G36*
X238262000Y-122692000D02*
G01*
X236210000Y-122692000D01*
X236210000Y-120640000D01*
X238262000Y-120640000D01*
X238262000Y-122692000D01*
X238262000Y-122692000D01*
G37*
G36*
X232535272Y-120679428D02*
G01*
X232721991Y-120756770D01*
X232721993Y-120756771D01*
X232890037Y-120869054D01*
X233032946Y-121011963D01*
X233145229Y-121180007D01*
X233145230Y-121180009D01*
X233222572Y-121366728D01*
X233262000Y-121564947D01*
X233262000Y-121767053D01*
X233222572Y-121965272D01*
X233145230Y-122151991D01*
X233145229Y-122151993D01*
X233032946Y-122320037D01*
X232890037Y-122462946D01*
X232721993Y-122575229D01*
X232721992Y-122575230D01*
X232721991Y-122575230D01*
X232535272Y-122652572D01*
X232337053Y-122692000D01*
X232134947Y-122692000D01*
X231936728Y-122652572D01*
X231750009Y-122575230D01*
X231750008Y-122575230D01*
X231750007Y-122575229D01*
X231581963Y-122462946D01*
X231439054Y-122320037D01*
X231326771Y-122151993D01*
X231326770Y-122151991D01*
X231249428Y-121965272D01*
X231210000Y-121767053D01*
X231210000Y-121564947D01*
X231249428Y-121366728D01*
X231326770Y-121180009D01*
X231326771Y-121180007D01*
X231439054Y-121011963D01*
X231581963Y-120869054D01*
X231750007Y-120756771D01*
X231750009Y-120756770D01*
X231936728Y-120679428D01*
X232134947Y-120640000D01*
X232337053Y-120640000D01*
X232535272Y-120679428D01*
X232535272Y-120679428D01*
G37*
G36*
X227535272Y-120679428D02*
G01*
X227721991Y-120756770D01*
X227721993Y-120756771D01*
X227890037Y-120869054D01*
X228032946Y-121011963D01*
X228145229Y-121180007D01*
X228145230Y-121180009D01*
X228222572Y-121366728D01*
X228262000Y-121564947D01*
X228262000Y-121767053D01*
X228222572Y-121965272D01*
X228145230Y-122151991D01*
X228145229Y-122151993D01*
X228032946Y-122320037D01*
X227890037Y-122462946D01*
X227721993Y-122575229D01*
X227721992Y-122575230D01*
X227721991Y-122575230D01*
X227535272Y-122652572D01*
X227337053Y-122692000D01*
X227134947Y-122692000D01*
X226936728Y-122652572D01*
X226750009Y-122575230D01*
X226750008Y-122575230D01*
X226750007Y-122575229D01*
X226581963Y-122462946D01*
X226439054Y-122320037D01*
X226326771Y-122151993D01*
X226326770Y-122151991D01*
X226249428Y-121965272D01*
X226210000Y-121767053D01*
X226210000Y-121564947D01*
X226249428Y-121366728D01*
X226326770Y-121180009D01*
X226326771Y-121180007D01*
X226439054Y-121011963D01*
X226581963Y-120869054D01*
X226750007Y-120756771D01*
X226750009Y-120756770D01*
X226936728Y-120679428D01*
X227134947Y-120640000D01*
X227337053Y-120640000D01*
X227535272Y-120679428D01*
X227535272Y-120679428D01*
G37*
G36*
X222535272Y-120679428D02*
G01*
X222721991Y-120756770D01*
X222721993Y-120756771D01*
X222890037Y-120869054D01*
X223032946Y-121011963D01*
X223145229Y-121180007D01*
X223145230Y-121180009D01*
X223222572Y-121366728D01*
X223262000Y-121564947D01*
X223262000Y-121767053D01*
X223222572Y-121965272D01*
X223145230Y-122151991D01*
X223145229Y-122151993D01*
X223032946Y-122320037D01*
X222890037Y-122462946D01*
X222721993Y-122575229D01*
X222721992Y-122575230D01*
X222721991Y-122575230D01*
X222535272Y-122652572D01*
X222337053Y-122692000D01*
X222134947Y-122692000D01*
X221936728Y-122652572D01*
X221750009Y-122575230D01*
X221750008Y-122575230D01*
X221750007Y-122575229D01*
X221581963Y-122462946D01*
X221439054Y-122320037D01*
X221326771Y-122151993D01*
X221326770Y-122151991D01*
X221249428Y-121965272D01*
X221210000Y-121767053D01*
X221210000Y-121564947D01*
X221249428Y-121366728D01*
X221326770Y-121180009D01*
X221326771Y-121180007D01*
X221439054Y-121011963D01*
X221581963Y-120869054D01*
X221750007Y-120756771D01*
X221750009Y-120756770D01*
X221936728Y-120679428D01*
X222134947Y-120640000D01*
X222337053Y-120640000D01*
X222535272Y-120679428D01*
X222535272Y-120679428D01*
G37*
G36*
X217535272Y-120679428D02*
G01*
X217721991Y-120756770D01*
X217721993Y-120756771D01*
X217890037Y-120869054D01*
X218032946Y-121011963D01*
X218145229Y-121180007D01*
X218145230Y-121180009D01*
X218222572Y-121366728D01*
X218262000Y-121564947D01*
X218262000Y-121767053D01*
X218222572Y-121965272D01*
X218145230Y-122151991D01*
X218145229Y-122151993D01*
X218032946Y-122320037D01*
X217890037Y-122462946D01*
X217721993Y-122575229D01*
X217721992Y-122575230D01*
X217721991Y-122575230D01*
X217535272Y-122652572D01*
X217337053Y-122692000D01*
X217134947Y-122692000D01*
X216936728Y-122652572D01*
X216750009Y-122575230D01*
X216750008Y-122575230D01*
X216750007Y-122575229D01*
X216581963Y-122462946D01*
X216439054Y-122320037D01*
X216326771Y-122151993D01*
X216326770Y-122151991D01*
X216249428Y-121965272D01*
X216210000Y-121767053D01*
X216210000Y-121564947D01*
X216249428Y-121366728D01*
X216326770Y-121180009D01*
X216326771Y-121180007D01*
X216439054Y-121011963D01*
X216581963Y-120869054D01*
X216750007Y-120756771D01*
X216750009Y-120756770D01*
X216936728Y-120679428D01*
X217134947Y-120640000D01*
X217337053Y-120640000D01*
X217535272Y-120679428D01*
X217535272Y-120679428D01*
G37*
G36*
X212535272Y-120679428D02*
G01*
X212721991Y-120756770D01*
X212721993Y-120756771D01*
X212890037Y-120869054D01*
X213032946Y-121011963D01*
X213145229Y-121180007D01*
X213145230Y-121180009D01*
X213222572Y-121366728D01*
X213262000Y-121564947D01*
X213262000Y-121767053D01*
X213222572Y-121965272D01*
X213145230Y-122151991D01*
X213145229Y-122151993D01*
X213032946Y-122320037D01*
X212890037Y-122462946D01*
X212721993Y-122575229D01*
X212721992Y-122575230D01*
X212721991Y-122575230D01*
X212535272Y-122652572D01*
X212337053Y-122692000D01*
X212134947Y-122692000D01*
X211936728Y-122652572D01*
X211750009Y-122575230D01*
X211750008Y-122575230D01*
X211750007Y-122575229D01*
X211581963Y-122462946D01*
X211439054Y-122320037D01*
X211326771Y-122151993D01*
X211326770Y-122151991D01*
X211249428Y-121965272D01*
X211210000Y-121767053D01*
X211210000Y-121564947D01*
X211249428Y-121366728D01*
X211326770Y-121180009D01*
X211326771Y-121180007D01*
X211439054Y-121011963D01*
X211581963Y-120869054D01*
X211750007Y-120756771D01*
X211750009Y-120756770D01*
X211936728Y-120679428D01*
X212134947Y-120640000D01*
X212337053Y-120640000D01*
X212535272Y-120679428D01*
X212535272Y-120679428D01*
G37*
G36*
X207535272Y-120679428D02*
G01*
X207721991Y-120756770D01*
X207721993Y-120756771D01*
X207890037Y-120869054D01*
X208032946Y-121011963D01*
X208145229Y-121180007D01*
X208145230Y-121180009D01*
X208222572Y-121366728D01*
X208262000Y-121564947D01*
X208262000Y-121767053D01*
X208222572Y-121965272D01*
X208145230Y-122151991D01*
X208145229Y-122151993D01*
X208032946Y-122320037D01*
X207890037Y-122462946D01*
X207721993Y-122575229D01*
X207721992Y-122575230D01*
X207721991Y-122575230D01*
X207535272Y-122652572D01*
X207337053Y-122692000D01*
X207134947Y-122692000D01*
X206936728Y-122652572D01*
X206750009Y-122575230D01*
X206750008Y-122575230D01*
X206750007Y-122575229D01*
X206581963Y-122462946D01*
X206439054Y-122320037D01*
X206326771Y-122151993D01*
X206326770Y-122151991D01*
X206249428Y-121965272D01*
X206210000Y-121767053D01*
X206210000Y-121564947D01*
X206249428Y-121366728D01*
X206326770Y-121180009D01*
X206326771Y-121180007D01*
X206439054Y-121011963D01*
X206581963Y-120869054D01*
X206750007Y-120756771D01*
X206750009Y-120756770D01*
X206936728Y-120679428D01*
X207134947Y-120640000D01*
X207337053Y-120640000D01*
X207535272Y-120679428D01*
X207535272Y-120679428D01*
G37*
G36*
X202535272Y-120679428D02*
G01*
X202721991Y-120756770D01*
X202721993Y-120756771D01*
X202890037Y-120869054D01*
X203032946Y-121011963D01*
X203145229Y-121180007D01*
X203145230Y-121180009D01*
X203222572Y-121366728D01*
X203262000Y-121564947D01*
X203262000Y-121767053D01*
X203222572Y-121965272D01*
X203145230Y-122151991D01*
X203145229Y-122151993D01*
X203032946Y-122320037D01*
X202890037Y-122462946D01*
X202721993Y-122575229D01*
X202721992Y-122575230D01*
X202721991Y-122575230D01*
X202535272Y-122652572D01*
X202337053Y-122692000D01*
X202134947Y-122692000D01*
X201936728Y-122652572D01*
X201750009Y-122575230D01*
X201750008Y-122575230D01*
X201750007Y-122575229D01*
X201581963Y-122462946D01*
X201439054Y-122320037D01*
X201326771Y-122151993D01*
X201326770Y-122151991D01*
X201249428Y-121965272D01*
X201210000Y-121767053D01*
X201210000Y-121564947D01*
X201249428Y-121366728D01*
X201326770Y-121180009D01*
X201326771Y-121180007D01*
X201439054Y-121011963D01*
X201581963Y-120869054D01*
X201750007Y-120756771D01*
X201750009Y-120756770D01*
X201936728Y-120679428D01*
X202134947Y-120640000D01*
X202337053Y-120640000D01*
X202535272Y-120679428D01*
X202535272Y-120679428D01*
G37*
G36*
X197535272Y-120679428D02*
G01*
X197721991Y-120756770D01*
X197721993Y-120756771D01*
X197890037Y-120869054D01*
X198032946Y-121011963D01*
X198145229Y-121180007D01*
X198145230Y-121180009D01*
X198222572Y-121366728D01*
X198262000Y-121564947D01*
X198262000Y-121767053D01*
X198222572Y-121965272D01*
X198145230Y-122151991D01*
X198145229Y-122151993D01*
X198032946Y-122320037D01*
X197890037Y-122462946D01*
X197721993Y-122575229D01*
X197721992Y-122575230D01*
X197721991Y-122575230D01*
X197535272Y-122652572D01*
X197337053Y-122692000D01*
X197134947Y-122692000D01*
X196936728Y-122652572D01*
X196750009Y-122575230D01*
X196750008Y-122575230D01*
X196750007Y-122575229D01*
X196581963Y-122462946D01*
X196439054Y-122320037D01*
X196326771Y-122151993D01*
X196326770Y-122151991D01*
X196249428Y-121965272D01*
X196210000Y-121767053D01*
X196210000Y-121564947D01*
X196249428Y-121366728D01*
X196326770Y-121180009D01*
X196326771Y-121180007D01*
X196439054Y-121011963D01*
X196581963Y-120869054D01*
X196750007Y-120756771D01*
X196750009Y-120756770D01*
X196936728Y-120679428D01*
X197134947Y-120640000D01*
X197337053Y-120640000D01*
X197535272Y-120679428D01*
X197535272Y-120679428D01*
G37*
G36*
X192535272Y-120679428D02*
G01*
X192721991Y-120756770D01*
X192721993Y-120756771D01*
X192890037Y-120869054D01*
X193032946Y-121011963D01*
X193145229Y-121180007D01*
X193145230Y-121180009D01*
X193222572Y-121366728D01*
X193262000Y-121564947D01*
X193262000Y-121767053D01*
X193222572Y-121965272D01*
X193145230Y-122151991D01*
X193145229Y-122151993D01*
X193032946Y-122320037D01*
X192890037Y-122462946D01*
X192721993Y-122575229D01*
X192721992Y-122575230D01*
X192721991Y-122575230D01*
X192535272Y-122652572D01*
X192337053Y-122692000D01*
X192134947Y-122692000D01*
X191936728Y-122652572D01*
X191750009Y-122575230D01*
X191750008Y-122575230D01*
X191750007Y-122575229D01*
X191581963Y-122462946D01*
X191439054Y-122320037D01*
X191326771Y-122151993D01*
X191326770Y-122151991D01*
X191249428Y-121965272D01*
X191210000Y-121767053D01*
X191210000Y-121564947D01*
X191249428Y-121366728D01*
X191326770Y-121180009D01*
X191326771Y-121180007D01*
X191439054Y-121011963D01*
X191581963Y-120869054D01*
X191750007Y-120756771D01*
X191750009Y-120756770D01*
X191936728Y-120679428D01*
X192134947Y-120640000D01*
X192337053Y-120640000D01*
X192535272Y-120679428D01*
X192535272Y-120679428D01*
G37*
G36*
X187535272Y-120679428D02*
G01*
X187721991Y-120756770D01*
X187721993Y-120756771D01*
X187890037Y-120869054D01*
X188032946Y-121011963D01*
X188145229Y-121180007D01*
X188145230Y-121180009D01*
X188222572Y-121366728D01*
X188262000Y-121564947D01*
X188262000Y-121767053D01*
X188222572Y-121965272D01*
X188145230Y-122151991D01*
X188145229Y-122151993D01*
X188032946Y-122320037D01*
X187890037Y-122462946D01*
X187721993Y-122575229D01*
X187721992Y-122575230D01*
X187721991Y-122575230D01*
X187535272Y-122652572D01*
X187337053Y-122692000D01*
X187134947Y-122692000D01*
X186936728Y-122652572D01*
X186750009Y-122575230D01*
X186750008Y-122575230D01*
X186750007Y-122575229D01*
X186581963Y-122462946D01*
X186439054Y-122320037D01*
X186326771Y-122151993D01*
X186326770Y-122151991D01*
X186249428Y-121965272D01*
X186210000Y-121767053D01*
X186210000Y-121564947D01*
X186249428Y-121366728D01*
X186326770Y-121180009D01*
X186326771Y-121180007D01*
X186439054Y-121011963D01*
X186581963Y-120869054D01*
X186750007Y-120756771D01*
X186750009Y-120756770D01*
X186936728Y-120679428D01*
X187134947Y-120640000D01*
X187337053Y-120640000D01*
X187535272Y-120679428D01*
X187535272Y-120679428D01*
G37*
G36*
X182535272Y-120679428D02*
G01*
X182721991Y-120756770D01*
X182721993Y-120756771D01*
X182890037Y-120869054D01*
X183032946Y-121011963D01*
X183145229Y-121180007D01*
X183145230Y-121180009D01*
X183222572Y-121366728D01*
X183262000Y-121564947D01*
X183262000Y-121767053D01*
X183222572Y-121965272D01*
X183145230Y-122151991D01*
X183145229Y-122151993D01*
X183032946Y-122320037D01*
X182890037Y-122462946D01*
X182721993Y-122575229D01*
X182721992Y-122575230D01*
X182721991Y-122575230D01*
X182535272Y-122652572D01*
X182337053Y-122692000D01*
X182134947Y-122692000D01*
X181936728Y-122652572D01*
X181750009Y-122575230D01*
X181750008Y-122575230D01*
X181750007Y-122575229D01*
X181581963Y-122462946D01*
X181439054Y-122320037D01*
X181326771Y-122151993D01*
X181326770Y-122151991D01*
X181249428Y-121965272D01*
X181210000Y-121767053D01*
X181210000Y-121564947D01*
X181249428Y-121366728D01*
X181326770Y-121180009D01*
X181326771Y-121180007D01*
X181439054Y-121011963D01*
X181581963Y-120869054D01*
X181750007Y-120756771D01*
X181750009Y-120756770D01*
X181936728Y-120679428D01*
X182134947Y-120640000D01*
X182337053Y-120640000D01*
X182535272Y-120679428D01*
X182535272Y-120679428D01*
G37*
G36*
X177048000Y-122692000D02*
G01*
X174996000Y-122692000D01*
X174996000Y-120640000D01*
X177048000Y-120640000D01*
X177048000Y-122692000D01*
X177048000Y-122692000D01*
G37*
G36*
X171321272Y-120679428D02*
G01*
X171507991Y-120756770D01*
X171507993Y-120756771D01*
X171676037Y-120869054D01*
X171818946Y-121011963D01*
X171931229Y-121180007D01*
X171931230Y-121180009D01*
X172008572Y-121366728D01*
X172048000Y-121564947D01*
X172048000Y-121767053D01*
X172008572Y-121965272D01*
X171931230Y-122151991D01*
X171931229Y-122151993D01*
X171818946Y-122320037D01*
X171676037Y-122462946D01*
X171507993Y-122575229D01*
X171507992Y-122575230D01*
X171507991Y-122575230D01*
X171321272Y-122652572D01*
X171123053Y-122692000D01*
X170920947Y-122692000D01*
X170722728Y-122652572D01*
X170536009Y-122575230D01*
X170536008Y-122575230D01*
X170536007Y-122575229D01*
X170367963Y-122462946D01*
X170225054Y-122320037D01*
X170112771Y-122151993D01*
X170112770Y-122151991D01*
X170035428Y-121965272D01*
X169996000Y-121767053D01*
X169996000Y-121564947D01*
X170035428Y-121366728D01*
X170112770Y-121180009D01*
X170112771Y-121180007D01*
X170225054Y-121011963D01*
X170367963Y-120869054D01*
X170536007Y-120756771D01*
X170536009Y-120756770D01*
X170722728Y-120679428D01*
X170920947Y-120640000D01*
X171123053Y-120640000D01*
X171321272Y-120679428D01*
X171321272Y-120679428D01*
G37*
G36*
X166321272Y-120679428D02*
G01*
X166507991Y-120756770D01*
X166507993Y-120756771D01*
X166676037Y-120869054D01*
X166818946Y-121011963D01*
X166931229Y-121180007D01*
X166931230Y-121180009D01*
X167008572Y-121366728D01*
X167048000Y-121564947D01*
X167048000Y-121767053D01*
X167008572Y-121965272D01*
X166931230Y-122151991D01*
X166931229Y-122151993D01*
X166818946Y-122320037D01*
X166676037Y-122462946D01*
X166507993Y-122575229D01*
X166507992Y-122575230D01*
X166507991Y-122575230D01*
X166321272Y-122652572D01*
X166123053Y-122692000D01*
X165920947Y-122692000D01*
X165722728Y-122652572D01*
X165536009Y-122575230D01*
X165536008Y-122575230D01*
X165536007Y-122575229D01*
X165367963Y-122462946D01*
X165225054Y-122320037D01*
X165112771Y-122151993D01*
X165112770Y-122151991D01*
X165035428Y-121965272D01*
X164996000Y-121767053D01*
X164996000Y-121564947D01*
X165035428Y-121366728D01*
X165112770Y-121180009D01*
X165112771Y-121180007D01*
X165225054Y-121011963D01*
X165367963Y-120869054D01*
X165536007Y-120756771D01*
X165536009Y-120756770D01*
X165722728Y-120679428D01*
X165920947Y-120640000D01*
X166123053Y-120640000D01*
X166321272Y-120679428D01*
X166321272Y-120679428D01*
G37*
G36*
X161321272Y-120679428D02*
G01*
X161507991Y-120756770D01*
X161507993Y-120756771D01*
X161676037Y-120869054D01*
X161818946Y-121011963D01*
X161931229Y-121180007D01*
X161931230Y-121180009D01*
X162008572Y-121366728D01*
X162048000Y-121564947D01*
X162048000Y-121767053D01*
X162008572Y-121965272D01*
X161931230Y-122151991D01*
X161931229Y-122151993D01*
X161818946Y-122320037D01*
X161676037Y-122462946D01*
X161507993Y-122575229D01*
X161507992Y-122575230D01*
X161507991Y-122575230D01*
X161321272Y-122652572D01*
X161123053Y-122692000D01*
X160920947Y-122692000D01*
X160722728Y-122652572D01*
X160536009Y-122575230D01*
X160536008Y-122575230D01*
X160536007Y-122575229D01*
X160367963Y-122462946D01*
X160225054Y-122320037D01*
X160112771Y-122151993D01*
X160112770Y-122151991D01*
X160035428Y-121965272D01*
X159996000Y-121767053D01*
X159996000Y-121564947D01*
X160035428Y-121366728D01*
X160112770Y-121180009D01*
X160112771Y-121180007D01*
X160225054Y-121011963D01*
X160367963Y-120869054D01*
X160536007Y-120756771D01*
X160536009Y-120756770D01*
X160722728Y-120679428D01*
X160920947Y-120640000D01*
X161123053Y-120640000D01*
X161321272Y-120679428D01*
X161321272Y-120679428D01*
G37*
G36*
X156321272Y-120679428D02*
G01*
X156507991Y-120756770D01*
X156507993Y-120756771D01*
X156676037Y-120869054D01*
X156818946Y-121011963D01*
X156931229Y-121180007D01*
X156931230Y-121180009D01*
X157008572Y-121366728D01*
X157048000Y-121564947D01*
X157048000Y-121767053D01*
X157008572Y-121965272D01*
X156931230Y-122151991D01*
X156931229Y-122151993D01*
X156818946Y-122320037D01*
X156676037Y-122462946D01*
X156507993Y-122575229D01*
X156507992Y-122575230D01*
X156507991Y-122575230D01*
X156321272Y-122652572D01*
X156123053Y-122692000D01*
X155920947Y-122692000D01*
X155722728Y-122652572D01*
X155536009Y-122575230D01*
X155536008Y-122575230D01*
X155536007Y-122575229D01*
X155367963Y-122462946D01*
X155225054Y-122320037D01*
X155112771Y-122151993D01*
X155112770Y-122151991D01*
X155035428Y-121965272D01*
X154996000Y-121767053D01*
X154996000Y-121564947D01*
X155035428Y-121366728D01*
X155112770Y-121180009D01*
X155112771Y-121180007D01*
X155225054Y-121011963D01*
X155367963Y-120869054D01*
X155536007Y-120756771D01*
X155536009Y-120756770D01*
X155722728Y-120679428D01*
X155920947Y-120640000D01*
X156123053Y-120640000D01*
X156321272Y-120679428D01*
X156321272Y-120679428D01*
G37*
G36*
X151321272Y-120679428D02*
G01*
X151507991Y-120756770D01*
X151507993Y-120756771D01*
X151676037Y-120869054D01*
X151818946Y-121011963D01*
X151931229Y-121180007D01*
X151931230Y-121180009D01*
X152008572Y-121366728D01*
X152048000Y-121564947D01*
X152048000Y-121767053D01*
X152008572Y-121965272D01*
X151931230Y-122151991D01*
X151931229Y-122151993D01*
X151818946Y-122320037D01*
X151676037Y-122462946D01*
X151507993Y-122575229D01*
X151507992Y-122575230D01*
X151507991Y-122575230D01*
X151321272Y-122652572D01*
X151123053Y-122692000D01*
X150920947Y-122692000D01*
X150722728Y-122652572D01*
X150536009Y-122575230D01*
X150536008Y-122575230D01*
X150536007Y-122575229D01*
X150367963Y-122462946D01*
X150225054Y-122320037D01*
X150112771Y-122151993D01*
X150112770Y-122151991D01*
X150035428Y-121965272D01*
X149996000Y-121767053D01*
X149996000Y-121564947D01*
X150035428Y-121366728D01*
X150112770Y-121180009D01*
X150112771Y-121180007D01*
X150225054Y-121011963D01*
X150367963Y-120869054D01*
X150536007Y-120756771D01*
X150536009Y-120756770D01*
X150722728Y-120679428D01*
X150920947Y-120640000D01*
X151123053Y-120640000D01*
X151321272Y-120679428D01*
X151321272Y-120679428D01*
G37*
G36*
X146321272Y-120679428D02*
G01*
X146507991Y-120756770D01*
X146507993Y-120756771D01*
X146676037Y-120869054D01*
X146818946Y-121011963D01*
X146931229Y-121180007D01*
X146931230Y-121180009D01*
X147008572Y-121366728D01*
X147048000Y-121564947D01*
X147048000Y-121767053D01*
X147008572Y-121965272D01*
X146931230Y-122151991D01*
X146931229Y-122151993D01*
X146818946Y-122320037D01*
X146676037Y-122462946D01*
X146507993Y-122575229D01*
X146507992Y-122575230D01*
X146507991Y-122575230D01*
X146321272Y-122652572D01*
X146123053Y-122692000D01*
X145920947Y-122692000D01*
X145722728Y-122652572D01*
X145536009Y-122575230D01*
X145536008Y-122575230D01*
X145536007Y-122575229D01*
X145367963Y-122462946D01*
X145225054Y-122320037D01*
X145112771Y-122151993D01*
X145112770Y-122151991D01*
X145035428Y-121965272D01*
X144996000Y-121767053D01*
X144996000Y-121564947D01*
X145035428Y-121366728D01*
X145112770Y-121180009D01*
X145112771Y-121180007D01*
X145225054Y-121011963D01*
X145367963Y-120869054D01*
X145536007Y-120756771D01*
X145536009Y-120756770D01*
X145722728Y-120679428D01*
X145920947Y-120640000D01*
X146123053Y-120640000D01*
X146321272Y-120679428D01*
X146321272Y-120679428D01*
G37*
G36*
X141321272Y-120679428D02*
G01*
X141507991Y-120756770D01*
X141507993Y-120756771D01*
X141676037Y-120869054D01*
X141818946Y-121011963D01*
X141931229Y-121180007D01*
X141931230Y-121180009D01*
X142008572Y-121366728D01*
X142048000Y-121564947D01*
X142048000Y-121767053D01*
X142008572Y-121965272D01*
X141931230Y-122151991D01*
X141931229Y-122151993D01*
X141818946Y-122320037D01*
X141676037Y-122462946D01*
X141507993Y-122575229D01*
X141507992Y-122575230D01*
X141507991Y-122575230D01*
X141321272Y-122652572D01*
X141123053Y-122692000D01*
X140920947Y-122692000D01*
X140722728Y-122652572D01*
X140536009Y-122575230D01*
X140536008Y-122575230D01*
X140536007Y-122575229D01*
X140367963Y-122462946D01*
X140225054Y-122320037D01*
X140112771Y-122151993D01*
X140112770Y-122151991D01*
X140035428Y-121965272D01*
X139996000Y-121767053D01*
X139996000Y-121564947D01*
X140035428Y-121366728D01*
X140112770Y-121180009D01*
X140112771Y-121180007D01*
X140225054Y-121011963D01*
X140367963Y-120869054D01*
X140536007Y-120756771D01*
X140536009Y-120756770D01*
X140722728Y-120679428D01*
X140920947Y-120640000D01*
X141123053Y-120640000D01*
X141321272Y-120679428D01*
X141321272Y-120679428D01*
G37*
G36*
X136321272Y-120679428D02*
G01*
X136507991Y-120756770D01*
X136507993Y-120756771D01*
X136676037Y-120869054D01*
X136818946Y-121011963D01*
X136931229Y-121180007D01*
X136931230Y-121180009D01*
X137008572Y-121366728D01*
X137048000Y-121564947D01*
X137048000Y-121767053D01*
X137008572Y-121965272D01*
X136931230Y-122151991D01*
X136931229Y-122151993D01*
X136818946Y-122320037D01*
X136676037Y-122462946D01*
X136507993Y-122575229D01*
X136507992Y-122575230D01*
X136507991Y-122575230D01*
X136321272Y-122652572D01*
X136123053Y-122692000D01*
X135920947Y-122692000D01*
X135722728Y-122652572D01*
X135536009Y-122575230D01*
X135536008Y-122575230D01*
X135536007Y-122575229D01*
X135367963Y-122462946D01*
X135225054Y-122320037D01*
X135112771Y-122151993D01*
X135112770Y-122151991D01*
X135035428Y-121965272D01*
X134996000Y-121767053D01*
X134996000Y-121564947D01*
X135035428Y-121366728D01*
X135112770Y-121180009D01*
X135112771Y-121180007D01*
X135225054Y-121011963D01*
X135367963Y-120869054D01*
X135536007Y-120756771D01*
X135536009Y-120756770D01*
X135722728Y-120679428D01*
X135920947Y-120640000D01*
X136123053Y-120640000D01*
X136321272Y-120679428D01*
X136321272Y-120679428D01*
G37*
G36*
X131321272Y-120679428D02*
G01*
X131507991Y-120756770D01*
X131507993Y-120756771D01*
X131676037Y-120869054D01*
X131818946Y-121011963D01*
X131931229Y-121180007D01*
X131931230Y-121180009D01*
X132008572Y-121366728D01*
X132048000Y-121564947D01*
X132048000Y-121767053D01*
X132008572Y-121965272D01*
X131931230Y-122151991D01*
X131931229Y-122151993D01*
X131818946Y-122320037D01*
X131676037Y-122462946D01*
X131507993Y-122575229D01*
X131507992Y-122575230D01*
X131507991Y-122575230D01*
X131321272Y-122652572D01*
X131123053Y-122692000D01*
X130920947Y-122692000D01*
X130722728Y-122652572D01*
X130536009Y-122575230D01*
X130536008Y-122575230D01*
X130536007Y-122575229D01*
X130367963Y-122462946D01*
X130225054Y-122320037D01*
X130112771Y-122151993D01*
X130112770Y-122151991D01*
X130035428Y-121965272D01*
X129996000Y-121767053D01*
X129996000Y-121564947D01*
X130035428Y-121366728D01*
X130112770Y-121180009D01*
X130112771Y-121180007D01*
X130225054Y-121011963D01*
X130367963Y-120869054D01*
X130536007Y-120756771D01*
X130536009Y-120756770D01*
X130722728Y-120679428D01*
X130920947Y-120640000D01*
X131123053Y-120640000D01*
X131321272Y-120679428D01*
X131321272Y-120679428D01*
G37*
G36*
X126321272Y-120679428D02*
G01*
X126507991Y-120756770D01*
X126507993Y-120756771D01*
X126676037Y-120869054D01*
X126818946Y-121011963D01*
X126931229Y-121180007D01*
X126931230Y-121180009D01*
X127008572Y-121366728D01*
X127048000Y-121564947D01*
X127048000Y-121767053D01*
X127008572Y-121965272D01*
X126931230Y-122151991D01*
X126931229Y-122151993D01*
X126818946Y-122320037D01*
X126676037Y-122462946D01*
X126507993Y-122575229D01*
X126507992Y-122575230D01*
X126507991Y-122575230D01*
X126321272Y-122652572D01*
X126123053Y-122692000D01*
X125920947Y-122692000D01*
X125722728Y-122652572D01*
X125536009Y-122575230D01*
X125536008Y-122575230D01*
X125536007Y-122575229D01*
X125367963Y-122462946D01*
X125225054Y-122320037D01*
X125112771Y-122151993D01*
X125112770Y-122151991D01*
X125035428Y-121965272D01*
X124996000Y-121767053D01*
X124996000Y-121564947D01*
X125035428Y-121366728D01*
X125112770Y-121180009D01*
X125112771Y-121180007D01*
X125225054Y-121011963D01*
X125367963Y-120869054D01*
X125536007Y-120756771D01*
X125536009Y-120756770D01*
X125722728Y-120679428D01*
X125920947Y-120640000D01*
X126123053Y-120640000D01*
X126321272Y-120679428D01*
X126321272Y-120679428D01*
G37*
G36*
X121321272Y-120679428D02*
G01*
X121507991Y-120756770D01*
X121507993Y-120756771D01*
X121676037Y-120869054D01*
X121818946Y-121011963D01*
X121931229Y-121180007D01*
X121931230Y-121180009D01*
X122008572Y-121366728D01*
X122048000Y-121564947D01*
X122048000Y-121767053D01*
X122008572Y-121965272D01*
X121931230Y-122151991D01*
X121931229Y-122151993D01*
X121818946Y-122320037D01*
X121676037Y-122462946D01*
X121507993Y-122575229D01*
X121507992Y-122575230D01*
X121507991Y-122575230D01*
X121321272Y-122652572D01*
X121123053Y-122692000D01*
X120920947Y-122692000D01*
X120722728Y-122652572D01*
X120536009Y-122575230D01*
X120536008Y-122575230D01*
X120536007Y-122575229D01*
X120367963Y-122462946D01*
X120225054Y-122320037D01*
X120112771Y-122151993D01*
X120112770Y-122151991D01*
X120035428Y-121965272D01*
X119996000Y-121767053D01*
X119996000Y-121564947D01*
X120035428Y-121366728D01*
X120112770Y-121180009D01*
X120112771Y-121180007D01*
X120225054Y-121011963D01*
X120367963Y-120869054D01*
X120536007Y-120756771D01*
X120536009Y-120756770D01*
X120722728Y-120679428D01*
X120920947Y-120640000D01*
X121123053Y-120640000D01*
X121321272Y-120679428D01*
X121321272Y-120679428D01*
G37*
G36*
X212084256Y-107992298D02*
G01*
X212190579Y-108013447D01*
X212491042Y-108137903D01*
X212761451Y-108318585D01*
X212991415Y-108548549D01*
X213172097Y-108818958D01*
X213296553Y-109119421D01*
X213360000Y-109438391D01*
X213360000Y-109763609D01*
X213296553Y-110082579D01*
X213172097Y-110383042D01*
X212991415Y-110653451D01*
X212761451Y-110883415D01*
X212491042Y-111064097D01*
X212190579Y-111188553D01*
X212084256Y-111209702D01*
X211871611Y-111252000D01*
X211546389Y-111252000D01*
X211333744Y-111209702D01*
X211227421Y-111188553D01*
X210926958Y-111064097D01*
X210656549Y-110883415D01*
X210426585Y-110653451D01*
X210245903Y-110383042D01*
X210121447Y-110082579D01*
X210058000Y-109763609D01*
X210058000Y-109438391D01*
X210121447Y-109119421D01*
X210245903Y-108818958D01*
X210426585Y-108548549D01*
X210656549Y-108318585D01*
X210926958Y-108137903D01*
X211227421Y-108013447D01*
X211333744Y-107992298D01*
X211546389Y-107950000D01*
X211871611Y-107950000D01*
X212084256Y-107992298D01*
X212084256Y-107992298D01*
G37*
G36*
X146044256Y-107992298D02*
G01*
X146150579Y-108013447D01*
X146451042Y-108137903D01*
X146721451Y-108318585D01*
X146951415Y-108548549D01*
X147132097Y-108818958D01*
X147256553Y-109119421D01*
X147320000Y-109438391D01*
X147320000Y-109763609D01*
X147256553Y-110082579D01*
X147132097Y-110383042D01*
X146951415Y-110653451D01*
X146721451Y-110883415D01*
X146451042Y-111064097D01*
X146150579Y-111188553D01*
X146044256Y-111209702D01*
X145831611Y-111252000D01*
X145506389Y-111252000D01*
X145293744Y-111209702D01*
X145187421Y-111188553D01*
X144886958Y-111064097D01*
X144616549Y-110883415D01*
X144386585Y-110653451D01*
X144205903Y-110383042D01*
X144081447Y-110082579D01*
X144018000Y-109763609D01*
X144018000Y-109438391D01*
X144081447Y-109119421D01*
X144205903Y-108818958D01*
X144386585Y-108548549D01*
X144616549Y-108318585D01*
X144886958Y-108137903D01*
X145187421Y-108013447D01*
X145293744Y-107992298D01*
X145506389Y-107950000D01*
X145831611Y-107950000D01*
X146044256Y-107992298D01*
X146044256Y-107992298D01*
G37*
G36*
X236992000Y-111008000D02*
G01*
X234940000Y-111008000D01*
X234940000Y-108956000D01*
X236992000Y-108956000D01*
X236992000Y-111008000D01*
X236992000Y-111008000D01*
G37*
G36*
X122727272Y-108783428D02*
G01*
X122913991Y-108860770D01*
X122913993Y-108860771D01*
X123082037Y-108973054D01*
X123224946Y-109115963D01*
X123227257Y-109119422D01*
X123337230Y-109284009D01*
X123414572Y-109470728D01*
X123454000Y-109668947D01*
X123454000Y-109871053D01*
X123414572Y-110069272D01*
X123337230Y-110255991D01*
X123337229Y-110255993D01*
X123224946Y-110424037D01*
X123082037Y-110566946D01*
X122913993Y-110679229D01*
X122913992Y-110679230D01*
X122913991Y-110679230D01*
X122727272Y-110756572D01*
X122529053Y-110796000D01*
X122326947Y-110796000D01*
X122128728Y-110756572D01*
X121942009Y-110679230D01*
X121942008Y-110679230D01*
X121942007Y-110679229D01*
X121773963Y-110566946D01*
X121631054Y-110424037D01*
X121518771Y-110255993D01*
X121518770Y-110255991D01*
X121441428Y-110069272D01*
X121402000Y-109871053D01*
X121402000Y-109668947D01*
X121441428Y-109470728D01*
X121518770Y-109284009D01*
X121628743Y-109119422D01*
X121631054Y-109115963D01*
X121773963Y-108973054D01*
X121942007Y-108860771D01*
X121942009Y-108860770D01*
X122128728Y-108783428D01*
X122326947Y-108744000D01*
X122529053Y-108744000D01*
X122727272Y-108783428D01*
X122727272Y-108783428D01*
G37*
G36*
X236265272Y-103995428D02*
G01*
X236451991Y-104072770D01*
X236451993Y-104072771D01*
X236620037Y-104185054D01*
X236762946Y-104327963D01*
X236858338Y-104470728D01*
X236875230Y-104496009D01*
X236952572Y-104682728D01*
X236992000Y-104880947D01*
X236992000Y-105083053D01*
X236952572Y-105281272D01*
X236893437Y-105424036D01*
X236875229Y-105467993D01*
X236762946Y-105636037D01*
X236620037Y-105778946D01*
X236451993Y-105891229D01*
X236451992Y-105891230D01*
X236451991Y-105891230D01*
X236265272Y-105968572D01*
X236067053Y-106008000D01*
X235864947Y-106008000D01*
X235666728Y-105968572D01*
X235480009Y-105891230D01*
X235480008Y-105891230D01*
X235480007Y-105891229D01*
X235311963Y-105778946D01*
X235169054Y-105636037D01*
X235056771Y-105467993D01*
X235038563Y-105424036D01*
X234979428Y-105281272D01*
X234940000Y-105083053D01*
X234940000Y-104880947D01*
X234979428Y-104682728D01*
X235056770Y-104496009D01*
X235073662Y-104470728D01*
X235169054Y-104327963D01*
X235311963Y-104185054D01*
X235480007Y-104072771D01*
X235480009Y-104072770D01*
X235666728Y-103995428D01*
X235864947Y-103956000D01*
X236067053Y-103956000D01*
X236265272Y-103995428D01*
X236265272Y-103995428D01*
G37*
G36*
X122727272Y-103783428D02*
G01*
X122913991Y-103860770D01*
X122913993Y-103860771D01*
X123082037Y-103973054D01*
X123224946Y-104115963D01*
X123337229Y-104284007D01*
X123337230Y-104284009D01*
X123414572Y-104470728D01*
X123454000Y-104668947D01*
X123454000Y-104871053D01*
X123414572Y-105069272D01*
X123337230Y-105255991D01*
X123337229Y-105255993D01*
X123224946Y-105424037D01*
X123082037Y-105566946D01*
X122913993Y-105679229D01*
X122913992Y-105679230D01*
X122913991Y-105679230D01*
X122727272Y-105756572D01*
X122529053Y-105796000D01*
X122326947Y-105796000D01*
X122128728Y-105756572D01*
X121942009Y-105679230D01*
X121942008Y-105679230D01*
X121942007Y-105679229D01*
X121773963Y-105566946D01*
X121631054Y-105424037D01*
X121518771Y-105255993D01*
X121518770Y-105255991D01*
X121441428Y-105069272D01*
X121402000Y-104871053D01*
X121402000Y-104668947D01*
X121441428Y-104470728D01*
X121518770Y-104284009D01*
X121518771Y-104284007D01*
X121631054Y-104115963D01*
X121773963Y-103973054D01*
X121942007Y-103860771D01*
X121942009Y-103860770D01*
X122128728Y-103783428D01*
X122326947Y-103744000D01*
X122529053Y-103744000D01*
X122727272Y-103783428D01*
X122727272Y-103783428D01*
G37*
G36*
X236265272Y-98995428D02*
G01*
X236451991Y-99072770D01*
X236451993Y-99072771D01*
X236620037Y-99185054D01*
X236762946Y-99327963D01*
X236858338Y-99470728D01*
X236875230Y-99496009D01*
X236952572Y-99682728D01*
X236992000Y-99880947D01*
X236992000Y-100083053D01*
X236952572Y-100281272D01*
X236893437Y-100424036D01*
X236875229Y-100467993D01*
X236762946Y-100636037D01*
X236620037Y-100778946D01*
X236451993Y-100891229D01*
X236451992Y-100891230D01*
X236451991Y-100891230D01*
X236265272Y-100968572D01*
X236067053Y-101008000D01*
X235864947Y-101008000D01*
X235666728Y-100968572D01*
X235480009Y-100891230D01*
X235480008Y-100891230D01*
X235480007Y-100891229D01*
X235311963Y-100778946D01*
X235169054Y-100636037D01*
X235056771Y-100467993D01*
X235038563Y-100424036D01*
X234979428Y-100281272D01*
X234940000Y-100083053D01*
X234940000Y-99880947D01*
X234979428Y-99682728D01*
X235056770Y-99496009D01*
X235073662Y-99470728D01*
X235169054Y-99327963D01*
X235311963Y-99185054D01*
X235480007Y-99072771D01*
X235480009Y-99072770D01*
X235666728Y-98995428D01*
X235864947Y-98956000D01*
X236067053Y-98956000D01*
X236265272Y-98995428D01*
X236265272Y-98995428D01*
G37*
G36*
X122727272Y-98783428D02*
G01*
X122913991Y-98860770D01*
X122913993Y-98860771D01*
X123082037Y-98973054D01*
X123224946Y-99115963D01*
X123337229Y-99284007D01*
X123337230Y-99284009D01*
X123414572Y-99470728D01*
X123454000Y-99668947D01*
X123454000Y-99871053D01*
X123414572Y-100069272D01*
X123337230Y-100255991D01*
X123337229Y-100255993D01*
X123224946Y-100424037D01*
X123082037Y-100566946D01*
X122913993Y-100679229D01*
X122913992Y-100679230D01*
X122913991Y-100679230D01*
X122727272Y-100756572D01*
X122529053Y-100796000D01*
X122326947Y-100796000D01*
X122128728Y-100756572D01*
X121942009Y-100679230D01*
X121942008Y-100679230D01*
X121942007Y-100679229D01*
X121773963Y-100566946D01*
X121631054Y-100424037D01*
X121518771Y-100255993D01*
X121518770Y-100255991D01*
X121441428Y-100069272D01*
X121402000Y-99871053D01*
X121402000Y-99668947D01*
X121441428Y-99470728D01*
X121518770Y-99284009D01*
X121518771Y-99284007D01*
X121631054Y-99115963D01*
X121773963Y-98973054D01*
X121942007Y-98860771D01*
X121942009Y-98860770D01*
X122128728Y-98783428D01*
X122326947Y-98744000D01*
X122529053Y-98744000D01*
X122727272Y-98783428D01*
X122727272Y-98783428D01*
G37*
G36*
X236265272Y-93995428D02*
G01*
X236451991Y-94072770D01*
X236451993Y-94072771D01*
X236620037Y-94185054D01*
X236762946Y-94327963D01*
X236858338Y-94470728D01*
X236875230Y-94496009D01*
X236952572Y-94682728D01*
X236992000Y-94880947D01*
X236992000Y-95083053D01*
X236952572Y-95281272D01*
X236893437Y-95424036D01*
X236875229Y-95467993D01*
X236762946Y-95636037D01*
X236620037Y-95778946D01*
X236451993Y-95891229D01*
X236451992Y-95891230D01*
X236451991Y-95891230D01*
X236265272Y-95968572D01*
X236067053Y-96008000D01*
X235864947Y-96008000D01*
X235666728Y-95968572D01*
X235480009Y-95891230D01*
X235480008Y-95891230D01*
X235480007Y-95891229D01*
X235311963Y-95778946D01*
X235169054Y-95636037D01*
X235056771Y-95467993D01*
X235038563Y-95424036D01*
X234979428Y-95281272D01*
X234940000Y-95083053D01*
X234940000Y-94880947D01*
X234979428Y-94682728D01*
X235056770Y-94496009D01*
X235073662Y-94470728D01*
X235169054Y-94327963D01*
X235311963Y-94185054D01*
X235480007Y-94072771D01*
X235480009Y-94072770D01*
X235666728Y-93995428D01*
X235864947Y-93956000D01*
X236067053Y-93956000D01*
X236265272Y-93995428D01*
X236265272Y-93995428D01*
G37*
G36*
X122727272Y-93783428D02*
G01*
X122913991Y-93860770D01*
X122913993Y-93860771D01*
X123082037Y-93973054D01*
X123224946Y-94115963D01*
X123337229Y-94284007D01*
X123337230Y-94284009D01*
X123414572Y-94470728D01*
X123454000Y-94668947D01*
X123454000Y-94871053D01*
X123414572Y-95069272D01*
X123337230Y-95255991D01*
X123337229Y-95255993D01*
X123224946Y-95424037D01*
X123082037Y-95566946D01*
X122913993Y-95679229D01*
X122913992Y-95679230D01*
X122913991Y-95679230D01*
X122727272Y-95756572D01*
X122529053Y-95796000D01*
X122326947Y-95796000D01*
X122128728Y-95756572D01*
X121942009Y-95679230D01*
X121942008Y-95679230D01*
X121942007Y-95679229D01*
X121773963Y-95566946D01*
X121631054Y-95424037D01*
X121518771Y-95255993D01*
X121518770Y-95255991D01*
X121441428Y-95069272D01*
X121402000Y-94871053D01*
X121402000Y-94668947D01*
X121441428Y-94470728D01*
X121518770Y-94284009D01*
X121518771Y-94284007D01*
X121631054Y-94115963D01*
X121773963Y-93973054D01*
X121942007Y-93860771D01*
X121942009Y-93860770D01*
X122128728Y-93783428D01*
X122326947Y-93744000D01*
X122529053Y-93744000D01*
X122727272Y-93783428D01*
X122727272Y-93783428D01*
G37*
G36*
X236265272Y-88995428D02*
G01*
X236451991Y-89072770D01*
X236451993Y-89072771D01*
X236620037Y-89185054D01*
X236762946Y-89327963D01*
X236858338Y-89470728D01*
X236875230Y-89496009D01*
X236952572Y-89682728D01*
X236992000Y-89880947D01*
X236992000Y-90083053D01*
X236952572Y-90281272D01*
X236893437Y-90424036D01*
X236875229Y-90467993D01*
X236762946Y-90636037D01*
X236620037Y-90778946D01*
X236451993Y-90891229D01*
X236451992Y-90891230D01*
X236451991Y-90891230D01*
X236265272Y-90968572D01*
X236067053Y-91008000D01*
X235864947Y-91008000D01*
X235666728Y-90968572D01*
X235480009Y-90891230D01*
X235480008Y-90891230D01*
X235480007Y-90891229D01*
X235311963Y-90778946D01*
X235169054Y-90636037D01*
X235056771Y-90467993D01*
X235038563Y-90424036D01*
X234979428Y-90281272D01*
X234940000Y-90083053D01*
X234940000Y-89880947D01*
X234979428Y-89682728D01*
X235056770Y-89496009D01*
X235073662Y-89470728D01*
X235169054Y-89327963D01*
X235311963Y-89185054D01*
X235480007Y-89072771D01*
X235480009Y-89072770D01*
X235666728Y-88995428D01*
X235864947Y-88956000D01*
X236067053Y-88956000D01*
X236265272Y-88995428D01*
X236265272Y-88995428D01*
G37*
G36*
X122727272Y-88783428D02*
G01*
X122913991Y-88860770D01*
X122913993Y-88860771D01*
X123082037Y-88973054D01*
X123224946Y-89115963D01*
X123337229Y-89284007D01*
X123337230Y-89284009D01*
X123414572Y-89470728D01*
X123454000Y-89668947D01*
X123454000Y-89871053D01*
X123414572Y-90069272D01*
X123337230Y-90255991D01*
X123337229Y-90255993D01*
X123224946Y-90424037D01*
X123082037Y-90566946D01*
X122913993Y-90679229D01*
X122913992Y-90679230D01*
X122913991Y-90679230D01*
X122727272Y-90756572D01*
X122529053Y-90796000D01*
X122326947Y-90796000D01*
X122128728Y-90756572D01*
X121942009Y-90679230D01*
X121942008Y-90679230D01*
X121942007Y-90679229D01*
X121773963Y-90566946D01*
X121631054Y-90424037D01*
X121518771Y-90255993D01*
X121518770Y-90255991D01*
X121441428Y-90069272D01*
X121402000Y-89871053D01*
X121402000Y-89668947D01*
X121441428Y-89470728D01*
X121518770Y-89284009D01*
X121518771Y-89284007D01*
X121631054Y-89115963D01*
X121773963Y-88973054D01*
X121942007Y-88860771D01*
X121942009Y-88860770D01*
X122128728Y-88783428D01*
X122326947Y-88744000D01*
X122529053Y-88744000D01*
X122727272Y-88783428D01*
X122727272Y-88783428D01*
G37*
G36*
X236265272Y-83995428D02*
G01*
X236451991Y-84072770D01*
X236451993Y-84072771D01*
X236620037Y-84185054D01*
X236762946Y-84327963D01*
X236858338Y-84470728D01*
X236875230Y-84496009D01*
X236952572Y-84682728D01*
X236992000Y-84880947D01*
X236992000Y-85083053D01*
X236952572Y-85281272D01*
X236893437Y-85424036D01*
X236875229Y-85467993D01*
X236762946Y-85636037D01*
X236620037Y-85778946D01*
X236451993Y-85891229D01*
X236451992Y-85891230D01*
X236451991Y-85891230D01*
X236265272Y-85968572D01*
X236067053Y-86008000D01*
X235864947Y-86008000D01*
X235666728Y-85968572D01*
X235480009Y-85891230D01*
X235480008Y-85891230D01*
X235480007Y-85891229D01*
X235311963Y-85778946D01*
X235169054Y-85636037D01*
X235056771Y-85467993D01*
X235038563Y-85424036D01*
X234979428Y-85281272D01*
X234940000Y-85083053D01*
X234940000Y-84880947D01*
X234979428Y-84682728D01*
X235056770Y-84496009D01*
X235073662Y-84470728D01*
X235169054Y-84327963D01*
X235311963Y-84185054D01*
X235480007Y-84072771D01*
X235480009Y-84072770D01*
X235666728Y-83995428D01*
X235864947Y-83956000D01*
X236067053Y-83956000D01*
X236265272Y-83995428D01*
X236265272Y-83995428D01*
G37*
G36*
X122727272Y-83783428D02*
G01*
X122913991Y-83860770D01*
X122913993Y-83860771D01*
X123082037Y-83973054D01*
X123224946Y-84115963D01*
X123337229Y-84284007D01*
X123337230Y-84284009D01*
X123414572Y-84470728D01*
X123454000Y-84668947D01*
X123454000Y-84871053D01*
X123414572Y-85069272D01*
X123337230Y-85255991D01*
X123337229Y-85255993D01*
X123224946Y-85424037D01*
X123082037Y-85566946D01*
X122913993Y-85679229D01*
X122913992Y-85679230D01*
X122913991Y-85679230D01*
X122727272Y-85756572D01*
X122529053Y-85796000D01*
X122326947Y-85796000D01*
X122128728Y-85756572D01*
X121942009Y-85679230D01*
X121942008Y-85679230D01*
X121942007Y-85679229D01*
X121773963Y-85566946D01*
X121631054Y-85424037D01*
X121518771Y-85255993D01*
X121518770Y-85255991D01*
X121441428Y-85069272D01*
X121402000Y-84871053D01*
X121402000Y-84668947D01*
X121441428Y-84470728D01*
X121518770Y-84284009D01*
X121518771Y-84284007D01*
X121631054Y-84115963D01*
X121773963Y-83973054D01*
X121942007Y-83860771D01*
X121942009Y-83860770D01*
X122128728Y-83783428D01*
X122326947Y-83744000D01*
X122529053Y-83744000D01*
X122727272Y-83783428D01*
X122727272Y-83783428D01*
G37*
G36*
X236265272Y-78995428D02*
G01*
X236451991Y-79072770D01*
X236451993Y-79072771D01*
X236620037Y-79185054D01*
X236762946Y-79327963D01*
X236858338Y-79470728D01*
X236875230Y-79496009D01*
X236952572Y-79682728D01*
X236992000Y-79880947D01*
X236992000Y-80083053D01*
X236952572Y-80281272D01*
X236893437Y-80424036D01*
X236875229Y-80467993D01*
X236762946Y-80636037D01*
X236620037Y-80778946D01*
X236451993Y-80891229D01*
X236451992Y-80891230D01*
X236451991Y-80891230D01*
X236265272Y-80968572D01*
X236067053Y-81008000D01*
X235864947Y-81008000D01*
X235666728Y-80968572D01*
X235480009Y-80891230D01*
X235480008Y-80891230D01*
X235480007Y-80891229D01*
X235311963Y-80778946D01*
X235169054Y-80636037D01*
X235056771Y-80467993D01*
X235038563Y-80424036D01*
X234979428Y-80281272D01*
X234940000Y-80083053D01*
X234940000Y-79880947D01*
X234979428Y-79682728D01*
X235056770Y-79496009D01*
X235073662Y-79470728D01*
X235169054Y-79327963D01*
X235311963Y-79185054D01*
X235480007Y-79072771D01*
X235480009Y-79072770D01*
X235666728Y-78995428D01*
X235864947Y-78956000D01*
X236067053Y-78956000D01*
X236265272Y-78995428D01*
X236265272Y-78995428D01*
G37*
G36*
X122727272Y-78783428D02*
G01*
X122913991Y-78860770D01*
X122913993Y-78860771D01*
X123082037Y-78973054D01*
X123224946Y-79115963D01*
X123337229Y-79284007D01*
X123337230Y-79284009D01*
X123414572Y-79470728D01*
X123454000Y-79668947D01*
X123454000Y-79871053D01*
X123414572Y-80069272D01*
X123337230Y-80255991D01*
X123337229Y-80255993D01*
X123224946Y-80424037D01*
X123082037Y-80566946D01*
X122913993Y-80679229D01*
X122913992Y-80679230D01*
X122913991Y-80679230D01*
X122727272Y-80756572D01*
X122529053Y-80796000D01*
X122326947Y-80796000D01*
X122128728Y-80756572D01*
X121942009Y-80679230D01*
X121942008Y-80679230D01*
X121942007Y-80679229D01*
X121773963Y-80566946D01*
X121631054Y-80424037D01*
X121518771Y-80255993D01*
X121518770Y-80255991D01*
X121441428Y-80069272D01*
X121402000Y-79871053D01*
X121402000Y-79668947D01*
X121441428Y-79470728D01*
X121518770Y-79284009D01*
X121518771Y-79284007D01*
X121631054Y-79115963D01*
X121773963Y-78973054D01*
X121942007Y-78860771D01*
X121942009Y-78860770D01*
X122128728Y-78783428D01*
X122326947Y-78744000D01*
X122529053Y-78744000D01*
X122727272Y-78783428D01*
X122727272Y-78783428D01*
G37*
G36*
X236265272Y-73995428D02*
G01*
X236451991Y-74072770D01*
X236451993Y-74072771D01*
X236620037Y-74185054D01*
X236762946Y-74327963D01*
X236858338Y-74470728D01*
X236875230Y-74496009D01*
X236952572Y-74682728D01*
X236992000Y-74880947D01*
X236992000Y-75083053D01*
X236952572Y-75281272D01*
X236893437Y-75424036D01*
X236875229Y-75467993D01*
X236762946Y-75636037D01*
X236620037Y-75778946D01*
X236451993Y-75891229D01*
X236451992Y-75891230D01*
X236451991Y-75891230D01*
X236265272Y-75968572D01*
X236067053Y-76008000D01*
X235864947Y-76008000D01*
X235666728Y-75968572D01*
X235480009Y-75891230D01*
X235480008Y-75891230D01*
X235480007Y-75891229D01*
X235311963Y-75778946D01*
X235169054Y-75636037D01*
X235056771Y-75467993D01*
X235038563Y-75424036D01*
X234979428Y-75281272D01*
X234940000Y-75083053D01*
X234940000Y-74880947D01*
X234979428Y-74682728D01*
X235056770Y-74496009D01*
X235073662Y-74470728D01*
X235169054Y-74327963D01*
X235311963Y-74185054D01*
X235480007Y-74072771D01*
X235480009Y-74072770D01*
X235666728Y-73995428D01*
X235864947Y-73956000D01*
X236067053Y-73956000D01*
X236265272Y-73995428D01*
X236265272Y-73995428D01*
G37*
G36*
X122727272Y-73783428D02*
G01*
X122913991Y-73860770D01*
X122913993Y-73860771D01*
X123082037Y-73973054D01*
X123224946Y-74115963D01*
X123337229Y-74284007D01*
X123337230Y-74284009D01*
X123414572Y-74470728D01*
X123454000Y-74668947D01*
X123454000Y-74871053D01*
X123414572Y-75069272D01*
X123337230Y-75255991D01*
X123337229Y-75255993D01*
X123224946Y-75424037D01*
X123082037Y-75566946D01*
X122913993Y-75679229D01*
X122913992Y-75679230D01*
X122913991Y-75679230D01*
X122727272Y-75756572D01*
X122529053Y-75796000D01*
X122326947Y-75796000D01*
X122128728Y-75756572D01*
X121942009Y-75679230D01*
X121942008Y-75679230D01*
X121942007Y-75679229D01*
X121773963Y-75566946D01*
X121631054Y-75424037D01*
X121518771Y-75255993D01*
X121518770Y-75255991D01*
X121441428Y-75069272D01*
X121402000Y-74871053D01*
X121402000Y-74668947D01*
X121441428Y-74470728D01*
X121518770Y-74284009D01*
X121518771Y-74284007D01*
X121631054Y-74115963D01*
X121773963Y-73973054D01*
X121942007Y-73860771D01*
X121942009Y-73860770D01*
X122128728Y-73783428D01*
X122326947Y-73744000D01*
X122529053Y-73744000D01*
X122727272Y-73783428D01*
X122727272Y-73783428D01*
G37*
G36*
X236265272Y-68995428D02*
G01*
X236451991Y-69072770D01*
X236451993Y-69072771D01*
X236620037Y-69185054D01*
X236762946Y-69327963D01*
X236858338Y-69470728D01*
X236875230Y-69496009D01*
X236952572Y-69682728D01*
X236992000Y-69880947D01*
X236992000Y-70083053D01*
X236952572Y-70281272D01*
X236893437Y-70424036D01*
X236875229Y-70467993D01*
X236762946Y-70636037D01*
X236620037Y-70778946D01*
X236451993Y-70891229D01*
X236451992Y-70891230D01*
X236451991Y-70891230D01*
X236265272Y-70968572D01*
X236067053Y-71008000D01*
X235864947Y-71008000D01*
X235666728Y-70968572D01*
X235480009Y-70891230D01*
X235480008Y-70891230D01*
X235480007Y-70891229D01*
X235311963Y-70778946D01*
X235169054Y-70636037D01*
X235056771Y-70467993D01*
X235038563Y-70424036D01*
X234979428Y-70281272D01*
X234940000Y-70083053D01*
X234940000Y-69880947D01*
X234979428Y-69682728D01*
X235056770Y-69496009D01*
X235073662Y-69470728D01*
X235169054Y-69327963D01*
X235311963Y-69185054D01*
X235480007Y-69072771D01*
X235480009Y-69072770D01*
X235666728Y-68995428D01*
X235864947Y-68956000D01*
X236067053Y-68956000D01*
X236265272Y-68995428D01*
X236265272Y-68995428D01*
G37*
G36*
X122727272Y-68783428D02*
G01*
X122913991Y-68860770D01*
X122913993Y-68860771D01*
X123082037Y-68973054D01*
X123224946Y-69115963D01*
X123337229Y-69284007D01*
X123337230Y-69284009D01*
X123414572Y-69470728D01*
X123454000Y-69668947D01*
X123454000Y-69871053D01*
X123414572Y-70069272D01*
X123337230Y-70255991D01*
X123337229Y-70255993D01*
X123224946Y-70424037D01*
X123082037Y-70566946D01*
X122913993Y-70679229D01*
X122913992Y-70679230D01*
X122913991Y-70679230D01*
X122727272Y-70756572D01*
X122529053Y-70796000D01*
X122326947Y-70796000D01*
X122128728Y-70756572D01*
X121942009Y-70679230D01*
X121942008Y-70679230D01*
X121942007Y-70679229D01*
X121773963Y-70566946D01*
X121631054Y-70424037D01*
X121518771Y-70255993D01*
X121518770Y-70255991D01*
X121441428Y-70069272D01*
X121402000Y-69871053D01*
X121402000Y-69668947D01*
X121441428Y-69470728D01*
X121518770Y-69284009D01*
X121518771Y-69284007D01*
X121631054Y-69115963D01*
X121773963Y-68973054D01*
X121942007Y-68860771D01*
X121942009Y-68860770D01*
X122128728Y-68783428D01*
X122326947Y-68744000D01*
X122529053Y-68744000D01*
X122727272Y-68783428D01*
X122727272Y-68783428D01*
G37*
G36*
X212084256Y-64558298D02*
G01*
X212190579Y-64579447D01*
X212491042Y-64703903D01*
X212761451Y-64884585D01*
X212991415Y-65114549D01*
X213172097Y-65384958D01*
X213296553Y-65685421D01*
X213360000Y-66004391D01*
X213360000Y-66329609D01*
X213296553Y-66648579D01*
X213172097Y-66949042D01*
X212991415Y-67219451D01*
X212761451Y-67449415D01*
X212491042Y-67630097D01*
X212190579Y-67754553D01*
X212084256Y-67775702D01*
X211871611Y-67818000D01*
X211546389Y-67818000D01*
X211333744Y-67775702D01*
X211227421Y-67754553D01*
X210926958Y-67630097D01*
X210656549Y-67449415D01*
X210426585Y-67219451D01*
X210245903Y-66949042D01*
X210121447Y-66648579D01*
X210058000Y-66329609D01*
X210058000Y-66004391D01*
X210121447Y-65685421D01*
X210245903Y-65384958D01*
X210426585Y-65114549D01*
X210656549Y-64884585D01*
X210926958Y-64703903D01*
X211227421Y-64579447D01*
X211333744Y-64558298D01*
X211546389Y-64516000D01*
X211871611Y-64516000D01*
X212084256Y-64558298D01*
X212084256Y-64558298D01*
G37*
G36*
X146044256Y-64558298D02*
G01*
X146150579Y-64579447D01*
X146451042Y-64703903D01*
X146721451Y-64884585D01*
X146951415Y-65114549D01*
X147132097Y-65384958D01*
X147256553Y-65685421D01*
X147320000Y-66004391D01*
X147320000Y-66329609D01*
X147256553Y-66648579D01*
X147132097Y-66949042D01*
X146951415Y-67219451D01*
X146721451Y-67449415D01*
X146451042Y-67630097D01*
X146150579Y-67754553D01*
X146044256Y-67775702D01*
X145831611Y-67818000D01*
X145506389Y-67818000D01*
X145293744Y-67775702D01*
X145187421Y-67754553D01*
X144886958Y-67630097D01*
X144616549Y-67449415D01*
X144386585Y-67219451D01*
X144205903Y-66949042D01*
X144081447Y-66648579D01*
X144018000Y-66329609D01*
X144018000Y-66004391D01*
X144081447Y-65685421D01*
X144205903Y-65384958D01*
X144386585Y-65114549D01*
X144616549Y-64884585D01*
X144886958Y-64703903D01*
X145187421Y-64579447D01*
X145293744Y-64558298D01*
X145506389Y-64516000D01*
X145831611Y-64516000D01*
X146044256Y-64558298D01*
X146044256Y-64558298D01*
G37*
G36*
X236265272Y-63995428D02*
G01*
X236451991Y-64072770D01*
X236451993Y-64072771D01*
X236620037Y-64185054D01*
X236762946Y-64327963D01*
X236875229Y-64496007D01*
X236875230Y-64496009D01*
X236952572Y-64682728D01*
X236992000Y-64880947D01*
X236992000Y-65083053D01*
X236952572Y-65281272D01*
X236875230Y-65467991D01*
X236875229Y-65467993D01*
X236762946Y-65636037D01*
X236620037Y-65778946D01*
X236451993Y-65891229D01*
X236451992Y-65891230D01*
X236451991Y-65891230D01*
X236265272Y-65968572D01*
X236067053Y-66008000D01*
X235864947Y-66008000D01*
X235666728Y-65968572D01*
X235480009Y-65891230D01*
X235480008Y-65891230D01*
X235480007Y-65891229D01*
X235311963Y-65778946D01*
X235169054Y-65636037D01*
X235056771Y-65467993D01*
X235056770Y-65467991D01*
X234979428Y-65281272D01*
X234940000Y-65083053D01*
X234940000Y-64880947D01*
X234979428Y-64682728D01*
X235056770Y-64496009D01*
X235056771Y-64496007D01*
X235169054Y-64327963D01*
X235311963Y-64185054D01*
X235480007Y-64072771D01*
X235480009Y-64072770D01*
X235666728Y-63995428D01*
X235864947Y-63956000D01*
X236067053Y-63956000D01*
X236265272Y-63995428D01*
X236265272Y-63995428D01*
G37*
G36*
X123454000Y-65796000D02*
G01*
X121402000Y-65796000D01*
X121402000Y-63744000D01*
X123454000Y-63744000D01*
X123454000Y-65796000D01*
X123454000Y-65796000D01*
G37*
M02*
