G04 #@! TF.GenerationSoftware,KiCad,Pcbnew,(5.1.2-1)-1*
G04 #@! TF.CreationDate,2020-06-13T21:23:10-04:00*
G04 #@! TF.ProjectId,ArcadePanel,41726361-6465-4506-916e-656c2e6b6963,rev?*
G04 #@! TF.SameCoordinates,Original*
G04 #@! TF.FileFunction,Legend,Top*
G04 #@! TF.FilePolarity,Positive*
%FSLAX46Y46*%
G04 Gerber Fmt 4.6, Leading zero omitted, Abs format (unit mm)*
G04 Created by KiCad (PCBNEW (5.1.2-1)-1) date 2020-06-13 21:23:10*
%MOMM*%
%LPD*%
G04 APERTURE LIST*
%ADD10C,0.100000*%
%ADD11C,0.120000*%
%ADD12C,0.250000*%
%ADD13C,0.150000*%
%ADD14C,0.200000*%
%ADD15C,0.127000*%
G04 APERTURE END LIST*
D10*
X106056678Y-40031133D02*
X106056678Y-88131133D01*
X179656678Y-40031133D02*
X106056678Y-40031133D01*
X194875926Y-77103997D02*
G75*
G02X195692609Y-76339370I8632064J-8401285D01*
G01*
X195692609Y-76339370D02*
G75*
G02X196360803Y-75897679I2136053J-2505169D01*
G01*
X196360803Y-75897679D02*
G75*
G02X196991191Y-75703108I907629J-1822145D01*
G01*
X193099245Y-76792495D02*
G75*
G02X193675926Y-77370038I-579392J-1155209D01*
G01*
X193995174Y-78008942D02*
X193675926Y-77370038D01*
X194875926Y-77103997D02*
X193995174Y-78008942D01*
X189890886Y-77982369D02*
G75*
G02X191211733Y-77058887I7176786J-8858544D01*
G01*
X191211733Y-77058887D02*
G75*
G02X192284364Y-76667463I1556613J-2600237D01*
G01*
X192284364Y-76667462D02*
G75*
G02X193099245Y-76792495I214033J-1323018D01*
G01*
X189719318Y-81146911D02*
G75*
G02X189895147Y-81299877I-125152J-321395D01*
G01*
X189395861Y-81066805D02*
G75*
G02X189719318Y-81146911I-148088J-1291049D01*
G01*
X189395862Y-81066806D02*
G75*
G02X188721744Y-80689066I113997J993828D01*
G01*
X188721745Y-80689066D02*
G75*
G02X188531710Y-79951547I750381J586591D01*
G01*
X188531711Y-79951547D02*
G75*
G02X188950977Y-78960353I2225786J-357218D01*
G01*
X188950977Y-78960353D02*
G75*
G02X189890886Y-77982369I4382190J-3270934D01*
G01*
X190316233Y-84788774D02*
X190374698Y-85711543D01*
X190243594Y-83819129D02*
X190316233Y-84788774D01*
X190168270Y-82939722D02*
X190243594Y-83819129D01*
X190103379Y-82331133D02*
X190168270Y-82939722D01*
X189999924Y-81600860D02*
X190103379Y-82331133D01*
X189895146Y-81299877D02*
G75*
G02X189999924Y-81600860I-797841J-446472D01*
G01*
X191941089Y-88748618D02*
G75*
G02X191430956Y-88670486I-85365J1147069D01*
G01*
X191430956Y-88670487D02*
G75*
G02X190983572Y-88376210I489057J1230720D01*
G01*
X190983572Y-88376209D02*
G75*
G02X190715893Y-88022357I1142260J1142258D01*
G01*
X190715893Y-88022357D02*
G75*
G02X190558444Y-87613085I1346471J752915D01*
G01*
X190558444Y-87613086D02*
G75*
G02X190461466Y-86980244I4303341J983309D01*
G01*
X190374698Y-85711543D02*
X190461466Y-86980244D01*
X194842824Y-87034167D02*
G75*
G02X194431626Y-87655886I-1279268J399255D01*
G01*
X194431626Y-87655886D02*
G75*
G02X193614940Y-88180382I-2357484J2772734D01*
G01*
X192614656Y-88600615D02*
X193614940Y-88180382D01*
X192614656Y-88600615D02*
G75*
G02X191941089Y-88748618I-854381J2281600D01*
G01*
X194720475Y-81492945D02*
G75*
G02X194821346Y-80628531I7404066J-425908D01*
G01*
X194716333Y-82710835D02*
G75*
G02X194720476Y-81492946I11255991J570661D01*
G01*
X194835969Y-84268039D02*
X194716333Y-82710835D01*
X194967578Y-86080965D02*
X194835969Y-84268039D01*
X194967578Y-86080964D02*
G75*
G02X194842824Y-87034167I-2799801J-118331D01*
G01*
X195549319Y-83993597D02*
X195613522Y-84913605D01*
X195447086Y-82216803D02*
X195549319Y-83993597D01*
X195342751Y-81190996D02*
X195447086Y-82216803D01*
X195224453Y-80563450D02*
G75*
G02X195342751Y-81190996I-6351279J-1522197D01*
G01*
X195056678Y-80431134D02*
G75*
G02X195224453Y-80563450I0J-172526D01*
G01*
X194821346Y-80628531D02*
G75*
G02X195056678Y-80431133I235332J-41579D01*
G01*
X203848922Y-86261653D02*
X205551179Y-85279742D01*
X203848923Y-86261652D02*
G75*
G02X202893967Y-86599657I-1543895J2843918D01*
G01*
X202893967Y-86599657D02*
G75*
G02X202207450Y-86507566I-202601J1094612D01*
G01*
X202207449Y-86507565D02*
G75*
G02X201574456Y-86015788I832686J1725062D01*
G01*
X201375112Y-85770275D02*
X201574456Y-86015788D01*
X201204676Y-85541646D02*
X201375112Y-85770275D01*
X201071488Y-85346535D02*
X201204676Y-85541646D01*
X201071488Y-85346534D02*
G75*
G02X201042722Y-85265788I151337J99412D01*
G01*
X201033979Y-85163737D02*
X201042722Y-85265788D01*
X200989534Y-84505526D02*
X201033979Y-85163737D01*
X200938798Y-83744323D02*
X200989534Y-84505526D01*
X200881254Y-82866751D02*
X200938798Y-83744323D01*
X200762688Y-81447010D02*
X200881254Y-82866751D01*
X200607090Y-80733757D02*
G75*
G02X200762688Y-81447010I-3059060J-1040940D01*
G01*
X200361197Y-80374709D02*
G75*
G02X200607090Y-80733757I-519485J-619492D01*
G01*
X199985445Y-80234196D02*
G75*
G02X200361197Y-80374709I-10757J-601430D01*
G01*
X199922284Y-80294176D02*
G75*
G02X199985445Y-80234196I62051J-2096D01*
G01*
X199914213Y-80772229D02*
X199922284Y-80294176D01*
X199931600Y-81367748D02*
X199914213Y-80772229D01*
X199985445Y-82081133D02*
X199931600Y-81367748D01*
X200138018Y-84019064D02*
X199985445Y-82081133D01*
X200138018Y-84019063D02*
G75*
G02X200145149Y-85178243I-9860681J-640273D01*
G01*
X200145149Y-85178243D02*
G75*
G02X200027142Y-85932451I-3719071J195567D01*
G01*
X200027143Y-85932451D02*
G75*
G02X199756678Y-86431531I-1160503J306080D01*
G01*
X199756677Y-86431532D02*
G75*
G02X199217949Y-86897711I-2168936J1962102D01*
G01*
X199217949Y-86897711D02*
G75*
G02X198517733Y-87284355I-2573792J3833797D01*
G01*
X198517732Y-87284354D02*
G75*
G02X197761360Y-87544335I-1873294J4219794D01*
G01*
X197761360Y-87544335D02*
G75*
G02X197054440Y-87631133I-706922J2835332D01*
G01*
X197054439Y-87631134D02*
G75*
G02X196576905Y-87608181I-4J4978991D01*
G01*
X196576905Y-87608180D02*
G75*
G02X196320876Y-87521561I56810J589610D01*
G01*
X196320876Y-87521561D02*
G75*
G02X196140445Y-87333785I279118J448774D01*
G01*
X196140446Y-87333785D02*
G75*
G02X195948996Y-86943597I3132113J1778864D01*
G01*
X195948995Y-86943597D02*
G75*
G02X195830236Y-86540833I1780095J743771D01*
G01*
X195712867Y-85795445D02*
X195830236Y-86540833D01*
X195613522Y-84913605D02*
X195712867Y-85795445D01*
X213642035Y-86079247D02*
G75*
G02X213376649Y-86614559I-735570J31225D01*
G01*
X213505111Y-85338710D02*
G75*
G02X213642034Y-86079247I-1547389J-669034D01*
G01*
X213004187Y-84585192D02*
G75*
G02X213505112Y-85338711I-1836509J-1764136D01*
G01*
X212260523Y-84033095D02*
G75*
G02X213004187Y-84585191I-1266997J-2483524D01*
G01*
X210891171Y-83635980D02*
G75*
G02X212260524Y-84033096I-350634J-3768563D01*
G01*
X209303886Y-83708201D02*
G75*
G02X210891171Y-83635980I1053186J-5668179D01*
G01*
X207516568Y-84256155D02*
G75*
G02X209303886Y-83708201I3291443J-7547127D01*
G01*
X205551179Y-85279742D02*
G75*
G02X207516567Y-84256155I8398489J-13727263D01*
G01*
X211574656Y-87373987D02*
X210596573Y-87728658D01*
X212444489Y-87037692D02*
X211574656Y-87373987D01*
X213167397Y-86741363D02*
X212444489Y-87037692D01*
X213376648Y-86614559D02*
G75*
G02X213167397Y-86741363I-530136J638775D01*
G01*
X199769785Y-91813079D02*
X195256678Y-92011899D01*
X202550614Y-91584278D02*
X199769785Y-91813079D01*
X204366584Y-91314242D02*
X202550614Y-91584278D01*
X204911677Y-90921987D02*
G75*
G02X204366584Y-91314242I-688134J381391D01*
G01*
X204911679Y-90921989D02*
G75*
G02X205565567Y-90100568I2774847J-1537933D01*
G01*
X205565567Y-90100568D02*
G75*
G02X206547478Y-89396575I3671583J-4084265D01*
G01*
X206547478Y-89396575D02*
G75*
G02X208077050Y-88669468I6098848J-10857397D01*
G01*
X210596573Y-87728658D02*
X208077050Y-88669468D01*
X151893412Y-106530137D02*
G75*
G02X151783079Y-105849955I2673147J782655D01*
G01*
X151783079Y-105849955D02*
G75*
G02X151859814Y-105220199I2014044J74146D01*
G01*
X151859814Y-105220198D02*
G75*
G02X153667706Y-102411376I5566005J-1596313D01*
G01*
X153667706Y-102411377D02*
G75*
G02X157680490Y-99638947I15588420J-18272266D01*
G01*
X157680490Y-99638947D02*
G75*
G02X163428566Y-97059172I18759857J-34105806D01*
G01*
X163428566Y-97059172D02*
G75*
G02X170717660Y-94847457I27542200J-77653020D01*
G01*
X175978090Y-93681919D02*
X170717660Y-94847457D01*
X180991060Y-92917166D02*
X175978090Y-93681919D01*
X186916851Y-92404062D02*
X180991060Y-92917166D01*
X195256678Y-92011899D02*
X186916851Y-92404062D01*
X106056678Y-136231133D02*
X179656678Y-136231133D01*
X106056678Y-88131133D02*
X106056678Y-136231133D01*
X151534419Y-108414403D02*
G75*
G02X151162612Y-108431133I-371804J4123117D01*
G01*
X151927818Y-108364126D02*
X151534419Y-108414404D01*
X152285575Y-108290758D02*
X151927818Y-108364126D01*
X152538503Y-108203023D02*
G75*
G02X152285575Y-108290758I-593574J1302753D01*
G01*
X153039149Y-107974914D02*
X152538503Y-108203024D01*
X152554802Y-107593926D02*
X153039149Y-107974914D01*
X152554802Y-107593927D02*
G75*
G02X152162932Y-107148055I1006961J1280143D01*
G01*
X152162932Y-107148055D02*
G75*
G02X151893412Y-106530138I2295042J1368777D01*
G01*
X253256678Y-136231133D02*
X253256678Y-88131133D01*
X179656678Y-136231133D02*
X253256678Y-136231133D01*
X174495916Y-86489230D02*
X174500765Y-84458750D01*
X174495916Y-86489230D02*
G75*
G02X174356167Y-87710801I-6863405J166401D01*
G01*
X174356167Y-87710801D02*
G75*
G02X174078469Y-88391415I-1969250J406516D01*
G01*
X174078468Y-88391415D02*
G75*
G02X173639450Y-88631133I-439018J282149D01*
G01*
X173639450Y-88631133D02*
G75*
G02X173275000Y-88460986I0J475393D01*
G01*
X173275001Y-88460986D02*
G75*
G02X173041140Y-88001561I880404J737385D01*
G01*
X173041140Y-88001561D02*
G75*
G02X172893739Y-87080443I5281609J1317533D01*
G01*
X149475402Y-103476019D02*
X149895874Y-103082326D01*
X149110921Y-103853466D02*
X149475402Y-103476019D01*
X148879507Y-104143509D02*
G75*
G02X149110921Y-103853466I2210099J-1526010D01*
G01*
X148460789Y-105471166D02*
G75*
G02X148879507Y-104143509I2364517J-15868D01*
G01*
X148816549Y-106916824D02*
G75*
G02X148460789Y-105471167I2676691J1425306D01*
G01*
X149819832Y-108024490D02*
G75*
G02X148816549Y-106916824I1697676J2545894D01*
G01*
X151162612Y-108431133D02*
G75*
G02X149819832Y-108024490I2J2420330D01*
G01*
X158249661Y-97612463D02*
G75*
G02X156659447Y-98603193I-6130147J8067867D01*
G01*
X156659447Y-98603192D02*
G75*
G02X154887646Y-99303700I-4852018J9681285D01*
G01*
X154317081Y-99517484D02*
G75*
G02X154887646Y-99303700I1808171J-3957527D01*
G01*
X153778666Y-99809875D02*
G75*
G02X154317081Y-99517484I2386875J-3753323D01*
G01*
X153217215Y-100215223D02*
G75*
G02X153778666Y-99809875I3718255J-4558682D01*
G01*
X152572466Y-100776005D02*
X153217215Y-100215223D01*
X152021456Y-101276724D02*
X152572466Y-100776005D01*
X151395101Y-101826814D02*
X152021456Y-101276724D01*
X150790400Y-102342879D02*
X151395101Y-101826814D01*
X150314326Y-102731133D02*
X150790400Y-102342879D01*
X149895874Y-103082326D02*
X150314326Y-102731133D01*
X160905766Y-94305629D02*
G75*
G02X160573714Y-94983298I-6890275J2955986D01*
G01*
X160573714Y-94983298D02*
G75*
G02X159578146Y-96385290I-6757408J3744022D01*
G01*
X159578146Y-96385289D02*
G75*
G02X158249661Y-97612462I-7034907J6283024D01*
G01*
X160623958Y-88531133D02*
G75*
G02X160919123Y-89170691I-5447592J-2902038D01*
G01*
X160919123Y-89170691D02*
G75*
G02X161071843Y-89722231I-2536177J-999176D01*
G01*
X161071843Y-89722231D02*
G75*
G02X161139682Y-90430101I-5056488J-841776D01*
G01*
X161156678Y-91731133D02*
X161139682Y-90430101D01*
X161139774Y-93068491D02*
X161156678Y-91731133D01*
X161139774Y-93068491D02*
G75*
G02X161069516Y-93759514I-4569864J115546D01*
G01*
X161069515Y-93759515D02*
G75*
G02X160905765Y-94305629I-2467898J442383D01*
G01*
X157806678Y-85645885D02*
G75*
G02X158649806Y-86229612I-3881694J-6507439D01*
G01*
X158649806Y-86229612D02*
G75*
G02X159433068Y-86938079I-5313005J-6661128D01*
G01*
X159433069Y-86938079D02*
G75*
G02X160107271Y-87721997I-5858002J-5720004D01*
G01*
X160107271Y-87721997D02*
G75*
G02X160623957Y-88531133I-4864148J-3675615D01*
G01*
X157112696Y-85154431D02*
G75*
G02X157104305Y-84983335I194305J95284D01*
G01*
X157242830Y-85299453D02*
G75*
G02X157112697Y-85154431I191525J302758D01*
G01*
X157806678Y-85645885D02*
X157242830Y-85299453D01*
X177548220Y-80332534D02*
G75*
G02X177826915Y-80581133I-193192J-497097D01*
G01*
X177086337Y-80248554D02*
G75*
G02X177548220Y-80332534I13567J-1237530D01*
G01*
X176473881Y-80338692D02*
G75*
G02X177086338Y-80248554I637636J-2206728D01*
G01*
X175756678Y-80603830D02*
G75*
G02X176473881Y-80338692I2176088J-4783770D01*
G01*
X174974985Y-81061394D02*
G75*
G02X175756678Y-80603830I2611429J-3564816D01*
G01*
X174619112Y-81552829D02*
G75*
G02X174974984Y-81061395I940287J-306340D01*
G01*
X174487814Y-82361124D02*
G75*
G02X174619112Y-81552828I2670625J-19002D01*
G01*
X174500765Y-84458750D02*
X174487813Y-82361124D01*
X159398414Y-83039939D02*
G75*
G02X158286716Y-83845763I-1709080J1188061D01*
G01*
X157939202Y-83977290D02*
G75*
G02X158286716Y-83845763I1102088J-2387024D01*
G01*
X157646793Y-84147100D02*
G75*
G02X157939202Y-83977290I1050779J-1472752D01*
G01*
X157422155Y-84346372D02*
G75*
G02X157646793Y-84147100I1049516J-956860D01*
G01*
X157277151Y-84566067D02*
G75*
G02X157422155Y-84346372I771563J-351547D01*
G01*
X157104305Y-84983335D02*
X157277151Y-84566067D01*
X157995216Y-77732263D02*
G75*
G02X158524511Y-78229380I-1845867J-2495686D01*
G01*
X158524512Y-78229379D02*
G75*
G02X159558214Y-79926345I-5007878J-4213859D01*
G01*
X159558213Y-79926346D02*
G75*
G02X159865623Y-81652831I-3733579J-1555393D01*
G01*
X159865623Y-81652831D02*
G75*
G02X159398414Y-83039939I-2622355J111032D01*
G01*
X198546172Y-75464231D02*
G75*
G02X198649763Y-75229048I1140756J-362061D01*
G01*
X199038766Y-74563599D02*
X198649763Y-75229048D01*
X199515918Y-73776942D02*
X199038766Y-74563599D01*
X200059384Y-72914033D02*
X199515918Y-73776942D01*
X201242532Y-70895868D02*
X200059384Y-72914033D01*
X201635555Y-69636047D02*
G75*
G02X201242532Y-70895868I-3491055J397878D01*
G01*
X201427145Y-68693958D02*
G75*
G02X201635554Y-69636047I-1265666J-774088D01*
G01*
X200637635Y-67840330D02*
G75*
G02X201427145Y-68693958I-1738292J-2399644D01*
G01*
X199739241Y-67328208D02*
G75*
G02X200637635Y-67840331I-1894744J-4367932D01*
G01*
X198722557Y-67002182D02*
G75*
G02X199739240Y-67328208I-1133320J-5282387D01*
G01*
X197705464Y-66891348D02*
G75*
G02X198722558Y-67002182I-28632J-4984964D01*
G01*
X196807000Y-67018479D02*
G75*
G02X197705464Y-66891348I880593J-2984981D01*
G01*
X195952619Y-67445570D02*
G75*
G02X196806999Y-67018478I1623227J-2179078D01*
G01*
X194988628Y-68285068D02*
G75*
G02X195952619Y-67445570I5977020J-5890157D01*
G01*
X193924915Y-69504812D02*
G75*
G02X194988628Y-68285068I10532943J-8111863D01*
G01*
X192756678Y-71128531D02*
X193924915Y-69504813D01*
X192756677Y-71128530D02*
G75*
G02X190479234Y-74036154I-20921445J14041327D01*
G01*
X190479234Y-74036154D02*
G75*
G02X188209029Y-75913552I-7700565J7000453D01*
G01*
X188209029Y-75913552D02*
G75*
G02X186007691Y-76736817I-3228623J5278330D01*
G01*
X186007691Y-76736817D02*
G75*
G02X183925984Y-76530041I-661095J3926599D01*
G01*
X183925985Y-76530041D02*
G75*
G02X182449314Y-75666888I1867066J4888858D01*
G01*
X182449314Y-75666888D02*
G75*
G02X181158212Y-74292836I4894031J5892189D01*
G01*
X181158212Y-74292836D02*
G75*
G02X179736214Y-72018849I15041246J10987385D01*
G01*
X177693913Y-67998598D02*
X179736214Y-72018849D01*
X155823580Y-76785803D02*
G75*
G02X155753482Y-75938831I3049995J678812D01*
G01*
X156150355Y-76961235D02*
G75*
G02X155823580Y-76785803I-87735J228633D01*
G01*
X156150354Y-76961235D02*
G75*
G02X156566816Y-76958690I211609J-551442D01*
G01*
X156566816Y-76958689D02*
G75*
G02X157274893Y-77276927I-1975410J-5342128D01*
G01*
X157274893Y-77276927D02*
G75*
G02X157995216Y-77732263I-2748016J-5144684D01*
G01*
X156741619Y-73551620D02*
G75*
G02X157360112Y-73069132I3895139J-4355442D01*
G01*
X156307782Y-74040248D02*
G75*
G02X156741619Y-73551620I2330921J-1632639D01*
G01*
X155924032Y-74864021D02*
G75*
G02X156307783Y-74040248I2520602J-672939D01*
G01*
X155753482Y-75938831D02*
G75*
G02X155924032Y-74864021I5257858J-283378D01*
G01*
X162339261Y-73672808D02*
G75*
G02X163769298Y-75158634I-12328124J-13296317D01*
G01*
X161063465Y-72758915D02*
G75*
G02X162339261Y-73672808I-2968616J-5491641D01*
G01*
X159870848Y-72356245D02*
G75*
G02X161063465Y-72758915I-576882J-3676058D01*
G01*
X158701412Y-72419088D02*
G75*
G02X159870848Y-72356245I732613J-2720725D01*
G01*
X158049557Y-72666365D02*
G75*
G02X158701412Y-72419088I1563923J-3139888D01*
G01*
X157360112Y-73069132D02*
G75*
G02X158049556Y-72666365I3363964J-4966862D01*
G01*
X170759639Y-79584790D02*
G75*
G02X170106704Y-79813194I-1299767J2668150D01*
G01*
X170106704Y-79813194D02*
G75*
G02X169394793Y-79889300I-690655J3092792D01*
G01*
X169394793Y-79889301D02*
G75*
G02X168720448Y-79795608I17434J2599108D01*
G01*
X168720448Y-79795608D02*
G75*
G02X167987082Y-79417771I535859J1940718D01*
G01*
X166796818Y-78379373D02*
X167987082Y-79417771D01*
X165371707Y-76950421D02*
X166796818Y-78379373D01*
X163769298Y-75158634D02*
X165371707Y-76950421D01*
X170303894Y-71531133D02*
X169104346Y-68448373D01*
X171425068Y-74609034D02*
X170303894Y-71531133D01*
X171425068Y-74609034D02*
G75*
G02X171895481Y-76694849I-10333907J-3426556D01*
G01*
X171895481Y-76694848D02*
G75*
G02X171834028Y-78166651I-4444973J-551591D01*
G01*
X171834028Y-78166651D02*
G75*
G02X171259115Y-79228696I-2071904J434946D01*
G01*
X171259114Y-79228696D02*
G75*
G02X170759639Y-79584789I-1312140J1312138D01*
G01*
X208182579Y-65714429D02*
G75*
G02X207532807Y-66939265I-2955107J782908D01*
G01*
X208147632Y-64537030D02*
G75*
G02X208182580Y-65714428I-1965007J-647544D01*
G01*
X207463712Y-63734771D02*
G75*
G02X208147632Y-64537031I-640574J-1238732D01*
G01*
X168491276Y-62222853D02*
G75*
G02X168995626Y-61630536I1667692J-909135D01*
G01*
X168236212Y-63009588D02*
G75*
G02X168491276Y-62222854I2222627J-285874D01*
G01*
X168162427Y-64196515D02*
G75*
G02X168236213Y-63009588I9038658J33864D01*
G01*
X168257652Y-65482005D02*
G75*
G02X168162427Y-64196515I9093887J1319921D01*
G01*
X168531831Y-66742966D02*
G75*
G02X168257652Y-65482005I8859254J2586619D01*
G01*
X169104346Y-68448373D02*
X168531832Y-66742966D01*
X205734420Y-63691744D02*
G75*
G02X206513793Y-63431133I779374J-1035079D01*
G01*
X204907056Y-64495802D02*
G75*
G02X205734421Y-63691744I3594626J-2871117D01*
G01*
X204269764Y-65530975D02*
G75*
G02X204907056Y-64495802I4535758J-2078630D01*
G01*
X204056677Y-66507427D02*
G75*
G02X204269764Y-65530975I2343793J1D01*
G01*
X204229479Y-67383333D02*
G75*
G02X204056678Y-66507427I2133520J875905D01*
G01*
X204715981Y-67934277D02*
G75*
G02X204229479Y-67383333I551135J976941D01*
G01*
X205464423Y-68085567D02*
G75*
G02X204715981Y-67934277I-141432J1227275D01*
G01*
X206381652Y-67819044D02*
G75*
G02X205464422Y-68085567I-1244107J2569983D01*
G01*
X207532808Y-66939265D02*
G75*
G02X206381652Y-67819044I-2726578J2374608D01*
G01*
X166200313Y-69240203D02*
G75*
G02X166740339Y-69304264I118017J-1313334D01*
G01*
X165689360Y-69399288D02*
G75*
G02X166200313Y-69240203I624653J-1106195D01*
G01*
X165271193Y-69758105D02*
G75*
G02X165689359Y-69399287I1116891J-878548D01*
G01*
X164979127Y-70242109D02*
G75*
G02X165271194Y-69758105I2094435J-933742D01*
G01*
X164878516Y-70705461D02*
G75*
G02X164979126Y-70242109I1161450J-9593D01*
G01*
X164968264Y-71199779D02*
G75*
G02X164878516Y-70705461I1255256J483210D01*
G01*
X165254485Y-71781134D02*
G75*
G02X164968264Y-71199779I3076720J1875914D01*
G01*
X165489576Y-72115499D02*
G75*
G02X165254486Y-71781133I2440353J1965613D01*
G01*
X165707419Y-72305140D02*
G75*
G02X165489575Y-72115500I422887J705724D01*
G01*
X165968464Y-72400849D02*
G75*
G02X165707420Y-72305140I120439J732338D01*
G01*
X166339222Y-72431134D02*
G75*
G02X165968464Y-72400850I1J2284725D01*
G01*
X167193355Y-72131502D02*
G75*
G02X166339222Y-72431133I-854133J1067587D01*
G01*
X167731499Y-71346873D02*
G75*
G02X167193356Y-72131502I-1560840J493652D01*
G01*
X167752697Y-70372734D02*
G75*
G02X167731498Y-71346873I-1675793J-450832D01*
G01*
X167240604Y-69581133D02*
G75*
G02X167752697Y-70372734I-973649J-1191302D01*
G01*
X207212289Y-63618542D02*
G75*
G02X207463712Y-63734771I-1187445J-2898690D01*
G01*
X206942466Y-63520327D02*
X207212289Y-63618542D01*
X206693253Y-63451691D02*
X206942466Y-63520327D01*
X206513793Y-63431133D02*
G75*
G02X206693253Y-63451691I0J-793581D01*
G01*
X204338705Y-77182321D02*
X204548530Y-79151241D01*
X204085265Y-76103619D02*
G75*
G02X204338705Y-77182321I-5049028J-1755388D01*
G01*
X203713633Y-75486490D02*
G75*
G02X204085265Y-76103618I-1280295J-1191451D01*
G01*
X203156677Y-75147847D02*
G75*
G02X203713632Y-75486490I-321578J-1156215D01*
G01*
X166740339Y-69304264D02*
G75*
G02X167240604Y-69581133I-511851J-1515233D01*
G01*
X204763197Y-81229286D02*
X204871468Y-82050698D01*
X204653104Y-80267045D02*
X204763197Y-81229286D01*
X204548530Y-79151241D02*
X204653104Y-80267045D01*
X205170792Y-82244268D02*
X205838871Y-82075180D01*
X205170792Y-82244267D02*
G75*
G02X204932421Y-82173543I-53987J255108D01*
G01*
X204932420Y-82173543D02*
G75*
G02X204871468Y-82050698I151926J151925D01*
G01*
X158347552Y-107575210D02*
X157101184Y-107842270D01*
X159595130Y-107199178D02*
X158347552Y-107575210D01*
X160756677Y-106736555D02*
G75*
G02X159595130Y-107199178I-5627718J12440471D01*
G01*
X161062175Y-106599280D02*
X160756678Y-106736555D01*
X161506928Y-106401229D02*
X161062175Y-106599280D01*
X161998631Y-106183274D02*
X161506928Y-106401229D01*
X162468168Y-105976169D02*
X161998631Y-106183274D01*
X163109919Y-105674613D02*
X162468168Y-105976169D01*
X164336658Y-105054298D02*
X163109919Y-105674613D01*
X165774498Y-104311795D02*
X164336658Y-105054298D01*
X167268168Y-103524513D02*
X165774498Y-104311795D01*
X171342820Y-101388518D02*
X167268168Y-103524513D01*
X174082595Y-100042541D02*
X171342820Y-101388518D01*
X176305948Y-99080525D02*
X174082595Y-100042541D01*
X178573757Y-98248607D02*
X176305948Y-99080525D01*
X178573757Y-98248607D02*
G75*
G02X182768971Y-97051927I15320264J-45756446D01*
G01*
X187283607Y-96164526D02*
X182768971Y-97051927D01*
X191936458Y-95614865D02*
X187283607Y-96164526D01*
X196546656Y-95430648D02*
X191936458Y-95614865D01*
X201487739Y-95229108D02*
X196546656Y-95430648D01*
X205997070Y-94624335D02*
G75*
G02X201487739Y-95229108I-8063620J43010577D01*
G01*
X209869196Y-93662524D02*
G75*
G02X205997071Y-94624336I-10198597J32782942D01*
G01*
X212856677Y-92372847D02*
G75*
G02X209869196Y-93662524I-7558765J13404539D01*
G01*
X214091606Y-91553026D02*
G75*
G02X212856678Y-92372847I-6253057J8079211D01*
G01*
X215220313Y-90548526D02*
G75*
G02X214091606Y-91553027I-7877175J7714801D01*
G01*
X216119663Y-89486158D02*
G75*
G02X215220314Y-90548526I-7763888J5660675D01*
G01*
X216652045Y-88497605D02*
G75*
G02X216119663Y-89486158I-3878571J1451160D01*
G01*
X217066929Y-86162739D02*
G75*
G02X216652045Y-88497605I-6544928J-41323D01*
G01*
X216602961Y-83895721D02*
G75*
G02X217066928Y-86162739I-5490208J-2304611D01*
G01*
X215339311Y-82058582D02*
G75*
G02X216602961Y-83895721I-3784147J-3956033D01*
G01*
X213479000Y-80938548D02*
G75*
G02X215339311Y-82058582I-1559477J-4695151D01*
G01*
X212206980Y-80674143D02*
G75*
G02X213479001Y-80938548I-501132J-5602875D01*
G01*
X210719432Y-80656825D02*
G75*
G02X212206980Y-80674144I632354J-9578698D01*
G01*
X209206776Y-80873040D02*
G75*
G02X210719432Y-80656825I2175017J-9817158D01*
G01*
X207856678Y-81309711D02*
G75*
G02X209206776Y-80873040I2971578J-6882073D01*
G01*
X206725534Y-81772949D02*
X207856678Y-81309710D01*
X205838871Y-82075180D02*
X206725534Y-81772949D01*
X152378483Y-106316333D02*
G75*
G02X152536325Y-104545356I2325401J685267D01*
G01*
X153479561Y-107642807D02*
G75*
G02X152378483Y-106316332I991282J1943069D01*
G01*
X154001040Y-107868335D02*
G75*
G02X153479561Y-107642808I1511039J4209585D01*
G01*
X154466799Y-107982177D02*
G75*
G02X154001040Y-107868335I307733J2268706D01*
G01*
X155035895Y-108014697D02*
G75*
G02X154466799Y-107982177I-75817J3669099D01*
G01*
X155944029Y-107977096D02*
X155035895Y-108014697D01*
X157101184Y-107842270D02*
G75*
G02X155944029Y-107977096I-1828282J10658270D01*
G01*
X159909129Y-98938747D02*
X163074542Y-97612881D01*
X157106352Y-100402121D02*
G75*
G02X159909129Y-98938747I16822645J-28804389D01*
G01*
X154175754Y-102467417D02*
G75*
G02X157106352Y-100402122I13541672J-16103396D01*
G01*
X152536325Y-104545356D02*
G75*
G02X154175755Y-102467417I5851504J-2930958D01*
G01*
X170756678Y-95271170D02*
X175605542Y-94191201D01*
X166665742Y-96398307D02*
X170756678Y-95271170D01*
X163074542Y-97612881D02*
X166665742Y-96398307D01*
X253256678Y-40031133D02*
X179656678Y-40031133D01*
X253256678Y-88131133D02*
X253256678Y-40031133D01*
X212970170Y-83998784D02*
G75*
G02X213769733Y-84904716I-1752166J-2352243D01*
G01*
X213769733Y-84904716D02*
G75*
G02X214055930Y-85987557I-1914884J-1085349D01*
G01*
X214055930Y-85987557D02*
G75*
G02X213667425Y-87498218I-3117463J-3552D01*
G01*
X213667425Y-87498217D02*
G75*
G02X212560884Y-88836770I-4105794J2267487D01*
G01*
X212560884Y-88836770D02*
G75*
G02X210716016Y-89980662I-5017574J6032696D01*
G01*
X210716015Y-89980661D02*
G75*
G02X208136324Y-90911067I-7913988J17901242D01*
G01*
X208136324Y-90911068D02*
G75*
G02X205242116Y-91581992I-8395928J29640117D01*
G01*
X202109233Y-92022139D02*
X205242116Y-91581992D01*
X197847421Y-92339004D02*
X202109233Y-92022139D01*
X190893724Y-92634214D02*
X197847421Y-92339004D01*
X185085749Y-92947197D02*
X190893724Y-92634214D01*
X180191495Y-93442827D02*
X185085749Y-92947197D01*
X175605542Y-94191201D02*
X180191495Y-93442827D01*
X209151155Y-83303493D02*
G75*
G02X210302218Y-83191449I1152710J-5873530D01*
G01*
X210302218Y-83191449D02*
G75*
G02X211758345Y-83397324I1443J-5242243D01*
G01*
X211758346Y-83397324D02*
G75*
G02X212970171Y-83998784I-1051240J-3639570D01*
G01*
X196548254Y-87056646D02*
G75*
G02X196238121Y-86601020I578987J727465D01*
G01*
X197047680Y-87231134D02*
G75*
G02X196548254Y-87056647I0J801987D01*
G01*
X197769644Y-87140301D02*
G75*
G02X197047680Y-87231133I-721964J2823801D01*
G01*
X198502654Y-86871159D02*
G75*
G02X197769644Y-87140302I-1686669J3460890D01*
G01*
X199129583Y-86478779D02*
G75*
G02X198502654Y-86871159I-2161712J2756862D01*
G01*
X199530882Y-86020944D02*
G75*
G02X199129583Y-86478778I-1416326J836644D01*
G01*
X199716106Y-85599087D02*
G75*
G02X199530882Y-86020944I-1844288J558174D01*
G01*
X199791187Y-85153534D02*
G75*
G02X199716106Y-85599087I-1783034J71358D01*
G01*
X199776154Y-84489480D02*
G75*
G02X199791186Y-85153534I-5286654J-451871D01*
G01*
X199646999Y-83119555D02*
X199776154Y-84489480D01*
X199513997Y-81495160D02*
X199646999Y-83119555D01*
X199513996Y-81495161D02*
G75*
G02X199527897Y-80446900I7085085J430269D01*
G01*
X199527897Y-80446899D02*
G75*
G02X199679518Y-79723336I3091803J-270212D01*
G01*
X199679517Y-79723337D02*
G75*
G02X199990050Y-79194257I1428785J-482925D01*
G01*
X199990051Y-79194256D02*
G75*
G02X200468442Y-78973101I499137J-451714D01*
G01*
X200468442Y-78973100D02*
G75*
G02X200834101Y-79213148I11736J-380646D01*
G01*
X200834101Y-79213148D02*
G75*
G02X201077096Y-80211096I-3437511J-1365574D01*
G01*
X201252084Y-82371127D02*
X201077096Y-80211096D01*
X201356065Y-83806295D02*
X201252084Y-82371127D01*
X201464055Y-84656316D02*
G75*
G02X201356065Y-83806295I9636376J1656113D01*
G01*
X201603890Y-85215710D02*
G75*
G02X201464055Y-84656316I3664515J1213218D01*
G01*
X201808651Y-85609588D02*
G75*
G02X201603890Y-85215710I1120349J832585D01*
G01*
X202311256Y-86044513D02*
G75*
G02X201808651Y-85609588I728698J1349964D01*
G01*
X202879711Y-86143144D02*
G75*
G02X202311256Y-86044513I-136981J897965D01*
G01*
X203672396Y-85882510D02*
G75*
G02X202879711Y-86143144I-1172798J2231175D01*
G01*
X205023366Y-85119197D02*
X203672396Y-85882510D01*
X206615562Y-84225700D02*
X205023366Y-85119197D01*
X206615562Y-84225700D02*
G75*
G02X207954278Y-83637270I5260755J-10151505D01*
G01*
X207954277Y-83637271D02*
G75*
G02X209151155Y-83303493I2728977J-7472906D01*
G01*
X194570889Y-86099783D02*
G75*
G02X194457714Y-86876911I-2128910J-86769D01*
G01*
X194460138Y-84764258D02*
X194570888Y-86099783D01*
X194270462Y-82683815D02*
X194460138Y-84764258D01*
X194270461Y-82683815D02*
G75*
G02X194325899Y-81225086I7675141J438734D01*
G01*
X194325899Y-81225086D02*
G75*
G02X194600074Y-80335759I2791492J-373677D01*
G01*
X194600074Y-80335759D02*
G75*
G02X195093731Y-80031133I493657J-247681D01*
G01*
X195093731Y-80031134D02*
G75*
G02X195437787Y-80207655I0J-423559D01*
G01*
X195437787Y-80207655D02*
G75*
G02X195662333Y-80700976I-1132857J-813408D01*
G01*
X195662333Y-80700977D02*
G75*
G02X195810625Y-81663849I-6025345J-1420822D01*
G01*
X195927867Y-83568500D02*
X195810625Y-81663849D01*
X196058949Y-85652594D02*
X195927867Y-83568500D01*
X196238121Y-86601020D02*
G75*
G02X196058949Y-85652594I4204004J1285336D01*
G01*
X192629619Y-88117714D02*
G75*
G02X191930313Y-88218368I-748028J2717445D01*
G01*
X193408163Y-87835855D02*
G75*
G02X192629619Y-88117715I-2175359J4792530D01*
G01*
X194097073Y-87402217D02*
G75*
G02X193408163Y-87835854I-1932424J2305948D01*
G01*
X194457713Y-86876911D02*
G75*
G02X194097072Y-87402217I-1123231J384689D01*
G01*
X189936081Y-80716153D02*
G75*
G02X190127870Y-80817132I-601099J-1374294D01*
G01*
X190127870Y-80817132D02*
G75*
G02X190251875Y-80925347I-272077J-436933D01*
G01*
X190251875Y-80925348D02*
G75*
G02X190348488Y-81142301I-337973J-280493D01*
G01*
X190471270Y-82045386D02*
X190348488Y-81142301D01*
X190587857Y-83127022D02*
X190471270Y-82045386D01*
X190683537Y-84358436D02*
X190587857Y-83127022D01*
X190776732Y-85595856D02*
X190683537Y-84358436D01*
X190885682Y-86696330D02*
X190776732Y-85595856D01*
X190997475Y-87616493D02*
X190885682Y-86696330D01*
X191080741Y-87876095D02*
G75*
G02X190997475Y-87616493I667571J357274D01*
G01*
X191390461Y-88136428D02*
G75*
G02X191080740Y-87876095I170635J517411D01*
G01*
X191930313Y-88218368D02*
G75*
G02X191390461Y-88136428I-28238J1633298D01*
G01*
X189013739Y-80250450D02*
G75*
G02X189010400Y-79624331I667644J316629D01*
G01*
X189492041Y-80593006D02*
G75*
G02X189013739Y-80250449I69621J602407D01*
G01*
X189492042Y-80593005D02*
G75*
G02X189713473Y-80636625I-163255J-1412609D01*
G01*
X189713472Y-80636625D02*
G75*
G02X189936080Y-80716153I-462485J-1645858D01*
G01*
X193943451Y-78590557D02*
X194226150Y-78340489D01*
X193943451Y-78590557D02*
G75*
G02X193833144Y-78631133I-110307J129648D01*
G01*
X193833144Y-78631134D02*
G75*
G02X193753369Y-78592215I0J101220D01*
G01*
X193753370Y-78592214D02*
G75*
G02X193666466Y-78456201I674300J526601D01*
G01*
X193666466Y-78456201D02*
G75*
G02X193586798Y-78263701I1135743J582770D01*
G01*
X193586799Y-78263701D02*
G75*
G02X193527575Y-78035619I1981214J636171D01*
G01*
X193203405Y-77358158D02*
G75*
G02X193527575Y-78035619I-1170545J-976403D01*
G01*
X192644014Y-77069426D02*
G75*
G02X193203404Y-77358157I-62627J-807583D01*
G01*
X191833034Y-77215606D02*
G75*
G02X192644014Y-77069426I685041J-1477803D01*
G01*
X190770258Y-77821790D02*
G75*
G02X191833035Y-77215606I4118860J-5986556D01*
G01*
X189640677Y-78740982D02*
G75*
G02X190770257Y-77821790I6266797J-6547508D01*
G01*
X189010400Y-79624331D02*
G75*
G02X189640677Y-78740982I2642226J-1218722D01*
G01*
X195683953Y-76884171D02*
G75*
G02X196435098Y-76367211I2781150J-3236830D01*
G01*
X194909192Y-77641704D02*
G75*
G02X195683953Y-76884172I6266949J-5634526D01*
G01*
X194554819Y-78020785D02*
X194909192Y-77641704D01*
X194226150Y-78340489D02*
X194554819Y-78020785D01*
X197742222Y-76109634D02*
G75*
G02X198094625Y-76241215I-411685J-1640281D01*
G01*
X197131353Y-76103942D02*
G75*
G02X197742222Y-76109634I293629J-1269675D01*
G01*
X196435098Y-76367212D02*
G75*
G02X197131353Y-76103942I1322838J-2446128D01*
G01*
X199974020Y-76872268D02*
G75*
G02X200519002Y-76242524I3688664J-2641493D01*
G01*
X199604684Y-77371556D02*
X199974020Y-76872268D01*
X199604684Y-77371557D02*
G75*
G02X199436979Y-77511505I-392352J299712D01*
G01*
X199436979Y-77511505D02*
G75*
G02X199295986Y-77496203I-58831J115140D01*
G01*
X199295985Y-77496203D02*
G75*
G02X199120223Y-77308521I632142J768135D01*
G01*
X198710272Y-76770259D02*
X199120223Y-77308521D01*
X198395961Y-76444026D02*
G75*
G02X198710272Y-76770259I-1691504J-1944216D01*
G01*
X198094625Y-76241215D02*
G75*
G02X198395961Y-76444026I-665578J-1314184D01*
G01*
X202593828Y-75042712D02*
X202783125Y-75068473D01*
X202446711Y-75033864D02*
G75*
G02X202593828Y-75042712I-12671J-1438209D01*
G01*
X201960819Y-75160632D02*
G75*
G02X202446711Y-75033865I477415J-835324D01*
G01*
X201240586Y-75631754D02*
G75*
G02X201960819Y-75160631I4278423J-5754578D01*
G01*
X200519002Y-76242525D02*
G75*
G02X201240586Y-75631755I5194135J-5404891D01*
G01*
X159098142Y-82782254D02*
G75*
G02X158065971Y-83529092I-1374874J813473D01*
G01*
X159453953Y-81368619D02*
G75*
G02X159098142Y-82782254I-2566575J-105592D01*
G01*
X158999978Y-79647202D02*
G75*
G02X159453953Y-81368619I-3681910J-1891571D01*
G01*
X157844415Y-78143848D02*
G75*
G02X158999977Y-79647202I-3535479J-3913359D01*
G01*
X202980871Y-75105035D02*
X203156678Y-75147848D01*
X202783125Y-75068473D02*
X202980871Y-75105035D01*
X157064034Y-83414923D02*
G75*
G02X156444011Y-83050844I1645582J3512390D01*
G01*
X157557575Y-83554924D02*
G75*
G02X157064035Y-83414924I182258J1582446D01*
G01*
X158065970Y-83529092D02*
G75*
G02X157557575Y-83554924I-331555J1509557D01*
G01*
X207212537Y-81096558D02*
X206529279Y-81380632D01*
X208317578Y-80640589D02*
X207212537Y-81096558D01*
X208317578Y-80640589D02*
G75*
G02X209020424Y-80438169I1489108J-3849079D01*
G01*
X209020425Y-80438169D02*
G75*
G02X209781563Y-80352847I912335J-4701132D01*
G01*
X211156678Y-80331133D02*
X209781563Y-80352847D01*
X212710311Y-80396277D02*
X211156678Y-80331133D01*
X212710311Y-80396277D02*
G75*
G02X213815629Y-80609610I-441819J-5259243D01*
G01*
X213815629Y-80609610D02*
G75*
G02X214724151Y-81022324I-1137929J-3711303D01*
G01*
X214724151Y-81022325D02*
G75*
G02X215633243Y-81703704I-3411109J-5498220D01*
G01*
X216109809Y-82131133D02*
X215633243Y-81703704D01*
X215975858Y-81331133D02*
X216109809Y-82131133D01*
X215886761Y-80947448D02*
G75*
G02X215975858Y-81331133I-3032292J-906327D01*
G01*
X215721542Y-80443008D02*
X215886761Y-80947448D01*
X215516201Y-79910878D02*
X215721542Y-80443008D01*
X215298203Y-79431133D02*
X215516201Y-79910878D01*
X214982707Y-78858178D02*
G75*
G02X215298203Y-79431133I-6307597J-3846597D01*
G01*
X214683990Y-78462988D02*
G75*
G02X214982707Y-78858178I-1827292J-1691711D01*
G01*
X214333977Y-78160170D02*
G75*
G02X214683990Y-78462988I-1187458J-1726211D01*
G01*
X213863210Y-77881133D02*
G75*
G02X214333978Y-78160169I-1828276J-3621163D01*
G01*
X157137408Y-77653605D02*
G75*
G02X157844415Y-78143848I-1544665J-2982574D01*
G01*
X156408957Y-77432768D02*
G75*
G02X157137408Y-77653605I-230712J-2072868D01*
G01*
X155710032Y-77498534D02*
G75*
G02X156408957Y-77432767I507882J-1650681D01*
G01*
X155085737Y-77836802D02*
G75*
G02X155710032Y-77498534I1154862J-1386148D01*
G01*
X155085737Y-77836802D02*
G75*
G02X154814042Y-78022865I-1120959J1345456D01*
G01*
X154814043Y-78022865D02*
G75*
G02X154549854Y-78121703I-462853J834684D01*
G01*
X154549853Y-78121703D02*
G75*
G02X154242377Y-78146552I-249484J1172330D01*
G01*
X154242378Y-78146551D02*
G75*
G02X153830989Y-78103827I181752J3752045D01*
G01*
X152274490Y-78139282D02*
G75*
G02X153830989Y-78103827I874934J-4226800D01*
G01*
X150496671Y-78710603D02*
G75*
G02X152274489Y-78139282I3552847J-8003888D01*
G01*
X148848545Y-79661398D02*
G75*
G02X150496671Y-78710604I5313634J-7306918D01*
G01*
X147676255Y-80835847D02*
G75*
G02X148848546Y-79661398I4282120J-3101957D01*
G01*
X146733108Y-82792937D02*
G75*
G02X147676255Y-80835847I5915839J-1645116D01*
G01*
X146484725Y-85029017D02*
G75*
G02X146733108Y-82792937I7025536J351439D01*
G01*
X146954764Y-87220548D02*
G75*
G02X146484725Y-85029017I6499412J2540167D01*
G01*
X148087116Y-89049256D02*
G75*
G02X146954764Y-87220548I4406421J3993428D01*
G01*
X148672698Y-89612803D02*
G75*
G02X148087116Y-89049256I3826357J4561978D01*
G01*
X149402381Y-90167744D02*
G75*
G02X148672698Y-89612804I5444679J7916342D01*
G01*
X150336087Y-90758472D02*
X149402381Y-90167743D01*
X151556678Y-91435540D02*
X150336087Y-90758472D01*
X151556678Y-91435540D02*
G75*
G02X153191374Y-92412191I-8681681J-16387594D01*
G01*
X153191375Y-92412191D02*
G75*
G02X154059906Y-93259163I-1854945J-2770967D01*
G01*
X154059906Y-93259163D02*
G75*
G02X154316290Y-94089283I-1143509J-807827D01*
G01*
X154316289Y-94089283D02*
G75*
G02X154059513Y-94978391I-1765018J28109D01*
G01*
X154059513Y-94978390D02*
G75*
G02X153845271Y-95271006I-1811994J1101937D01*
G01*
X153845271Y-95271006D02*
G75*
G02X153603801Y-95489501I-1044537J911693D01*
G01*
X153603801Y-95489501D02*
G75*
G02X153322723Y-95642058I-770404J1084216D01*
G01*
X153322722Y-95642058D02*
G75*
G02X152990513Y-95737981I-665997J1683309D01*
G01*
X152990513Y-95737981D02*
G75*
G02X152118588Y-95698668I-352201J1877401D01*
G01*
X152118588Y-95698668D02*
G75*
G02X151277743Y-95279718I688584J2435283D01*
G01*
X151277743Y-95279718D02*
G75*
G02X150412574Y-94425774I2834897J3737406D01*
G01*
X150412573Y-94425774D02*
G75*
G02X149454575Y-93055905I12754757J9939774D01*
G01*
X148866684Y-92265052D02*
G75*
G02X149454575Y-93055905I-4597182J-4031312D01*
G01*
X148273076Y-91782238D02*
G75*
G02X148866684Y-92265052I-1126138J-1990879D01*
G01*
X147659547Y-91593567D02*
G75*
G02X148273076Y-91782238I-122266J-1489473D01*
G01*
X147014635Y-91675759D02*
G75*
G02X147659547Y-91593567I516535J-1481735D01*
G01*
X146140242Y-92519580D02*
G75*
G02X147014635Y-91675759I1351885J-525918D01*
G01*
X145905782Y-94067051D02*
G75*
G02X146140242Y-92519579I3566848J251079D01*
G01*
X146363510Y-95900060D02*
G75*
G02X145905782Y-94067052I4971885J2215204D01*
G01*
X147424599Y-97499783D02*
G75*
G02X146363510Y-95900060I4228309J3956387D01*
G01*
X148256039Y-98208343D02*
G75*
G02X147424598Y-97499783I2710718J4022917D01*
G01*
X149227406Y-98715434D02*
G75*
G02X148256040Y-98208343I1772395J4579045D01*
G01*
X150389230Y-99037198D02*
G75*
G02X149227406Y-98715434I1036663J6001613D01*
G01*
X151794085Y-99191067D02*
G75*
G02X150389229Y-99037198I537817J11400655D01*
G01*
X153885503Y-99099376D02*
G75*
G02X151794085Y-99191066I-1548378J11419901D01*
G01*
X155759978Y-98621364D02*
G75*
G02X153885503Y-99099377I-3007738J7880243D01*
G01*
X157452118Y-97737308D02*
G75*
G02X155759978Y-98621364I-4612326J6766825D01*
G01*
X159001869Y-96439995D02*
G75*
G02X157452118Y-97737308I-7326337J7177621D01*
G01*
X159883109Y-95397523D02*
G75*
G02X159001869Y-96439995I-7532754J5474004D01*
G01*
X160405872Y-94423187D02*
G75*
G02X159883109Y-95397522I-3822123J1423287D01*
G01*
X160672974Y-93289499D02*
G75*
G02X160405872Y-94423187I-4641428J495233D01*
G01*
X160755363Y-91731133D02*
G75*
G02X160672974Y-93289500I-14597671J-9598D01*
G01*
X160735782Y-90664848D02*
X160755363Y-91731133D01*
X160670629Y-89945087D02*
G75*
G02X160735782Y-90664848I-6599711J-960241D01*
G01*
X160543501Y-89373698D02*
G75*
G02X160670629Y-89945087I-3767383J-1138036D01*
G01*
X160330818Y-88813255D02*
G75*
G02X160543501Y-89373698I-3928437J-1811384D01*
G01*
X159584968Y-87613751D02*
G75*
G02X160330818Y-88813255I-4429192J-3585700D01*
G01*
X158575053Y-86651199D02*
G75*
G02X159584969Y-87613751I-3209123J-4378115D01*
G01*
X157110306Y-85780529D02*
G75*
G02X158575053Y-86651199I-3777855J-8022985D01*
G01*
X154909469Y-84839443D02*
X157110306Y-85780529D01*
X154909469Y-84839443D02*
G75*
G02X153756552Y-84327011I4525655J11735426D01*
G01*
X153756551Y-84327011D02*
G75*
G02X153016516Y-83818407I1520490J3005054D01*
G01*
X153016517Y-83818407D02*
G75*
G02X152602699Y-83262936I1201730J1327150D01*
G01*
X152602699Y-83262936D02*
G75*
G02X152456678Y-82618447I1349266J644488D01*
G01*
X152456678Y-82618447D02*
G75*
G02X152708924Y-81820529I1388129J0D01*
G01*
X152708924Y-81820529D02*
G75*
G02X153343834Y-81446668I729120J-512180D01*
G01*
X153343834Y-81446668D02*
G75*
G02X154310655Y-81607098I193986J-1824415D01*
G01*
X154310655Y-81607097D02*
G75*
G02X155444231Y-82300786I-2453075J-5281687D01*
G01*
X156444011Y-83050844D02*
X155444231Y-82300786D01*
X148243986Y-91312080D02*
G75*
G02X148783233Y-91553700I-361784J-1529989D01*
G01*
X148783233Y-91553700D02*
G75*
G02X149257572Y-92012429I-1198945J-1714350D01*
G01*
X149257571Y-92012429D02*
G75*
G02X149761427Y-92777791I-5957767J-4470663D01*
G01*
X150363871Y-93694649D02*
G75*
G02X149761427Y-92777791I7244441J5416496D01*
G01*
X151049505Y-94490607D02*
G75*
G02X150363872Y-93694649I5410771J5354088D01*
G01*
X151728392Y-95080536D02*
G75*
G02X151049505Y-94490606I3572407J4796694D01*
G01*
X152296724Y-95339929D02*
G75*
G02X151728392Y-95080536I318508J1450161D01*
G01*
X153176804Y-95255764D02*
G75*
G02X152296723Y-95339929I-570717J1324357D01*
G01*
X153757442Y-94674960D02*
G75*
G02X153176805Y-95255764I-1020246J439315D01*
G01*
X153809624Y-93807386D02*
G75*
G02X153757441Y-94674961I-1227389J-361531D01*
G01*
X153306677Y-92994467D02*
G75*
G02X153809624Y-93807386I-1231017J-1323664D01*
G01*
X152987474Y-92742228D02*
G75*
G02X153306678Y-92994466I-1405530J-2106775D01*
G01*
X152418865Y-92378584D02*
X152987474Y-92742229D01*
X151747846Y-91985529D02*
X152418865Y-92378584D01*
X151056678Y-91616126D02*
X151747846Y-91985529D01*
X150202218Y-91141532D02*
X151056678Y-91616126D01*
X149434388Y-90633131D02*
X150202218Y-91141532D01*
X148709980Y-90059850D02*
X149434388Y-90633131D01*
X147985988Y-89390211D02*
X148709980Y-90059850D01*
X212748426Y-77524900D02*
G75*
G02X213863210Y-77881133I-558728J-3670870D01*
G01*
X211598291Y-77542612D02*
G75*
G02X212748426Y-77524901I627779J-3414229D01*
G01*
X210067198Y-77980546D02*
G75*
G02X211598291Y-77542611I3021744J-7669081D01*
G01*
X207511855Y-79048972D02*
X210067198Y-77980546D01*
X205067033Y-80131133D02*
X207511855Y-79048972D01*
X205061855Y-80869330D02*
X205067033Y-80131133D01*
X205074975Y-81161277D02*
G75*
G02X205061855Y-80869330I2802299J272198D01*
G01*
X205118670Y-81428054D02*
G75*
G02X205074975Y-81161277I2011253J466385D01*
G01*
X205183197Y-81638941D02*
G75*
G02X205118670Y-81428055I1491777J571773D01*
G01*
X205262536Y-81734755D02*
G75*
G02X205183197Y-81638941I102226J165405D01*
G01*
X205412053Y-81755466D02*
G75*
G02X205262537Y-81734755I-51313J179607D01*
G01*
X205920266Y-81599766D02*
X205412053Y-81755466D01*
X206529279Y-81380632D02*
X205920266Y-81599766D01*
X145456678Y-93744154D02*
G75*
G02X145600318Y-92709837I3795727J3D01*
G01*
X145600318Y-92709837D02*
G75*
G02X146022096Y-91909951I2094107J-593074D01*
G01*
X146022096Y-91909951D02*
G75*
G02X146691518Y-91408985I1386294J-1154707D01*
G01*
X146691518Y-91408984D02*
G75*
G02X147549889Y-91231133I858369J-1982460D01*
G01*
X147549889Y-91231133D02*
G75*
G02X148243986Y-91312081I-3J-3016320D01*
G01*
X207291192Y-104588223D02*
G75*
G02X206190257Y-104535343I-328807J4641230D01*
G01*
X208301760Y-104395360D02*
G75*
G02X207291192Y-104588223I-1319726J4171094D01*
G01*
X209297197Y-103965850D02*
G75*
G02X208301760Y-104395360I-2618579J4700585D01*
G01*
X210144850Y-103369608D02*
G75*
G02X209297197Y-103965851I-3259490J3733221D01*
G01*
X210713533Y-102681725D02*
G75*
G02X210144851Y-103369608I-2385885J1393431D01*
G01*
X210961803Y-101857896D02*
G75*
G02X210713533Y-102681724I-1837852J104536D01*
G01*
X210783709Y-101066415D02*
G75*
G02X210961804Y-101857896I-1296847J-707587D01*
G01*
X210041817Y-100024283D02*
G75*
G02X210783709Y-101066415I-3979960J-3618470D01*
G01*
X208182316Y-98042567D02*
X210041817Y-100024283D01*
X147079424Y-88532540D02*
X147985988Y-89390211D01*
X146561526Y-88195249D02*
G75*
G02X147079424Y-88532540I-806574J-1804716D01*
G01*
X146046341Y-88092836D02*
G75*
G02X146561526Y-88195249I32897J-1181532D01*
G01*
X145256677Y-88170411D02*
G75*
G02X146046340Y-88092837I947335J-5585409D01*
G01*
X143873846Y-88554582D02*
G75*
G02X145256678Y-88170411I2550255J-6498840D01*
G01*
X142918639Y-89173686D02*
G75*
G02X143873845Y-88554582I1996002J-2033162D01*
G01*
X142372627Y-90044228D02*
G75*
G02X142918639Y-89173686I2095553J-707848D01*
G01*
X142201116Y-91170119D02*
G75*
G02X142372627Y-90044228I3277514J76734D01*
G01*
X142326887Y-92115294D02*
G75*
G02X142201116Y-91170119I4260382J1047867D01*
G01*
X142652973Y-92901570D02*
G75*
G02X142326887Y-92115294I2404078J1457777D01*
G01*
X143187325Y-93531897D02*
G75*
G02X142652972Y-92901570I1709809J1991132D01*
G01*
X143927364Y-94016943D02*
G75*
G02X143187326Y-93531897I1494515J3087259D01*
G01*
X144742340Y-94374511D02*
X143927364Y-94016943D01*
X145159246Y-94416248D02*
G75*
G02X144742340Y-94374511I-134856J756030D01*
G01*
X145382116Y-94221309D02*
G75*
G02X145159245Y-94416248I-273258J87539D01*
G01*
X145456677Y-93744153D02*
G75*
G02X145382115Y-94221308I-1564035J-1D01*
G01*
X199348286Y-101200776D02*
X198399801Y-100754828D01*
X200413951Y-101749884D02*
X199348286Y-101200776D01*
X201456678Y-102336463D02*
X200413951Y-101749884D01*
X203641110Y-103569171D02*
X201456678Y-102336463D01*
X205066875Y-104227434D02*
G75*
G02X203641110Y-103569171I4406094J11416583D01*
G01*
X206190257Y-104535342D02*
G75*
G02X205066875Y-104227433I960391J5707148D01*
G01*
X176480127Y-65550433D02*
X177693913Y-67998598D01*
X175701062Y-64114295D02*
X176480127Y-65550433D01*
X175056805Y-63120965D02*
G75*
G02X175701062Y-64114295I-9895910J-7123914D01*
G01*
X174364252Y-62273983D02*
G75*
G02X175056805Y-63120965I-6533695J-6049049D01*
G01*
X173813857Y-61714826D02*
X174364252Y-62273983D01*
X193609110Y-101804593D02*
G75*
G02X194573650Y-100771748I2293973J-1175466D01*
G01*
X194573650Y-100771748D02*
G75*
G02X196039530Y-100325866I1618531J-2688521D01*
G01*
X196039530Y-100325866D02*
G75*
G02X197789813Y-100530976I260455J-5347912D01*
G01*
X197789813Y-100530976D02*
G75*
G02X198399801Y-100754828I-1297176J-4477776D01*
G01*
X196991191Y-75703108D02*
G75*
G02X197673307Y-75710594I315881J-2297794D01*
G01*
X198077583Y-75759891D02*
X197673307Y-75710594D01*
X198306947Y-75737923D02*
G75*
G02X198077583Y-75759891I-175182J620670D01*
G01*
X198449422Y-75643994D02*
G75*
G02X198306947Y-75737923I-218984J177144D01*
G01*
X198546173Y-75464231D02*
G75*
G02X198449423Y-75643994I-524931J166606D01*
G01*
X193433147Y-104594038D02*
X193627050Y-105545991D01*
X193294477Y-103762967D02*
X193433147Y-104594038D01*
X193294477Y-103762967D02*
G75*
G02X193257425Y-103259540I3364325J500689D01*
G01*
X193257425Y-103259540D02*
G75*
G02X193609111Y-101804594I3196086J-2572D01*
G01*
X194281759Y-108412643D02*
G75*
G02X194448118Y-109930346I-10165584J-1882243D01*
G01*
X193856678Y-106498791D02*
X194281759Y-108412643D01*
X193627050Y-105545991D02*
X193856678Y-106498791D01*
X189813784Y-113603601D02*
G75*
G02X188374118Y-113239576I163643J3676027D01*
G01*
X191538958Y-113455397D02*
G75*
G02X189813784Y-113603602I-1428583J6514338D01*
G01*
X193102136Y-112884848D02*
G75*
G02X191538957Y-113455396I-2896355J5508735D01*
G01*
X194050596Y-111994739D02*
G75*
G02X193102137Y-112884849I-2084731J1271019D01*
G01*
X194374478Y-111116691D02*
G75*
G02X194050596Y-111994739I-2395025J384684D01*
G01*
X194448118Y-109930346D02*
G75*
G02X194374477Y-111116691I-6116208J-215803D01*
G01*
X186741361Y-111918793D02*
G75*
G02X185966112Y-110813120I7070084J5781848D01*
G01*
X187509008Y-112686921D02*
G75*
G02X186741360Y-111918794I3459881J4225369D01*
G01*
X188374118Y-113239576D02*
G75*
G02X187509008Y-112686921I1905521J3936282D01*
G01*
X184187710Y-107567784D02*
X183484416Y-106407846D01*
X185059979Y-109187031D02*
X184187710Y-107567784D01*
X185966112Y-110813120D02*
X185059979Y-109187031D01*
X176750809Y-104540691D02*
G75*
G02X177436254Y-103887493I2245945J-1670583D01*
G01*
X177436255Y-103887494D02*
G75*
G02X178494981Y-103477891I1435761J-2138026D01*
G01*
X178494981Y-103477890D02*
G75*
G02X179737232Y-103508176I533594J-3605477D01*
G01*
X179737232Y-103508176D02*
G75*
G02X181022052Y-103975250I-872039J-4399457D01*
G01*
X181022051Y-103975251D02*
G75*
G02X182199300Y-104831596I-2759175J-5030512D01*
G01*
X182199300Y-104831596D02*
G75*
G02X182848826Y-105534544I-4777079J-5065594D01*
G01*
X182848826Y-105534544D02*
G75*
G02X183484416Y-106407846I-8772729J-7052739D01*
G01*
X170322922Y-115431134D02*
G75*
G02X168911687Y-115248508I-5J5543915D01*
G01*
X170824699Y-115401528D02*
G75*
G02X170322922Y-115431133I-501778J4237601D01*
G01*
X171202543Y-115308183D02*
G75*
G02X170824700Y-115401529I-562361J1464936D01*
G01*
X171550141Y-115123410D02*
G75*
G02X171202542Y-115308184I-926983J1324511D01*
G01*
X171957363Y-114803703D02*
G75*
G02X171550141Y-115123410I-3109850J3541923D01*
G01*
X172688532Y-114012766D02*
G75*
G02X171957363Y-114803703I-4150344J3103295D01*
G01*
X173285739Y-113045806D02*
G75*
G02X172688532Y-114012767I-5730625J2871407D01*
G01*
X173882395Y-111659017D02*
G75*
G02X173285739Y-113045806I-12200187J4427301D01*
G01*
X174651416Y-109427030D02*
X173882396Y-111659017D01*
X175464513Y-107080189D02*
X174651416Y-109427030D01*
X175464513Y-107080188D02*
G75*
G02X176124615Y-105555926I13653390J-5007716D01*
G01*
X176124614Y-105555927D02*
G75*
G02X176750809Y-104540691I6142665J-3088040D01*
G01*
X201405428Y-95615323D02*
X203106219Y-95512386D01*
X199374391Y-95719258D02*
X201405428Y-95615323D01*
X197156678Y-95811781D02*
X199374391Y-95719258D01*
X193348936Y-95978262D02*
X197156678Y-95811781D01*
X190696040Y-96156493D02*
X193348936Y-95978262D01*
X188480036Y-96394253D02*
X190696040Y-96156493D01*
X186163774Y-96741471D02*
X188480036Y-96394253D01*
X183315422Y-97324504D02*
X186163774Y-96741471D01*
X180380926Y-98121115D02*
X183315422Y-97324504D01*
X177451509Y-99103561D02*
X180380926Y-98121115D01*
X174618159Y-100244069D02*
X177451509Y-99103561D01*
X172502437Y-101247505D02*
X174618159Y-100244069D01*
X168937529Y-103101643D02*
X172502437Y-101247505D01*
X164980004Y-105197859D02*
X168937529Y-103101643D01*
X164857794Y-105403106D02*
G75*
G02X164980004Y-105197859I230089J2005D01*
G01*
X164866933Y-105485307D02*
G75*
G02X164857793Y-105403106I396918J85739D01*
G01*
X164914947Y-105699150D02*
X164866932Y-105485307D01*
X164977222Y-105953694D02*
X164914947Y-105699150D01*
X165050794Y-106231133D02*
X164977222Y-105953694D01*
X165050795Y-106231134D02*
G75*
G02X165137043Y-106646790I-3253825J-891942D01*
G01*
X165246129Y-107470907D02*
X165137043Y-106646790D01*
X165354277Y-108445822D02*
X165246129Y-107470907D01*
X165446308Y-109468661D02*
X165354277Y-108445822D01*
X165548406Y-110502546D02*
X165446308Y-109468661D01*
X165686048Y-111502234D02*
X165548406Y-110502546D01*
X165837335Y-112352282D02*
X165686048Y-111502234D01*
X165976851Y-112823228D02*
G75*
G02X165837335Y-112352282I2465826J986626D01*
G01*
X166632222Y-113879101D02*
G75*
G02X165976850Y-112823228I2660241J2382518D01*
G01*
X167642114Y-114713349D02*
G75*
G02X166632222Y-113879102I2255433J3758681D01*
G01*
X168911688Y-115248508D02*
G75*
G02X167642114Y-114713349I1243069J4722474D01*
G01*
X158999406Y-112159730D02*
G75*
G02X158268229Y-111471451I250690J998829D01*
G01*
X159819658Y-112029484D02*
G75*
G02X158999406Y-112159729I-562717J895859D01*
G01*
X160562945Y-111295983D02*
G75*
G02X159819658Y-112029484I-2027850J1311554D01*
G01*
X160965751Y-110264345D02*
G75*
G02X160562946Y-111295983I-2722010J468357D01*
G01*
X160835352Y-109321094D02*
G75*
G02X160965751Y-110264345I-1418508J-676739D01*
G01*
X207117355Y-96969678D02*
X208182316Y-98042567D01*
X206190138Y-96095066D02*
X207117355Y-96969678D01*
X205412683Y-95408827D02*
X206190138Y-96095066D01*
X205156678Y-95303744D02*
G75*
G02X205412683Y-95408827I-29947J-437341D01*
G01*
X204939302Y-95303285D02*
G75*
G02X205156678Y-95303744I105224J-1638357D01*
G01*
X204580428Y-95332106D02*
X204939302Y-95303285D01*
X204168865Y-95378600D02*
X204580428Y-95332106D01*
X203756678Y-95438756D02*
X204168865Y-95378600D01*
X203756677Y-95438756D02*
G75*
G02X203106219Y-95512386I-1087189J6694454D01*
G01*
X160667221Y-109037138D02*
G75*
G02X160835352Y-109321094I-1498928J-1079271D01*
G01*
X160477014Y-108847648D02*
G75*
G02X160667221Y-109037137I-480111J-672135D01*
G01*
X160238495Y-108731205D02*
G75*
G02X160477015Y-108847648I-228012J-769567D01*
G01*
X159923610Y-108669828D02*
G75*
G02X160238495Y-108731205I-162775J-1673539D01*
G01*
X158900771Y-109041174D02*
G75*
G02X159923610Y-108669828I900532J-886104D01*
G01*
X158238144Y-110203590D02*
G75*
G02X158900771Y-109041174I2523003J-668150D01*
G01*
X158268229Y-111471450D02*
G75*
G02X158238144Y-110203590I2168095J685734D01*
G01*
X160806677Y-79781546D02*
G75*
G02X161311959Y-79390293I2150595J-2255476D01*
G01*
X162233027Y-78848247D02*
X161311959Y-79390293D01*
X163228785Y-78328120D02*
X162233027Y-78848247D01*
X163228786Y-78328119D02*
G75*
G02X164056678Y-77973614I3921799J-8014801D01*
G01*
X162704648Y-93168437D02*
G75*
G02X162345221Y-91214765I9176146J2698081D01*
G01*
X162034678Y-86581133D02*
X162345221Y-91214765D01*
X161791125Y-82231133D02*
X162034678Y-86581133D01*
X161263901Y-82231133D02*
X161791125Y-82231133D01*
X161263901Y-82231134D02*
G75*
G02X160802654Y-82160000I0J1530985D01*
G01*
X160802653Y-82160000D02*
G75*
G02X160490969Y-81951399I201789J638660D01*
G01*
X160490969Y-81951399D02*
G75*
G02X160313306Y-81583835I640091J536108D01*
G01*
X160313307Y-81583836D02*
G75*
G02X160256678Y-81028552I2694150J555284D01*
G01*
X160256677Y-81028552D02*
G75*
G02X160287726Y-80661145I2189314J1D01*
G01*
X160287726Y-80661145D02*
G75*
G02X160381024Y-80350770I1297986J-220960D01*
G01*
X160381024Y-80350770D02*
G75*
G02X160549274Y-80067510I1252906J-552601D01*
G01*
X160549274Y-80067510D02*
G75*
G02X160806678Y-79781546I1998644J-1540198D01*
G01*
X167195355Y-88959898D02*
X167039837Y-87560541D01*
X167364582Y-89612267D02*
G75*
G02X167195355Y-88959898I2890339J1097896D01*
G01*
X167630285Y-89741684D02*
G75*
G02X167364582Y-89612267I-64019J206027D01*
G01*
X167630284Y-89741685D02*
G75*
G02X168146448Y-89811442I183141J-589396D01*
G01*
X168146449Y-89811441D02*
G75*
G02X168550351Y-90274231I-592846J-925060D01*
G01*
X168550351Y-90274231D02*
G75*
G02X168711969Y-91001546I-1579739J-732651D01*
G01*
X168711969Y-91001547D02*
G75*
G02X168562057Y-91750773I-1917820J-5876D01*
G01*
X168562058Y-91750773D02*
G75*
G02X167924535Y-92687078I-2631068J1106279D01*
G01*
X167924534Y-92687078D02*
G75*
G02X166811300Y-93567523I-4770666J4888019D01*
G01*
X166811300Y-93567524D02*
G75*
G02X165520836Y-94209767I-3743461J5904169D01*
G01*
X165520836Y-94209767D02*
G75*
G02X164341540Y-94426741I-1197685J3196311D01*
G01*
X164341540Y-94426740D02*
G75*
G02X163324703Y-94080190I-8831J1639147D01*
G01*
X163324704Y-94080190D02*
G75*
G02X162704648Y-93168437I1107027J1419572D01*
G01*
X165111042Y-77860982D02*
G75*
G02X165623917Y-77957366I-249070J-2738090D01*
G01*
X165623917Y-77957367D02*
G75*
G02X165942092Y-78145119I-205073J-711000D01*
G01*
X165942091Y-78145119D02*
G75*
G02X166213329Y-78574289I-816038J-816038D01*
G01*
X166213330Y-78574289D02*
G75*
G02X166375556Y-79228189I-3221903J-1146397D01*
G01*
X166510088Y-80438842D02*
X166375556Y-79228189D01*
X166755039Y-83731133D02*
X166510088Y-80438842D01*
X167039837Y-87560541D02*
X166755039Y-83731133D01*
X165870923Y-78757990D02*
X166038501Y-80322892D01*
X165759502Y-78435701D02*
G75*
G02X165870923Y-78757990I-662488J-409440D01*
G01*
X164056677Y-77973615D02*
G75*
G02X164546731Y-77861928I672119J-1818137D01*
G01*
X164546732Y-77861928D02*
G75*
G02X165111042Y-77860983I287256J-3044783D01*
G01*
X166960757Y-90037734D02*
G75*
G02X166906073Y-89879725I325309J201051D01*
G01*
X166789866Y-88827020D02*
X166906073Y-89879725D01*
X166668317Y-87603162D02*
X166789866Y-88827020D01*
X166546846Y-86187735D02*
X166668317Y-87603162D01*
X166247294Y-82563664D02*
X166546846Y-86187735D01*
X166038501Y-80322892D02*
X166247294Y-82563664D01*
X167434550Y-90216905D02*
G75*
G02X167217956Y-90174323I184334J1509744D01*
G01*
X167217956Y-90174323D02*
G75*
G02X167045720Y-90112348I307093J1123773D01*
G01*
X167045720Y-90112348D02*
G75*
G02X166960757Y-90037735I79594J176315D01*
G01*
X168298331Y-90731553D02*
G75*
G02X168259992Y-91323309I-6758504J140745D01*
G01*
X168225908Y-90432731D02*
G75*
G02X168298330Y-90731553I-528641J-286306D01*
G01*
X168033968Y-90280339D02*
G75*
G02X168225909Y-90432730I-82559J-301058D01*
G01*
X167668481Y-90231134D02*
G75*
G02X168033968Y-90280339I1J-1381973D01*
G01*
X167668481Y-90231133D02*
G75*
G02X167434550Y-90216905I0J1930189D01*
G01*
X164616847Y-94045862D02*
G75*
G02X163519190Y-93874000I-351688J1345035D01*
G01*
X166257625Y-93400624D02*
G75*
G02X164616847Y-94045863I-3520236J6542814D01*
G01*
X167720094Y-92374274D02*
G75*
G02X166257624Y-93400624I-5048090J5638013D01*
G01*
X168259991Y-91323309D02*
G75*
G02X167720094Y-92374274I-1641056J178877D01*
G01*
X162847127Y-91715724D02*
X162600971Y-89158527D01*
X163122937Y-93307191D02*
G75*
G02X162847127Y-91715724I17851436J3913385D01*
G01*
X163519190Y-93874000D02*
G75*
G02X163122937Y-93307191I482963J759550D01*
G01*
X162271507Y-83600496D02*
X162181749Y-82726179D01*
X162341140Y-84676931D02*
X162271507Y-83600496D01*
X162600971Y-89158527D02*
X162341140Y-84676931D01*
X161867507Y-81834445D02*
G75*
G02X161985795Y-81887326I-138217J-467915D01*
G01*
X161985796Y-81887326D02*
G75*
G02X162082811Y-82033145I-110402J-178634D01*
G01*
X162181749Y-82726179D02*
X162082811Y-82033145D01*
X161261695Y-81741529D02*
G75*
G02X161471112Y-81755468I-47088J-2287500D01*
G01*
X161682718Y-81788645D02*
X161471112Y-81755468D01*
X161682719Y-81788644D02*
G75*
G02X161867507Y-81834445I-424615J-2108847D01*
G01*
X160691686Y-81163447D02*
G75*
G02X160738010Y-80677198I1169617J133903D01*
G01*
X160747965Y-81451757D02*
G75*
G02X160691686Y-81163447I1797653J500555D01*
G01*
X160844992Y-81619283D02*
G75*
G02X160747965Y-81451756I274940J271099D01*
G01*
X161004522Y-81708935D02*
G75*
G02X160844992Y-81619283I75865J321759D01*
G01*
X161261694Y-81741528D02*
G75*
G02X161004523Y-81708935I25333J1230754D01*
G01*
X162225271Y-79280362D02*
G75*
G02X163382145Y-78694082I5375284J-9172221D01*
G01*
X161451187Y-79785205D02*
G75*
G02X162225271Y-79280362I5661943J-7835660D01*
G01*
X160977366Y-80232430D02*
G75*
G02X161451187Y-79785205I1936658J-1577218D01*
G01*
X160738010Y-80677198D02*
G75*
G02X160977365Y-80232430I1277533J-400725D01*
G01*
X165348445Y-78214338D02*
G75*
G02X165759501Y-78435702I13658J-466970D01*
G01*
X164475511Y-78330165D02*
G75*
G02X165348445Y-78214338I998515J-4177982D01*
G01*
X163382145Y-78694082D02*
G75*
G02X164475511Y-78330165I2639806J-6106697D01*
G01*
X179647089Y-80363589D02*
G75*
G02X181076483Y-79203470I11663939J-12910614D01*
G01*
X181076484Y-79203470D02*
G75*
G02X182130403Y-78711902I1788407J-2458751D01*
G01*
X182130403Y-78711901D02*
G75*
G02X182909868Y-78807485I265041J-1064626D01*
G01*
X182909868Y-78807485D02*
G75*
G02X183493610Y-79405986I-642804J-1210876D01*
G01*
X183830542Y-80080838D02*
X183493610Y-79405986D01*
X184122483Y-79382124D02*
X183830542Y-80080838D01*
X184122484Y-79382124D02*
G75*
G02X184268371Y-79090705I2201205J-919724D01*
G01*
X184268371Y-79090705D02*
G75*
G02X184465445Y-78792854I2958348J-1743277D01*
G01*
X184465444Y-78792854D02*
G75*
G02X184680629Y-78531986I2558180J-1891006D01*
G01*
X184680629Y-78531986D02*
G75*
G02X184880052Y-78357272I902134J-828547D01*
G01*
X178893953Y-81407431D02*
G75*
G02X179007552Y-81083718I1067765J-192915D01*
G01*
X179007552Y-81083717D02*
G75*
G02X179235083Y-80768115I1336069J-723409D01*
G01*
X179647089Y-80363589D02*
X179235083Y-80768115D01*
X184792638Y-89732966D02*
G75*
G02X184098517Y-90179528I-2535529J3178399D01*
G01*
X184098516Y-90179527D02*
G75*
G02X183253267Y-90532266I-2780364J5473364D01*
G01*
X183253268Y-90532267D02*
G75*
G02X181967792Y-90756107I-1391990J4190897D01*
G01*
X181967792Y-90756106D02*
G75*
G02X181187686Y-90400418I-23678J981387D01*
G01*
X181187685Y-90400418D02*
G75*
G02X180765854Y-89403226I1454421J1203065D01*
G01*
X180765854Y-89403226D02*
G75*
G02X180654939Y-87391065I18480947J2027852D01*
G01*
X180645020Y-86525403D02*
X180654939Y-87391065D01*
X180616664Y-85627801D02*
X180645020Y-86525403D01*
X180575849Y-84822396D02*
X180616664Y-85627801D01*
X180527081Y-84281133D02*
X180575849Y-84822396D01*
X180443917Y-83712227D02*
X180527081Y-84281133D01*
X180348990Y-83425835D02*
G75*
G02X180443917Y-83712227I-904553J-458750D01*
G01*
X180208106Y-83283413D02*
G75*
G02X180348990Y-83425835I-151395J-290653D01*
G01*
X179994567Y-83231133D02*
G75*
G02X180208106Y-83283414I0J-462239D01*
G01*
X179994568Y-83231133D02*
G75*
G02X179542538Y-83127330I0J1036124D01*
G01*
X179542538Y-83127330D02*
G75*
G02X179175942Y-82836160I468423J966131D01*
G01*
X179175942Y-82836160D02*
G75*
G02X178938224Y-82384278I1022000J826102D01*
G01*
X178938225Y-82384277D02*
G75*
G02X178856678Y-81823408I1888012J560867D01*
G01*
X178856677Y-81823408D02*
G75*
G02X178893953Y-81407431I2339651J2D01*
G01*
X185597807Y-88203307D02*
G75*
G02X185545751Y-88703465I-1772828J-68273D01*
G01*
X185545750Y-88703466D02*
G75*
G02X185290054Y-89228847I-1378488J345980D01*
G01*
X185290054Y-89228847D02*
G75*
G02X184792637Y-89732966I-2361682J1832823D01*
G01*
X185213071Y-83122590D02*
G75*
G02X185415520Y-83284482I-1670344J-2296321D01*
G01*
X185140033Y-83135133D02*
G75*
G02X185213071Y-83122590I42623J-29270D01*
G01*
X185112406Y-83242476D02*
G75*
G02X185140034Y-83135134I160922J15808D01*
G01*
X185158927Y-83658138D02*
X185112406Y-83242476D01*
X185398660Y-85676930D02*
X185158927Y-83658138D01*
X185536687Y-87141649D02*
X185398660Y-85676930D01*
X185597807Y-88203307D02*
X185536687Y-87141649D01*
X186774084Y-83705452D02*
G75*
G02X186306694Y-83726048I-291867J1309790D01*
G01*
X186306694Y-83726048D02*
G75*
G02X185855678Y-83584595I179856J1363214D01*
G01*
X185855677Y-83584595D02*
G75*
G02X185415520Y-83284482I1006084J1948397D01*
G01*
X188420101Y-81365227D02*
G75*
G02X188097648Y-82679864I-3084478J59694D01*
G01*
X188097647Y-82679864D02*
G75*
G02X187262437Y-83528155I-1715220J853461D01*
G01*
X187262438Y-83528155D02*
G75*
G02X186774083Y-83705451I-927563J1793705D01*
G01*
X186766670Y-78247761D02*
G75*
G02X187356062Y-78690518I-1263588J-2295741D01*
G01*
X187356062Y-78690518D02*
G75*
G02X188157706Y-79911542I-2543678J-2543677D01*
G01*
X188157706Y-79911542D02*
G75*
G02X188420101Y-81365227I-3492919J-1381007D01*
G01*
X186094162Y-83205942D02*
G75*
G02X185639845Y-82845070I1346913J2162101D01*
G01*
X186516487Y-83342168D02*
G75*
G02X186094162Y-83205942I61141J912300D01*
G01*
X186947455Y-83262329D02*
G75*
G02X186516487Y-83342168I-371759J803645D01*
G01*
X187427513Y-82964875D02*
G75*
G02X186947455Y-83262329I-1458632J1817964D01*
G01*
X187900714Y-82235884D02*
G75*
G02X187427513Y-82964875I-1340663J352170D01*
G01*
X188003098Y-81137532D02*
G75*
G02X187900713Y-82235884I-3371156J-239697D01*
G01*
X187740082Y-79982167D02*
G75*
G02X188003099Y-81137531I-3618426J-1431349D01*
G01*
X187151728Y-79086184D02*
G75*
G02X187740082Y-79982167I-1867413J-1867416D01*
G01*
X184880052Y-78357272D02*
G75*
G02X185485002Y-78076940I1085753J-1550129D01*
G01*
X185485002Y-78076940D02*
G75*
G02X186128319Y-78037301I421834J-1605973D01*
G01*
X186128319Y-78037301D02*
G75*
G02X186766671Y-78247761I-244116J-1813771D01*
G01*
X184801498Y-82376791D02*
G75*
G02X184962691Y-82231133I161193J-16363D01*
G01*
X184962690Y-82231134D02*
G75*
G02X185003633Y-82246644I1J-61791D01*
G01*
X185187682Y-82411477D02*
X185003633Y-82246644D01*
X185399971Y-82609768D02*
X185187682Y-82411477D01*
X185639845Y-82845070D02*
X185399971Y-82609768D01*
X184981403Y-85664603D02*
X185177264Y-87459934D01*
X184818774Y-84073192D02*
X184981403Y-85664603D01*
X184769646Y-83041853D02*
X184818774Y-84073192D01*
X184769645Y-83041853D02*
G75*
G02X184801498Y-82376791I6248006J34049D01*
G01*
X174226785Y-81374747D02*
G75*
G02X174641379Y-80797037I1222215J-439501D01*
G01*
X174641378Y-80797037D02*
G75*
G02X175493236Y-80253826I3043824J-3833744D01*
G01*
X186631516Y-78677508D02*
G75*
G02X187151728Y-79086184I-1441666J-2370556D01*
G01*
X186085730Y-78461512D02*
G75*
G02X186631516Y-78677507I-357933J-1701995D01*
G01*
X185540930Y-78450515D02*
G75*
G02X186085730Y-78461512I243353J-1444405D01*
G01*
X185022366Y-78638374D02*
G75*
G02X185540930Y-78450514I773570J-1325702D01*
G01*
X184872061Y-78776871D02*
G75*
G02X185022366Y-78638373I390259J-272722D01*
G01*
X184688804Y-79069556D02*
G75*
G02X184872061Y-78776871I2985357J-1665493D01*
G01*
X184507862Y-79435613D02*
G75*
G02X184688804Y-79069556I3762432J-1632017D01*
G01*
X184356293Y-79832292D02*
G75*
G02X184507862Y-79435613I4550571J-1511457D01*
G01*
X184218314Y-80215089D02*
X184356293Y-79832292D01*
X184078015Y-80537724D02*
X184218314Y-80215089D01*
X183948328Y-80787905D02*
X184078015Y-80537724D01*
X183948328Y-80787905D02*
G75*
G02X183874842Y-80831133I-73486J40847D01*
G01*
X183874842Y-80831134D02*
G75*
G02X183798164Y-80791931I0J94589D01*
G01*
X183656254Y-80581446D02*
X183798164Y-80791931D01*
X183499004Y-80306830D02*
X183656254Y-80581446D01*
X183340915Y-79981133D02*
X183499004Y-80306830D01*
X183153034Y-79619860D02*
G75*
G02X183340915Y-79981133I-3186562J-1886673D01*
G01*
X182951499Y-79340367D02*
G75*
G02X183153034Y-79619860I-1445034J-1254381D01*
G01*
X182747672Y-79152735D02*
G75*
G02X182951499Y-79340367I-733296J-1001114D01*
G01*
X182552835Y-79073272D02*
G75*
G02X182747673Y-79152735I-61533J-429468D01*
G01*
X182130382Y-79138472D02*
G75*
G02X182552835Y-79073272I318342J-661437D01*
G01*
X181362802Y-79550686D02*
G75*
G02X182130382Y-79138472I5036975J-8458553D01*
G01*
X180530610Y-80104162D02*
G75*
G02X181362802Y-79550686I5967410J-8070063D01*
G01*
X179787761Y-80719841D02*
G75*
G02X180530610Y-80104162I5927652J-6396030D01*
G01*
X179337865Y-81369705D02*
G75*
G02X179787762Y-80719841I1692803J-691254D01*
G01*
X179265698Y-82082641D02*
G75*
G02X179337865Y-81369706I1244731J234121D01*
G01*
X179586609Y-82619681D02*
G75*
G02X179265698Y-82082641I569034J704430D01*
G01*
X180184873Y-82831134D02*
G75*
G02X179586608Y-82619681I1J952068D01*
G01*
X180184874Y-82831133D02*
G75*
G02X180366411Y-82847426I0J-1019493D01*
G01*
X180366411Y-82847426D02*
G75*
G02X180541366Y-82895779I-178585J-986878D01*
G01*
X180541366Y-82895779D02*
G75*
G02X180684987Y-82966757I-286426J-760363D01*
G01*
X180684986Y-82966757D02*
G75*
G02X180769081Y-83051203I-138495J-222014D01*
G01*
X180769081Y-83051203D02*
G75*
G02X180827173Y-83226992I-339024J-209528D01*
G01*
X180903337Y-84175754D02*
X180827173Y-83226992D01*
X180975445Y-85290177D02*
X180903337Y-84175754D01*
X181035128Y-86570428D02*
X180975445Y-85290177D01*
X181122499Y-88508439D02*
X181035128Y-86570428D01*
X181208331Y-89381275D02*
G75*
G02X181122499Y-88508439I9174615J1342835D01*
G01*
X181337945Y-89871063D02*
G75*
G02X181208330Y-89381275I2086013J814078D01*
G01*
X181560922Y-90162777D02*
G75*
G02X181337946Y-89871063I394695J532764D01*
G01*
X182232843Y-90357284D02*
G75*
G02X181560921Y-90162777I-74288J1001201D01*
G01*
X183222943Y-90153005D02*
G75*
G02X182232844Y-90357284I-1279953J3702122D01*
G01*
X184215982Y-89667000D02*
G75*
G02X183222943Y-90153004I-2474004J3797537D01*
G01*
X184916858Y-89002514D02*
G75*
G02X184215982Y-89667000I-2162452J1579004D01*
G01*
X185128432Y-88600023D02*
G75*
G02X184916858Y-89002514I-1467390J514496D01*
G01*
X185206900Y-88164562D02*
G75*
G02X185128432Y-88600023I-1397515J27023D01*
G01*
X185177264Y-87459934D02*
G75*
G02X185206899Y-88164562I-5718912J-593466D01*
G01*
X177883264Y-90995771D02*
X177479801Y-91231145D01*
X178952808Y-90108558D02*
G75*
G02X177883264Y-90995771I-3662546J3326958D01*
G01*
X179632766Y-89021875D02*
G75*
G02X178952808Y-90108558I-3354855J1343125D01*
G01*
X179660966Y-88203058D02*
G75*
G02X179632767Y-89021876I-1148389J-370346D01*
G01*
X179150237Y-87831133D02*
G75*
G02X179660966Y-88203058I-1J-536631D01*
G01*
X179150237Y-87831133D02*
G75*
G02X178953157Y-87805107I0J759194D01*
G01*
X178953157Y-87805107D02*
G75*
G02X178757459Y-87728321I245637J913805D01*
G01*
X178757459Y-87728321D02*
G75*
G02X178592357Y-87615066I403333J764946D01*
G01*
X178592356Y-87615066D02*
G75*
G02X178486440Y-87481133I306048J350874D01*
G01*
X178486440Y-87481134D02*
G75*
G02X178407746Y-87225591I639767J336904D01*
G01*
X178313544Y-86323321D02*
X178407746Y-87225591D01*
X178225805Y-85244197D02*
X178313544Y-86323321D01*
X178156678Y-84031133D02*
X178225805Y-85244197D01*
X178087551Y-82818070D02*
X178156678Y-84031133D01*
X177999811Y-81738946D02*
X178087551Y-82818070D01*
X177905609Y-80836676D02*
X177999811Y-81738946D01*
X177826915Y-80581133D02*
G75*
G02X177905609Y-80836676I-639767J-336904D01*
G01*
X175493236Y-80253826D02*
G75*
G02X176355833Y-79934091I1887836J-3769652D01*
G01*
X176355834Y-79934090D02*
G75*
G02X177164934Y-79862595I629626J-2511394D01*
G01*
X177164934Y-79862595D02*
G75*
G02X177806953Y-80040771I-115477J-1661875D01*
G01*
X177806953Y-80040771D02*
G75*
G02X178197203Y-80441712I-396197J-776025D01*
G01*
X178197203Y-80441712D02*
G75*
G02X178300372Y-80788594I-1051621J-501553D01*
G01*
X178415590Y-81739200D02*
X178300372Y-80788594D01*
X178520419Y-82882906D02*
X178415590Y-81739200D01*
X178598696Y-84141712D02*
X178520419Y-82882906D01*
X178756678Y-87331133D02*
X178598696Y-84141712D01*
X179317059Y-87395420D02*
X178756678Y-87331133D01*
X179317059Y-87395419D02*
G75*
G02X179772776Y-87574523I-108435J-945228D01*
G01*
X179772776Y-87574522D02*
G75*
G02X180072176Y-87954684I-539883J-733169D01*
G01*
X180072175Y-87954685D02*
G75*
G02X180170138Y-88500977I-1168462J-491461D01*
G01*
X180170139Y-88500977D02*
G75*
G02X180052471Y-89143881I-2377583J102937D01*
G01*
X180052471Y-89143881D02*
G75*
G02X179564831Y-89991624I-2300745J759316D01*
G01*
X179564830Y-89991623D02*
G75*
G02X178578672Y-90944318I-6632810J5879043D01*
G01*
X178578673Y-90944318D02*
G75*
G02X177462342Y-91730318I-5635845J6818666D01*
G01*
X177462342Y-91730318D02*
G75*
G02X176556678Y-92033266I-1151769J1937999D01*
G01*
X176556677Y-92033266D02*
G75*
G02X176066939Y-92053470I-392867J3577340D01*
G01*
X176066939Y-92053470D02*
G75*
G02X175762835Y-91971833I18173J674914D01*
G01*
X175762835Y-91971832D02*
G75*
G02X175514944Y-91756841I364042J670160D01*
G01*
X175514944Y-91756841D02*
G75*
G02X175214164Y-91303992I4098060J3048225D01*
G01*
X174785140Y-90576851D02*
X175214164Y-91303992D01*
X174070909Y-91390395D02*
X174785140Y-90576851D01*
X174070909Y-91390395D02*
G75*
G02X172685415Y-92597790I-5188154J4554814D01*
G01*
X172685415Y-92597789D02*
G75*
G02X171342232Y-93011686I-1379498J2090359D01*
G01*
X171342232Y-93011686D02*
G75*
G02X170207484Y-92600386I-24696J1702861D01*
G01*
X170207484Y-92600386D02*
G75*
G02X169390868Y-91458264I1924123J2238747D01*
G01*
X169390868Y-91458264D02*
G75*
G02X169254828Y-90990085I2317309J927201D01*
G01*
X169126657Y-90199714D02*
X169254828Y-90990085D01*
X169017154Y-89238006D02*
X169126657Y-90199714D01*
X168939506Y-88173890D02*
X169017154Y-89238006D01*
X168800381Y-85669874D02*
X168939506Y-88173890D01*
X168226318Y-85555061D02*
X168800381Y-85669874D01*
X168226317Y-85555062D02*
G75*
G02X167738002Y-85339571I241785J1208924D01*
G01*
X167738001Y-85339572D02*
G75*
G02X167420093Y-84947559I591057J804239D01*
G01*
X167420094Y-84947559D02*
G75*
G02X167320569Y-84425543I1029067J466692D01*
G01*
X167320569Y-84425543D02*
G75*
G02X167450863Y-83845170I1736998J-85147D01*
G01*
X167450864Y-83845170D02*
G75*
G02X168096314Y-82876631I2772917J-1148580D01*
G01*
X168096314Y-82876631D02*
G75*
G02X169284202Y-81869145I6546317J-6514468D01*
G01*
X169284202Y-81869144D02*
G75*
G02X170608141Y-81084927I5306936J-7449659D01*
G01*
X170608141Y-81084927D02*
G75*
G02X171675680Y-80835526I1088696J-2250613D01*
G01*
X171675680Y-80835526D02*
G75*
G02X172234979Y-80975680I9709J-1147300D01*
G01*
X172234979Y-80975681D02*
G75*
G02X172634758Y-81367527I-492263J-902086D01*
G01*
X172634759Y-81367526D02*
G75*
G02X172902981Y-82091544I-2042863J-1168500D01*
G01*
X172902981Y-82091545D02*
G75*
G02X173073612Y-83279499I-12450461J-2394544D01*
G01*
X173135024Y-84009140D02*
X173073612Y-83279499D01*
X173188823Y-84837723D02*
X173135024Y-84009140D01*
X173228135Y-85636259D02*
X173188823Y-84837723D01*
X173244093Y-86264776D02*
X173228135Y-85636259D01*
X173298546Y-87629079D02*
X173244093Y-86264776D01*
X173499217Y-88178750D02*
G75*
G02X173298546Y-87629079I856535J624164D01*
G01*
X173751913Y-88152418D02*
G75*
G02X173499217Y-88178750I-133990J60170D01*
G01*
X174032050Y-87346082D02*
G75*
G02X173751913Y-88152418I-4725416J1189874D01*
G01*
X174119973Y-86822376D02*
G75*
G02X174032050Y-87346082I-3296226J284154D01*
G01*
X174163307Y-86065881D02*
X174119973Y-86822376D01*
X174166418Y-85137063D02*
X174163307Y-86065881D01*
X174125644Y-84056990D02*
X174166418Y-85137063D01*
X174075016Y-82251404D02*
X174125644Y-84056990D01*
X174075015Y-82251403D02*
G75*
G02X174226785Y-81374747I2572886J6039D01*
G01*
X175280485Y-90485417D02*
G75*
G02X175372829Y-90663246I-1700775J-996088D01*
G01*
X175372829Y-90663247D02*
G75*
G02X175437542Y-90827395I-1527088J-696859D01*
G01*
X175437542Y-90827394D02*
G75*
G02X175456678Y-90944870I-351029J-117476D01*
G01*
X175549121Y-91215232D02*
G75*
G02X175456678Y-90944870I349131J270361D01*
G01*
X175820979Y-91471194D02*
G75*
G02X175549121Y-91215233I674711J988968D01*
G01*
X176175551Y-91642220D02*
G75*
G02X175820979Y-91471193I391289J1264285D01*
G01*
X176511450Y-91664476D02*
G75*
G02X176175551Y-91642220I-121260J715774D01*
G01*
X176723335Y-91602152D02*
G75*
G02X176511451Y-91664476I-368230J860544D01*
G01*
X177076667Y-91440557D02*
X176723335Y-91602152D01*
X177479801Y-91231145D02*
X177076667Y-91440557D01*
X174758178Y-90162554D02*
G75*
G02X174965818Y-90152547I113538J-196645D01*
G01*
X174965818Y-90152546D02*
G75*
G02X175171236Y-90319359I-217581J-477821D01*
G01*
X175171236Y-90319360D02*
G75*
G02X175280485Y-90485418I-1537947J-1130768D01*
G01*
X172786770Y-92010944D02*
G75*
G02X171980856Y-92485018I-1992637J2465384D01*
G01*
X173705500Y-91165643D02*
G75*
G02X172786771Y-92010945I-7049300J6739720D01*
G01*
X174455300Y-90395885D02*
X173705500Y-91165643D01*
X174455300Y-90395885D02*
G75*
G02X174758178Y-90162554I1024786J-1016989D01*
G01*
X168252883Y-85098314D02*
G75*
G02X168039640Y-84990203I489281J1229444D01*
G01*
X168481932Y-85166184D02*
G75*
G02X168252884Y-85098313I258684J1293423D01*
G01*
X168703605Y-85212051D02*
X168481932Y-85166184D01*
X168893413Y-85254711D02*
X168703605Y-85212051D01*
X169056779Y-85293781D02*
X168893413Y-85254711D01*
X169056779Y-85293781D02*
G75*
G02X169075630Y-85306133I-7920J-32648D01*
G01*
X169075630Y-85306134D02*
G75*
G02X169084527Y-85328977I-35683J-27051D01*
G01*
X169164350Y-86175665D02*
X169084527Y-85328977D01*
X169251346Y-87117425D02*
X169164350Y-86175665D01*
X169351039Y-88231133D02*
X169251346Y-87117425D01*
X169561141Y-90242969D02*
X169351039Y-88231133D01*
X169785244Y-91346839D02*
G75*
G02X169561141Y-90242969I6739155J1942839D01*
G01*
X170096015Y-92012665D02*
G75*
G02X169785245Y-91346839I1961213J1320820D01*
G01*
X170562806Y-92434414D02*
G75*
G02X170096014Y-92012666I615976J1150963D01*
G01*
X171250234Y-92616711D02*
G75*
G02X170562806Y-92434413I41793J1544859D01*
G01*
X171980856Y-92485019D02*
G75*
G02X171250234Y-92616711I-681402J1687808D01*
G01*
X167783347Y-84728515D02*
G75*
G02X167936092Y-83747012I931914J357609D01*
G01*
X167871841Y-84860530D02*
G75*
G02X167783348Y-84728515I245327J260114D01*
G01*
X168039640Y-84990203D02*
G75*
G02X167871840Y-84860531I573996J916180D01*
G01*
X172778730Y-85180752D02*
X172893739Y-87080443D01*
X172661408Y-83300218D02*
X172778730Y-85180752D01*
X172506485Y-82232488D02*
G75*
G02X172661408Y-83300218I-7817245J-1679350D01*
G01*
X172283389Y-81603946D02*
G75*
G02X172506485Y-82232488I-2302412J-1171087D01*
G01*
X171944808Y-81298904D02*
G75*
G02X172283389Y-81603946I-227554J-592998D01*
G01*
X170831380Y-81364542D02*
G75*
G02X171944809Y-81298904I629173J-1196309D01*
G01*
X169245830Y-82418663D02*
G75*
G02X170831380Y-81364542I5913990J-7175983D01*
G01*
X167936092Y-83747013D02*
G75*
G02X169245831Y-82418664I7069908J-5660987D01*
G01*
D11*
X220726000Y-92202000D02*
X220726000Y-112522000D01*
X220726000Y-82550000D02*
X220726000Y-62484000D01*
D12*
X221178380Y-91733142D02*
X220178380Y-91733142D01*
X220178380Y-91352190D01*
X220226000Y-91256952D01*
X220273619Y-91209333D01*
X220368857Y-91161714D01*
X220511714Y-91161714D01*
X220606952Y-91209333D01*
X220654571Y-91256952D01*
X220702190Y-91352190D01*
X220702190Y-91733142D01*
X221178380Y-90256952D02*
X221178380Y-90733142D01*
X220178380Y-90733142D01*
X220892666Y-89971238D02*
X220892666Y-89495047D01*
X221178380Y-90066476D02*
X220178380Y-89733142D01*
X221178380Y-89399809D01*
X220702190Y-88876000D02*
X221178380Y-88876000D01*
X220178380Y-89209333D02*
X220702190Y-88876000D01*
X220178380Y-88542666D01*
X220654571Y-88209333D02*
X220654571Y-87876000D01*
X221178380Y-87733142D02*
X221178380Y-88209333D01*
X220178380Y-88209333D01*
X220178380Y-87733142D01*
X221178380Y-86733142D02*
X220702190Y-87066476D01*
X221178380Y-87304571D02*
X220178380Y-87304571D01*
X220178380Y-86923619D01*
X220226000Y-86828380D01*
X220273619Y-86780761D01*
X220368857Y-86733142D01*
X220511714Y-86733142D01*
X220606952Y-86780761D01*
X220654571Y-86828380D01*
X220702190Y-86923619D01*
X220702190Y-87304571D01*
X220178380Y-85352190D02*
X220178380Y-85161714D01*
X220226000Y-85066476D01*
X220321238Y-84971238D01*
X220511714Y-84923619D01*
X220845047Y-84923619D01*
X221035523Y-84971238D01*
X221130761Y-85066476D01*
X221178380Y-85161714D01*
X221178380Y-85352190D01*
X221130761Y-85447428D01*
X221035523Y-85542666D01*
X220845047Y-85590285D01*
X220511714Y-85590285D01*
X220321238Y-85542666D01*
X220226000Y-85447428D01*
X220178380Y-85352190D01*
X221178380Y-84495047D02*
X220178380Y-84495047D01*
X221178380Y-83923619D01*
X220178380Y-83923619D01*
X220654571Y-83447428D02*
X220654571Y-83114095D01*
X221178380Y-82971238D02*
X221178380Y-83447428D01*
X220178380Y-83447428D01*
X220178380Y-82971238D01*
D11*
X137414000Y-92202000D02*
X137414000Y-112268000D01*
X137414000Y-82550000D02*
X137414000Y-62230000D01*
D13*
X225579214Y-116308190D02*
X225579214Y-116784380D01*
X225367547Y-115784380D02*
X225579214Y-116308190D01*
X225790880Y-115784380D01*
X226002547Y-116260571D02*
X226214214Y-116260571D01*
X226304928Y-116784380D02*
X226002547Y-116784380D01*
X226002547Y-115784380D01*
X226304928Y-115784380D01*
X226879452Y-116784380D02*
X226577071Y-116784380D01*
X226577071Y-115784380D01*
X227393500Y-116784380D02*
X227091119Y-116784380D01*
X227091119Y-115784380D01*
X227726119Y-115784380D02*
X227847071Y-115784380D01*
X227907547Y-115832000D01*
X227968023Y-115927238D01*
X227998261Y-116117714D01*
X227998261Y-116451047D01*
X227968023Y-116641523D01*
X227907547Y-116736761D01*
X227847071Y-116784380D01*
X227726119Y-116784380D01*
X227665642Y-116736761D01*
X227605166Y-116641523D01*
X227574928Y-116451047D01*
X227574928Y-116117714D01*
X227605166Y-115927238D01*
X227665642Y-115832000D01*
X227726119Y-115784380D01*
X228209928Y-115784380D02*
X228361119Y-116784380D01*
X228482071Y-116070095D01*
X228603023Y-116784380D01*
X228754214Y-115784380D01*
X221418452Y-116260571D02*
X221509166Y-116308190D01*
X221539404Y-116355809D01*
X221569642Y-116451047D01*
X221569642Y-116593904D01*
X221539404Y-116689142D01*
X221509166Y-116736761D01*
X221448690Y-116784380D01*
X221206785Y-116784380D01*
X221206785Y-115784380D01*
X221418452Y-115784380D01*
X221478928Y-115832000D01*
X221509166Y-115879619D01*
X221539404Y-115974857D01*
X221539404Y-116070095D01*
X221509166Y-116165333D01*
X221478928Y-116212952D01*
X221418452Y-116260571D01*
X221206785Y-116260571D01*
X222144166Y-116784380D02*
X221841785Y-116784380D01*
X221841785Y-115784380D01*
X222355833Y-115784380D02*
X222355833Y-116593904D01*
X222386071Y-116689142D01*
X222416309Y-116736761D01*
X222476785Y-116784380D01*
X222597738Y-116784380D01*
X222658214Y-116736761D01*
X222688452Y-116689142D01*
X222718690Y-116593904D01*
X222718690Y-115784380D01*
X223021071Y-116260571D02*
X223232738Y-116260571D01*
X223323452Y-116784380D02*
X223021071Y-116784380D01*
X223021071Y-115784380D01*
X223323452Y-115784380D01*
D11*
X228600000Y-114300000D02*
X218948000Y-114300000D01*
X210312000Y-114300000D02*
X201422000Y-114300000D01*
D13*
X216051190Y-116260571D02*
X216141904Y-116308190D01*
X216172142Y-116355809D01*
X216202380Y-116451047D01*
X216202380Y-116593904D01*
X216172142Y-116689142D01*
X216141904Y-116736761D01*
X216081428Y-116784380D01*
X215839523Y-116784380D01*
X215839523Y-115784380D01*
X216051190Y-115784380D01*
X216111666Y-115832000D01*
X216141904Y-115879619D01*
X216172142Y-115974857D01*
X216172142Y-116070095D01*
X216141904Y-116165333D01*
X216111666Y-116212952D01*
X216051190Y-116260571D01*
X215839523Y-116260571D01*
X216776904Y-116784380D02*
X216474523Y-116784380D01*
X216474523Y-115784380D01*
X216958333Y-116498666D02*
X217260714Y-116498666D01*
X216897857Y-116784380D02*
X217109523Y-115784380D01*
X217321190Y-116784380D01*
X217895714Y-116689142D02*
X217865476Y-116736761D01*
X217774761Y-116784380D01*
X217714285Y-116784380D01*
X217623571Y-116736761D01*
X217563095Y-116641523D01*
X217532857Y-116546285D01*
X217502619Y-116355809D01*
X217502619Y-116212952D01*
X217532857Y-116022476D01*
X217563095Y-115927238D01*
X217623571Y-115832000D01*
X217714285Y-115784380D01*
X217774761Y-115784380D01*
X217865476Y-115832000D01*
X217895714Y-115879619D01*
X218167857Y-116784380D02*
X218167857Y-115784380D01*
X218530714Y-116784380D02*
X218258571Y-116212952D01*
X218530714Y-115784380D02*
X218167857Y-116355809D01*
X201775785Y-116784380D02*
X201564119Y-116308190D01*
X201412928Y-116784380D02*
X201412928Y-115784380D01*
X201654833Y-115784380D01*
X201715309Y-115832000D01*
X201745547Y-115879619D01*
X201775785Y-115974857D01*
X201775785Y-116117714D01*
X201745547Y-116212952D01*
X201715309Y-116260571D01*
X201654833Y-116308190D01*
X201412928Y-116308190D01*
X202047928Y-116260571D02*
X202259595Y-116260571D01*
X202350309Y-116784380D02*
X202047928Y-116784380D01*
X202047928Y-115784380D01*
X202350309Y-115784380D01*
X202622452Y-116784380D02*
X202622452Y-115784380D01*
X202773642Y-115784380D01*
X202864357Y-115832000D01*
X202924833Y-115927238D01*
X202955071Y-116022476D01*
X202985309Y-116212952D01*
X202985309Y-116355809D01*
X202955071Y-116546285D01*
X202924833Y-116641523D01*
X202864357Y-116736761D01*
X202773642Y-116784380D01*
X202622452Y-116784380D01*
X205724880Y-115784380D02*
X205876071Y-116784380D01*
X205997023Y-116070095D01*
X206117976Y-116784380D01*
X206269166Y-115784380D01*
X206511071Y-116784380D02*
X206511071Y-115784380D01*
X206511071Y-116260571D02*
X206873928Y-116260571D01*
X206873928Y-116784380D02*
X206873928Y-115784380D01*
X207176309Y-116784380D02*
X207176309Y-115784380D01*
X207387976Y-115784380D02*
X207750833Y-115784380D01*
X207569404Y-116784380D02*
X207569404Y-115784380D01*
X207962500Y-116260571D02*
X208174166Y-116260571D01*
X208264880Y-116784380D02*
X207962500Y-116784380D01*
X207962500Y-115784380D01*
X208264880Y-115784380D01*
D12*
X210725238Y-114228571D02*
X211058571Y-114228571D01*
X211201428Y-114752380D02*
X210725238Y-114752380D01*
X210725238Y-113752380D01*
X211201428Y-113752380D01*
X211534761Y-113752380D02*
X212201428Y-114752380D01*
X212201428Y-113752380D02*
X211534761Y-114752380D01*
X212582380Y-114752380D02*
X212582380Y-113752380D01*
X212963333Y-113752380D01*
X213058571Y-113800000D01*
X213106190Y-113847619D01*
X213153809Y-113942857D01*
X213153809Y-114085714D01*
X213106190Y-114180952D01*
X213058571Y-114228571D01*
X212963333Y-114276190D01*
X212582380Y-114276190D01*
X213534761Y-114466666D02*
X214010952Y-114466666D01*
X213439523Y-114752380D02*
X213772857Y-113752380D01*
X214106190Y-114752380D01*
X214439523Y-114752380D02*
X214439523Y-113752380D01*
X215010952Y-114752380D01*
X215010952Y-113752380D01*
X215439523Y-114704761D02*
X215582380Y-114752380D01*
X215820476Y-114752380D01*
X215915714Y-114704761D01*
X215963333Y-114657142D01*
X216010952Y-114561904D01*
X216010952Y-114466666D01*
X215963333Y-114371428D01*
X215915714Y-114323809D01*
X215820476Y-114276190D01*
X215630000Y-114228571D01*
X215534761Y-114180952D01*
X215487142Y-114133333D01*
X215439523Y-114038095D01*
X215439523Y-113942857D01*
X215487142Y-113847619D01*
X215534761Y-113800000D01*
X215630000Y-113752380D01*
X215868095Y-113752380D01*
X216010952Y-113800000D01*
X216439523Y-114752380D02*
X216439523Y-113752380D01*
X217106190Y-113752380D02*
X217296666Y-113752380D01*
X217391904Y-113800000D01*
X217487142Y-113895238D01*
X217534761Y-114085714D01*
X217534761Y-114419047D01*
X217487142Y-114609523D01*
X217391904Y-114704761D01*
X217296666Y-114752380D01*
X217106190Y-114752380D01*
X217010952Y-114704761D01*
X216915714Y-114609523D01*
X216868095Y-114419047D01*
X216868095Y-114085714D01*
X216915714Y-113895238D01*
X217010952Y-113800000D01*
X217106190Y-113752380D01*
X217963333Y-114752380D02*
X217963333Y-113752380D01*
X218534761Y-114752380D01*
X218534761Y-113752380D01*
D13*
X211031666Y-115832000D02*
X210971190Y-115784380D01*
X210880476Y-115784380D01*
X210789761Y-115832000D01*
X210729285Y-115927238D01*
X210699047Y-116022476D01*
X210668809Y-116212952D01*
X210668809Y-116355809D01*
X210699047Y-116546285D01*
X210729285Y-116641523D01*
X210789761Y-116736761D01*
X210880476Y-116784380D01*
X210940952Y-116784380D01*
X211031666Y-116736761D01*
X211061904Y-116689142D01*
X211061904Y-116355809D01*
X210940952Y-116355809D01*
X211696904Y-116784380D02*
X211485238Y-116308190D01*
X211334047Y-116784380D02*
X211334047Y-115784380D01*
X211575952Y-115784380D01*
X211636428Y-115832000D01*
X211666666Y-115879619D01*
X211696904Y-115974857D01*
X211696904Y-116117714D01*
X211666666Y-116212952D01*
X211636428Y-116260571D01*
X211575952Y-116308190D01*
X211334047Y-116308190D01*
X211969047Y-116260571D02*
X212180714Y-116260571D01*
X212271428Y-116784380D02*
X211969047Y-116784380D01*
X211969047Y-115784380D01*
X212271428Y-115784380D01*
X212543571Y-116260571D02*
X212755238Y-116260571D01*
X212845952Y-116784380D02*
X212543571Y-116784380D01*
X212543571Y-115784380D01*
X212845952Y-115784380D01*
X213118095Y-116784380D02*
X213118095Y-115784380D01*
X213480952Y-116784380D01*
X213480952Y-115784380D01*
D11*
X198120000Y-114300000D02*
X193802000Y-114300000D01*
X185674000Y-114300000D02*
X181356000Y-114300000D01*
D12*
X186118952Y-113752380D02*
X186118952Y-114561904D01*
X186166571Y-114657142D01*
X186214190Y-114704761D01*
X186309428Y-114752380D01*
X186499904Y-114752380D01*
X186595142Y-114704761D01*
X186642761Y-114657142D01*
X186690380Y-114561904D01*
X186690380Y-113752380D01*
X187118952Y-114704761D02*
X187261809Y-114752380D01*
X187499904Y-114752380D01*
X187595142Y-114704761D01*
X187642761Y-114657142D01*
X187690380Y-114561904D01*
X187690380Y-114466666D01*
X187642761Y-114371428D01*
X187595142Y-114323809D01*
X187499904Y-114276190D01*
X187309428Y-114228571D01*
X187214190Y-114180952D01*
X187166571Y-114133333D01*
X187118952Y-114038095D01*
X187118952Y-113942857D01*
X187166571Y-113847619D01*
X187214190Y-113800000D01*
X187309428Y-113752380D01*
X187547523Y-113752380D01*
X187690380Y-113800000D01*
X188452285Y-114228571D02*
X188595142Y-114276190D01*
X188642761Y-114323809D01*
X188690380Y-114419047D01*
X188690380Y-114561904D01*
X188642761Y-114657142D01*
X188595142Y-114704761D01*
X188499904Y-114752380D01*
X188118952Y-114752380D01*
X188118952Y-113752380D01*
X188452285Y-113752380D01*
X188547523Y-113800000D01*
X188595142Y-113847619D01*
X188642761Y-113942857D01*
X188642761Y-114038095D01*
X188595142Y-114133333D01*
X188547523Y-114180952D01*
X188452285Y-114228571D01*
X188118952Y-114228571D01*
X190214190Y-114228571D02*
X189880857Y-114228571D01*
X189880857Y-114752380D02*
X189880857Y-113752380D01*
X190357047Y-113752380D01*
X190928476Y-113752380D02*
X191118952Y-113752380D01*
X191214190Y-113800000D01*
X191309428Y-113895238D01*
X191357047Y-114085714D01*
X191357047Y-114419047D01*
X191309428Y-114609523D01*
X191214190Y-114704761D01*
X191118952Y-114752380D01*
X190928476Y-114752380D01*
X190833238Y-114704761D01*
X190738000Y-114609523D01*
X190690380Y-114419047D01*
X190690380Y-114085714D01*
X190738000Y-113895238D01*
X190833238Y-113800000D01*
X190928476Y-113752380D01*
X191785619Y-113752380D02*
X191785619Y-114561904D01*
X191833238Y-114657142D01*
X191880857Y-114704761D01*
X191976095Y-114752380D01*
X192166571Y-114752380D01*
X192261809Y-114704761D01*
X192309428Y-114657142D01*
X192357047Y-114561904D01*
X192357047Y-113752380D01*
X193404666Y-114752380D02*
X193071333Y-114276190D01*
X192833238Y-114752380D02*
X192833238Y-113752380D01*
X193214190Y-113752380D01*
X193309428Y-113800000D01*
X193357047Y-113847619D01*
X193404666Y-113942857D01*
X193404666Y-114085714D01*
X193357047Y-114180952D01*
X193309428Y-114228571D01*
X193214190Y-114276190D01*
X192833238Y-114276190D01*
D13*
X185658880Y-115784380D02*
X185810071Y-116784380D01*
X185931023Y-116070095D01*
X186051976Y-116784380D01*
X186203166Y-115784380D01*
X186445071Y-116784380D02*
X186445071Y-115784380D01*
X186445071Y-116260571D02*
X186807928Y-116260571D01*
X186807928Y-116784380D02*
X186807928Y-115784380D01*
X187110309Y-116784380D02*
X187110309Y-115784380D01*
X187321976Y-115784380D02*
X187684833Y-115784380D01*
X187503404Y-116784380D02*
X187503404Y-115784380D01*
X187896500Y-116260571D02*
X188108166Y-116260571D01*
X188198880Y-116784380D02*
X187896500Y-116784380D01*
X187896500Y-115784380D01*
X188198880Y-115784380D01*
X190965666Y-115832000D02*
X190905190Y-115784380D01*
X190814476Y-115784380D01*
X190723761Y-115832000D01*
X190663285Y-115927238D01*
X190633047Y-116022476D01*
X190602809Y-116212952D01*
X190602809Y-116355809D01*
X190633047Y-116546285D01*
X190663285Y-116641523D01*
X190723761Y-116736761D01*
X190814476Y-116784380D01*
X190874952Y-116784380D01*
X190965666Y-116736761D01*
X190995904Y-116689142D01*
X190995904Y-116355809D01*
X190874952Y-116355809D01*
X191630904Y-116784380D02*
X191419238Y-116308190D01*
X191268047Y-116784380D02*
X191268047Y-115784380D01*
X191509952Y-115784380D01*
X191570428Y-115832000D01*
X191600666Y-115879619D01*
X191630904Y-115974857D01*
X191630904Y-116117714D01*
X191600666Y-116212952D01*
X191570428Y-116260571D01*
X191509952Y-116308190D01*
X191268047Y-116308190D01*
X191903047Y-116260571D02*
X192114714Y-116260571D01*
X192205428Y-116784380D02*
X191903047Y-116784380D01*
X191903047Y-115784380D01*
X192205428Y-115784380D01*
X192477571Y-116260571D02*
X192689238Y-116260571D01*
X192779952Y-116784380D02*
X192477571Y-116784380D01*
X192477571Y-115784380D01*
X192779952Y-115784380D01*
X193052095Y-116784380D02*
X193052095Y-115784380D01*
X193414952Y-116784380D01*
X193414952Y-115784380D01*
X195731190Y-116260571D02*
X195821904Y-116308190D01*
X195852142Y-116355809D01*
X195882380Y-116451047D01*
X195882380Y-116593904D01*
X195852142Y-116689142D01*
X195821904Y-116736761D01*
X195761428Y-116784380D01*
X195519523Y-116784380D01*
X195519523Y-115784380D01*
X195731190Y-115784380D01*
X195791666Y-115832000D01*
X195821904Y-115879619D01*
X195852142Y-115974857D01*
X195852142Y-116070095D01*
X195821904Y-116165333D01*
X195791666Y-116212952D01*
X195731190Y-116260571D01*
X195519523Y-116260571D01*
X196456904Y-116784380D02*
X196154523Y-116784380D01*
X196154523Y-115784380D01*
X196638333Y-116498666D02*
X196940714Y-116498666D01*
X196577857Y-116784380D02*
X196789523Y-115784380D01*
X197001190Y-116784380D01*
X197575714Y-116689142D02*
X197545476Y-116736761D01*
X197454761Y-116784380D01*
X197394285Y-116784380D01*
X197303571Y-116736761D01*
X197243095Y-116641523D01*
X197212857Y-116546285D01*
X197182619Y-116355809D01*
X197182619Y-116212952D01*
X197212857Y-116022476D01*
X197243095Y-115927238D01*
X197303571Y-115832000D01*
X197394285Y-115784380D01*
X197454761Y-115784380D01*
X197545476Y-115832000D01*
X197575714Y-115879619D01*
X197847857Y-116784380D02*
X197847857Y-115784380D01*
X198210714Y-116784380D02*
X197938571Y-116212952D01*
X198210714Y-115784380D02*
X197847857Y-116355809D01*
X181709785Y-116784380D02*
X181498119Y-116308190D01*
X181346928Y-116784380D02*
X181346928Y-115784380D01*
X181588833Y-115784380D01*
X181649309Y-115832000D01*
X181679547Y-115879619D01*
X181709785Y-115974857D01*
X181709785Y-116117714D01*
X181679547Y-116212952D01*
X181649309Y-116260571D01*
X181588833Y-116308190D01*
X181346928Y-116308190D01*
X181981928Y-116260571D02*
X182193595Y-116260571D01*
X182284309Y-116784380D02*
X181981928Y-116784380D01*
X181981928Y-115784380D01*
X182284309Y-115784380D01*
X182556452Y-116784380D02*
X182556452Y-115784380D01*
X182707642Y-115784380D01*
X182798357Y-115832000D01*
X182858833Y-115927238D01*
X182889071Y-116022476D01*
X182919309Y-116212952D01*
X182919309Y-116355809D01*
X182889071Y-116546285D01*
X182858833Y-116641523D01*
X182798357Y-116736761D01*
X182707642Y-116784380D01*
X182556452Y-116784380D01*
D11*
X177038000Y-114300000D02*
X172974000Y-114300000D01*
X164338000Y-114300000D02*
X160274000Y-114300000D01*
D12*
X164703619Y-113752380D02*
X164703619Y-114561904D01*
X164751238Y-114657142D01*
X164798857Y-114704761D01*
X164894095Y-114752380D01*
X165084571Y-114752380D01*
X165179809Y-114704761D01*
X165227428Y-114657142D01*
X165275047Y-114561904D01*
X165275047Y-113752380D01*
X165703619Y-114704761D02*
X165846476Y-114752380D01*
X166084571Y-114752380D01*
X166179809Y-114704761D01*
X166227428Y-114657142D01*
X166275047Y-114561904D01*
X166275047Y-114466666D01*
X166227428Y-114371428D01*
X166179809Y-114323809D01*
X166084571Y-114276190D01*
X165894095Y-114228571D01*
X165798857Y-114180952D01*
X165751238Y-114133333D01*
X165703619Y-114038095D01*
X165703619Y-113942857D01*
X165751238Y-113847619D01*
X165798857Y-113800000D01*
X165894095Y-113752380D01*
X166132190Y-113752380D01*
X166275047Y-113800000D01*
X167036952Y-114228571D02*
X167179809Y-114276190D01*
X167227428Y-114323809D01*
X167275047Y-114419047D01*
X167275047Y-114561904D01*
X167227428Y-114657142D01*
X167179809Y-114704761D01*
X167084571Y-114752380D01*
X166703619Y-114752380D01*
X166703619Y-113752380D01*
X167036952Y-113752380D01*
X167132190Y-113800000D01*
X167179809Y-113847619D01*
X167227428Y-113942857D01*
X167227428Y-114038095D01*
X167179809Y-114133333D01*
X167132190Y-114180952D01*
X167036952Y-114228571D01*
X166703619Y-114228571D01*
X168322666Y-113752380D02*
X168894095Y-113752380D01*
X168608380Y-114752380D02*
X168608380Y-113752380D01*
X169227428Y-114752380D02*
X169227428Y-113752380D01*
X169227428Y-114228571D02*
X169798857Y-114228571D01*
X169798857Y-114752380D02*
X169798857Y-113752380D01*
X170846476Y-114752380D02*
X170513142Y-114276190D01*
X170275047Y-114752380D02*
X170275047Y-113752380D01*
X170656000Y-113752380D01*
X170751238Y-113800000D01*
X170798857Y-113847619D01*
X170846476Y-113942857D01*
X170846476Y-114085714D01*
X170798857Y-114180952D01*
X170751238Y-114228571D01*
X170656000Y-114276190D01*
X170275047Y-114276190D01*
X171275047Y-114228571D02*
X171608380Y-114228571D01*
X171751238Y-114752380D02*
X171275047Y-114752380D01*
X171275047Y-113752380D01*
X171751238Y-113752380D01*
X172179809Y-114228571D02*
X172513142Y-114228571D01*
X172656000Y-114752380D02*
X172179809Y-114752380D01*
X172179809Y-113752380D01*
X172656000Y-113752380D01*
D13*
X164576880Y-115784380D02*
X164728071Y-116784380D01*
X164849023Y-116070095D01*
X164969976Y-116784380D01*
X165121166Y-115784380D01*
X165363071Y-116784380D02*
X165363071Y-115784380D01*
X165363071Y-116260571D02*
X165725928Y-116260571D01*
X165725928Y-116784380D02*
X165725928Y-115784380D01*
X166028309Y-116784380D02*
X166028309Y-115784380D01*
X166239976Y-115784380D02*
X166602833Y-115784380D01*
X166421404Y-116784380D02*
X166421404Y-115784380D01*
X166814500Y-116260571D02*
X167026166Y-116260571D01*
X167116880Y-116784380D02*
X166814500Y-116784380D01*
X166814500Y-115784380D01*
X167116880Y-115784380D01*
X169883666Y-115832000D02*
X169823190Y-115784380D01*
X169732476Y-115784380D01*
X169641761Y-115832000D01*
X169581285Y-115927238D01*
X169551047Y-116022476D01*
X169520809Y-116212952D01*
X169520809Y-116355809D01*
X169551047Y-116546285D01*
X169581285Y-116641523D01*
X169641761Y-116736761D01*
X169732476Y-116784380D01*
X169792952Y-116784380D01*
X169883666Y-116736761D01*
X169913904Y-116689142D01*
X169913904Y-116355809D01*
X169792952Y-116355809D01*
X170548904Y-116784380D02*
X170337238Y-116308190D01*
X170186047Y-116784380D02*
X170186047Y-115784380D01*
X170427952Y-115784380D01*
X170488428Y-115832000D01*
X170518666Y-115879619D01*
X170548904Y-115974857D01*
X170548904Y-116117714D01*
X170518666Y-116212952D01*
X170488428Y-116260571D01*
X170427952Y-116308190D01*
X170186047Y-116308190D01*
X170821047Y-116260571D02*
X171032714Y-116260571D01*
X171123428Y-116784380D02*
X170821047Y-116784380D01*
X170821047Y-115784380D01*
X171123428Y-115784380D01*
X171395571Y-116260571D02*
X171607238Y-116260571D01*
X171697952Y-116784380D02*
X171395571Y-116784380D01*
X171395571Y-115784380D01*
X171697952Y-115784380D01*
X171970095Y-116784380D02*
X171970095Y-115784380D01*
X172332952Y-116784380D01*
X172332952Y-115784380D01*
X174649190Y-116260571D02*
X174739904Y-116308190D01*
X174770142Y-116355809D01*
X174800380Y-116451047D01*
X174800380Y-116593904D01*
X174770142Y-116689142D01*
X174739904Y-116736761D01*
X174679428Y-116784380D01*
X174437523Y-116784380D01*
X174437523Y-115784380D01*
X174649190Y-115784380D01*
X174709666Y-115832000D01*
X174739904Y-115879619D01*
X174770142Y-115974857D01*
X174770142Y-116070095D01*
X174739904Y-116165333D01*
X174709666Y-116212952D01*
X174649190Y-116260571D01*
X174437523Y-116260571D01*
X175374904Y-116784380D02*
X175072523Y-116784380D01*
X175072523Y-115784380D01*
X175556333Y-116498666D02*
X175858714Y-116498666D01*
X175495857Y-116784380D02*
X175707523Y-115784380D01*
X175919190Y-116784380D01*
X176493714Y-116689142D02*
X176463476Y-116736761D01*
X176372761Y-116784380D01*
X176312285Y-116784380D01*
X176221571Y-116736761D01*
X176161095Y-116641523D01*
X176130857Y-116546285D01*
X176100619Y-116355809D01*
X176100619Y-116212952D01*
X176130857Y-116022476D01*
X176161095Y-115927238D01*
X176221571Y-115832000D01*
X176312285Y-115784380D01*
X176372761Y-115784380D01*
X176463476Y-115832000D01*
X176493714Y-115879619D01*
X176765857Y-116784380D02*
X176765857Y-115784380D01*
X177128714Y-116784380D02*
X176856571Y-116212952D01*
X177128714Y-115784380D02*
X176765857Y-116355809D01*
X160627785Y-116784380D02*
X160416119Y-116308190D01*
X160264928Y-116784380D02*
X160264928Y-115784380D01*
X160506833Y-115784380D01*
X160567309Y-115832000D01*
X160597547Y-115879619D01*
X160627785Y-115974857D01*
X160627785Y-116117714D01*
X160597547Y-116212952D01*
X160567309Y-116260571D01*
X160506833Y-116308190D01*
X160264928Y-116308190D01*
X160899928Y-116260571D02*
X161111595Y-116260571D01*
X161202309Y-116784380D02*
X160899928Y-116784380D01*
X160899928Y-115784380D01*
X161202309Y-115784380D01*
X161474452Y-116784380D02*
X161474452Y-115784380D01*
X161625642Y-115784380D01*
X161716357Y-115832000D01*
X161776833Y-115927238D01*
X161807071Y-116022476D01*
X161837309Y-116212952D01*
X161837309Y-116355809D01*
X161807071Y-116546285D01*
X161776833Y-116641523D01*
X161716357Y-116736761D01*
X161625642Y-116784380D01*
X161474452Y-116784380D01*
X144510880Y-115784380D02*
X144662071Y-116784380D01*
X144783023Y-116070095D01*
X144903976Y-116784380D01*
X145055166Y-115784380D01*
X145297071Y-116784380D02*
X145297071Y-115784380D01*
X145297071Y-116260571D02*
X145659928Y-116260571D01*
X145659928Y-116784380D02*
X145659928Y-115784380D01*
X145962309Y-116784380D02*
X145962309Y-115784380D01*
X146173976Y-115784380D02*
X146536833Y-115784380D01*
X146355404Y-116784380D02*
X146355404Y-115784380D01*
X146748500Y-116260571D02*
X146960166Y-116260571D01*
X147050880Y-116784380D02*
X146748500Y-116784380D01*
X146748500Y-115784380D01*
X147050880Y-115784380D01*
X149817666Y-115832000D02*
X149757190Y-115784380D01*
X149666476Y-115784380D01*
X149575761Y-115832000D01*
X149515285Y-115927238D01*
X149485047Y-116022476D01*
X149454809Y-116212952D01*
X149454809Y-116355809D01*
X149485047Y-116546285D01*
X149515285Y-116641523D01*
X149575761Y-116736761D01*
X149666476Y-116784380D01*
X149726952Y-116784380D01*
X149817666Y-116736761D01*
X149847904Y-116689142D01*
X149847904Y-116355809D01*
X149726952Y-116355809D01*
X150482904Y-116784380D02*
X150271238Y-116308190D01*
X150120047Y-116784380D02*
X150120047Y-115784380D01*
X150361952Y-115784380D01*
X150422428Y-115832000D01*
X150452666Y-115879619D01*
X150482904Y-115974857D01*
X150482904Y-116117714D01*
X150452666Y-116212952D01*
X150422428Y-116260571D01*
X150361952Y-116308190D01*
X150120047Y-116308190D01*
X150755047Y-116260571D02*
X150966714Y-116260571D01*
X151057428Y-116784380D02*
X150755047Y-116784380D01*
X150755047Y-115784380D01*
X151057428Y-115784380D01*
X151329571Y-116260571D02*
X151541238Y-116260571D01*
X151631952Y-116784380D02*
X151329571Y-116784380D01*
X151329571Y-115784380D01*
X151631952Y-115784380D01*
X151904095Y-116784380D02*
X151904095Y-115784380D01*
X152266952Y-116784380D01*
X152266952Y-115784380D01*
X154583190Y-116260571D02*
X154673904Y-116308190D01*
X154704142Y-116355809D01*
X154734380Y-116451047D01*
X154734380Y-116593904D01*
X154704142Y-116689142D01*
X154673904Y-116736761D01*
X154613428Y-116784380D01*
X154371523Y-116784380D01*
X154371523Y-115784380D01*
X154583190Y-115784380D01*
X154643666Y-115832000D01*
X154673904Y-115879619D01*
X154704142Y-115974857D01*
X154704142Y-116070095D01*
X154673904Y-116165333D01*
X154643666Y-116212952D01*
X154583190Y-116260571D01*
X154371523Y-116260571D01*
X155308904Y-116784380D02*
X155006523Y-116784380D01*
X155006523Y-115784380D01*
X155490333Y-116498666D02*
X155792714Y-116498666D01*
X155429857Y-116784380D02*
X155641523Y-115784380D01*
X155853190Y-116784380D01*
X156427714Y-116689142D02*
X156397476Y-116736761D01*
X156306761Y-116784380D01*
X156246285Y-116784380D01*
X156155571Y-116736761D01*
X156095095Y-116641523D01*
X156064857Y-116546285D01*
X156034619Y-116355809D01*
X156034619Y-116212952D01*
X156064857Y-116022476D01*
X156095095Y-115927238D01*
X156155571Y-115832000D01*
X156246285Y-115784380D01*
X156306761Y-115784380D01*
X156397476Y-115832000D01*
X156427714Y-115879619D01*
X156699857Y-116784380D02*
X156699857Y-115784380D01*
X157062714Y-116784380D02*
X156790571Y-116212952D01*
X157062714Y-115784380D02*
X156699857Y-116355809D01*
X140561785Y-116784380D02*
X140350119Y-116308190D01*
X140198928Y-116784380D02*
X140198928Y-115784380D01*
X140440833Y-115784380D01*
X140501309Y-115832000D01*
X140531547Y-115879619D01*
X140561785Y-115974857D01*
X140561785Y-116117714D01*
X140531547Y-116212952D01*
X140501309Y-116260571D01*
X140440833Y-116308190D01*
X140198928Y-116308190D01*
X140833928Y-116260571D02*
X141045595Y-116260571D01*
X141136309Y-116784380D02*
X140833928Y-116784380D01*
X140833928Y-115784380D01*
X141136309Y-115784380D01*
X141408452Y-116784380D02*
X141408452Y-115784380D01*
X141559642Y-115784380D01*
X141650357Y-115832000D01*
X141710833Y-115927238D01*
X141741071Y-116022476D01*
X141771309Y-116212952D01*
X141771309Y-116355809D01*
X141741071Y-116546285D01*
X141710833Y-116641523D01*
X141650357Y-116736761D01*
X141559642Y-116784380D01*
X141408452Y-116784380D01*
X134771190Y-116260571D02*
X134861904Y-116308190D01*
X134892142Y-116355809D01*
X134922380Y-116451047D01*
X134922380Y-116593904D01*
X134892142Y-116689142D01*
X134861904Y-116736761D01*
X134801428Y-116784380D01*
X134559523Y-116784380D01*
X134559523Y-115784380D01*
X134771190Y-115784380D01*
X134831666Y-115832000D01*
X134861904Y-115879619D01*
X134892142Y-115974857D01*
X134892142Y-116070095D01*
X134861904Y-116165333D01*
X134831666Y-116212952D01*
X134771190Y-116260571D01*
X134559523Y-116260571D01*
X135496904Y-116784380D02*
X135194523Y-116784380D01*
X135194523Y-115784380D01*
X135678333Y-116498666D02*
X135980714Y-116498666D01*
X135617857Y-116784380D02*
X135829523Y-115784380D01*
X136041190Y-116784380D01*
X136615714Y-116689142D02*
X136585476Y-116736761D01*
X136494761Y-116784380D01*
X136434285Y-116784380D01*
X136343571Y-116736761D01*
X136283095Y-116641523D01*
X136252857Y-116546285D01*
X136222619Y-116355809D01*
X136222619Y-116212952D01*
X136252857Y-116022476D01*
X136283095Y-115927238D01*
X136343571Y-115832000D01*
X136434285Y-115784380D01*
X136494761Y-115784380D01*
X136585476Y-115832000D01*
X136615714Y-115879619D01*
X136887857Y-116784380D02*
X136887857Y-115784380D01*
X137250714Y-116784380D02*
X136978571Y-116212952D01*
X137250714Y-115784380D02*
X136887857Y-116355809D01*
X124698880Y-115784380D02*
X124850071Y-116784380D01*
X124971023Y-116070095D01*
X125091976Y-116784380D01*
X125243166Y-115784380D01*
X125485071Y-116784380D02*
X125485071Y-115784380D01*
X125485071Y-116260571D02*
X125847928Y-116260571D01*
X125847928Y-116784380D02*
X125847928Y-115784380D01*
X126150309Y-116784380D02*
X126150309Y-115784380D01*
X126361976Y-115784380D02*
X126724833Y-115784380D01*
X126543404Y-116784380D02*
X126543404Y-115784380D01*
X126936500Y-116260571D02*
X127148166Y-116260571D01*
X127238880Y-116784380D02*
X126936500Y-116784380D01*
X126936500Y-115784380D01*
X127238880Y-115784380D01*
X120749785Y-116784380D02*
X120538119Y-116308190D01*
X120386928Y-116784380D02*
X120386928Y-115784380D01*
X120628833Y-115784380D01*
X120689309Y-115832000D01*
X120719547Y-115879619D01*
X120749785Y-115974857D01*
X120749785Y-116117714D01*
X120719547Y-116212952D01*
X120689309Y-116260571D01*
X120628833Y-116308190D01*
X120386928Y-116308190D01*
X121021928Y-116260571D02*
X121233595Y-116260571D01*
X121324309Y-116784380D02*
X121021928Y-116784380D01*
X121021928Y-115784380D01*
X121324309Y-115784380D01*
X121596452Y-116784380D02*
X121596452Y-115784380D01*
X121747642Y-115784380D01*
X121838357Y-115832000D01*
X121898833Y-115927238D01*
X121929071Y-116022476D01*
X121959309Y-116212952D01*
X121959309Y-116355809D01*
X121929071Y-116546285D01*
X121898833Y-116641523D01*
X121838357Y-116736761D01*
X121747642Y-116784380D01*
X121596452Y-116784380D01*
X130005666Y-115832000D02*
X129945190Y-115784380D01*
X129854476Y-115784380D01*
X129763761Y-115832000D01*
X129703285Y-115927238D01*
X129673047Y-116022476D01*
X129642809Y-116212952D01*
X129642809Y-116355809D01*
X129673047Y-116546285D01*
X129703285Y-116641523D01*
X129763761Y-116736761D01*
X129854476Y-116784380D01*
X129914952Y-116784380D01*
X130005666Y-116736761D01*
X130035904Y-116689142D01*
X130035904Y-116355809D01*
X129914952Y-116355809D01*
X130670904Y-116784380D02*
X130459238Y-116308190D01*
X130308047Y-116784380D02*
X130308047Y-115784380D01*
X130549952Y-115784380D01*
X130610428Y-115832000D01*
X130640666Y-115879619D01*
X130670904Y-115974857D01*
X130670904Y-116117714D01*
X130640666Y-116212952D01*
X130610428Y-116260571D01*
X130549952Y-116308190D01*
X130308047Y-116308190D01*
X130943047Y-116260571D02*
X131154714Y-116260571D01*
X131245428Y-116784380D02*
X130943047Y-116784380D01*
X130943047Y-115784380D01*
X131245428Y-115784380D01*
X131517571Y-116260571D02*
X131729238Y-116260571D01*
X131819952Y-116784380D02*
X131517571Y-116784380D01*
X131517571Y-115784380D01*
X131819952Y-115784380D01*
X132092095Y-116784380D02*
X132092095Y-115784380D01*
X132454952Y-116784380D01*
X132454952Y-115784380D01*
D11*
X156972000Y-114300000D02*
X152146000Y-114300000D01*
X145034000Y-114300000D02*
X140208000Y-114300000D01*
D12*
X145470952Y-113752380D02*
X145470952Y-114561904D01*
X145518571Y-114657142D01*
X145566190Y-114704761D01*
X145661428Y-114752380D01*
X145851904Y-114752380D01*
X145947142Y-114704761D01*
X145994761Y-114657142D01*
X146042380Y-114561904D01*
X146042380Y-113752380D01*
X146470952Y-114704761D02*
X146613809Y-114752380D01*
X146851904Y-114752380D01*
X146947142Y-114704761D01*
X146994761Y-114657142D01*
X147042380Y-114561904D01*
X147042380Y-114466666D01*
X146994761Y-114371428D01*
X146947142Y-114323809D01*
X146851904Y-114276190D01*
X146661428Y-114228571D01*
X146566190Y-114180952D01*
X146518571Y-114133333D01*
X146470952Y-114038095D01*
X146470952Y-113942857D01*
X146518571Y-113847619D01*
X146566190Y-113800000D01*
X146661428Y-113752380D01*
X146899523Y-113752380D01*
X147042380Y-113800000D01*
X147804285Y-114228571D02*
X147947142Y-114276190D01*
X147994761Y-114323809D01*
X148042380Y-114419047D01*
X148042380Y-114561904D01*
X147994761Y-114657142D01*
X147947142Y-114704761D01*
X147851904Y-114752380D01*
X147470952Y-114752380D01*
X147470952Y-113752380D01*
X147804285Y-113752380D01*
X147899523Y-113800000D01*
X147947142Y-113847619D01*
X147994761Y-113942857D01*
X147994761Y-114038095D01*
X147947142Y-114133333D01*
X147899523Y-114180952D01*
X147804285Y-114228571D01*
X147470952Y-114228571D01*
X149090000Y-113752380D02*
X149661428Y-113752380D01*
X149375714Y-114752380D02*
X149375714Y-113752380D01*
X149899523Y-113752380D02*
X150137619Y-114752380D01*
X150328095Y-114038095D01*
X150518571Y-114752380D01*
X150756666Y-113752380D01*
X151328095Y-113752380D02*
X151518571Y-113752380D01*
X151613809Y-113800000D01*
X151709047Y-113895238D01*
X151756666Y-114085714D01*
X151756666Y-114419047D01*
X151709047Y-114609523D01*
X151613809Y-114704761D01*
X151518571Y-114752380D01*
X151328095Y-114752380D01*
X151232857Y-114704761D01*
X151137619Y-114609523D01*
X151090000Y-114419047D01*
X151090000Y-114085714D01*
X151137619Y-113895238D01*
X151232857Y-113800000D01*
X151328095Y-113752380D01*
D11*
X137160000Y-114300000D02*
X132080000Y-114300000D01*
X124968000Y-114300000D02*
X120396000Y-114300000D01*
D12*
X125381142Y-113752380D02*
X125381142Y-114561904D01*
X125428761Y-114657142D01*
X125476380Y-114704761D01*
X125571619Y-114752380D01*
X125762095Y-114752380D01*
X125857333Y-114704761D01*
X125904952Y-114657142D01*
X125952571Y-114561904D01*
X125952571Y-113752380D01*
X126381142Y-114704761D02*
X126524000Y-114752380D01*
X126762095Y-114752380D01*
X126857333Y-114704761D01*
X126904952Y-114657142D01*
X126952571Y-114561904D01*
X126952571Y-114466666D01*
X126904952Y-114371428D01*
X126857333Y-114323809D01*
X126762095Y-114276190D01*
X126571619Y-114228571D01*
X126476380Y-114180952D01*
X126428761Y-114133333D01*
X126381142Y-114038095D01*
X126381142Y-113942857D01*
X126428761Y-113847619D01*
X126476380Y-113800000D01*
X126571619Y-113752380D01*
X126809714Y-113752380D01*
X126952571Y-113800000D01*
X127714476Y-114228571D02*
X127857333Y-114276190D01*
X127904952Y-114323809D01*
X127952571Y-114419047D01*
X127952571Y-114561904D01*
X127904952Y-114657142D01*
X127857333Y-114704761D01*
X127762095Y-114752380D01*
X127381142Y-114752380D01*
X127381142Y-113752380D01*
X127714476Y-113752380D01*
X127809714Y-113800000D01*
X127857333Y-113847619D01*
X127904952Y-113942857D01*
X127904952Y-114038095D01*
X127857333Y-114133333D01*
X127809714Y-114180952D01*
X127714476Y-114228571D01*
X127381142Y-114228571D01*
X129333523Y-113752380D02*
X129524000Y-113752380D01*
X129619238Y-113800000D01*
X129714476Y-113895238D01*
X129762095Y-114085714D01*
X129762095Y-114419047D01*
X129714476Y-114609523D01*
X129619238Y-114704761D01*
X129524000Y-114752380D01*
X129333523Y-114752380D01*
X129238285Y-114704761D01*
X129143047Y-114609523D01*
X129095428Y-114419047D01*
X129095428Y-114085714D01*
X129143047Y-113895238D01*
X129238285Y-113800000D01*
X129333523Y-113752380D01*
X130190666Y-114752380D02*
X130190666Y-113752380D01*
X130762095Y-114752380D01*
X130762095Y-113752380D01*
X131238285Y-114228571D02*
X131571619Y-114228571D01*
X131714476Y-114752380D02*
X131238285Y-114752380D01*
X131238285Y-113752380D01*
X131714476Y-113752380D01*
D13*
X230409904Y-116403428D02*
X231171809Y-116403428D01*
X230790857Y-116784380D02*
X230790857Y-116022476D01*
X232124190Y-115784380D02*
X231648000Y-115784380D01*
X231600380Y-116260571D01*
X231648000Y-116212952D01*
X231743238Y-116165333D01*
X231981333Y-116165333D01*
X232076571Y-116212952D01*
X232124190Y-116260571D01*
X232171809Y-116355809D01*
X232171809Y-116593904D01*
X232124190Y-116689142D01*
X232076571Y-116736761D01*
X231981333Y-116784380D01*
X231743238Y-116784380D01*
X231648000Y-116736761D01*
X231600380Y-116689142D01*
X232505142Y-116117714D02*
X232743238Y-116784380D01*
X232981333Y-116117714D01*
X236474095Y-115832000D02*
X236378857Y-115784380D01*
X236236000Y-115784380D01*
X236093142Y-115832000D01*
X235997904Y-115927238D01*
X235950285Y-116022476D01*
X235902666Y-116212952D01*
X235902666Y-116355809D01*
X235950285Y-116546285D01*
X235997904Y-116641523D01*
X236093142Y-116736761D01*
X236236000Y-116784380D01*
X236331238Y-116784380D01*
X236474095Y-116736761D01*
X236521714Y-116689142D01*
X236521714Y-116355809D01*
X236331238Y-116355809D01*
X236950285Y-116784380D02*
X236950285Y-115784380D01*
X237521714Y-116784380D01*
X237521714Y-115784380D01*
X237997904Y-116784380D02*
X237997904Y-115784380D01*
X238236000Y-115784380D01*
X238378857Y-115832000D01*
X238474095Y-115927238D01*
X238521714Y-116022476D01*
X238569333Y-116212952D01*
X238569333Y-116355809D01*
X238521714Y-116546285D01*
X238474095Y-116641523D01*
X238378857Y-116736761D01*
X238236000Y-116784380D01*
X237997904Y-116784380D01*
X226550309Y-80462380D02*
X226216976Y-79986190D01*
X225978880Y-80462380D02*
X225978880Y-79462380D01*
X226359833Y-79462380D01*
X226455071Y-79510000D01*
X226502690Y-79557619D01*
X226550309Y-79652857D01*
X226550309Y-79795714D01*
X226502690Y-79890952D01*
X226455071Y-79938571D01*
X226359833Y-79986190D01*
X225978880Y-79986190D01*
X226978880Y-80462380D02*
X226978880Y-79462380D01*
X227978880Y-79510000D02*
X227883642Y-79462380D01*
X227740785Y-79462380D01*
X227597928Y-79510000D01*
X227502690Y-79605238D01*
X227455071Y-79700476D01*
X227407452Y-79890952D01*
X227407452Y-80033809D01*
X227455071Y-80224285D01*
X227502690Y-80319523D01*
X227597928Y-80414761D01*
X227740785Y-80462380D01*
X227836023Y-80462380D01*
X227978880Y-80414761D01*
X228026500Y-80367142D01*
X228026500Y-80033809D01*
X227836023Y-80033809D01*
X228455071Y-80462380D02*
X228455071Y-79462380D01*
X228455071Y-79938571D02*
X229026500Y-79938571D01*
X229026500Y-80462380D02*
X229026500Y-79462380D01*
X229359833Y-79462380D02*
X229931261Y-79462380D01*
X229645547Y-80462380D02*
X229645547Y-79462380D01*
X227407452Y-75382380D02*
X226931261Y-75382380D01*
X226931261Y-74382380D01*
X227740785Y-74858571D02*
X228074119Y-74858571D01*
X228216976Y-75382380D02*
X227740785Y-75382380D01*
X227740785Y-74382380D01*
X228216976Y-74382380D01*
X228978880Y-74858571D02*
X228645547Y-74858571D01*
X228645547Y-75382380D02*
X228645547Y-74382380D01*
X229121738Y-74382380D01*
X229359833Y-74382380D02*
X229931261Y-74382380D01*
X229645547Y-75382380D02*
X229645547Y-74382380D01*
X226280500Y-70302380D02*
X226280500Y-69302380D01*
X226518595Y-69302380D01*
X226661452Y-69350000D01*
X226756690Y-69445238D01*
X226804309Y-69540476D01*
X226851928Y-69730952D01*
X226851928Y-69873809D01*
X226804309Y-70064285D01*
X226756690Y-70159523D01*
X226661452Y-70254761D01*
X226518595Y-70302380D01*
X226280500Y-70302380D01*
X227470976Y-69302380D02*
X227661452Y-69302380D01*
X227756690Y-69350000D01*
X227851928Y-69445238D01*
X227899547Y-69635714D01*
X227899547Y-69969047D01*
X227851928Y-70159523D01*
X227756690Y-70254761D01*
X227661452Y-70302380D01*
X227470976Y-70302380D01*
X227375738Y-70254761D01*
X227280500Y-70159523D01*
X227232880Y-69969047D01*
X227232880Y-69635714D01*
X227280500Y-69445238D01*
X227375738Y-69350000D01*
X227470976Y-69302380D01*
X228232880Y-69302380D02*
X228470976Y-70302380D01*
X228661452Y-69588095D01*
X228851928Y-70302380D01*
X229090023Y-69302380D01*
X229470976Y-70302380D02*
X229470976Y-69302380D01*
X230042404Y-70302380D01*
X230042404Y-69302380D01*
X228470976Y-64349380D02*
X228470976Y-65158904D01*
X228518595Y-65254142D01*
X228566214Y-65301761D01*
X228661452Y-65349380D01*
X228851928Y-65349380D01*
X228947166Y-65301761D01*
X228994785Y-65254142D01*
X229042404Y-65158904D01*
X229042404Y-64349380D01*
X229518595Y-65349380D02*
X229518595Y-64349380D01*
X229899547Y-64349380D01*
X229994785Y-64397000D01*
X230042404Y-64444619D01*
X230090023Y-64539857D01*
X230090023Y-64682714D01*
X230042404Y-64777952D01*
X229994785Y-64825571D01*
X229899547Y-64873190D01*
X229518595Y-64873190D01*
X223216976Y-84764571D02*
X223359833Y-84812190D01*
X223407452Y-84859809D01*
X223455071Y-84955047D01*
X223455071Y-85097904D01*
X223407452Y-85193142D01*
X223359833Y-85240761D01*
X223264595Y-85288380D01*
X222883642Y-85288380D01*
X222883642Y-84288380D01*
X223216976Y-84288380D01*
X223312214Y-84336000D01*
X223359833Y-84383619D01*
X223407452Y-84478857D01*
X223407452Y-84574095D01*
X223359833Y-84669333D01*
X223312214Y-84716952D01*
X223216976Y-84764571D01*
X222883642Y-84764571D01*
X223883642Y-84288380D02*
X223883642Y-85097904D01*
X223931261Y-85193142D01*
X223978880Y-85240761D01*
X224074119Y-85288380D01*
X224264595Y-85288380D01*
X224359833Y-85240761D01*
X224407452Y-85193142D01*
X224455071Y-85097904D01*
X224455071Y-84288380D01*
X224788404Y-84288380D02*
X225359833Y-84288380D01*
X225074119Y-85288380D02*
X225074119Y-84288380D01*
X225550309Y-84288380D02*
X226121738Y-84288380D01*
X225836023Y-85288380D02*
X225836023Y-84288380D01*
X226645547Y-84288380D02*
X226836023Y-84288380D01*
X226931261Y-84336000D01*
X227026500Y-84431238D01*
X227074119Y-84621714D01*
X227074119Y-84955047D01*
X227026500Y-85145523D01*
X226931261Y-85240761D01*
X226836023Y-85288380D01*
X226645547Y-85288380D01*
X226550309Y-85240761D01*
X226455071Y-85145523D01*
X226407452Y-84955047D01*
X226407452Y-84621714D01*
X226455071Y-84431238D01*
X226550309Y-84336000D01*
X226645547Y-84288380D01*
X227502690Y-85288380D02*
X227502690Y-84288380D01*
X228074119Y-85288380D01*
X228074119Y-84288380D01*
X229836023Y-85288380D02*
X229264595Y-85288380D01*
X229550309Y-85288380D02*
X229550309Y-84288380D01*
X229455071Y-84431238D01*
X229359833Y-84526476D01*
X229264595Y-84574095D01*
X223216976Y-109910571D02*
X223359833Y-109958190D01*
X223407452Y-110005809D01*
X223455071Y-110101047D01*
X223455071Y-110243904D01*
X223407452Y-110339142D01*
X223359833Y-110386761D01*
X223264595Y-110434380D01*
X222883642Y-110434380D01*
X222883642Y-109434380D01*
X223216976Y-109434380D01*
X223312214Y-109482000D01*
X223359833Y-109529619D01*
X223407452Y-109624857D01*
X223407452Y-109720095D01*
X223359833Y-109815333D01*
X223312214Y-109862952D01*
X223216976Y-109910571D01*
X222883642Y-109910571D01*
X223883642Y-109434380D02*
X223883642Y-110243904D01*
X223931261Y-110339142D01*
X223978880Y-110386761D01*
X224074119Y-110434380D01*
X224264595Y-110434380D01*
X224359833Y-110386761D01*
X224407452Y-110339142D01*
X224455071Y-110243904D01*
X224455071Y-109434380D01*
X224788404Y-109434380D02*
X225359833Y-109434380D01*
X225074119Y-110434380D02*
X225074119Y-109434380D01*
X225550309Y-109434380D02*
X226121738Y-109434380D01*
X225836023Y-110434380D02*
X225836023Y-109434380D01*
X226645547Y-109434380D02*
X226836023Y-109434380D01*
X226931261Y-109482000D01*
X227026500Y-109577238D01*
X227074119Y-109767714D01*
X227074119Y-110101047D01*
X227026500Y-110291523D01*
X226931261Y-110386761D01*
X226836023Y-110434380D01*
X226645547Y-110434380D01*
X226550309Y-110386761D01*
X226455071Y-110291523D01*
X226407452Y-110101047D01*
X226407452Y-109767714D01*
X226455071Y-109577238D01*
X226550309Y-109482000D01*
X226645547Y-109434380D01*
X227502690Y-110434380D02*
X227502690Y-109434380D01*
X228074119Y-110434380D01*
X228074119Y-109434380D01*
X229740785Y-109434380D02*
X229550309Y-109434380D01*
X229455071Y-109482000D01*
X229407452Y-109529619D01*
X229312214Y-109672476D01*
X229264595Y-109862952D01*
X229264595Y-110243904D01*
X229312214Y-110339142D01*
X229359833Y-110386761D01*
X229455071Y-110434380D01*
X229645547Y-110434380D01*
X229740785Y-110386761D01*
X229788404Y-110339142D01*
X229836023Y-110243904D01*
X229836023Y-110005809D01*
X229788404Y-109910571D01*
X229740785Y-109862952D01*
X229645547Y-109815333D01*
X229455071Y-109815333D01*
X229359833Y-109862952D01*
X229312214Y-109910571D01*
X229264595Y-110005809D01*
X223216976Y-105084571D02*
X223359833Y-105132190D01*
X223407452Y-105179809D01*
X223455071Y-105275047D01*
X223455071Y-105417904D01*
X223407452Y-105513142D01*
X223359833Y-105560761D01*
X223264595Y-105608380D01*
X222883642Y-105608380D01*
X222883642Y-104608380D01*
X223216976Y-104608380D01*
X223312214Y-104656000D01*
X223359833Y-104703619D01*
X223407452Y-104798857D01*
X223407452Y-104894095D01*
X223359833Y-104989333D01*
X223312214Y-105036952D01*
X223216976Y-105084571D01*
X222883642Y-105084571D01*
X223883642Y-104608380D02*
X223883642Y-105417904D01*
X223931261Y-105513142D01*
X223978880Y-105560761D01*
X224074119Y-105608380D01*
X224264595Y-105608380D01*
X224359833Y-105560761D01*
X224407452Y-105513142D01*
X224455071Y-105417904D01*
X224455071Y-104608380D01*
X224788404Y-104608380D02*
X225359833Y-104608380D01*
X225074119Y-105608380D02*
X225074119Y-104608380D01*
X225550309Y-104608380D02*
X226121738Y-104608380D01*
X225836023Y-105608380D02*
X225836023Y-104608380D01*
X226645547Y-104608380D02*
X226836023Y-104608380D01*
X226931261Y-104656000D01*
X227026500Y-104751238D01*
X227074119Y-104941714D01*
X227074119Y-105275047D01*
X227026500Y-105465523D01*
X226931261Y-105560761D01*
X226836023Y-105608380D01*
X226645547Y-105608380D01*
X226550309Y-105560761D01*
X226455071Y-105465523D01*
X226407452Y-105275047D01*
X226407452Y-104941714D01*
X226455071Y-104751238D01*
X226550309Y-104656000D01*
X226645547Y-104608380D01*
X227502690Y-105608380D02*
X227502690Y-104608380D01*
X228074119Y-105608380D01*
X228074119Y-104608380D01*
X229788404Y-104608380D02*
X229312214Y-104608380D01*
X229264595Y-105084571D01*
X229312214Y-105036952D01*
X229407452Y-104989333D01*
X229645547Y-104989333D01*
X229740785Y-105036952D01*
X229788404Y-105084571D01*
X229836023Y-105179809D01*
X229836023Y-105417904D01*
X229788404Y-105513142D01*
X229740785Y-105560761D01*
X229645547Y-105608380D01*
X229407452Y-105608380D01*
X229312214Y-105560761D01*
X229264595Y-105513142D01*
X223216976Y-99877571D02*
X223359833Y-99925190D01*
X223407452Y-99972809D01*
X223455071Y-100068047D01*
X223455071Y-100210904D01*
X223407452Y-100306142D01*
X223359833Y-100353761D01*
X223264595Y-100401380D01*
X222883642Y-100401380D01*
X222883642Y-99401380D01*
X223216976Y-99401380D01*
X223312214Y-99449000D01*
X223359833Y-99496619D01*
X223407452Y-99591857D01*
X223407452Y-99687095D01*
X223359833Y-99782333D01*
X223312214Y-99829952D01*
X223216976Y-99877571D01*
X222883642Y-99877571D01*
X223883642Y-99401380D02*
X223883642Y-100210904D01*
X223931261Y-100306142D01*
X223978880Y-100353761D01*
X224074119Y-100401380D01*
X224264595Y-100401380D01*
X224359833Y-100353761D01*
X224407452Y-100306142D01*
X224455071Y-100210904D01*
X224455071Y-99401380D01*
X224788404Y-99401380D02*
X225359833Y-99401380D01*
X225074119Y-100401380D02*
X225074119Y-99401380D01*
X225550309Y-99401380D02*
X226121738Y-99401380D01*
X225836023Y-100401380D02*
X225836023Y-99401380D01*
X226645547Y-99401380D02*
X226836023Y-99401380D01*
X226931261Y-99449000D01*
X227026500Y-99544238D01*
X227074119Y-99734714D01*
X227074119Y-100068047D01*
X227026500Y-100258523D01*
X226931261Y-100353761D01*
X226836023Y-100401380D01*
X226645547Y-100401380D01*
X226550309Y-100353761D01*
X226455071Y-100258523D01*
X226407452Y-100068047D01*
X226407452Y-99734714D01*
X226455071Y-99544238D01*
X226550309Y-99449000D01*
X226645547Y-99401380D01*
X227502690Y-100401380D02*
X227502690Y-99401380D01*
X228074119Y-100401380D01*
X228074119Y-99401380D01*
X229740785Y-99734714D02*
X229740785Y-100401380D01*
X229502690Y-99353761D02*
X229264595Y-100068047D01*
X229883642Y-100068047D01*
X223216976Y-94924571D02*
X223359833Y-94972190D01*
X223407452Y-95019809D01*
X223455071Y-95115047D01*
X223455071Y-95257904D01*
X223407452Y-95353142D01*
X223359833Y-95400761D01*
X223264595Y-95448380D01*
X222883642Y-95448380D01*
X222883642Y-94448380D01*
X223216976Y-94448380D01*
X223312214Y-94496000D01*
X223359833Y-94543619D01*
X223407452Y-94638857D01*
X223407452Y-94734095D01*
X223359833Y-94829333D01*
X223312214Y-94876952D01*
X223216976Y-94924571D01*
X222883642Y-94924571D01*
X223883642Y-94448380D02*
X223883642Y-95257904D01*
X223931261Y-95353142D01*
X223978880Y-95400761D01*
X224074119Y-95448380D01*
X224264595Y-95448380D01*
X224359833Y-95400761D01*
X224407452Y-95353142D01*
X224455071Y-95257904D01*
X224455071Y-94448380D01*
X224788404Y-94448380D02*
X225359833Y-94448380D01*
X225074119Y-95448380D02*
X225074119Y-94448380D01*
X225550309Y-94448380D02*
X226121738Y-94448380D01*
X225836023Y-95448380D02*
X225836023Y-94448380D01*
X226645547Y-94448380D02*
X226836023Y-94448380D01*
X226931261Y-94496000D01*
X227026500Y-94591238D01*
X227074119Y-94781714D01*
X227074119Y-95115047D01*
X227026500Y-95305523D01*
X226931261Y-95400761D01*
X226836023Y-95448380D01*
X226645547Y-95448380D01*
X226550309Y-95400761D01*
X226455071Y-95305523D01*
X226407452Y-95115047D01*
X226407452Y-94781714D01*
X226455071Y-94591238D01*
X226550309Y-94496000D01*
X226645547Y-94448380D01*
X227502690Y-95448380D02*
X227502690Y-94448380D01*
X228074119Y-95448380D01*
X228074119Y-94448380D01*
X229216976Y-94448380D02*
X229836023Y-94448380D01*
X229502690Y-94829333D01*
X229645547Y-94829333D01*
X229740785Y-94876952D01*
X229788404Y-94924571D01*
X229836023Y-95019809D01*
X229836023Y-95257904D01*
X229788404Y-95353142D01*
X229740785Y-95400761D01*
X229645547Y-95448380D01*
X229359833Y-95448380D01*
X229264595Y-95400761D01*
X229216976Y-95353142D01*
X223216976Y-89844571D02*
X223359833Y-89892190D01*
X223407452Y-89939809D01*
X223455071Y-90035047D01*
X223455071Y-90177904D01*
X223407452Y-90273142D01*
X223359833Y-90320761D01*
X223264595Y-90368380D01*
X222883642Y-90368380D01*
X222883642Y-89368380D01*
X223216976Y-89368380D01*
X223312214Y-89416000D01*
X223359833Y-89463619D01*
X223407452Y-89558857D01*
X223407452Y-89654095D01*
X223359833Y-89749333D01*
X223312214Y-89796952D01*
X223216976Y-89844571D01*
X222883642Y-89844571D01*
X223883642Y-89368380D02*
X223883642Y-90177904D01*
X223931261Y-90273142D01*
X223978880Y-90320761D01*
X224074119Y-90368380D01*
X224264595Y-90368380D01*
X224359833Y-90320761D01*
X224407452Y-90273142D01*
X224455071Y-90177904D01*
X224455071Y-89368380D01*
X224788404Y-89368380D02*
X225359833Y-89368380D01*
X225074119Y-90368380D02*
X225074119Y-89368380D01*
X225550309Y-89368380D02*
X226121738Y-89368380D01*
X225836023Y-90368380D02*
X225836023Y-89368380D01*
X226645547Y-89368380D02*
X226836023Y-89368380D01*
X226931261Y-89416000D01*
X227026500Y-89511238D01*
X227074119Y-89701714D01*
X227074119Y-90035047D01*
X227026500Y-90225523D01*
X226931261Y-90320761D01*
X226836023Y-90368380D01*
X226645547Y-90368380D01*
X226550309Y-90320761D01*
X226455071Y-90225523D01*
X226407452Y-90035047D01*
X226407452Y-89701714D01*
X226455071Y-89511238D01*
X226550309Y-89416000D01*
X226645547Y-89368380D01*
X227502690Y-90368380D02*
X227502690Y-89368380D01*
X228074119Y-90368380D01*
X228074119Y-89368380D01*
X229264595Y-89463619D02*
X229312214Y-89416000D01*
X229407452Y-89368380D01*
X229645547Y-89368380D01*
X229740785Y-89416000D01*
X229788404Y-89463619D01*
X229836023Y-89558857D01*
X229836023Y-89654095D01*
X229788404Y-89796952D01*
X229216976Y-90368380D01*
X229836023Y-90368380D01*
X128706952Y-109656571D02*
X128849809Y-109704190D01*
X128897428Y-109751809D01*
X128945047Y-109847047D01*
X128945047Y-109989904D01*
X128897428Y-110085142D01*
X128849809Y-110132761D01*
X128754571Y-110180380D01*
X128373619Y-110180380D01*
X128373619Y-109180380D01*
X128706952Y-109180380D01*
X128802190Y-109228000D01*
X128849809Y-109275619D01*
X128897428Y-109370857D01*
X128897428Y-109466095D01*
X128849809Y-109561333D01*
X128802190Y-109608952D01*
X128706952Y-109656571D01*
X128373619Y-109656571D01*
X129373619Y-109180380D02*
X129373619Y-109989904D01*
X129421238Y-110085142D01*
X129468857Y-110132761D01*
X129564095Y-110180380D01*
X129754571Y-110180380D01*
X129849809Y-110132761D01*
X129897428Y-110085142D01*
X129945047Y-109989904D01*
X129945047Y-109180380D01*
X130278380Y-109180380D02*
X130849809Y-109180380D01*
X130564095Y-110180380D02*
X130564095Y-109180380D01*
X131040285Y-109180380D02*
X131611714Y-109180380D01*
X131326000Y-110180380D02*
X131326000Y-109180380D01*
X132135523Y-109180380D02*
X132326000Y-109180380D01*
X132421238Y-109228000D01*
X132516476Y-109323238D01*
X132564095Y-109513714D01*
X132564095Y-109847047D01*
X132516476Y-110037523D01*
X132421238Y-110132761D01*
X132326000Y-110180380D01*
X132135523Y-110180380D01*
X132040285Y-110132761D01*
X131945047Y-110037523D01*
X131897428Y-109847047D01*
X131897428Y-109513714D01*
X131945047Y-109323238D01*
X132040285Y-109228000D01*
X132135523Y-109180380D01*
X132992666Y-110180380D02*
X132992666Y-109180380D01*
X133564095Y-110180380D01*
X133564095Y-109180380D01*
X135230761Y-109180380D02*
X135040285Y-109180380D01*
X134945047Y-109228000D01*
X134897428Y-109275619D01*
X134802190Y-109418476D01*
X134754571Y-109608952D01*
X134754571Y-109989904D01*
X134802190Y-110085142D01*
X134849809Y-110132761D01*
X134945047Y-110180380D01*
X135135523Y-110180380D01*
X135230761Y-110132761D01*
X135278380Y-110085142D01*
X135326000Y-109989904D01*
X135326000Y-109751809D01*
X135278380Y-109656571D01*
X135230761Y-109608952D01*
X135135523Y-109561333D01*
X134945047Y-109561333D01*
X134849809Y-109608952D01*
X134802190Y-109656571D01*
X134754571Y-109751809D01*
X128706952Y-104576571D02*
X128849809Y-104624190D01*
X128897428Y-104671809D01*
X128945047Y-104767047D01*
X128945047Y-104909904D01*
X128897428Y-105005142D01*
X128849809Y-105052761D01*
X128754571Y-105100380D01*
X128373619Y-105100380D01*
X128373619Y-104100380D01*
X128706952Y-104100380D01*
X128802190Y-104148000D01*
X128849809Y-104195619D01*
X128897428Y-104290857D01*
X128897428Y-104386095D01*
X128849809Y-104481333D01*
X128802190Y-104528952D01*
X128706952Y-104576571D01*
X128373619Y-104576571D01*
X129373619Y-104100380D02*
X129373619Y-104909904D01*
X129421238Y-105005142D01*
X129468857Y-105052761D01*
X129564095Y-105100380D01*
X129754571Y-105100380D01*
X129849809Y-105052761D01*
X129897428Y-105005142D01*
X129945047Y-104909904D01*
X129945047Y-104100380D01*
X130278380Y-104100380D02*
X130849809Y-104100380D01*
X130564095Y-105100380D02*
X130564095Y-104100380D01*
X131040285Y-104100380D02*
X131611714Y-104100380D01*
X131326000Y-105100380D02*
X131326000Y-104100380D01*
X132135523Y-104100380D02*
X132326000Y-104100380D01*
X132421238Y-104148000D01*
X132516476Y-104243238D01*
X132564095Y-104433714D01*
X132564095Y-104767047D01*
X132516476Y-104957523D01*
X132421238Y-105052761D01*
X132326000Y-105100380D01*
X132135523Y-105100380D01*
X132040285Y-105052761D01*
X131945047Y-104957523D01*
X131897428Y-104767047D01*
X131897428Y-104433714D01*
X131945047Y-104243238D01*
X132040285Y-104148000D01*
X132135523Y-104100380D01*
X132992666Y-105100380D02*
X132992666Y-104100380D01*
X133564095Y-105100380D01*
X133564095Y-104100380D01*
X135278380Y-104100380D02*
X134802190Y-104100380D01*
X134754571Y-104576571D01*
X134802190Y-104528952D01*
X134897428Y-104481333D01*
X135135523Y-104481333D01*
X135230761Y-104528952D01*
X135278380Y-104576571D01*
X135326000Y-104671809D01*
X135326000Y-104909904D01*
X135278380Y-105005142D01*
X135230761Y-105052761D01*
X135135523Y-105100380D01*
X134897428Y-105100380D01*
X134802190Y-105052761D01*
X134754571Y-105005142D01*
X128706952Y-99750571D02*
X128849809Y-99798190D01*
X128897428Y-99845809D01*
X128945047Y-99941047D01*
X128945047Y-100083904D01*
X128897428Y-100179142D01*
X128849809Y-100226761D01*
X128754571Y-100274380D01*
X128373619Y-100274380D01*
X128373619Y-99274380D01*
X128706952Y-99274380D01*
X128802190Y-99322000D01*
X128849809Y-99369619D01*
X128897428Y-99464857D01*
X128897428Y-99560095D01*
X128849809Y-99655333D01*
X128802190Y-99702952D01*
X128706952Y-99750571D01*
X128373619Y-99750571D01*
X129373619Y-99274380D02*
X129373619Y-100083904D01*
X129421238Y-100179142D01*
X129468857Y-100226761D01*
X129564095Y-100274380D01*
X129754571Y-100274380D01*
X129849809Y-100226761D01*
X129897428Y-100179142D01*
X129945047Y-100083904D01*
X129945047Y-99274380D01*
X130278380Y-99274380D02*
X130849809Y-99274380D01*
X130564095Y-100274380D02*
X130564095Y-99274380D01*
X131040285Y-99274380D02*
X131611714Y-99274380D01*
X131326000Y-100274380D02*
X131326000Y-99274380D01*
X132135523Y-99274380D02*
X132326000Y-99274380D01*
X132421238Y-99322000D01*
X132516476Y-99417238D01*
X132564095Y-99607714D01*
X132564095Y-99941047D01*
X132516476Y-100131523D01*
X132421238Y-100226761D01*
X132326000Y-100274380D01*
X132135523Y-100274380D01*
X132040285Y-100226761D01*
X131945047Y-100131523D01*
X131897428Y-99941047D01*
X131897428Y-99607714D01*
X131945047Y-99417238D01*
X132040285Y-99322000D01*
X132135523Y-99274380D01*
X132992666Y-100274380D02*
X132992666Y-99274380D01*
X133564095Y-100274380D01*
X133564095Y-99274380D01*
X135230761Y-99607714D02*
X135230761Y-100274380D01*
X134992666Y-99226761D02*
X134754571Y-99941047D01*
X135373619Y-99941047D01*
X128706952Y-94670571D02*
X128849809Y-94718190D01*
X128897428Y-94765809D01*
X128945047Y-94861047D01*
X128945047Y-95003904D01*
X128897428Y-95099142D01*
X128849809Y-95146761D01*
X128754571Y-95194380D01*
X128373619Y-95194380D01*
X128373619Y-94194380D01*
X128706952Y-94194380D01*
X128802190Y-94242000D01*
X128849809Y-94289619D01*
X128897428Y-94384857D01*
X128897428Y-94480095D01*
X128849809Y-94575333D01*
X128802190Y-94622952D01*
X128706952Y-94670571D01*
X128373619Y-94670571D01*
X129373619Y-94194380D02*
X129373619Y-95003904D01*
X129421238Y-95099142D01*
X129468857Y-95146761D01*
X129564095Y-95194380D01*
X129754571Y-95194380D01*
X129849809Y-95146761D01*
X129897428Y-95099142D01*
X129945047Y-95003904D01*
X129945047Y-94194380D01*
X130278380Y-94194380D02*
X130849809Y-94194380D01*
X130564095Y-95194380D02*
X130564095Y-94194380D01*
X131040285Y-94194380D02*
X131611714Y-94194380D01*
X131326000Y-95194380D02*
X131326000Y-94194380D01*
X132135523Y-94194380D02*
X132326000Y-94194380D01*
X132421238Y-94242000D01*
X132516476Y-94337238D01*
X132564095Y-94527714D01*
X132564095Y-94861047D01*
X132516476Y-95051523D01*
X132421238Y-95146761D01*
X132326000Y-95194380D01*
X132135523Y-95194380D01*
X132040285Y-95146761D01*
X131945047Y-95051523D01*
X131897428Y-94861047D01*
X131897428Y-94527714D01*
X131945047Y-94337238D01*
X132040285Y-94242000D01*
X132135523Y-94194380D01*
X132992666Y-95194380D02*
X132992666Y-94194380D01*
X133564095Y-95194380D01*
X133564095Y-94194380D01*
X134706952Y-94194380D02*
X135326000Y-94194380D01*
X134992666Y-94575333D01*
X135135523Y-94575333D01*
X135230761Y-94622952D01*
X135278380Y-94670571D01*
X135326000Y-94765809D01*
X135326000Y-95003904D01*
X135278380Y-95099142D01*
X135230761Y-95146761D01*
X135135523Y-95194380D01*
X134849809Y-95194380D01*
X134754571Y-95146761D01*
X134706952Y-95099142D01*
X128706952Y-89590571D02*
X128849809Y-89638190D01*
X128897428Y-89685809D01*
X128945047Y-89781047D01*
X128945047Y-89923904D01*
X128897428Y-90019142D01*
X128849809Y-90066761D01*
X128754571Y-90114380D01*
X128373619Y-90114380D01*
X128373619Y-89114380D01*
X128706952Y-89114380D01*
X128802190Y-89162000D01*
X128849809Y-89209619D01*
X128897428Y-89304857D01*
X128897428Y-89400095D01*
X128849809Y-89495333D01*
X128802190Y-89542952D01*
X128706952Y-89590571D01*
X128373619Y-89590571D01*
X129373619Y-89114380D02*
X129373619Y-89923904D01*
X129421238Y-90019142D01*
X129468857Y-90066761D01*
X129564095Y-90114380D01*
X129754571Y-90114380D01*
X129849809Y-90066761D01*
X129897428Y-90019142D01*
X129945047Y-89923904D01*
X129945047Y-89114380D01*
X130278380Y-89114380D02*
X130849809Y-89114380D01*
X130564095Y-90114380D02*
X130564095Y-89114380D01*
X131040285Y-89114380D02*
X131611714Y-89114380D01*
X131326000Y-90114380D02*
X131326000Y-89114380D01*
X132135523Y-89114380D02*
X132326000Y-89114380D01*
X132421238Y-89162000D01*
X132516476Y-89257238D01*
X132564095Y-89447714D01*
X132564095Y-89781047D01*
X132516476Y-89971523D01*
X132421238Y-90066761D01*
X132326000Y-90114380D01*
X132135523Y-90114380D01*
X132040285Y-90066761D01*
X131945047Y-89971523D01*
X131897428Y-89781047D01*
X131897428Y-89447714D01*
X131945047Y-89257238D01*
X132040285Y-89162000D01*
X132135523Y-89114380D01*
X132992666Y-90114380D02*
X132992666Y-89114380D01*
X133564095Y-90114380D01*
X133564095Y-89114380D01*
X134754571Y-89209619D02*
X134802190Y-89162000D01*
X134897428Y-89114380D01*
X135135523Y-89114380D01*
X135230761Y-89162000D01*
X135278380Y-89209619D01*
X135326000Y-89304857D01*
X135326000Y-89400095D01*
X135278380Y-89542952D01*
X134706952Y-90114380D01*
X135326000Y-90114380D01*
X128706952Y-84510571D02*
X128849809Y-84558190D01*
X128897428Y-84605809D01*
X128945047Y-84701047D01*
X128945047Y-84843904D01*
X128897428Y-84939142D01*
X128849809Y-84986761D01*
X128754571Y-85034380D01*
X128373619Y-85034380D01*
X128373619Y-84034380D01*
X128706952Y-84034380D01*
X128802190Y-84082000D01*
X128849809Y-84129619D01*
X128897428Y-84224857D01*
X128897428Y-84320095D01*
X128849809Y-84415333D01*
X128802190Y-84462952D01*
X128706952Y-84510571D01*
X128373619Y-84510571D01*
X129373619Y-84034380D02*
X129373619Y-84843904D01*
X129421238Y-84939142D01*
X129468857Y-84986761D01*
X129564095Y-85034380D01*
X129754571Y-85034380D01*
X129849809Y-84986761D01*
X129897428Y-84939142D01*
X129945047Y-84843904D01*
X129945047Y-84034380D01*
X130278380Y-84034380D02*
X130849809Y-84034380D01*
X130564095Y-85034380D02*
X130564095Y-84034380D01*
X131040285Y-84034380D02*
X131611714Y-84034380D01*
X131326000Y-85034380D02*
X131326000Y-84034380D01*
X132135523Y-84034380D02*
X132326000Y-84034380D01*
X132421238Y-84082000D01*
X132516476Y-84177238D01*
X132564095Y-84367714D01*
X132564095Y-84701047D01*
X132516476Y-84891523D01*
X132421238Y-84986761D01*
X132326000Y-85034380D01*
X132135523Y-85034380D01*
X132040285Y-84986761D01*
X131945047Y-84891523D01*
X131897428Y-84701047D01*
X131897428Y-84367714D01*
X131945047Y-84177238D01*
X132040285Y-84082000D01*
X132135523Y-84034380D01*
X132992666Y-85034380D02*
X132992666Y-84034380D01*
X133564095Y-85034380D01*
X133564095Y-84034380D01*
X135326000Y-85034380D02*
X134754571Y-85034380D01*
X135040285Y-85034380D02*
X135040285Y-84034380D01*
X134945047Y-84177238D01*
X134849809Y-84272476D01*
X134754571Y-84320095D01*
X128968666Y-80208380D02*
X128635333Y-79732190D01*
X128397238Y-80208380D02*
X128397238Y-79208380D01*
X128778190Y-79208380D01*
X128873428Y-79256000D01*
X128921047Y-79303619D01*
X128968666Y-79398857D01*
X128968666Y-79541714D01*
X128921047Y-79636952D01*
X128873428Y-79684571D01*
X128778190Y-79732190D01*
X128397238Y-79732190D01*
X129397238Y-80208380D02*
X129397238Y-79208380D01*
X130397238Y-79256000D02*
X130302000Y-79208380D01*
X130159142Y-79208380D01*
X130016285Y-79256000D01*
X129921047Y-79351238D01*
X129873428Y-79446476D01*
X129825809Y-79636952D01*
X129825809Y-79779809D01*
X129873428Y-79970285D01*
X129921047Y-80065523D01*
X130016285Y-80160761D01*
X130159142Y-80208380D01*
X130254380Y-80208380D01*
X130397238Y-80160761D01*
X130444857Y-80113142D01*
X130444857Y-79779809D01*
X130254380Y-79779809D01*
X130873428Y-80208380D02*
X130873428Y-79208380D01*
X130873428Y-79684571D02*
X131444857Y-79684571D01*
X131444857Y-80208380D02*
X131444857Y-79208380D01*
X131778190Y-79208380D02*
X132349619Y-79208380D01*
X132063904Y-80208380D02*
X132063904Y-79208380D01*
X128841619Y-75382380D02*
X128365428Y-75382380D01*
X128365428Y-74382380D01*
X129174952Y-74858571D02*
X129508285Y-74858571D01*
X129651142Y-75382380D02*
X129174952Y-75382380D01*
X129174952Y-74382380D01*
X129651142Y-74382380D01*
X130413047Y-74858571D02*
X130079714Y-74858571D01*
X130079714Y-75382380D02*
X130079714Y-74382380D01*
X130555904Y-74382380D01*
X130794000Y-74382380D02*
X131365428Y-74382380D01*
X131079714Y-75382380D02*
X131079714Y-74382380D01*
X128167047Y-70302380D02*
X128167047Y-69302380D01*
X128405142Y-69302380D01*
X128548000Y-69350000D01*
X128643238Y-69445238D01*
X128690857Y-69540476D01*
X128738476Y-69730952D01*
X128738476Y-69873809D01*
X128690857Y-70064285D01*
X128643238Y-70159523D01*
X128548000Y-70254761D01*
X128405142Y-70302380D01*
X128167047Y-70302380D01*
X129357523Y-69302380D02*
X129548000Y-69302380D01*
X129643238Y-69350000D01*
X129738476Y-69445238D01*
X129786095Y-69635714D01*
X129786095Y-69969047D01*
X129738476Y-70159523D01*
X129643238Y-70254761D01*
X129548000Y-70302380D01*
X129357523Y-70302380D01*
X129262285Y-70254761D01*
X129167047Y-70159523D01*
X129119428Y-69969047D01*
X129119428Y-69635714D01*
X129167047Y-69445238D01*
X129262285Y-69350000D01*
X129357523Y-69302380D01*
X130119428Y-69302380D02*
X130357523Y-70302380D01*
X130548000Y-69588095D01*
X130738476Y-70302380D01*
X130976571Y-69302380D01*
X131357523Y-70302380D02*
X131357523Y-69302380D01*
X131928952Y-70302380D01*
X131928952Y-69302380D01*
X128246285Y-64222380D02*
X128246285Y-65031904D01*
X128293904Y-65127142D01*
X128341523Y-65174761D01*
X128436761Y-65222380D01*
X128627238Y-65222380D01*
X128722476Y-65174761D01*
X128770095Y-65127142D01*
X128817714Y-65031904D01*
X128817714Y-64222380D01*
X129293904Y-65222380D02*
X129293904Y-64222380D01*
X129674857Y-64222380D01*
X129770095Y-64270000D01*
X129817714Y-64317619D01*
X129865333Y-64412857D01*
X129865333Y-64555714D01*
X129817714Y-64650952D01*
X129770095Y-64698571D01*
X129674857Y-64746190D01*
X129293904Y-64746190D01*
D12*
X136707619Y-83042666D02*
X137707619Y-83042666D01*
X137707619Y-83423619D01*
X137660000Y-83518857D01*
X137612380Y-83566476D01*
X137517142Y-83614095D01*
X137374285Y-83614095D01*
X137279047Y-83566476D01*
X137231428Y-83518857D01*
X137183809Y-83423619D01*
X137183809Y-83042666D01*
X136707619Y-84518857D02*
X136707619Y-84042666D01*
X137707619Y-84042666D01*
X136993333Y-84804571D02*
X136993333Y-85280761D01*
X136707619Y-84709333D02*
X137707619Y-85042666D01*
X136707619Y-85376000D01*
X137183809Y-85899809D02*
X136707619Y-85899809D01*
X137707619Y-85566476D02*
X137183809Y-85899809D01*
X137707619Y-86233142D01*
X137231428Y-86566476D02*
X137231428Y-86899809D01*
X136707619Y-87042666D02*
X136707619Y-86566476D01*
X137707619Y-86566476D01*
X137707619Y-87042666D01*
X136707619Y-88042666D02*
X137183809Y-87709333D01*
X136707619Y-87471238D02*
X137707619Y-87471238D01*
X137707619Y-87852190D01*
X137660000Y-87947428D01*
X137612380Y-87995047D01*
X137517142Y-88042666D01*
X137374285Y-88042666D01*
X137279047Y-87995047D01*
X137231428Y-87947428D01*
X137183809Y-87852190D01*
X137183809Y-87471238D01*
X137707619Y-89090285D02*
X137707619Y-89661714D01*
X136707619Y-89376000D02*
X137707619Y-89376000D01*
X137707619Y-89899809D02*
X136707619Y-90137904D01*
X137421904Y-90328380D01*
X136707619Y-90518857D01*
X137707619Y-90756952D01*
X137707619Y-91328380D02*
X137707619Y-91518857D01*
X137660000Y-91614095D01*
X137564761Y-91709333D01*
X137374285Y-91756952D01*
X137040952Y-91756952D01*
X136850476Y-91709333D01*
X136755238Y-91614095D01*
X136707619Y-91518857D01*
X136707619Y-91328380D01*
X136755238Y-91233142D01*
X136850476Y-91137904D01*
X137040952Y-91090285D01*
X137374285Y-91090285D01*
X137564761Y-91137904D01*
X137660000Y-91233142D01*
X137707619Y-91328380D01*
D14*
X176122000Y-116666000D02*
G75*
G03X176122000Y-116666000I-100000J0D01*
G01*
D15*
X118522000Y-117666000D02*
X178522000Y-117666000D01*
X178522000Y-126666000D02*
X118522000Y-126666000D01*
X118522000Y-126666000D02*
X118522000Y-117666000D01*
X178522000Y-117666000D02*
X178522000Y-126666000D01*
D14*
X237336000Y-116666000D02*
G75*
G03X237336000Y-116666000I-100000J0D01*
G01*
D15*
X179736000Y-117666000D02*
X239736000Y-117666000D01*
X239736000Y-126666000D02*
X179736000Y-126666000D01*
X179736000Y-126666000D02*
X179736000Y-117666000D01*
X239736000Y-117666000D02*
X239736000Y-126666000D01*
D14*
X241066000Y-109982000D02*
G75*
G03X241066000Y-109982000I-100000J0D01*
G01*
D15*
X239966000Y-62482000D02*
X239966000Y-112482000D01*
X230966000Y-112482000D02*
X230966000Y-62482000D01*
X230966000Y-62482000D02*
X239966000Y-62482000D01*
X239966000Y-112482000D02*
X230966000Y-112482000D01*
D14*
X117528000Y-64770000D02*
G75*
G03X117528000Y-64770000I-100000J0D01*
G01*
D15*
X118428000Y-112270000D02*
X118428000Y-62270000D01*
X127428000Y-62270000D02*
X127428000Y-112270000D01*
X127428000Y-112270000D02*
X118428000Y-112270000D01*
X118428000Y-62270000D02*
X127428000Y-62270000D01*
M02*
