G04 #@! TF.GenerationSoftware,KiCad,Pcbnew,(5.1.2-1)-1*
G04 #@! TF.CreationDate,2020-07-14T21:15:20-04:00*
G04 #@! TF.ProjectId,ArcadePanel,41726361-6465-4506-916e-656c2e6b6963,v2.0*
G04 #@! TF.SameCoordinates,Original*
G04 #@! TF.FileFunction,Legend,Bot*
G04 #@! TF.FilePolarity,Positive*
%FSLAX46Y46*%
G04 Gerber Fmt 4.6, Leading zero omitted, Abs format (unit mm)*
G04 Created by KiCad (PCBNEW (5.1.2-1)-1) date 2020-07-14 21:15:20*
%MOMM*%
%LPD*%
G04 APERTURE LIST*
%ADD10C,0.150000*%
G04 APERTURE END LIST*
D10*
X91532857Y-117657571D02*
X91390000Y-117705190D01*
X91342380Y-117752809D01*
X91294761Y-117848047D01*
X91294761Y-117990904D01*
X91342380Y-118086142D01*
X91390000Y-118133761D01*
X91485238Y-118181380D01*
X91866190Y-118181380D01*
X91866190Y-117181380D01*
X91532857Y-117181380D01*
X91437619Y-117229000D01*
X91390000Y-117276619D01*
X91342380Y-117371857D01*
X91342380Y-117467095D01*
X91390000Y-117562333D01*
X91437619Y-117609952D01*
X91532857Y-117657571D01*
X91866190Y-117657571D01*
X90913809Y-117895666D02*
X90437619Y-117895666D01*
X91009047Y-118181380D02*
X90675714Y-117181380D01*
X90342380Y-118181380D01*
X90151904Y-117181380D02*
X89580476Y-117181380D01*
X89866190Y-118181380D02*
X89866190Y-117181380D01*
X89247142Y-117657571D02*
X88913809Y-117657571D01*
X88770952Y-118181380D02*
X89247142Y-118181380D01*
X89247142Y-117181380D01*
X88770952Y-117181380D01*
X88342380Y-118181380D02*
X88342380Y-117181380D01*
X88009047Y-117895666D01*
X87675714Y-117181380D01*
X87675714Y-118181380D01*
X87247142Y-117895666D02*
X86770952Y-117895666D01*
X87342380Y-118181380D02*
X87009047Y-117181380D01*
X86675714Y-118181380D01*
X86342380Y-118181380D02*
X86342380Y-117181380D01*
X85770952Y-118181380D01*
X85770952Y-117181380D01*
X84532857Y-117800428D02*
X83770952Y-117800428D01*
X82580476Y-117895666D02*
X82104285Y-117895666D01*
X82675714Y-118181380D02*
X82342380Y-117181380D01*
X82009047Y-118181380D01*
X81104285Y-118181380D02*
X81437619Y-117705190D01*
X81675714Y-118181380D02*
X81675714Y-117181380D01*
X81294761Y-117181380D01*
X81199523Y-117229000D01*
X81151904Y-117276619D01*
X81104285Y-117371857D01*
X81104285Y-117514714D01*
X81151904Y-117609952D01*
X81199523Y-117657571D01*
X81294761Y-117705190D01*
X81675714Y-117705190D01*
X80104285Y-118086142D02*
X80151904Y-118133761D01*
X80294761Y-118181380D01*
X80390000Y-118181380D01*
X80532857Y-118133761D01*
X80628095Y-118038523D01*
X80675714Y-117943285D01*
X80723333Y-117752809D01*
X80723333Y-117609952D01*
X80675714Y-117419476D01*
X80628095Y-117324238D01*
X80532857Y-117229000D01*
X80390000Y-117181380D01*
X80294761Y-117181380D01*
X80151904Y-117229000D01*
X80104285Y-117276619D01*
X79723333Y-117895666D02*
X79247142Y-117895666D01*
X79818571Y-118181380D02*
X79485238Y-117181380D01*
X79151904Y-118181380D01*
X78818571Y-118181380D02*
X78818571Y-117181380D01*
X78580476Y-117181380D01*
X78437619Y-117229000D01*
X78342380Y-117324238D01*
X78294761Y-117419476D01*
X78247142Y-117609952D01*
X78247142Y-117752809D01*
X78294761Y-117943285D01*
X78342380Y-118038523D01*
X78437619Y-118133761D01*
X78580476Y-118181380D01*
X78818571Y-118181380D01*
X77818571Y-117657571D02*
X77485238Y-117657571D01*
X77342380Y-118181380D02*
X77818571Y-118181380D01*
X77818571Y-117181380D01*
X77342380Y-117181380D01*
X75580476Y-118086142D02*
X75628095Y-118133761D01*
X75770952Y-118181380D01*
X75866190Y-118181380D01*
X76009047Y-118133761D01*
X76104285Y-118038523D01*
X76151904Y-117943285D01*
X76199523Y-117752809D01*
X76199523Y-117609952D01*
X76151904Y-117419476D01*
X76104285Y-117324238D01*
X76009047Y-117229000D01*
X75866190Y-117181380D01*
X75770952Y-117181380D01*
X75628095Y-117229000D01*
X75580476Y-117276619D01*
X74961428Y-117181380D02*
X74770952Y-117181380D01*
X74675714Y-117229000D01*
X74580476Y-117324238D01*
X74532857Y-117514714D01*
X74532857Y-117848047D01*
X74580476Y-118038523D01*
X74675714Y-118133761D01*
X74770952Y-118181380D01*
X74961428Y-118181380D01*
X75056666Y-118133761D01*
X75151904Y-118038523D01*
X75199523Y-117848047D01*
X75199523Y-117514714D01*
X75151904Y-117324238D01*
X75056666Y-117229000D01*
X74961428Y-117181380D01*
X74104285Y-118181380D02*
X74104285Y-117181380D01*
X73532857Y-118181380D01*
X73532857Y-117181380D01*
X73199523Y-117181380D02*
X72628095Y-117181380D01*
X72913809Y-118181380D02*
X72913809Y-117181380D01*
X71723333Y-118181380D02*
X72056666Y-117705190D01*
X72294761Y-118181380D02*
X72294761Y-117181380D01*
X71913809Y-117181380D01*
X71818571Y-117229000D01*
X71770952Y-117276619D01*
X71723333Y-117371857D01*
X71723333Y-117514714D01*
X71770952Y-117609952D01*
X71818571Y-117657571D01*
X71913809Y-117705190D01*
X72294761Y-117705190D01*
X71104285Y-117181380D02*
X70913809Y-117181380D01*
X70818571Y-117229000D01*
X70723333Y-117324238D01*
X70675714Y-117514714D01*
X70675714Y-117848047D01*
X70723333Y-118038523D01*
X70818571Y-118133761D01*
X70913809Y-118181380D01*
X71104285Y-118181380D01*
X71199523Y-118133761D01*
X71294761Y-118038523D01*
X71342380Y-117848047D01*
X71342380Y-117514714D01*
X71294761Y-117324238D01*
X71199523Y-117229000D01*
X71104285Y-117181380D01*
X69770952Y-118181380D02*
X70247142Y-118181380D01*
X70247142Y-117181380D01*
X68675714Y-118181380D02*
X68675714Y-117181380D01*
X68294761Y-117181380D01*
X68199523Y-117229000D01*
X68151904Y-117276619D01*
X68104285Y-117371857D01*
X68104285Y-117514714D01*
X68151904Y-117609952D01*
X68199523Y-117657571D01*
X68294761Y-117705190D01*
X68675714Y-117705190D01*
X67723333Y-117895666D02*
X67247142Y-117895666D01*
X67818571Y-118181380D02*
X67485238Y-117181380D01*
X67151904Y-118181380D01*
X66818571Y-118181380D02*
X66818571Y-117181380D01*
X66247142Y-118181380D01*
X66247142Y-117181380D01*
X65770952Y-117657571D02*
X65437619Y-117657571D01*
X65294761Y-118181380D02*
X65770952Y-118181380D01*
X65770952Y-117181380D01*
X65294761Y-117181380D01*
X64390000Y-118181380D02*
X64866190Y-118181380D01*
X64866190Y-117181380D01*
X63390000Y-117514714D02*
X63151904Y-118181380D01*
X62913809Y-117514714D01*
X62580476Y-117276619D02*
X62532857Y-117229000D01*
X62437619Y-117181380D01*
X62199523Y-117181380D01*
X62104285Y-117229000D01*
X62056666Y-117276619D01*
X62009047Y-117371857D01*
X62009047Y-117467095D01*
X62056666Y-117609952D01*
X62628095Y-118181380D01*
X62009047Y-118181380D01*
X61580476Y-118086142D02*
X61532857Y-118133761D01*
X61580476Y-118181380D01*
X61628095Y-118133761D01*
X61580476Y-118086142D01*
X61580476Y-118181380D01*
X60913809Y-117181380D02*
X60818571Y-117181380D01*
X60723333Y-117229000D01*
X60675714Y-117276619D01*
X60628095Y-117371857D01*
X60580476Y-117562333D01*
X60580476Y-117800428D01*
X60628095Y-117990904D01*
X60675714Y-118086142D01*
X60723333Y-118133761D01*
X60818571Y-118181380D01*
X60913809Y-118181380D01*
X61009047Y-118133761D01*
X61056666Y-118086142D01*
X61104285Y-117990904D01*
X61151904Y-117800428D01*
X61151904Y-117562333D01*
X61104285Y-117371857D01*
X61056666Y-117276619D01*
X61009047Y-117229000D01*
X60913809Y-117181380D01*
X59437619Y-117276619D02*
X59390000Y-117229000D01*
X59294761Y-117181380D01*
X59056666Y-117181380D01*
X58961428Y-117229000D01*
X58913809Y-117276619D01*
X58866190Y-117371857D01*
X58866190Y-117467095D01*
X58913809Y-117609952D01*
X59485238Y-118181380D01*
X58866190Y-118181380D01*
X58247142Y-117181380D02*
X58151904Y-117181380D01*
X58056666Y-117229000D01*
X58009047Y-117276619D01*
X57961428Y-117371857D01*
X57913809Y-117562333D01*
X57913809Y-117800428D01*
X57961428Y-117990904D01*
X58009047Y-118086142D01*
X58056666Y-118133761D01*
X58151904Y-118181380D01*
X58247142Y-118181380D01*
X58342380Y-118133761D01*
X58390000Y-118086142D01*
X58437619Y-117990904D01*
X58485238Y-117800428D01*
X58485238Y-117562333D01*
X58437619Y-117371857D01*
X58390000Y-117276619D01*
X58342380Y-117229000D01*
X58247142Y-117181380D01*
X57532857Y-117276619D02*
X57485238Y-117229000D01*
X57390000Y-117181380D01*
X57151904Y-117181380D01*
X57056666Y-117229000D01*
X57009047Y-117276619D01*
X56961428Y-117371857D01*
X56961428Y-117467095D01*
X57009047Y-117609952D01*
X57580476Y-118181380D01*
X56961428Y-118181380D01*
X56342380Y-117181380D02*
X56247142Y-117181380D01*
X56151904Y-117229000D01*
X56104285Y-117276619D01*
X56056666Y-117371857D01*
X56009047Y-117562333D01*
X56009047Y-117800428D01*
X56056666Y-117990904D01*
X56104285Y-118086142D01*
X56151904Y-118133761D01*
X56247142Y-118181380D01*
X56342380Y-118181380D01*
X56437619Y-118133761D01*
X56485238Y-118086142D01*
X56532857Y-117990904D01*
X56580476Y-117800428D01*
X56580476Y-117562333D01*
X56532857Y-117371857D01*
X56485238Y-117276619D01*
X56437619Y-117229000D01*
X56342380Y-117181380D01*
X55580476Y-117800428D02*
X54818571Y-117800428D01*
X54151904Y-117181380D02*
X54056666Y-117181380D01*
X53961428Y-117229000D01*
X53913809Y-117276619D01*
X53866190Y-117371857D01*
X53818571Y-117562333D01*
X53818571Y-117800428D01*
X53866190Y-117990904D01*
X53913809Y-118086142D01*
X53961428Y-118133761D01*
X54056666Y-118181380D01*
X54151904Y-118181380D01*
X54247142Y-118133761D01*
X54294761Y-118086142D01*
X54342380Y-117990904D01*
X54390000Y-117800428D01*
X54390000Y-117562333D01*
X54342380Y-117371857D01*
X54294761Y-117276619D01*
X54247142Y-117229000D01*
X54151904Y-117181380D01*
X53485238Y-117181380D02*
X52818571Y-117181380D01*
X53247142Y-118181380D01*
M02*
