M48
; DRILL file {KiCad (5.1.2-1)-1} date Tuesday, July 14, 2020 at 09:15:24 PM
; FORMAT={-:-/ absolute / inch / decimal}
; #@! TF.CreationDate,2020-07-14T21:15:24-04:00
; #@! TF.GenerationSoftware,Kicad,Pcbnew,(5.1.2-1)-1
FMAT,2
INCH
T1C0.0157
T2C0.0276
T3C0.0360
T4C0.0394
T5C0.0400
T6C0.0512
T7C0.0910
T8C0.1260
%
G90
G05
T1
X2.24Y-3.96
X2.505Y-4.02
X5.61Y-3.975
X5.655Y-3.94
X5.905Y-3.6
X5.91Y-3.5
X5.91Y-3.545
X5.92Y-3.44
X5.995Y-4.06
X6.75Y-3.335
X6.755Y-4.285
X7.53Y-4.035
X8.615Y-3.61
X8.66Y-3.76
T2
X3.605Y-3.33
X3.605Y-3.63
X3.729Y-3.33
X3.729Y-3.63
X3.48Y-3.33
X3.48Y-3.63
X3.853Y-3.33
X3.853Y-3.63
T3
X8.935Y-3.4394
X8.935Y-3.5378
X8.935Y-3.6166
X8.935Y-3.715
X9.0417Y-3.4394
X9.0417Y-3.5378
X9.0417Y-3.6166
X9.0417Y-3.715
T4
X2.02Y-3.325
X2.02Y-3.625
X2.12Y-3.325
X2.12Y-3.625
X2.22Y-3.325
X2.22Y-3.625
X2.32Y-3.325
X2.32Y-3.625
T5
X4.555Y-3.72
X4.555Y-3.82
X4.655Y-3.72
X4.655Y-3.82
X4.755Y-3.72
X4.755Y-3.82
X4.855Y-3.72
X4.855Y-3.82
X4.955Y-3.72
X4.955Y-3.82
X5.055Y-3.72
X5.055Y-3.82
X5.155Y-3.72
X5.155Y-3.82
X5.255Y-3.72
X5.255Y-3.82
X5.355Y-3.72
X5.355Y-3.82
X5.455Y-3.72
X5.455Y-3.82
X5.555Y-3.72
X5.555Y-3.82
X5.655Y-3.72
X5.655Y-3.82
X5.755Y-3.72
X5.755Y-3.82
X5.855Y-3.72
X5.855Y-3.82
X5.955Y-3.72
X5.955Y-3.82
X6.055Y-3.72
X6.055Y-3.82
X6.155Y-3.72
X6.155Y-3.82
X6.255Y-3.72
X6.255Y-3.82
X6.355Y-3.72
X6.355Y-3.82
X6.455Y-3.72
X6.455Y-3.82
X6.555Y-3.72
X6.555Y-3.82
X6.655Y-3.72
X6.655Y-3.82
X6.755Y-3.72
X6.755Y-3.82
X6.855Y-3.72
X6.855Y-3.82
X6.955Y-3.72
X6.955Y-3.82
T6
X5.685Y-4.41
X5.8819Y-4.41
X6.0787Y-4.41
X6.2756Y-4.41
X6.4724Y-4.41
X6.6693Y-4.41
X6.8661Y-4.41
X7.063Y-4.41
X7.2598Y-4.41
X7.4567Y-4.41
X2.075Y-4.41
X2.2719Y-4.41
X2.4687Y-4.41
X2.6656Y-4.41
X2.8624Y-4.41
X3.0593Y-4.41
X3.2561Y-4.41
X3.453Y-4.41
X3.6498Y-4.41
X3.8467Y-4.41
X7.685Y-4.41
X7.8819Y-4.41
X8.0787Y-4.41
X8.2756Y-4.41
X8.4724Y-4.41
X8.6693Y-4.41
X8.8661Y-4.41
X9.063Y-4.41
X9.2598Y-4.41
X9.4567Y-4.41
X4.075Y-4.41
X4.2719Y-4.41
X4.4687Y-4.41
X4.6656Y-4.41
X4.8624Y-4.41
X5.0593Y-4.41
X5.2561Y-4.41
X5.453Y-4.41
T7
X8.9212Y-3.3185
X8.9212Y-3.8359
X9.1448Y-3.3185
X9.1448Y-3.8359
T8
X2.865Y-4.06
X8.575Y-3.36
X5.685Y-3.36
X8.575Y-4.06
X2.865Y-3.365
T0
M30
