G04 #@! TF.GenerationSoftware,KiCad,Pcbnew,(5.1.2-1)-1*
G04 #@! TF.CreationDate,2020-06-13T21:23:10-04:00*
G04 #@! TF.ProjectId,ArcadePanel,41726361-6465-4506-916e-656c2e6b6963,rev?*
G04 #@! TF.SameCoordinates,Original*
G04 #@! TF.FileFunction,Legend,Bot*
G04 #@! TF.FilePolarity,Positive*
%FSLAX46Y46*%
G04 Gerber Fmt 4.6, Leading zero omitted, Abs format (unit mm)*
G04 Created by KiCad (PCBNEW (5.1.2-1)-1) date 2020-06-13 21:23:10*
%MOMM*%
%LPD*%
G04 APERTURE LIST*
%ADD10C,0.150000*%
G04 APERTURE END LIST*
D10*
X186070000Y-62317380D02*
X186070000Y-63031666D01*
X186117619Y-63174523D01*
X186212857Y-63269761D01*
X186355714Y-63317380D01*
X186450952Y-63317380D01*
X185165238Y-62650714D02*
X185165238Y-63317380D01*
X185593809Y-62650714D02*
X185593809Y-63174523D01*
X185546190Y-63269761D01*
X185450952Y-63317380D01*
X185308095Y-63317380D01*
X185212857Y-63269761D01*
X185165238Y-63222142D01*
X184736666Y-63269761D02*
X184641428Y-63317380D01*
X184450952Y-63317380D01*
X184355714Y-63269761D01*
X184308095Y-63174523D01*
X184308095Y-63126904D01*
X184355714Y-63031666D01*
X184450952Y-62984047D01*
X184593809Y-62984047D01*
X184689047Y-62936428D01*
X184736666Y-62841190D01*
X184736666Y-62793571D01*
X184689047Y-62698333D01*
X184593809Y-62650714D01*
X184450952Y-62650714D01*
X184355714Y-62698333D01*
X184022380Y-62650714D02*
X183641428Y-62650714D01*
X183879523Y-62317380D02*
X183879523Y-63174523D01*
X183831904Y-63269761D01*
X183736666Y-63317380D01*
X183641428Y-63317380D01*
X182546190Y-62650714D02*
X182546190Y-63650714D01*
X182546190Y-62698333D02*
X182450952Y-62650714D01*
X182260476Y-62650714D01*
X182165238Y-62698333D01*
X182117619Y-62745952D01*
X182070000Y-62841190D01*
X182070000Y-63126904D01*
X182117619Y-63222142D01*
X182165238Y-63269761D01*
X182260476Y-63317380D01*
X182450952Y-63317380D01*
X182546190Y-63269761D01*
X181498571Y-63317380D02*
X181593809Y-63269761D01*
X181641428Y-63222142D01*
X181689047Y-63126904D01*
X181689047Y-62841190D01*
X181641428Y-62745952D01*
X181593809Y-62698333D01*
X181498571Y-62650714D01*
X181355714Y-62650714D01*
X181260476Y-62698333D01*
X181212857Y-62745952D01*
X181165238Y-62841190D01*
X181165238Y-63126904D01*
X181212857Y-63222142D01*
X181260476Y-63269761D01*
X181355714Y-63317380D01*
X181498571Y-63317380D01*
X180736666Y-62650714D02*
X180736666Y-63650714D01*
X180736666Y-62698333D02*
X180641428Y-62650714D01*
X180450952Y-62650714D01*
X180355714Y-62698333D01*
X180308095Y-62745952D01*
X180260476Y-62841190D01*
X180260476Y-63126904D01*
X180308095Y-63222142D01*
X180355714Y-63269761D01*
X180450952Y-63317380D01*
X180641428Y-63317380D01*
X180736666Y-63269761D01*
X179070000Y-63317380D02*
X179070000Y-62650714D01*
X179070000Y-62317380D02*
X179117619Y-62365000D01*
X179070000Y-62412619D01*
X179022380Y-62365000D01*
X179070000Y-62317380D01*
X179070000Y-62412619D01*
X178736666Y-62650714D02*
X178355714Y-62650714D01*
X178593809Y-62317380D02*
X178593809Y-63174523D01*
X178546190Y-63269761D01*
X178450952Y-63317380D01*
X178355714Y-63317380D01*
X177260476Y-63317380D02*
X177260476Y-62650714D01*
X177260476Y-62317380D02*
X177308095Y-62365000D01*
X177260476Y-62412619D01*
X177212857Y-62365000D01*
X177260476Y-62317380D01*
X177260476Y-62412619D01*
X176784285Y-62650714D02*
X176784285Y-63317380D01*
X176784285Y-62745952D02*
X176736666Y-62698333D01*
X176641428Y-62650714D01*
X176498571Y-62650714D01*
X176403333Y-62698333D01*
X176355714Y-62793571D01*
X176355714Y-63317380D01*
X175260476Y-62650714D02*
X174879523Y-62650714D01*
X175117619Y-62317380D02*
X175117619Y-63174523D01*
X175070000Y-63269761D01*
X174974761Y-63317380D01*
X174879523Y-63317380D01*
X174546190Y-63317380D02*
X174546190Y-62317380D01*
X174117619Y-63317380D02*
X174117619Y-62793571D01*
X174165238Y-62698333D01*
X174260476Y-62650714D01*
X174403333Y-62650714D01*
X174498571Y-62698333D01*
X174546190Y-62745952D01*
X173260476Y-63269761D02*
X173355714Y-63317380D01*
X173546190Y-63317380D01*
X173641428Y-63269761D01*
X173689047Y-63174523D01*
X173689047Y-62793571D01*
X173641428Y-62698333D01*
X173546190Y-62650714D01*
X173355714Y-62650714D01*
X173260476Y-62698333D01*
X173212857Y-62793571D01*
X173212857Y-62888809D01*
X173689047Y-62984047D01*
X172784285Y-63317380D02*
X172784285Y-62650714D01*
X172784285Y-62841190D02*
X172736666Y-62745952D01*
X172689047Y-62698333D01*
X172593809Y-62650714D01*
X172498571Y-62650714D01*
X171784285Y-63269761D02*
X171879523Y-63317380D01*
X172070000Y-63317380D01*
X172165238Y-63269761D01*
X172212857Y-63174523D01*
X172212857Y-62793571D01*
X172165238Y-62698333D01*
X172070000Y-62650714D01*
X171879523Y-62650714D01*
X171784285Y-62698333D01*
X171736666Y-62793571D01*
X171736666Y-62888809D01*
X172212857Y-62984047D01*
X198339857Y-125785571D02*
X198197000Y-125833190D01*
X198149380Y-125880809D01*
X198101761Y-125976047D01*
X198101761Y-126118904D01*
X198149380Y-126214142D01*
X198197000Y-126261761D01*
X198292238Y-126309380D01*
X198673190Y-126309380D01*
X198673190Y-125309380D01*
X198339857Y-125309380D01*
X198244619Y-125357000D01*
X198197000Y-125404619D01*
X198149380Y-125499857D01*
X198149380Y-125595095D01*
X198197000Y-125690333D01*
X198244619Y-125737952D01*
X198339857Y-125785571D01*
X198673190Y-125785571D01*
X197720809Y-126023666D02*
X197244619Y-126023666D01*
X197816047Y-126309380D02*
X197482714Y-125309380D01*
X197149380Y-126309380D01*
X196958904Y-125309380D02*
X196387476Y-125309380D01*
X196673190Y-126309380D02*
X196673190Y-125309380D01*
X196054142Y-125785571D02*
X195720809Y-125785571D01*
X195577952Y-126309380D02*
X196054142Y-126309380D01*
X196054142Y-125309380D01*
X195577952Y-125309380D01*
X195149380Y-126309380D02*
X195149380Y-125309380D01*
X194816047Y-126023666D01*
X194482714Y-125309380D01*
X194482714Y-126309380D01*
X194054142Y-126023666D02*
X193577952Y-126023666D01*
X194149380Y-126309380D02*
X193816047Y-125309380D01*
X193482714Y-126309380D01*
X193149380Y-126309380D02*
X193149380Y-125309380D01*
X192577952Y-126309380D01*
X192577952Y-125309380D01*
X191339857Y-125928428D02*
X190577952Y-125928428D01*
X189387476Y-126023666D02*
X188911285Y-126023666D01*
X189482714Y-126309380D02*
X189149380Y-125309380D01*
X188816047Y-126309380D01*
X187911285Y-126309380D02*
X188244619Y-125833190D01*
X188482714Y-126309380D02*
X188482714Y-125309380D01*
X188101761Y-125309380D01*
X188006523Y-125357000D01*
X187958904Y-125404619D01*
X187911285Y-125499857D01*
X187911285Y-125642714D01*
X187958904Y-125737952D01*
X188006523Y-125785571D01*
X188101761Y-125833190D01*
X188482714Y-125833190D01*
X186911285Y-126214142D02*
X186958904Y-126261761D01*
X187101761Y-126309380D01*
X187197000Y-126309380D01*
X187339857Y-126261761D01*
X187435095Y-126166523D01*
X187482714Y-126071285D01*
X187530333Y-125880809D01*
X187530333Y-125737952D01*
X187482714Y-125547476D01*
X187435095Y-125452238D01*
X187339857Y-125357000D01*
X187197000Y-125309380D01*
X187101761Y-125309380D01*
X186958904Y-125357000D01*
X186911285Y-125404619D01*
X186530333Y-126023666D02*
X186054142Y-126023666D01*
X186625571Y-126309380D02*
X186292238Y-125309380D01*
X185958904Y-126309380D01*
X185625571Y-126309380D02*
X185625571Y-125309380D01*
X185387476Y-125309380D01*
X185244619Y-125357000D01*
X185149380Y-125452238D01*
X185101761Y-125547476D01*
X185054142Y-125737952D01*
X185054142Y-125880809D01*
X185101761Y-126071285D01*
X185149380Y-126166523D01*
X185244619Y-126261761D01*
X185387476Y-126309380D01*
X185625571Y-126309380D01*
X184625571Y-125785571D02*
X184292238Y-125785571D01*
X184149380Y-126309380D02*
X184625571Y-126309380D01*
X184625571Y-125309380D01*
X184149380Y-125309380D01*
X182387476Y-126214142D02*
X182435095Y-126261761D01*
X182577952Y-126309380D01*
X182673190Y-126309380D01*
X182816047Y-126261761D01*
X182911285Y-126166523D01*
X182958904Y-126071285D01*
X183006523Y-125880809D01*
X183006523Y-125737952D01*
X182958904Y-125547476D01*
X182911285Y-125452238D01*
X182816047Y-125357000D01*
X182673190Y-125309380D01*
X182577952Y-125309380D01*
X182435095Y-125357000D01*
X182387476Y-125404619D01*
X181768428Y-125309380D02*
X181577952Y-125309380D01*
X181482714Y-125357000D01*
X181387476Y-125452238D01*
X181339857Y-125642714D01*
X181339857Y-125976047D01*
X181387476Y-126166523D01*
X181482714Y-126261761D01*
X181577952Y-126309380D01*
X181768428Y-126309380D01*
X181863666Y-126261761D01*
X181958904Y-126166523D01*
X182006523Y-125976047D01*
X182006523Y-125642714D01*
X181958904Y-125452238D01*
X181863666Y-125357000D01*
X181768428Y-125309380D01*
X180911285Y-126309380D02*
X180911285Y-125309380D01*
X180339857Y-126309380D01*
X180339857Y-125309380D01*
X180006523Y-125309380D02*
X179435095Y-125309380D01*
X179720809Y-126309380D02*
X179720809Y-125309380D01*
X178530333Y-126309380D02*
X178863666Y-125833190D01*
X179101761Y-126309380D02*
X179101761Y-125309380D01*
X178720809Y-125309380D01*
X178625571Y-125357000D01*
X178577952Y-125404619D01*
X178530333Y-125499857D01*
X178530333Y-125642714D01*
X178577952Y-125737952D01*
X178625571Y-125785571D01*
X178720809Y-125833190D01*
X179101761Y-125833190D01*
X177911285Y-125309380D02*
X177720809Y-125309380D01*
X177625571Y-125357000D01*
X177530333Y-125452238D01*
X177482714Y-125642714D01*
X177482714Y-125976047D01*
X177530333Y-126166523D01*
X177625571Y-126261761D01*
X177720809Y-126309380D01*
X177911285Y-126309380D01*
X178006523Y-126261761D01*
X178101761Y-126166523D01*
X178149380Y-125976047D01*
X178149380Y-125642714D01*
X178101761Y-125452238D01*
X178006523Y-125357000D01*
X177911285Y-125309380D01*
X176577952Y-126309380D02*
X177054142Y-126309380D01*
X177054142Y-125309380D01*
X175482714Y-126309380D02*
X175482714Y-125309380D01*
X175101761Y-125309380D01*
X175006523Y-125357000D01*
X174958904Y-125404619D01*
X174911285Y-125499857D01*
X174911285Y-125642714D01*
X174958904Y-125737952D01*
X175006523Y-125785571D01*
X175101761Y-125833190D01*
X175482714Y-125833190D01*
X174530333Y-126023666D02*
X174054142Y-126023666D01*
X174625571Y-126309380D02*
X174292238Y-125309380D01*
X173958904Y-126309380D01*
X173625571Y-126309380D02*
X173625571Y-125309380D01*
X173054142Y-126309380D01*
X173054142Y-125309380D01*
X172577952Y-125785571D02*
X172244619Y-125785571D01*
X172101761Y-126309380D02*
X172577952Y-126309380D01*
X172577952Y-125309380D01*
X172101761Y-125309380D01*
X171197000Y-126309380D02*
X171673190Y-126309380D01*
X171673190Y-125309380D01*
X170197000Y-125642714D02*
X169958904Y-126309380D01*
X169720809Y-125642714D01*
X168816047Y-126309380D02*
X169387476Y-126309380D01*
X169101761Y-126309380D02*
X169101761Y-125309380D01*
X169197000Y-125452238D01*
X169292238Y-125547476D01*
X169387476Y-125595095D01*
X168387476Y-126214142D02*
X168339857Y-126261761D01*
X168387476Y-126309380D01*
X168435095Y-126261761D01*
X168387476Y-126214142D01*
X168387476Y-126309380D01*
X167720809Y-125309380D02*
X167625571Y-125309380D01*
X167530333Y-125357000D01*
X167482714Y-125404619D01*
X167435095Y-125499857D01*
X167387476Y-125690333D01*
X167387476Y-125928428D01*
X167435095Y-126118904D01*
X167482714Y-126214142D01*
X167530333Y-126261761D01*
X167625571Y-126309380D01*
X167720809Y-126309380D01*
X167816047Y-126261761D01*
X167863666Y-126214142D01*
X167911285Y-126118904D01*
X167958904Y-125928428D01*
X167958904Y-125690333D01*
X167911285Y-125499857D01*
X167863666Y-125404619D01*
X167816047Y-125357000D01*
X167720809Y-125309380D01*
X166244619Y-125404619D02*
X166197000Y-125357000D01*
X166101761Y-125309380D01*
X165863666Y-125309380D01*
X165768428Y-125357000D01*
X165720809Y-125404619D01*
X165673190Y-125499857D01*
X165673190Y-125595095D01*
X165720809Y-125737952D01*
X166292238Y-126309380D01*
X165673190Y-126309380D01*
X165054142Y-125309380D02*
X164958904Y-125309380D01*
X164863666Y-125357000D01*
X164816047Y-125404619D01*
X164768428Y-125499857D01*
X164720809Y-125690333D01*
X164720809Y-125928428D01*
X164768428Y-126118904D01*
X164816047Y-126214142D01*
X164863666Y-126261761D01*
X164958904Y-126309380D01*
X165054142Y-126309380D01*
X165149380Y-126261761D01*
X165197000Y-126214142D01*
X165244619Y-126118904D01*
X165292238Y-125928428D01*
X165292238Y-125690333D01*
X165244619Y-125499857D01*
X165197000Y-125404619D01*
X165149380Y-125357000D01*
X165054142Y-125309380D01*
X164339857Y-125404619D02*
X164292238Y-125357000D01*
X164197000Y-125309380D01*
X163958904Y-125309380D01*
X163863666Y-125357000D01*
X163816047Y-125404619D01*
X163768428Y-125499857D01*
X163768428Y-125595095D01*
X163816047Y-125737952D01*
X164387476Y-126309380D01*
X163768428Y-126309380D01*
X163149380Y-125309380D02*
X163054142Y-125309380D01*
X162958904Y-125357000D01*
X162911285Y-125404619D01*
X162863666Y-125499857D01*
X162816047Y-125690333D01*
X162816047Y-125928428D01*
X162863666Y-126118904D01*
X162911285Y-126214142D01*
X162958904Y-126261761D01*
X163054142Y-126309380D01*
X163149380Y-126309380D01*
X163244619Y-126261761D01*
X163292238Y-126214142D01*
X163339857Y-126118904D01*
X163387476Y-125928428D01*
X163387476Y-125690333D01*
X163339857Y-125499857D01*
X163292238Y-125404619D01*
X163244619Y-125357000D01*
X163149380Y-125309380D01*
X162387476Y-125928428D02*
X161625571Y-125928428D01*
X160958904Y-125309380D02*
X160863666Y-125309380D01*
X160768428Y-125357000D01*
X160720809Y-125404619D01*
X160673190Y-125499857D01*
X160625571Y-125690333D01*
X160625571Y-125928428D01*
X160673190Y-126118904D01*
X160720809Y-126214142D01*
X160768428Y-126261761D01*
X160863666Y-126309380D01*
X160958904Y-126309380D01*
X161054142Y-126261761D01*
X161101761Y-126214142D01*
X161149380Y-126118904D01*
X161197000Y-125928428D01*
X161197000Y-125690333D01*
X161149380Y-125499857D01*
X161101761Y-125404619D01*
X161054142Y-125357000D01*
X160958904Y-125309380D01*
X159768428Y-125309380D02*
X159958904Y-125309380D01*
X160054142Y-125357000D01*
X160101761Y-125404619D01*
X160197000Y-125547476D01*
X160244619Y-125737952D01*
X160244619Y-126118904D01*
X160197000Y-126214142D01*
X160149380Y-126261761D01*
X160054142Y-126309380D01*
X159863666Y-126309380D01*
X159768428Y-126261761D01*
X159720809Y-126214142D01*
X159673190Y-126118904D01*
X159673190Y-125880809D01*
X159720809Y-125785571D01*
X159768428Y-125737952D01*
X159863666Y-125690333D01*
X160054142Y-125690333D01*
X160149380Y-125737952D01*
X160197000Y-125785571D01*
X160244619Y-125880809D01*
M02*
