G04 #@! TF.GenerationSoftware,KiCad,Pcbnew,(5.1.2-1)-1*
G04 #@! TF.CreationDate,2020-06-13T21:23:10-04:00*
G04 #@! TF.ProjectId,ArcadePanel,41726361-6465-4506-916e-656c2e6b6963,rev?*
G04 #@! TF.SameCoordinates,Original*
G04 #@! TF.FileFunction,Copper,L2,Bot*
G04 #@! TF.FilePolarity,Positive*
%FSLAX46Y46*%
G04 Gerber Fmt 4.6, Leading zero omitted, Abs format (unit mm)*
G04 Created by KiCad (PCBNEW (5.1.2-1)-1) date 2020-06-13 21:23:10*
%MOMM*%
%LPD*%
G04 APERTURE LIST*
%ADD10R,1.000000X1.000000*%
%ADD11C,1.950000*%
%ADD12R,1.950000X1.950000*%
%ADD13C,0.800000*%
%ADD14C,0.381000*%
%ADD15C,0.254000*%
G04 APERTURE END LIST*
D10*
X152400000Y-60960000D03*
X154940000Y-60960000D03*
X157480000Y-60960000D03*
X160020000Y-60960000D03*
X162560000Y-60960000D03*
X165100000Y-60960000D03*
X167640000Y-60960000D03*
X170180000Y-60960000D03*
X172720000Y-60960000D03*
X175260000Y-60960000D03*
X177800000Y-60960000D03*
X180340000Y-60960000D03*
X182880000Y-60960000D03*
X185420000Y-60960000D03*
X187960000Y-60960000D03*
X190500000Y-60960000D03*
X193040000Y-60960000D03*
X195580000Y-60960000D03*
X198120000Y-60960000D03*
X200660000Y-60960000D03*
X203200000Y-60960000D03*
X205740000Y-60960000D03*
D11*
X121022000Y-121666000D03*
X126022000Y-121666000D03*
X131022000Y-121666000D03*
X136022000Y-121666000D03*
X141022000Y-121666000D03*
X146022000Y-121666000D03*
X151022000Y-121666000D03*
X156022000Y-121666000D03*
X161022000Y-121666000D03*
X166022000Y-121666000D03*
X171022000Y-121666000D03*
D12*
X176022000Y-121666000D03*
D11*
X182236000Y-121666000D03*
X187236000Y-121666000D03*
X192236000Y-121666000D03*
X197236000Y-121666000D03*
X202236000Y-121666000D03*
X207236000Y-121666000D03*
X212236000Y-121666000D03*
X217236000Y-121666000D03*
X222236000Y-121666000D03*
X227236000Y-121666000D03*
X232236000Y-121666000D03*
D12*
X237236000Y-121666000D03*
D11*
X235966000Y-64982000D03*
X235966000Y-69982000D03*
X235966000Y-74982000D03*
X235966000Y-79982000D03*
X235966000Y-84982000D03*
X235966000Y-89982000D03*
X235966000Y-94982000D03*
X235966000Y-99982000D03*
X235966000Y-104982000D03*
D12*
X235966000Y-109982000D03*
D11*
X122428000Y-109770000D03*
X122428000Y-104770000D03*
X122428000Y-99770000D03*
X122428000Y-94770000D03*
X122428000Y-89770000D03*
X122428000Y-84770000D03*
X122428000Y-79770000D03*
X122428000Y-74770000D03*
X122428000Y-69770000D03*
D12*
X122428000Y-64770000D03*
D13*
X219202000Y-62484000D03*
X225806000Y-64008000D03*
D14*
X182236000Y-61604000D02*
X182880000Y-60960000D01*
X182236000Y-121666000D02*
X182236000Y-61604000D01*
X187236000Y-121666000D02*
X187236000Y-119672000D01*
X185420000Y-117856000D02*
X185420000Y-60960000D01*
X187236000Y-119672000D02*
X185420000Y-117856000D01*
X187960000Y-117390000D02*
X187960000Y-60960000D01*
X192236000Y-121666000D02*
X187960000Y-117390000D01*
X190500000Y-114930000D02*
X190500000Y-60960000D01*
X197236000Y-121666000D02*
X190500000Y-114930000D01*
X193040000Y-112470000D02*
X193040000Y-60960000D01*
X202236000Y-121666000D02*
X193040000Y-112470000D01*
X195580000Y-110010000D02*
X195580000Y-60960000D01*
X207236000Y-121666000D02*
X195580000Y-110010000D01*
X198120000Y-107550000D02*
X198120000Y-60960000D01*
X212236000Y-121666000D02*
X198120000Y-107550000D01*
X200660000Y-105090000D02*
X200660000Y-60960000D01*
X217236000Y-121666000D02*
X200660000Y-105090000D01*
X203200000Y-61841000D02*
X203200000Y-60960000D01*
X203200000Y-104037942D02*
X203200000Y-61841000D01*
X219462557Y-120300499D02*
X203200000Y-104037942D01*
X220870499Y-120300499D02*
X219462557Y-120300499D01*
X222236000Y-121666000D02*
X220870499Y-120300499D01*
X205740000Y-100170000D02*
X205740000Y-60960000D01*
X227236000Y-121666000D02*
X205740000Y-100170000D01*
X219202000Y-108632000D02*
X219202000Y-62484000D01*
X232236000Y-121666000D02*
X219202000Y-108632000D01*
X225806000Y-64573685D02*
X225806000Y-64008000D01*
X225806000Y-108880000D02*
X225806000Y-64573685D01*
X237236000Y-120310000D02*
X225806000Y-108880000D01*
X237236000Y-121666000D02*
X237236000Y-120310000D01*
X152400000Y-90288000D02*
X152400000Y-60960000D01*
X121022000Y-121666000D02*
X152400000Y-90288000D01*
X154940000Y-92748000D02*
X154940000Y-60960000D01*
X126022000Y-121666000D02*
X154940000Y-92748000D01*
X157480000Y-94844058D02*
X157480000Y-60960000D01*
X131996999Y-120327059D02*
X157480000Y-94844058D01*
X131996999Y-120691001D02*
X131996999Y-120327059D01*
X131022000Y-121666000D02*
X131996999Y-120691001D01*
X160020000Y-98195942D02*
X160020000Y-61841000D01*
X160020000Y-61841000D02*
X160020000Y-60960000D01*
X136996999Y-120691001D02*
X137524941Y-120691001D01*
X137524941Y-120691001D02*
X160020000Y-98195942D01*
X136022000Y-121666000D02*
X136996999Y-120691001D01*
X141996999Y-120691001D02*
X141996999Y-120639001D01*
X141022000Y-121666000D02*
X141996999Y-120691001D01*
X162560000Y-100076000D02*
X162560000Y-60960000D01*
X141996999Y-120639001D02*
X162560000Y-100076000D01*
X165100000Y-102588000D02*
X165100000Y-60960000D01*
X146022000Y-121666000D02*
X165100000Y-102588000D01*
X167640000Y-105048000D02*
X167640000Y-60960000D01*
X151022000Y-121666000D02*
X167640000Y-105048000D01*
X156996999Y-120691001D02*
X156996999Y-120625001D01*
X156022000Y-121666000D02*
X156996999Y-120691001D01*
X170180000Y-107442000D02*
X170180000Y-60960000D01*
X156996999Y-120625001D02*
X170180000Y-107442000D01*
X172720000Y-109968000D02*
X172720000Y-60960000D01*
X161022000Y-121666000D02*
X172720000Y-109968000D01*
X175260000Y-112428000D02*
X175260000Y-60960000D01*
X166022000Y-121666000D02*
X175260000Y-112428000D01*
X171022000Y-121666000D02*
X171022000Y-120062000D01*
X177800000Y-113284000D02*
X177800000Y-60960000D01*
X171022000Y-120062000D02*
X177800000Y-113284000D01*
X180340000Y-115992000D02*
X180340000Y-60960000D01*
X176022000Y-120310000D02*
X180340000Y-115992000D01*
X176022000Y-121666000D02*
X176022000Y-120310000D01*
D15*
G36*
X153289000Y-59957781D02*
G01*
X153254494Y-59929463D01*
X153144180Y-59870498D01*
X153024482Y-59834188D01*
X152900000Y-59821928D01*
X152685750Y-59825000D01*
X152527000Y-59983750D01*
X152527000Y-60833000D01*
X152273000Y-60833000D01*
X152273000Y-59983750D01*
X152114250Y-59825000D01*
X151900000Y-59821928D01*
X151775518Y-59834188D01*
X151655820Y-59870498D01*
X151545506Y-59929463D01*
X151511000Y-59957781D01*
X151511000Y-53619000D01*
X153289000Y-53619000D01*
X153289000Y-59957781D01*
X153289000Y-59957781D01*
G37*
X153289000Y-59957781D02*
X153254494Y-59929463D01*
X153144180Y-59870498D01*
X153024482Y-59834188D01*
X152900000Y-59821928D01*
X152685750Y-59825000D01*
X152527000Y-59983750D01*
X152527000Y-60833000D01*
X152273000Y-60833000D01*
X152273000Y-59983750D01*
X152114250Y-59825000D01*
X151900000Y-59821928D01*
X151775518Y-59834188D01*
X151655820Y-59870498D01*
X151545506Y-59929463D01*
X151511000Y-59957781D01*
X151511000Y-53619000D01*
X153289000Y-53619000D01*
X153289000Y-59957781D01*
G36*
X155829000Y-59957781D02*
G01*
X155794494Y-59929463D01*
X155684180Y-59870498D01*
X155564482Y-59834188D01*
X155440000Y-59821928D01*
X155225750Y-59825000D01*
X155067000Y-59983750D01*
X155067000Y-60833000D01*
X155087000Y-60833000D01*
X155087000Y-60834818D01*
X154793000Y-60834818D01*
X154793000Y-60833000D01*
X154813000Y-60833000D01*
X154813000Y-59983750D01*
X154654250Y-59825000D01*
X154440000Y-59821928D01*
X154315518Y-59834188D01*
X154195820Y-59870498D01*
X154085506Y-59929463D01*
X154051000Y-59957781D01*
X154051000Y-53619000D01*
X155829000Y-53619000D01*
X155829000Y-59957781D01*
X155829000Y-59957781D01*
G37*
X155829000Y-59957781D02*
X155794494Y-59929463D01*
X155684180Y-59870498D01*
X155564482Y-59834188D01*
X155440000Y-59821928D01*
X155225750Y-59825000D01*
X155067000Y-59983750D01*
X155067000Y-60833000D01*
X155087000Y-60833000D01*
X155087000Y-60834818D01*
X154793000Y-60834818D01*
X154793000Y-60833000D01*
X154813000Y-60833000D01*
X154813000Y-59983750D01*
X154654250Y-59825000D01*
X154440000Y-59821928D01*
X154315518Y-59834188D01*
X154195820Y-59870498D01*
X154085506Y-59929463D01*
X154051000Y-59957781D01*
X154051000Y-53619000D01*
X155829000Y-53619000D01*
X155829000Y-59957781D01*
G36*
X158369000Y-59957781D02*
G01*
X158334494Y-59929463D01*
X158224180Y-59870498D01*
X158104482Y-59834188D01*
X157980000Y-59821928D01*
X157765750Y-59825000D01*
X157607000Y-59983750D01*
X157607000Y-60833000D01*
X157353000Y-60833000D01*
X157353000Y-59983750D01*
X157194250Y-59825000D01*
X156980000Y-59821928D01*
X156855518Y-59834188D01*
X156735820Y-59870498D01*
X156625506Y-59929463D01*
X156591000Y-59957781D01*
X156591000Y-53619000D01*
X158369000Y-53619000D01*
X158369000Y-59957781D01*
X158369000Y-59957781D01*
G37*
X158369000Y-59957781D02*
X158334494Y-59929463D01*
X158224180Y-59870498D01*
X158104482Y-59834188D01*
X157980000Y-59821928D01*
X157765750Y-59825000D01*
X157607000Y-59983750D01*
X157607000Y-60833000D01*
X157353000Y-60833000D01*
X157353000Y-59983750D01*
X157194250Y-59825000D01*
X156980000Y-59821928D01*
X156855518Y-59834188D01*
X156735820Y-59870498D01*
X156625506Y-59929463D01*
X156591000Y-59957781D01*
X156591000Y-53619000D01*
X158369000Y-53619000D01*
X158369000Y-59957781D01*
G36*
X160909000Y-59957781D02*
G01*
X160874494Y-59929463D01*
X160764180Y-59870498D01*
X160644482Y-59834188D01*
X160520000Y-59821928D01*
X160305750Y-59825000D01*
X160147000Y-59983750D01*
X160147000Y-60833000D01*
X159893000Y-60833000D01*
X159893000Y-59983750D01*
X159734250Y-59825000D01*
X159520000Y-59821928D01*
X159395518Y-59834188D01*
X159275820Y-59870498D01*
X159165506Y-59929463D01*
X159131000Y-59957781D01*
X159131000Y-53619000D01*
X160909000Y-53619000D01*
X160909000Y-59957781D01*
X160909000Y-59957781D01*
G37*
X160909000Y-59957781D02*
X160874494Y-59929463D01*
X160764180Y-59870498D01*
X160644482Y-59834188D01*
X160520000Y-59821928D01*
X160305750Y-59825000D01*
X160147000Y-59983750D01*
X160147000Y-60833000D01*
X159893000Y-60833000D01*
X159893000Y-59983750D01*
X159734250Y-59825000D01*
X159520000Y-59821928D01*
X159395518Y-59834188D01*
X159275820Y-59870498D01*
X159165506Y-59929463D01*
X159131000Y-59957781D01*
X159131000Y-53619000D01*
X160909000Y-53619000D01*
X160909000Y-59957781D01*
G36*
X163449000Y-59957781D02*
G01*
X163414494Y-59929463D01*
X163304180Y-59870498D01*
X163184482Y-59834188D01*
X163060000Y-59821928D01*
X162845750Y-59825000D01*
X162687000Y-59983750D01*
X162687000Y-60833000D01*
X162433000Y-60833000D01*
X162433000Y-59983750D01*
X162274250Y-59825000D01*
X162060000Y-59821928D01*
X161935518Y-59834188D01*
X161815820Y-59870498D01*
X161705506Y-59929463D01*
X161671000Y-59957781D01*
X161671000Y-53619000D01*
X163449000Y-53619000D01*
X163449000Y-59957781D01*
X163449000Y-59957781D01*
G37*
X163449000Y-59957781D02*
X163414494Y-59929463D01*
X163304180Y-59870498D01*
X163184482Y-59834188D01*
X163060000Y-59821928D01*
X162845750Y-59825000D01*
X162687000Y-59983750D01*
X162687000Y-60833000D01*
X162433000Y-60833000D01*
X162433000Y-59983750D01*
X162274250Y-59825000D01*
X162060000Y-59821928D01*
X161935518Y-59834188D01*
X161815820Y-59870498D01*
X161705506Y-59929463D01*
X161671000Y-59957781D01*
X161671000Y-53619000D01*
X163449000Y-53619000D01*
X163449000Y-59957781D01*
G36*
X165989000Y-59957781D02*
G01*
X165954494Y-59929463D01*
X165844180Y-59870498D01*
X165724482Y-59834188D01*
X165600000Y-59821928D01*
X165385750Y-59825000D01*
X165227000Y-59983750D01*
X165227000Y-60833000D01*
X164973000Y-60833000D01*
X164973000Y-59983750D01*
X164814250Y-59825000D01*
X164600000Y-59821928D01*
X164475518Y-59834188D01*
X164355820Y-59870498D01*
X164245506Y-59929463D01*
X164211000Y-59957781D01*
X164211000Y-53619000D01*
X165989000Y-53619000D01*
X165989000Y-59957781D01*
X165989000Y-59957781D01*
G37*
X165989000Y-59957781D02*
X165954494Y-59929463D01*
X165844180Y-59870498D01*
X165724482Y-59834188D01*
X165600000Y-59821928D01*
X165385750Y-59825000D01*
X165227000Y-59983750D01*
X165227000Y-60833000D01*
X164973000Y-60833000D01*
X164973000Y-59983750D01*
X164814250Y-59825000D01*
X164600000Y-59821928D01*
X164475518Y-59834188D01*
X164355820Y-59870498D01*
X164245506Y-59929463D01*
X164211000Y-59957781D01*
X164211000Y-53619000D01*
X165989000Y-53619000D01*
X165989000Y-59957781D01*
G36*
X168529000Y-59957781D02*
G01*
X168494494Y-59929463D01*
X168384180Y-59870498D01*
X168264482Y-59834188D01*
X168140000Y-59821928D01*
X167925750Y-59825000D01*
X167767000Y-59983750D01*
X167767000Y-60833000D01*
X167513000Y-60833000D01*
X167513000Y-59983750D01*
X167354250Y-59825000D01*
X167140000Y-59821928D01*
X167015518Y-59834188D01*
X166895820Y-59870498D01*
X166785506Y-59929463D01*
X166751000Y-59957781D01*
X166751000Y-53619000D01*
X168529000Y-53619000D01*
X168529000Y-59957781D01*
X168529000Y-59957781D01*
G37*
X168529000Y-59957781D02*
X168494494Y-59929463D01*
X168384180Y-59870498D01*
X168264482Y-59834188D01*
X168140000Y-59821928D01*
X167925750Y-59825000D01*
X167767000Y-59983750D01*
X167767000Y-60833000D01*
X167513000Y-60833000D01*
X167513000Y-59983750D01*
X167354250Y-59825000D01*
X167140000Y-59821928D01*
X167015518Y-59834188D01*
X166895820Y-59870498D01*
X166785506Y-59929463D01*
X166751000Y-59957781D01*
X166751000Y-53619000D01*
X168529000Y-53619000D01*
X168529000Y-59957781D01*
G36*
X171069000Y-59957781D02*
G01*
X171034494Y-59929463D01*
X170924180Y-59870498D01*
X170804482Y-59834188D01*
X170680000Y-59821928D01*
X170465750Y-59825000D01*
X170307000Y-59983750D01*
X170307000Y-60833000D01*
X170053000Y-60833000D01*
X170053000Y-59983750D01*
X169894250Y-59825000D01*
X169680000Y-59821928D01*
X169555518Y-59834188D01*
X169435820Y-59870498D01*
X169325506Y-59929463D01*
X169291000Y-59957781D01*
X169291000Y-53619000D01*
X171069000Y-53619000D01*
X171069000Y-59957781D01*
X171069000Y-59957781D01*
G37*
X171069000Y-59957781D02*
X171034494Y-59929463D01*
X170924180Y-59870498D01*
X170804482Y-59834188D01*
X170680000Y-59821928D01*
X170465750Y-59825000D01*
X170307000Y-59983750D01*
X170307000Y-60833000D01*
X170053000Y-60833000D01*
X170053000Y-59983750D01*
X169894250Y-59825000D01*
X169680000Y-59821928D01*
X169555518Y-59834188D01*
X169435820Y-59870498D01*
X169325506Y-59929463D01*
X169291000Y-59957781D01*
X169291000Y-53619000D01*
X171069000Y-53619000D01*
X171069000Y-59957781D01*
G36*
X173609000Y-59957781D02*
G01*
X173574494Y-59929463D01*
X173464180Y-59870498D01*
X173344482Y-59834188D01*
X173220000Y-59821928D01*
X173005750Y-59825000D01*
X172847000Y-59983750D01*
X172847000Y-60833000D01*
X172593000Y-60833000D01*
X172593000Y-59983750D01*
X172434250Y-59825000D01*
X172220000Y-59821928D01*
X172095518Y-59834188D01*
X171975820Y-59870498D01*
X171865506Y-59929463D01*
X171831000Y-59957781D01*
X171831000Y-53619000D01*
X173609000Y-53619000D01*
X173609000Y-59957781D01*
X173609000Y-59957781D01*
G37*
X173609000Y-59957781D02*
X173574494Y-59929463D01*
X173464180Y-59870498D01*
X173344482Y-59834188D01*
X173220000Y-59821928D01*
X173005750Y-59825000D01*
X172847000Y-59983750D01*
X172847000Y-60833000D01*
X172593000Y-60833000D01*
X172593000Y-59983750D01*
X172434250Y-59825000D01*
X172220000Y-59821928D01*
X172095518Y-59834188D01*
X171975820Y-59870498D01*
X171865506Y-59929463D01*
X171831000Y-59957781D01*
X171831000Y-53619000D01*
X173609000Y-53619000D01*
X173609000Y-59957781D01*
G36*
X176149000Y-59957781D02*
G01*
X176114494Y-59929463D01*
X176004180Y-59870498D01*
X175884482Y-59834188D01*
X175760000Y-59821928D01*
X175545750Y-59825000D01*
X175387000Y-59983750D01*
X175387000Y-60833000D01*
X175133000Y-60833000D01*
X175133000Y-59983750D01*
X174974250Y-59825000D01*
X174760000Y-59821928D01*
X174635518Y-59834188D01*
X174515820Y-59870498D01*
X174405506Y-59929463D01*
X174371000Y-59957781D01*
X174371000Y-53619000D01*
X176149000Y-53619000D01*
X176149000Y-59957781D01*
X176149000Y-59957781D01*
G37*
X176149000Y-59957781D02*
X176114494Y-59929463D01*
X176004180Y-59870498D01*
X175884482Y-59834188D01*
X175760000Y-59821928D01*
X175545750Y-59825000D01*
X175387000Y-59983750D01*
X175387000Y-60833000D01*
X175133000Y-60833000D01*
X175133000Y-59983750D01*
X174974250Y-59825000D01*
X174760000Y-59821928D01*
X174635518Y-59834188D01*
X174515820Y-59870498D01*
X174405506Y-59929463D01*
X174371000Y-59957781D01*
X174371000Y-53619000D01*
X176149000Y-53619000D01*
X176149000Y-59957781D01*
G36*
X178689000Y-59957781D02*
G01*
X178654494Y-59929463D01*
X178544180Y-59870498D01*
X178424482Y-59834188D01*
X178300000Y-59821928D01*
X178085750Y-59825000D01*
X177927000Y-59983750D01*
X177927000Y-60833000D01*
X177673000Y-60833000D01*
X177673000Y-59983750D01*
X177514250Y-59825000D01*
X177300000Y-59821928D01*
X177175518Y-59834188D01*
X177055820Y-59870498D01*
X176945506Y-59929463D01*
X176911000Y-59957781D01*
X176911000Y-53619000D01*
X178689000Y-53619000D01*
X178689000Y-59957781D01*
X178689000Y-59957781D01*
G37*
X178689000Y-59957781D02*
X178654494Y-59929463D01*
X178544180Y-59870498D01*
X178424482Y-59834188D01*
X178300000Y-59821928D01*
X178085750Y-59825000D01*
X177927000Y-59983750D01*
X177927000Y-60833000D01*
X177673000Y-60833000D01*
X177673000Y-59983750D01*
X177514250Y-59825000D01*
X177300000Y-59821928D01*
X177175518Y-59834188D01*
X177055820Y-59870498D01*
X176945506Y-59929463D01*
X176911000Y-59957781D01*
X176911000Y-53619000D01*
X178689000Y-53619000D01*
X178689000Y-59957781D01*
G36*
X181229000Y-59957781D02*
G01*
X181194494Y-59929463D01*
X181084180Y-59870498D01*
X180964482Y-59834188D01*
X180840000Y-59821928D01*
X180625750Y-59825000D01*
X180467000Y-59983750D01*
X180467000Y-60833000D01*
X180213000Y-60833000D01*
X180213000Y-59983750D01*
X180054250Y-59825000D01*
X179840000Y-59821928D01*
X179715518Y-59834188D01*
X179595820Y-59870498D01*
X179485506Y-59929463D01*
X179451000Y-59957781D01*
X179451000Y-53619000D01*
X181229000Y-53619000D01*
X181229000Y-59957781D01*
X181229000Y-59957781D01*
G37*
X181229000Y-59957781D02*
X181194494Y-59929463D01*
X181084180Y-59870498D01*
X180964482Y-59834188D01*
X180840000Y-59821928D01*
X180625750Y-59825000D01*
X180467000Y-59983750D01*
X180467000Y-60833000D01*
X180213000Y-60833000D01*
X180213000Y-59983750D01*
X180054250Y-59825000D01*
X179840000Y-59821928D01*
X179715518Y-59834188D01*
X179595820Y-59870498D01*
X179485506Y-59929463D01*
X179451000Y-59957781D01*
X179451000Y-53619000D01*
X181229000Y-53619000D01*
X181229000Y-59957781D01*
G36*
X183769000Y-59957781D02*
G01*
X183734494Y-59929463D01*
X183624180Y-59870498D01*
X183504482Y-59834188D01*
X183380000Y-59821928D01*
X183165750Y-59825000D01*
X183007000Y-59983750D01*
X183007000Y-60833000D01*
X182753000Y-60833000D01*
X182753000Y-59983750D01*
X182594250Y-59825000D01*
X182380000Y-59821928D01*
X182255518Y-59834188D01*
X182135820Y-59870498D01*
X182025506Y-59929463D01*
X181991000Y-59957781D01*
X181991000Y-53619000D01*
X183769000Y-53619000D01*
X183769000Y-59957781D01*
X183769000Y-59957781D01*
G37*
X183769000Y-59957781D02*
X183734494Y-59929463D01*
X183624180Y-59870498D01*
X183504482Y-59834188D01*
X183380000Y-59821928D01*
X183165750Y-59825000D01*
X183007000Y-59983750D01*
X183007000Y-60833000D01*
X182753000Y-60833000D01*
X182753000Y-59983750D01*
X182594250Y-59825000D01*
X182380000Y-59821928D01*
X182255518Y-59834188D01*
X182135820Y-59870498D01*
X182025506Y-59929463D01*
X181991000Y-59957781D01*
X181991000Y-53619000D01*
X183769000Y-53619000D01*
X183769000Y-59957781D01*
G36*
X186309000Y-59957781D02*
G01*
X186274494Y-59929463D01*
X186164180Y-59870498D01*
X186044482Y-59834188D01*
X185920000Y-59821928D01*
X185705750Y-59825000D01*
X185547000Y-59983750D01*
X185547000Y-60833000D01*
X185293000Y-60833000D01*
X185293000Y-59983750D01*
X185134250Y-59825000D01*
X184920000Y-59821928D01*
X184795518Y-59834188D01*
X184675820Y-59870498D01*
X184565506Y-59929463D01*
X184531000Y-59957781D01*
X184531000Y-53619000D01*
X186309000Y-53619000D01*
X186309000Y-59957781D01*
X186309000Y-59957781D01*
G37*
X186309000Y-59957781D02*
X186274494Y-59929463D01*
X186164180Y-59870498D01*
X186044482Y-59834188D01*
X185920000Y-59821928D01*
X185705750Y-59825000D01*
X185547000Y-59983750D01*
X185547000Y-60833000D01*
X185293000Y-60833000D01*
X185293000Y-59983750D01*
X185134250Y-59825000D01*
X184920000Y-59821928D01*
X184795518Y-59834188D01*
X184675820Y-59870498D01*
X184565506Y-59929463D01*
X184531000Y-59957781D01*
X184531000Y-53619000D01*
X186309000Y-53619000D01*
X186309000Y-59957781D01*
G36*
X188849000Y-59957781D02*
G01*
X188814494Y-59929463D01*
X188704180Y-59870498D01*
X188584482Y-59834188D01*
X188460000Y-59821928D01*
X188245750Y-59825000D01*
X188087000Y-59983750D01*
X188087000Y-60833000D01*
X187833000Y-60833000D01*
X187833000Y-59983750D01*
X187674250Y-59825000D01*
X187460000Y-59821928D01*
X187335518Y-59834188D01*
X187215820Y-59870498D01*
X187105506Y-59929463D01*
X187071000Y-59957781D01*
X187071000Y-53619000D01*
X188849000Y-53619000D01*
X188849000Y-59957781D01*
X188849000Y-59957781D01*
G37*
X188849000Y-59957781D02*
X188814494Y-59929463D01*
X188704180Y-59870498D01*
X188584482Y-59834188D01*
X188460000Y-59821928D01*
X188245750Y-59825000D01*
X188087000Y-59983750D01*
X188087000Y-60833000D01*
X187833000Y-60833000D01*
X187833000Y-59983750D01*
X187674250Y-59825000D01*
X187460000Y-59821928D01*
X187335518Y-59834188D01*
X187215820Y-59870498D01*
X187105506Y-59929463D01*
X187071000Y-59957781D01*
X187071000Y-53619000D01*
X188849000Y-53619000D01*
X188849000Y-59957781D01*
G36*
X191389000Y-59957781D02*
G01*
X191354494Y-59929463D01*
X191244180Y-59870498D01*
X191124482Y-59834188D01*
X191000000Y-59821928D01*
X190785750Y-59825000D01*
X190627000Y-59983750D01*
X190627000Y-60833000D01*
X190373000Y-60833000D01*
X190373000Y-59983750D01*
X190214250Y-59825000D01*
X190000000Y-59821928D01*
X189875518Y-59834188D01*
X189755820Y-59870498D01*
X189645506Y-59929463D01*
X189611000Y-59957781D01*
X189611000Y-53619000D01*
X191389000Y-53619000D01*
X191389000Y-59957781D01*
X191389000Y-59957781D01*
G37*
X191389000Y-59957781D02*
X191354494Y-59929463D01*
X191244180Y-59870498D01*
X191124482Y-59834188D01*
X191000000Y-59821928D01*
X190785750Y-59825000D01*
X190627000Y-59983750D01*
X190627000Y-60833000D01*
X190373000Y-60833000D01*
X190373000Y-59983750D01*
X190214250Y-59825000D01*
X190000000Y-59821928D01*
X189875518Y-59834188D01*
X189755820Y-59870498D01*
X189645506Y-59929463D01*
X189611000Y-59957781D01*
X189611000Y-53619000D01*
X191389000Y-53619000D01*
X191389000Y-59957781D01*
G36*
X193929000Y-59957781D02*
G01*
X193894494Y-59929463D01*
X193784180Y-59870498D01*
X193664482Y-59834188D01*
X193540000Y-59821928D01*
X193325750Y-59825000D01*
X193167000Y-59983750D01*
X193167000Y-60833000D01*
X192913000Y-60833000D01*
X192913000Y-59983750D01*
X192754250Y-59825000D01*
X192540000Y-59821928D01*
X192415518Y-59834188D01*
X192295820Y-59870498D01*
X192185506Y-59929463D01*
X192151000Y-59957781D01*
X192151000Y-53619000D01*
X193929000Y-53619000D01*
X193929000Y-59957781D01*
X193929000Y-59957781D01*
G37*
X193929000Y-59957781D02*
X193894494Y-59929463D01*
X193784180Y-59870498D01*
X193664482Y-59834188D01*
X193540000Y-59821928D01*
X193325750Y-59825000D01*
X193167000Y-59983750D01*
X193167000Y-60833000D01*
X192913000Y-60833000D01*
X192913000Y-59983750D01*
X192754250Y-59825000D01*
X192540000Y-59821928D01*
X192415518Y-59834188D01*
X192295820Y-59870498D01*
X192185506Y-59929463D01*
X192151000Y-59957781D01*
X192151000Y-53619000D01*
X193929000Y-53619000D01*
X193929000Y-59957781D01*
G36*
X196469000Y-59957781D02*
G01*
X196434494Y-59929463D01*
X196324180Y-59870498D01*
X196204482Y-59834188D01*
X196080000Y-59821928D01*
X195865750Y-59825000D01*
X195707000Y-59983750D01*
X195707000Y-60833000D01*
X195453000Y-60833000D01*
X195453000Y-59983750D01*
X195294250Y-59825000D01*
X195080000Y-59821928D01*
X194955518Y-59834188D01*
X194835820Y-59870498D01*
X194725506Y-59929463D01*
X194691000Y-59957781D01*
X194691000Y-53619000D01*
X196469000Y-53619000D01*
X196469000Y-59957781D01*
X196469000Y-59957781D01*
G37*
X196469000Y-59957781D02*
X196434494Y-59929463D01*
X196324180Y-59870498D01*
X196204482Y-59834188D01*
X196080000Y-59821928D01*
X195865750Y-59825000D01*
X195707000Y-59983750D01*
X195707000Y-60833000D01*
X195453000Y-60833000D01*
X195453000Y-59983750D01*
X195294250Y-59825000D01*
X195080000Y-59821928D01*
X194955518Y-59834188D01*
X194835820Y-59870498D01*
X194725506Y-59929463D01*
X194691000Y-59957781D01*
X194691000Y-53619000D01*
X196469000Y-53619000D01*
X196469000Y-59957781D01*
G36*
X199009000Y-59957781D02*
G01*
X198974494Y-59929463D01*
X198864180Y-59870498D01*
X198744482Y-59834188D01*
X198620000Y-59821928D01*
X198405750Y-59825000D01*
X198247000Y-59983750D01*
X198247000Y-60833000D01*
X197993000Y-60833000D01*
X197993000Y-59983750D01*
X197834250Y-59825000D01*
X197620000Y-59821928D01*
X197495518Y-59834188D01*
X197375820Y-59870498D01*
X197265506Y-59929463D01*
X197231000Y-59957781D01*
X197231000Y-53619000D01*
X199009000Y-53619000D01*
X199009000Y-59957781D01*
X199009000Y-59957781D01*
G37*
X199009000Y-59957781D02*
X198974494Y-59929463D01*
X198864180Y-59870498D01*
X198744482Y-59834188D01*
X198620000Y-59821928D01*
X198405750Y-59825000D01*
X198247000Y-59983750D01*
X198247000Y-60833000D01*
X197993000Y-60833000D01*
X197993000Y-59983750D01*
X197834250Y-59825000D01*
X197620000Y-59821928D01*
X197495518Y-59834188D01*
X197375820Y-59870498D01*
X197265506Y-59929463D01*
X197231000Y-59957781D01*
X197231000Y-53619000D01*
X199009000Y-53619000D01*
X199009000Y-59957781D01*
G36*
X201549000Y-59957781D02*
G01*
X201514494Y-59929463D01*
X201404180Y-59870498D01*
X201284482Y-59834188D01*
X201160000Y-59821928D01*
X200945750Y-59825000D01*
X200787000Y-59983750D01*
X200787000Y-60833000D01*
X200533000Y-60833000D01*
X200533000Y-59983750D01*
X200374250Y-59825000D01*
X200160000Y-59821928D01*
X200035518Y-59834188D01*
X199915820Y-59870498D01*
X199805506Y-59929463D01*
X199771000Y-59957781D01*
X199771000Y-53619000D01*
X201549000Y-53619000D01*
X201549000Y-59957781D01*
X201549000Y-59957781D01*
G37*
X201549000Y-59957781D02*
X201514494Y-59929463D01*
X201404180Y-59870498D01*
X201284482Y-59834188D01*
X201160000Y-59821928D01*
X200945750Y-59825000D01*
X200787000Y-59983750D01*
X200787000Y-60833000D01*
X200533000Y-60833000D01*
X200533000Y-59983750D01*
X200374250Y-59825000D01*
X200160000Y-59821928D01*
X200035518Y-59834188D01*
X199915820Y-59870498D01*
X199805506Y-59929463D01*
X199771000Y-59957781D01*
X199771000Y-53619000D01*
X201549000Y-53619000D01*
X201549000Y-59957781D01*
G36*
X204089000Y-59957781D02*
G01*
X204054494Y-59929463D01*
X203944180Y-59870498D01*
X203824482Y-59834188D01*
X203700000Y-59821928D01*
X203485750Y-59825000D01*
X203327000Y-59983750D01*
X203327000Y-60833000D01*
X203073000Y-60833000D01*
X203073000Y-59983750D01*
X202914250Y-59825000D01*
X202700000Y-59821928D01*
X202575518Y-59834188D01*
X202455820Y-59870498D01*
X202345506Y-59929463D01*
X202311000Y-59957781D01*
X202311000Y-53619000D01*
X204089000Y-53619000D01*
X204089000Y-59957781D01*
X204089000Y-59957781D01*
G37*
X204089000Y-59957781D02*
X204054494Y-59929463D01*
X203944180Y-59870498D01*
X203824482Y-59834188D01*
X203700000Y-59821928D01*
X203485750Y-59825000D01*
X203327000Y-59983750D01*
X203327000Y-60833000D01*
X203073000Y-60833000D01*
X203073000Y-59983750D01*
X202914250Y-59825000D01*
X202700000Y-59821928D01*
X202575518Y-59834188D01*
X202455820Y-59870498D01*
X202345506Y-59929463D01*
X202311000Y-59957781D01*
X202311000Y-53619000D01*
X204089000Y-53619000D01*
X204089000Y-59957781D01*
G36*
X206629000Y-59957781D02*
G01*
X206594494Y-59929463D01*
X206484180Y-59870498D01*
X206364482Y-59834188D01*
X206240000Y-59821928D01*
X206025750Y-59825000D01*
X205867000Y-59983750D01*
X205867000Y-60833000D01*
X205613000Y-60833000D01*
X205613000Y-59983750D01*
X205454250Y-59825000D01*
X205240000Y-59821928D01*
X205115518Y-59834188D01*
X204995820Y-59870498D01*
X204885506Y-59929463D01*
X204851000Y-59957781D01*
X204851000Y-53619000D01*
X206629000Y-53619000D01*
X206629000Y-59957781D01*
X206629000Y-59957781D01*
G37*
X206629000Y-59957781D02*
X206594494Y-59929463D01*
X206484180Y-59870498D01*
X206364482Y-59834188D01*
X206240000Y-59821928D01*
X206025750Y-59825000D01*
X205867000Y-59983750D01*
X205867000Y-60833000D01*
X205613000Y-60833000D01*
X205613000Y-59983750D01*
X205454250Y-59825000D01*
X205240000Y-59821928D01*
X205115518Y-59834188D01*
X204995820Y-59870498D01*
X204885506Y-59929463D01*
X204851000Y-59957781D01*
X204851000Y-53619000D01*
X206629000Y-53619000D01*
X206629000Y-59957781D01*
M02*
