G04 #@! TF.GenerationSoftware,KiCad,Pcbnew,(5.1.2-1)-1*
G04 #@! TF.CreationDate,2020-07-14T21:15:20-04:00*
G04 #@! TF.ProjectId,ArcadePanel,41726361-6465-4506-916e-656c2e6b6963,v2.0*
G04 #@! TF.SameCoordinates,Original*
G04 #@! TF.FileFunction,Copper,L2,Bot*
G04 #@! TF.FilePolarity,Positive*
%FSLAX46Y46*%
G04 Gerber Fmt 4.6, Leading zero omitted, Abs format (unit mm)*
G04 Created by KiCad (PCBNEW (5.1.2-1)-1) date 2020-07-14 21:15:20*
%MOMM*%
%LPD*%
G04 APERTURE LIST*
%ADD10C,1.524000*%
%ADD11O,1.400000X1.400000*%
%ADD12C,1.400000*%
%ADD13C,1.600000*%
%ADD14R,1.600000X1.600000*%
%ADD15C,1.422400*%
%ADD16C,1.950000*%
%ADD17R,1.950000X1.950000*%
%ADD18C,0.800000*%
%ADD19C,0.250000*%
%ADD20C,0.254000*%
G04 APERTURE END LIST*
D10*
X115697000Y-97028000D03*
X115697000Y-94488000D03*
X118237000Y-97028000D03*
X118237000Y-94488000D03*
X120777000Y-97028000D03*
X120777000Y-94488000D03*
X123317000Y-97028000D03*
X123317000Y-94488000D03*
X125857000Y-97028000D03*
X125857000Y-94488000D03*
X128397000Y-97028000D03*
X128397000Y-94488000D03*
X130937000Y-97028000D03*
X130937000Y-94488000D03*
X133477000Y-97028000D03*
X133477000Y-94488000D03*
X136017000Y-97028000D03*
X136017000Y-94488000D03*
X138557000Y-97028000D03*
X138557000Y-94488000D03*
X141097000Y-97028000D03*
X141097000Y-94488000D03*
X143637000Y-97028000D03*
X143637000Y-94488000D03*
X146177000Y-97028000D03*
X146177000Y-94488000D03*
X148717000Y-97028000D03*
X148717000Y-94488000D03*
X151257000Y-97028000D03*
X151257000Y-94488000D03*
X153797000Y-97028000D03*
X153797000Y-94488000D03*
X156337000Y-97028000D03*
X156337000Y-94488000D03*
X158877000Y-97028000D03*
X158877000Y-94488000D03*
X161417000Y-97028000D03*
X161417000Y-94488000D03*
X163957000Y-97028000D03*
X163957000Y-94488000D03*
X166497000Y-97028000D03*
X166497000Y-94488000D03*
X169037000Y-97028000D03*
X169037000Y-94488000D03*
X171577000Y-97028000D03*
X171577000Y-94488000D03*
X174117000Y-97028000D03*
X174117000Y-94488000D03*
X176657000Y-97028000D03*
X176657000Y-94488000D03*
D11*
X97867000Y-84582000D03*
D12*
X97867000Y-92202000D03*
D11*
X94717000Y-84582000D03*
D12*
X94717000Y-92202000D03*
D11*
X91567000Y-84582000D03*
D12*
X91567000Y-92202000D03*
D13*
X51308000Y-84455000D03*
X53848000Y-84455000D03*
X56388000Y-84455000D03*
X58928000Y-84455000D03*
X58928000Y-92075000D03*
X56388000Y-92075000D03*
X53848000Y-92075000D03*
D14*
X51308000Y-92075000D03*
D11*
X88392000Y-84582000D03*
D12*
X88392000Y-92202000D03*
D15*
X229659000Y-87360999D03*
X229659000Y-89860999D03*
X229659000Y-91861000D03*
X229659000Y-94361000D03*
X226949001Y-87360999D03*
X226949001Y-89860999D03*
X226949001Y-91861000D03*
X226949001Y-94361000D03*
D16*
X189399000Y-112014000D03*
X184399000Y-112014000D03*
X179399000Y-112014000D03*
X174399000Y-112014000D03*
X169399000Y-112014000D03*
X164399000Y-112014000D03*
X159399000Y-112014000D03*
X154399000Y-112014000D03*
X149399000Y-112014000D03*
D17*
X144399000Y-112014000D03*
D16*
X138505000Y-112014000D03*
X133505000Y-112014000D03*
X128505000Y-112014000D03*
X123505000Y-112014000D03*
X118505000Y-112014000D03*
X113505000Y-112014000D03*
X108505000Y-112014000D03*
D17*
X103505000Y-112014000D03*
D16*
X240199000Y-112014000D03*
X235199000Y-112014000D03*
X230199000Y-112014000D03*
X225199000Y-112014000D03*
X220199000Y-112014000D03*
X215199000Y-112014000D03*
X210199000Y-112014000D03*
X205199000Y-112014000D03*
X200199000Y-112014000D03*
D17*
X195199000Y-112014000D03*
D16*
X97705000Y-112014000D03*
X92705000Y-112014000D03*
X87705000Y-112014000D03*
X82705000Y-112014000D03*
X77705000Y-112014000D03*
X72705000Y-112014000D03*
X67705000Y-112014000D03*
X62705000Y-112014000D03*
X57705000Y-112014000D03*
D17*
X52705000Y-112014000D03*
D18*
X142494000Y-100965000D03*
X150114000Y-90043000D03*
X150368000Y-87376000D03*
X143637000Y-100076000D03*
X149987000Y-91440000D03*
X150114000Y-88900000D03*
X219964000Y-95504000D03*
X152273000Y-103124000D03*
X56896000Y-100584000D03*
X63627000Y-102108000D03*
X171450000Y-84709000D03*
X171577000Y-108839000D03*
X191262000Y-102489000D03*
X218821000Y-91694000D03*
D19*
X226237802Y-95072199D02*
X226949001Y-94361000D01*
X142494000Y-100965000D02*
X220345000Y-100965000D01*
X220662500Y-100647500D02*
X226237802Y-95072199D01*
X220345000Y-100965000D02*
X220662500Y-100647500D01*
X220364000Y-100946001D02*
X220662500Y-100647500D01*
X225131001Y-90043000D02*
X226949001Y-91861000D01*
X205994000Y-90043000D02*
X225131001Y-90043000D01*
X202601999Y-86650999D02*
X205994000Y-90043000D01*
X146394001Y-86650999D02*
X202601999Y-86650999D01*
X138557000Y-94488000D02*
X146394001Y-86650999D01*
X146698761Y-95575001D02*
X147320000Y-94953762D01*
X142549999Y-95575001D02*
X146698761Y-95575001D01*
X141097000Y-97028000D02*
X142549999Y-95575001D01*
X147320000Y-94953762D02*
X147320000Y-91567000D01*
X147320000Y-91567000D02*
X148844000Y-90043000D01*
X148844000Y-90043000D02*
X150114000Y-90043000D01*
X150114000Y-90043000D02*
X150114000Y-90043000D01*
X141097000Y-94488000D02*
X148209000Y-87376000D01*
X148209000Y-87376000D02*
X150368000Y-87376000D01*
X150368000Y-87376000D02*
X150368000Y-87376000D01*
X221172436Y-105049001D02*
X229659000Y-96562437D01*
X145504999Y-105049001D02*
X221172436Y-105049001D01*
X229659000Y-96562437D02*
X229659000Y-95366788D01*
X141768999Y-101313001D02*
X145504999Y-105049001D01*
X141768999Y-100616999D02*
X141768999Y-101313001D01*
X229659000Y-95366788D02*
X229659000Y-94361000D01*
X142309998Y-100076000D02*
X141768999Y-100616999D01*
X143637000Y-100076000D02*
X142309998Y-100076000D01*
X228947801Y-92572199D02*
X229659000Y-91861000D01*
X206689201Y-92897201D02*
X228622799Y-92897201D01*
X143637000Y-94488000D02*
X144398999Y-93726001D01*
X201930000Y-88138000D02*
X206689201Y-92897201D01*
X148715590Y-88138000D02*
X201930000Y-88138000D01*
X144398999Y-92454591D02*
X148715590Y-88138000D01*
X228622799Y-92897201D02*
X228947801Y-92572199D01*
X144398999Y-93726001D02*
X144398999Y-92454591D01*
X149169001Y-95644761D02*
X149987000Y-94826762D01*
X147560239Y-95644761D02*
X149169001Y-95644761D01*
X146177000Y-97028000D02*
X147560239Y-95644761D01*
X149987000Y-94826762D02*
X149987000Y-91440000D01*
X149987000Y-91440000D02*
X149987000Y-91440000D01*
X146177000Y-91313000D02*
X146177000Y-94488000D01*
X148590000Y-88900000D02*
X146177000Y-91313000D01*
X150114000Y-88900000D02*
X148590000Y-88900000D01*
X152018999Y-95249999D02*
X151257000Y-94488000D01*
X152344001Y-95575001D02*
X152018999Y-95249999D01*
X152344001Y-97845999D02*
X152344001Y-95575001D01*
X151624989Y-98565011D02*
X152344001Y-97845999D01*
X94755011Y-98565011D02*
X151624989Y-98565011D01*
X88392000Y-92202000D02*
X94755011Y-98565011D01*
X150495001Y-97789999D02*
X151257000Y-97028000D01*
X150169999Y-98115001D02*
X150495001Y-97789999D01*
X97480001Y-98115001D02*
X150169999Y-98115001D01*
X91567000Y-92202000D02*
X97480001Y-98115001D01*
D20*
G36*
X243180001Y-120371184D02*
G01*
X50419587Y-120498000D01*
X49682000Y-120498000D01*
X49682000Y-111039000D01*
X51091928Y-111039000D01*
X51091928Y-112989000D01*
X51104188Y-113113482D01*
X51140498Y-113233180D01*
X51199463Y-113343494D01*
X51278815Y-113440185D01*
X51375506Y-113519537D01*
X51485820Y-113578502D01*
X51605518Y-113614812D01*
X51730000Y-113627072D01*
X53680000Y-113627072D01*
X53804482Y-113614812D01*
X53924180Y-113578502D01*
X54034494Y-113519537D01*
X54131185Y-113440185D01*
X54210537Y-113343494D01*
X54269502Y-113233180D01*
X54305812Y-113113482D01*
X54318072Y-112989000D01*
X54318072Y-111855429D01*
X56095000Y-111855429D01*
X56095000Y-112172571D01*
X56156871Y-112483620D01*
X56278237Y-112776621D01*
X56454431Y-113040315D01*
X56678685Y-113264569D01*
X56942379Y-113440763D01*
X57235380Y-113562129D01*
X57546429Y-113624000D01*
X57863571Y-113624000D01*
X58174620Y-113562129D01*
X58467621Y-113440763D01*
X58731315Y-113264569D01*
X58955569Y-113040315D01*
X59131763Y-112776621D01*
X59253129Y-112483620D01*
X59315000Y-112172571D01*
X59315000Y-111855429D01*
X61095000Y-111855429D01*
X61095000Y-112172571D01*
X61156871Y-112483620D01*
X61278237Y-112776621D01*
X61454431Y-113040315D01*
X61678685Y-113264569D01*
X61942379Y-113440763D01*
X62235380Y-113562129D01*
X62546429Y-113624000D01*
X62863571Y-113624000D01*
X63174620Y-113562129D01*
X63467621Y-113440763D01*
X63731315Y-113264569D01*
X63955569Y-113040315D01*
X64131763Y-112776621D01*
X64253129Y-112483620D01*
X64315000Y-112172571D01*
X64315000Y-111855429D01*
X66095000Y-111855429D01*
X66095000Y-112172571D01*
X66156871Y-112483620D01*
X66278237Y-112776621D01*
X66454431Y-113040315D01*
X66678685Y-113264569D01*
X66942379Y-113440763D01*
X67235380Y-113562129D01*
X67546429Y-113624000D01*
X67863571Y-113624000D01*
X68174620Y-113562129D01*
X68467621Y-113440763D01*
X68731315Y-113264569D01*
X68955569Y-113040315D01*
X69131763Y-112776621D01*
X69253129Y-112483620D01*
X69315000Y-112172571D01*
X69315000Y-111855429D01*
X71095000Y-111855429D01*
X71095000Y-112172571D01*
X71156871Y-112483620D01*
X71278237Y-112776621D01*
X71454431Y-113040315D01*
X71678685Y-113264569D01*
X71942379Y-113440763D01*
X72235380Y-113562129D01*
X72546429Y-113624000D01*
X72863571Y-113624000D01*
X73174620Y-113562129D01*
X73467621Y-113440763D01*
X73731315Y-113264569D01*
X73955569Y-113040315D01*
X74131763Y-112776621D01*
X74253129Y-112483620D01*
X74315000Y-112172571D01*
X74315000Y-111855429D01*
X76095000Y-111855429D01*
X76095000Y-112172571D01*
X76156871Y-112483620D01*
X76278237Y-112776621D01*
X76454431Y-113040315D01*
X76678685Y-113264569D01*
X76942379Y-113440763D01*
X77235380Y-113562129D01*
X77546429Y-113624000D01*
X77863571Y-113624000D01*
X78174620Y-113562129D01*
X78467621Y-113440763D01*
X78731315Y-113264569D01*
X78955569Y-113040315D01*
X79131763Y-112776621D01*
X79253129Y-112483620D01*
X79315000Y-112172571D01*
X79315000Y-111855429D01*
X81095000Y-111855429D01*
X81095000Y-112172571D01*
X81156871Y-112483620D01*
X81278237Y-112776621D01*
X81454431Y-113040315D01*
X81678685Y-113264569D01*
X81942379Y-113440763D01*
X82235380Y-113562129D01*
X82546429Y-113624000D01*
X82863571Y-113624000D01*
X83174620Y-113562129D01*
X83467621Y-113440763D01*
X83731315Y-113264569D01*
X83955569Y-113040315D01*
X84131763Y-112776621D01*
X84253129Y-112483620D01*
X84315000Y-112172571D01*
X84315000Y-111855429D01*
X86095000Y-111855429D01*
X86095000Y-112172571D01*
X86156871Y-112483620D01*
X86278237Y-112776621D01*
X86454431Y-113040315D01*
X86678685Y-113264569D01*
X86942379Y-113440763D01*
X87235380Y-113562129D01*
X87546429Y-113624000D01*
X87863571Y-113624000D01*
X88174620Y-113562129D01*
X88467621Y-113440763D01*
X88731315Y-113264569D01*
X88955569Y-113040315D01*
X89131763Y-112776621D01*
X89253129Y-112483620D01*
X89315000Y-112172571D01*
X89315000Y-111855429D01*
X91095000Y-111855429D01*
X91095000Y-112172571D01*
X91156871Y-112483620D01*
X91278237Y-112776621D01*
X91454431Y-113040315D01*
X91678685Y-113264569D01*
X91942379Y-113440763D01*
X92235380Y-113562129D01*
X92546429Y-113624000D01*
X92863571Y-113624000D01*
X93174620Y-113562129D01*
X93467621Y-113440763D01*
X93731315Y-113264569D01*
X93955569Y-113040315D01*
X94131763Y-112776621D01*
X94253129Y-112483620D01*
X94315000Y-112172571D01*
X94315000Y-111855429D01*
X96095000Y-111855429D01*
X96095000Y-112172571D01*
X96156871Y-112483620D01*
X96278237Y-112776621D01*
X96454431Y-113040315D01*
X96678685Y-113264569D01*
X96942379Y-113440763D01*
X97235380Y-113562129D01*
X97546429Y-113624000D01*
X97863571Y-113624000D01*
X98174620Y-113562129D01*
X98467621Y-113440763D01*
X98731315Y-113264569D01*
X98955569Y-113040315D01*
X99131763Y-112776621D01*
X99253129Y-112483620D01*
X99315000Y-112172571D01*
X99315000Y-111855429D01*
X99253129Y-111544380D01*
X99131763Y-111251379D01*
X98989857Y-111039000D01*
X101891928Y-111039000D01*
X101891928Y-112989000D01*
X101904188Y-113113482D01*
X101940498Y-113233180D01*
X101999463Y-113343494D01*
X102078815Y-113440185D01*
X102175506Y-113519537D01*
X102285820Y-113578502D01*
X102405518Y-113614812D01*
X102530000Y-113627072D01*
X104480000Y-113627072D01*
X104604482Y-113614812D01*
X104724180Y-113578502D01*
X104834494Y-113519537D01*
X104931185Y-113440185D01*
X105010537Y-113343494D01*
X105069502Y-113233180D01*
X105105812Y-113113482D01*
X105118072Y-112989000D01*
X105118072Y-111855429D01*
X106895000Y-111855429D01*
X106895000Y-112172571D01*
X106956871Y-112483620D01*
X107078237Y-112776621D01*
X107254431Y-113040315D01*
X107478685Y-113264569D01*
X107742379Y-113440763D01*
X108035380Y-113562129D01*
X108346429Y-113624000D01*
X108663571Y-113624000D01*
X108974620Y-113562129D01*
X109267621Y-113440763D01*
X109531315Y-113264569D01*
X109755569Y-113040315D01*
X109931763Y-112776621D01*
X110053129Y-112483620D01*
X110115000Y-112172571D01*
X110115000Y-111855429D01*
X111895000Y-111855429D01*
X111895000Y-112172571D01*
X111956871Y-112483620D01*
X112078237Y-112776621D01*
X112254431Y-113040315D01*
X112478685Y-113264569D01*
X112742379Y-113440763D01*
X113035380Y-113562129D01*
X113346429Y-113624000D01*
X113663571Y-113624000D01*
X113974620Y-113562129D01*
X114267621Y-113440763D01*
X114531315Y-113264569D01*
X114755569Y-113040315D01*
X114931763Y-112776621D01*
X115053129Y-112483620D01*
X115115000Y-112172571D01*
X115115000Y-111855429D01*
X116895000Y-111855429D01*
X116895000Y-112172571D01*
X116956871Y-112483620D01*
X117078237Y-112776621D01*
X117254431Y-113040315D01*
X117478685Y-113264569D01*
X117742379Y-113440763D01*
X118035380Y-113562129D01*
X118346429Y-113624000D01*
X118663571Y-113624000D01*
X118974620Y-113562129D01*
X119267621Y-113440763D01*
X119531315Y-113264569D01*
X119755569Y-113040315D01*
X119931763Y-112776621D01*
X120053129Y-112483620D01*
X120115000Y-112172571D01*
X120115000Y-111855429D01*
X121895000Y-111855429D01*
X121895000Y-112172571D01*
X121956871Y-112483620D01*
X122078237Y-112776621D01*
X122254431Y-113040315D01*
X122478685Y-113264569D01*
X122742379Y-113440763D01*
X123035380Y-113562129D01*
X123346429Y-113624000D01*
X123663571Y-113624000D01*
X123974620Y-113562129D01*
X124267621Y-113440763D01*
X124531315Y-113264569D01*
X124755569Y-113040315D01*
X124931763Y-112776621D01*
X125053129Y-112483620D01*
X125115000Y-112172571D01*
X125115000Y-111855429D01*
X126895000Y-111855429D01*
X126895000Y-112172571D01*
X126956871Y-112483620D01*
X127078237Y-112776621D01*
X127254431Y-113040315D01*
X127478685Y-113264569D01*
X127742379Y-113440763D01*
X128035380Y-113562129D01*
X128346429Y-113624000D01*
X128663571Y-113624000D01*
X128974620Y-113562129D01*
X129267621Y-113440763D01*
X129531315Y-113264569D01*
X129755569Y-113040315D01*
X129931763Y-112776621D01*
X130053129Y-112483620D01*
X130115000Y-112172571D01*
X130115000Y-111855429D01*
X131895000Y-111855429D01*
X131895000Y-112172571D01*
X131956871Y-112483620D01*
X132078237Y-112776621D01*
X132254431Y-113040315D01*
X132478685Y-113264569D01*
X132742379Y-113440763D01*
X133035380Y-113562129D01*
X133346429Y-113624000D01*
X133663571Y-113624000D01*
X133974620Y-113562129D01*
X134267621Y-113440763D01*
X134531315Y-113264569D01*
X134755569Y-113040315D01*
X134931763Y-112776621D01*
X135053129Y-112483620D01*
X135115000Y-112172571D01*
X135115000Y-111855429D01*
X136895000Y-111855429D01*
X136895000Y-112172571D01*
X136956871Y-112483620D01*
X137078237Y-112776621D01*
X137254431Y-113040315D01*
X137478685Y-113264569D01*
X137742379Y-113440763D01*
X138035380Y-113562129D01*
X138346429Y-113624000D01*
X138663571Y-113624000D01*
X138974620Y-113562129D01*
X139267621Y-113440763D01*
X139531315Y-113264569D01*
X139755569Y-113040315D01*
X139931763Y-112776621D01*
X140053129Y-112483620D01*
X140115000Y-112172571D01*
X140115000Y-111855429D01*
X140053129Y-111544380D01*
X139931763Y-111251379D01*
X139789857Y-111039000D01*
X142785928Y-111039000D01*
X142785928Y-112989000D01*
X142798188Y-113113482D01*
X142834498Y-113233180D01*
X142893463Y-113343494D01*
X142972815Y-113440185D01*
X143069506Y-113519537D01*
X143179820Y-113578502D01*
X143299518Y-113614812D01*
X143424000Y-113627072D01*
X145374000Y-113627072D01*
X145498482Y-113614812D01*
X145618180Y-113578502D01*
X145728494Y-113519537D01*
X145825185Y-113440185D01*
X145904537Y-113343494D01*
X145963502Y-113233180D01*
X145994320Y-113131584D01*
X148461021Y-113131584D01*
X148553766Y-113393429D01*
X148839120Y-113531820D01*
X149145990Y-113611883D01*
X149462584Y-113630540D01*
X149776733Y-113587074D01*
X150076367Y-113483156D01*
X150244234Y-113393429D01*
X150336979Y-113131584D01*
X149399000Y-112193605D01*
X148461021Y-113131584D01*
X145994320Y-113131584D01*
X145999812Y-113113482D01*
X146012072Y-112989000D01*
X146012072Y-112077584D01*
X147782460Y-112077584D01*
X147825926Y-112391733D01*
X147929844Y-112691367D01*
X148019571Y-112859234D01*
X148281416Y-112951979D01*
X149219395Y-112014000D01*
X149578605Y-112014000D01*
X150516584Y-112951979D01*
X150778429Y-112859234D01*
X150916820Y-112573880D01*
X150996883Y-112267010D01*
X151015540Y-111950416D01*
X151002398Y-111855429D01*
X152789000Y-111855429D01*
X152789000Y-112172571D01*
X152850871Y-112483620D01*
X152972237Y-112776621D01*
X153148431Y-113040315D01*
X153372685Y-113264569D01*
X153636379Y-113440763D01*
X153929380Y-113562129D01*
X154240429Y-113624000D01*
X154557571Y-113624000D01*
X154868620Y-113562129D01*
X155161621Y-113440763D01*
X155425315Y-113264569D01*
X155649569Y-113040315D01*
X155825763Y-112776621D01*
X155947129Y-112483620D01*
X156009000Y-112172571D01*
X156009000Y-111855429D01*
X157789000Y-111855429D01*
X157789000Y-112172571D01*
X157850871Y-112483620D01*
X157972237Y-112776621D01*
X158148431Y-113040315D01*
X158372685Y-113264569D01*
X158636379Y-113440763D01*
X158929380Y-113562129D01*
X159240429Y-113624000D01*
X159557571Y-113624000D01*
X159868620Y-113562129D01*
X160161621Y-113440763D01*
X160425315Y-113264569D01*
X160649569Y-113040315D01*
X160825763Y-112776621D01*
X160947129Y-112483620D01*
X161009000Y-112172571D01*
X161009000Y-111855429D01*
X162789000Y-111855429D01*
X162789000Y-112172571D01*
X162850871Y-112483620D01*
X162972237Y-112776621D01*
X163148431Y-113040315D01*
X163372685Y-113264569D01*
X163636379Y-113440763D01*
X163929380Y-113562129D01*
X164240429Y-113624000D01*
X164557571Y-113624000D01*
X164868620Y-113562129D01*
X165161621Y-113440763D01*
X165425315Y-113264569D01*
X165649569Y-113040315D01*
X165825763Y-112776621D01*
X165947129Y-112483620D01*
X166009000Y-112172571D01*
X166009000Y-111855429D01*
X167789000Y-111855429D01*
X167789000Y-112172571D01*
X167850871Y-112483620D01*
X167972237Y-112776621D01*
X168148431Y-113040315D01*
X168372685Y-113264569D01*
X168636379Y-113440763D01*
X168929380Y-113562129D01*
X169240429Y-113624000D01*
X169557571Y-113624000D01*
X169868620Y-113562129D01*
X170161621Y-113440763D01*
X170425315Y-113264569D01*
X170649569Y-113040315D01*
X170825763Y-112776621D01*
X170947129Y-112483620D01*
X171009000Y-112172571D01*
X171009000Y-111855429D01*
X172789000Y-111855429D01*
X172789000Y-112172571D01*
X172850871Y-112483620D01*
X172972237Y-112776621D01*
X173148431Y-113040315D01*
X173372685Y-113264569D01*
X173636379Y-113440763D01*
X173929380Y-113562129D01*
X174240429Y-113624000D01*
X174557571Y-113624000D01*
X174868620Y-113562129D01*
X175161621Y-113440763D01*
X175425315Y-113264569D01*
X175649569Y-113040315D01*
X175825763Y-112776621D01*
X175947129Y-112483620D01*
X176009000Y-112172571D01*
X176009000Y-111855429D01*
X177789000Y-111855429D01*
X177789000Y-112172571D01*
X177850871Y-112483620D01*
X177972237Y-112776621D01*
X178148431Y-113040315D01*
X178372685Y-113264569D01*
X178636379Y-113440763D01*
X178929380Y-113562129D01*
X179240429Y-113624000D01*
X179557571Y-113624000D01*
X179868620Y-113562129D01*
X180161621Y-113440763D01*
X180425315Y-113264569D01*
X180649569Y-113040315D01*
X180825763Y-112776621D01*
X180947129Y-112483620D01*
X181009000Y-112172571D01*
X181009000Y-111855429D01*
X182789000Y-111855429D01*
X182789000Y-112172571D01*
X182850871Y-112483620D01*
X182972237Y-112776621D01*
X183148431Y-113040315D01*
X183372685Y-113264569D01*
X183636379Y-113440763D01*
X183929380Y-113562129D01*
X184240429Y-113624000D01*
X184557571Y-113624000D01*
X184868620Y-113562129D01*
X185161621Y-113440763D01*
X185425315Y-113264569D01*
X185649569Y-113040315D01*
X185825763Y-112776621D01*
X185947129Y-112483620D01*
X186009000Y-112172571D01*
X186009000Y-111855429D01*
X187789000Y-111855429D01*
X187789000Y-112172571D01*
X187850871Y-112483620D01*
X187972237Y-112776621D01*
X188148431Y-113040315D01*
X188372685Y-113264569D01*
X188636379Y-113440763D01*
X188929380Y-113562129D01*
X189240429Y-113624000D01*
X189557571Y-113624000D01*
X189868620Y-113562129D01*
X190161621Y-113440763D01*
X190425315Y-113264569D01*
X190649569Y-113040315D01*
X190825763Y-112776621D01*
X190947129Y-112483620D01*
X191009000Y-112172571D01*
X191009000Y-111855429D01*
X190947129Y-111544380D01*
X190825763Y-111251379D01*
X190683857Y-111039000D01*
X193585928Y-111039000D01*
X193585928Y-112989000D01*
X193598188Y-113113482D01*
X193634498Y-113233180D01*
X193693463Y-113343494D01*
X193772815Y-113440185D01*
X193869506Y-113519537D01*
X193979820Y-113578502D01*
X194099518Y-113614812D01*
X194224000Y-113627072D01*
X196174000Y-113627072D01*
X196298482Y-113614812D01*
X196418180Y-113578502D01*
X196528494Y-113519537D01*
X196625185Y-113440185D01*
X196704537Y-113343494D01*
X196763502Y-113233180D01*
X196799812Y-113113482D01*
X196812072Y-112989000D01*
X196812072Y-111855429D01*
X198589000Y-111855429D01*
X198589000Y-112172571D01*
X198650871Y-112483620D01*
X198772237Y-112776621D01*
X198948431Y-113040315D01*
X199172685Y-113264569D01*
X199436379Y-113440763D01*
X199729380Y-113562129D01*
X200040429Y-113624000D01*
X200357571Y-113624000D01*
X200668620Y-113562129D01*
X200961621Y-113440763D01*
X201225315Y-113264569D01*
X201449569Y-113040315D01*
X201625763Y-112776621D01*
X201747129Y-112483620D01*
X201809000Y-112172571D01*
X201809000Y-111855429D01*
X203589000Y-111855429D01*
X203589000Y-112172571D01*
X203650871Y-112483620D01*
X203772237Y-112776621D01*
X203948431Y-113040315D01*
X204172685Y-113264569D01*
X204436379Y-113440763D01*
X204729380Y-113562129D01*
X205040429Y-113624000D01*
X205357571Y-113624000D01*
X205668620Y-113562129D01*
X205961621Y-113440763D01*
X206225315Y-113264569D01*
X206449569Y-113040315D01*
X206625763Y-112776621D01*
X206747129Y-112483620D01*
X206809000Y-112172571D01*
X206809000Y-111855429D01*
X208589000Y-111855429D01*
X208589000Y-112172571D01*
X208650871Y-112483620D01*
X208772237Y-112776621D01*
X208948431Y-113040315D01*
X209172685Y-113264569D01*
X209436379Y-113440763D01*
X209729380Y-113562129D01*
X210040429Y-113624000D01*
X210357571Y-113624000D01*
X210668620Y-113562129D01*
X210961621Y-113440763D01*
X211225315Y-113264569D01*
X211449569Y-113040315D01*
X211625763Y-112776621D01*
X211747129Y-112483620D01*
X211809000Y-112172571D01*
X211809000Y-111855429D01*
X213589000Y-111855429D01*
X213589000Y-112172571D01*
X213650871Y-112483620D01*
X213772237Y-112776621D01*
X213948431Y-113040315D01*
X214172685Y-113264569D01*
X214436379Y-113440763D01*
X214729380Y-113562129D01*
X215040429Y-113624000D01*
X215357571Y-113624000D01*
X215668620Y-113562129D01*
X215961621Y-113440763D01*
X216225315Y-113264569D01*
X216449569Y-113040315D01*
X216625763Y-112776621D01*
X216747129Y-112483620D01*
X216809000Y-112172571D01*
X216809000Y-111855429D01*
X218589000Y-111855429D01*
X218589000Y-112172571D01*
X218650871Y-112483620D01*
X218772237Y-112776621D01*
X218948431Y-113040315D01*
X219172685Y-113264569D01*
X219436379Y-113440763D01*
X219729380Y-113562129D01*
X220040429Y-113624000D01*
X220357571Y-113624000D01*
X220668620Y-113562129D01*
X220961621Y-113440763D01*
X221225315Y-113264569D01*
X221449569Y-113040315D01*
X221625763Y-112776621D01*
X221747129Y-112483620D01*
X221809000Y-112172571D01*
X221809000Y-111855429D01*
X223589000Y-111855429D01*
X223589000Y-112172571D01*
X223650871Y-112483620D01*
X223772237Y-112776621D01*
X223948431Y-113040315D01*
X224172685Y-113264569D01*
X224436379Y-113440763D01*
X224729380Y-113562129D01*
X225040429Y-113624000D01*
X225357571Y-113624000D01*
X225668620Y-113562129D01*
X225961621Y-113440763D01*
X226225315Y-113264569D01*
X226449569Y-113040315D01*
X226625763Y-112776621D01*
X226747129Y-112483620D01*
X226809000Y-112172571D01*
X226809000Y-111855429D01*
X228589000Y-111855429D01*
X228589000Y-112172571D01*
X228650871Y-112483620D01*
X228772237Y-112776621D01*
X228948431Y-113040315D01*
X229172685Y-113264569D01*
X229436379Y-113440763D01*
X229729380Y-113562129D01*
X230040429Y-113624000D01*
X230357571Y-113624000D01*
X230668620Y-113562129D01*
X230961621Y-113440763D01*
X231225315Y-113264569D01*
X231449569Y-113040315D01*
X231625763Y-112776621D01*
X231747129Y-112483620D01*
X231809000Y-112172571D01*
X231809000Y-111855429D01*
X233589000Y-111855429D01*
X233589000Y-112172571D01*
X233650871Y-112483620D01*
X233772237Y-112776621D01*
X233948431Y-113040315D01*
X234172685Y-113264569D01*
X234436379Y-113440763D01*
X234729380Y-113562129D01*
X235040429Y-113624000D01*
X235357571Y-113624000D01*
X235668620Y-113562129D01*
X235961621Y-113440763D01*
X236225315Y-113264569D01*
X236449569Y-113040315D01*
X236625763Y-112776621D01*
X236747129Y-112483620D01*
X236809000Y-112172571D01*
X236809000Y-111855429D01*
X238589000Y-111855429D01*
X238589000Y-112172571D01*
X238650871Y-112483620D01*
X238772237Y-112776621D01*
X238948431Y-113040315D01*
X239172685Y-113264569D01*
X239436379Y-113440763D01*
X239729380Y-113562129D01*
X240040429Y-113624000D01*
X240357571Y-113624000D01*
X240668620Y-113562129D01*
X240961621Y-113440763D01*
X241225315Y-113264569D01*
X241449569Y-113040315D01*
X241625763Y-112776621D01*
X241747129Y-112483620D01*
X241809000Y-112172571D01*
X241809000Y-111855429D01*
X241747129Y-111544380D01*
X241625763Y-111251379D01*
X241449569Y-110987685D01*
X241225315Y-110763431D01*
X240961621Y-110587237D01*
X240668620Y-110465871D01*
X240357571Y-110404000D01*
X240040429Y-110404000D01*
X239729380Y-110465871D01*
X239436379Y-110587237D01*
X239172685Y-110763431D01*
X238948431Y-110987685D01*
X238772237Y-111251379D01*
X238650871Y-111544380D01*
X238589000Y-111855429D01*
X236809000Y-111855429D01*
X236747129Y-111544380D01*
X236625763Y-111251379D01*
X236449569Y-110987685D01*
X236225315Y-110763431D01*
X235961621Y-110587237D01*
X235668620Y-110465871D01*
X235357571Y-110404000D01*
X235040429Y-110404000D01*
X234729380Y-110465871D01*
X234436379Y-110587237D01*
X234172685Y-110763431D01*
X233948431Y-110987685D01*
X233772237Y-111251379D01*
X233650871Y-111544380D01*
X233589000Y-111855429D01*
X231809000Y-111855429D01*
X231747129Y-111544380D01*
X231625763Y-111251379D01*
X231449569Y-110987685D01*
X231225315Y-110763431D01*
X230961621Y-110587237D01*
X230668620Y-110465871D01*
X230357571Y-110404000D01*
X230040429Y-110404000D01*
X229729380Y-110465871D01*
X229436379Y-110587237D01*
X229172685Y-110763431D01*
X228948431Y-110987685D01*
X228772237Y-111251379D01*
X228650871Y-111544380D01*
X228589000Y-111855429D01*
X226809000Y-111855429D01*
X226747129Y-111544380D01*
X226625763Y-111251379D01*
X226449569Y-110987685D01*
X226225315Y-110763431D01*
X225961621Y-110587237D01*
X225668620Y-110465871D01*
X225357571Y-110404000D01*
X225040429Y-110404000D01*
X224729380Y-110465871D01*
X224436379Y-110587237D01*
X224172685Y-110763431D01*
X223948431Y-110987685D01*
X223772237Y-111251379D01*
X223650871Y-111544380D01*
X223589000Y-111855429D01*
X221809000Y-111855429D01*
X221747129Y-111544380D01*
X221625763Y-111251379D01*
X221449569Y-110987685D01*
X221225315Y-110763431D01*
X220961621Y-110587237D01*
X220668620Y-110465871D01*
X220357571Y-110404000D01*
X220040429Y-110404000D01*
X219729380Y-110465871D01*
X219436379Y-110587237D01*
X219172685Y-110763431D01*
X218948431Y-110987685D01*
X218772237Y-111251379D01*
X218650871Y-111544380D01*
X218589000Y-111855429D01*
X216809000Y-111855429D01*
X216747129Y-111544380D01*
X216625763Y-111251379D01*
X216449569Y-110987685D01*
X216225315Y-110763431D01*
X215961621Y-110587237D01*
X215668620Y-110465871D01*
X215357571Y-110404000D01*
X215040429Y-110404000D01*
X214729380Y-110465871D01*
X214436379Y-110587237D01*
X214172685Y-110763431D01*
X213948431Y-110987685D01*
X213772237Y-111251379D01*
X213650871Y-111544380D01*
X213589000Y-111855429D01*
X211809000Y-111855429D01*
X211747129Y-111544380D01*
X211625763Y-111251379D01*
X211449569Y-110987685D01*
X211225315Y-110763431D01*
X210961621Y-110587237D01*
X210668620Y-110465871D01*
X210357571Y-110404000D01*
X210040429Y-110404000D01*
X209729380Y-110465871D01*
X209436379Y-110587237D01*
X209172685Y-110763431D01*
X208948431Y-110987685D01*
X208772237Y-111251379D01*
X208650871Y-111544380D01*
X208589000Y-111855429D01*
X206809000Y-111855429D01*
X206747129Y-111544380D01*
X206625763Y-111251379D01*
X206449569Y-110987685D01*
X206225315Y-110763431D01*
X205961621Y-110587237D01*
X205668620Y-110465871D01*
X205357571Y-110404000D01*
X205040429Y-110404000D01*
X204729380Y-110465871D01*
X204436379Y-110587237D01*
X204172685Y-110763431D01*
X203948431Y-110987685D01*
X203772237Y-111251379D01*
X203650871Y-111544380D01*
X203589000Y-111855429D01*
X201809000Y-111855429D01*
X201747129Y-111544380D01*
X201625763Y-111251379D01*
X201449569Y-110987685D01*
X201225315Y-110763431D01*
X200961621Y-110587237D01*
X200668620Y-110465871D01*
X200357571Y-110404000D01*
X200040429Y-110404000D01*
X199729380Y-110465871D01*
X199436379Y-110587237D01*
X199172685Y-110763431D01*
X198948431Y-110987685D01*
X198772237Y-111251379D01*
X198650871Y-111544380D01*
X198589000Y-111855429D01*
X196812072Y-111855429D01*
X196812072Y-111039000D01*
X196799812Y-110914518D01*
X196763502Y-110794820D01*
X196704537Y-110684506D01*
X196625185Y-110587815D01*
X196528494Y-110508463D01*
X196418180Y-110449498D01*
X196298482Y-110413188D01*
X196174000Y-110400928D01*
X194224000Y-110400928D01*
X194099518Y-110413188D01*
X193979820Y-110449498D01*
X193869506Y-110508463D01*
X193772815Y-110587815D01*
X193693463Y-110684506D01*
X193634498Y-110794820D01*
X193598188Y-110914518D01*
X193585928Y-111039000D01*
X190683857Y-111039000D01*
X190649569Y-110987685D01*
X190425315Y-110763431D01*
X190161621Y-110587237D01*
X189868620Y-110465871D01*
X189557571Y-110404000D01*
X189240429Y-110404000D01*
X188929380Y-110465871D01*
X188636379Y-110587237D01*
X188372685Y-110763431D01*
X188148431Y-110987685D01*
X187972237Y-111251379D01*
X187850871Y-111544380D01*
X187789000Y-111855429D01*
X186009000Y-111855429D01*
X185947129Y-111544380D01*
X185825763Y-111251379D01*
X185649569Y-110987685D01*
X185425315Y-110763431D01*
X185161621Y-110587237D01*
X184868620Y-110465871D01*
X184557571Y-110404000D01*
X184240429Y-110404000D01*
X183929380Y-110465871D01*
X183636379Y-110587237D01*
X183372685Y-110763431D01*
X183148431Y-110987685D01*
X182972237Y-111251379D01*
X182850871Y-111544380D01*
X182789000Y-111855429D01*
X181009000Y-111855429D01*
X180947129Y-111544380D01*
X180825763Y-111251379D01*
X180649569Y-110987685D01*
X180425315Y-110763431D01*
X180161621Y-110587237D01*
X179868620Y-110465871D01*
X179557571Y-110404000D01*
X179240429Y-110404000D01*
X178929380Y-110465871D01*
X178636379Y-110587237D01*
X178372685Y-110763431D01*
X178148431Y-110987685D01*
X177972237Y-111251379D01*
X177850871Y-111544380D01*
X177789000Y-111855429D01*
X176009000Y-111855429D01*
X175947129Y-111544380D01*
X175825763Y-111251379D01*
X175649569Y-110987685D01*
X175425315Y-110763431D01*
X175161621Y-110587237D01*
X174868620Y-110465871D01*
X174557571Y-110404000D01*
X174240429Y-110404000D01*
X173929380Y-110465871D01*
X173636379Y-110587237D01*
X173372685Y-110763431D01*
X173148431Y-110987685D01*
X172972237Y-111251379D01*
X172850871Y-111544380D01*
X172789000Y-111855429D01*
X171009000Y-111855429D01*
X170947129Y-111544380D01*
X170825763Y-111251379D01*
X170649569Y-110987685D01*
X170425315Y-110763431D01*
X170161621Y-110587237D01*
X169868620Y-110465871D01*
X169557571Y-110404000D01*
X169240429Y-110404000D01*
X168929380Y-110465871D01*
X168636379Y-110587237D01*
X168372685Y-110763431D01*
X168148431Y-110987685D01*
X167972237Y-111251379D01*
X167850871Y-111544380D01*
X167789000Y-111855429D01*
X166009000Y-111855429D01*
X165947129Y-111544380D01*
X165825763Y-111251379D01*
X165649569Y-110987685D01*
X165425315Y-110763431D01*
X165161621Y-110587237D01*
X164868620Y-110465871D01*
X164557571Y-110404000D01*
X164240429Y-110404000D01*
X163929380Y-110465871D01*
X163636379Y-110587237D01*
X163372685Y-110763431D01*
X163148431Y-110987685D01*
X162972237Y-111251379D01*
X162850871Y-111544380D01*
X162789000Y-111855429D01*
X161009000Y-111855429D01*
X160947129Y-111544380D01*
X160825763Y-111251379D01*
X160649569Y-110987685D01*
X160425315Y-110763431D01*
X160161621Y-110587237D01*
X159868620Y-110465871D01*
X159557571Y-110404000D01*
X159240429Y-110404000D01*
X158929380Y-110465871D01*
X158636379Y-110587237D01*
X158372685Y-110763431D01*
X158148431Y-110987685D01*
X157972237Y-111251379D01*
X157850871Y-111544380D01*
X157789000Y-111855429D01*
X156009000Y-111855429D01*
X155947129Y-111544380D01*
X155825763Y-111251379D01*
X155649569Y-110987685D01*
X155425315Y-110763431D01*
X155161621Y-110587237D01*
X154868620Y-110465871D01*
X154557571Y-110404000D01*
X154240429Y-110404000D01*
X153929380Y-110465871D01*
X153636379Y-110587237D01*
X153372685Y-110763431D01*
X153148431Y-110987685D01*
X152972237Y-111251379D01*
X152850871Y-111544380D01*
X152789000Y-111855429D01*
X151002398Y-111855429D01*
X150972074Y-111636267D01*
X150868156Y-111336633D01*
X150778429Y-111168766D01*
X150516584Y-111076021D01*
X149578605Y-112014000D01*
X149219395Y-112014000D01*
X148281416Y-111076021D01*
X148019571Y-111168766D01*
X147881180Y-111454120D01*
X147801117Y-111760990D01*
X147782460Y-112077584D01*
X146012072Y-112077584D01*
X146012072Y-111039000D01*
X145999812Y-110914518D01*
X145994321Y-110896416D01*
X148461021Y-110896416D01*
X149399000Y-111834395D01*
X150336979Y-110896416D01*
X150244234Y-110634571D01*
X149958880Y-110496180D01*
X149652010Y-110416117D01*
X149335416Y-110397460D01*
X149021267Y-110440926D01*
X148721633Y-110544844D01*
X148553766Y-110634571D01*
X148461021Y-110896416D01*
X145994321Y-110896416D01*
X145963502Y-110794820D01*
X145904537Y-110684506D01*
X145825185Y-110587815D01*
X145728494Y-110508463D01*
X145618180Y-110449498D01*
X145498482Y-110413188D01*
X145374000Y-110400928D01*
X143424000Y-110400928D01*
X143299518Y-110413188D01*
X143179820Y-110449498D01*
X143069506Y-110508463D01*
X142972815Y-110587815D01*
X142893463Y-110684506D01*
X142834498Y-110794820D01*
X142798188Y-110914518D01*
X142785928Y-111039000D01*
X139789857Y-111039000D01*
X139755569Y-110987685D01*
X139531315Y-110763431D01*
X139267621Y-110587237D01*
X138974620Y-110465871D01*
X138663571Y-110404000D01*
X138346429Y-110404000D01*
X138035380Y-110465871D01*
X137742379Y-110587237D01*
X137478685Y-110763431D01*
X137254431Y-110987685D01*
X137078237Y-111251379D01*
X136956871Y-111544380D01*
X136895000Y-111855429D01*
X135115000Y-111855429D01*
X135053129Y-111544380D01*
X134931763Y-111251379D01*
X134755569Y-110987685D01*
X134531315Y-110763431D01*
X134267621Y-110587237D01*
X133974620Y-110465871D01*
X133663571Y-110404000D01*
X133346429Y-110404000D01*
X133035380Y-110465871D01*
X132742379Y-110587237D01*
X132478685Y-110763431D01*
X132254431Y-110987685D01*
X132078237Y-111251379D01*
X131956871Y-111544380D01*
X131895000Y-111855429D01*
X130115000Y-111855429D01*
X130053129Y-111544380D01*
X129931763Y-111251379D01*
X129755569Y-110987685D01*
X129531315Y-110763431D01*
X129267621Y-110587237D01*
X128974620Y-110465871D01*
X128663571Y-110404000D01*
X128346429Y-110404000D01*
X128035380Y-110465871D01*
X127742379Y-110587237D01*
X127478685Y-110763431D01*
X127254431Y-110987685D01*
X127078237Y-111251379D01*
X126956871Y-111544380D01*
X126895000Y-111855429D01*
X125115000Y-111855429D01*
X125053129Y-111544380D01*
X124931763Y-111251379D01*
X124755569Y-110987685D01*
X124531315Y-110763431D01*
X124267621Y-110587237D01*
X123974620Y-110465871D01*
X123663571Y-110404000D01*
X123346429Y-110404000D01*
X123035380Y-110465871D01*
X122742379Y-110587237D01*
X122478685Y-110763431D01*
X122254431Y-110987685D01*
X122078237Y-111251379D01*
X121956871Y-111544380D01*
X121895000Y-111855429D01*
X120115000Y-111855429D01*
X120053129Y-111544380D01*
X119931763Y-111251379D01*
X119755569Y-110987685D01*
X119531315Y-110763431D01*
X119267621Y-110587237D01*
X118974620Y-110465871D01*
X118663571Y-110404000D01*
X118346429Y-110404000D01*
X118035380Y-110465871D01*
X117742379Y-110587237D01*
X117478685Y-110763431D01*
X117254431Y-110987685D01*
X117078237Y-111251379D01*
X116956871Y-111544380D01*
X116895000Y-111855429D01*
X115115000Y-111855429D01*
X115053129Y-111544380D01*
X114931763Y-111251379D01*
X114755569Y-110987685D01*
X114531315Y-110763431D01*
X114267621Y-110587237D01*
X113974620Y-110465871D01*
X113663571Y-110404000D01*
X113346429Y-110404000D01*
X113035380Y-110465871D01*
X112742379Y-110587237D01*
X112478685Y-110763431D01*
X112254431Y-110987685D01*
X112078237Y-111251379D01*
X111956871Y-111544380D01*
X111895000Y-111855429D01*
X110115000Y-111855429D01*
X110053129Y-111544380D01*
X109931763Y-111251379D01*
X109755569Y-110987685D01*
X109531315Y-110763431D01*
X109267621Y-110587237D01*
X108974620Y-110465871D01*
X108663571Y-110404000D01*
X108346429Y-110404000D01*
X108035380Y-110465871D01*
X107742379Y-110587237D01*
X107478685Y-110763431D01*
X107254431Y-110987685D01*
X107078237Y-111251379D01*
X106956871Y-111544380D01*
X106895000Y-111855429D01*
X105118072Y-111855429D01*
X105118072Y-111039000D01*
X105105812Y-110914518D01*
X105069502Y-110794820D01*
X105010537Y-110684506D01*
X104931185Y-110587815D01*
X104834494Y-110508463D01*
X104724180Y-110449498D01*
X104604482Y-110413188D01*
X104480000Y-110400928D01*
X102530000Y-110400928D01*
X102405518Y-110413188D01*
X102285820Y-110449498D01*
X102175506Y-110508463D01*
X102078815Y-110587815D01*
X101999463Y-110684506D01*
X101940498Y-110794820D01*
X101904188Y-110914518D01*
X101891928Y-111039000D01*
X98989857Y-111039000D01*
X98955569Y-110987685D01*
X98731315Y-110763431D01*
X98467621Y-110587237D01*
X98174620Y-110465871D01*
X97863571Y-110404000D01*
X97546429Y-110404000D01*
X97235380Y-110465871D01*
X96942379Y-110587237D01*
X96678685Y-110763431D01*
X96454431Y-110987685D01*
X96278237Y-111251379D01*
X96156871Y-111544380D01*
X96095000Y-111855429D01*
X94315000Y-111855429D01*
X94253129Y-111544380D01*
X94131763Y-111251379D01*
X93955569Y-110987685D01*
X93731315Y-110763431D01*
X93467621Y-110587237D01*
X93174620Y-110465871D01*
X92863571Y-110404000D01*
X92546429Y-110404000D01*
X92235380Y-110465871D01*
X91942379Y-110587237D01*
X91678685Y-110763431D01*
X91454431Y-110987685D01*
X91278237Y-111251379D01*
X91156871Y-111544380D01*
X91095000Y-111855429D01*
X89315000Y-111855429D01*
X89253129Y-111544380D01*
X89131763Y-111251379D01*
X88955569Y-110987685D01*
X88731315Y-110763431D01*
X88467621Y-110587237D01*
X88174620Y-110465871D01*
X87863571Y-110404000D01*
X87546429Y-110404000D01*
X87235380Y-110465871D01*
X86942379Y-110587237D01*
X86678685Y-110763431D01*
X86454431Y-110987685D01*
X86278237Y-111251379D01*
X86156871Y-111544380D01*
X86095000Y-111855429D01*
X84315000Y-111855429D01*
X84253129Y-111544380D01*
X84131763Y-111251379D01*
X83955569Y-110987685D01*
X83731315Y-110763431D01*
X83467621Y-110587237D01*
X83174620Y-110465871D01*
X82863571Y-110404000D01*
X82546429Y-110404000D01*
X82235380Y-110465871D01*
X81942379Y-110587237D01*
X81678685Y-110763431D01*
X81454431Y-110987685D01*
X81278237Y-111251379D01*
X81156871Y-111544380D01*
X81095000Y-111855429D01*
X79315000Y-111855429D01*
X79253129Y-111544380D01*
X79131763Y-111251379D01*
X78955569Y-110987685D01*
X78731315Y-110763431D01*
X78467621Y-110587237D01*
X78174620Y-110465871D01*
X77863571Y-110404000D01*
X77546429Y-110404000D01*
X77235380Y-110465871D01*
X76942379Y-110587237D01*
X76678685Y-110763431D01*
X76454431Y-110987685D01*
X76278237Y-111251379D01*
X76156871Y-111544380D01*
X76095000Y-111855429D01*
X74315000Y-111855429D01*
X74253129Y-111544380D01*
X74131763Y-111251379D01*
X73955569Y-110987685D01*
X73731315Y-110763431D01*
X73467621Y-110587237D01*
X73174620Y-110465871D01*
X72863571Y-110404000D01*
X72546429Y-110404000D01*
X72235380Y-110465871D01*
X71942379Y-110587237D01*
X71678685Y-110763431D01*
X71454431Y-110987685D01*
X71278237Y-111251379D01*
X71156871Y-111544380D01*
X71095000Y-111855429D01*
X69315000Y-111855429D01*
X69253129Y-111544380D01*
X69131763Y-111251379D01*
X68955569Y-110987685D01*
X68731315Y-110763431D01*
X68467621Y-110587237D01*
X68174620Y-110465871D01*
X67863571Y-110404000D01*
X67546429Y-110404000D01*
X67235380Y-110465871D01*
X66942379Y-110587237D01*
X66678685Y-110763431D01*
X66454431Y-110987685D01*
X66278237Y-111251379D01*
X66156871Y-111544380D01*
X66095000Y-111855429D01*
X64315000Y-111855429D01*
X64253129Y-111544380D01*
X64131763Y-111251379D01*
X63955569Y-110987685D01*
X63731315Y-110763431D01*
X63467621Y-110587237D01*
X63174620Y-110465871D01*
X62863571Y-110404000D01*
X62546429Y-110404000D01*
X62235380Y-110465871D01*
X61942379Y-110587237D01*
X61678685Y-110763431D01*
X61454431Y-110987685D01*
X61278237Y-111251379D01*
X61156871Y-111544380D01*
X61095000Y-111855429D01*
X59315000Y-111855429D01*
X59253129Y-111544380D01*
X59131763Y-111251379D01*
X58955569Y-110987685D01*
X58731315Y-110763431D01*
X58467621Y-110587237D01*
X58174620Y-110465871D01*
X57863571Y-110404000D01*
X57546429Y-110404000D01*
X57235380Y-110465871D01*
X56942379Y-110587237D01*
X56678685Y-110763431D01*
X56454431Y-110987685D01*
X56278237Y-111251379D01*
X56156871Y-111544380D01*
X56095000Y-111855429D01*
X54318072Y-111855429D01*
X54318072Y-111039000D01*
X54305812Y-110914518D01*
X54269502Y-110794820D01*
X54210537Y-110684506D01*
X54131185Y-110587815D01*
X54034494Y-110508463D01*
X53924180Y-110449498D01*
X53804482Y-110413188D01*
X53680000Y-110400928D01*
X51730000Y-110400928D01*
X51605518Y-110413188D01*
X51485820Y-110449498D01*
X51375506Y-110508463D01*
X51278815Y-110587815D01*
X51199463Y-110684506D01*
X51140498Y-110794820D01*
X51104188Y-110914518D01*
X51091928Y-111039000D01*
X49682000Y-111039000D01*
X49682000Y-102903872D01*
X70536000Y-102903872D01*
X70536000Y-103344128D01*
X70621890Y-103775925D01*
X70790369Y-104182669D01*
X71034962Y-104548729D01*
X71346271Y-104860038D01*
X71712331Y-105104631D01*
X72119075Y-105273110D01*
X72550872Y-105359000D01*
X72991128Y-105359000D01*
X73422925Y-105273110D01*
X73829669Y-105104631D01*
X74195729Y-104860038D01*
X74507038Y-104548729D01*
X74751631Y-104182669D01*
X74920110Y-103775925D01*
X75006000Y-103344128D01*
X75006000Y-102903872D01*
X74920110Y-102472075D01*
X74751631Y-102065331D01*
X74507038Y-101699271D01*
X74195729Y-101387962D01*
X73829669Y-101143369D01*
X73422925Y-100974890D01*
X72991128Y-100889000D01*
X72550872Y-100889000D01*
X72119075Y-100974890D01*
X71712331Y-101143369D01*
X71346271Y-101387962D01*
X71034962Y-101699271D01*
X70790369Y-102065331D01*
X70621890Y-102472075D01*
X70536000Y-102903872D01*
X49682000Y-102903872D01*
X49682000Y-91275000D01*
X49869928Y-91275000D01*
X49869928Y-92875000D01*
X49882188Y-92999482D01*
X49918498Y-93119180D01*
X49977463Y-93229494D01*
X50056815Y-93326185D01*
X50153506Y-93405537D01*
X50263820Y-93464502D01*
X50383518Y-93500812D01*
X50508000Y-93513072D01*
X52108000Y-93513072D01*
X52232482Y-93500812D01*
X52352180Y-93464502D01*
X52462494Y-93405537D01*
X52559185Y-93326185D01*
X52638537Y-93229494D01*
X52697502Y-93119180D01*
X52733812Y-92999482D01*
X52734643Y-92991039D01*
X52933241Y-93189637D01*
X53168273Y-93346680D01*
X53429426Y-93454853D01*
X53706665Y-93510000D01*
X53989335Y-93510000D01*
X54266574Y-93454853D01*
X54527727Y-93346680D01*
X54762759Y-93189637D01*
X54962637Y-92989759D01*
X55118000Y-92757241D01*
X55273363Y-92989759D01*
X55473241Y-93189637D01*
X55708273Y-93346680D01*
X55969426Y-93454853D01*
X56246665Y-93510000D01*
X56529335Y-93510000D01*
X56806574Y-93454853D01*
X57067727Y-93346680D01*
X57302759Y-93189637D01*
X57502637Y-92989759D01*
X57658000Y-92757241D01*
X57813363Y-92989759D01*
X58013241Y-93189637D01*
X58248273Y-93346680D01*
X58509426Y-93454853D01*
X58786665Y-93510000D01*
X59069335Y-93510000D01*
X59346574Y-93454853D01*
X59607727Y-93346680D01*
X59842759Y-93189637D01*
X60042637Y-92989759D01*
X60199680Y-92754727D01*
X60307853Y-92493574D01*
X60363000Y-92216335D01*
X60363000Y-92070514D01*
X87057000Y-92070514D01*
X87057000Y-92333486D01*
X87108304Y-92591405D01*
X87208939Y-92834359D01*
X87355038Y-93053013D01*
X87540987Y-93238962D01*
X87759641Y-93385061D01*
X88002595Y-93485696D01*
X88260514Y-93537000D01*
X88523486Y-93537000D01*
X88630844Y-93515645D01*
X94191216Y-99076019D01*
X94215010Y-99105012D01*
X94244003Y-99128806D01*
X94244007Y-99128810D01*
X94314696Y-99186822D01*
X94330735Y-99199985D01*
X94462764Y-99270557D01*
X94606025Y-99314014D01*
X94717678Y-99325011D01*
X94717687Y-99325011D01*
X94755010Y-99328687D01*
X94792333Y-99325011D01*
X142181176Y-99325011D01*
X142161012Y-99326997D01*
X142017751Y-99370454D01*
X141885721Y-99441026D01*
X141802081Y-99509668D01*
X141769997Y-99535999D01*
X141746198Y-99564998D01*
X141258001Y-100053196D01*
X141228998Y-100076998D01*
X141203967Y-100107499D01*
X141134025Y-100192723D01*
X141063454Y-100324752D01*
X141063453Y-100324753D01*
X141019996Y-100468014D01*
X141008999Y-100579667D01*
X141008999Y-100579677D01*
X141005323Y-100616999D01*
X141008999Y-100654321D01*
X141008999Y-101275679D01*
X141005323Y-101313001D01*
X141008999Y-101350323D01*
X141008999Y-101350334D01*
X141019996Y-101461987D01*
X141048316Y-101555345D01*
X141063453Y-101605247D01*
X141134025Y-101737277D01*
X141205200Y-101824003D01*
X141228999Y-101853002D01*
X141257997Y-101876800D01*
X144941200Y-105560004D01*
X144964998Y-105589002D01*
X145080723Y-105683975D01*
X145212752Y-105754547D01*
X145356013Y-105798004D01*
X145467666Y-105809001D01*
X145467676Y-105809001D01*
X145504999Y-105812677D01*
X145542322Y-105809001D01*
X221135114Y-105809001D01*
X221172436Y-105812677D01*
X221209758Y-105809001D01*
X221209769Y-105809001D01*
X221321422Y-105798004D01*
X221464683Y-105754547D01*
X221596712Y-105683975D01*
X221712437Y-105589002D01*
X221736240Y-105559998D01*
X230041608Y-97254630D01*
X230488300Y-97254630D01*
X230488300Y-97607368D01*
X230557116Y-97953327D01*
X230692103Y-98279213D01*
X230888073Y-98572503D01*
X231137496Y-98821926D01*
X231430786Y-99017896D01*
X231756672Y-99152883D01*
X232102631Y-99221699D01*
X232455369Y-99221699D01*
X232801328Y-99152883D01*
X233127214Y-99017896D01*
X233420504Y-98821926D01*
X233669927Y-98572503D01*
X233865897Y-98279213D01*
X234000884Y-97953327D01*
X234069700Y-97607368D01*
X234069700Y-97254630D01*
X234000884Y-96908671D01*
X233865897Y-96582785D01*
X233669927Y-96289495D01*
X233420504Y-96040072D01*
X233127214Y-95844102D01*
X232801328Y-95709115D01*
X232455369Y-95640299D01*
X232102631Y-95640299D01*
X231756672Y-95709115D01*
X231430786Y-95844102D01*
X231137496Y-96040072D01*
X230888073Y-96289495D01*
X230692103Y-96582785D01*
X230557116Y-96908671D01*
X230488300Y-97254630D01*
X230041608Y-97254630D01*
X230170004Y-97126235D01*
X230199001Y-97102438D01*
X230225332Y-97070354D01*
X230293974Y-96986714D01*
X230364546Y-96854684D01*
X230400622Y-96735754D01*
X230408003Y-96711423D01*
X230419000Y-96599770D01*
X230419000Y-96599760D01*
X230422676Y-96562437D01*
X230419000Y-96525114D01*
X230419000Y-95472246D01*
X230517153Y-95406662D01*
X230704662Y-95219153D01*
X230851987Y-94998665D01*
X230953467Y-94753672D01*
X231005200Y-94493589D01*
X231005200Y-94228411D01*
X230953467Y-93968328D01*
X230851987Y-93723335D01*
X230704662Y-93502847D01*
X230517153Y-93315338D01*
X230296665Y-93168013D01*
X230159024Y-93111000D01*
X230296665Y-93053987D01*
X230517153Y-92906662D01*
X230704662Y-92719153D01*
X230851987Y-92498665D01*
X230953467Y-92253672D01*
X231005200Y-91993589D01*
X231005200Y-91728411D01*
X230953467Y-91468328D01*
X230851987Y-91223335D01*
X230704662Y-91002847D01*
X230562815Y-90861000D01*
X230704662Y-90719152D01*
X230851987Y-90498664D01*
X230953467Y-90253671D01*
X231005200Y-89993588D01*
X231005200Y-89728410D01*
X230953467Y-89468327D01*
X230851987Y-89223334D01*
X230704662Y-89002846D01*
X230517153Y-88815337D01*
X230296665Y-88668012D01*
X230159024Y-88610999D01*
X230296665Y-88553986D01*
X230517153Y-88406661D01*
X230704662Y-88219152D01*
X230851987Y-87998664D01*
X230953467Y-87753671D01*
X231005200Y-87493588D01*
X231005200Y-87228410D01*
X230953467Y-86968327D01*
X230851987Y-86723334D01*
X230704662Y-86502846D01*
X230517153Y-86315337D01*
X230296665Y-86168012D01*
X230051672Y-86066532D01*
X229791589Y-86014799D01*
X229526411Y-86014799D01*
X229266328Y-86066532D01*
X229021335Y-86168012D01*
X228800847Y-86315337D01*
X228613338Y-86502846D01*
X228466013Y-86723334D01*
X228364533Y-86968327D01*
X228312800Y-87228410D01*
X228312800Y-87493588D01*
X228364533Y-87753671D01*
X228466013Y-87998664D01*
X228613338Y-88219152D01*
X228800847Y-88406661D01*
X229021335Y-88553986D01*
X229158976Y-88610999D01*
X229021335Y-88668012D01*
X228800847Y-88815337D01*
X228613338Y-89002846D01*
X228466013Y-89223334D01*
X228364533Y-89468327D01*
X228312800Y-89728410D01*
X228312800Y-89993588D01*
X228364533Y-90253671D01*
X228466013Y-90498664D01*
X228613338Y-90719152D01*
X228755186Y-90861000D01*
X228613338Y-91002847D01*
X228466013Y-91223335D01*
X228364533Y-91468328D01*
X228312800Y-91728411D01*
X228312800Y-91993589D01*
X228335830Y-92109369D01*
X228307998Y-92137201D01*
X228266635Y-92137201D01*
X228295201Y-91993589D01*
X228295201Y-91728411D01*
X228243468Y-91468328D01*
X228141988Y-91223335D01*
X227994663Y-91002847D01*
X227852816Y-90861000D01*
X227994663Y-90719152D01*
X228141988Y-90498664D01*
X228243468Y-90253671D01*
X228295201Y-89993588D01*
X228295201Y-89728410D01*
X228243468Y-89468327D01*
X228141988Y-89223334D01*
X227994663Y-89002846D01*
X227807154Y-88815337D01*
X227586666Y-88668012D01*
X227449025Y-88610999D01*
X227586666Y-88553986D01*
X227807154Y-88406661D01*
X227994663Y-88219152D01*
X228141988Y-87998664D01*
X228243468Y-87753671D01*
X228295201Y-87493588D01*
X228295201Y-87228410D01*
X228243468Y-86968327D01*
X228141988Y-86723334D01*
X227994663Y-86502846D01*
X227807154Y-86315337D01*
X227586666Y-86168012D01*
X227341673Y-86066532D01*
X227096646Y-86017794D01*
X227121328Y-86012884D01*
X227447214Y-85877897D01*
X227740504Y-85681927D01*
X227989927Y-85432504D01*
X228185897Y-85139214D01*
X228320884Y-84813328D01*
X228389700Y-84467369D01*
X228389700Y-84114631D01*
X230488300Y-84114631D01*
X230488300Y-84467369D01*
X230557116Y-84813328D01*
X230692103Y-85139214D01*
X230888073Y-85432504D01*
X231137496Y-85681927D01*
X231430786Y-85877897D01*
X231756672Y-86012884D01*
X232102631Y-86081700D01*
X232455369Y-86081700D01*
X232801328Y-86012884D01*
X233127214Y-85877897D01*
X233420504Y-85681927D01*
X233669927Y-85432504D01*
X233865897Y-85139214D01*
X234000884Y-84813328D01*
X234069700Y-84467369D01*
X234069700Y-84114631D01*
X234000884Y-83768672D01*
X233865897Y-83442786D01*
X233669927Y-83149496D01*
X233420504Y-82900073D01*
X233127214Y-82704103D01*
X232801328Y-82569116D01*
X232455369Y-82500300D01*
X232102631Y-82500300D01*
X231756672Y-82569116D01*
X231430786Y-82704103D01*
X231137496Y-82900073D01*
X230888073Y-83149496D01*
X230692103Y-83442786D01*
X230557116Y-83768672D01*
X230488300Y-84114631D01*
X228389700Y-84114631D01*
X228320884Y-83768672D01*
X228185897Y-83442786D01*
X227989927Y-83149496D01*
X227740504Y-82900073D01*
X227447214Y-82704103D01*
X227121328Y-82569116D01*
X226775369Y-82500300D01*
X226422631Y-82500300D01*
X226076672Y-82569116D01*
X225750786Y-82704103D01*
X225457496Y-82900073D01*
X225208073Y-83149496D01*
X225012103Y-83442786D01*
X224877116Y-83768672D01*
X224808300Y-84114631D01*
X224808300Y-84467369D01*
X224877116Y-84813328D01*
X225012103Y-85139214D01*
X225208073Y-85432504D01*
X225457496Y-85681927D01*
X225750786Y-85877897D01*
X226076672Y-86012884D01*
X226422631Y-86081700D01*
X226519710Y-86081700D01*
X226311336Y-86168012D01*
X226090848Y-86315337D01*
X225903339Y-86502846D01*
X225756014Y-86723334D01*
X225654534Y-86968327D01*
X225602801Y-87228410D01*
X225602801Y-87493588D01*
X225654534Y-87753671D01*
X225756014Y-87998664D01*
X225903339Y-88219152D01*
X226090848Y-88406661D01*
X226311336Y-88553986D01*
X226448977Y-88610999D01*
X226311336Y-88668012D01*
X226090848Y-88815337D01*
X225903339Y-89002846D01*
X225756014Y-89223334D01*
X225654534Y-89468327D01*
X225650916Y-89486515D01*
X225555277Y-89408026D01*
X225423248Y-89337454D01*
X225279987Y-89293997D01*
X225168334Y-89283000D01*
X225168323Y-89283000D01*
X225131001Y-89279324D01*
X225093679Y-89283000D01*
X206308802Y-89283000D01*
X203165803Y-86140002D01*
X203142000Y-86110998D01*
X203026275Y-86016025D01*
X202894246Y-85945453D01*
X202750985Y-85901996D01*
X202639332Y-85890999D01*
X202639321Y-85890999D01*
X202601999Y-85887323D01*
X202564677Y-85890999D01*
X146568981Y-85890999D01*
X146634000Y-85564128D01*
X146634000Y-85123872D01*
X215570000Y-85123872D01*
X215570000Y-85564128D01*
X215655890Y-85995925D01*
X215824369Y-86402669D01*
X216068962Y-86768729D01*
X216380271Y-87080038D01*
X216746331Y-87324631D01*
X217153075Y-87493110D01*
X217584872Y-87579000D01*
X218025128Y-87579000D01*
X218456925Y-87493110D01*
X218863669Y-87324631D01*
X219229729Y-87080038D01*
X219541038Y-86768729D01*
X219785631Y-86402669D01*
X219954110Y-85995925D01*
X220040000Y-85564128D01*
X220040000Y-85123872D01*
X219954110Y-84692075D01*
X219785631Y-84285331D01*
X219541038Y-83919271D01*
X219229729Y-83607962D01*
X218863669Y-83363369D01*
X218456925Y-83194890D01*
X218025128Y-83109000D01*
X217584872Y-83109000D01*
X217153075Y-83194890D01*
X216746331Y-83363369D01*
X216380271Y-83607962D01*
X216068962Y-83919271D01*
X215824369Y-84285331D01*
X215655890Y-84692075D01*
X215570000Y-85123872D01*
X146634000Y-85123872D01*
X146548110Y-84692075D01*
X146379631Y-84285331D01*
X146135038Y-83919271D01*
X145823729Y-83607962D01*
X145457669Y-83363369D01*
X145050925Y-83194890D01*
X144619128Y-83109000D01*
X144178872Y-83109000D01*
X143747075Y-83194890D01*
X143340331Y-83363369D01*
X142974271Y-83607962D01*
X142662962Y-83919271D01*
X142418369Y-84285331D01*
X142249890Y-84692075D01*
X142164000Y-85123872D01*
X142164000Y-85564128D01*
X142249890Y-85995925D01*
X142418369Y-86402669D01*
X142662962Y-86768729D01*
X142974271Y-87080038D01*
X143340331Y-87324631D01*
X143747075Y-87493110D01*
X144178872Y-87579000D01*
X144391198Y-87579000D01*
X138848571Y-93121628D01*
X138694592Y-93091000D01*
X138419408Y-93091000D01*
X138149510Y-93144686D01*
X137895273Y-93249995D01*
X137666465Y-93402880D01*
X137471880Y-93597465D01*
X137318995Y-93826273D01*
X137287000Y-93903515D01*
X137255005Y-93826273D01*
X137102120Y-93597465D01*
X136907535Y-93402880D01*
X136678727Y-93249995D01*
X136424490Y-93144686D01*
X136154592Y-93091000D01*
X135879408Y-93091000D01*
X135609510Y-93144686D01*
X135355273Y-93249995D01*
X135126465Y-93402880D01*
X134931880Y-93597465D01*
X134778995Y-93826273D01*
X134747000Y-93903515D01*
X134715005Y-93826273D01*
X134562120Y-93597465D01*
X134367535Y-93402880D01*
X134138727Y-93249995D01*
X133884490Y-93144686D01*
X133614592Y-93091000D01*
X133339408Y-93091000D01*
X133069510Y-93144686D01*
X132815273Y-93249995D01*
X132586465Y-93402880D01*
X132391880Y-93597465D01*
X132238995Y-93826273D01*
X132207000Y-93903515D01*
X132175005Y-93826273D01*
X132022120Y-93597465D01*
X131827535Y-93402880D01*
X131598727Y-93249995D01*
X131344490Y-93144686D01*
X131074592Y-93091000D01*
X130799408Y-93091000D01*
X130529510Y-93144686D01*
X130275273Y-93249995D01*
X130046465Y-93402880D01*
X129851880Y-93597465D01*
X129698995Y-93826273D01*
X129667000Y-93903515D01*
X129635005Y-93826273D01*
X129482120Y-93597465D01*
X129287535Y-93402880D01*
X129058727Y-93249995D01*
X128804490Y-93144686D01*
X128534592Y-93091000D01*
X128259408Y-93091000D01*
X127989510Y-93144686D01*
X127735273Y-93249995D01*
X127506465Y-93402880D01*
X127311880Y-93597465D01*
X127158995Y-93826273D01*
X127127000Y-93903515D01*
X127095005Y-93826273D01*
X126942120Y-93597465D01*
X126747535Y-93402880D01*
X126518727Y-93249995D01*
X126264490Y-93144686D01*
X125994592Y-93091000D01*
X125719408Y-93091000D01*
X125449510Y-93144686D01*
X125195273Y-93249995D01*
X124966465Y-93402880D01*
X124771880Y-93597465D01*
X124618995Y-93826273D01*
X124587000Y-93903515D01*
X124555005Y-93826273D01*
X124402120Y-93597465D01*
X124207535Y-93402880D01*
X123978727Y-93249995D01*
X123724490Y-93144686D01*
X123454592Y-93091000D01*
X123179408Y-93091000D01*
X122909510Y-93144686D01*
X122655273Y-93249995D01*
X122426465Y-93402880D01*
X122231880Y-93597465D01*
X122078995Y-93826273D01*
X122047000Y-93903515D01*
X122015005Y-93826273D01*
X121862120Y-93597465D01*
X121667535Y-93402880D01*
X121438727Y-93249995D01*
X121184490Y-93144686D01*
X120914592Y-93091000D01*
X120639408Y-93091000D01*
X120369510Y-93144686D01*
X120115273Y-93249995D01*
X119886465Y-93402880D01*
X119691880Y-93597465D01*
X119538995Y-93826273D01*
X119507000Y-93903515D01*
X119475005Y-93826273D01*
X119322120Y-93597465D01*
X119127535Y-93402880D01*
X118898727Y-93249995D01*
X118644490Y-93144686D01*
X118374592Y-93091000D01*
X118099408Y-93091000D01*
X117829510Y-93144686D01*
X117575273Y-93249995D01*
X117346465Y-93402880D01*
X117151880Y-93597465D01*
X116998995Y-93826273D01*
X116967000Y-93903515D01*
X116935005Y-93826273D01*
X116782120Y-93597465D01*
X116587535Y-93402880D01*
X116358727Y-93249995D01*
X116104490Y-93144686D01*
X115834592Y-93091000D01*
X115559408Y-93091000D01*
X115289510Y-93144686D01*
X115035273Y-93249995D01*
X114806465Y-93402880D01*
X114611880Y-93597465D01*
X114458995Y-93826273D01*
X114353686Y-94080510D01*
X114300000Y-94350408D01*
X114300000Y-94625592D01*
X114353686Y-94895490D01*
X114458995Y-95149727D01*
X114611880Y-95378535D01*
X114806465Y-95573120D01*
X115035273Y-95726005D01*
X115112515Y-95758000D01*
X115035273Y-95789995D01*
X114806465Y-95942880D01*
X114611880Y-96137465D01*
X114458995Y-96366273D01*
X114353686Y-96620510D01*
X114300000Y-96890408D01*
X114300000Y-97165592D01*
X114337676Y-97355001D01*
X97794803Y-97355001D01*
X92880645Y-92440844D01*
X92902000Y-92333486D01*
X92902000Y-92070514D01*
X93382000Y-92070514D01*
X93382000Y-92333486D01*
X93433304Y-92591405D01*
X93533939Y-92834359D01*
X93680038Y-93053013D01*
X93865987Y-93238962D01*
X94084641Y-93385061D01*
X94327595Y-93485696D01*
X94585514Y-93537000D01*
X94848486Y-93537000D01*
X95106405Y-93485696D01*
X95349359Y-93385061D01*
X95568013Y-93238962D01*
X95753962Y-93053013D01*
X95900061Y-92834359D01*
X96000696Y-92591405D01*
X96052000Y-92333486D01*
X96052000Y-92070514D01*
X96532000Y-92070514D01*
X96532000Y-92333486D01*
X96583304Y-92591405D01*
X96683939Y-92834359D01*
X96830038Y-93053013D01*
X97015987Y-93238962D01*
X97234641Y-93385061D01*
X97477595Y-93485696D01*
X97735514Y-93537000D01*
X97998486Y-93537000D01*
X98256405Y-93485696D01*
X98499359Y-93385061D01*
X98718013Y-93238962D01*
X98903962Y-93053013D01*
X99050061Y-92834359D01*
X99150696Y-92591405D01*
X99202000Y-92333486D01*
X99202000Y-92070514D01*
X99150696Y-91812595D01*
X99050061Y-91569641D01*
X98903962Y-91350987D01*
X98718013Y-91165038D01*
X98499359Y-91018939D01*
X98256405Y-90918304D01*
X97998486Y-90867000D01*
X97735514Y-90867000D01*
X97477595Y-90918304D01*
X97234641Y-91018939D01*
X97015987Y-91165038D01*
X96830038Y-91350987D01*
X96683939Y-91569641D01*
X96583304Y-91812595D01*
X96532000Y-92070514D01*
X96052000Y-92070514D01*
X96000696Y-91812595D01*
X95900061Y-91569641D01*
X95753962Y-91350987D01*
X95568013Y-91165038D01*
X95349359Y-91018939D01*
X95106405Y-90918304D01*
X94848486Y-90867000D01*
X94585514Y-90867000D01*
X94327595Y-90918304D01*
X94084641Y-91018939D01*
X93865987Y-91165038D01*
X93680038Y-91350987D01*
X93533939Y-91569641D01*
X93433304Y-91812595D01*
X93382000Y-92070514D01*
X92902000Y-92070514D01*
X92850696Y-91812595D01*
X92750061Y-91569641D01*
X92603962Y-91350987D01*
X92418013Y-91165038D01*
X92199359Y-91018939D01*
X91956405Y-90918304D01*
X91698486Y-90867000D01*
X91435514Y-90867000D01*
X91177595Y-90918304D01*
X90934641Y-91018939D01*
X90715987Y-91165038D01*
X90530038Y-91350987D01*
X90383939Y-91569641D01*
X90283304Y-91812595D01*
X90232000Y-92070514D01*
X90232000Y-92333486D01*
X90283304Y-92591405D01*
X90383939Y-92834359D01*
X90530038Y-93053013D01*
X90715987Y-93238962D01*
X90934641Y-93385061D01*
X91177595Y-93485696D01*
X91435514Y-93537000D01*
X91698486Y-93537000D01*
X91805844Y-93515645D01*
X96095209Y-97805011D01*
X95069814Y-97805011D01*
X89705645Y-92440844D01*
X89727000Y-92333486D01*
X89727000Y-92070514D01*
X89675696Y-91812595D01*
X89575061Y-91569641D01*
X89428962Y-91350987D01*
X89243013Y-91165038D01*
X89024359Y-91018939D01*
X88781405Y-90918304D01*
X88523486Y-90867000D01*
X88260514Y-90867000D01*
X88002595Y-90918304D01*
X87759641Y-91018939D01*
X87540987Y-91165038D01*
X87355038Y-91350987D01*
X87208939Y-91569641D01*
X87108304Y-91812595D01*
X87057000Y-92070514D01*
X60363000Y-92070514D01*
X60363000Y-91933665D01*
X60307853Y-91656426D01*
X60199680Y-91395273D01*
X60042637Y-91160241D01*
X59842759Y-90960363D01*
X59607727Y-90803320D01*
X59346574Y-90695147D01*
X59069335Y-90640000D01*
X58786665Y-90640000D01*
X58509426Y-90695147D01*
X58248273Y-90803320D01*
X58013241Y-90960363D01*
X57813363Y-91160241D01*
X57658000Y-91392759D01*
X57502637Y-91160241D01*
X57302759Y-90960363D01*
X57067727Y-90803320D01*
X56806574Y-90695147D01*
X56529335Y-90640000D01*
X56246665Y-90640000D01*
X55969426Y-90695147D01*
X55708273Y-90803320D01*
X55473241Y-90960363D01*
X55273363Y-91160241D01*
X55118000Y-91392759D01*
X54962637Y-91160241D01*
X54762759Y-90960363D01*
X54527727Y-90803320D01*
X54266574Y-90695147D01*
X53989335Y-90640000D01*
X53706665Y-90640000D01*
X53429426Y-90695147D01*
X53168273Y-90803320D01*
X52933241Y-90960363D01*
X52734643Y-91158961D01*
X52733812Y-91150518D01*
X52697502Y-91030820D01*
X52638537Y-90920506D01*
X52559185Y-90823815D01*
X52462494Y-90744463D01*
X52352180Y-90685498D01*
X52232482Y-90649188D01*
X52108000Y-90636928D01*
X50508000Y-90636928D01*
X50383518Y-90649188D01*
X50263820Y-90685498D01*
X50153506Y-90744463D01*
X50056815Y-90823815D01*
X49977463Y-90920506D01*
X49918498Y-91030820D01*
X49882188Y-91150518D01*
X49869928Y-91275000D01*
X49682000Y-91275000D01*
X49682000Y-84313665D01*
X49873000Y-84313665D01*
X49873000Y-84596335D01*
X49928147Y-84873574D01*
X50036320Y-85134727D01*
X50193363Y-85369759D01*
X50393241Y-85569637D01*
X50628273Y-85726680D01*
X50889426Y-85834853D01*
X51166665Y-85890000D01*
X51449335Y-85890000D01*
X51726574Y-85834853D01*
X51987727Y-85726680D01*
X52222759Y-85569637D01*
X52422637Y-85369759D01*
X52578000Y-85137241D01*
X52733363Y-85369759D01*
X52933241Y-85569637D01*
X53168273Y-85726680D01*
X53429426Y-85834853D01*
X53706665Y-85890000D01*
X53989335Y-85890000D01*
X54266574Y-85834853D01*
X54527727Y-85726680D01*
X54762759Y-85569637D01*
X54962637Y-85369759D01*
X55118000Y-85137241D01*
X55273363Y-85369759D01*
X55473241Y-85569637D01*
X55708273Y-85726680D01*
X55969426Y-85834853D01*
X56246665Y-85890000D01*
X56529335Y-85890000D01*
X56806574Y-85834853D01*
X57067727Y-85726680D01*
X57302759Y-85569637D01*
X57502637Y-85369759D01*
X57658000Y-85137241D01*
X57813363Y-85369759D01*
X58013241Y-85569637D01*
X58248273Y-85726680D01*
X58509426Y-85834853D01*
X58786665Y-85890000D01*
X59069335Y-85890000D01*
X59346574Y-85834853D01*
X59607727Y-85726680D01*
X59842759Y-85569637D01*
X60042637Y-85369759D01*
X60122074Y-85250872D01*
X70536000Y-85250872D01*
X70536000Y-85691128D01*
X70621890Y-86122925D01*
X70790369Y-86529669D01*
X71034962Y-86895729D01*
X71346271Y-87207038D01*
X71712331Y-87451631D01*
X72119075Y-87620110D01*
X72550872Y-87706000D01*
X72991128Y-87706000D01*
X73422925Y-87620110D01*
X73829669Y-87451631D01*
X74195729Y-87207038D01*
X74507038Y-86895729D01*
X74751631Y-86529669D01*
X74920110Y-86122925D01*
X75006000Y-85691128D01*
X75006000Y-85250872D01*
X74939257Y-84915330D01*
X87099278Y-84915330D01*
X87189147Y-85161123D01*
X87325241Y-85384660D01*
X87502330Y-85577351D01*
X87713608Y-85731792D01*
X87950956Y-85842047D01*
X88058671Y-85874716D01*
X88265000Y-85751374D01*
X88265000Y-84709000D01*
X88519000Y-84709000D01*
X88519000Y-85751374D01*
X88725329Y-85874716D01*
X88833044Y-85842047D01*
X89070392Y-85731792D01*
X89281670Y-85577351D01*
X89458759Y-85384660D01*
X89594853Y-85161123D01*
X89684722Y-84915330D01*
X90274278Y-84915330D01*
X90364147Y-85161123D01*
X90500241Y-85384660D01*
X90677330Y-85577351D01*
X90888608Y-85731792D01*
X91125956Y-85842047D01*
X91233671Y-85874716D01*
X91440000Y-85751374D01*
X91440000Y-84709000D01*
X91694000Y-84709000D01*
X91694000Y-85751374D01*
X91900329Y-85874716D01*
X92008044Y-85842047D01*
X92245392Y-85731792D01*
X92456670Y-85577351D01*
X92633759Y-85384660D01*
X92769853Y-85161123D01*
X92859722Y-84915330D01*
X93424278Y-84915330D01*
X93514147Y-85161123D01*
X93650241Y-85384660D01*
X93827330Y-85577351D01*
X94038608Y-85731792D01*
X94275956Y-85842047D01*
X94383671Y-85874716D01*
X94590000Y-85751374D01*
X94590000Y-84709000D01*
X94844000Y-84709000D01*
X94844000Y-85751374D01*
X95050329Y-85874716D01*
X95158044Y-85842047D01*
X95395392Y-85731792D01*
X95606670Y-85577351D01*
X95783759Y-85384660D01*
X95919853Y-85161123D01*
X96009722Y-84915330D01*
X96574278Y-84915330D01*
X96664147Y-85161123D01*
X96800241Y-85384660D01*
X96977330Y-85577351D01*
X97188608Y-85731792D01*
X97425956Y-85842047D01*
X97533671Y-85874716D01*
X97740000Y-85751374D01*
X97740000Y-84709000D01*
X97994000Y-84709000D01*
X97994000Y-85751374D01*
X98200329Y-85874716D01*
X98308044Y-85842047D01*
X98545392Y-85731792D01*
X98756670Y-85577351D01*
X98933759Y-85384660D01*
X99069853Y-85161123D01*
X99159722Y-84915330D01*
X99037201Y-84709000D01*
X97994000Y-84709000D01*
X97740000Y-84709000D01*
X96696799Y-84709000D01*
X96574278Y-84915330D01*
X96009722Y-84915330D01*
X95887201Y-84709000D01*
X94844000Y-84709000D01*
X94590000Y-84709000D01*
X93546799Y-84709000D01*
X93424278Y-84915330D01*
X92859722Y-84915330D01*
X92737201Y-84709000D01*
X91694000Y-84709000D01*
X91440000Y-84709000D01*
X90396799Y-84709000D01*
X90274278Y-84915330D01*
X89684722Y-84915330D01*
X89562201Y-84709000D01*
X88519000Y-84709000D01*
X88265000Y-84709000D01*
X87221799Y-84709000D01*
X87099278Y-84915330D01*
X74939257Y-84915330D01*
X74920110Y-84819075D01*
X74751631Y-84412331D01*
X74642277Y-84248670D01*
X87099278Y-84248670D01*
X87221799Y-84455000D01*
X88265000Y-84455000D01*
X88265000Y-83412626D01*
X88519000Y-83412626D01*
X88519000Y-84455000D01*
X89562201Y-84455000D01*
X89684722Y-84248670D01*
X90274278Y-84248670D01*
X90396799Y-84455000D01*
X91440000Y-84455000D01*
X91440000Y-83412626D01*
X91694000Y-83412626D01*
X91694000Y-84455000D01*
X92737201Y-84455000D01*
X92859722Y-84248670D01*
X93424278Y-84248670D01*
X93546799Y-84455000D01*
X94590000Y-84455000D01*
X94590000Y-83412626D01*
X94844000Y-83412626D01*
X94844000Y-84455000D01*
X95887201Y-84455000D01*
X96009722Y-84248670D01*
X96574278Y-84248670D01*
X96696799Y-84455000D01*
X97740000Y-84455000D01*
X97740000Y-83412626D01*
X97994000Y-83412626D01*
X97994000Y-84455000D01*
X99037201Y-84455000D01*
X99159722Y-84248670D01*
X99069853Y-84002877D01*
X98933759Y-83779340D01*
X98756670Y-83586649D01*
X98545392Y-83432208D01*
X98308044Y-83321953D01*
X98200329Y-83289284D01*
X97994000Y-83412626D01*
X97740000Y-83412626D01*
X97533671Y-83289284D01*
X97425956Y-83321953D01*
X97188608Y-83432208D01*
X96977330Y-83586649D01*
X96800241Y-83779340D01*
X96664147Y-84002877D01*
X96574278Y-84248670D01*
X96009722Y-84248670D01*
X95919853Y-84002877D01*
X95783759Y-83779340D01*
X95606670Y-83586649D01*
X95395392Y-83432208D01*
X95158044Y-83321953D01*
X95050329Y-83289284D01*
X94844000Y-83412626D01*
X94590000Y-83412626D01*
X94383671Y-83289284D01*
X94275956Y-83321953D01*
X94038608Y-83432208D01*
X93827330Y-83586649D01*
X93650241Y-83779340D01*
X93514147Y-84002877D01*
X93424278Y-84248670D01*
X92859722Y-84248670D01*
X92769853Y-84002877D01*
X92633759Y-83779340D01*
X92456670Y-83586649D01*
X92245392Y-83432208D01*
X92008044Y-83321953D01*
X91900329Y-83289284D01*
X91694000Y-83412626D01*
X91440000Y-83412626D01*
X91233671Y-83289284D01*
X91125956Y-83321953D01*
X90888608Y-83432208D01*
X90677330Y-83586649D01*
X90500241Y-83779340D01*
X90364147Y-84002877D01*
X90274278Y-84248670D01*
X89684722Y-84248670D01*
X89594853Y-84002877D01*
X89458759Y-83779340D01*
X89281670Y-83586649D01*
X89070392Y-83432208D01*
X88833044Y-83321953D01*
X88725329Y-83289284D01*
X88519000Y-83412626D01*
X88265000Y-83412626D01*
X88058671Y-83289284D01*
X87950956Y-83321953D01*
X87713608Y-83432208D01*
X87502330Y-83586649D01*
X87325241Y-83779340D01*
X87189147Y-84002877D01*
X87099278Y-84248670D01*
X74642277Y-84248670D01*
X74507038Y-84046271D01*
X74195729Y-83734962D01*
X73829669Y-83490369D01*
X73422925Y-83321890D01*
X72991128Y-83236000D01*
X72550872Y-83236000D01*
X72119075Y-83321890D01*
X71712331Y-83490369D01*
X71346271Y-83734962D01*
X71034962Y-84046271D01*
X70790369Y-84412331D01*
X70621890Y-84819075D01*
X70536000Y-85250872D01*
X60122074Y-85250872D01*
X60199680Y-85134727D01*
X60307853Y-84873574D01*
X60363000Y-84596335D01*
X60363000Y-84313665D01*
X60307853Y-84036426D01*
X60199680Y-83775273D01*
X60042637Y-83540241D01*
X59842759Y-83340363D01*
X59607727Y-83183320D01*
X59346574Y-83075147D01*
X59069335Y-83020000D01*
X58786665Y-83020000D01*
X58509426Y-83075147D01*
X58248273Y-83183320D01*
X58013241Y-83340363D01*
X57813363Y-83540241D01*
X57658000Y-83772759D01*
X57502637Y-83540241D01*
X57302759Y-83340363D01*
X57067727Y-83183320D01*
X56806574Y-83075147D01*
X56529335Y-83020000D01*
X56246665Y-83020000D01*
X55969426Y-83075147D01*
X55708273Y-83183320D01*
X55473241Y-83340363D01*
X55273363Y-83540241D01*
X55118000Y-83772759D01*
X54962637Y-83540241D01*
X54762759Y-83340363D01*
X54527727Y-83183320D01*
X54266574Y-83075147D01*
X53989335Y-83020000D01*
X53706665Y-83020000D01*
X53429426Y-83075147D01*
X53168273Y-83183320D01*
X52933241Y-83340363D01*
X52733363Y-83540241D01*
X52578000Y-83772759D01*
X52422637Y-83540241D01*
X52222759Y-83340363D01*
X51987727Y-83183320D01*
X51726574Y-83075147D01*
X51449335Y-83020000D01*
X51166665Y-83020000D01*
X50889426Y-83075147D01*
X50628273Y-83183320D01*
X50393241Y-83340363D01*
X50193363Y-83540241D01*
X50036320Y-83775273D01*
X49928147Y-84036426D01*
X49873000Y-84313665D01*
X49682000Y-84313665D01*
X49682000Y-82448000D01*
X243180000Y-82448000D01*
X243180001Y-120371184D01*
X243180001Y-120371184D01*
G37*
X243180001Y-120371184D02*
X50419587Y-120498000D01*
X49682000Y-120498000D01*
X49682000Y-111039000D01*
X51091928Y-111039000D01*
X51091928Y-112989000D01*
X51104188Y-113113482D01*
X51140498Y-113233180D01*
X51199463Y-113343494D01*
X51278815Y-113440185D01*
X51375506Y-113519537D01*
X51485820Y-113578502D01*
X51605518Y-113614812D01*
X51730000Y-113627072D01*
X53680000Y-113627072D01*
X53804482Y-113614812D01*
X53924180Y-113578502D01*
X54034494Y-113519537D01*
X54131185Y-113440185D01*
X54210537Y-113343494D01*
X54269502Y-113233180D01*
X54305812Y-113113482D01*
X54318072Y-112989000D01*
X54318072Y-111855429D01*
X56095000Y-111855429D01*
X56095000Y-112172571D01*
X56156871Y-112483620D01*
X56278237Y-112776621D01*
X56454431Y-113040315D01*
X56678685Y-113264569D01*
X56942379Y-113440763D01*
X57235380Y-113562129D01*
X57546429Y-113624000D01*
X57863571Y-113624000D01*
X58174620Y-113562129D01*
X58467621Y-113440763D01*
X58731315Y-113264569D01*
X58955569Y-113040315D01*
X59131763Y-112776621D01*
X59253129Y-112483620D01*
X59315000Y-112172571D01*
X59315000Y-111855429D01*
X61095000Y-111855429D01*
X61095000Y-112172571D01*
X61156871Y-112483620D01*
X61278237Y-112776621D01*
X61454431Y-113040315D01*
X61678685Y-113264569D01*
X61942379Y-113440763D01*
X62235380Y-113562129D01*
X62546429Y-113624000D01*
X62863571Y-113624000D01*
X63174620Y-113562129D01*
X63467621Y-113440763D01*
X63731315Y-113264569D01*
X63955569Y-113040315D01*
X64131763Y-112776621D01*
X64253129Y-112483620D01*
X64315000Y-112172571D01*
X64315000Y-111855429D01*
X66095000Y-111855429D01*
X66095000Y-112172571D01*
X66156871Y-112483620D01*
X66278237Y-112776621D01*
X66454431Y-113040315D01*
X66678685Y-113264569D01*
X66942379Y-113440763D01*
X67235380Y-113562129D01*
X67546429Y-113624000D01*
X67863571Y-113624000D01*
X68174620Y-113562129D01*
X68467621Y-113440763D01*
X68731315Y-113264569D01*
X68955569Y-113040315D01*
X69131763Y-112776621D01*
X69253129Y-112483620D01*
X69315000Y-112172571D01*
X69315000Y-111855429D01*
X71095000Y-111855429D01*
X71095000Y-112172571D01*
X71156871Y-112483620D01*
X71278237Y-112776621D01*
X71454431Y-113040315D01*
X71678685Y-113264569D01*
X71942379Y-113440763D01*
X72235380Y-113562129D01*
X72546429Y-113624000D01*
X72863571Y-113624000D01*
X73174620Y-113562129D01*
X73467621Y-113440763D01*
X73731315Y-113264569D01*
X73955569Y-113040315D01*
X74131763Y-112776621D01*
X74253129Y-112483620D01*
X74315000Y-112172571D01*
X74315000Y-111855429D01*
X76095000Y-111855429D01*
X76095000Y-112172571D01*
X76156871Y-112483620D01*
X76278237Y-112776621D01*
X76454431Y-113040315D01*
X76678685Y-113264569D01*
X76942379Y-113440763D01*
X77235380Y-113562129D01*
X77546429Y-113624000D01*
X77863571Y-113624000D01*
X78174620Y-113562129D01*
X78467621Y-113440763D01*
X78731315Y-113264569D01*
X78955569Y-113040315D01*
X79131763Y-112776621D01*
X79253129Y-112483620D01*
X79315000Y-112172571D01*
X79315000Y-111855429D01*
X81095000Y-111855429D01*
X81095000Y-112172571D01*
X81156871Y-112483620D01*
X81278237Y-112776621D01*
X81454431Y-113040315D01*
X81678685Y-113264569D01*
X81942379Y-113440763D01*
X82235380Y-113562129D01*
X82546429Y-113624000D01*
X82863571Y-113624000D01*
X83174620Y-113562129D01*
X83467621Y-113440763D01*
X83731315Y-113264569D01*
X83955569Y-113040315D01*
X84131763Y-112776621D01*
X84253129Y-112483620D01*
X84315000Y-112172571D01*
X84315000Y-111855429D01*
X86095000Y-111855429D01*
X86095000Y-112172571D01*
X86156871Y-112483620D01*
X86278237Y-112776621D01*
X86454431Y-113040315D01*
X86678685Y-113264569D01*
X86942379Y-113440763D01*
X87235380Y-113562129D01*
X87546429Y-113624000D01*
X87863571Y-113624000D01*
X88174620Y-113562129D01*
X88467621Y-113440763D01*
X88731315Y-113264569D01*
X88955569Y-113040315D01*
X89131763Y-112776621D01*
X89253129Y-112483620D01*
X89315000Y-112172571D01*
X89315000Y-111855429D01*
X91095000Y-111855429D01*
X91095000Y-112172571D01*
X91156871Y-112483620D01*
X91278237Y-112776621D01*
X91454431Y-113040315D01*
X91678685Y-113264569D01*
X91942379Y-113440763D01*
X92235380Y-113562129D01*
X92546429Y-113624000D01*
X92863571Y-113624000D01*
X93174620Y-113562129D01*
X93467621Y-113440763D01*
X93731315Y-113264569D01*
X93955569Y-113040315D01*
X94131763Y-112776621D01*
X94253129Y-112483620D01*
X94315000Y-112172571D01*
X94315000Y-111855429D01*
X96095000Y-111855429D01*
X96095000Y-112172571D01*
X96156871Y-112483620D01*
X96278237Y-112776621D01*
X96454431Y-113040315D01*
X96678685Y-113264569D01*
X96942379Y-113440763D01*
X97235380Y-113562129D01*
X97546429Y-113624000D01*
X97863571Y-113624000D01*
X98174620Y-113562129D01*
X98467621Y-113440763D01*
X98731315Y-113264569D01*
X98955569Y-113040315D01*
X99131763Y-112776621D01*
X99253129Y-112483620D01*
X99315000Y-112172571D01*
X99315000Y-111855429D01*
X99253129Y-111544380D01*
X99131763Y-111251379D01*
X98989857Y-111039000D01*
X101891928Y-111039000D01*
X101891928Y-112989000D01*
X101904188Y-113113482D01*
X101940498Y-113233180D01*
X101999463Y-113343494D01*
X102078815Y-113440185D01*
X102175506Y-113519537D01*
X102285820Y-113578502D01*
X102405518Y-113614812D01*
X102530000Y-113627072D01*
X104480000Y-113627072D01*
X104604482Y-113614812D01*
X104724180Y-113578502D01*
X104834494Y-113519537D01*
X104931185Y-113440185D01*
X105010537Y-113343494D01*
X105069502Y-113233180D01*
X105105812Y-113113482D01*
X105118072Y-112989000D01*
X105118072Y-111855429D01*
X106895000Y-111855429D01*
X106895000Y-112172571D01*
X106956871Y-112483620D01*
X107078237Y-112776621D01*
X107254431Y-113040315D01*
X107478685Y-113264569D01*
X107742379Y-113440763D01*
X108035380Y-113562129D01*
X108346429Y-113624000D01*
X108663571Y-113624000D01*
X108974620Y-113562129D01*
X109267621Y-113440763D01*
X109531315Y-113264569D01*
X109755569Y-113040315D01*
X109931763Y-112776621D01*
X110053129Y-112483620D01*
X110115000Y-112172571D01*
X110115000Y-111855429D01*
X111895000Y-111855429D01*
X111895000Y-112172571D01*
X111956871Y-112483620D01*
X112078237Y-112776621D01*
X112254431Y-113040315D01*
X112478685Y-113264569D01*
X112742379Y-113440763D01*
X113035380Y-113562129D01*
X113346429Y-113624000D01*
X113663571Y-113624000D01*
X113974620Y-113562129D01*
X114267621Y-113440763D01*
X114531315Y-113264569D01*
X114755569Y-113040315D01*
X114931763Y-112776621D01*
X115053129Y-112483620D01*
X115115000Y-112172571D01*
X115115000Y-111855429D01*
X116895000Y-111855429D01*
X116895000Y-112172571D01*
X116956871Y-112483620D01*
X117078237Y-112776621D01*
X117254431Y-113040315D01*
X117478685Y-113264569D01*
X117742379Y-113440763D01*
X118035380Y-113562129D01*
X118346429Y-113624000D01*
X118663571Y-113624000D01*
X118974620Y-113562129D01*
X119267621Y-113440763D01*
X119531315Y-113264569D01*
X119755569Y-113040315D01*
X119931763Y-112776621D01*
X120053129Y-112483620D01*
X120115000Y-112172571D01*
X120115000Y-111855429D01*
X121895000Y-111855429D01*
X121895000Y-112172571D01*
X121956871Y-112483620D01*
X122078237Y-112776621D01*
X122254431Y-113040315D01*
X122478685Y-113264569D01*
X122742379Y-113440763D01*
X123035380Y-113562129D01*
X123346429Y-113624000D01*
X123663571Y-113624000D01*
X123974620Y-113562129D01*
X124267621Y-113440763D01*
X124531315Y-113264569D01*
X124755569Y-113040315D01*
X124931763Y-112776621D01*
X125053129Y-112483620D01*
X125115000Y-112172571D01*
X125115000Y-111855429D01*
X126895000Y-111855429D01*
X126895000Y-112172571D01*
X126956871Y-112483620D01*
X127078237Y-112776621D01*
X127254431Y-113040315D01*
X127478685Y-113264569D01*
X127742379Y-113440763D01*
X128035380Y-113562129D01*
X128346429Y-113624000D01*
X128663571Y-113624000D01*
X128974620Y-113562129D01*
X129267621Y-113440763D01*
X129531315Y-113264569D01*
X129755569Y-113040315D01*
X129931763Y-112776621D01*
X130053129Y-112483620D01*
X130115000Y-112172571D01*
X130115000Y-111855429D01*
X131895000Y-111855429D01*
X131895000Y-112172571D01*
X131956871Y-112483620D01*
X132078237Y-112776621D01*
X132254431Y-113040315D01*
X132478685Y-113264569D01*
X132742379Y-113440763D01*
X133035380Y-113562129D01*
X133346429Y-113624000D01*
X133663571Y-113624000D01*
X133974620Y-113562129D01*
X134267621Y-113440763D01*
X134531315Y-113264569D01*
X134755569Y-113040315D01*
X134931763Y-112776621D01*
X135053129Y-112483620D01*
X135115000Y-112172571D01*
X135115000Y-111855429D01*
X136895000Y-111855429D01*
X136895000Y-112172571D01*
X136956871Y-112483620D01*
X137078237Y-112776621D01*
X137254431Y-113040315D01*
X137478685Y-113264569D01*
X137742379Y-113440763D01*
X138035380Y-113562129D01*
X138346429Y-113624000D01*
X138663571Y-113624000D01*
X138974620Y-113562129D01*
X139267621Y-113440763D01*
X139531315Y-113264569D01*
X139755569Y-113040315D01*
X139931763Y-112776621D01*
X140053129Y-112483620D01*
X140115000Y-112172571D01*
X140115000Y-111855429D01*
X140053129Y-111544380D01*
X139931763Y-111251379D01*
X139789857Y-111039000D01*
X142785928Y-111039000D01*
X142785928Y-112989000D01*
X142798188Y-113113482D01*
X142834498Y-113233180D01*
X142893463Y-113343494D01*
X142972815Y-113440185D01*
X143069506Y-113519537D01*
X143179820Y-113578502D01*
X143299518Y-113614812D01*
X143424000Y-113627072D01*
X145374000Y-113627072D01*
X145498482Y-113614812D01*
X145618180Y-113578502D01*
X145728494Y-113519537D01*
X145825185Y-113440185D01*
X145904537Y-113343494D01*
X145963502Y-113233180D01*
X145994320Y-113131584D01*
X148461021Y-113131584D01*
X148553766Y-113393429D01*
X148839120Y-113531820D01*
X149145990Y-113611883D01*
X149462584Y-113630540D01*
X149776733Y-113587074D01*
X150076367Y-113483156D01*
X150244234Y-113393429D01*
X150336979Y-113131584D01*
X149399000Y-112193605D01*
X148461021Y-113131584D01*
X145994320Y-113131584D01*
X145999812Y-113113482D01*
X146012072Y-112989000D01*
X146012072Y-112077584D01*
X147782460Y-112077584D01*
X147825926Y-112391733D01*
X147929844Y-112691367D01*
X148019571Y-112859234D01*
X148281416Y-112951979D01*
X149219395Y-112014000D01*
X149578605Y-112014000D01*
X150516584Y-112951979D01*
X150778429Y-112859234D01*
X150916820Y-112573880D01*
X150996883Y-112267010D01*
X151015540Y-111950416D01*
X151002398Y-111855429D01*
X152789000Y-111855429D01*
X152789000Y-112172571D01*
X152850871Y-112483620D01*
X152972237Y-112776621D01*
X153148431Y-113040315D01*
X153372685Y-113264569D01*
X153636379Y-113440763D01*
X153929380Y-113562129D01*
X154240429Y-113624000D01*
X154557571Y-113624000D01*
X154868620Y-113562129D01*
X155161621Y-113440763D01*
X155425315Y-113264569D01*
X155649569Y-113040315D01*
X155825763Y-112776621D01*
X155947129Y-112483620D01*
X156009000Y-112172571D01*
X156009000Y-111855429D01*
X157789000Y-111855429D01*
X157789000Y-112172571D01*
X157850871Y-112483620D01*
X157972237Y-112776621D01*
X158148431Y-113040315D01*
X158372685Y-113264569D01*
X158636379Y-113440763D01*
X158929380Y-113562129D01*
X159240429Y-113624000D01*
X159557571Y-113624000D01*
X159868620Y-113562129D01*
X160161621Y-113440763D01*
X160425315Y-113264569D01*
X160649569Y-113040315D01*
X160825763Y-112776621D01*
X160947129Y-112483620D01*
X161009000Y-112172571D01*
X161009000Y-111855429D01*
X162789000Y-111855429D01*
X162789000Y-112172571D01*
X162850871Y-112483620D01*
X162972237Y-112776621D01*
X163148431Y-113040315D01*
X163372685Y-113264569D01*
X163636379Y-113440763D01*
X163929380Y-113562129D01*
X164240429Y-113624000D01*
X164557571Y-113624000D01*
X164868620Y-113562129D01*
X165161621Y-113440763D01*
X165425315Y-113264569D01*
X165649569Y-113040315D01*
X165825763Y-112776621D01*
X165947129Y-112483620D01*
X166009000Y-112172571D01*
X166009000Y-111855429D01*
X167789000Y-111855429D01*
X167789000Y-112172571D01*
X167850871Y-112483620D01*
X167972237Y-112776621D01*
X168148431Y-113040315D01*
X168372685Y-113264569D01*
X168636379Y-113440763D01*
X168929380Y-113562129D01*
X169240429Y-113624000D01*
X169557571Y-113624000D01*
X169868620Y-113562129D01*
X170161621Y-113440763D01*
X170425315Y-113264569D01*
X170649569Y-113040315D01*
X170825763Y-112776621D01*
X170947129Y-112483620D01*
X171009000Y-112172571D01*
X171009000Y-111855429D01*
X172789000Y-111855429D01*
X172789000Y-112172571D01*
X172850871Y-112483620D01*
X172972237Y-112776621D01*
X173148431Y-113040315D01*
X173372685Y-113264569D01*
X173636379Y-113440763D01*
X173929380Y-113562129D01*
X174240429Y-113624000D01*
X174557571Y-113624000D01*
X174868620Y-113562129D01*
X175161621Y-113440763D01*
X175425315Y-113264569D01*
X175649569Y-113040315D01*
X175825763Y-112776621D01*
X175947129Y-112483620D01*
X176009000Y-112172571D01*
X176009000Y-111855429D01*
X177789000Y-111855429D01*
X177789000Y-112172571D01*
X177850871Y-112483620D01*
X177972237Y-112776621D01*
X178148431Y-113040315D01*
X178372685Y-113264569D01*
X178636379Y-113440763D01*
X178929380Y-113562129D01*
X179240429Y-113624000D01*
X179557571Y-113624000D01*
X179868620Y-113562129D01*
X180161621Y-113440763D01*
X180425315Y-113264569D01*
X180649569Y-113040315D01*
X180825763Y-112776621D01*
X180947129Y-112483620D01*
X181009000Y-112172571D01*
X181009000Y-111855429D01*
X182789000Y-111855429D01*
X182789000Y-112172571D01*
X182850871Y-112483620D01*
X182972237Y-112776621D01*
X183148431Y-113040315D01*
X183372685Y-113264569D01*
X183636379Y-113440763D01*
X183929380Y-113562129D01*
X184240429Y-113624000D01*
X184557571Y-113624000D01*
X184868620Y-113562129D01*
X185161621Y-113440763D01*
X185425315Y-113264569D01*
X185649569Y-113040315D01*
X185825763Y-112776621D01*
X185947129Y-112483620D01*
X186009000Y-112172571D01*
X186009000Y-111855429D01*
X187789000Y-111855429D01*
X187789000Y-112172571D01*
X187850871Y-112483620D01*
X187972237Y-112776621D01*
X188148431Y-113040315D01*
X188372685Y-113264569D01*
X188636379Y-113440763D01*
X188929380Y-113562129D01*
X189240429Y-113624000D01*
X189557571Y-113624000D01*
X189868620Y-113562129D01*
X190161621Y-113440763D01*
X190425315Y-113264569D01*
X190649569Y-113040315D01*
X190825763Y-112776621D01*
X190947129Y-112483620D01*
X191009000Y-112172571D01*
X191009000Y-111855429D01*
X190947129Y-111544380D01*
X190825763Y-111251379D01*
X190683857Y-111039000D01*
X193585928Y-111039000D01*
X193585928Y-112989000D01*
X193598188Y-113113482D01*
X193634498Y-113233180D01*
X193693463Y-113343494D01*
X193772815Y-113440185D01*
X193869506Y-113519537D01*
X193979820Y-113578502D01*
X194099518Y-113614812D01*
X194224000Y-113627072D01*
X196174000Y-113627072D01*
X196298482Y-113614812D01*
X196418180Y-113578502D01*
X196528494Y-113519537D01*
X196625185Y-113440185D01*
X196704537Y-113343494D01*
X196763502Y-113233180D01*
X196799812Y-113113482D01*
X196812072Y-112989000D01*
X196812072Y-111855429D01*
X198589000Y-111855429D01*
X198589000Y-112172571D01*
X198650871Y-112483620D01*
X198772237Y-112776621D01*
X198948431Y-113040315D01*
X199172685Y-113264569D01*
X199436379Y-113440763D01*
X199729380Y-113562129D01*
X200040429Y-113624000D01*
X200357571Y-113624000D01*
X200668620Y-113562129D01*
X200961621Y-113440763D01*
X201225315Y-113264569D01*
X201449569Y-113040315D01*
X201625763Y-112776621D01*
X201747129Y-112483620D01*
X201809000Y-112172571D01*
X201809000Y-111855429D01*
X203589000Y-111855429D01*
X203589000Y-112172571D01*
X203650871Y-112483620D01*
X203772237Y-112776621D01*
X203948431Y-113040315D01*
X204172685Y-113264569D01*
X204436379Y-113440763D01*
X204729380Y-113562129D01*
X205040429Y-113624000D01*
X205357571Y-113624000D01*
X205668620Y-113562129D01*
X205961621Y-113440763D01*
X206225315Y-113264569D01*
X206449569Y-113040315D01*
X206625763Y-112776621D01*
X206747129Y-112483620D01*
X206809000Y-112172571D01*
X206809000Y-111855429D01*
X208589000Y-111855429D01*
X208589000Y-112172571D01*
X208650871Y-112483620D01*
X208772237Y-112776621D01*
X208948431Y-113040315D01*
X209172685Y-113264569D01*
X209436379Y-113440763D01*
X209729380Y-113562129D01*
X210040429Y-113624000D01*
X210357571Y-113624000D01*
X210668620Y-113562129D01*
X210961621Y-113440763D01*
X211225315Y-113264569D01*
X211449569Y-113040315D01*
X211625763Y-112776621D01*
X211747129Y-112483620D01*
X211809000Y-112172571D01*
X211809000Y-111855429D01*
X213589000Y-111855429D01*
X213589000Y-112172571D01*
X213650871Y-112483620D01*
X213772237Y-112776621D01*
X213948431Y-113040315D01*
X214172685Y-113264569D01*
X214436379Y-113440763D01*
X214729380Y-113562129D01*
X215040429Y-113624000D01*
X215357571Y-113624000D01*
X215668620Y-113562129D01*
X215961621Y-113440763D01*
X216225315Y-113264569D01*
X216449569Y-113040315D01*
X216625763Y-112776621D01*
X216747129Y-112483620D01*
X216809000Y-112172571D01*
X216809000Y-111855429D01*
X218589000Y-111855429D01*
X218589000Y-112172571D01*
X218650871Y-112483620D01*
X218772237Y-112776621D01*
X218948431Y-113040315D01*
X219172685Y-113264569D01*
X219436379Y-113440763D01*
X219729380Y-113562129D01*
X220040429Y-113624000D01*
X220357571Y-113624000D01*
X220668620Y-113562129D01*
X220961621Y-113440763D01*
X221225315Y-113264569D01*
X221449569Y-113040315D01*
X221625763Y-112776621D01*
X221747129Y-112483620D01*
X221809000Y-112172571D01*
X221809000Y-111855429D01*
X223589000Y-111855429D01*
X223589000Y-112172571D01*
X223650871Y-112483620D01*
X223772237Y-112776621D01*
X223948431Y-113040315D01*
X224172685Y-113264569D01*
X224436379Y-113440763D01*
X224729380Y-113562129D01*
X225040429Y-113624000D01*
X225357571Y-113624000D01*
X225668620Y-113562129D01*
X225961621Y-113440763D01*
X226225315Y-113264569D01*
X226449569Y-113040315D01*
X226625763Y-112776621D01*
X226747129Y-112483620D01*
X226809000Y-112172571D01*
X226809000Y-111855429D01*
X228589000Y-111855429D01*
X228589000Y-112172571D01*
X228650871Y-112483620D01*
X228772237Y-112776621D01*
X228948431Y-113040315D01*
X229172685Y-113264569D01*
X229436379Y-113440763D01*
X229729380Y-113562129D01*
X230040429Y-113624000D01*
X230357571Y-113624000D01*
X230668620Y-113562129D01*
X230961621Y-113440763D01*
X231225315Y-113264569D01*
X231449569Y-113040315D01*
X231625763Y-112776621D01*
X231747129Y-112483620D01*
X231809000Y-112172571D01*
X231809000Y-111855429D01*
X233589000Y-111855429D01*
X233589000Y-112172571D01*
X233650871Y-112483620D01*
X233772237Y-112776621D01*
X233948431Y-113040315D01*
X234172685Y-113264569D01*
X234436379Y-113440763D01*
X234729380Y-113562129D01*
X235040429Y-113624000D01*
X235357571Y-113624000D01*
X235668620Y-113562129D01*
X235961621Y-113440763D01*
X236225315Y-113264569D01*
X236449569Y-113040315D01*
X236625763Y-112776621D01*
X236747129Y-112483620D01*
X236809000Y-112172571D01*
X236809000Y-111855429D01*
X238589000Y-111855429D01*
X238589000Y-112172571D01*
X238650871Y-112483620D01*
X238772237Y-112776621D01*
X238948431Y-113040315D01*
X239172685Y-113264569D01*
X239436379Y-113440763D01*
X239729380Y-113562129D01*
X240040429Y-113624000D01*
X240357571Y-113624000D01*
X240668620Y-113562129D01*
X240961621Y-113440763D01*
X241225315Y-113264569D01*
X241449569Y-113040315D01*
X241625763Y-112776621D01*
X241747129Y-112483620D01*
X241809000Y-112172571D01*
X241809000Y-111855429D01*
X241747129Y-111544380D01*
X241625763Y-111251379D01*
X241449569Y-110987685D01*
X241225315Y-110763431D01*
X240961621Y-110587237D01*
X240668620Y-110465871D01*
X240357571Y-110404000D01*
X240040429Y-110404000D01*
X239729380Y-110465871D01*
X239436379Y-110587237D01*
X239172685Y-110763431D01*
X238948431Y-110987685D01*
X238772237Y-111251379D01*
X238650871Y-111544380D01*
X238589000Y-111855429D01*
X236809000Y-111855429D01*
X236747129Y-111544380D01*
X236625763Y-111251379D01*
X236449569Y-110987685D01*
X236225315Y-110763431D01*
X235961621Y-110587237D01*
X235668620Y-110465871D01*
X235357571Y-110404000D01*
X235040429Y-110404000D01*
X234729380Y-110465871D01*
X234436379Y-110587237D01*
X234172685Y-110763431D01*
X233948431Y-110987685D01*
X233772237Y-111251379D01*
X233650871Y-111544380D01*
X233589000Y-111855429D01*
X231809000Y-111855429D01*
X231747129Y-111544380D01*
X231625763Y-111251379D01*
X231449569Y-110987685D01*
X231225315Y-110763431D01*
X230961621Y-110587237D01*
X230668620Y-110465871D01*
X230357571Y-110404000D01*
X230040429Y-110404000D01*
X229729380Y-110465871D01*
X229436379Y-110587237D01*
X229172685Y-110763431D01*
X228948431Y-110987685D01*
X228772237Y-111251379D01*
X228650871Y-111544380D01*
X228589000Y-111855429D01*
X226809000Y-111855429D01*
X226747129Y-111544380D01*
X226625763Y-111251379D01*
X226449569Y-110987685D01*
X226225315Y-110763431D01*
X225961621Y-110587237D01*
X225668620Y-110465871D01*
X225357571Y-110404000D01*
X225040429Y-110404000D01*
X224729380Y-110465871D01*
X224436379Y-110587237D01*
X224172685Y-110763431D01*
X223948431Y-110987685D01*
X223772237Y-111251379D01*
X223650871Y-111544380D01*
X223589000Y-111855429D01*
X221809000Y-111855429D01*
X221747129Y-111544380D01*
X221625763Y-111251379D01*
X221449569Y-110987685D01*
X221225315Y-110763431D01*
X220961621Y-110587237D01*
X220668620Y-110465871D01*
X220357571Y-110404000D01*
X220040429Y-110404000D01*
X219729380Y-110465871D01*
X219436379Y-110587237D01*
X219172685Y-110763431D01*
X218948431Y-110987685D01*
X218772237Y-111251379D01*
X218650871Y-111544380D01*
X218589000Y-111855429D01*
X216809000Y-111855429D01*
X216747129Y-111544380D01*
X216625763Y-111251379D01*
X216449569Y-110987685D01*
X216225315Y-110763431D01*
X215961621Y-110587237D01*
X215668620Y-110465871D01*
X215357571Y-110404000D01*
X215040429Y-110404000D01*
X214729380Y-110465871D01*
X214436379Y-110587237D01*
X214172685Y-110763431D01*
X213948431Y-110987685D01*
X213772237Y-111251379D01*
X213650871Y-111544380D01*
X213589000Y-111855429D01*
X211809000Y-111855429D01*
X211747129Y-111544380D01*
X211625763Y-111251379D01*
X211449569Y-110987685D01*
X211225315Y-110763431D01*
X210961621Y-110587237D01*
X210668620Y-110465871D01*
X210357571Y-110404000D01*
X210040429Y-110404000D01*
X209729380Y-110465871D01*
X209436379Y-110587237D01*
X209172685Y-110763431D01*
X208948431Y-110987685D01*
X208772237Y-111251379D01*
X208650871Y-111544380D01*
X208589000Y-111855429D01*
X206809000Y-111855429D01*
X206747129Y-111544380D01*
X206625763Y-111251379D01*
X206449569Y-110987685D01*
X206225315Y-110763431D01*
X205961621Y-110587237D01*
X205668620Y-110465871D01*
X205357571Y-110404000D01*
X205040429Y-110404000D01*
X204729380Y-110465871D01*
X204436379Y-110587237D01*
X204172685Y-110763431D01*
X203948431Y-110987685D01*
X203772237Y-111251379D01*
X203650871Y-111544380D01*
X203589000Y-111855429D01*
X201809000Y-111855429D01*
X201747129Y-111544380D01*
X201625763Y-111251379D01*
X201449569Y-110987685D01*
X201225315Y-110763431D01*
X200961621Y-110587237D01*
X200668620Y-110465871D01*
X200357571Y-110404000D01*
X200040429Y-110404000D01*
X199729380Y-110465871D01*
X199436379Y-110587237D01*
X199172685Y-110763431D01*
X198948431Y-110987685D01*
X198772237Y-111251379D01*
X198650871Y-111544380D01*
X198589000Y-111855429D01*
X196812072Y-111855429D01*
X196812072Y-111039000D01*
X196799812Y-110914518D01*
X196763502Y-110794820D01*
X196704537Y-110684506D01*
X196625185Y-110587815D01*
X196528494Y-110508463D01*
X196418180Y-110449498D01*
X196298482Y-110413188D01*
X196174000Y-110400928D01*
X194224000Y-110400928D01*
X194099518Y-110413188D01*
X193979820Y-110449498D01*
X193869506Y-110508463D01*
X193772815Y-110587815D01*
X193693463Y-110684506D01*
X193634498Y-110794820D01*
X193598188Y-110914518D01*
X193585928Y-111039000D01*
X190683857Y-111039000D01*
X190649569Y-110987685D01*
X190425315Y-110763431D01*
X190161621Y-110587237D01*
X189868620Y-110465871D01*
X189557571Y-110404000D01*
X189240429Y-110404000D01*
X188929380Y-110465871D01*
X188636379Y-110587237D01*
X188372685Y-110763431D01*
X188148431Y-110987685D01*
X187972237Y-111251379D01*
X187850871Y-111544380D01*
X187789000Y-111855429D01*
X186009000Y-111855429D01*
X185947129Y-111544380D01*
X185825763Y-111251379D01*
X185649569Y-110987685D01*
X185425315Y-110763431D01*
X185161621Y-110587237D01*
X184868620Y-110465871D01*
X184557571Y-110404000D01*
X184240429Y-110404000D01*
X183929380Y-110465871D01*
X183636379Y-110587237D01*
X183372685Y-110763431D01*
X183148431Y-110987685D01*
X182972237Y-111251379D01*
X182850871Y-111544380D01*
X182789000Y-111855429D01*
X181009000Y-111855429D01*
X180947129Y-111544380D01*
X180825763Y-111251379D01*
X180649569Y-110987685D01*
X180425315Y-110763431D01*
X180161621Y-110587237D01*
X179868620Y-110465871D01*
X179557571Y-110404000D01*
X179240429Y-110404000D01*
X178929380Y-110465871D01*
X178636379Y-110587237D01*
X178372685Y-110763431D01*
X178148431Y-110987685D01*
X177972237Y-111251379D01*
X177850871Y-111544380D01*
X177789000Y-111855429D01*
X176009000Y-111855429D01*
X175947129Y-111544380D01*
X175825763Y-111251379D01*
X175649569Y-110987685D01*
X175425315Y-110763431D01*
X175161621Y-110587237D01*
X174868620Y-110465871D01*
X174557571Y-110404000D01*
X174240429Y-110404000D01*
X173929380Y-110465871D01*
X173636379Y-110587237D01*
X173372685Y-110763431D01*
X173148431Y-110987685D01*
X172972237Y-111251379D01*
X172850871Y-111544380D01*
X172789000Y-111855429D01*
X171009000Y-111855429D01*
X170947129Y-111544380D01*
X170825763Y-111251379D01*
X170649569Y-110987685D01*
X170425315Y-110763431D01*
X170161621Y-110587237D01*
X169868620Y-110465871D01*
X169557571Y-110404000D01*
X169240429Y-110404000D01*
X168929380Y-110465871D01*
X168636379Y-110587237D01*
X168372685Y-110763431D01*
X168148431Y-110987685D01*
X167972237Y-111251379D01*
X167850871Y-111544380D01*
X167789000Y-111855429D01*
X166009000Y-111855429D01*
X165947129Y-111544380D01*
X165825763Y-111251379D01*
X165649569Y-110987685D01*
X165425315Y-110763431D01*
X165161621Y-110587237D01*
X164868620Y-110465871D01*
X164557571Y-110404000D01*
X164240429Y-110404000D01*
X163929380Y-110465871D01*
X163636379Y-110587237D01*
X163372685Y-110763431D01*
X163148431Y-110987685D01*
X162972237Y-111251379D01*
X162850871Y-111544380D01*
X162789000Y-111855429D01*
X161009000Y-111855429D01*
X160947129Y-111544380D01*
X160825763Y-111251379D01*
X160649569Y-110987685D01*
X160425315Y-110763431D01*
X160161621Y-110587237D01*
X159868620Y-110465871D01*
X159557571Y-110404000D01*
X159240429Y-110404000D01*
X158929380Y-110465871D01*
X158636379Y-110587237D01*
X158372685Y-110763431D01*
X158148431Y-110987685D01*
X157972237Y-111251379D01*
X157850871Y-111544380D01*
X157789000Y-111855429D01*
X156009000Y-111855429D01*
X155947129Y-111544380D01*
X155825763Y-111251379D01*
X155649569Y-110987685D01*
X155425315Y-110763431D01*
X155161621Y-110587237D01*
X154868620Y-110465871D01*
X154557571Y-110404000D01*
X154240429Y-110404000D01*
X153929380Y-110465871D01*
X153636379Y-110587237D01*
X153372685Y-110763431D01*
X153148431Y-110987685D01*
X152972237Y-111251379D01*
X152850871Y-111544380D01*
X152789000Y-111855429D01*
X151002398Y-111855429D01*
X150972074Y-111636267D01*
X150868156Y-111336633D01*
X150778429Y-111168766D01*
X150516584Y-111076021D01*
X149578605Y-112014000D01*
X149219395Y-112014000D01*
X148281416Y-111076021D01*
X148019571Y-111168766D01*
X147881180Y-111454120D01*
X147801117Y-111760990D01*
X147782460Y-112077584D01*
X146012072Y-112077584D01*
X146012072Y-111039000D01*
X145999812Y-110914518D01*
X145994321Y-110896416D01*
X148461021Y-110896416D01*
X149399000Y-111834395D01*
X150336979Y-110896416D01*
X150244234Y-110634571D01*
X149958880Y-110496180D01*
X149652010Y-110416117D01*
X149335416Y-110397460D01*
X149021267Y-110440926D01*
X148721633Y-110544844D01*
X148553766Y-110634571D01*
X148461021Y-110896416D01*
X145994321Y-110896416D01*
X145963502Y-110794820D01*
X145904537Y-110684506D01*
X145825185Y-110587815D01*
X145728494Y-110508463D01*
X145618180Y-110449498D01*
X145498482Y-110413188D01*
X145374000Y-110400928D01*
X143424000Y-110400928D01*
X143299518Y-110413188D01*
X143179820Y-110449498D01*
X143069506Y-110508463D01*
X142972815Y-110587815D01*
X142893463Y-110684506D01*
X142834498Y-110794820D01*
X142798188Y-110914518D01*
X142785928Y-111039000D01*
X139789857Y-111039000D01*
X139755569Y-110987685D01*
X139531315Y-110763431D01*
X139267621Y-110587237D01*
X138974620Y-110465871D01*
X138663571Y-110404000D01*
X138346429Y-110404000D01*
X138035380Y-110465871D01*
X137742379Y-110587237D01*
X137478685Y-110763431D01*
X137254431Y-110987685D01*
X137078237Y-111251379D01*
X136956871Y-111544380D01*
X136895000Y-111855429D01*
X135115000Y-111855429D01*
X135053129Y-111544380D01*
X134931763Y-111251379D01*
X134755569Y-110987685D01*
X134531315Y-110763431D01*
X134267621Y-110587237D01*
X133974620Y-110465871D01*
X133663571Y-110404000D01*
X133346429Y-110404000D01*
X133035380Y-110465871D01*
X132742379Y-110587237D01*
X132478685Y-110763431D01*
X132254431Y-110987685D01*
X132078237Y-111251379D01*
X131956871Y-111544380D01*
X131895000Y-111855429D01*
X130115000Y-111855429D01*
X130053129Y-111544380D01*
X129931763Y-111251379D01*
X129755569Y-110987685D01*
X129531315Y-110763431D01*
X129267621Y-110587237D01*
X128974620Y-110465871D01*
X128663571Y-110404000D01*
X128346429Y-110404000D01*
X128035380Y-110465871D01*
X127742379Y-110587237D01*
X127478685Y-110763431D01*
X127254431Y-110987685D01*
X127078237Y-111251379D01*
X126956871Y-111544380D01*
X126895000Y-111855429D01*
X125115000Y-111855429D01*
X125053129Y-111544380D01*
X124931763Y-111251379D01*
X124755569Y-110987685D01*
X124531315Y-110763431D01*
X124267621Y-110587237D01*
X123974620Y-110465871D01*
X123663571Y-110404000D01*
X123346429Y-110404000D01*
X123035380Y-110465871D01*
X122742379Y-110587237D01*
X122478685Y-110763431D01*
X122254431Y-110987685D01*
X122078237Y-111251379D01*
X121956871Y-111544380D01*
X121895000Y-111855429D01*
X120115000Y-111855429D01*
X120053129Y-111544380D01*
X119931763Y-111251379D01*
X119755569Y-110987685D01*
X119531315Y-110763431D01*
X119267621Y-110587237D01*
X118974620Y-110465871D01*
X118663571Y-110404000D01*
X118346429Y-110404000D01*
X118035380Y-110465871D01*
X117742379Y-110587237D01*
X117478685Y-110763431D01*
X117254431Y-110987685D01*
X117078237Y-111251379D01*
X116956871Y-111544380D01*
X116895000Y-111855429D01*
X115115000Y-111855429D01*
X115053129Y-111544380D01*
X114931763Y-111251379D01*
X114755569Y-110987685D01*
X114531315Y-110763431D01*
X114267621Y-110587237D01*
X113974620Y-110465871D01*
X113663571Y-110404000D01*
X113346429Y-110404000D01*
X113035380Y-110465871D01*
X112742379Y-110587237D01*
X112478685Y-110763431D01*
X112254431Y-110987685D01*
X112078237Y-111251379D01*
X111956871Y-111544380D01*
X111895000Y-111855429D01*
X110115000Y-111855429D01*
X110053129Y-111544380D01*
X109931763Y-111251379D01*
X109755569Y-110987685D01*
X109531315Y-110763431D01*
X109267621Y-110587237D01*
X108974620Y-110465871D01*
X108663571Y-110404000D01*
X108346429Y-110404000D01*
X108035380Y-110465871D01*
X107742379Y-110587237D01*
X107478685Y-110763431D01*
X107254431Y-110987685D01*
X107078237Y-111251379D01*
X106956871Y-111544380D01*
X106895000Y-111855429D01*
X105118072Y-111855429D01*
X105118072Y-111039000D01*
X105105812Y-110914518D01*
X105069502Y-110794820D01*
X105010537Y-110684506D01*
X104931185Y-110587815D01*
X104834494Y-110508463D01*
X104724180Y-110449498D01*
X104604482Y-110413188D01*
X104480000Y-110400928D01*
X102530000Y-110400928D01*
X102405518Y-110413188D01*
X102285820Y-110449498D01*
X102175506Y-110508463D01*
X102078815Y-110587815D01*
X101999463Y-110684506D01*
X101940498Y-110794820D01*
X101904188Y-110914518D01*
X101891928Y-111039000D01*
X98989857Y-111039000D01*
X98955569Y-110987685D01*
X98731315Y-110763431D01*
X98467621Y-110587237D01*
X98174620Y-110465871D01*
X97863571Y-110404000D01*
X97546429Y-110404000D01*
X97235380Y-110465871D01*
X96942379Y-110587237D01*
X96678685Y-110763431D01*
X96454431Y-110987685D01*
X96278237Y-111251379D01*
X96156871Y-111544380D01*
X96095000Y-111855429D01*
X94315000Y-111855429D01*
X94253129Y-111544380D01*
X94131763Y-111251379D01*
X93955569Y-110987685D01*
X93731315Y-110763431D01*
X93467621Y-110587237D01*
X93174620Y-110465871D01*
X92863571Y-110404000D01*
X92546429Y-110404000D01*
X92235380Y-110465871D01*
X91942379Y-110587237D01*
X91678685Y-110763431D01*
X91454431Y-110987685D01*
X91278237Y-111251379D01*
X91156871Y-111544380D01*
X91095000Y-111855429D01*
X89315000Y-111855429D01*
X89253129Y-111544380D01*
X89131763Y-111251379D01*
X88955569Y-110987685D01*
X88731315Y-110763431D01*
X88467621Y-110587237D01*
X88174620Y-110465871D01*
X87863571Y-110404000D01*
X87546429Y-110404000D01*
X87235380Y-110465871D01*
X86942379Y-110587237D01*
X86678685Y-110763431D01*
X86454431Y-110987685D01*
X86278237Y-111251379D01*
X86156871Y-111544380D01*
X86095000Y-111855429D01*
X84315000Y-111855429D01*
X84253129Y-111544380D01*
X84131763Y-111251379D01*
X83955569Y-110987685D01*
X83731315Y-110763431D01*
X83467621Y-110587237D01*
X83174620Y-110465871D01*
X82863571Y-110404000D01*
X82546429Y-110404000D01*
X82235380Y-110465871D01*
X81942379Y-110587237D01*
X81678685Y-110763431D01*
X81454431Y-110987685D01*
X81278237Y-111251379D01*
X81156871Y-111544380D01*
X81095000Y-111855429D01*
X79315000Y-111855429D01*
X79253129Y-111544380D01*
X79131763Y-111251379D01*
X78955569Y-110987685D01*
X78731315Y-110763431D01*
X78467621Y-110587237D01*
X78174620Y-110465871D01*
X77863571Y-110404000D01*
X77546429Y-110404000D01*
X77235380Y-110465871D01*
X76942379Y-110587237D01*
X76678685Y-110763431D01*
X76454431Y-110987685D01*
X76278237Y-111251379D01*
X76156871Y-111544380D01*
X76095000Y-111855429D01*
X74315000Y-111855429D01*
X74253129Y-111544380D01*
X74131763Y-111251379D01*
X73955569Y-110987685D01*
X73731315Y-110763431D01*
X73467621Y-110587237D01*
X73174620Y-110465871D01*
X72863571Y-110404000D01*
X72546429Y-110404000D01*
X72235380Y-110465871D01*
X71942379Y-110587237D01*
X71678685Y-110763431D01*
X71454431Y-110987685D01*
X71278237Y-111251379D01*
X71156871Y-111544380D01*
X71095000Y-111855429D01*
X69315000Y-111855429D01*
X69253129Y-111544380D01*
X69131763Y-111251379D01*
X68955569Y-110987685D01*
X68731315Y-110763431D01*
X68467621Y-110587237D01*
X68174620Y-110465871D01*
X67863571Y-110404000D01*
X67546429Y-110404000D01*
X67235380Y-110465871D01*
X66942379Y-110587237D01*
X66678685Y-110763431D01*
X66454431Y-110987685D01*
X66278237Y-111251379D01*
X66156871Y-111544380D01*
X66095000Y-111855429D01*
X64315000Y-111855429D01*
X64253129Y-111544380D01*
X64131763Y-111251379D01*
X63955569Y-110987685D01*
X63731315Y-110763431D01*
X63467621Y-110587237D01*
X63174620Y-110465871D01*
X62863571Y-110404000D01*
X62546429Y-110404000D01*
X62235380Y-110465871D01*
X61942379Y-110587237D01*
X61678685Y-110763431D01*
X61454431Y-110987685D01*
X61278237Y-111251379D01*
X61156871Y-111544380D01*
X61095000Y-111855429D01*
X59315000Y-111855429D01*
X59253129Y-111544380D01*
X59131763Y-111251379D01*
X58955569Y-110987685D01*
X58731315Y-110763431D01*
X58467621Y-110587237D01*
X58174620Y-110465871D01*
X57863571Y-110404000D01*
X57546429Y-110404000D01*
X57235380Y-110465871D01*
X56942379Y-110587237D01*
X56678685Y-110763431D01*
X56454431Y-110987685D01*
X56278237Y-111251379D01*
X56156871Y-111544380D01*
X56095000Y-111855429D01*
X54318072Y-111855429D01*
X54318072Y-111039000D01*
X54305812Y-110914518D01*
X54269502Y-110794820D01*
X54210537Y-110684506D01*
X54131185Y-110587815D01*
X54034494Y-110508463D01*
X53924180Y-110449498D01*
X53804482Y-110413188D01*
X53680000Y-110400928D01*
X51730000Y-110400928D01*
X51605518Y-110413188D01*
X51485820Y-110449498D01*
X51375506Y-110508463D01*
X51278815Y-110587815D01*
X51199463Y-110684506D01*
X51140498Y-110794820D01*
X51104188Y-110914518D01*
X51091928Y-111039000D01*
X49682000Y-111039000D01*
X49682000Y-102903872D01*
X70536000Y-102903872D01*
X70536000Y-103344128D01*
X70621890Y-103775925D01*
X70790369Y-104182669D01*
X71034962Y-104548729D01*
X71346271Y-104860038D01*
X71712331Y-105104631D01*
X72119075Y-105273110D01*
X72550872Y-105359000D01*
X72991128Y-105359000D01*
X73422925Y-105273110D01*
X73829669Y-105104631D01*
X74195729Y-104860038D01*
X74507038Y-104548729D01*
X74751631Y-104182669D01*
X74920110Y-103775925D01*
X75006000Y-103344128D01*
X75006000Y-102903872D01*
X74920110Y-102472075D01*
X74751631Y-102065331D01*
X74507038Y-101699271D01*
X74195729Y-101387962D01*
X73829669Y-101143369D01*
X73422925Y-100974890D01*
X72991128Y-100889000D01*
X72550872Y-100889000D01*
X72119075Y-100974890D01*
X71712331Y-101143369D01*
X71346271Y-101387962D01*
X71034962Y-101699271D01*
X70790369Y-102065331D01*
X70621890Y-102472075D01*
X70536000Y-102903872D01*
X49682000Y-102903872D01*
X49682000Y-91275000D01*
X49869928Y-91275000D01*
X49869928Y-92875000D01*
X49882188Y-92999482D01*
X49918498Y-93119180D01*
X49977463Y-93229494D01*
X50056815Y-93326185D01*
X50153506Y-93405537D01*
X50263820Y-93464502D01*
X50383518Y-93500812D01*
X50508000Y-93513072D01*
X52108000Y-93513072D01*
X52232482Y-93500812D01*
X52352180Y-93464502D01*
X52462494Y-93405537D01*
X52559185Y-93326185D01*
X52638537Y-93229494D01*
X52697502Y-93119180D01*
X52733812Y-92999482D01*
X52734643Y-92991039D01*
X52933241Y-93189637D01*
X53168273Y-93346680D01*
X53429426Y-93454853D01*
X53706665Y-93510000D01*
X53989335Y-93510000D01*
X54266574Y-93454853D01*
X54527727Y-93346680D01*
X54762759Y-93189637D01*
X54962637Y-92989759D01*
X55118000Y-92757241D01*
X55273363Y-92989759D01*
X55473241Y-93189637D01*
X55708273Y-93346680D01*
X55969426Y-93454853D01*
X56246665Y-93510000D01*
X56529335Y-93510000D01*
X56806574Y-93454853D01*
X57067727Y-93346680D01*
X57302759Y-93189637D01*
X57502637Y-92989759D01*
X57658000Y-92757241D01*
X57813363Y-92989759D01*
X58013241Y-93189637D01*
X58248273Y-93346680D01*
X58509426Y-93454853D01*
X58786665Y-93510000D01*
X59069335Y-93510000D01*
X59346574Y-93454853D01*
X59607727Y-93346680D01*
X59842759Y-93189637D01*
X60042637Y-92989759D01*
X60199680Y-92754727D01*
X60307853Y-92493574D01*
X60363000Y-92216335D01*
X60363000Y-92070514D01*
X87057000Y-92070514D01*
X87057000Y-92333486D01*
X87108304Y-92591405D01*
X87208939Y-92834359D01*
X87355038Y-93053013D01*
X87540987Y-93238962D01*
X87759641Y-93385061D01*
X88002595Y-93485696D01*
X88260514Y-93537000D01*
X88523486Y-93537000D01*
X88630844Y-93515645D01*
X94191216Y-99076019D01*
X94215010Y-99105012D01*
X94244003Y-99128806D01*
X94244007Y-99128810D01*
X94314696Y-99186822D01*
X94330735Y-99199985D01*
X94462764Y-99270557D01*
X94606025Y-99314014D01*
X94717678Y-99325011D01*
X94717687Y-99325011D01*
X94755010Y-99328687D01*
X94792333Y-99325011D01*
X142181176Y-99325011D01*
X142161012Y-99326997D01*
X142017751Y-99370454D01*
X141885721Y-99441026D01*
X141802081Y-99509668D01*
X141769997Y-99535999D01*
X141746198Y-99564998D01*
X141258001Y-100053196D01*
X141228998Y-100076998D01*
X141203967Y-100107499D01*
X141134025Y-100192723D01*
X141063454Y-100324752D01*
X141063453Y-100324753D01*
X141019996Y-100468014D01*
X141008999Y-100579667D01*
X141008999Y-100579677D01*
X141005323Y-100616999D01*
X141008999Y-100654321D01*
X141008999Y-101275679D01*
X141005323Y-101313001D01*
X141008999Y-101350323D01*
X141008999Y-101350334D01*
X141019996Y-101461987D01*
X141048316Y-101555345D01*
X141063453Y-101605247D01*
X141134025Y-101737277D01*
X141205200Y-101824003D01*
X141228999Y-101853002D01*
X141257997Y-101876800D01*
X144941200Y-105560004D01*
X144964998Y-105589002D01*
X145080723Y-105683975D01*
X145212752Y-105754547D01*
X145356013Y-105798004D01*
X145467666Y-105809001D01*
X145467676Y-105809001D01*
X145504999Y-105812677D01*
X145542322Y-105809001D01*
X221135114Y-105809001D01*
X221172436Y-105812677D01*
X221209758Y-105809001D01*
X221209769Y-105809001D01*
X221321422Y-105798004D01*
X221464683Y-105754547D01*
X221596712Y-105683975D01*
X221712437Y-105589002D01*
X221736240Y-105559998D01*
X230041608Y-97254630D01*
X230488300Y-97254630D01*
X230488300Y-97607368D01*
X230557116Y-97953327D01*
X230692103Y-98279213D01*
X230888073Y-98572503D01*
X231137496Y-98821926D01*
X231430786Y-99017896D01*
X231756672Y-99152883D01*
X232102631Y-99221699D01*
X232455369Y-99221699D01*
X232801328Y-99152883D01*
X233127214Y-99017896D01*
X233420504Y-98821926D01*
X233669927Y-98572503D01*
X233865897Y-98279213D01*
X234000884Y-97953327D01*
X234069700Y-97607368D01*
X234069700Y-97254630D01*
X234000884Y-96908671D01*
X233865897Y-96582785D01*
X233669927Y-96289495D01*
X233420504Y-96040072D01*
X233127214Y-95844102D01*
X232801328Y-95709115D01*
X232455369Y-95640299D01*
X232102631Y-95640299D01*
X231756672Y-95709115D01*
X231430786Y-95844102D01*
X231137496Y-96040072D01*
X230888073Y-96289495D01*
X230692103Y-96582785D01*
X230557116Y-96908671D01*
X230488300Y-97254630D01*
X230041608Y-97254630D01*
X230170004Y-97126235D01*
X230199001Y-97102438D01*
X230225332Y-97070354D01*
X230293974Y-96986714D01*
X230364546Y-96854684D01*
X230400622Y-96735754D01*
X230408003Y-96711423D01*
X230419000Y-96599770D01*
X230419000Y-96599760D01*
X230422676Y-96562437D01*
X230419000Y-96525114D01*
X230419000Y-95472246D01*
X230517153Y-95406662D01*
X230704662Y-95219153D01*
X230851987Y-94998665D01*
X230953467Y-94753672D01*
X231005200Y-94493589D01*
X231005200Y-94228411D01*
X230953467Y-93968328D01*
X230851987Y-93723335D01*
X230704662Y-93502847D01*
X230517153Y-93315338D01*
X230296665Y-93168013D01*
X230159024Y-93111000D01*
X230296665Y-93053987D01*
X230517153Y-92906662D01*
X230704662Y-92719153D01*
X230851987Y-92498665D01*
X230953467Y-92253672D01*
X231005200Y-91993589D01*
X231005200Y-91728411D01*
X230953467Y-91468328D01*
X230851987Y-91223335D01*
X230704662Y-91002847D01*
X230562815Y-90861000D01*
X230704662Y-90719152D01*
X230851987Y-90498664D01*
X230953467Y-90253671D01*
X231005200Y-89993588D01*
X231005200Y-89728410D01*
X230953467Y-89468327D01*
X230851987Y-89223334D01*
X230704662Y-89002846D01*
X230517153Y-88815337D01*
X230296665Y-88668012D01*
X230159024Y-88610999D01*
X230296665Y-88553986D01*
X230517153Y-88406661D01*
X230704662Y-88219152D01*
X230851987Y-87998664D01*
X230953467Y-87753671D01*
X231005200Y-87493588D01*
X231005200Y-87228410D01*
X230953467Y-86968327D01*
X230851987Y-86723334D01*
X230704662Y-86502846D01*
X230517153Y-86315337D01*
X230296665Y-86168012D01*
X230051672Y-86066532D01*
X229791589Y-86014799D01*
X229526411Y-86014799D01*
X229266328Y-86066532D01*
X229021335Y-86168012D01*
X228800847Y-86315337D01*
X228613338Y-86502846D01*
X228466013Y-86723334D01*
X228364533Y-86968327D01*
X228312800Y-87228410D01*
X228312800Y-87493588D01*
X228364533Y-87753671D01*
X228466013Y-87998664D01*
X228613338Y-88219152D01*
X228800847Y-88406661D01*
X229021335Y-88553986D01*
X229158976Y-88610999D01*
X229021335Y-88668012D01*
X228800847Y-88815337D01*
X228613338Y-89002846D01*
X228466013Y-89223334D01*
X228364533Y-89468327D01*
X228312800Y-89728410D01*
X228312800Y-89993588D01*
X228364533Y-90253671D01*
X228466013Y-90498664D01*
X228613338Y-90719152D01*
X228755186Y-90861000D01*
X228613338Y-91002847D01*
X228466013Y-91223335D01*
X228364533Y-91468328D01*
X228312800Y-91728411D01*
X228312800Y-91993589D01*
X228335830Y-92109369D01*
X228307998Y-92137201D01*
X228266635Y-92137201D01*
X228295201Y-91993589D01*
X228295201Y-91728411D01*
X228243468Y-91468328D01*
X228141988Y-91223335D01*
X227994663Y-91002847D01*
X227852816Y-90861000D01*
X227994663Y-90719152D01*
X228141988Y-90498664D01*
X228243468Y-90253671D01*
X228295201Y-89993588D01*
X228295201Y-89728410D01*
X228243468Y-89468327D01*
X228141988Y-89223334D01*
X227994663Y-89002846D01*
X227807154Y-88815337D01*
X227586666Y-88668012D01*
X227449025Y-88610999D01*
X227586666Y-88553986D01*
X227807154Y-88406661D01*
X227994663Y-88219152D01*
X228141988Y-87998664D01*
X228243468Y-87753671D01*
X228295201Y-87493588D01*
X228295201Y-87228410D01*
X228243468Y-86968327D01*
X228141988Y-86723334D01*
X227994663Y-86502846D01*
X227807154Y-86315337D01*
X227586666Y-86168012D01*
X227341673Y-86066532D01*
X227096646Y-86017794D01*
X227121328Y-86012884D01*
X227447214Y-85877897D01*
X227740504Y-85681927D01*
X227989927Y-85432504D01*
X228185897Y-85139214D01*
X228320884Y-84813328D01*
X228389700Y-84467369D01*
X228389700Y-84114631D01*
X230488300Y-84114631D01*
X230488300Y-84467369D01*
X230557116Y-84813328D01*
X230692103Y-85139214D01*
X230888073Y-85432504D01*
X231137496Y-85681927D01*
X231430786Y-85877897D01*
X231756672Y-86012884D01*
X232102631Y-86081700D01*
X232455369Y-86081700D01*
X232801328Y-86012884D01*
X233127214Y-85877897D01*
X233420504Y-85681927D01*
X233669927Y-85432504D01*
X233865897Y-85139214D01*
X234000884Y-84813328D01*
X234069700Y-84467369D01*
X234069700Y-84114631D01*
X234000884Y-83768672D01*
X233865897Y-83442786D01*
X233669927Y-83149496D01*
X233420504Y-82900073D01*
X233127214Y-82704103D01*
X232801328Y-82569116D01*
X232455369Y-82500300D01*
X232102631Y-82500300D01*
X231756672Y-82569116D01*
X231430786Y-82704103D01*
X231137496Y-82900073D01*
X230888073Y-83149496D01*
X230692103Y-83442786D01*
X230557116Y-83768672D01*
X230488300Y-84114631D01*
X228389700Y-84114631D01*
X228320884Y-83768672D01*
X228185897Y-83442786D01*
X227989927Y-83149496D01*
X227740504Y-82900073D01*
X227447214Y-82704103D01*
X227121328Y-82569116D01*
X226775369Y-82500300D01*
X226422631Y-82500300D01*
X226076672Y-82569116D01*
X225750786Y-82704103D01*
X225457496Y-82900073D01*
X225208073Y-83149496D01*
X225012103Y-83442786D01*
X224877116Y-83768672D01*
X224808300Y-84114631D01*
X224808300Y-84467369D01*
X224877116Y-84813328D01*
X225012103Y-85139214D01*
X225208073Y-85432504D01*
X225457496Y-85681927D01*
X225750786Y-85877897D01*
X226076672Y-86012884D01*
X226422631Y-86081700D01*
X226519710Y-86081700D01*
X226311336Y-86168012D01*
X226090848Y-86315337D01*
X225903339Y-86502846D01*
X225756014Y-86723334D01*
X225654534Y-86968327D01*
X225602801Y-87228410D01*
X225602801Y-87493588D01*
X225654534Y-87753671D01*
X225756014Y-87998664D01*
X225903339Y-88219152D01*
X226090848Y-88406661D01*
X226311336Y-88553986D01*
X226448977Y-88610999D01*
X226311336Y-88668012D01*
X226090848Y-88815337D01*
X225903339Y-89002846D01*
X225756014Y-89223334D01*
X225654534Y-89468327D01*
X225650916Y-89486515D01*
X225555277Y-89408026D01*
X225423248Y-89337454D01*
X225279987Y-89293997D01*
X225168334Y-89283000D01*
X225168323Y-89283000D01*
X225131001Y-89279324D01*
X225093679Y-89283000D01*
X206308802Y-89283000D01*
X203165803Y-86140002D01*
X203142000Y-86110998D01*
X203026275Y-86016025D01*
X202894246Y-85945453D01*
X202750985Y-85901996D01*
X202639332Y-85890999D01*
X202639321Y-85890999D01*
X202601999Y-85887323D01*
X202564677Y-85890999D01*
X146568981Y-85890999D01*
X146634000Y-85564128D01*
X146634000Y-85123872D01*
X215570000Y-85123872D01*
X215570000Y-85564128D01*
X215655890Y-85995925D01*
X215824369Y-86402669D01*
X216068962Y-86768729D01*
X216380271Y-87080038D01*
X216746331Y-87324631D01*
X217153075Y-87493110D01*
X217584872Y-87579000D01*
X218025128Y-87579000D01*
X218456925Y-87493110D01*
X218863669Y-87324631D01*
X219229729Y-87080038D01*
X219541038Y-86768729D01*
X219785631Y-86402669D01*
X219954110Y-85995925D01*
X220040000Y-85564128D01*
X220040000Y-85123872D01*
X219954110Y-84692075D01*
X219785631Y-84285331D01*
X219541038Y-83919271D01*
X219229729Y-83607962D01*
X218863669Y-83363369D01*
X218456925Y-83194890D01*
X218025128Y-83109000D01*
X217584872Y-83109000D01*
X217153075Y-83194890D01*
X216746331Y-83363369D01*
X216380271Y-83607962D01*
X216068962Y-83919271D01*
X215824369Y-84285331D01*
X215655890Y-84692075D01*
X215570000Y-85123872D01*
X146634000Y-85123872D01*
X146548110Y-84692075D01*
X146379631Y-84285331D01*
X146135038Y-83919271D01*
X145823729Y-83607962D01*
X145457669Y-83363369D01*
X145050925Y-83194890D01*
X144619128Y-83109000D01*
X144178872Y-83109000D01*
X143747075Y-83194890D01*
X143340331Y-83363369D01*
X142974271Y-83607962D01*
X142662962Y-83919271D01*
X142418369Y-84285331D01*
X142249890Y-84692075D01*
X142164000Y-85123872D01*
X142164000Y-85564128D01*
X142249890Y-85995925D01*
X142418369Y-86402669D01*
X142662962Y-86768729D01*
X142974271Y-87080038D01*
X143340331Y-87324631D01*
X143747075Y-87493110D01*
X144178872Y-87579000D01*
X144391198Y-87579000D01*
X138848571Y-93121628D01*
X138694592Y-93091000D01*
X138419408Y-93091000D01*
X138149510Y-93144686D01*
X137895273Y-93249995D01*
X137666465Y-93402880D01*
X137471880Y-93597465D01*
X137318995Y-93826273D01*
X137287000Y-93903515D01*
X137255005Y-93826273D01*
X137102120Y-93597465D01*
X136907535Y-93402880D01*
X136678727Y-93249995D01*
X136424490Y-93144686D01*
X136154592Y-93091000D01*
X135879408Y-93091000D01*
X135609510Y-93144686D01*
X135355273Y-93249995D01*
X135126465Y-93402880D01*
X134931880Y-93597465D01*
X134778995Y-93826273D01*
X134747000Y-93903515D01*
X134715005Y-93826273D01*
X134562120Y-93597465D01*
X134367535Y-93402880D01*
X134138727Y-93249995D01*
X133884490Y-93144686D01*
X133614592Y-93091000D01*
X133339408Y-93091000D01*
X133069510Y-93144686D01*
X132815273Y-93249995D01*
X132586465Y-93402880D01*
X132391880Y-93597465D01*
X132238995Y-93826273D01*
X132207000Y-93903515D01*
X132175005Y-93826273D01*
X132022120Y-93597465D01*
X131827535Y-93402880D01*
X131598727Y-93249995D01*
X131344490Y-93144686D01*
X131074592Y-93091000D01*
X130799408Y-93091000D01*
X130529510Y-93144686D01*
X130275273Y-93249995D01*
X130046465Y-93402880D01*
X129851880Y-93597465D01*
X129698995Y-93826273D01*
X129667000Y-93903515D01*
X129635005Y-93826273D01*
X129482120Y-93597465D01*
X129287535Y-93402880D01*
X129058727Y-93249995D01*
X128804490Y-93144686D01*
X128534592Y-93091000D01*
X128259408Y-93091000D01*
X127989510Y-93144686D01*
X127735273Y-93249995D01*
X127506465Y-93402880D01*
X127311880Y-93597465D01*
X127158995Y-93826273D01*
X127127000Y-93903515D01*
X127095005Y-93826273D01*
X126942120Y-93597465D01*
X126747535Y-93402880D01*
X126518727Y-93249995D01*
X126264490Y-93144686D01*
X125994592Y-93091000D01*
X125719408Y-93091000D01*
X125449510Y-93144686D01*
X125195273Y-93249995D01*
X124966465Y-93402880D01*
X124771880Y-93597465D01*
X124618995Y-93826273D01*
X124587000Y-93903515D01*
X124555005Y-93826273D01*
X124402120Y-93597465D01*
X124207535Y-93402880D01*
X123978727Y-93249995D01*
X123724490Y-93144686D01*
X123454592Y-93091000D01*
X123179408Y-93091000D01*
X122909510Y-93144686D01*
X122655273Y-93249995D01*
X122426465Y-93402880D01*
X122231880Y-93597465D01*
X122078995Y-93826273D01*
X122047000Y-93903515D01*
X122015005Y-93826273D01*
X121862120Y-93597465D01*
X121667535Y-93402880D01*
X121438727Y-93249995D01*
X121184490Y-93144686D01*
X120914592Y-93091000D01*
X120639408Y-93091000D01*
X120369510Y-93144686D01*
X120115273Y-93249995D01*
X119886465Y-93402880D01*
X119691880Y-93597465D01*
X119538995Y-93826273D01*
X119507000Y-93903515D01*
X119475005Y-93826273D01*
X119322120Y-93597465D01*
X119127535Y-93402880D01*
X118898727Y-93249995D01*
X118644490Y-93144686D01*
X118374592Y-93091000D01*
X118099408Y-93091000D01*
X117829510Y-93144686D01*
X117575273Y-93249995D01*
X117346465Y-93402880D01*
X117151880Y-93597465D01*
X116998995Y-93826273D01*
X116967000Y-93903515D01*
X116935005Y-93826273D01*
X116782120Y-93597465D01*
X116587535Y-93402880D01*
X116358727Y-93249995D01*
X116104490Y-93144686D01*
X115834592Y-93091000D01*
X115559408Y-93091000D01*
X115289510Y-93144686D01*
X115035273Y-93249995D01*
X114806465Y-93402880D01*
X114611880Y-93597465D01*
X114458995Y-93826273D01*
X114353686Y-94080510D01*
X114300000Y-94350408D01*
X114300000Y-94625592D01*
X114353686Y-94895490D01*
X114458995Y-95149727D01*
X114611880Y-95378535D01*
X114806465Y-95573120D01*
X115035273Y-95726005D01*
X115112515Y-95758000D01*
X115035273Y-95789995D01*
X114806465Y-95942880D01*
X114611880Y-96137465D01*
X114458995Y-96366273D01*
X114353686Y-96620510D01*
X114300000Y-96890408D01*
X114300000Y-97165592D01*
X114337676Y-97355001D01*
X97794803Y-97355001D01*
X92880645Y-92440844D01*
X92902000Y-92333486D01*
X92902000Y-92070514D01*
X93382000Y-92070514D01*
X93382000Y-92333486D01*
X93433304Y-92591405D01*
X93533939Y-92834359D01*
X93680038Y-93053013D01*
X93865987Y-93238962D01*
X94084641Y-93385061D01*
X94327595Y-93485696D01*
X94585514Y-93537000D01*
X94848486Y-93537000D01*
X95106405Y-93485696D01*
X95349359Y-93385061D01*
X95568013Y-93238962D01*
X95753962Y-93053013D01*
X95900061Y-92834359D01*
X96000696Y-92591405D01*
X96052000Y-92333486D01*
X96052000Y-92070514D01*
X96532000Y-92070514D01*
X96532000Y-92333486D01*
X96583304Y-92591405D01*
X96683939Y-92834359D01*
X96830038Y-93053013D01*
X97015987Y-93238962D01*
X97234641Y-93385061D01*
X97477595Y-93485696D01*
X97735514Y-93537000D01*
X97998486Y-93537000D01*
X98256405Y-93485696D01*
X98499359Y-93385061D01*
X98718013Y-93238962D01*
X98903962Y-93053013D01*
X99050061Y-92834359D01*
X99150696Y-92591405D01*
X99202000Y-92333486D01*
X99202000Y-92070514D01*
X99150696Y-91812595D01*
X99050061Y-91569641D01*
X98903962Y-91350987D01*
X98718013Y-91165038D01*
X98499359Y-91018939D01*
X98256405Y-90918304D01*
X97998486Y-90867000D01*
X97735514Y-90867000D01*
X97477595Y-90918304D01*
X97234641Y-91018939D01*
X97015987Y-91165038D01*
X96830038Y-91350987D01*
X96683939Y-91569641D01*
X96583304Y-91812595D01*
X96532000Y-92070514D01*
X96052000Y-92070514D01*
X96000696Y-91812595D01*
X95900061Y-91569641D01*
X95753962Y-91350987D01*
X95568013Y-91165038D01*
X95349359Y-91018939D01*
X95106405Y-90918304D01*
X94848486Y-90867000D01*
X94585514Y-90867000D01*
X94327595Y-90918304D01*
X94084641Y-91018939D01*
X93865987Y-91165038D01*
X93680038Y-91350987D01*
X93533939Y-91569641D01*
X93433304Y-91812595D01*
X93382000Y-92070514D01*
X92902000Y-92070514D01*
X92850696Y-91812595D01*
X92750061Y-91569641D01*
X92603962Y-91350987D01*
X92418013Y-91165038D01*
X92199359Y-91018939D01*
X91956405Y-90918304D01*
X91698486Y-90867000D01*
X91435514Y-90867000D01*
X91177595Y-90918304D01*
X90934641Y-91018939D01*
X90715987Y-91165038D01*
X90530038Y-91350987D01*
X90383939Y-91569641D01*
X90283304Y-91812595D01*
X90232000Y-92070514D01*
X90232000Y-92333486D01*
X90283304Y-92591405D01*
X90383939Y-92834359D01*
X90530038Y-93053013D01*
X90715987Y-93238962D01*
X90934641Y-93385061D01*
X91177595Y-93485696D01*
X91435514Y-93537000D01*
X91698486Y-93537000D01*
X91805844Y-93515645D01*
X96095209Y-97805011D01*
X95069814Y-97805011D01*
X89705645Y-92440844D01*
X89727000Y-92333486D01*
X89727000Y-92070514D01*
X89675696Y-91812595D01*
X89575061Y-91569641D01*
X89428962Y-91350987D01*
X89243013Y-91165038D01*
X89024359Y-91018939D01*
X88781405Y-90918304D01*
X88523486Y-90867000D01*
X88260514Y-90867000D01*
X88002595Y-90918304D01*
X87759641Y-91018939D01*
X87540987Y-91165038D01*
X87355038Y-91350987D01*
X87208939Y-91569641D01*
X87108304Y-91812595D01*
X87057000Y-92070514D01*
X60363000Y-92070514D01*
X60363000Y-91933665D01*
X60307853Y-91656426D01*
X60199680Y-91395273D01*
X60042637Y-91160241D01*
X59842759Y-90960363D01*
X59607727Y-90803320D01*
X59346574Y-90695147D01*
X59069335Y-90640000D01*
X58786665Y-90640000D01*
X58509426Y-90695147D01*
X58248273Y-90803320D01*
X58013241Y-90960363D01*
X57813363Y-91160241D01*
X57658000Y-91392759D01*
X57502637Y-91160241D01*
X57302759Y-90960363D01*
X57067727Y-90803320D01*
X56806574Y-90695147D01*
X56529335Y-90640000D01*
X56246665Y-90640000D01*
X55969426Y-90695147D01*
X55708273Y-90803320D01*
X55473241Y-90960363D01*
X55273363Y-91160241D01*
X55118000Y-91392759D01*
X54962637Y-91160241D01*
X54762759Y-90960363D01*
X54527727Y-90803320D01*
X54266574Y-90695147D01*
X53989335Y-90640000D01*
X53706665Y-90640000D01*
X53429426Y-90695147D01*
X53168273Y-90803320D01*
X52933241Y-90960363D01*
X52734643Y-91158961D01*
X52733812Y-91150518D01*
X52697502Y-91030820D01*
X52638537Y-90920506D01*
X52559185Y-90823815D01*
X52462494Y-90744463D01*
X52352180Y-90685498D01*
X52232482Y-90649188D01*
X52108000Y-90636928D01*
X50508000Y-90636928D01*
X50383518Y-90649188D01*
X50263820Y-90685498D01*
X50153506Y-90744463D01*
X50056815Y-90823815D01*
X49977463Y-90920506D01*
X49918498Y-91030820D01*
X49882188Y-91150518D01*
X49869928Y-91275000D01*
X49682000Y-91275000D01*
X49682000Y-84313665D01*
X49873000Y-84313665D01*
X49873000Y-84596335D01*
X49928147Y-84873574D01*
X50036320Y-85134727D01*
X50193363Y-85369759D01*
X50393241Y-85569637D01*
X50628273Y-85726680D01*
X50889426Y-85834853D01*
X51166665Y-85890000D01*
X51449335Y-85890000D01*
X51726574Y-85834853D01*
X51987727Y-85726680D01*
X52222759Y-85569637D01*
X52422637Y-85369759D01*
X52578000Y-85137241D01*
X52733363Y-85369759D01*
X52933241Y-85569637D01*
X53168273Y-85726680D01*
X53429426Y-85834853D01*
X53706665Y-85890000D01*
X53989335Y-85890000D01*
X54266574Y-85834853D01*
X54527727Y-85726680D01*
X54762759Y-85569637D01*
X54962637Y-85369759D01*
X55118000Y-85137241D01*
X55273363Y-85369759D01*
X55473241Y-85569637D01*
X55708273Y-85726680D01*
X55969426Y-85834853D01*
X56246665Y-85890000D01*
X56529335Y-85890000D01*
X56806574Y-85834853D01*
X57067727Y-85726680D01*
X57302759Y-85569637D01*
X57502637Y-85369759D01*
X57658000Y-85137241D01*
X57813363Y-85369759D01*
X58013241Y-85569637D01*
X58248273Y-85726680D01*
X58509426Y-85834853D01*
X58786665Y-85890000D01*
X59069335Y-85890000D01*
X59346574Y-85834853D01*
X59607727Y-85726680D01*
X59842759Y-85569637D01*
X60042637Y-85369759D01*
X60122074Y-85250872D01*
X70536000Y-85250872D01*
X70536000Y-85691128D01*
X70621890Y-86122925D01*
X70790369Y-86529669D01*
X71034962Y-86895729D01*
X71346271Y-87207038D01*
X71712331Y-87451631D01*
X72119075Y-87620110D01*
X72550872Y-87706000D01*
X72991128Y-87706000D01*
X73422925Y-87620110D01*
X73829669Y-87451631D01*
X74195729Y-87207038D01*
X74507038Y-86895729D01*
X74751631Y-86529669D01*
X74920110Y-86122925D01*
X75006000Y-85691128D01*
X75006000Y-85250872D01*
X74939257Y-84915330D01*
X87099278Y-84915330D01*
X87189147Y-85161123D01*
X87325241Y-85384660D01*
X87502330Y-85577351D01*
X87713608Y-85731792D01*
X87950956Y-85842047D01*
X88058671Y-85874716D01*
X88265000Y-85751374D01*
X88265000Y-84709000D01*
X88519000Y-84709000D01*
X88519000Y-85751374D01*
X88725329Y-85874716D01*
X88833044Y-85842047D01*
X89070392Y-85731792D01*
X89281670Y-85577351D01*
X89458759Y-85384660D01*
X89594853Y-85161123D01*
X89684722Y-84915330D01*
X90274278Y-84915330D01*
X90364147Y-85161123D01*
X90500241Y-85384660D01*
X90677330Y-85577351D01*
X90888608Y-85731792D01*
X91125956Y-85842047D01*
X91233671Y-85874716D01*
X91440000Y-85751374D01*
X91440000Y-84709000D01*
X91694000Y-84709000D01*
X91694000Y-85751374D01*
X91900329Y-85874716D01*
X92008044Y-85842047D01*
X92245392Y-85731792D01*
X92456670Y-85577351D01*
X92633759Y-85384660D01*
X92769853Y-85161123D01*
X92859722Y-84915330D01*
X93424278Y-84915330D01*
X93514147Y-85161123D01*
X93650241Y-85384660D01*
X93827330Y-85577351D01*
X94038608Y-85731792D01*
X94275956Y-85842047D01*
X94383671Y-85874716D01*
X94590000Y-85751374D01*
X94590000Y-84709000D01*
X94844000Y-84709000D01*
X94844000Y-85751374D01*
X95050329Y-85874716D01*
X95158044Y-85842047D01*
X95395392Y-85731792D01*
X95606670Y-85577351D01*
X95783759Y-85384660D01*
X95919853Y-85161123D01*
X96009722Y-84915330D01*
X96574278Y-84915330D01*
X96664147Y-85161123D01*
X96800241Y-85384660D01*
X96977330Y-85577351D01*
X97188608Y-85731792D01*
X97425956Y-85842047D01*
X97533671Y-85874716D01*
X97740000Y-85751374D01*
X97740000Y-84709000D01*
X97994000Y-84709000D01*
X97994000Y-85751374D01*
X98200329Y-85874716D01*
X98308044Y-85842047D01*
X98545392Y-85731792D01*
X98756670Y-85577351D01*
X98933759Y-85384660D01*
X99069853Y-85161123D01*
X99159722Y-84915330D01*
X99037201Y-84709000D01*
X97994000Y-84709000D01*
X97740000Y-84709000D01*
X96696799Y-84709000D01*
X96574278Y-84915330D01*
X96009722Y-84915330D01*
X95887201Y-84709000D01*
X94844000Y-84709000D01*
X94590000Y-84709000D01*
X93546799Y-84709000D01*
X93424278Y-84915330D01*
X92859722Y-84915330D01*
X92737201Y-84709000D01*
X91694000Y-84709000D01*
X91440000Y-84709000D01*
X90396799Y-84709000D01*
X90274278Y-84915330D01*
X89684722Y-84915330D01*
X89562201Y-84709000D01*
X88519000Y-84709000D01*
X88265000Y-84709000D01*
X87221799Y-84709000D01*
X87099278Y-84915330D01*
X74939257Y-84915330D01*
X74920110Y-84819075D01*
X74751631Y-84412331D01*
X74642277Y-84248670D01*
X87099278Y-84248670D01*
X87221799Y-84455000D01*
X88265000Y-84455000D01*
X88265000Y-83412626D01*
X88519000Y-83412626D01*
X88519000Y-84455000D01*
X89562201Y-84455000D01*
X89684722Y-84248670D01*
X90274278Y-84248670D01*
X90396799Y-84455000D01*
X91440000Y-84455000D01*
X91440000Y-83412626D01*
X91694000Y-83412626D01*
X91694000Y-84455000D01*
X92737201Y-84455000D01*
X92859722Y-84248670D01*
X93424278Y-84248670D01*
X93546799Y-84455000D01*
X94590000Y-84455000D01*
X94590000Y-83412626D01*
X94844000Y-83412626D01*
X94844000Y-84455000D01*
X95887201Y-84455000D01*
X96009722Y-84248670D01*
X96574278Y-84248670D01*
X96696799Y-84455000D01*
X97740000Y-84455000D01*
X97740000Y-83412626D01*
X97994000Y-83412626D01*
X97994000Y-84455000D01*
X99037201Y-84455000D01*
X99159722Y-84248670D01*
X99069853Y-84002877D01*
X98933759Y-83779340D01*
X98756670Y-83586649D01*
X98545392Y-83432208D01*
X98308044Y-83321953D01*
X98200329Y-83289284D01*
X97994000Y-83412626D01*
X97740000Y-83412626D01*
X97533671Y-83289284D01*
X97425956Y-83321953D01*
X97188608Y-83432208D01*
X96977330Y-83586649D01*
X96800241Y-83779340D01*
X96664147Y-84002877D01*
X96574278Y-84248670D01*
X96009722Y-84248670D01*
X95919853Y-84002877D01*
X95783759Y-83779340D01*
X95606670Y-83586649D01*
X95395392Y-83432208D01*
X95158044Y-83321953D01*
X95050329Y-83289284D01*
X94844000Y-83412626D01*
X94590000Y-83412626D01*
X94383671Y-83289284D01*
X94275956Y-83321953D01*
X94038608Y-83432208D01*
X93827330Y-83586649D01*
X93650241Y-83779340D01*
X93514147Y-84002877D01*
X93424278Y-84248670D01*
X92859722Y-84248670D01*
X92769853Y-84002877D01*
X92633759Y-83779340D01*
X92456670Y-83586649D01*
X92245392Y-83432208D01*
X92008044Y-83321953D01*
X91900329Y-83289284D01*
X91694000Y-83412626D01*
X91440000Y-83412626D01*
X91233671Y-83289284D01*
X91125956Y-83321953D01*
X90888608Y-83432208D01*
X90677330Y-83586649D01*
X90500241Y-83779340D01*
X90364147Y-84002877D01*
X90274278Y-84248670D01*
X89684722Y-84248670D01*
X89594853Y-84002877D01*
X89458759Y-83779340D01*
X89281670Y-83586649D01*
X89070392Y-83432208D01*
X88833044Y-83321953D01*
X88725329Y-83289284D01*
X88519000Y-83412626D01*
X88265000Y-83412626D01*
X88058671Y-83289284D01*
X87950956Y-83321953D01*
X87713608Y-83432208D01*
X87502330Y-83586649D01*
X87325241Y-83779340D01*
X87189147Y-84002877D01*
X87099278Y-84248670D01*
X74642277Y-84248670D01*
X74507038Y-84046271D01*
X74195729Y-83734962D01*
X73829669Y-83490369D01*
X73422925Y-83321890D01*
X72991128Y-83236000D01*
X72550872Y-83236000D01*
X72119075Y-83321890D01*
X71712331Y-83490369D01*
X71346271Y-83734962D01*
X71034962Y-84046271D01*
X70790369Y-84412331D01*
X70621890Y-84819075D01*
X70536000Y-85250872D01*
X60122074Y-85250872D01*
X60199680Y-85134727D01*
X60307853Y-84873574D01*
X60363000Y-84596335D01*
X60363000Y-84313665D01*
X60307853Y-84036426D01*
X60199680Y-83775273D01*
X60042637Y-83540241D01*
X59842759Y-83340363D01*
X59607727Y-83183320D01*
X59346574Y-83075147D01*
X59069335Y-83020000D01*
X58786665Y-83020000D01*
X58509426Y-83075147D01*
X58248273Y-83183320D01*
X58013241Y-83340363D01*
X57813363Y-83540241D01*
X57658000Y-83772759D01*
X57502637Y-83540241D01*
X57302759Y-83340363D01*
X57067727Y-83183320D01*
X56806574Y-83075147D01*
X56529335Y-83020000D01*
X56246665Y-83020000D01*
X55969426Y-83075147D01*
X55708273Y-83183320D01*
X55473241Y-83340363D01*
X55273363Y-83540241D01*
X55118000Y-83772759D01*
X54962637Y-83540241D01*
X54762759Y-83340363D01*
X54527727Y-83183320D01*
X54266574Y-83075147D01*
X53989335Y-83020000D01*
X53706665Y-83020000D01*
X53429426Y-83075147D01*
X53168273Y-83183320D01*
X52933241Y-83340363D01*
X52733363Y-83540241D01*
X52578000Y-83772759D01*
X52422637Y-83540241D01*
X52222759Y-83340363D01*
X51987727Y-83183320D01*
X51726574Y-83075147D01*
X51449335Y-83020000D01*
X51166665Y-83020000D01*
X50889426Y-83075147D01*
X50628273Y-83183320D01*
X50393241Y-83340363D01*
X50193363Y-83540241D01*
X50036320Y-83775273D01*
X49928147Y-84036426D01*
X49873000Y-84313665D01*
X49682000Y-84313665D01*
X49682000Y-82448000D01*
X243180000Y-82448000D01*
X243180001Y-120371184D01*
G36*
X215824369Y-102065331D02*
G01*
X215655890Y-102472075D01*
X215570000Y-102903872D01*
X215570000Y-103344128D01*
X215655890Y-103775925D01*
X215824369Y-104182669D01*
X215895418Y-104289001D01*
X145819801Y-104289001D01*
X143255799Y-101725000D01*
X216051770Y-101725000D01*
X215824369Y-102065331D01*
X215824369Y-102065331D01*
G37*
X215824369Y-102065331D02*
X215655890Y-102472075D01*
X215570000Y-102903872D01*
X215570000Y-103344128D01*
X215655890Y-103775925D01*
X215824369Y-104182669D01*
X215895418Y-104289001D01*
X145819801Y-104289001D01*
X143255799Y-101725000D01*
X216051770Y-101725000D01*
X215824369Y-102065331D01*
G36*
X206125402Y-93408204D02*
G01*
X206149200Y-93437202D01*
X206178198Y-93461000D01*
X206264925Y-93532175D01*
X206396954Y-93602747D01*
X206540215Y-93646204D01*
X206689201Y-93660878D01*
X206726534Y-93657201D01*
X225800203Y-93657201D01*
X225756014Y-93723335D01*
X225654534Y-93968328D01*
X225602801Y-94228411D01*
X225602801Y-94493589D01*
X225625831Y-94609368D01*
X220151502Y-100083697D01*
X220151496Y-100083702D01*
X220057260Y-100177939D01*
X220030199Y-100205000D01*
X144666617Y-100205000D01*
X144672000Y-100177939D01*
X144672000Y-99974061D01*
X144632226Y-99774102D01*
X144554205Y-99585744D01*
X144440937Y-99416226D01*
X144349722Y-99325011D01*
X151587667Y-99325011D01*
X151624989Y-99328687D01*
X151662311Y-99325011D01*
X151662322Y-99325011D01*
X151773975Y-99314014D01*
X151917236Y-99270557D01*
X152049265Y-99199985D01*
X152164990Y-99105012D01*
X152188792Y-99076009D01*
X152855005Y-98409797D01*
X152884002Y-98386000D01*
X152978975Y-98270275D01*
X153021789Y-98190177D01*
X153135273Y-98266005D01*
X153389510Y-98371314D01*
X153659408Y-98425000D01*
X153934592Y-98425000D01*
X154204490Y-98371314D01*
X154458727Y-98266005D01*
X154687535Y-98113120D01*
X154882120Y-97918535D01*
X155035005Y-97689727D01*
X155067000Y-97612485D01*
X155098995Y-97689727D01*
X155251880Y-97918535D01*
X155446465Y-98113120D01*
X155675273Y-98266005D01*
X155929510Y-98371314D01*
X156199408Y-98425000D01*
X156474592Y-98425000D01*
X156744490Y-98371314D01*
X156998727Y-98266005D01*
X157227535Y-98113120D01*
X157422120Y-97918535D01*
X157575005Y-97689727D01*
X157607000Y-97612485D01*
X157638995Y-97689727D01*
X157791880Y-97918535D01*
X157986465Y-98113120D01*
X158215273Y-98266005D01*
X158469510Y-98371314D01*
X158739408Y-98425000D01*
X159014592Y-98425000D01*
X159284490Y-98371314D01*
X159538727Y-98266005D01*
X159767535Y-98113120D01*
X159962120Y-97918535D01*
X160115005Y-97689727D01*
X160147000Y-97612485D01*
X160178995Y-97689727D01*
X160331880Y-97918535D01*
X160526465Y-98113120D01*
X160755273Y-98266005D01*
X161009510Y-98371314D01*
X161279408Y-98425000D01*
X161554592Y-98425000D01*
X161824490Y-98371314D01*
X162078727Y-98266005D01*
X162307535Y-98113120D01*
X162502120Y-97918535D01*
X162655005Y-97689727D01*
X162687000Y-97612485D01*
X162718995Y-97689727D01*
X162871880Y-97918535D01*
X163066465Y-98113120D01*
X163295273Y-98266005D01*
X163549510Y-98371314D01*
X163819408Y-98425000D01*
X164094592Y-98425000D01*
X164364490Y-98371314D01*
X164618727Y-98266005D01*
X164847535Y-98113120D01*
X165042120Y-97918535D01*
X165195005Y-97689727D01*
X165227000Y-97612485D01*
X165258995Y-97689727D01*
X165411880Y-97918535D01*
X165606465Y-98113120D01*
X165835273Y-98266005D01*
X166089510Y-98371314D01*
X166359408Y-98425000D01*
X166634592Y-98425000D01*
X166904490Y-98371314D01*
X167158727Y-98266005D01*
X167387535Y-98113120D01*
X167582120Y-97918535D01*
X167735005Y-97689727D01*
X167767000Y-97612485D01*
X167798995Y-97689727D01*
X167951880Y-97918535D01*
X168146465Y-98113120D01*
X168375273Y-98266005D01*
X168629510Y-98371314D01*
X168899408Y-98425000D01*
X169174592Y-98425000D01*
X169444490Y-98371314D01*
X169698727Y-98266005D01*
X169927535Y-98113120D01*
X170122120Y-97918535D01*
X170275005Y-97689727D01*
X170307000Y-97612485D01*
X170338995Y-97689727D01*
X170491880Y-97918535D01*
X170686465Y-98113120D01*
X170915273Y-98266005D01*
X171169510Y-98371314D01*
X171439408Y-98425000D01*
X171714592Y-98425000D01*
X171984490Y-98371314D01*
X172238727Y-98266005D01*
X172467535Y-98113120D01*
X172662120Y-97918535D01*
X172815005Y-97689727D01*
X172847000Y-97612485D01*
X172878995Y-97689727D01*
X173031880Y-97918535D01*
X173226465Y-98113120D01*
X173455273Y-98266005D01*
X173709510Y-98371314D01*
X173979408Y-98425000D01*
X174254592Y-98425000D01*
X174524490Y-98371314D01*
X174778727Y-98266005D01*
X175007535Y-98113120D01*
X175202120Y-97918535D01*
X175355005Y-97689727D01*
X175387000Y-97612485D01*
X175418995Y-97689727D01*
X175571880Y-97918535D01*
X175766465Y-98113120D01*
X175995273Y-98266005D01*
X176249510Y-98371314D01*
X176519408Y-98425000D01*
X176794592Y-98425000D01*
X177064490Y-98371314D01*
X177318727Y-98266005D01*
X177547535Y-98113120D01*
X177742120Y-97918535D01*
X177895005Y-97689727D01*
X178000314Y-97435490D01*
X178054000Y-97165592D01*
X178054000Y-96890408D01*
X178000314Y-96620510D01*
X177895005Y-96366273D01*
X177742120Y-96137465D01*
X177547535Y-95942880D01*
X177318727Y-95789995D01*
X177241485Y-95758000D01*
X177318727Y-95726005D01*
X177547535Y-95573120D01*
X177742120Y-95378535D01*
X177895005Y-95149727D01*
X178000314Y-94895490D01*
X178054000Y-94625592D01*
X178054000Y-94350408D01*
X178000314Y-94080510D01*
X177895005Y-93826273D01*
X177742120Y-93597465D01*
X177547535Y-93402880D01*
X177318727Y-93249995D01*
X177064490Y-93144686D01*
X176794592Y-93091000D01*
X176519408Y-93091000D01*
X176249510Y-93144686D01*
X175995273Y-93249995D01*
X175766465Y-93402880D01*
X175571880Y-93597465D01*
X175418995Y-93826273D01*
X175387000Y-93903515D01*
X175355005Y-93826273D01*
X175202120Y-93597465D01*
X175007535Y-93402880D01*
X174778727Y-93249995D01*
X174524490Y-93144686D01*
X174254592Y-93091000D01*
X173979408Y-93091000D01*
X173709510Y-93144686D01*
X173455273Y-93249995D01*
X173226465Y-93402880D01*
X173031880Y-93597465D01*
X172878995Y-93826273D01*
X172847000Y-93903515D01*
X172815005Y-93826273D01*
X172662120Y-93597465D01*
X172467535Y-93402880D01*
X172238727Y-93249995D01*
X171984490Y-93144686D01*
X171714592Y-93091000D01*
X171439408Y-93091000D01*
X171169510Y-93144686D01*
X170915273Y-93249995D01*
X170686465Y-93402880D01*
X170491880Y-93597465D01*
X170338995Y-93826273D01*
X170307000Y-93903515D01*
X170275005Y-93826273D01*
X170122120Y-93597465D01*
X169927535Y-93402880D01*
X169698727Y-93249995D01*
X169444490Y-93144686D01*
X169174592Y-93091000D01*
X168899408Y-93091000D01*
X168629510Y-93144686D01*
X168375273Y-93249995D01*
X168146465Y-93402880D01*
X167951880Y-93597465D01*
X167798995Y-93826273D01*
X167767000Y-93903515D01*
X167735005Y-93826273D01*
X167582120Y-93597465D01*
X167387535Y-93402880D01*
X167158727Y-93249995D01*
X166904490Y-93144686D01*
X166634592Y-93091000D01*
X166359408Y-93091000D01*
X166089510Y-93144686D01*
X165835273Y-93249995D01*
X165606465Y-93402880D01*
X165411880Y-93597465D01*
X165258995Y-93826273D01*
X165227000Y-93903515D01*
X165195005Y-93826273D01*
X165042120Y-93597465D01*
X164847535Y-93402880D01*
X164618727Y-93249995D01*
X164364490Y-93144686D01*
X164094592Y-93091000D01*
X163819408Y-93091000D01*
X163549510Y-93144686D01*
X163295273Y-93249995D01*
X163066465Y-93402880D01*
X162871880Y-93597465D01*
X162718995Y-93826273D01*
X162687000Y-93903515D01*
X162655005Y-93826273D01*
X162502120Y-93597465D01*
X162307535Y-93402880D01*
X162078727Y-93249995D01*
X161824490Y-93144686D01*
X161554592Y-93091000D01*
X161279408Y-93091000D01*
X161009510Y-93144686D01*
X160755273Y-93249995D01*
X160526465Y-93402880D01*
X160331880Y-93597465D01*
X160178995Y-93826273D01*
X160147000Y-93903515D01*
X160115005Y-93826273D01*
X159962120Y-93597465D01*
X159767535Y-93402880D01*
X159538727Y-93249995D01*
X159284490Y-93144686D01*
X159014592Y-93091000D01*
X158739408Y-93091000D01*
X158469510Y-93144686D01*
X158215273Y-93249995D01*
X157986465Y-93402880D01*
X157791880Y-93597465D01*
X157638995Y-93826273D01*
X157607000Y-93903515D01*
X157575005Y-93826273D01*
X157422120Y-93597465D01*
X157227535Y-93402880D01*
X156998727Y-93249995D01*
X156744490Y-93144686D01*
X156474592Y-93091000D01*
X156199408Y-93091000D01*
X155929510Y-93144686D01*
X155675273Y-93249995D01*
X155446465Y-93402880D01*
X155251880Y-93597465D01*
X155098995Y-93826273D01*
X155069308Y-93897943D01*
X155064636Y-93884977D01*
X155002656Y-93769020D01*
X154762565Y-93702040D01*
X153976605Y-94488000D01*
X154762565Y-95273960D01*
X155002656Y-95206980D01*
X155066485Y-95071240D01*
X155098995Y-95149727D01*
X155251880Y-95378535D01*
X155446465Y-95573120D01*
X155675273Y-95726005D01*
X155752515Y-95758000D01*
X155675273Y-95789995D01*
X155446465Y-95942880D01*
X155251880Y-96137465D01*
X155098995Y-96366273D01*
X155067000Y-96443515D01*
X155035005Y-96366273D01*
X154882120Y-96137465D01*
X154687535Y-95942880D01*
X154458727Y-95789995D01*
X154387057Y-95760308D01*
X154400023Y-95755636D01*
X154515980Y-95693656D01*
X154582960Y-95453565D01*
X153797000Y-94667605D01*
X153782858Y-94681748D01*
X153603253Y-94502143D01*
X153617395Y-94488000D01*
X152831435Y-93702040D01*
X152591344Y-93769020D01*
X152527515Y-93904760D01*
X152495005Y-93826273D01*
X152342120Y-93597465D01*
X152267090Y-93522435D01*
X153011040Y-93522435D01*
X153797000Y-94308395D01*
X154582960Y-93522435D01*
X154515980Y-93282344D01*
X154266952Y-93165244D01*
X153999865Y-93098977D01*
X153724983Y-93086090D01*
X153452867Y-93127078D01*
X153193977Y-93220364D01*
X153078020Y-93282344D01*
X153011040Y-93522435D01*
X152267090Y-93522435D01*
X152147535Y-93402880D01*
X151918727Y-93249995D01*
X151664490Y-93144686D01*
X151394592Y-93091000D01*
X151119408Y-93091000D01*
X150849510Y-93144686D01*
X150747000Y-93187147D01*
X150747000Y-92143711D01*
X150790937Y-92099774D01*
X150904205Y-91930256D01*
X150982226Y-91741898D01*
X151022000Y-91541939D01*
X151022000Y-91338061D01*
X150982226Y-91138102D01*
X150904205Y-90949744D01*
X150810783Y-90809928D01*
X150917937Y-90702774D01*
X151031205Y-90533256D01*
X151109226Y-90344898D01*
X151149000Y-90144939D01*
X151149000Y-89941061D01*
X151109226Y-89741102D01*
X151031205Y-89552744D01*
X150976920Y-89471500D01*
X151031205Y-89390256D01*
X151109226Y-89201898D01*
X151149000Y-89001939D01*
X151149000Y-88898000D01*
X201615199Y-88898000D01*
X206125402Y-93408204D01*
X206125402Y-93408204D01*
G37*
X206125402Y-93408204D02*
X206149200Y-93437202D01*
X206178198Y-93461000D01*
X206264925Y-93532175D01*
X206396954Y-93602747D01*
X206540215Y-93646204D01*
X206689201Y-93660878D01*
X206726534Y-93657201D01*
X225800203Y-93657201D01*
X225756014Y-93723335D01*
X225654534Y-93968328D01*
X225602801Y-94228411D01*
X225602801Y-94493589D01*
X225625831Y-94609368D01*
X220151502Y-100083697D01*
X220151496Y-100083702D01*
X220057260Y-100177939D01*
X220030199Y-100205000D01*
X144666617Y-100205000D01*
X144672000Y-100177939D01*
X144672000Y-99974061D01*
X144632226Y-99774102D01*
X144554205Y-99585744D01*
X144440937Y-99416226D01*
X144349722Y-99325011D01*
X151587667Y-99325011D01*
X151624989Y-99328687D01*
X151662311Y-99325011D01*
X151662322Y-99325011D01*
X151773975Y-99314014D01*
X151917236Y-99270557D01*
X152049265Y-99199985D01*
X152164990Y-99105012D01*
X152188792Y-99076009D01*
X152855005Y-98409797D01*
X152884002Y-98386000D01*
X152978975Y-98270275D01*
X153021789Y-98190177D01*
X153135273Y-98266005D01*
X153389510Y-98371314D01*
X153659408Y-98425000D01*
X153934592Y-98425000D01*
X154204490Y-98371314D01*
X154458727Y-98266005D01*
X154687535Y-98113120D01*
X154882120Y-97918535D01*
X155035005Y-97689727D01*
X155067000Y-97612485D01*
X155098995Y-97689727D01*
X155251880Y-97918535D01*
X155446465Y-98113120D01*
X155675273Y-98266005D01*
X155929510Y-98371314D01*
X156199408Y-98425000D01*
X156474592Y-98425000D01*
X156744490Y-98371314D01*
X156998727Y-98266005D01*
X157227535Y-98113120D01*
X157422120Y-97918535D01*
X157575005Y-97689727D01*
X157607000Y-97612485D01*
X157638995Y-97689727D01*
X157791880Y-97918535D01*
X157986465Y-98113120D01*
X158215273Y-98266005D01*
X158469510Y-98371314D01*
X158739408Y-98425000D01*
X159014592Y-98425000D01*
X159284490Y-98371314D01*
X159538727Y-98266005D01*
X159767535Y-98113120D01*
X159962120Y-97918535D01*
X160115005Y-97689727D01*
X160147000Y-97612485D01*
X160178995Y-97689727D01*
X160331880Y-97918535D01*
X160526465Y-98113120D01*
X160755273Y-98266005D01*
X161009510Y-98371314D01*
X161279408Y-98425000D01*
X161554592Y-98425000D01*
X161824490Y-98371314D01*
X162078727Y-98266005D01*
X162307535Y-98113120D01*
X162502120Y-97918535D01*
X162655005Y-97689727D01*
X162687000Y-97612485D01*
X162718995Y-97689727D01*
X162871880Y-97918535D01*
X163066465Y-98113120D01*
X163295273Y-98266005D01*
X163549510Y-98371314D01*
X163819408Y-98425000D01*
X164094592Y-98425000D01*
X164364490Y-98371314D01*
X164618727Y-98266005D01*
X164847535Y-98113120D01*
X165042120Y-97918535D01*
X165195005Y-97689727D01*
X165227000Y-97612485D01*
X165258995Y-97689727D01*
X165411880Y-97918535D01*
X165606465Y-98113120D01*
X165835273Y-98266005D01*
X166089510Y-98371314D01*
X166359408Y-98425000D01*
X166634592Y-98425000D01*
X166904490Y-98371314D01*
X167158727Y-98266005D01*
X167387535Y-98113120D01*
X167582120Y-97918535D01*
X167735005Y-97689727D01*
X167767000Y-97612485D01*
X167798995Y-97689727D01*
X167951880Y-97918535D01*
X168146465Y-98113120D01*
X168375273Y-98266005D01*
X168629510Y-98371314D01*
X168899408Y-98425000D01*
X169174592Y-98425000D01*
X169444490Y-98371314D01*
X169698727Y-98266005D01*
X169927535Y-98113120D01*
X170122120Y-97918535D01*
X170275005Y-97689727D01*
X170307000Y-97612485D01*
X170338995Y-97689727D01*
X170491880Y-97918535D01*
X170686465Y-98113120D01*
X170915273Y-98266005D01*
X171169510Y-98371314D01*
X171439408Y-98425000D01*
X171714592Y-98425000D01*
X171984490Y-98371314D01*
X172238727Y-98266005D01*
X172467535Y-98113120D01*
X172662120Y-97918535D01*
X172815005Y-97689727D01*
X172847000Y-97612485D01*
X172878995Y-97689727D01*
X173031880Y-97918535D01*
X173226465Y-98113120D01*
X173455273Y-98266005D01*
X173709510Y-98371314D01*
X173979408Y-98425000D01*
X174254592Y-98425000D01*
X174524490Y-98371314D01*
X174778727Y-98266005D01*
X175007535Y-98113120D01*
X175202120Y-97918535D01*
X175355005Y-97689727D01*
X175387000Y-97612485D01*
X175418995Y-97689727D01*
X175571880Y-97918535D01*
X175766465Y-98113120D01*
X175995273Y-98266005D01*
X176249510Y-98371314D01*
X176519408Y-98425000D01*
X176794592Y-98425000D01*
X177064490Y-98371314D01*
X177318727Y-98266005D01*
X177547535Y-98113120D01*
X177742120Y-97918535D01*
X177895005Y-97689727D01*
X178000314Y-97435490D01*
X178054000Y-97165592D01*
X178054000Y-96890408D01*
X178000314Y-96620510D01*
X177895005Y-96366273D01*
X177742120Y-96137465D01*
X177547535Y-95942880D01*
X177318727Y-95789995D01*
X177241485Y-95758000D01*
X177318727Y-95726005D01*
X177547535Y-95573120D01*
X177742120Y-95378535D01*
X177895005Y-95149727D01*
X178000314Y-94895490D01*
X178054000Y-94625592D01*
X178054000Y-94350408D01*
X178000314Y-94080510D01*
X177895005Y-93826273D01*
X177742120Y-93597465D01*
X177547535Y-93402880D01*
X177318727Y-93249995D01*
X177064490Y-93144686D01*
X176794592Y-93091000D01*
X176519408Y-93091000D01*
X176249510Y-93144686D01*
X175995273Y-93249995D01*
X175766465Y-93402880D01*
X175571880Y-93597465D01*
X175418995Y-93826273D01*
X175387000Y-93903515D01*
X175355005Y-93826273D01*
X175202120Y-93597465D01*
X175007535Y-93402880D01*
X174778727Y-93249995D01*
X174524490Y-93144686D01*
X174254592Y-93091000D01*
X173979408Y-93091000D01*
X173709510Y-93144686D01*
X173455273Y-93249995D01*
X173226465Y-93402880D01*
X173031880Y-93597465D01*
X172878995Y-93826273D01*
X172847000Y-93903515D01*
X172815005Y-93826273D01*
X172662120Y-93597465D01*
X172467535Y-93402880D01*
X172238727Y-93249995D01*
X171984490Y-93144686D01*
X171714592Y-93091000D01*
X171439408Y-93091000D01*
X171169510Y-93144686D01*
X170915273Y-93249995D01*
X170686465Y-93402880D01*
X170491880Y-93597465D01*
X170338995Y-93826273D01*
X170307000Y-93903515D01*
X170275005Y-93826273D01*
X170122120Y-93597465D01*
X169927535Y-93402880D01*
X169698727Y-93249995D01*
X169444490Y-93144686D01*
X169174592Y-93091000D01*
X168899408Y-93091000D01*
X168629510Y-93144686D01*
X168375273Y-93249995D01*
X168146465Y-93402880D01*
X167951880Y-93597465D01*
X167798995Y-93826273D01*
X167767000Y-93903515D01*
X167735005Y-93826273D01*
X167582120Y-93597465D01*
X167387535Y-93402880D01*
X167158727Y-93249995D01*
X166904490Y-93144686D01*
X166634592Y-93091000D01*
X166359408Y-93091000D01*
X166089510Y-93144686D01*
X165835273Y-93249995D01*
X165606465Y-93402880D01*
X165411880Y-93597465D01*
X165258995Y-93826273D01*
X165227000Y-93903515D01*
X165195005Y-93826273D01*
X165042120Y-93597465D01*
X164847535Y-93402880D01*
X164618727Y-93249995D01*
X164364490Y-93144686D01*
X164094592Y-93091000D01*
X163819408Y-93091000D01*
X163549510Y-93144686D01*
X163295273Y-93249995D01*
X163066465Y-93402880D01*
X162871880Y-93597465D01*
X162718995Y-93826273D01*
X162687000Y-93903515D01*
X162655005Y-93826273D01*
X162502120Y-93597465D01*
X162307535Y-93402880D01*
X162078727Y-93249995D01*
X161824490Y-93144686D01*
X161554592Y-93091000D01*
X161279408Y-93091000D01*
X161009510Y-93144686D01*
X160755273Y-93249995D01*
X160526465Y-93402880D01*
X160331880Y-93597465D01*
X160178995Y-93826273D01*
X160147000Y-93903515D01*
X160115005Y-93826273D01*
X159962120Y-93597465D01*
X159767535Y-93402880D01*
X159538727Y-93249995D01*
X159284490Y-93144686D01*
X159014592Y-93091000D01*
X158739408Y-93091000D01*
X158469510Y-93144686D01*
X158215273Y-93249995D01*
X157986465Y-93402880D01*
X157791880Y-93597465D01*
X157638995Y-93826273D01*
X157607000Y-93903515D01*
X157575005Y-93826273D01*
X157422120Y-93597465D01*
X157227535Y-93402880D01*
X156998727Y-93249995D01*
X156744490Y-93144686D01*
X156474592Y-93091000D01*
X156199408Y-93091000D01*
X155929510Y-93144686D01*
X155675273Y-93249995D01*
X155446465Y-93402880D01*
X155251880Y-93597465D01*
X155098995Y-93826273D01*
X155069308Y-93897943D01*
X155064636Y-93884977D01*
X155002656Y-93769020D01*
X154762565Y-93702040D01*
X153976605Y-94488000D01*
X154762565Y-95273960D01*
X155002656Y-95206980D01*
X155066485Y-95071240D01*
X155098995Y-95149727D01*
X155251880Y-95378535D01*
X155446465Y-95573120D01*
X155675273Y-95726005D01*
X155752515Y-95758000D01*
X155675273Y-95789995D01*
X155446465Y-95942880D01*
X155251880Y-96137465D01*
X155098995Y-96366273D01*
X155067000Y-96443515D01*
X155035005Y-96366273D01*
X154882120Y-96137465D01*
X154687535Y-95942880D01*
X154458727Y-95789995D01*
X154387057Y-95760308D01*
X154400023Y-95755636D01*
X154515980Y-95693656D01*
X154582960Y-95453565D01*
X153797000Y-94667605D01*
X153782858Y-94681748D01*
X153603253Y-94502143D01*
X153617395Y-94488000D01*
X152831435Y-93702040D01*
X152591344Y-93769020D01*
X152527515Y-93904760D01*
X152495005Y-93826273D01*
X152342120Y-93597465D01*
X152267090Y-93522435D01*
X153011040Y-93522435D01*
X153797000Y-94308395D01*
X154582960Y-93522435D01*
X154515980Y-93282344D01*
X154266952Y-93165244D01*
X153999865Y-93098977D01*
X153724983Y-93086090D01*
X153452867Y-93127078D01*
X153193977Y-93220364D01*
X153078020Y-93282344D01*
X153011040Y-93522435D01*
X152267090Y-93522435D01*
X152147535Y-93402880D01*
X151918727Y-93249995D01*
X151664490Y-93144686D01*
X151394592Y-93091000D01*
X151119408Y-93091000D01*
X150849510Y-93144686D01*
X150747000Y-93187147D01*
X150747000Y-92143711D01*
X150790937Y-92099774D01*
X150904205Y-91930256D01*
X150982226Y-91741898D01*
X151022000Y-91541939D01*
X151022000Y-91338061D01*
X150982226Y-91138102D01*
X150904205Y-90949744D01*
X150810783Y-90809928D01*
X150917937Y-90702774D01*
X151031205Y-90533256D01*
X151109226Y-90344898D01*
X151149000Y-90144939D01*
X151149000Y-89941061D01*
X151109226Y-89741102D01*
X151031205Y-89552744D01*
X150976920Y-89471500D01*
X151031205Y-89390256D01*
X151109226Y-89201898D01*
X151149000Y-89001939D01*
X151149000Y-88898000D01*
X201615199Y-88898000D01*
X206125402Y-93408204D01*
G36*
X205430200Y-90554002D02*
G01*
X205453999Y-90583001D01*
X205569724Y-90677974D01*
X205701753Y-90748546D01*
X205845014Y-90792003D01*
X205956667Y-90803000D01*
X205956677Y-90803000D01*
X205994000Y-90806676D01*
X206031323Y-90803000D01*
X224816200Y-90803000D01*
X225625831Y-91612631D01*
X225602801Y-91728411D01*
X225602801Y-91993589D01*
X225631367Y-92137201D01*
X207004003Y-92137201D01*
X202493804Y-87627003D01*
X202470001Y-87597999D01*
X202354276Y-87503026D01*
X202222247Y-87432454D01*
X202151518Y-87410999D01*
X202287198Y-87410999D01*
X205430200Y-90554002D01*
X205430200Y-90554002D01*
G37*
X205430200Y-90554002D02*
X205453999Y-90583001D01*
X205569724Y-90677974D01*
X205701753Y-90748546D01*
X205845014Y-90792003D01*
X205956667Y-90803000D01*
X205956677Y-90803000D01*
X205994000Y-90806676D01*
X206031323Y-90803000D01*
X224816200Y-90803000D01*
X225625831Y-91612631D01*
X225602801Y-91728411D01*
X225602801Y-91993589D01*
X225631367Y-92137201D01*
X207004003Y-92137201D01*
X202493804Y-87627003D01*
X202470001Y-87597999D01*
X202354276Y-87503026D01*
X202222247Y-87432454D01*
X202151518Y-87410999D01*
X202287198Y-87410999D01*
X205430200Y-90554002D01*
M02*
