M48
; DRILL file {KiCad (5.1.2-1)-1} date Saturday, June 13, 2020 at 09:23:13 PM
; FORMAT={-:-/ absolute / inch / decimal}
; #@! TF.CreationDate,2020-06-13T21:23:13-04:00
; #@! TF.GenerationSoftware,Kicad,Pcbnew,(5.1.2-1)-1
FMAT,2
INCH
T1C0.0157
T2C0.0512
T3C0.1260
%
G90
G05
T1
X8.63Y-2.46
X8.89Y-2.52
T2
X4.7646Y-4.79
X4.9615Y-4.79
X5.1583Y-4.79
X5.3552Y-4.79
X5.552Y-4.79
X5.7489Y-4.79
X5.9457Y-4.79
X6.1426Y-4.79
X6.3394Y-4.79
X6.5363Y-4.79
X6.7331Y-4.79
X6.93Y-4.79
X7.1746Y-4.79
X7.3715Y-4.79
X7.5683Y-4.79
X7.7652Y-4.79
X7.962Y-4.79
X8.1589Y-4.79
X8.3557Y-4.79
X8.5526Y-4.79
X8.7494Y-4.79
X8.9463Y-4.79
X9.1431Y-4.79
X9.34Y-4.79
X4.82Y-2.55
X4.82Y-2.7469
X4.82Y-2.9437
X4.82Y-3.1406
X4.82Y-3.3374
X4.82Y-3.5343
X4.82Y-3.7311
X4.82Y-3.928
X4.82Y-4.1248
X4.82Y-4.3217
X9.29Y-2.5583
X9.29Y-2.7552
X9.29Y-2.952
X9.29Y-3.1489
X9.29Y-3.3457
X9.29Y-3.5426
X9.29Y-3.7394
X9.29Y-3.9363
X9.29Y-4.1331
X9.29Y-4.33
T3
X8.335Y-2.605
X5.735Y-2.605
X5.735Y-4.315
X8.335Y-4.315
T0
M30
